<svg xmlns="http://www.w3.org/2000/svg" xmlns:xlink="http://www.w3.org/1999/xlink" width="1641" height="254.483" viewBox="0 0 1641 254.483">
  <defs>
    <filter id="path839" x="784.869" y="0" width="258.503" height="254.483" filterUnits="userSpaceOnUse">
      <feOffset dy="6" input="SourceAlpha"/>
      <feGaussianBlur stdDeviation="10" result="blur"/>
      <feFlood flood-opacity="0.741"/>
      <feComposite operator="in" in2="blur"/>
      <feComposite in="SourceGraphic"/>
    </filter>
    <filter id="path841" x="775.66" y="36.25" width="200.246" height="177.569" filterUnits="userSpaceOnUse">
      <feOffset dy="6" input="SourceAlpha"/>
      <feGaussianBlur stdDeviation="10" result="blur-2"/>
      <feFlood flood-opacity="0.749"/>
      <feComposite operator="in" in2="blur-2"/>
      <feComposite in="SourceGraphic"/>
    </filter>
    <filter id="RAPID" x="1085" y="4.741" width="556" height="239" filterUnits="userSpaceOnUse">
      <feOffset dx="3" dy="3" input="SourceAlpha"/>
      <feGaussianBlur stdDeviation="3" result="blur-3"/>
      <feFlood flood-opacity="0.698"/>
      <feComposite operator="in" in2="blur-3"/>
      <feComposite in="SourceGraphic"/>
    </filter>
    <filter id="MUFTAR" x="0" y="4.741" width="740" height="239" filterUnits="userSpaceOnUse">
      <feOffset dx="3" dy="3" input="SourceAlpha"/>
      <feGaussianBlur stdDeviation="3" result="blur-4"/>
      <feFlood flood-opacity="0.698"/>
      <feComposite operator="in" in2="blur-4"/>
      <feComposite in="SourceGraphic"/>
    </filter>
  </defs>
  <g id="Group_487" data-name="Group 487" transform="translate(5815 1363.741)">
    <g id="Group_486" data-name="Group 486" transform="translate(-5966.737 -1890.975)">
      <g id="Group_65" data-name="Group 65" transform="translate(957.398 551.234)">
        <g id="layer1" transform="translate(0 0)">
          <g transform="matrix(1, 0, 0, 1, -805.66, -24)" filter="url(#path839)">
            <path id="path839-2" data-name="path839" d="M112.449,75.816l198.5.044L198.81,270.3l-15.77-26.407L263.1,102.141H127.58Z" transform="translate(702.42 -51.82)" fill="#fff"/>
          </g>
          <g transform="matrix(1, 0, 0, 1, -805.66, -24)" filter="url(#path841)">
            <path id="path841-2" data-name="path841" d="M110.174,84.787l140.245-.017-11.914,20.042-86.114.456,43.58,70.7-15.389,26.37Z" transform="translate(695.49 -24.52)" fill="#fff"/>
          </g>
          <path id="path843" d="M128.961,105.33l23.765,10.744L136.56,89.339l-22.3-10.421Z" transform="translate(-97.719 -66.36)" fill="#fff"/>
        </g>
      </g>
    </g>
    <g transform="matrix(1, 0, 0, 1, -5815, -1363.74)" filter="url(#RAPID)">
      <text id="RAPID-2" data-name="RAPID" transform="translate(1360 172.74)" fill="#fff" font-size="162" font-family="Avenir-Heavy, Avenir" font-weight="800" letter-spacing="0.08em"><tspan x="-268.92" y="0">RAPID</tspan></text>
    </g>
    <g transform="matrix(1, 0, 0, 1, -5815, -1363.74)" filter="url(#MUFTAR)">
      <text id="MUFTAR-2" data-name="MUFTAR" transform="translate(367 172.74)" fill="#fff" font-size="162" font-family="Avenir-Heavy, Avenir" font-weight="800" letter-spacing="0.08em"><tspan x="-360.936" y="0">MUFTAR</tspan></text>
    </g>
  </g>
</svg>
