<svg xmlns="http://www.w3.org/2000/svg" width="40.834" height="46.667" viewBox="0 0 40.834 46.667">
  <path id="Icon_awesome-user-tie" data-name="Icon awesome-user-tie" d="M20.417,23.333A11.667,11.667,0,1,0,8.75,11.667,11.666,11.666,0,0,0,20.417,23.333ZM29.149,26.3,24.792,43.75l-2.917-12.4,2.917-5.1h-8.75l2.917,5.1-2.917,12.4L11.685,26.3A12.229,12.229,0,0,0,0,38.5v3.792a4.376,4.376,0,0,0,4.375,4.375H36.459a4.376,4.376,0,0,0,4.375-4.375V38.5A12.229,12.229,0,0,0,29.149,26.3Z" fill="#bcbdbd"/>
</svg>
