<?xml version="1.0" encoding="UTF-8"?>
<svg xmlns="http://www.w3.org/2000/svg" xmlns:xlink="http://www.w3.org/1999/xlink" viewBox="0 0 376.73 244.7">
  <defs>
    <style>
      .cls-1, .cls-2 {
        fill: #fff;
      }

      .cls-3 {
        fill: url(#linear-gradient-17);
      }

      .cls-2 {
        font-family: Arial-BoldMT, Arial;
        font-size: 30.26px;
        font-weight: 700;
        letter-spacing: .2em;
      }

      .cls-4 {
        fill: url(#linear-gradient);
      }

      .cls-4, .cls-5, .cls-6, .cls-7, .cls-8 {
        mix-blend-mode: multiply;
      }

      .cls-5 {
        fill: url(#linear-gradient-18);
      }

      .cls-9 {
        fill: url(#linear-gradient-15);
      }

      .cls-10 {
        fill: #f7daba;
      }

      .cls-11 {
        fill: url(#linear-gradient-14);
      }

      .cls-6 {
        fill: url(#linear-gradient-21);
      }

      .cls-12 {
        fill: url(#linear-gradient-20);
      }

      .cls-13 {
        fill: url(#linear-gradient-6);
      }

      .cls-14 {
        isolation: isolate;
      }

      .cls-15 {
        fill: #c4dcf2;
      }

      .cls-16 {
        fill: url(#linear-gradient-11);
      }

      .cls-7 {
        fill: url(#linear-gradient-26);
      }

      .cls-17 {
        fill: #d4e6f9;
      }

      .cls-18 {
        fill: url(#linear-gradient-10);
      }

      .cls-19 {
        fill: #c3ddf4;
      }

      .cls-20 {
        fill: #fffdff;
      }

      .cls-21 {
        fill: url(#linear-gradient-16);
      }

      .cls-22 {
        fill: url(#linear-gradient-25);
      }

      .cls-23 {
        fill: url(#linear-gradient-5);
      }

      .cls-8 {
        fill: url(#linear-gradient-2);
      }

      .cls-24 {
        fill: url(#linear-gradient-7);
      }

      .cls-25 {
        fill: url(#linear-gradient-24);
      }

      .cls-26 {
        fill: #b7d6ed;
      }

      .cls-27 {
        fill: url(#linear-gradient-9);
      }

      .cls-28 {
        fill: url(#linear-gradient-22);
      }

      .cls-29 {
        fill: #f2f7fc;
        stroke: #afc7dd;
        stroke-dasharray: 0 0 3.29 5.48;
        stroke-width: 1.1px;
      }

      .cls-29, .cls-30 {
        stroke-linecap: round;
        stroke-miterlimit: 10;
      }

      .cls-31 {
        fill: #1d262d;
      }

      .cls-32 {
        fill: url(#linear-gradient-3);
      }

      .cls-30 {
        fill: none;
        stroke: #ff8243;
        stroke-width: .93px;
      }

      .cls-33 {
        fill: url(#linear-gradient-23);
      }

      .cls-34 {
        fill: url(#linear-gradient-19);
      }

      .cls-35 {
        fill: url(#linear-gradient-4);
      }

      .cls-36 {
        fill: url(#linear-gradient-8);
      }

      .cls-37 {
        fill: url(#linear-gradient-12);
      }

      .cls-38 {
        fill: url(#linear-gradient-13);
      }
    </style>
    <linearGradient id="linear-gradient" x1=".06" y1="240.51" x2="56.96" y2="240.51" gradientUnits="userSpaceOnUse">
      <stop offset=".05" stop-color="#f0f5fc"/>
      <stop offset="1" stop-color="#fafbfe"/>
    </linearGradient>
    <linearGradient id="linear-gradient-2" x1="308.24" y1="219.11" x2="351.65" y2="219.11" xlink:href="#linear-gradient"/>
    <linearGradient id="linear-gradient-3" x1="284.05" y1="149.02" x2="326.52" y2="149.02" gradientUnits="userSpaceOnUse">
      <stop offset=".06" stop-color="#e38204"/>
      <stop offset="1" stop-color="#e35802"/>
    </linearGradient>
    <linearGradient id="linear-gradient-4" x1="334.26" y1="166.91" x2="376.73" y2="166.91" xlink:href="#linear-gradient-3"/>
    <linearGradient id="linear-gradient-5" x1="294.9" y1="99.59" x2="328.57" y2="99.59" xlink:href="#linear-gradient-3"/>
    <linearGradient id="linear-gradient-6" x1="333.29" y1="119.2" x2="366.96" y2="119.2" xlink:href="#linear-gradient-3"/>
    <linearGradient id="linear-gradient-7" x1="279.66" y1="77.22" x2="236.18" y2="106.28" gradientTransform="translate(-7.87 -53.19)" xlink:href="#linear-gradient"/>
    <linearGradient id="linear-gradient-8" x1="279.66" y1="86.99" x2="236.18" y2="116.05" gradientTransform="translate(-10.24 -53.48)" xlink:href="#linear-gradient"/>
    <linearGradient id="linear-gradient-9" x1="279.66" y1="96.76" x2="236.18" y2="125.83" gradientTransform="translate(-12.61 -53.77)" xlink:href="#linear-gradient"/>
    <linearGradient id="linear-gradient-10" x1="176.76" y1="7.97" x2="183.9" y2="7.97" xlink:href="#linear-gradient"/>
    <linearGradient id="linear-gradient-11" x1="7.26" y1="147.8" x2="20.62" y2="147.8" xlink:href="#linear-gradient-3"/>
    <linearGradient id="linear-gradient-12" x1="12.14" y1="200.74" x2="35.3" y2="200.74" gradientUnits="userSpaceOnUse">
      <stop offset="0" stop-color="#00a9f4"/>
      <stop offset="1" stop-color="#0077ec"/>
    </linearGradient>
    <linearGradient id="linear-gradient-13" x1="21.86" y1="145.95" x2="21.86" y2="169.65" xlink:href="#linear-gradient-3"/>
    <linearGradient id="linear-gradient-14" x1="36.81" y1="144.15" x2="29.38" y2="145.36" xlink:href="#linear-gradient-3"/>
    <linearGradient id="linear-gradient-15" x1="19.75" y1="140.26" x2="19.75" y2="140.27" xlink:href="#linear-gradient-3"/>
    <linearGradient id="linear-gradient-16" x1="17.93" y1="125.49" x2="30.08" y2="125.49" xlink:href="#linear-gradient-3"/>
    <linearGradient id="linear-gradient-17" x1="16.94" y1="128.58" x2="31.02" y2="128.58" xlink:href="#linear-gradient-3"/>
    <linearGradient id="linear-gradient-18" x1="166.95" y1="232.6" x2="234.05" y2="232.6" xlink:href="#linear-gradient"/>
    <linearGradient id="linear-gradient-19" x1="181.92" y1="206.26" x2="218.13" y2="206.26" xlink:href="#linear-gradient-3"/>
    <linearGradient id="linear-gradient-20" x1="174.67" y1="231.12" x2="225.38" y2="231.12" xlink:href="#linear-gradient-3"/>
    <linearGradient id="linear-gradient-21" x1="232.84" y1="218.42" x2="289.56" y2="218.42" xlink:href="#linear-gradient"/>
    <linearGradient id="linear-gradient-22" x1="246.15" y1="201.4" x2="273.87" y2="201.4" xlink:href="#linear-gradient-12"/>
    <linearGradient id="linear-gradient-23" x1="246.15" y1="192.03" x2="273.87" y2="192.03" xlink:href="#linear-gradient-3"/>
    <linearGradient id="linear-gradient-24" x1="246.3" y1="184.68" x2="273.76" y2="184.68" xlink:href="#linear-gradient-3"/>
    <linearGradient id="linear-gradient-25" x1="246.2" y1="176.59" x2="273.82" y2="176.59" xlink:href="#linear-gradient-12"/>
    <linearGradient id="linear-gradient-26" x1="58.17" y1="227.67" x2="160.2" y2="227.67" xlink:href="#linear-gradient"/>
  </defs>
  <g class="cls-14">
    <g id="Layer_2" data-name="Layer 2">
      <g id="obj">
        <g>
          <ellipse class="cls-4" cx="28.51" cy="240.51" rx="28.45" ry="4.19"/>
          <g>
            <path class="cls-8" d="M351.65,219.11c0,2.49-9.72,4.5-21.7,4.5s-21.7-2.01-21.7-4.5,9.72-4.5,21.7-4.5,21.7,2.01,21.7,4.5Z"/>
            <g>
              <g>
                <path class="cls-32" d="M325.04,170.13c-7.62,.68-21.23-40.06-40.99-36.87,0,0,18.26-8.69,27.46-3.93,15.56,8.05,16.82,40.5,13.53,40.8Z"/>
                <path class="cls-30" d="M326.21,197.66s3.97-61.8-27.42-66.11"/>
              </g>
              <g>
                <path class="cls-35" d="M335.74,188.02c7.62,.68,21.23-40.06,40.99-36.87,0,0-18.26-8.69-27.46-3.93-15.56,8.05-16.82,40.5-13.53,40.8Z"/>
                <path class="cls-30" d="M334.57,215.55s-3.97-61.8,27.42-66.11"/>
              </g>
              <g>
                <path class="cls-23" d="M295.53,68.16s11.04,5.76,17.15,33.99c4.69,21.7,14.93,29.87,14.93,29.87,0,0,3.12-22.48-1.91-42.7-4.32-17.38-15.75-24.5-30.8-21.47"/>
                <path class="cls-30" d="M329.63,196.11c0-.78,4.24-110.99-24.27-123.51"/>
              </g>
              <g>
                <path class="cls-13" d="M366.33,87.76s-11.04,5.76-17.15,33.99c-4.69,21.7-14.93,29.87-14.93,29.87,0,0-3.12-22.48,1.91-42.7,4.32-17.38,15.75-24.5,30.8-21.47"/>
                <path class="cls-30" d="M332.23,215.71c0-.78-4.24-110.99,24.27-123.51"/>
              </g>
              <g>
                <path class="cls-17" d="M339.2,219.52h-17.17c-1.11,0-2.03-.85-2.12-1.95l-2.19-22.5h25.8l-2.19,22.5c-.09,1.1-1.02,1.95-2.12,1.95Z"/>
                <rect class="cls-19" x="316.14" y="195.07" width="28.94" height="4.37" rx=".93" ry=".93"/>
              </g>
            </g>
          </g>
          <g>
            <g>
              <g>
                <rect class="cls-17" x="99.26" y="-60.74" width="159.59" height="285.28" rx="4.67" ry="4.67" transform="translate(260.95 -97.15) rotate(90)"/>
                <rect class="cls-1" x="104.69" y="-55.41" width="148.73" height="274.62" transform="translate(260.95 -97.15) rotate(90)"/>
              </g>
              <g>
                <path class="cls-17" d="M122.96,45.58c-.59-2.62-1.6-5.08-2.94-7.32-2.09-3.52-5.01-6.51-8.49-8.68-2.21-1.39-4.66-2.45-7.26-3.11-2.03-.52-4.16-.79-6.35-.79-1.99,0-3.93,.23-5.78,.66-2.62,.59-5.08,1.6-7.33,2.93-3.52,2.1-6.51,5.02-8.67,8.49-1.4,2.21-2.45,4.65-3.11,7.25-.52,2.03-.8,4.16-.8,6.35,0,1.99,.23,3.93,.67,5.78,.58,2.62,1.59,5.08,2.93,7.33,2.09,3.52,5.01,6.51,8.49,8.68,2.21,1.39,4.65,2.45,7.25,3.11,2.03,.52,4.16,.79,6.35,.79,1.99,0,3.93-.23,5.79-.66,2.62-.59,5.08-1.59,7.32-2.93,3.53-2.1,6.51-5.01,8.68-8.49,1.4-2.21,2.46-4.65,3.12-7.25,.52-2.03,.79-4.16,.79-6.35,0-1.99-.23-3.93-.66-5.78Zm-39.28,5.78c0-7.88,6.39-14.25,14.25-14.25s14.26,6.38,14.26,14.25-6.39,14.25-14.26,14.25-14.25-6.38-14.25-14.25Z"/>
                <rect class="cls-17" x="92.14" y="20.74" width="12.14" height="14.4" rx="2.24" ry="2.24"/>
                <rect class="cls-17" x="75.49" y="27.4" width="12.14" height="14.4" rx="2.24" ry="2.24" transform="translate(-.58 67.81) rotate(-45)"/>
                <rect class="cls-17" x="68.43" y="43.88" width="12.14" height="14.4" rx="2.24" ry="2.24" transform="translate(23.42 125.58) rotate(-90)"/>
                <rect class="cls-17" x="75.09" y="60.53" width="12.14" height="14.4" rx="2.24" ry="2.24" transform="translate(90.66 173.02) rotate(-135)"/>
                <rect class="cls-17" x="91.58" y="67.59" width="12.14" height="14.4" rx="2.24" ry="2.24" transform="translate(195.3 149.59) rotate(180)"/>
                <rect class="cls-17" x="108.23" y="60.93" width="12.14" height="14.4" rx="2.24" ry="2.24" transform="translate(243.29 35.49) rotate(135)"/>
                <rect class="cls-17" x="115.29" y="44.45" width="12.14" height="14.4" rx="2.24" ry="2.24" transform="translate(173 -69.71) rotate(90)"/>
                <rect class="cls-17" x="108.63" y="27.8" width="12.14" height="14.4" rx="2.24" ry="2.24" transform="translate(58.34 -70.85) rotate(45)"/>
              </g>
              <rect class="cls-19" x="163.66" y="90.96" width="138.01" height="50.84" rx="4.93" ry="4.93"/>
              <rect class="cls-29" x="163.66" y="27.75" width="138.01" height="50.84" rx="4.41" ry="4.41"/>
            </g>
            <g>
              <g>
                <path class="cls-19" d="M302.39,31.09L178.74,.16c-2.82-.71-5.69,1.02-6.39,3.84l-9.79,39.09c-.71,2.83,1.02,5.7,3.84,6.4l123.65,30.92c2.83,.72,5.7-1.01,6.4-3.83l9.77-39.1c.71-2.82-1.01-5.69-3.84-6.39ZM180.33,11.53c-1.97,0-3.57-1.59-3.57-3.56s1.6-3.57,3.57-3.57,3.57,1.6,3.57,3.57-1.6,3.56-3.57,3.56Z"/>
                <path class="cls-1" d="M206.38,33.28c-1.74,6.95-8.78,11.17-15.73,9.44s-11.17-8.78-9.44-15.73c1.74-6.95,8.78-11.17,15.73-9.44s11.17,8.78,9.44,15.73Z"/>
                <g>
                  <rect class="cls-24" x="218.74" y="34.04" width="72.29" height="2.59" transform="translate(16.19 -60.8) rotate(14.04)"/>
                  <rect class="cls-36" x="216.37" y="43.52" width="72.29" height="2.59" transform="translate(18.42 -59.94) rotate(14.04)"/>
                  <rect class="cls-27" x="214" y="53" width="72.29" height="2.59" transform="translate(20.65 -59.08) rotate(14.04)"/>
                </g>
              </g>
              <path class="cls-18" d="M183.9,7.97c0,.48-.09,.93-.27,1.35-.53,1.3-1.81,2.21-3.3,2.21-1.27,0-2.38-.65-3-1.64,0,0,0,.01-.01,0-.35-.55-.56-1.21-.56-1.92,0-.9,.33-1.72,.89-2.35,.64-.75,1.61-1.22,2.68-1.22,.86,0,1.65,.31,2.26,.82,0-.01,.01,0,.01,0,.79,.65,1.3,1.64,1.3,2.75Z"/>
            </g>
          </g>
          <text class="cls-2" transform="translate(212.78 126.22)"><tspan x="0" y="0">&lt;/&gt;</tspan></text>
          <g>
            <g>
              <path class="cls-19" d="M90.15,88.75l-13.05,16.61-14.03-11.03,13.05-16.61c-7.19-1.49-14.94,1.07-19.79,7.24-5.74,7.3-5.59,17.35-.24,24.42,.03,.04,.06,.08,.09,.12L2.98,175.43c-2.15,2.63-1.73,6.51,.94,8.6,2.67,2.1,6.54,1.59,8.58-1.12L63.99,115.64s.09,.04,.14,.06c8.14,3.52,17.93,1.29,23.67-6.01,4.85-6.17,5.5-14.3,2.35-20.94ZM10.61,180.8c-1.11,1.42-3.16,1.66-4.58,.55-1.42-1.11-1.66-3.16-.55-4.58,1.11-1.42,3.17-1.66,4.58-.55,1.42,1.11,1.66,3.16,.55,4.58Z"/>
              <g>
                <g>
                  <path class="cls-10" d="M14.67,175.03l14.94-.62,.65-25.56-1.03-6.42-6.9-2.54-4.44,.85c-2.53,.48-4.32,2.73-4.23,5.3l1.62,18.09-.6,10.9Z"/>
                  <path class="cls-10" d="M19.69,135.9v5.14s1.09,.65,3.62,.65c1.37,0,1.68-.65,1.68-.65v-1.9l-5.3-3.24Z"/>
                  <path class="cls-10" d="M19.1,132.07c.01,.19,.02,.36,.03,.53,0,.06,0,.12,0,.19-.13,3.05,1.83,6.31,4.78,6.76,0,0,.02,0,.07,.01,.02,0,.06,0,.1,0,.63,.08,2.91,.26,3.74-.65,.98-1.08,1.85-3.06,1.85-4.41s-.25-1.67-.25-2.22c0-.43,.23-1.76,.23-2.34,.02-2.72-1.81-5.42-5.06-5.42-4.88,0-5.62,4.28-5.49,7.56Z"/>
                  <g>
                    <path class="cls-10" d="M5.05,158.33c1.34,1.11,8.48-6.07,11.28-9.34,2.8-3.27,4.43-6.35,2.8-7.7-1.63-1.35-4.35,.83-7.03,4.2-2.68,3.37-8.39,11.73-7.05,12.84Z"/>
                    <g>
                      <path class="cls-10" d="M1.79,176.86c1.5,.33,4.33-10.64,5.01-13.77,.68-3.12,1.17-6.47-.51-6.84-1.69-.37-2.64,2.88-3.32,6-.68,3.12-2.68,14.28-1.18,14.6Z"/>
                      <path class="cls-10" d="M2.49,174.01c-1.74-.52-2.31,2.66-2.46,3.75-.25,1.78,1.22,3.85,1.91,3.96,.69,.11,.95-3.96,1.13-4.07,.18-.11-.17,2.05,.48,2.09,.66,.03,.96-2.62,.67-3.71-.28-1.1-.64-1.69-1.73-2.02Z"/>
                    </g>
                    <path class="cls-16" d="M7.26,151.8s7.52-13.51,12.32-10.88c4.8,2.62-8.68,14.12-8.68,14.12l-3.65-3.23Z"/>
                  </g>
                  <path class="cls-10" d="M23.91,173.27c-1.49,.66-2.32,3.45-1.82,6.03,.4,2.06,1.11,4.7,2.35,7.79,3.09,7.72,5.49,18.04,7.68,18,2.19-.04,2.92-6.44,.77-14.78-1.94-7.54-3.72-17.42-5.34-17.91-.82-.25-2.34,.28-3.64,.86Z"/>
                  <path class="cls-10" d="M32.85,203.46c-5.96-2.15-3.26,26.04-1.26,32.07,2,6.03,2.75-4.3,3.11-14.71,.36-10.41,.5-16.52-1.85-17.37Z"/>
                  <path class="cls-10" d="M29.59,224.39c.07,.11,.94,12.95,.94,12.95,0,0,3.8,.32,3.8,0s.19-12.69,.19-12.69l-4.93-.26Z"/>
                  <path class="cls-10" d="M16.62,227.98c.07,.11,.5,9.37,.5,9.37,0,0,3.8,.32,3.8,0s.29-8.36,.29-8.36l-4.59-1.01Z"/>
                  <path class="cls-10" d="M16.66,173.15c-1.57,.31-2.84,2.85-2.77,5.51,.05,2.11,.31,4.87,1.02,8.18,1.76,8.28,2.41,18.95,4.57,19.41,2.16,.46,3.93-5.65,3.19-14.32-.67-7.84-.78-17.94-2.29-18.79-.76-.43-2.34-.26-3.72,.01Z"/>
                  <path class="cls-10" d="M20.3,204.18c-5.86-2.5-4.23,25.82-2.48,31.96,1.74,6.14,2.79-4.13,3.59-14.51,.8-10.37,1.2-16.47-1.11-17.45Z"/>
                  <path class="cls-37" d="M30.37,173.14s5.05,26.22,4.93,30.93c-.12,4.7-.82,28.06-.82,28.06,0,0-4.58-.11-4.58-.13-.08-.38-1.84-10.33-2.32-18.13-.3-4.92,.64-8.73,.5-9.5-.36-1.99-4.97-13.62-4.97-13.62,0,0-.17,11.16-.17,13.88s-1.86,27.5-1.86,27.5l-4.24,.04s-1.97-14.97-1.97-18.49,1.02-9.06,.98-9.78c-.05-.72-6.64-23.64-2.12-30.51,5.95-9.04,16.65-.24,16.65-.24Z"/>
                  <path class="cls-38" d="M31.11,175.39l-18.49,.12s.44-16.88,.45-20.68c.04-10.81,.82-12.63,3.38-13.84,.86-.4,1.95-.63,3.11-.72h.01c.38,.11,1.37,1.09,5.17,.32,2.08,.35,3.76,.91,4.2,1.33,1.03,.97,1.34,2.84,1.52,6.29,.06,.96,.45,2.92,.37,6.97-.12,5.99-.4,19.55,.27,20.2Z"/>
                  <g>
                    <path class="cls-10" d="M48.42,144.87c0-1.72-10-2.61-14.28-2.67-4.27-.06-7.65,.65-7.64,2.75,0,2.1,3.39,2.79,7.66,2.69,4.27-.09,14.26-1.06,14.25-2.78Z"/>
                    <path class="cls-10" d="M56.3,127.06c-1.34-.73-7.1,8.91-8.63,11.69-1.52,2.78-2.93,5.83-1.43,6.65,1.5,.82,3.31-2,4.84-4.78s6.56-12.83,5.22-13.56Z"/>
                    <path class="cls-10" d="M40.88,142.73l4.58-.17,3.29-5.6,3.05,2.29s-2.42,5.12-3.35,6.05c-.93,.93-7.52,1.9-7.52,1.9l-.04-4.47Z"/>
                    <path class="cls-11" d="M24.88,145.65s-2.95-5.09,7.17-4.02c5.91,.62,8.85,.93,8.85,.93l.24,4.75s-12.24,3.46-16.27-1.66Z"/>
                  </g>
                  <path class="cls-31" d="M34.36,236.4s.4,1.37,2.82,3.15,3.06,1.39,3.11,2.06c.05,.67-10.06,.12-10.06,.12l.16-5.48s3.97,0,3.97,.15Z"/>
                  <path class="cls-31" d="M20.94,236.25s.46,1.15,2.09,3.01c1.44,1.64,2.71,1.29,2.6,1.88-.11,.56-8.67,.2-8.67,.2v-5.08s3.98,0,3.98,0Z"/>
                  <path class="cls-10" d="M53.85,129.28c.38-.41,.31-1.04,.25-1.59-.06-.6-.06-1.2-.02-1.8,.02-.26,.07-.56,.29-.7,.24-.15,.56-.04,.83,.05,.54,.17,1.21,.19,1.57-.24,.3-.36,.69-1.24,1.1-1.47,.07-.04,.25-.28,.54-.09,.75,.5,.34,1.54,.16,2.33-.28,1.24-.61,2.1-1.79,2.99-.65,.5-1.48,1.08-1.93,1.82"/>
                  <path class="cls-31" d="M18.52,128.33c.01-.11,.03-.22,.04-.33,.17-1.15,.37-2.35,1.03-3.33,.61-.9,1.59-1.24,2.65-1.27,1.21-.04,2.41,.37,3.62,.27,.91-.07,.8,.62,1.64,.26,1.05-.45,4.06,5.15,1.1,5.75-1.51,.3-.17,2.32-1.14,2.76-.9,.4-1.03-1.05-1.36-1.64-.16-.29-.3-.71-.71-.5-.27,.14-.22,.65-.25,.93-.1,1.04,.13,2.1-.08,3.14-.33,1.65-3.07,2.2-4.56,2.22-1.28,.02-1.54-1.76-1.76-2.69-.43-1.82-.46-3.71-.22-5.56Z"/>
                </g>
                <path class="cls-9" d="M19.69,140.26h.12s-.09,.01-.09,.01h-.01s-.02-.01-.02-.01Z"/>
              </g>
            </g>
            <g>
              <path class="cls-21" d="M17.93,127.92s0,.07,.01,.11c0,.38,.04,.75,.11,1.1h11.91c.07-.35,.11-.72,.11-1.1,.01-.04,.01-.07,.01-.11,0-3.35-2.72-6.07-6.07-6.07s-6.08,2.72-6.08,6.07Z"/>
              <path class="cls-3" d="M16.94,128.58h0c0,.31,.24,.56,.56,.56h12.96c.31,0,.56-.25,.56-.55h0c0-.31-.25-.56-.56-.56h-12.96c-.32,0-.56,.25-.56,.55Z"/>
            </g>
          </g>
          <g>
            <ellipse class="cls-5" cx="200.5" cy="232.6" rx="33.55" ry="5.88"/>
            <g>
              <path class="cls-34" d="M218.13,229.22h-36.2l3.37-9.23,3.11-8.51,2.84-7.78,3.11-8.51,3.94-10.79c.53-1.45,2.94-1.45,3.47,0l3.94,10.79,3.11,8.51,2.84,7.78,3.11,8.51,3.37,9.23Z"/>
              <path class="cls-12" d="M223.12,233.38h-46.19c-1.24,0-2.25-1-2.26-2.25h0c0-1.26,1.01-2.28,2.26-2.28h46.19c1.26,0,2.27,1.02,2.26,2.28h0c0,1.24-1.02,2.25-2.26,2.25Z"/>
              <polygon class="cls-20" points="208.81 203.7 191.24 203.7 194.35 195.19 205.7 195.19 208.81 203.7"/>
              <polygon class="cls-20" points="214.76 219.99 185.29 219.99 188.4 211.48 211.65 211.48 214.76 219.99"/>
            </g>
          </g>
          <g>
            <ellipse class="cls-6" cx="261.2" cy="218.42" rx="28.36" ry="5.88"/>
            <g>
              <path class="cls-28" d="M273.87,184.54v27.39c0,3.5-2.84,6.34-6.34,6.34h-15.04c-3.5,0-6.34-2.84-6.34-6.34v-27.39h27.73Z"/>
              <path class="cls-33" d="M273.87,184.54v2.71c-2.19,1.66-1.34,9.77-3.12,9.77-1.99,0-.84-8.83-3.06-8.83s.67,5.08-1.78,5.08-1.86-5.18-3.2-5.18,.03,11.44-2.21,11.44-.05-11.93-1.74-11.93-.32,4.78-2.4,4.78-.85-4.62-3.03-4.62-.17,7.2-2.5,7.2-2.55-2.55-2.63-5.56c-.05-1.97-1.25-3.51-2.06-4.33v-.53h27.73Z"/>
              <path class="cls-25" d="M273.76,184.68c0,.67-6.15,1.21-13.73,1.21s-13.73-.54-13.73-1.21,6.15-1.21,13.73-1.21,13.73,.54,13.73,1.21Z"/>
              <path class="cls-22" d="M273.82,185.09h-.63v-3.19c0-7.27-5.91-13.18-13.18-13.18s-13.18,5.91-13.18,13.18v3.19h-.63v-3.19c0-7.61,6.19-13.81,13.81-13.81s13.81,6.19,13.81,13.81v3.19Z"/>
            </g>
          </g>
          <g>
            <ellipse class="cls-7" cx="109.19" cy="227.67" rx="51.02" ry="5.88"/>
            <g>
              <path class="cls-26" d="M150.75,229.03l2.32-.53-26.16-114.37h-30.7l26.28,114.9,2.32-.53-3.37-14.75h25.83l3.5,15.28Zm-36.74-47.7h25.83l3.16,13.83h-25.83l-3.16-13.83Zm17.87-34.79h-25.83l-3.16-13.83h25.83l3.16,13.83Zm.54,2.38l3.16,13.83h-25.83l-3.16-13.83h25.83Zm3.71,16.21l3.16,13.83h-25.83l-3.16-13.83h25.83Zm-11.12-48.62l3.16,13.83h-25.83l-3.16-13.83h25.83Zm-4.13,94.86l-3.16-13.83h25.83l3.16,13.83h-25.83Z"/>
              <path class="cls-15" d="M92.08,114.13l-26.16,114.37,2.32,.53,3.5-15.28h25.83l-3.38,14.75,2.32,.53,26.28-114.9h-30.7Zm1.89,2.38h25.83l-3.16,13.83h-25.83l3.16-13.83Zm-14.29,62.45l3.16-13.83h25.83l-3.16,13.83h-25.83Zm25.28,2.38l-3.16,13.83h-25.83l3.16-13.83h25.83Zm-21.58-18.58l3.16-13.83h25.83l-3.16,13.83h-25.83Zm3.71-16.21l3.16-13.83h25.83l-3.16,13.83h-25.83Zm-14.83,64.83l3.16-13.83h25.83l-3.16,13.83h-25.83Z"/>
            </g>
          </g>
        </g>
      </g>
    </g>
  </g>
</svg>