<svg xmlns="http://www.w3.org/2000/svg" width="45" height="36" viewBox="0 0 45 36">
  <g id="_" data-name=" " transform="translate(-317.041 -272.415)" style="isolation: isolate">
    <g id="Group_1568" data-name="Group 1568" style="isolation: isolate">
      <path id="Path_13054" data-name="Path 13054" d="M344.776,297.184l-3.215,3.214a3.518,3.518,0,0,0-.962,1.8l-1,5.021a2.877,2.877,0,0,0,.02,1.2H319.478a2.435,2.435,0,0,1-2.437-2.433,12.192,12.192,0,0,1,12.185-12.192h7.129A12.125,12.125,0,0,1,344.776,297.184Zm-20.985-15.769a8.968,8.968,0,1,1,8.936,9A8.985,8.985,0,0,1,323.791,281.415Zm28.173,11.762,5.063,5.063-8.81,8.811a1.254,1.254,0,0,1-.646.345l-5.022,1.005a.634.634,0,0,1-.745-.745l1.005-5.02a1.261,1.261,0,0,1,.346-.648Zm9.338.8-2.681,2.68-5.063-5.062,2.681-2.683a2.532,2.532,0,0,1,3.58,0l1.483,1.485A2.538,2.538,0,0,1,361.3,293.974Z" fill="#3d5aa9"/>
    </g>
  </g>
</svg>
