<svg xmlns="http://www.w3.org/2000/svg" width="24" height="21" viewBox="0 0 24 21">
  <g id="Group_1541" data-name="Group 1541" transform="translate(-414.697 -466.221)" style="isolation: isolate">
    <path id="Path_13035" data-name="Path 13035" d="M417.7,483.471a.752.752,0,0,0,.75.75H437.2a1.5,1.5,0,0,1,0,3h-18.75a3.749,3.749,0,0,1-3.75-3.75v-15.75a1.5,1.5,0,0,1,3,0Zm13.06-5.691a1.5,1.5,0,0,1-2.119,0l-2.691-2.686-4.19,4.186a1.5,1.5,0,0,1-2.119-2.119l5.25-5.25a1.5,1.5,0,0,1,2.119,0l2.69,2.687,4.941-4.937a1.5,1.5,0,1,1,2.119,2.119Z" fill="#3d5aa9"/>
  </g>
</svg>
