<svg xmlns="http://www.w3.org/2000/svg" width="18" height="24" viewBox="0 0 18 24">
    <path id="Path_14744" data-name="Path 14744"
        d="M15.75-18H13.224A4.488,4.488,0,0,0,9-21a4.486,4.486,0,0,0-4.223,3H2.25A2.25,2.25,0,0,0,0-15.75V.75A2.251,2.251,0,0,0,2.25,3h13.5A2.25,2.25,0,0,0,18,.75v-16.5A2.25,2.25,0,0,0,15.75-18ZM4.5-2.625A1.125,1.125,0,0,1,3.375-3.75,1.125,1.125,0,0,1,4.5-4.875,1.125,1.125,0,0,1,5.625-3.75,1.124,1.124,0,0,1,4.5-2.625Zm0-4.5A1.125,1.125,0,0,1,3.375-8.25,1.125,1.125,0,0,1,4.5-9.375,1.127,1.127,0,0,1,5.625-8.25,1.125,1.125,0,0,1,4.5-7.125ZM9-18a1.5,1.5,0,0,1,1.5,1.5A1.5,1.5,0,0,1,9-15a1.5,1.5,0,0,1-1.5-1.5A1.5,1.5,0,0,1,9-18ZM14.25-3h-6a.752.752,0,0,1-.75-.75.752.752,0,0,1,.75-.75h6a.752.752,0,0,1,.75.75A.752.752,0,0,1,14.25-3Zm0-4.5h-6a.752.752,0,0,1-.75-.75A.752.752,0,0,1,8.25-9h6a.752.752,0,0,1,.75.75A.752.752,0,0,1,14.25-7.5Z"
        transform="translate(0 21)" fill="#3d5aa9" />
</svg>