<svg id="Group_272" data-name="Group 272" xmlns="http://www.w3.org/2000/svg" width="394.797" height="76.921" viewBox="0 0 394.797 76.921">
  <path id="Path_105" data-name="Path 105" d="M-88.862-81.095h-1.967v-1.033h5.075v1.033H-87.72v5.383h-1.142Zm4.64-1.033h1.74l1.713,4.495,1.731-4.495h1.722v6.416H-78.4v-5.329h-.018l-1.948,5.329h-.8l-1.948-5.329h-.018v5.329h-1.087Z" transform="translate(472.014 96.452)" fill="#264694" stroke="#254593" stroke-width="0.2"/>
  <path id="Path_103" data-name="Path 103" d="M3.465,0,9.226,10l2.47,4.288H0L31.087,62.925l4.579-8.348-19.4-30.336H51.545l5.729-9.949H16.966L14.5,10H65.6L34.281,67.771l6.039,9.15L80.557,0Z" transform="translate(0 0)" fill="#264694"/>
  <path id="Path_104" data-name="Path 104" d="M-248.936-82.128h12.766l12.567,32.98,12.7-32.98h12.633v47.076h-7.979v-39.1h-.133l-14.3,39.1h-5.851l-14.3-39.1h-.133v39.1h-7.979ZM-144.545-52.34a19.366,19.366,0,0,1-1.463,7.68A17.217,17.217,0,0,1-150-38.842a17.549,17.549,0,0,1-5.984,3.69,21.232,21.232,0,0,1-7.513,1.3,21.232,21.232,0,0,1-7.514-1.3,17.911,17.911,0,0,1-6.017-3.69,16.609,16.609,0,0,1-3.989-5.818,19.76,19.76,0,0,1-1.43-7.68V-82.128h8.378v29.522a13.405,13.405,0,0,0,.532,3.624,10.179,10.179,0,0,0,1.762,3.491,9.417,9.417,0,0,0,3.258,2.626,11.007,11.007,0,0,0,5.02,1.031,11.007,11.007,0,0,0,5.02-1.031,9.416,9.416,0,0,0,3.258-2.626,10.179,10.179,0,0,0,1.762-3.491,13.405,13.405,0,0,0,.532-3.624V-82.128h8.378Zm15.625-29.788h30.386v7.58h-22.009v12.367H-99.8v7.58h-20.745v19.548h-8.378Zm53.126,7.58H-90.222v-7.58h37.235v7.58H-67.415v39.5h-8.378Zm42.953-7.58h7.248l20.28,47.076h-9.575l-4.388-10.772H-39.689l-4.255,10.772h-9.375ZM-22.2-53l-7.248-19.149L-36.83-53ZM5.259-82.128H21.616a33.322,33.322,0,0,1,6.549.632,16.77,16.77,0,0,1,5.618,2.161,11.3,11.3,0,0,1,3.923,4.122A13.275,13.275,0,0,1,39.17-68.63a13.11,13.11,0,0,1-2.826,8.577,12.121,12.121,0,0,1-8.079,4.189l12.5,20.812H30.659L19.754-55H13.637v19.947H5.259ZM20.153-62.181q1.8,0,3.591-.166a11.026,11.026,0,0,0,3.291-.8,5.617,5.617,0,0,0,2.427-1.928,6.129,6.129,0,0,0,.931-3.624,5.782,5.782,0,0,0-.864-3.325,5.372,5.372,0,0,0-2.261-1.9,10.407,10.407,0,0,0-3.092-.831,28.171,28.171,0,0,0-3.291-.2H13.637v12.766Z" transform="translate(340.42 96.452)" fill="#264694"/>
</svg>
