<svg id="management" xmlns="http://www.w3.org/2000/svg" xmlns:xlink="http://www.w3.org/1999/xlink" width="124.929" height="124.927" viewBox="0 0 124.929 124.927">
  <defs>
    <linearGradient id="linear-gradient" x1="0.5" x2="0.5" y2="1" gradientUnits="objectBoundingBox">
      <stop offset="0" stop-color="#3a59a7"/>
      <stop offset="1" stop-color="#2965f9"/>
    </linearGradient>
  </defs>
  <path id="Path_42" data-name="Path 42" d="M106.976,25.875a2.015,2.015,0,0,0-1.66-.875H73.539v4.03h12.09v40.3H81.6v-14.1a2.015,2.015,0,0,0-2.015-2.015H77.569V39.1a2.015,2.015,0,0,0-2.015-2.015H59.434A2.015,2.015,0,0,0,57.419,39.1v14.1H47.345a2.015,2.015,0,0,0-2.015,2.015v14.1H5.03V29.03H9.06V25H3.015A2.015,2.015,0,0,0,1,27.015V89.479a2.015,2.015,0,0,0,2.015,2.015H17.3a12.076,12.076,0,0,0,23.817,0H85.81a12.076,12.076,0,0,0,23.817,0h14.286a2.015,2.015,0,0,0,2.015-2.015V54.05a2.015,2.015,0,0,0-.355-1.14ZM99.734,29.03h4.522l16.636,24.18H99.734ZM77.569,57.24V69.33H65.479V57.24h4.03v4.03h4.03V57.24ZM61.449,41.12h4.03v4.03h4.03V41.12h4.03V53.21H61.449ZM49.359,57.24h4.03v4.03h4.03V57.24h4.03V69.33H49.359Zm-20.15,40.3a8.06,8.06,0,1,1,8.06-8.06A8.06,8.06,0,0,1,29.21,97.539Zm68.509,0a8.06,8.06,0,1,1,8.06-8.06A8.06,8.06,0,0,1,97.719,97.539ZM121.9,87.464H109.628a12.076,12.076,0,0,0-23.817,0H41.118a12.076,12.076,0,0,0-23.817,0H5.03V73.36H87.644a2.015,2.015,0,0,0,2.015-2.015V29.03H95.7V55.225a2.015,2.015,0,0,0,2.015,2.015H121.9Z" transform="translate(-1 23.359)" fill="url(#linear-gradient)"/>
  <path id="Path_43" data-name="Path 43" d="M20.012,35.676l.758-.419A15.969,15.969,0,0,0,23.9,37.006v.7a3.6,3.6,0,0,0,3.635,3.564h5.195a3.6,3.6,0,0,0,3.627-3.564v-.7a16.013,16.013,0,0,0,3.129-1.749l.756.415a3.689,3.689,0,0,0,4.913-1.286l2.6-4.3a3.476,3.476,0,0,0,.385-2.72,3.534,3.534,0,0,0-1.731-2.2l-.663-.369a14.369,14.369,0,0,0,0-3.329L46.4,21.1a3.54,3.54,0,0,0,1.733-2.2,3.48,3.48,0,0,0-.387-2.724l-2.587-4.294a3.7,3.7,0,0,0-4.913-1.294l-.758.419a15.969,15.969,0,0,0-3.129-1.749v-.7A3.6,3.6,0,0,0,32.729,5H27.534a3.6,3.6,0,0,0-3.627,3.564v.7a16.013,16.013,0,0,0-3.129,1.749l-.756-.415a3.687,3.687,0,0,0-4.913,1.286l-2.6,4.3a3.476,3.476,0,0,0-.385,2.72,3.534,3.534,0,0,0,1.731,2.2l.663.369a14.369,14.369,0,0,0,0,3.329l-.661.367a3.54,3.54,0,0,0-1.733,2.2,3.48,3.48,0,0,0,.387,2.724l2.6,4.294a3.7,3.7,0,0,0,4.9,1.294ZM18.444,23.135a10.112,10.112,0,0,1,.109-1.487,3.534,3.534,0,0,0-1.813-3.554l-.506-.282,2.13-3.526.659.365a3.772,3.772,0,0,0,4.008-.292,11.669,11.669,0,0,1,2.585-1.437A3.6,3.6,0,0,0,27.935,9.6V9.03h4.4V9.6a3.6,3.6,0,0,0,2.313,3.319,11.8,11.8,0,0,1,2.589,1.441,3.76,3.76,0,0,0,4.01.288l.653-.363,2.13,3.526-.5.28a3.536,3.536,0,0,0-1.813,3.562,10.249,10.249,0,0,1,.1,1.481,10.113,10.113,0,0,1-.109,1.487,3.534,3.534,0,0,0,1.813,3.554l.506.282L41.9,31.985l-.659-.365a3.772,3.772,0,0,0-4.008.292,11.668,11.668,0,0,1-2.585,1.437,3.6,3.6,0,0,0-2.319,3.321v.57h-4.4v-.57a3.6,3.6,0,0,0-2.319-3.319A11.8,11.8,0,0,1,23.02,31.91a3.764,3.764,0,0,0-4.01-.288l-.653.363-2.13-3.526.5-.28a3.536,3.536,0,0,0,1.813-3.562,10.251,10.251,0,0,1-.1-1.481Z" transform="translate(10.168 3.06)" fill="url(#linear-gradient)"/>
  <path id="Path_44" data-name="Path 44" d="M24.552,24.6A7.052,7.052,0,1,0,17.5,17.552,7.052,7.052,0,0,0,24.552,24.6Zm0-10.075a3.022,3.022,0,1,1-3.022,3.022,3.022,3.022,0,0,1,3.022-3.022Z" transform="translate(15.747 8.642)" fill="url(#linear-gradient)"/>
  <path id="Path_45" data-name="Path 45" d="M20.333,67.341a1.989,1.989,0,0,0,.772.153,2.015,2.015,0,0,0,1.424-.59L36.044,53.389H57.374a6.045,6.045,0,0,0,6.045-6.045V7.045A6.045,6.045,0,0,0,57.374,1H13.045A6.045,6.045,0,0,0,7,7.045v40.3a6.045,6.045,0,0,0,6.045,6.045H19.09v12.09a2.015,2.015,0,0,0,1.243,1.862ZM13.045,49.359a2.015,2.015,0,0,1-2.015-2.015V7.045A2.015,2.015,0,0,1,13.045,5.03h44.33a2.015,2.015,0,0,1,2.015,2.015v40.3a2.015,2.015,0,0,1-2.015,2.015H35.21a2.015,2.015,0,0,0-1.424.59L23.12,60.615V51.374A2.015,2.015,0,0,0,21.1,49.359Z" transform="translate(5.09 -1)" fill="url(#linear-gradient)"/>
</svg>
