<svg xmlns="http://www.w3.org/2000/svg" width="842.017" height="842.017" viewBox="0 0 842.017 842.017">
  <g id="square" transform="translate(-589.412 -589.412)">
    <g id="Group_366" data-name="Group 366" transform="translate(589.412 589.412)">
      <path id="Path_2321" data-name="Path 2321" d="M764.815,183.4H91.2A84.2,84.2,0,0,1,91.2,15H764.815a84.2,84.2,0,0,1,0,168.4Z" transform="translate(-7 658.613)" fill="#fafafa"/>
      <path id="Path_2322" data-name="Path 2322" d="M764.815,179.4H91.2A84.2,84.2,0,0,1,91.2,11H764.815a84.2,84.2,0,0,1,0,168.4Z" transform="translate(-7 325.807)" fill="#fafafa"/>
      <path id="Path_2323" data-name="Path 2323" d="M764.815,175.4H91.2A84.2,84.2,0,0,1,91.2,7H764.815a84.2,84.2,0,0,1,0,168.4Z" transform="translate(-7 -7)" fill="#fafafa"/>
    </g>
  </g>
</svg>
