<svg id="Layer_1" data-name="Layer 1" xmlns="http://www.w3.org/2000/svg" viewBox="0 0 426.67 512"><defs><style>.cls-1{fill:#203a71;}</style></defs><path class="cls-1" d="M456.42,360.81a142.86,142.86,0,0,1-50.75-109.33V192c0-75.07-55.77-137.21-128-147.62V21.33a21.34,21.34,0,0,0-42.67,0V44.38C162.74,54.79,107,116.93,107,192v59.48A143,143,0,0,1,56.05,361a37.33,37.33,0,0,0,24.28,65.69h352a37.33,37.33,0,0,0,24.09-65.86Z" transform="translate(-43)"/><path class="cls-1" d="M256.33,512a80.12,80.12,0,0,0,78.38-64H178A80.14,80.14,0,0,0,256.33,512Z" transform="translate(-43)"/></svg>