<svg xmlns="http://www.w3.org/2000/svg" width="224.999" height="255.999" viewBox="0 0 224.999 255.999">
    <g transform="translate(0 0)">
        <path
            d="M201.622,257.924H34.577A29.007,29.007,0,0,1,5.6,228.947V99.829A28.486,28.486,0,0,1,16.253,77.67L99.776,8.637a28.369,28.369,0,0,1,36.648,0l83.522,68.607A28.486,28.486,0,0,1,230.6,99.4V228.521a29.1,29.1,0,0,1-28.977,29.4ZM118.1,19.29a12.766,12.766,0,0,0-7.67,2.557L26.907,90.88a11.993,11.993,0,0,0-4.261,8.949V228.947a11.911,11.911,0,0,0,11.932,11.932H201.622a11.911,11.911,0,0,0,11.932-11.932V99.829a11.993,11.993,0,0,0-4.261-8.949L125.77,21.847a12.766,12.766,0,0,0-7.67-2.557Z"
            transform="translate(-5.6 -1.925)" />
    </g>
    <g transform="translate(52.841 201.454)">
        <path d="M128.795,66.245H26.523a8.523,8.523,0,1,1,0-17.045H128.795a8.523,8.523,0,1,1,0,17.045Z"
            transform="translate(-18 -49.2)" />
    </g>
</svg>