<svg xmlns="http://www.w3.org/2000/svg" width="92.842" height="92.848" viewBox="0 0 92.842 92.848">
  <g id="integration" transform="translate(-4.557 -4.557)">
    <path id="Path_5" data-name="Path 5" d="M46.316,52.785l6.468-6.468a1.365,1.365,0,0,0,0-1.932l-3.445-3.445a20.8,20.8,0,0,0,1.694-4.086H55.9a1.367,1.367,0,0,0,1.367-1.367V26.34A1.367,1.367,0,0,0,55.9,24.974H51.043a20.641,20.641,0,0,0-1.7-4.09l3.44-3.441a1.366,1.366,0,0,0,0-1.933L46.316,9.042a1.365,1.365,0,0,0-1.932,0l-3.441,3.442a20.641,20.641,0,0,0-4.09-1.7V5.924a1.366,1.366,0,0,0-1.367-1.367H26.34a1.366,1.366,0,0,0-1.367,1.367v4.869a20.826,20.826,0,0,0-4.085,1.695L17.443,9.042a1.366,1.366,0,0,0-1.933,0L9.042,15.51a1.366,1.366,0,0,0,0,1.933l3.444,3.445a20.841,20.841,0,0,0-1.695,4.086H5.924A1.366,1.366,0,0,0,4.557,26.34v9.146a1.366,1.366,0,0,0,1.367,1.367h4.86a20.635,20.635,0,0,0,1.7,4.09L9.042,44.385a1.365,1.365,0,0,0,0,1.932l6.467,6.468a1.368,1.368,0,0,0,1.933,0l3.441-3.442a20.684,20.684,0,0,0,4.091,1.7V55.9a1.367,1.367,0,0,0,1.367,1.367h9.147A1.367,1.367,0,0,0,36.853,55.9v-4.87a20.826,20.826,0,0,0,4.085-1.695l3.445,3.445A1.367,1.367,0,0,0,46.316,52.785Zm-4.187-6.12a1.365,1.365,0,0,0-1.681-.2,18.093,18.093,0,0,1-5.279,2.187,1.368,1.368,0,0,0-1.049,1.328v4.553H27.706v-4.54a1.367,1.367,0,0,0-1.05-1.328,17.977,17.977,0,0,1-5.275-2.2,1.367,1.367,0,0,0-1.684.2l-3.22,3.217-4.534-4.536,3.217-3.218a1.367,1.367,0,0,0,.2-1.684,17.967,17.967,0,0,1-2.194-5.278,1.367,1.367,0,0,0-1.328-1.05H7.29V27.706h4.552a1.367,1.367,0,0,0,1.328-1.049,18.054,18.054,0,0,1,2.187-5.278,1.369,1.369,0,0,0-.2-1.683l-3.216-3.221,4.534-4.534L19.7,15.163a1.367,1.367,0,0,0,1.682.2,18.09,18.09,0,0,1,5.278-2.187,1.368,1.368,0,0,0,1.049-1.328V7.29H34.12v4.544a1.367,1.367,0,0,0,1.05,1.328,17.972,17.972,0,0,1,5.278,2.193,1.364,1.364,0,0,0,1.684-.2l3.217-3.217,4.535,4.536-3.217,3.218a1.369,1.369,0,0,0-.2,1.684,17.947,17.947,0,0,1,2.193,5.278,1.367,1.367,0,0,0,1.328,1.05h4.544V34.12H49.982a1.368,1.368,0,0,0-1.328,1.05,18.083,18.083,0,0,1-2.187,5.278,1.365,1.365,0,0,0,.2,1.681l3.218,3.221L45.35,49.885Z" transform="translate(0 0)"/>
    <path id="Path_6" data-name="Path 6" d="M34.988,23.158a11.83,11.83,0,1,0,11.83,11.83,11.83,11.83,0,0,0-11.83-11.83Zm0,20.929a9.1,9.1,0,1,1,9.1-9.1,9.1,9.1,0,0,1-9.1,9.1Z" transform="translate(-4.075 -4.075)"/>
    <path id="Path_7" data-name="Path 7" d="M107.289,76.36h-4.861a20.633,20.633,0,0,0-1.7-4.09l3.441-3.442a1.365,1.365,0,0,0,0-1.932L97.7,60.429a1.366,1.366,0,0,0-1.933,0l-3.441,3.44a20.69,20.69,0,0,0-4.089-1.7V57.309a1.367,1.367,0,0,0-1.367-1.367H77.726a1.367,1.367,0,0,0-1.367,1.367v4.87a20.814,20.814,0,0,0-4.086,1.695l-3.445-3.444a1.365,1.365,0,0,0-1.932,0L60.429,66.9a1.367,1.367,0,0,0,0,1.932l3.446,3.445a20.755,20.755,0,0,0-1.694,4.086H57.31a1.367,1.367,0,0,0-1.367,1.367v9.146a1.367,1.367,0,0,0,1.367,1.367H62.17a20.641,20.641,0,0,0,1.7,4.09L60.429,95.77a1.367,1.367,0,0,0,0,1.933l6.468,6.468a1.365,1.365,0,0,0,1.932,0l3.441-3.436a20.621,20.621,0,0,0,4.09,1.7v4.861a1.366,1.366,0,0,0,1.367,1.367h9.146a1.366,1.366,0,0,0,1.367-1.367v-4.869a20.808,20.808,0,0,0,4.086-1.7l3.445,3.445a1.366,1.366,0,0,0,1.933,0l6.468-6.467a1.366,1.366,0,0,0,0-1.933l-3.445-3.445a20.826,20.826,0,0,0,1.695-4.085h4.869a1.366,1.366,0,0,0,1.367-1.367V77.726a1.366,1.366,0,0,0-1.367-1.367Zm-1.367,9.147h-4.552a1.367,1.367,0,0,0-1.328,1.049,18.09,18.09,0,0,1-2.187,5.278,1.368,1.368,0,0,0,.2,1.682l3.221,3.221-4.535,4.534-3.221-3.221a1.37,1.37,0,0,0-1.682-.2,18.1,18.1,0,0,1-5.279,2.187,1.367,1.367,0,0,0-1.049,1.328v4.552H79.093v-4.544a1.367,1.367,0,0,0-1.05-1.328,17.973,17.973,0,0,1-5.278-2.193,1.364,1.364,0,0,0-1.684.2l-3.217,3.217-4.535-4.532,3.217-3.218a1.367,1.367,0,0,0,.2-1.684,17.965,17.965,0,0,1-2.192-5.278,1.367,1.367,0,0,0-1.328-1.05H58.676V79.093h4.552a1.368,1.368,0,0,0,1.328-1.05,18.082,18.082,0,0,1,2.187-5.278,1.365,1.365,0,0,0-.2-1.681l-3.216-3.221,4.535-4.534,3.221,3.221a1.364,1.364,0,0,0,1.681.2,18.093,18.093,0,0,1,5.279-2.187,1.368,1.368,0,0,0,1.049-1.328V58.68h6.414v4.544a1.367,1.367,0,0,0,1.05,1.328,17.982,17.982,0,0,1,5.278,2.194,1.365,1.365,0,0,0,1.684-.2l3.217-3.221,4.535,4.535-3.218,3.218a1.367,1.367,0,0,0-.2,1.684,17.956,17.956,0,0,1,2.192,5.278,1.367,1.367,0,0,0,1.328,1.051h4.544Z" transform="translate(-11.257 -11.257)"/>
    <path id="Path_8" data-name="Path 8" d="M86.374,74.544A11.83,11.83,0,1,0,98.2,86.374a11.83,11.83,0,0,0-11.83-11.83Zm0,20.929a9.1,9.1,0,1,1,9.1-9.1,9.1,9.1,0,0,1-9.1,9.1Z" transform="translate(-15.332 -15.332)"/>
    <path id="Path_9" data-name="Path 9" d="M76.436,20.106A35.064,35.064,0,0,1,95.795,34.422a6.013,6.013,0,1,0,2.4-1.328,37.788,37.788,0,0,0-20.983-15.61,1.367,1.367,0,1,0-.772,2.622Zm26.621,18.756A3.258,3.258,0,1,1,99.8,35.6a3.258,3.258,0,0,1,3.258,3.258Z" transform="translate(-15.531 -2.82)"/>
    <path id="Path_10" data-name="Path 10" d="M43.041,100.19A35.064,35.064,0,0,1,23.686,85.873a6.013,6.013,0,1,0-2.4,1.328,37.785,37.785,0,0,0,20.979,15.61,1.353,1.353,0,0,0,.387.055,1.367,1.367,0,0,0,.385-2.677ZM16.419,81.434a3.258,3.258,0,1,1,3.259,3.26A3.258,3.258,0,0,1,16.419,81.434Z" transform="translate(-1.989 -15.52)"/>
  </g>
</svg>
