<svg xmlns="http://www.w3.org/2000/svg" width="18" height="15.75" viewBox="0 0 18 15.75">
  <g id="Group_1671" data-name="Group 1671" transform="translate(-7181.43 -979.385)">
    <path id="Path_13313" data-name="Path 13313" d="M16.313-12.375H9.563l-2.25-2.25H1.688A1.688,1.688,0,0,0,0-12.937V-.562A1.688,1.688,0,0,0,1.688,1.125H16.313A1.688,1.688,0,0,0,18-.562V-10.687A1.688,1.688,0,0,0,16.313-12.375Zm-4.5,7.562H9.844v1.969A.869.869,0,0,1,9-1.969a.809.809,0,0,1-.812-.812V-4.813H6.156a.808.808,0,0,1-.812-.812.81.81,0,0,1,.812-.812H8.125V-8.469A.887.887,0,0,1,9-9.281a.809.809,0,0,1,.812.812v2h1.969a.849.849,0,0,1,.875.844A.815.815,0,0,1,11.813-4.813Z" transform="translate(7181.43 994.01)" fill="#fff"/>
  </g>
</svg>
