<svg xmlns="http://www.w3.org/2000/svg" width="26.999" height="21" viewBox="0 0 26.999 21">
  <path id="Path_13272" data-name="Path 13272" d="M13.106-13.481A3.691,3.691,0,0,1,13.5-13.5,4.474,4.474,0,0,1,18-9a4.5,4.5,0,0,1-4.5,4.5A4.474,4.474,0,0,1,9-9a3.69,3.69,0,0,1,.019-.394A3.441,3.441,0,0,0,10.5-9a3,3,0,0,0,3-3A3.441,3.441,0,0,0,13.106-13.481Zm9.422-2.241a18.16,18.16,0,0,1,4.355,6.145,1.491,1.491,0,0,1,0,1.153,19.005,19.005,0,0,1-4.355,6.145A13.19,13.19,0,0,1,13.5,1.5,13.186,13.186,0,0,1,4.473-2.278,19.078,19.078,0,0,1,.115-8.423a1.5,1.5,0,0,1,0-1.153,18.226,18.226,0,0,1,4.357-6.145A13.194,13.194,0,0,1,13.5-19.5,13.2,13.2,0,0,1,22.528-15.722ZM13.5-15.75A6.752,6.752,0,0,0,6.75-9,6.752,6.752,0,0,0,13.5-2.25,6.752,6.752,0,0,0,20.25-9,6.752,6.752,0,0,0,13.5-15.75Z" transform="translate(0 19.5)" fill="#41d645"/>
</svg>
