<svg xmlns="http://www.w3.org/2000/svg" width="74.344" height="74.197" viewBox="0 0 74.344 74.197">
  <g id="people-2" transform="translate(0 -0.502)">
    <path id="Path_12982" data-name="Path 12982" d="M171,30.855h21.2a2.088,2.088,0,0,0,2.084-2.093V26.482a11.121,11.121,0,0,0-11.222-11.147,7.459,7.459,0,1,0-2.929,0,11.121,11.121,0,0,0-11.222,11.147v2.281A2.088,2.088,0,0,0,171,30.855Z" transform="translate(-144.391)" fill="#afafaf"/>
    <path id="Path_12983" data-name="Path 12983" d="M54,125.991a2.171,2.171,0,0,0,2.53-1.758,29.062,29.062,0,0,1,8.281-15.51,2.18,2.18,0,0,0-3.02-3.146,33.438,33.438,0,0,0-9.542,17.873A2.184,2.184,0,0,0,54,125.991Z" transform="translate(-44.633 -89.296)" fill="#afafaf"/>
    <path id="Path_12984" data-name="Path 12984" d="M374.954,115.7a28.687,28.687,0,0,1,3.014,8.535,2.176,2.176,0,1,0,4.281-.782,33.438,33.438,0,0,0-9.542-17.873,2.169,2.169,0,0,0-3.076.057,2.191,2.191,0,0,0,.056,3.089A28.642,28.642,0,0,1,374.954,115.7Z" transform="translate(-315.438 -89.295)" fill="#afafaf"/>
    <path id="Path_12985" data-name="Path 12985" d="M196.975,364.034a28.292,28.292,0,0,1-8.789,1.411h-.119a28.449,28.449,0,0,1-8.618-1.319,2.183,2.183,0,0,0-1.311,4.165,32.75,32.75,0,0,0,9.929,1.523h.119a32.715,32.715,0,0,0,10.147-1.631,2.183,2.183,0,0,0-1.358-4.15Z" transform="translate(-150.972 -310.653)" fill="#afafaf"/>
    <path id="Path_12986" data-name="Path 12986" d="M14.151,317.277a7.459,7.459,0,1,0-2.928,0A11.122,11.122,0,0,0,0,328.424v2.281A2.089,2.089,0,0,0,2.084,332.8h21.2a2.089,2.089,0,0,0,2.084-2.093v-2.281a11.12,11.12,0,0,0-11.222-11.147Z" transform="translate(0 -258.098)" fill="#afafaf"/>
    <path id="Path_12987" data-name="Path 12987" d="M351.408,317.277a7.459,7.459,0,1,0-2.929,0,11.119,11.119,0,0,0-11.222,11.147V330.7a2.089,2.089,0,0,0,2.084,2.093h21.2a2.09,2.09,0,0,0,2.084-2.093v-2.281A11.121,11.121,0,0,0,351.408,317.277Z" transform="translate(-288.286 -258.098)" fill="#afafaf"/>
  </g>
</svg>
