<svg xmlns="http://www.w3.org/2000/svg" width="58.667" height="58.667" viewBox="0 0 58.667 58.667">
  <g id="writing" transform="translate(-0.5 0)">
    <path id="Path_2074" data-name="Path 2074" d="M289.413,69.112l-7.292-7.292L268.543,75.512l7.293,7.293Zm0,0" transform="translate(-237.33 -54.737)" fill="#3c58a8"/>
    <path id="Path_2075" data-name="Path 2075" d="M210.468,214.817a1.719,1.719,0,0,0,2.25,2.247l8.728-4.515-6.467-6.467Zm0,0" transform="translate(-185.788 -182.468)" fill="#3c58a8"/>
    <path id="Path_2076" data-name="Path 2076" d="M419.695,7.795a1.719,1.719,0,0,0,0-2.431L414.834.5A1.719,1.719,0,0,0,412.4.5l-4.15,4.15,7.291,7.292Zm0,0" transform="translate(-361.032)" fill="#3c58a8"/>
    <path id="Path_2077" data-name="Path 2077" d="M5.656,155.375H7.375v8.708a1.719,1.719,0,0,0,2.934,1.215l9.924-9.924H40.26a5.162,5.162,0,0,0,5.156-5.156V133.153l-5.422,5.422a5.109,5.109,0,0,1-1.645,1.106l-9.841,5.1a5.427,5.427,0,0,1-2.251.522,5.078,5.078,0,0,1-1.482-.243H12.531a1.719,1.719,0,1,1,0-3.437h8.7a5.146,5.146,0,0,1,.274-3.463l5.3-10.3a4.7,4.7,0,0,1,1-1.406L33.263,121H5.656A5.162,5.162,0,0,0,.5,126.156v24.063a5.162,5.162,0,0,0,5.156,5.156Zm0,0" transform="translate(0 -107.135)" fill="#ababab"/>
  </g>
</svg>
