<svg xmlns="http://www.w3.org/2000/svg" width="22.552" height="25.648" viewBox="0 0 22.552 25.648">
  <g id="Layer_2" data-name="Layer 2" transform="translate(0)">
    <path id="Path_13469" data-name="Path 13469" d="M48.749,47H43.442a.442.442,0,0,0-.442.442v5.306a.445.445,0,0,0,.756.314l5.306-5.306A.445.445,0,0,0,48.749,47Z" transform="translate(-26.639 -27.543)" fill="#b6cbef"/>
    <path id="Path_13470" data-name="Path 13470" d="M16.17,40.613V31.327A1.327,1.327,0,0,0,14.844,30H7.327A1.327,1.327,0,0,0,6,31.327v9.286A1.327,1.327,0,0,0,7.327,41.94h7.517A1.327,1.327,0,0,0,16.17,40.613Zm-6.633-.442H8.211v-.884H9.538Zm0-1.769H8.211v-.884H9.538Zm0-1.769H8.211v-.884H9.538Zm2.211,3.538H10.422v-.884h1.327Zm0-1.769H10.422v-.884h1.327Zm0-1.769H10.422v-.884h1.327Zm2.211,3.538H12.633v-.884h1.327Zm0-1.769H12.633v-.884h1.327Zm0-1.769H12.633v-.884h1.327Zm.442-2.211a.442.442,0,0,1-.075.243h0a.442.442,0,0,1-.367.2H8.211a.442.442,0,0,1-.442-.442V32.211a.27.27,0,0,1,0-.062.442.442,0,0,1,.442-.38h5.749a.439.439,0,0,1,.442.442Z" transform="translate(-6 -18.06)" fill="#b6cbef"/>
    <path id="Path_13471" data-name="Path 13471" d="M28,17.769h.128a.884.884,0,0,0,0-1.769H28Z" transform="translate(-18.272 -10.251)" fill="#b6cbef"/>
    <path id="Path_13472" data-name="Path 13472" d="M40.37,17.744a2.211,2.211,0,0,0,3.653-.681L41.86,15.63Z" transform="translate(-25.172 -10.045)" fill="#b6cbef"/>
    <path id="Path_13473" data-name="Path 13473" d="M23.71,10.884a.884.884,0,0,0,.884.884h.128V10h-.128A.884.884,0,0,0,23.71,10.884Z" transform="translate(-15.879 -6.905)" fill="#b6cbef"/>
    <path id="Path_13474" data-name="Path 13474" d="M31.361,3H17.211A2.211,2.211,0,0,0,15,5.211v8.844h4.864a2.211,2.211,0,0,1,2.211,2.211v9.286a2.211,2.211,0,0,1-2.211,2.211H15.442a2.211,2.211,0,0,0,1.769.884h9.366a1.243,1.243,0,0,1-.08-.442V22.9a1.327,1.327,0,0,1,1.327-1.327H33.13a1.243,1.243,0,0,1,.442.08V5.211A2.211,2.211,0,0,0,31.361,3ZM23.4,17.151h5.5v.884H23.4ZM20.877,7.864a1.769,1.769,0,0,1,0,3.538h-.128v1.075h-.884V11.4h-.128a1.769,1.769,0,0,1-1.769-1.769h.884a.884.884,0,0,0,.884.884h.128V8.749h-.128a1.769,1.769,0,0,1,0-3.538h.128V4.136h.884V5.211h.128A1.769,1.769,0,0,1,22.646,6.98h-.884a.884.884,0,0,0-.884-.884h-.128V7.864Zm4.594,14.593H23.4v-.884h2.069Zm4.563-2.211H23.4v-.884h6.633Zm0-4.422H23.4V14.94h6.633Zm-2.211-3.538a3.1,3.1,0,1,1,3.1-3.1,3.1,3.1,0,0,1-3.1,3.1Z" transform="translate(-11.021 -3)" fill="#b6cbef"/>
  </g>
</svg>
