<svg id="Layer_1" data-name="Layer 1" xmlns="http://www.w3.org/2000/svg" viewBox="0 0 299 299"><defs><style>.cls-1{fill:#1d7dc4;}.cls-2{fill:#fff;}</style></defs><circle class="cls-1" cx="149.5" cy="149.5" r="149.5"/><path class="cls-2" d="M540.36,476.89V452.27a9.58,9.58,0,0,0-9.58-9.58h-2.5V352.8a2.41,2.41,0,0,0-1.07-2l-6.08-4a2.39,2.39,0,0,0-3.72,2v28.87l-1.81-4.89a16.77,16.77,0,0,0-15.72-10.93H458a16.77,16.77,0,0,0-15.76,11l-1.73,4.78V348.78a2.39,2.39,0,0,0-3.72-2l-6.08,4a2.41,2.41,0,0,0-1.07,2v89.89h-2.51a9.57,9.57,0,0,0-9.57,9.58v24.62h-4.09a2.39,2.39,0,0,0-2.39,2.39v13.24a2.4,2.4,0,0,0,2.39,2.4h10.34v6.34a4.78,4.78,0,0,0,4.79,4.79h12.69a4.79,4.79,0,0,0,4.79-4.79v-6.34h65.74v6.34a4.79,4.79,0,0,0,4.79,4.79h12.69a4.78,4.78,0,0,0,4.79-4.79v-6.34h10.33a2.4,2.4,0,0,0,2.4-2.4V479.28a2.39,2.39,0,0,0-2.4-2.39ZM443.7,391h70.54v23.6H443.7Zm-1.64,79.2h-8.18a4.53,4.53,0,0,1-4.53-4.53v-.11a4.53,4.53,0,0,1,4.53-4.53h8.18a4.53,4.53,0,0,1,4.53,4.53v.11A4.53,4.53,0,0,1,442.06,470.19Zm53.19,1.33H462.69a4.79,4.79,0,0,1-4.79-4.79V436.39a4.79,4.79,0,0,1,4.79-4.79h32.56a4.79,4.79,0,0,1,4.79,4.79v30.34A4.79,4.79,0,0,1,495.25,471.52Zm28.81-1.33h-8.18a4.53,4.53,0,0,1-4.53-4.53v-.11a4.53,4.53,0,0,1,4.53-4.53h8.18a4.53,4.53,0,0,1,4.53,4.53v.11A4.53,4.53,0,0,1,524.06,470.19Zm-29.54-21.07H463.34a2.37,2.37,0,0,1-2.37-2.37v0a2.38,2.38,0,0,1,2.37-2.38h31.18a2.38,2.38,0,0,1,2.37,2.38v0A2.37,2.37,0,0,1,494.52,449.12Zm0-9.57H463.34a2.38,2.38,0,0,1-2.37-2.38v0a2.37,2.37,0,0,1,2.37-2.37h31.18a2.37,2.37,0,0,1,2.37,2.37v0A2.38,2.38,0,0,1,494.52,439.55Zm0,28.73H463.34a2.37,2.37,0,0,1-2.37-2.37v-.05a2.37,2.37,0,0,1,2.37-2.37h31.18a2.37,2.37,0,0,1,2.37,2.37v.05A2.37,2.37,0,0,1,494.52,468.28Zm0-9.58H463.34a2.37,2.37,0,0,1-2.37-2.37v-.05a2.38,2.38,0,0,1,2.37-2.37h31.18a2.38,2.38,0,0,1,2.37,2.37v.05A2.37,2.37,0,0,1,494.52,458.7Z" transform="translate(-329 -289)"/></svg>