<svg xmlns="http://www.w3.org/2000/svg" width="46.13" height="44.049" viewBox="0 0 46.13 44.049">
  <g id="Group_1936" data-name="Group 1936" transform="translate(-39.43 -33.962)">
    <path id="Path_13562" data-name="Path 13562" d="M246,10.034h-1.622V9.183h4.185v.851h-1.622v4.438H246Zm3.826-.851h1.434l1.415,3.706,1.428-3.706h1.415v5.29h-.9V10.079h-.015L253,14.473h-.657l-1.606-4.393h-.016v4.393h-.9Z" transform="translate(-169.961 63.539)" fill="#3c5aa8"/>
    <path id="Path_13563" data-name="Path 13563" d="M1.985,0l3.3,5.728L6.7,8.185H0l17.8,27.85,2.622-4.781L9.312,13.881H29.517l3.281-5.7H9.716L8.3,5.729H37.564L27.989,23.391,19.631,38.809l3.459,5.24L46.13,0Z" transform="translate(39.43 33.962)" fill="#3c5aa8"/>
  </g>
</svg>

