<svg xmlns="http://www.w3.org/2000/svg" width="37.926" height="35.998" viewBox="0 0 37.926 35.998">
  <g id="Layer_1" transform="translate(-61.79 -34.5)">
    <g id="Image_27_" transform="translate(61.79 38.998)">
      <g id="Group_1674" data-name="Group 1674">
        <g id="Group_1670" data-name="Group 1670" transform="translate(9.809)">
          <path id="Path_13482" data-name="Path 13482" d="M514.522,99.111a.474.474,0,1,1-.663-.035A.466.466,0,0,1,514.522,99.111Z" transform="translate(-491.969 -98.954)" fill="#fff"/>
          <path id="Path_13483" data-name="Path 13483" d="M526.765,142.03a.662.662,0,1,1-.935-.056A.663.663,0,0,1,526.765,142.03Z" transform="translate(-503.047 -138.816)" fill="#fff"/>
          <path id="Path_13484" data-name="Path 13484" d="M529.261,187.891a.806.806,0,1,1-1.138-.063A.805.805,0,0,1,529.261,187.891Z" transform="translate(-505.138 -181.432)" fill="#fff"/>
          <path id="Path_13485" data-name="Path 13485" d="M521.376,233.96a.909.909,0,1,1-1.284-.07A.913.913,0,0,1,521.376,233.96Z" transform="translate(-497.638 -224.256)" fill="#fff"/>
          <path id="Path_13486" data-name="Path 13486" d="M503.475,277.531a.974.974,0,1,1-1.375-.077A.967.967,0,0,1,503.475,277.531Z" transform="translate(-480.881 -264.763)" fill="#fff"/>
          <path id="Path_13487" data-name="Path 13487" d="M476.095,316.033a1,1,0,1,1-1.417-.091A1.018,1.018,0,0,1,476.095,316.033Z" transform="translate(-455.357 -300.571)" fill="#fff"/>
          <path id="Path_13488" data-name="Path 13488" d="M441.1,347.178a1.011,1.011,0,1,1-1.424-.084A1.015,1.015,0,0,1,441.1,347.178Z" transform="translate(-422.799 -329.539)" fill="#fff"/>
          <path id="Path_13489" data-name="Path 13489" d="M400.334,369.076a.993.993,0,1,1-1.4-.07A.98.98,0,0,1,400.334,369.076Z" transform="translate(-384.907 -349.916)" fill="#fff"/>
          <path id="Path_13490" data-name="Path 13490" d="M356.358,380.539a.934.934,0,1,1-1.319-.077A.937.937,0,0,1,356.358,380.539Z" transform="translate(-344.093 -360.597)" fill="#fff"/>
          <path id="Path_13491" data-name="Path 13491" d="M311.694,380.938a.845.845,0,1,1-1.193-.07A.842.842,0,0,1,311.694,380.938Z" transform="translate(-302.687 -360.996)" fill="#fff"/>
          <path id="Path_13492" data-name="Path 13492" d="M269.427,370.422a.712.712,0,1,1-1-.056A.709.709,0,0,1,269.427,370.422Z" transform="translate(-263.588 -351.254)" fill="#fff"/>
          <path id="Path_13493" data-name="Path 13493" d="M232.012,349.451a.539.539,0,1,1-.8.719.539.539,0,0,1,.8-.719Z" transform="translate(-229.07 -331.805)" fill="#fff"/>
          <path id="Path_13494" data-name="Path 13494" d="M202.845,319.44a.287.287,0,1,1-.4-.021A.287.287,0,0,1,202.845,319.44Z" transform="translate(-202.345 -303.965)" fill="#fff"/>
        </g>
        <g id="Group_1671" data-name="Group 1671" transform="translate(6.269 3.637)">
          <path id="Path_13495" data-name="Path 13495" d="M566.927,151.241a.241.241,0,0,1-.153.293.237.237,0,0,1-.293-.161.24.24,0,0,1,.16-.293A.232.232,0,0,1,566.927,151.241Z" transform="translate(-537.519 -151.072)" fill="#fff"/>
          <path id="Path_13496" data-name="Path 13496" d="M568.115,199.76a.528.528,0,1,1-.663-.356A.528.528,0,0,1,568.115,199.76Z" transform="translate(-538.086 -196.01)" fill="#fff"/>
          <path id="Path_13497" data-name="Path 13497" d="M558.985,249.712a.735.735,0,1,1-.914-.5A.744.744,0,0,1,558.985,249.712Z" transform="translate(-529.214 -242.34)" fill="#fff"/>
          <path id="Path_13498" data-name="Path 13498" d="M538.821,297.7a.9.9,0,1,1-1.117-.6A.9.9,0,0,1,538.821,297.7Z" transform="translate(-510.167 -286.879)" fill="#fff"/>
          <path id="Path_13499" data-name="Path 13499" d="M508.457,340.942a1.009,1.009,0,1,1-1.256-.677A1.019,1.019,0,0,1,508.457,340.942Z" transform="translate(-481.715 -327.024)" fill="#fff"/>
          <path id="Path_13500" data-name="Path 13500" d="M469.348,376.7a1.082,1.082,0,1,1-1.347-.726A1.078,1.078,0,0,1,469.348,376.7Z" transform="translate(-445.202 -360.236)" fill="#fff"/>
          <path id="Path_13501" data-name="Path 13501" d="M423.712,402.889a1.115,1.115,0,1,1-1.389-.747A1.112,1.112,0,0,1,423.712,402.889Z" transform="translate(-402.693 -384.575)" fill="#fff"/>
          <path id="Path_13502" data-name="Path 13502" d="M373.7,417.738a1.122,1.122,0,1,1-1.4-.754A1.118,1.118,0,0,1,373.7,417.738Z" transform="translate(-356.156 -398.384)" fill="#fff"/>
          <path id="Path_13503" data-name="Path 13503" d="M322.391,420.557a1.1,1.1,0,1,1-1.375-.74A1.1,1.1,0,0,1,322.391,420.557Z" transform="translate(-308.462 -401.021)" fill="#fff"/>
          <path id="Path_13504" data-name="Path 13504" d="M273.188,411.146a1.038,1.038,0,1,1-1.291-.7A1.047,1.047,0,0,1,273.188,411.146Z" transform="translate(-262.811 -392.301)" fill="#fff"/>
          <path id="Path_13505" data-name="Path 13505" d="M228.781,390.208a.941.941,0,1,1-1.172-.628A.947.947,0,0,1,228.781,390.208Z" transform="translate(-221.684 -372.899)" fill="#fff"/>
          <path id="Path_13506" data-name="Path 13506" d="M192.166,359.082a.79.79,0,1,1-.984-.53A.79.79,0,0,1,192.166,359.082Z" transform="translate(-187.896 -344.041)" fill="#fff"/>
          <path id="Path_13507" data-name="Path 13507" d="M165.784,319.637a.594.594,0,1,1-.74-.4A.59.59,0,0,1,165.784,319.637Z" transform="translate(-163.713 -307.478)" fill="#fff"/>
          <path id="Path_13508" data-name="Path 13508" d="M152.239,274.448a.32.32,0,1,1-.4-.216A.318.318,0,0,1,152.239,274.448Z" transform="translate(-151.612 -265.625)" fill="#fff"/>
        </g>
        <g id="Group_1672" data-name="Group 1672" transform="translate(3.447 7.418)">
          <path id="Path_13509" data-name="Path 13509" d="M598.3,275.764a.259.259,0,0,1-.293.216.27.27,0,0,1-.223-.293.264.264,0,0,1,.293-.223A.267.267,0,0,1,598.3,275.764Z" transform="translate(-563.822 -270.561)" fill="#fff"/>
          <path id="Path_13510" data-name="Path 13510" d="M574.469,326.674a.585.585,0,1,1-.5-.663A.583.583,0,0,1,574.469,326.674Z" transform="translate(-541.054 -317.576)" fill="#fff"/>
          <path id="Path_13511" data-name="Path 13511" d="M540.211,373.72a.818.818,0,1,1-.691-.928A.819.819,0,0,1,540.211,373.72Z" transform="translate(-508.756 -361.091)" fill="#fff"/>
          <path id="Path_13512" data-name="Path 13512" d="M496.043,413.3a1,1,0,1,1-.844-1.131A.99.99,0,0,1,496.043,413.3Z" transform="translate(-467.338 -397.718)" fill="#fff"/>
          <path id="Path_13513" data-name="Path 13513" d="M444.457,443.108a1.121,1.121,0,1,1-.949-1.27A1.119,1.119,0,0,1,444.457,443.108Z" transform="translate(-419.123 -425.315)" fill="#fff"/>
          <path id="Path_13514" data-name="Path 13514" d="M387.612,461.094a1.206,1.206,0,1,1-1.019-1.368A1.206,1.206,0,0,1,387.612,461.094Z" transform="translate(-366.089 -441.954)" fill="#fff"/>
          <path id="Path_13515" data-name="Path 13515" d="M329.085,466.117a1.242,1.242,0,1,1-1.047-1.41A1.248,1.248,0,0,1,329.085,466.117Z" transform="translate(-311.581 -446.586)" fill="#fff"/>
          <path id="Path_13516" data-name="Path 13516" d="M271.8,457.745a1.249,1.249,0,1,1-1.054-1.417A1.247,1.247,0,0,1,271.8,457.745Z" transform="translate(-258.28 -438.793)" fill="#fff"/>
          <path id="Path_13517" data-name="Path 13517" d="M219.047,436.415a1.224,1.224,0,1,1-1.033-1.389A1.222,1.222,0,0,1,219.047,436.415Z" transform="translate(-209.255 -418.978)" fill="#fff"/>
          <path id="Path_13518" data-name="Path 13518" d="M174.229,403.454a1.157,1.157,0,1,1-.984-1.312A1.153,1.153,0,0,1,174.229,403.454Z" transform="translate(-167.689 -388.39)" fill="#fff"/>
          <path id="Path_13519" data-name="Path 13519" d="M140.124,361.038a1.047,1.047,0,1,1-.886-1.186A1.047,1.047,0,0,1,140.124,361.038Z" transform="translate(-136.167 -349.052)" fill="#fff"/>
          <path id="Path_13520" data-name="Path 13520" d="M119.022,311.775a.881.881,0,1,1-.747-1A.882.882,0,0,1,119.022,311.775Z" transform="translate(-116.844 -303.404)" fill="#fff"/>
          <path id="Path_13521" data-name="Path 13521" d="M112.508,258.65a.663.663,0,1,1-.558-.754A.672.672,0,0,1,112.508,258.65Z" transform="translate(-111.189 -254.215)" fill="#fff"/>
          <path id="Path_13522" data-name="Path 13522" d="M122.348,205.648a.352.352,0,1,1-.3-.4A.349.349,0,0,1,122.348,205.648Z" transform="translate(-120.917 -205.247)" fill="#fff"/>
        </g>
        <g id="Group_1673" data-name="Group 1673" transform="translate(0 1.586)">
          <path id="Path_13523" data-name="Path 13523" d="M571.278,416.094a.285.285,0,0,1-.4.084.287.287,0,1,1,.4-.084Z" transform="translate(-535.231 -395.135)" fill="#fff"/>
          <path id="Path_13524" data-name="Path 13524" d="M520.883,457.695a.65.65,0,1,1-.188-.9A.641.641,0,0,1,520.883,457.695Z" transform="translate(-487.733 -433.309)" fill="#fff"/>
          <path id="Path_13525" data-name="Path 13525" d="M462.6,490.114a.907.907,0,1,1-.258-1.263A.917.917,0,0,1,462.6,490.114Z" transform="translate(-433.075 -463.09)" fill="#fff"/>
          <path id="Path_13526" data-name="Path 13526" d="M398.056,510.135a1.109,1.109,0,1,1-.321-1.535A1.1,1.1,0,0,1,398.056,510.135Z" transform="translate(-372.694 -481.429)" fill="#fff"/>
          <path id="Path_13527" data-name="Path 13527" d="M331.161,516.6a1.245,1.245,0,1,1-.356-1.724A1.247,1.247,0,0,1,331.161,516.6Z" transform="translate(-310.237 -487.25)" fill="#fff"/>
          <path id="Path_13528" data-name="Path 13528" d="M264.9,508.513a1.336,1.336,0,1,1-.384-1.849A1.338,1.338,0,0,1,264.9,508.513Z" transform="translate(-248.44 -479.591)" fill="#fff"/>
          <path id="Path_13529" data-name="Path 13529" d="M203.2,486.1a1.381,1.381,0,1,1-.4-1.912A1.382,1.382,0,0,1,203.2,486.1Z" transform="translate(-190.973 -458.681)" fill="#fff"/>
          <path id="Path_13530" data-name="Path 13530" d="M149.484,450.786a1.386,1.386,0,1,1-.4-1.919A1.384,1.384,0,0,1,149.484,450.786Z" transform="translate(-140.997 -425.821)" fill="#fff"/>
          <path id="Path_13531" data-name="Path 13531" d="M106.5,404.412a1.361,1.361,0,1,1-.391-1.884A1.361,1.361,0,0,1,106.5,404.412Z" transform="translate(-101.058 -382.72)" fill="#fff"/>
          <path id="Path_13532" data-name="Path 13532" d="M77.434,349.964a1.285,1.285,0,1,1-.37-1.78A1.285,1.285,0,0,1,77.434,349.964Z" transform="translate(-74.146 -332.18)" fill="#fff"/>
          <path id="Path_13533" data-name="Path 13533" d="M63.919,290.684a1.159,1.159,0,1,1-.335-1.605A1.16,1.16,0,0,1,63.919,290.684Z" transform="translate(-61.79 -277.22)" fill="#fff"/>
          <path id="Path_13534" data-name="Path 13534" d="M66.958,230.278a.977.977,0,1,1-.279-1.354A.983.983,0,0,1,66.958,230.278Z" transform="translate(-64.926 -221.288)" fill="#fff"/>
          <path id="Path_13535" data-name="Path 13535" d="M87,172.692a.736.736,0,1,1-.209-1.019A.733.733,0,0,1,87,172.692Z" transform="translate(-83.985 -168.07)" fill="#fff"/>
          <path id="Path_13536" data-name="Path 13536" d="M124.194,122.282a.393.393,0,1,1-.112-.544A.393.393,0,0,1,124.194,122.282Z" transform="translate(-119.169 -121.673)" fill="#fff"/>
        </g>
      </g>
    </g>
    <g id="Vector_Smart_Object_00000040549807072532613520000003445114273976270740_" transform="translate(69.118 34.5)">
      <path id="Path_3_00000123415415586954207680000005645911711669745814_" d="M-670.471-343.485h-15.367l.74,1.291h12.122l-1.717,2.987h-10.615l5.834,9.121-1.347,2.45L-690.2-342.2h3.517l-.74-1.291-1.731-3.008h23.184l-12.1,23.142-1.787-2.778Z" transform="translate(690.2 346.5)" fill="#fff"/>
    </g>
  </g>
</svg>
