<svg id="Relationship" xmlns="http://www.w3.org/2000/svg" width="31.195" height="20.035" viewBox="0 0 31.195 20.035">
  <path id="Path_13475" data-name="Path 13475" d="M15.535,30.757l-.079-.066a1.132,1.132,0,0,0-1.592.139l.378-.452a1.132,1.132,0,0,0-.139-1.592l-.079-.066a1.132,1.132,0,0,0-1.592.139c.028-.033.057-.062.085-.1l.294-.356a1.122,1.122,0,0,0-.141-1.587l-.079-.068A1.122,1.122,0,0,0,11,26.893l-.385.452a1.132,1.132,0,0,0-.135-1.593l-.079-.068a1.129,1.129,0,0,0-1.593.141L7.43,27.472a.768.768,0,0,0-.062.085,1.129,1.129,0,0,0,.2,1.51l.079.068a1.132,1.132,0,0,0,1.594-.141,1.132,1.132,0,0,0,.141,1.593l.079.062a1.128,1.128,0,0,0,1.588-.135l0,0a1.129,1.129,0,0,0,.139,1.591l.079.066a1.132,1.132,0,0,0,1.592-.14A1.132,1.132,0,0,0,13,33.619l.079.066a1.132,1.132,0,0,0,1.592-.139l1.006-1.2A1.132,1.132,0,0,0,15.535,30.757Z" transform="translate(-1.83 -13.914)" fill="#b6cbef"/>
  <path id="Path_13476" data-name="Path 13476" d="M26.595,14.78a2.144,2.144,0,0,1-.211-.539A4.153,4.153,0,0,0,24.995,14H23.131a4.181,4.181,0,0,0-2.226.641l-2.523,1.584a1.07,1.07,0,0,0,.971,1.9l4.878-1.941,5.069,4.33c.108-.083.251-.2.408-.341Z" transform="translate(-4.785 -11.556)" fill="#b6cbef"/>
  <rect id="Rectangle_2052" data-name="Rectangle 2052" width="3.502" height="8.99" rx="1.751" transform="matrix(0.866, -0.5, 0.5, 0.866, 23.668, 1.751)" fill="#b6cbef"/>
  <rect id="Rectangle_2053" data-name="Rectangle 2053" width="8.99" height="3.502" rx="1.751" transform="matrix(0.5, -0.866, 0.866, 0.5, 0, 7.786)" fill="#b6cbef"/>
  <path id="Path_13477" data-name="Path 13477" d="M27.041,25.277l.351.31a1.575,1.575,0,0,0,1.974,0,1.389,1.389,0,0,0,0-2.176l-6.342-5.185-.5-.409-5.39,2.036A2.777,2.777,0,0,1,13.7,18.636a2.5,2.5,0,0,1,.971-3.351l2.822-1.68-3.15-.373a6.281,6.281,0,0,0-1.893.071,2.458,2.458,0,0,1-.357,1.348L8.117,21.188l.391-.443a2.894,2.894,0,0,1,3.926-.33l.112.09a2.663,2.663,0,0,1,.544.589,2.879,2.879,0,0,1,2.11.6l.109.089a2.573,2.573,0,0,1,.975,1.788c0,.023,0,.046.005.068a2.822,2.822,0,0,1,.715.414l.1.079A2.593,2.593,0,0,1,18.092,26a2.79,2.79,0,0,1,.717.414l.1.081a2.536,2.536,0,0,1,.43,3.6l.308.266a1.541,1.541,0,0,0,2.11-.094,1.371,1.371,0,0,0-.1-2l.476.414a1.547,1.547,0,0,0,2.106-.09,1.366,1.366,0,0,0-.095-2l.885.766a1.547,1.547,0,0,0,2.107-.09,1.366,1.366,0,0,0-.1-2Z" transform="translate(-3.345 -11.183)" fill="#b6cbef"/>
</svg>
