<svg xmlns="http://www.w3.org/2000/svg" width="27.029" height="27.382" viewBox="0 0 27.029 27.382">
  <path id="team" d="M54.257,53.7a2.8,2.8,0,1,1-2.8-2.8A2.8,2.8,0,0,1,54.257,53.7Zm-9.6-11.128a6.855,6.855,0,0,1,0-1.977,1.279,1.279,0,0,1,1.275-1.1h0a1.1,1.1,0,0,0,.951-1.65,1.278,1.278,0,0,1,.318-1.658,6.906,6.906,0,0,1,1.709-.987,1.279,1.279,0,0,1,1.6.553,1.1,1.1,0,0,0,1.9,0A1.279,1.279,0,0,1,54,35.2a6.87,6.87,0,0,1,1.714.987,1.278,1.278,0,0,1,.317,1.658,1.1,1.1,0,0,0,.951,1.65h0a1.279,1.279,0,0,1,1.275,1.1,6.878,6.878,0,0,1,0,1.977,1.28,1.28,0,0,1-1.275,1.1h0a1.1,1.1,0,0,0-.951,1.65,1.278,1.278,0,0,1-.318,1.658,6.966,6.966,0,0,1-.819.554,7.041,7.041,0,0,1-.89.432,1.306,1.306,0,0,1-.485.094,1.276,1.276,0,0,1-1.11-.648,1.1,1.1,0,0,0-1.9,0,1.279,1.279,0,0,1-1.592.554,6.876,6.876,0,0,1-1.714-.987,1.279,1.279,0,0,1-.317-1.658,1.1,1.1,0,0,0-.951-1.65h0A1.278,1.278,0,0,1,44.654,42.575Zm5.354-.15a1.675,1.675,0,1,0-.168-1.271A1.677,1.677,0,0,0,50.008,42.425ZM60.519,55.26a2.214,2.214,0,1,0-2.213-2.214A2.216,2.216,0,0,0,60.519,55.26Zm.445-13.213h1.549v5.175a.5.5,0,1,0,.992,0V41.552a.5.5,0,0,0-.5-.5H60.964a.5.5,0,0,0,0,.992Zm4,17.752a4.507,4.507,0,0,0-8.588-1.063l-.029.066.045.056a6.371,6.371,0,0,1,.78,1.219l.033.067h7.465a.3.3,0,0,0,.294-.345Zm-18.4-1-.029-.066A4.507,4.507,0,0,0,37.948,59.8a.3.3,0,0,0,.294.345h7.465l.033-.067a6.376,6.376,0,0,1,.779-1.219Zm-6.381-5.756A2.214,2.214,0,1,0,42.4,50.833,2.216,2.216,0,0,0,40.183,53.047Zm11.275,4.209a5.618,5.618,0,0,0-5.565,4.9.3.3,0,0,0,.3.335H56.728a.3.3,0,0,0,.3-.335A5.617,5.617,0,0,0,51.458,57.255ZM39.908,47.718a.5.5,0,0,0,.5-.5V42.047h1.549a.5.5,0,0,0,0-.992H39.908a.5.5,0,0,0-.5.5v5.671A.5.5,0,0,0,39.908,47.718Z" transform="translate(-37.944 -35.107)" fill="#b6cbef"/>
</svg>

