<svg id="Component_10_1" data-name="Component 10 – 1" xmlns="http://www.w3.org/2000/svg" width="16.436" height="13.35" viewBox="0 0 16.436 13.35">
  <path id="Path_13008" data-name="Path 13008" d="M172.388,478.071c.011.146.011.292.011.438a9.589,9.589,0,0,1-14.757,8.073,7.124,7.124,0,0,0,.814.041,6.745,6.745,0,0,0,4.182-1.439,3.374,3.374,0,0,1-3.15-2.336,4.2,4.2,0,0,0,.636.053,3.563,3.563,0,0,0,.886-.115,3.37,3.37,0,0,1-2.7-3.306v-.041a3.422,3.422,0,0,0,1.523.427,3.378,3.378,0,0,1-1.043-4.506,9.581,9.581,0,0,0,6.947,3.526,3.77,3.77,0,0,1-.085-.772,3.372,3.372,0,0,1,5.83-2.3,6.633,6.633,0,0,0,2.138-.812,3.361,3.361,0,0,1-1.48,1.856,6.786,6.786,0,0,0,1.939-.522A7.238,7.238,0,0,1,172.388,478.071Z" transform="translate(-157.641 -474.744)" fill="#adaeb0"/>
</svg>
