<svg xmlns="http://www.w3.org/2000/svg" width="30" height="26.25" viewBox="0 0 30 26.25">
  <g id="_" data-name=" " transform="translate(-274 -607.123)" style="isolation: isolate">
    <g id="Group_1518" data-name="Group 1518" style="isolation: isolate">
      <path id="Path_13015" data-name="Path 13015" d="M277.75,628.686a.938.938,0,0,0,.937.937h23.438a1.875,1.875,0,0,1,0,3.75H278.687A4.686,4.686,0,0,1,274,628.686V609a1.875,1.875,0,0,1,3.75,0Zm16.324-7.114a1.87,1.87,0,0,1-2.649,0l-3.363-3.357-5.238,5.232a1.873,1.873,0,1,1-2.649-2.648l6.563-6.563a1.871,1.871,0,0,1,2.648,0l3.364,3.358,6.175-6.17a1.873,1.873,0,0,1,2.649,2.648Z" fill="#3d5aa9"/>
    </g>
  </g>
</svg>
