<svg id="Layer_1" viewBox="0 0 32 32" fill="white" width="20" xmlns="http://www.w3.org/2000/svg" data-name="Layer 1">
<path d="m27.046 28h-22.092a2.954 2.954 0 0 1 -1.639-5.412l.349-.233a3 3 0 0 0 1.336-2.496v-6.859a11 11 0 0 1 22 0v6.859a3 3 0 0 0 1.336 2.5l.349.233a2.954 2.954 0 0 1 -1.639 5.408zm-11.046-24a9.01 9.01 0 0 0 -9 9v6.859a4.994 4.994 0 0 1 -2.227 4.161l-.348.232a.954.954 0 0 0 .529 1.748h22.092a.954.954 0 0 0 .529-1.748l-.348-.232a4.994 4.994 0 0 1 -2.227-4.161v-6.859a9.01 9.01 0 0 0 -9-9z"/>
<path d="m16 32a5.006 5.006 0 0 1 -5-5 1 1 0 0 1 2 0 3 3 0 0 0 6 0 1 1 0 0 1 2 0 5.006 5.006 0 0 1 -5 5z"/>
<path d="m16 4a1 1 0 0 1 -1-1v-2a1 1 0 0 1 2 0v2a1 1 0 0 1 -1 1z"/>
</svg>