<svg id="Layer_1" enable-background="new 0 0 64 64" fill="white" viewBox="0 0 64 64" width="20" xmlns="http://www.w3.org/2000/svg"><g>
<g>
<path d="m11.5 28.2c-.54 0-.97.43-.97.97v5.66c0 .54.43.97.97.97h2.54c.46 2.19 1.34 4.31 2.58 6.21l-1.8 1.8c-.38.38-.38.99 0 1.37l4 4c.18.18.43.28.69.28s.5-.1.69-.28l1.81-1.81c1.88 1.23 4 2.11 6.21 2.58v2.55c0 .54.43.97.97.97h5.66c.54 0 .97-.43.97-.97v-2.55c2.2-.47 4.32-1.34 6.2-2.57l1.8 1.8c.38.38.99.38 1.37 0l4-4c.38-.38.38-.99 0-1.37l-1.81-1.81c1.24-1.88 2.12-4 2.58-6.21h2.54c.54 0 .97-.43.97-.97v-5.66c0-.54-.43-.97-.97-.97h-2.54c-.46-2.2-1.34-4.32-2.58-6.21l1.81-1.81c.18-.18.28-.43.28-.69s-.1-.5-.28-.69l-4-4c-.38-.38-.99-.38-1.37 0l-1.8 1.8c-1.89-1.23-4-2.11-6.2-2.57v-2.52c0-.54-.43-.97-.97-.97h-5.66c-.54 0-.97.43-.97.97v2.54c-2.2.47-4.32 1.35-6.21 2.58l-1.81-1.81c-.18-.18-.43-.28-.69-.28s-.5.1-.69.28l-4 4c-.38.38-.38.99 0 1.37l1.8 1.8c-1.23 1.89-2.11 4.01-2.57 6.21h-2.55zm4.31 1.13c.41-2.5 1.37-4.82 2.85-6.89.28-.39.23-.91-.1-1.25l-1.68-1.69 2.63-2.63 1.69 1.69c.34.34.87.38 1.25.1 2.03-1.46 4.41-2.45 6.88-2.86.47-.08.81-.48.81-.96v-2.37h3.72v2.37c0 .47.34.88.81.96 2.47.41 4.85 1.39 6.88 2.85.39.28.92.23 1.25-.1l1.69-1.68 2.63 2.63-1.69 1.69c-.34.34-.38.87-.1 1.25 1.47 2.03 2.46 4.4 2.86 6.88.08.47.48.81.96.81h2.38v3.72h-2.38c-.48 0-.88.35-.96.81-.4 2.47-1.39 4.85-2.86 6.88-.28.39-.24.92.1 1.25l1.69 1.69-2.63 2.63-1.69-1.68c-.34-.34-.87-.38-1.25-.1-2.03 1.46-4.41 2.45-6.88 2.85-.47.08-.81.48-.81.96v2.38h-3.72v-2.38c0-.47-.34-.88-.81-.96-2.47-.41-4.85-1.4-6.88-2.86-.39-.28-.92-.24-1.25.1l-1.69 1.69-2.63-2.63 1.69-1.69c.34-.34.38-.87.1-1.25-1.47-2.05-2.46-4.43-2.85-6.89-.08-.47-.48-.81-.96-.81h-2.38v-3.72h2.38c.47.02.87-.33.95-.79z"/><path d="m32 45.09c7.22 0 13.09-5.87 13.09-13.09s-5.87-13.09-13.09-13.09-13.09 5.87-13.09 13.09 5.87 13.09 13.09 13.09zm0-24.24c6.15 0 11.15 5 11.15 11.15s-5 11.15-11.15 11.15-11.15-5-11.15-11.15 5-11.15 11.15-11.15z"/><path d="m61.42 39.37c-.51-.14-1.05.15-1.2.67-3.57 12.53-15.18 21.29-28.22 21.29-11.5 0-21.95-6.81-26.69-17.15l4.19 2.05c.48.24 1.06.04 1.3-.44s.04-1.06-.44-1.3l-6.32-3.1c-.24-.12-.52-.13-.77-.03-.27.09-.47.29-.57.54l-2.63 6.53c-.2.5.04 1.06.54 1.26.12.05.24.07.36.07.38 0 .75-.23.9-.61l1.68-4.16c5.05 11.02 16.19 18.28 28.45 18.28 13.91 0 26.28-9.34 30.09-22.7.14-.52-.16-1.06-.67-1.2z"/>
<path d="m63.39 14.31c-.49-.2-1.06.04-1.26.54l-1.68 4.18c-5.04-11.04-16.18-18.3-28.45-18.3-13.91 0-26.28 9.34-30.08 22.7-.15.52.15 1.05.67 1.2.09.03.18.04.27.04.42 0 .81-.28.93-.71 3.56-12.53 15.16-21.29 28.21-21.29 11.5 0 21.95 6.8 26.68 17.15l-4.17-2.05c-.48-.23-1.06-.04-1.3.44-.23.48-.04 1.06.44 1.3l6.32 3.1c.13.07.28.1.43.1.12 0 .23-.02.35-.06.25-.1.45-.29.55-.54l2.63-6.53c.2-.5-.04-1.07-.54-1.27z"/></g></g>
</svg>