<svg id="Glyph" viewBox="0 0 32 32" fill="white" width="20" xmlns="http://www.w3.org/2000/svg"><g>
<path d="m20.94971 17.0498c-1.32227-1.32226-3.08008-2.0498-4.94971-2.0498-2.69141 0-5.10107 1.50195-6.28809 3.91699-.47216.95508-.71191 1.99317-.71191 3.08301v4.28613c0 1.4961 1.21777 2.71387 2.71436 2.71387h8.57129c1.49658 0 2.71435-1.21777 2.71435-2.71387 0 0 0-4.28408 0-4.28613 0-1.82998-.75757-3.65861-2.05029-4.9502z"/>
<path d="m7.91998 18.02997c.31-.63.67999-1.20996 1.11004-1.73999.07807-.09622-1.43668-.8798-1.57877-.93383-1.95885-.74495-4.18738-.25809-5.68124 1.19384-1.13 1.09997-1.77001 2.60998-1.77001 4.15997v4.29004c0 1.64996 1.35004 3 3 3h4.33002c-.22003-.53003-.33002-1.10999-.33002-1.71002v-4.28998c0-1.40002.31-2.73999.91998-3.97003z"/>
<circle cx="16" cy="7" r="5"/><circle cx="5.5" cy="9" r="4"/><circle cx="26.5" cy="9" r="4"/>
<path d="m30.39001 16.62c-2.00434-1.96587-5.28468-2.1421-7.44-.32001.45996.53998.83997 1.12 1.14001 1.75.59998 1.21997.90998 2.54999.90998 3.95001v4.28998c0 .60004-.10999 1.17999-.33002 1.71002h4.33002c1.65002 0 3-1.35004 3-3v-4.5c0-1.48003-.57-2.85996-1.60999-3.88z"/></g>
</svg>