<svg  viewBox="0 0 128 128" width="20" fill="white" xmlns="http://www.w3.org/2000/svg">
<g id="_23_digital_library" data-name="23 digital library">
<path d="m75.976 71h-23.952a3 3 0 0 0 -3 3v9.534a3 3 0 0 0 3 3h23.952a3 3 0 0 0 3-3v-9.534a3 3 0 0 0 -3-3zm-1 11.534h-21.952v-7.534h21.952z"/>
<path d="m108.539 44.585c.047-.714.069-1.443.069-2.2a33.635 33.635 0 0 0 -57.427-23.791 23.64 23.64 0 0 0 -7.876-1.338 23.94 23.94 0 0 0 -23.913 23.913 23.609 23.609 0 0 0 .239 3.373 17.9 17.9 0 0 0 -8.406 4.721 17.821 17.821 0 0 0 12.6 30.428h10.78v27.482a12.107 12.107 0 0 0 12.095 12.093h41.81a4.89 4.89 0 0 0 4.884-4.884v-34.691h10.78a17.838 17.838 0 0 0 17.826-17.826 17.9 17.9 0 0 0 -13.461-17.28zm-19.145 33.087v.019.02 36.671a.886.886 0 0 1 -.884.884h-41.81a8.1 8.1 0 0 1 -8.093-8.093v-29.462-.02-.019-16.906a9.506 9.506 0 0 0 5.421 1.69h44.482a.886.886 0 0 1 .884.884zm-50.788-24.424a5.324 5.324 0 0 1 5.421-5.209h41.041v10.417h-41.041a5.324 5.324 0 0 1 -5.421-5.208zm75.341 18.391a13.733 13.733 0 0 1 -9.773 4.052h-10.78v-12.351a4.873 4.873 0 0 0 -4.326-4.827v-12.474a2 2 0 0 0 -2-2h-43.041a9.328 9.328 0 0 0 -9.421 9.209v22.443h-10.78a13.826 13.826 0 0 1 -1.617-27.556 2 2 0 0 0 1.709-2.461 19.033 19.033 0 0 1 -.526-4.505 19.934 19.934 0 0 1 19.913-19.913 19.685 19.685 0 0 1 7.628 1.526 2 2 0 0 0 2.243-.491 29.635 29.635 0 0 1 51.432 20.1 28 28 0 0 1 -.215 3.558 2 2 0 0 0 1.709 2.233 13.871 13.871 0 0 1 11.898 13.683 13.732 13.732 0 0 1 -4.053 9.774z"/>
</g></svg>