<svg viewBox="0 0 511.99995 511" width="20" xmlns="http://www.w3.org/2000/svg">
<g fill="white">
<path d="m291.417969.5c-5.523438 0-10 4.476562-10 10s4.476562 10 10 10c110.601562 0 200.582031 89.980469 200.582031 200.582031 0 5.519531 4.476562 10 10 10s10-4.480469 10-10c0-121.628906-98.953125-220.582031-220.582031-220.582031zm0 0"/>
<path d="m291.417969 60.660156c-5.523438 0-10 4.480469-10 10.003906 0 5.519532 4.476562 10 10 10 77.425781 0 140.417969 62.988282 140.417969 140.417969 0 5.519531 4.476562 10 10 10 5.523437 0 10-4.480469 10-10 0-88.457031-71.960938-160.421875-160.417969-160.421875zm0 0"/>
<path d="m371.664062 221.082031c0 5.519531 4.476563 10 10 10 5.523438 0 10-4.480469 10-10 0-55.277343-44.96875-100.246093-100.246093-100.246093-5.523438 0-10 4.476562-10 10 0 5.523437 4.476562 10 10 10 44.246093 0 80.246093 35.996093 80.246093 80.246093zm0 0"/>
<path d="m281.417969 191c0 5.519531 4.476562 10 10 10 11.074219 0 20.082031 9.007812 20.082031 20.082031 0 5.519531 4.476562 10 10 10s10-4.480469 10-10c0-22.105469-17.980469-40.082031-40.082031-40.082031-5.523438 0-10 4.476562-10 10zm0 0"/>
<path d="m190.984375 322.878906c0 5.523438-4.476563 10-10 10s-10-4.476562-10-10c0-5.523437 4.476563-10.003906 10-10.003906s10 4.480469 10 10.003906zm0 0"/>
<path d="m355.042969 333.886719c-11.695313-11.699219-30.730469-11.699219-42.425781 0l-32.910157 32.910156c-6.21875 6.21875-17.898437 7.332031-25.503906 2.4375-11.503906-7.414063-22.71875-15.550781-33.324219-24.1875-4.285156-3.484375-10.582031-2.839844-14.070312 1.445313-3.484375 4.285156-2.839844 10.582031 1.445312 14.066406 11.179688 9.101562 22.992188 17.675781 35.117188 25.488281 15.476562 9.96875 37.648437 7.722656 50.480468-5.109375l32.910157-32.910156c3.902343-3.898438 10.242187-3.894532 14.140625 0l77.78125 77.792968c3.898437 3.898438 3.898437 10.242188 0 14.140626l-29.109375 29.109374c-23.53125 23.53125-59.832031 29.945313-90.328125 15.960938-152.6875-69.984375-232.28125-187.527344-272.160156-273.808594-13.742188-29.71875-7.132813-65.535156 16.453124-89.117187l28.652344-28.648438c3.902344-3.90625 10.222656-3.917969 14.136719 0l77.792969 77.792969c3.898437 3.898438 3.898437 10.238281 0 14.136719l-32.910156 32.914062c-12.832032 12.832031-15.074219 35.003907-5.105469 50.480469 5.652343 8.769531 11.722656 17.410156 18.046875 25.6875 3.355468 4.386719 9.632812 5.226562 14.019531 1.871094 4.386719-3.351563 5.226563-9.628906 1.875-14.015625-6.003906-7.855469-11.765625-16.054688-17.128906-24.378907-4.898438-7.601562-3.78125-19.285156 2.4375-25.503906l32.910156-32.910156c11.722656-11.722656 11.726563-30.699219 0-42.425781l-77.792969-77.792969c-11.726562-11.726562-30.699218-11.726562-42.429687 0l-28.648438 28.648438c-29.488281 29.488281-37.710937 74.359374-20.46875 111.652343 57.710938 124.851563 154.726563 225.269531 281.984375 283.601563 37.917969 17.386718 83.285156 9.519531 112.804688-20l29.113281-29.109375c11.695313-11.699219 11.695313-30.730469 0-42.425781zm0 0"/></g></svg>