<svg enable-background="new 0 0 512 512" fill="white" viewBox="0 0 512 512" width="20" xmlns="http://www.w3.org/2000/svg" xmlns:xlink="http://www.w3.org/1999/xlink">
<linearGradient id="SVGID_1_" gradientUnits="userSpaceOnUse" x1="256" x2="256" y1="483.765" y2="28.235">
<stop offset="0" stop-color="white"/><stop offset=".682" stop-color="white"/><stop offset="1" stop-color="white"/>
</linearGradient>
<g id="_x32_0_Caution">
<path d="m503.706 229.598-100.964-174.964c-9.414-16.285-26.961-26.398-45.783-26.398h-201.917c-18.822 0-36.364 10.113-45.793 26.401l-100.954 174.958c-9.424 16.287-9.424 36.522-.005 52.807l100.964 174.967c9.424 16.282 26.971 26.396 45.788 26.396h201.917c18.822 0 36.364-10.113 45.788-26.401l100.953-174.957c9.43-16.29 9.43-36.524.006-52.809zm-9.191 47.491c0 .003-.005.005-.005.005l-100.954 174.956c-7.532 13.014-21.554 21.098-36.597 21.098h-201.917c-15.043 0-29.065-8.084-36.597-21.093l-100.964-174.964c-7.522-13.011-7.522-29.172.005-42.185l100.954-174.956c7.532-13.014 21.559-21.098 36.602-21.098h201.917c15.043 0 29.07 8.084 36.592 21.093l100.964 174.967c7.527 13.008 7.527 29.168 0 42.177zm-127.209-174.638c-6.993-12.112-20.025-19.636-34.011-19.636h-154.59c-13.986 0-27.018 7.524-34.016 19.636l-77.299 133.909c-6.988 12.112-6.988 27.155 0 39.267l77.3 133.906c6.998 12.114 20.03 19.639 34.011 19.639h154.595c13.986 0 27.018-7.524 34.011-19.639l77.305-133.906c6.988-12.112 6.988-27.155 0-39.267zm68.109 167.868-77.305 133.906c-5.101 8.841-14.608 14.33-24.815 14.33h-154.594c-10.202 0-19.709-5.492-24.815-14.33l-77.3-133.906c-5.101-8.836-5.101-19.815 0-28.651l77.3-133.909c5.106-8.838 14.613-14.328 24.82-14.328h154.59c10.207 0 19.714 5.49 24.815 14.328l77.305 133.909c5.1 8.836 5.1 19.815-.001 28.651zm-179.445 33.738c-16.821 0-30.506 13.714-30.506 30.569s13.685 30.566 30.506 30.566c16.858 0 30.569-13.711 30.569-30.566-.001-16.855-13.712-30.569-30.569-30.569zm0 50.518c-10.969 0-19.89-8.95-19.89-19.95 0-11.003 8.921-19.952 19.89-19.952 11 0 19.952 8.95 19.952 19.952 0 11.001-8.953 19.95-19.952 19.95zm29.293-207.782h-58.525c-11.242 0-19.975 9.841-18.542 21.142l13.721 103.973c1.177 9.253 9.129 16.23 18.496 16.23h31.175c9.362 0 17.314-6.977 18.485-16.207l13.732-103.996c0-.01.005-.021.005-.029 1.419-11.21-7.259-21.113-18.547-21.113zm8.014 19.771-13.732 104.001c-.503 3.966-3.924 6.957-7.957 6.957h-31.175c-4.033 0-7.459-2.991-7.967-6.98l-13.721-103.968c-.618-4.889 3.104-9.165 8.014-9.165h58.525c4.895 0 8.623 4.254 8.013 9.155z" fill="white"/>
</g></svg>