<svg id="Layer_1"  viewBox="0 0 512 512" width="20" xmlns="http://www.w3.org/2000/svg" data-name="Layer 1">
<path d="m54.87 392.071a5.9 5.9 0 1 0 -5.9-5.9 5.9 5.9 0 0 0 5.9 5.9zm0-24.08a18.185 18.185 0 1 1 -18.183 18.183 18.2 18.2 0 0 1 18.183-18.183zm444.878-80.381c-.08.08-.17.169-.241.25l-123.53 134.711a28.951 28.951 0 0 1 -22.1 9.761l-154.711.4a40.662 40.662 0 0 0 -21.089 5.694l-34.631 19.974-58.878-101.967c4.661-3.992 9.252-8.044 13.71-12 18.583-16.437 36.12-31.982 56.4-39.771 22.542-8.648 69.191-12.592 98.121 2.533a6.138 6.138 0 0 0 2.849.7h83.779a21.466 21.466 0 1 1 0 42.932h-98.04a6.145 6.145 0 1 0 0 12.29h98.04a33.68 33.68 0 0 0 24.792-10.884l105.07-91.147a6.436 6.436 0 0 0 .717-.751 20.21 20.21 0 1 1 29.741 27.279zm-362.208 190.66a9.305 9.305 0 0 1 -4.36 5.7l-46.39 26.781a9.432 9.432 0 0 1 -12.823-3.439l-66.577-115.312a9.416 9.416 0 0 1 3.439-12.818l46.39-26.793a9.424 9.424 0 0 1 12.819 3.44l66.582 115.312a9.286 9.286 0 0 1 .92 7.129zm186.31-201.478h37.7l3.359-22.471h-.01v-50.481a6.124 6.124 0 0 1 3.619-5.59 58.891 58.891 0 0 0 34.18-53.708 59.775 59.775 0 0 0 -23.561-47.7v31.84a36.745 36.745 0 1 1 -73.489 0v-31.369a59.92 59.92 0 0 0 -22.97 47.229 58.92 58.92 0 0 0 33.661 53.429 6.16 6.16 0 0 1 3.562 5.572v48.669a6.359 6.359 0 0 1 .528 1.717zm158.15-102.032a6.149 6.149 0 0 0 5.242-6.067v-48.3a6.162 6.162 0 0 0 -5.242-6.073l-24.14-3.609a119.713 119.713 0 0 0 -9.809-23.669l14.516-19.642a6.133 6.133 0 0 0 -.6-8l-34.137-34.128a6.146 6.146 0 0 0 -8-.6l-19.63 14.518a119.133 119.133 0 0 0 -23.67-9.818l-3.611-24.141a6.135 6.135 0 0 0 -6.081-5.231h-48.291a6.132 6.132 0 0 0 -6.067 5.232l-3.609 24.141a119.129 119.129 0 0 0 -23.684 9.818l-19.63-14.517a6.14 6.14 0 0 0 -8 .6l-34.13 34.126a6.139 6.139 0 0 0 -.6 8l14.521 19.64a119.146 119.146 0 0 0 -9.822 23.669l-24.136 3.611a6.145 6.145 0 0 0 -5.232 6.072v48.3a6.132 6.132 0 0 0 5.232 6.067l24.137 3.618a119.267 119.267 0 0 0 9.822 23.665l-14.521 19.631a6.133 6.133 0 0 0 .6 8l34.133 34.143a6.133 6.133 0 0 0 8 .6l19.64-14.521a119.943 119.943 0 0 0 23.674 9.817l3.609 24.141a6.141 6.141 0 0 0 6.067 5.233h48.291a6.144 6.144 0 0 0 6.081-5.233l3.609-24.141a119.966 119.966 0 0 0 23.67-9.817l19.631 14.521a6.141 6.141 0 0 0 8-.6l34.138-34.143a6.127 6.127 0 0 0 .6-8l-14.521-19.63a120.422 120.422 0 0 0 9.809-23.665z" fill="white" fill-rule="evenodd"/>
</svg>