<svg id="Layer_1" viewBox="0 0 512 512" fill="white" width="20" xmlns="http://www.w3.org/2000/svg" xmlns:xlink="http://www.w3.org/1999/xlink" data-name="Layer 1">
<linearGradient id="GradientFill_1" gradientUnits="userSpaceOnUse" x1=".001" x2="512.001" y1="256.046" y2="256.046">
<stop offset="0" stop-color="white"/><stop offset="1" stop-color="white"/></linearGradient>
<path d="m105.635 374.839a12.212 12.212 0 0 0 -3.1.4l-73.56 19.72 19.707-73.559a12.012 12.012 0 0 0 -1.2-9.121 175.525 175.525 0 0 1 27.884-211.719c68.37-68.369 179.625-68.369 248 0a175.383 175.383 0 0 1 -211.72 275.89 11.95 11.95 0 0 0 -6.011-1.611zm382.132 7.941a199.431 199.431 0 0 0 -140.267-291.652q-3.476-3.84-7.157-7.539c-77.74-77.728-204.219-77.728-281.949 0a199.566 199.566 0 0 0 -34.159 236.311l-23.825 88.92a12.006 12.006 0 0 0 11.59 15.11 12.236 12.236 0 0 0 3.105-.411l88.916-23.831a198.016 198.016 0 0 0 60.5 21.191c2.316 2.57 4.708 5.1 7.143 7.53a199.536 199.536 0 0 0 236.314 34.16l88.911 23.82a11.79 11.79 0 0 0 3.111.411 11.988 11.988 0 0 0 11.592-15.1zm-247.608-158.222a40.8 40.8 0 1 0 -40.795 40.8 40.84 40.84 0 0 0 40.795-40.8zm49.05 40.8a40.794 40.794 0 1 0 -40.8-40.8 40.84 40.84 0 0 0 40.8 40.8zm-179.691-81.588a40.794 40.794 0 1 0 40.8 40.788 40.839 40.839 0 0 0 -40.8-40.788z" fill="white)" fill-rule="white"/>
</svg>