<svg id="Layer_1" viewBox="0 0 512 512" width="20" fill="white" xmlns="http://www.w3.org/2000/svg" data-name="Layer 1">
<path d="m467.159 15.669h-422.318a44.891 44.891 0 0 0 -44.841 44.839v284.452a44.891 44.891 0 0 0 44.841 44.84h195.159v74.531h-37.562a16 16 0 0 0 0 32h107.124a16 16 0 0 0 0-32h-37.562v-74.531h195.159a44.891 44.891 0 0 0 44.841-44.84v-284.452a44.891 44.891 0 0 0 -44.841-44.839zm12.841 329.291a12.855 12.855 0 0 1 -12.841 12.84h-422.318a12.855 12.855 0 0 1 -12.841-12.84v-284.452a12.855 12.855 0 0 1 12.841-12.839h422.318a12.855 12.855 0 0 1 12.841 12.839z"/>
</svg>