<svg xmlns="http://www.w3.org/2000/svg" width="100.544" height="127.307" viewBox="53.808 -0.001 100.544 127.307"><g data-name="XMLID_141_"><path d="M154.02 111.633 137.914 83.74a14.406 14.406 0 0 0 5.01-9.074 9.371 9.371 0 0 1 3.57-6.183c5.099-3.948 6.955-10.873 4.512-16.841a9.371 9.371 0 0 1 0-7.14c2.443-5.969.587-12.894-4.512-16.84a9.37 9.37 0 0 1-3.57-6.185c-.87-6.39-5.939-11.459-12.329-12.328a9.371 9.371 0 0 1-6.183-3.57c-3.947-5.1-10.872-6.955-16.84-4.512a9.371 9.371 0 0 1-7.14 0C94.463-1.377 87.538.479 83.59 5.578a9.372 9.372 0 0 1-6.183 3.57c-6.39.87-11.46 5.939-12.328 12.329a9.372 9.372 0 0 1-3.57 6.183c-5.1 3.948-6.955 10.873-4.513 16.841a9.371 9.371 0 0 1 0 7.14c-2.443 5.968-.587 12.893 4.513 16.84a9.372 9.372 0 0 1 3.57 6.184 14.406 14.406 0 0 0 5.116 9.161L54.14 111.633a2.486 2.486 0 0 0 2.798 3.646l13.993-3.75 3.734 13.933a2.487 2.487 0 0 0 4.556.6l17.323-30.005a14.285 14.285 0 0 0 3.887-.981 9.371 9.371 0 0 1 7.14 0c1.319.54 2.685.869 4.055 1l17.312 29.986a2.487 2.487 0 0 0 4.556-.6l3.734-13.933 13.993 3.75a2.486 2.486 0 0 0 2.797-3.646Zm-76.104 6.743-2.823-10.536a2.487 2.487 0 0 0-3.046-1.759l-10.597 2.84 13.067-22.632c.924.33 1.891.569 2.89.705a9.372 9.372 0 0 1 6.184 3.57 14.375 14.375 0 0 0 7.478 5.031l-13.153 22.781Zm20.632-27.903a9.453 9.453 0 0 1-11.024-2.953 14.317 14.317 0 0 0-9.447-5.455 9.453 9.453 0 0 1-8.07-8.07 14.318 14.318 0 0 0-5.454-9.446A9.453 9.453 0 0 1 61.6 53.525a14.315 14.315 0 0 0 0-10.908 9.453 9.453 0 0 1 2.953-11.024 14.317 14.317 0 0 0 5.455-9.446 9.453 9.453 0 0 1 8.07-8.07 14.316 14.316 0 0 0 9.446-5.454 9.451 9.451 0 0 1 11.024-2.954 14.318 14.318 0 0 0 10.908 0 9.453 9.453 0 0 1 11.023 2.954 14.316 14.316 0 0 0 9.447 5.454 9.453 9.453 0 0 1 8.07 8.07 14.317 14.317 0 0 0 5.454 9.446 9.453 9.453 0 0 1 2.954 11.024 14.317 14.317 0 0 0 0 10.908 9.453 9.453 0 0 1-2.954 11.024 14.317 14.317 0 0 0-5.454 9.446 9.453 9.453 0 0 1-8.07 8.07 14.315 14.315 0 0 0-9.447 5.454 9.452 9.452 0 0 1-11.023 2.954 14.318 14.318 0 0 0-10.908 0Zm37.565 15.608a2.486 2.486 0 0 0-3.045 1.759l-2.824 10.536-13.175-22.82a14.374 14.374 0 0 0 7.344-4.992 9.37 9.37 0 0 1 6.183-3.57 14.29 14.29 0 0 0 3.02-.754l13.094 22.68-10.597-2.839Z" fill-rule="evenodd" fill="url(&quot;#a&quot;)" data-name="XMLID_162_"/><path d="m184.626 136.91-7.738 7.738a2.487 2.487 0 0 0 0 3.516l14.512 14.512a2.487 2.487 0 0 0 3.517 0l20.205-20.205a2.487 2.487 0 0 0 0-3.517l-7.737-7.738a2.488 2.488 0 0 0-3.517 0l-10.71 10.71-5.015-5.015a2.487 2.487 0 0 0-3.517 0Zm6.774 10.292a2.487 2.487 0 0 0 3.516 0l10.71-10.71 4.22 4.22-16.688 16.689-10.994-10.995 4.22-4.22 5.016 5.016Z" fill-rule="evenodd" fill="url(&quot;#b&quot;)" transform="translate(-91.925 -98.038)" data-name="XMLID_1190_"/><path d="M190.62 105.313c0-6.606-1.98-12.96-5.725-18.373a32.292 32.292 0 0 0-14.692-11.69 2.487 2.487 0 0 0-1.834 4.624c10.495 4.161 17.277 14.147 17.277 25.439 0 15.084-12.272 27.355-27.355 27.355-15.084 0-27.355-12.271-27.355-27.355 0-11.292 6.781-21.278 17.276-25.44a2.487 2.487 0 1 0-1.833-4.623 32.293 32.293 0 0 0-14.692 11.69 32.145 32.145 0 0 0-5.725 18.373c0 17.826 14.503 32.329 32.329 32.329s32.328-14.503 32.328-32.329Z" fill-rule="evenodd" fill="url(&quot;#c&quot;)" transform="translate(-54.21 -56.405)" data-name="XMLID_1191_"/><path d="M248.448 71.64c.654 0 1.296-.264 1.758-.729a2.502 2.502 0 0 0 .729-1.758c0-.654-.266-1.296-.73-1.758a2.505 2.505 0 0 0-1.757-.729c-.654 0-1.296.266-1.758.729a2.505 2.505 0 0 0-.729 1.758c0 .656.266 1.295.729 1.758a2.495 2.495 0 0 0 1.758.729Z" fill-rule="evenodd" fill="url(&quot;#d&quot;)" transform="translate(-144.368 -50.088)" data-name="XMLID_1218_"/></g><defs><linearGradient x1=".5" y1="0" x2=".5" y2="1" id="a"><stop stop-color="#3a59a7" offset="0"/><stop stop-color="#2966fb" offset="1"/></linearGradient><linearGradient x1=".5" y1="0" x2=".5" y2="1" id="b"><stop stop-color="#3a59a7" offset="0"/><stop stop-color="#2966fb" offset="1"/></linearGradient><linearGradient x1=".5" y1="0" x2=".5" y2="1" id="c"><stop stop-color="#3a59a7" offset="0"/><stop stop-color="#2966fb" offset="1"/></linearGradient><linearGradient x1=".5" y1="0" x2=".5" y2="1" id="d"><stop stop-color="#3a59a7" offset="0"/><stop stop-color="#2966fb" offset="1"/></linearGradient></defs></svg>