<svg xmlns="http://www.w3.org/2000/svg" width="685.131" height="134.196" viewBox="0 0 685.131 134.196">
  <g id="Group_54" data-name="Group 54" transform="translate(-3366.964 354.118)">
    <path id="Path_105" data-name="Path 105" d="M-87.9-80.59h-2.928v-1.538h7.555v1.538H-86.2v8.014h-1.7Zm6.908-1.538h2.59l2.55,6.692,2.577-6.692h2.563v9.552h-1.619v-7.933h-.027l-2.9,7.933h-1.187l-2.9-7.933h-.027v7.933h-1.619Z" transform="translate(4122.807 -247)" fill="#264694"/>
    <path id="Path_103" data-name="Path 103" d="M6.045,0,16.1,17.454l4.309,7.48H0l54.234,84.845,7.988-14.564L28.372,42.291H89.925l10-17.357H29.6l-4.31-7.48H114.44L59.807,118.233,70.342,134.2,140.539,0Z" transform="translate(3366.964 -354.118)" fill="#264694"/>
    <path id="Path_104" data-name="Path 104" d="M-248.936-82.128h22.272l21.924,57.536,22.156-57.536h22.04V0h-13.92V-68.208h-.232L-199.636,0h-10.208l-24.94-68.208h-.232V0h-13.92ZM-66.816-30.16a33.786,33.786,0,0,1-2.552,13.4,30.037,30.037,0,0,1-6.96,10.15A30.615,30.615,0,0,1-86.768-.174,37.04,37.04,0,0,1-99.876,2.088,37.04,37.04,0,0,1-112.984-.174a31.247,31.247,0,0,1-10.5-6.438,28.976,28.976,0,0,1-6.96-10.15,34.473,34.473,0,0,1-2.494-13.4V-82.128h14.616v51.5a23.387,23.387,0,0,0,.928,6.322,17.759,17.759,0,0,0,3.074,6.09,16.428,16.428,0,0,0,5.684,4.582,19.2,19.2,0,0,0,8.758,1.8,19.2,19.2,0,0,0,8.758-1.8,16.428,16.428,0,0,0,5.684-4.582A17.758,17.758,0,0,0-82.36-24.3a23.387,23.387,0,0,0,.928-6.322v-51.5h14.616Zm27.26-51.968H13.456V-68.9h-38.4v21.576H11.252V-34.1H-24.94V0H-39.556ZM53.128-68.9H27.956V-82.128h64.96V-68.9H67.744V0H53.128Zm74.936-13.224h12.644L176.088,0h-16.7l-7.656-18.792H116.116L108.692,0H92.336Zm18.56,50.808L133.98-64.728,121.1-31.32Zm47.908-50.808h28.536a58.135,58.135,0,0,1,11.426,1.1,29.258,29.258,0,0,1,9.8,3.77,19.72,19.72,0,0,1,6.844,7.192,23.16,23.16,0,0,1,2.552,11.484q0,8.932-4.93,14.964t-14.094,7.308L256.476,0H238.844L219.82-34.8H209.148V0H194.532Zm25.984,34.8q3.132,0,6.264-.29a19.236,19.236,0,0,0,5.742-1.392,9.8,9.8,0,0,0,4.234-3.364A10.692,10.692,0,0,0,238.38-58.7a10.087,10.087,0,0,0-1.508-5.8,9.372,9.372,0,0,0-3.944-3.306,18.156,18.156,0,0,0-5.394-1.45,49.149,49.149,0,0,0-5.742-.348H209.148v22.272Z" transform="translate(3775.503 -247)" fill="#264694"/>
  </g>
</svg>
