<svg id="Layer_1" data-name="Layer 1" xmlns="http://www.w3.org/2000/svg" viewBox="0 0 31.62 31.62"><rect width="31.62" height="31.62" style="fill:none"/><g id="Group_171" data-name="Group 171"><path id="dashboard" d="M13.92-54.48a1,1,0,0,1,.95,1h0v6a1,1,0,0,1-.95,1H7.31a1,1,0,0,1-1-1v-6a1,1,0,0,1,1-1Zm10.4-5a1,1,0,0,1,.95,1h0v11a1,1,0,0,1-.95,1H17.7a1,1,0,0,1-.95-1v-11a1,1,0,0,1,1-1Zm-10.4-7a1,1,0,0,1,.95,1h0v8a1,1,0,0,1-.95,1H7.31a1,1,0,0,1-1-1v-8a1,1,0,0,1,1-1Zm10.4,0a1,1,0,0,1,.95,1h0v3a1,1,0,0,1-.95,1H17.7a1,1,0,0,1-.95-1v-3a1,1,0,0,1,.95-1Z" transform="translate(0 72.28)" style="fill:#fff;fill-rule:evenodd"/></g></svg>