<svg xmlns="http://www.w3.org/2000/svg" xmlns:xlink="http://www.w3.org/1999/xlink" width="66" height="38" viewBox="0 0 66 38">
  <defs>
    <clipPath id="clip-path">
      <rect id="Rectangle_80" data-name="Rectangle 80" width="66" height="38" transform="translate(220.067 117.696)" fill="#fff" stroke="#707070" stroke-width="1"/>
    </clipPath>
  </defs>
  <g id="Group_205" data-name="Group 205" transform="translate(0 -245)" opacity="0.5">
    <g id="Mask_Group_6" data-name="Mask Group 6" transform="translate(-220.067 127.304)" clip-path="url(#clip-path)">
      <g id="hr" transform="translate(238.092 118.387)">
        <g id="Group_204" data-name="Group 204" transform="translate(0 0)">
          <path id="Path_344" data-name="Path 344" d="M277.437,221.865a.547.547,0,1,0,0-1.093h-7.212a.547.547,0,0,0,0,1.093Z" transform="translate(-262.864 -212.21)" fill="#fff"/>
          <path id="Path_345" data-name="Path 345" d="M205.8,317.143a.547.547,0,0,0,.547.547h12.167a.547.547,0,0,0,0-1.093H206.342A.547.547,0,0,0,205.8,317.143Z" transform="translate(-201.458 -304.318)" fill="#fff"/>
          <path id="Path_346" data-name="Path 346" d="M206.342,383.451h12.167a.547.547,0,1,0,0-1.093H206.342a.547.547,0,1,0,0,1.093Z" transform="translate(-201.458 -367.529)" fill="#fff"/>
          <path id="Path_347" data-name="Path 347" d="M206.342,514.975h4.151a.547.547,0,0,0,0-1.093h-4.151a.547.547,0,0,0,0,1.093Z" transform="translate(-201.458 -493.952)" fill="#fff"/>
          <path id="Path_348" data-name="Path 348" d="M123.442,24.373a.546.546,0,0,0,.547-.547V21.371a.958.958,0,0,0-.456-.819L120.9,18.924V.765A.766.766,0,0,0,120.139,0h-20.4a.766.766,0,0,0-.765.765V2.5H97.234a.766.766,0,0,0-.765.765V5H94.733a.766.766,0,0,0-.765.765V33.674a.766.766,0,0,0,.765.765h4.043a.547.547,0,1,0,0-1.093H95.061V6.095h19.748V16.149l-3.322,2.058a.546.546,0,0,0-.468-.827H98.852a.547.547,0,1,0,0,1.093h12.167l.042,0L108.7,19.93h-3.953a.547.547,0,1,0,0,1.093h2.557a.965.965,0,0,0-.065.348V22.48H98.852a.547.547,0,1,0,0,1.093h8.392v1.457H98.852a.547.547,0,1,0,0,1.093h8.392v1.288c0,.056,0,.113,0,.169H98.852a.547.547,0,1,0,0,1.093h8.513a6.624,6.624,0,0,0,2.211,3.788l1.037.884h-9.285a.547.547,0,1,0,0,1.093h10.568l3.1,2.639a.959.959,0,0,0,1.25,0l5.416-4.616a6.626,6.626,0,0,0,2.332-5.05V26.377a.547.547,0,1,0-1.093,0v1.035a5.534,5.534,0,0,1-1.947,4.218l-5.332,4.544-5.332-4.544a5.534,5.534,0,0,1-1.947-4.218V21.443l7.279-4.509,7.279,4.509v2.384a.547.547,0,0,0,.547.547Zm-7.54-8.511V5.767A.766.766,0,0,0,115.137,5H97.562V3.594H117.31V7.433a.547.547,0,1,0,1.093,0V3.266a.766.766,0,0,0-.765-.765H100.063V1.093h19.748V18.247l-1.408-.872V9.983a.547.547,0,1,0-1.093,0V16.7l-1.187-.735A.971.971,0,0,0,115.9,15.862Z" transform="translate(-93.968 0)" fill="#fff"/>
          <path id="Path_349" data-name="Path 349" d="M523.077,534.915a5.006,5.006,0,1,0,5.006-5.006A5.012,5.012,0,0,0,523.077,534.915Zm8.919,0A3.913,3.913,0,1,1,528.083,531,3.918,3.918,0,0,1,532,534.915Z" transform="translate(-506.435 -509.358)" fill="#fff"/>
          <path id="Path_350" data-name="Path 350" d="M600.093,623.14a.547.547,0,0,0-.773.773l1.319,1.319a.546.546,0,0,0,.773,0l2.044-2.044a.547.547,0,0,0-.773-.773l-1.658,1.658Z" transform="translate(-579.568 -598.121)" fill="#fff"/>
        </g>
      </g>
    </g>
  </g>
</svg>
