<svg xmlns="http://www.w3.org/2000/svg" width="30" height="24" viewBox="0 0 30 24">
  <g id="_" data-name=" " transform="translate(-254.088 231.119)" style="isolation: isolate">
    <g id="Group_1508" data-name="Group 1508" transform="translate(254.088 -231.119)" style="isolation: isolate">
      <path id="Path_13003" data-name="Path 13003" d="M269.088-209.369a3.737,3.737,0,0,0,.767,2.25H255.713a1.624,1.624,0,0,1-1.625-1.622,8.128,8.128,0,0,1,8.123-8.128h4.753a8.105,8.105,0,0,1,2.325.342,3.7,3.7,0,0,0-.2,1.158Zm-10.5-15.75a6,6,0,0,1,6-6,6,6,0,0,1,6,6,6,6,0,0,1-6,6A6,6,0,0,1,258.588-225.119Zm25.5,9.75v6a2.257,2.257,0,0,1-2.25,2.25h-9a2.257,2.257,0,0,1-2.25-2.25v-6a2.257,2.257,0,0,1,2.25-2.25h.75v-3.75a3.754,3.754,0,0,1,4.141-3.73,3.9,3.9,0,0,1,3.359,3.95v3.53h.75A2.257,2.257,0,0,1,284.088-215.369Zm-5.25-6a1.5,1.5,0,0,0-1.5-1.5,1.5,1.5,0,0,0-1.5,1.5v3.75h3Zm0,9a1.5,1.5,0,0,0-1.5-1.5,1.5,1.5,0,0,0-1.5,1.5,1.5,1.5,0,0,0,1.5,1.5A1.5,1.5,0,0,0,278.838-212.369Z" transform="translate(-254.088 231.119)" fill="#a8b1ca"/>
    </g>
  </g>
</svg>
