<svg id="Group_346" data-name="Group 346" xmlns="http://www.w3.org/2000/svg" width="173.402" height="173.402" viewBox="0 0 173.402 173.402">
  <path id="Path_2758" data-name="Path 2758" d="M86.7,0A86.7,86.7,0,1,1,0,86.7,86.7,86.7,0,0,1,86.7,0Z" transform="translate(0 0)" fill="#f3f8ff" opacity="0.3"/>
  <path id="Path_2752" data-name="Path 2752" d="M2402.439,1272.638c42.347,0,65.5-35.082,65.5-65.5q0-1.5-.065-2.977a46.83,46.83,0,0,0,11.484-11.921,45.978,45.978,0,0,1-13.221,3.625,23.106,23.106,0,0,0,10.124-12.736,46.157,46.157,0,0,1-14.619,5.589,23.045,23.045,0,0,0-39.233,21,65.362,65.362,0,0,1-47.452-24.055,23.038,23.038,0,0,0,7.125,30.734,22.841,22.841,0,0,1-10.427-2.879c-.006.1-.006.192-.006.294a23.034,23.034,0,0,0,18.472,22.571,23.023,23.023,0,0,1-10.4.394,23.052,23.052,0,0,0,21.508,15.991,46.211,46.211,0,0,1-28.594,9.854,46.891,46.891,0,0,1-5.492-.318,65.187,65.187,0,0,0,35.29,10.341" transform="translate(-2333.256 -1136.003)" fill="#fff"/>
</svg>
