<svg id="Group_347" data-name="Group 347" xmlns="http://www.w3.org/2000/svg" width="173.402" height="173.402" viewBox="0 0 173.402 173.402">
  <g id="Group_193" data-name="Group 193" transform="translate(31.821 31.821)">
    <path id="Path_2750" data-name="Path 2750" d="M1822.579,1180.9c14.576,0,16.3.057,22.059.318a30.188,30.188,0,0,1,10.138,1.881,18.086,18.086,0,0,1,10.36,10.358,30.194,30.194,0,0,1,1.879,10.136c.261,5.758.318,7.484.318,22.06s-.057,16.3-.318,22.059a30.2,30.2,0,0,1-1.879,10.137,18.089,18.089,0,0,1-10.36,10.36,30.218,30.218,0,0,1-10.138,1.879c-5.756.264-7.482.319-22.059.319s-16.3-.056-22.059-.319a30.213,30.213,0,0,1-10.137-1.879,18.077,18.077,0,0,1-10.36-10.36,30.2,30.2,0,0,1-1.879-10.137c-.264-5.756-.318-7.482-.318-22.059s.055-16.3.318-22.06a30.2,30.2,0,0,1,1.879-10.136,18.074,18.074,0,0,1,10.36-10.358,30.184,30.184,0,0,1,10.137-1.881c5.756-.262,7.482-.318,22.059-.318m0-9.835c-14.825,0-16.684.063-22.506.328a40.071,40.071,0,0,0-13.252,2.539,27.91,27.91,0,0,0-15.965,15.966,40.09,40.09,0,0,0-2.538,13.25c-.266,5.822-.328,7.681-.328,22.507s.063,16.684.328,22.506a40.1,40.1,0,0,0,2.538,13.252,27.92,27.92,0,0,0,15.965,15.966,40.1,40.1,0,0,0,13.252,2.537c5.822.266,7.682.329,22.506.329s16.685-.062,22.507-.329a40.1,40.1,0,0,0,13.252-2.537,27.926,27.926,0,0,0,15.965-15.966,40.1,40.1,0,0,0,2.537-13.252c.267-5.823.328-7.681.328-22.506s-.062-16.685-.328-22.507a40.08,40.08,0,0,0-2.537-13.25,27.916,27.916,0,0,0-15.965-15.966,40.069,40.069,0,0,0-13.252-2.539c-5.822-.264-7.681-.328-22.507-.328Z" transform="translate(-1767.989 -1171.066)" fill="#fff"/>
    <path id="Path_2751" data-name="Path 2751" d="M1816.7,1191.741a28.033,28.033,0,1,0,28.034,28.034A28.033,28.033,0,0,0,1816.7,1191.741Zm0,46.229a18.2,18.2,0,1,1,18.2-18.195A18.194,18.194,0,0,1,1816.7,1237.969Z" transform="translate(-1762.108 -1165.185)" fill="#fff"/>
    <ellipse id="Ellipse_28" data-name="Ellipse 28" cx="6.551" cy="6.551" rx="6.551" ry="6.551" transform="translate(77.18 18.898)" fill="#fff"/>
  </g>
  <ellipse id="Ellipse_27" data-name="Ellipse 27" cx="86.701" cy="86.701" rx="86.701" ry="86.701" transform="translate(0 0)" fill="#f3f8ff" opacity="0.3"/>
</svg>
