<svg xmlns="http://www.w3.org/2000/svg" width="118" height="118"><path d="M118 74.686a21.256 21.256 0 0 0-6.267-15.128 21.284 21.284 0 0 0-9.2-5.419c.045-.282.098-.561.129-.849h.112c4.199 0 7.613-3.414 7.613-7.613 0-2.179-.932-4.135-2.406-5.523a19.316 19.316 0 0 0 2.406-9.337c0-10.696-8.701-19.398-19.398-19.398H80.17c-5.072 0-9.489 3.192-11.192 7.876-6.753 1.275-11.88 7.211-11.88 14.33 0 2.515.666 4.93 1.88 7.096-1.155 1.336-1.88 3.055-1.88 4.956 0 4.199 3.414 7.613 7.613 7.613h.112c.008.061.019.118.027.18-4.404.829-7.752 4.693-7.752 9.336v17.13H53.29V41.87H39.355l6.439-9.301a20.662 20.662 0 0 0 3.69-11.815C49.484 9.312 40.17 0 28.729 0h-.36C16.925 0 7.613 9.312 7.613 20.755c0 4.242 1.277 8.33 3.69 11.815l6.439 9.301H3.806v38.415C1.596 81.074 0 83.167 0 85.646v15.225a5.717 5.717 0 0 0 5.71 5.71h9.668c.929 6.444 6.473 11.419 13.17 11.419 6.698 0 12.242-4.975 13.17-11.42h34.563c.93 6.445 6.473 11.42 13.17 11.42 6.698 0 12.242-4.975 13.17-11.42H118V74.687Zm-15.226-25.202V41.87a3.81 3.81 0 0 1 3.807 3.806 3.81 3.81 0 0 1-3.807 3.807ZM71.69 22.839h10.15v-3.807h-8.553a8.123 8.123 0 0 1 6.884-3.806h10.82c8.596 0 15.59 6.994 15.59 15.591 0 2.646-.7 5.2-1.965 7.497a7.624 7.624 0 0 0-1.84-.25V34.79l-1.303-.434a15.725 15.725 0 0 1-8.065-6.16l-1.397-2.102-11.623 5.81a22.382 22.382 0 0 1-9.966 2.355 1.904 1.904 0 0 1 0-3.806h1.903v-3.807h-1.903a5.717 5.717 0 0 0-5.71 5.71v5.71h-.001c-.92 0-1.791.188-2.61.489a10.718 10.718 0 0 1-1.197-4.93c0-5.947 4.838-10.785 10.786-10.785Zm-3.173 41.87h2.58a17.167 17.167 0 0 0 3.516 2.186 7.584 7.584 0 0 0-2.288 5.428v5.707c0 .644.086 1.28.214 1.905h-4.022V64.71ZM76.5 79.936c-.219-.612-.37-1.246-.37-1.905v-5.707a3.81 3.81 0 0 1 3.805-3.807 3.81 3.81 0 0 1 3.807 3.808v3.805h3.808c1.05 0 1.904.853 1.904 1.903v1.903H76.5Zm16.187-4.35.735-.735a2.136 2.136 0 0 1 3.643 1.51v1.442a2.136 2.136 0 0 1-2.134 2.133H93.26v-1.903c0-.879-.217-1.703-.573-2.447Zm8.148 2.573 2.22 1.777h-2.597a5.934 5.934 0 0 0 .377-1.777Zm5.746-.28-4.764-3.81 2.303-2.303a1.901 1.901 0 0 0 0-2.691 1.901 1.901 0 0 0-2.691 0l-2.732 2.73c-1.027-.852-2.329-1.385-3.766-1.385a5.98 5.98 0 0 0-4.2 1.74l-.735.735a5.642 5.642 0 0 0-2.446-.571h-.002c0-1.38-.39-2.692-1.075-3.849a17.032 17.032 0 0 0 9.819-3.694c2.657.192 5.142 1.281 7.04 3.178a11.169 11.169 0 0 1 3.249 7.844v2.076Zm-7.613-26.49c0 7.344-5.978 13.322-13.325 13.322H81.84c-7.345 0-13.323-5.978-13.323-13.325l.002-13.648a5.68 5.68 0 0 0 1.903.328c4.03 0 8.064-.954 11.667-2.754l8.633-4.317a19.552 19.552 0 0 0 8.247 6.484v13.91Zm-38.065-5.71a3.81 3.81 0 0 1 3.807-3.807v7.613a3.81 3.81 0 0 1-3.807-3.807ZM11.42 20.754c0-9.345 7.604-16.949 16.949-16.949h.36c9.346 0 16.95 7.604 16.95 16.949 0 3.465-1.044 6.8-3.015 9.647L29.97 48.738c-.647.932-2.196.932-2.843 0L14.434 30.402a16.858 16.858 0 0 1-3.015-9.647Zm12.577 30.15a5.544 5.544 0 0 0 4.552 2.385 5.544 5.544 0 0 0 4.553-2.384l3.618-5.229h1.346v11.42H19.032v-11.42h1.346l3.618 5.229Zm-8.77-5.228v15.226H41.87V45.677h7.613v34.258H7.613V45.677h7.613ZM3.806 91.355h7.079l-.952 3.806H3.806v-3.806Zm0 9.516v-1.903h9.1l2.855-11.42H3.806v-1.903c0-1.05.853-1.903 1.904-1.903h51.387v19.032H41.719c-.93-6.444-6.473-11.42-13.17-11.42-6.698 0-12.242 4.976-13.17 11.42h-9.67a1.904 1.904 0 0 1-1.903-1.903Zm24.742 13.323c-5.247 0-9.516-4.27-9.516-9.517s4.27-9.516 9.516-9.516c5.248 0 9.517 4.27 9.517 9.516 0 5.248-4.27 9.517-9.517 9.517Zm60.904 0c-5.248 0-9.516-4.27-9.516-9.517s4.268-9.516 9.516-9.516c5.247 0 9.516 4.27 9.516 9.516 0 5.248-4.27 9.517-9.516 9.517Zm13.17-11.42c-.929-6.444-6.473-11.42-13.17-11.42-6.698 0-12.242 4.976-13.17 11.42H60.902V62.806c0-2.85 2.105-5.197 4.838-5.622a17.072 17.072 0 0 0 1.934 3.82 3.809 3.809 0 0 0-2.965 3.706v19.032H110.387v-7.94a15 15 0 0 0-4.364-10.535 14.803 14.803 0 0 0-6.553-3.81 16.97 16.97 0 0 0 2.031-3.616c2.84.824 5.43 2.3 7.539 4.41a17.457 17.457 0 0 1 5.154 12.435v12.862h-11.955l2.855 11.42h9.1v3.806h-11.572Zm11.572-11.42v3.807h-6.127l-.952-3.806h7.079Z" fill-rule="evenodd" fill="url(&quot;#a&quot;)" data-name="Path 11084"/><defs><linearGradient x1="3.254" y1="2.105" x2="3.605" y2="-7.178" id="a"><stop stop-color="#385ab1" offset="0"/><stop stop-color="#1c2d59" offset="1"/></linearGradient></defs></svg>