<svg xmlns="http://www.w3.org/2000/svg" width="223.145" height="32.15" viewBox="0 0 223.145 32.15">
  <g id="visa-color_large" transform="translate(-0.285)">
    <rect id="card_bg" width="48" height="32" rx="4" transform="translate(0.285)" fill="#2a2a6c"/>
    <path id="visa-logo" d="M14.41,9.03l.43-2a5,5,0,0,0,2.44.6c.69-.01,1.43-.29,1.43-.91.01-.4-.34-.71-1.24-1.15s-2.09-1.18-2.09-2.51c0-1.8,1.64-3.06,4-3.06a6.435,6.435,0,0,1,2.24.41l-.419,2A4.482,4.482,0,0,0,18.84,2c-.68.09-1,.44-1,.77,0,1,3.361,1.18,3.35,3.67l.05-.08c-.01,1.92-1.66,3.16-4.17,3.16h-.057A7.155,7.155,0,0,1,14.41,9.03Zm13.02.41-.29-1.38H24.13l-.49,1.38H21.12L24.71.87a1.09,1.09,0,0,1,1-.68h2l1.94,9.25ZM10.3,9.41l2-9.25h2.4l-2,9.25ZM4.84,9.38,2.93,1.99a1,1,0,0,0-.571-.81A9.91,9.91,0,0,0,0,.4L.06.13H4.13a1.12,1.12,0,0,1,1.11.941l1,5.35L8.73.13h2.6L7.45,9.38Z" transform="translate(9.16 11.08)" fill="#fff"/>
  </g>
  <g id="mastercard-color_large" transform="translate(57.572)">
    <rect id="card_bg-2" data-name="card_bg" width="48" height="32" rx="4" transform="translate(0.428)" fill="#f2f0ec"/>
    <g id="mastercard" transform="translate(4.65 3.05)">
      <g id="Group" opacity="0">
        <rect id="Rectangle" width="38.71" height="25.6" fill="#fff"/>
      </g>
      <rect id="Rectangle-2" data-name="Rectangle" width="10.21" height="16.68" transform="translate(14.25 4.46)" fill="#f26122"/>
      <path id="Path" d="M13.169,10.61a10.58,10.58,0,0,1,4-8.34,10.61,10.61,0,1,0,0,16.68A10.58,10.58,0,0,1,13.169,10.61Z" transform="translate(2.181 2.19)" fill="#ea1d25"/>
      <path id="Shape" d="M.81.41V.1L.7.37H.62L.5.1V.41H.43V0h.1L.66.29.78,0h.1V.41ZM.14.41V.07H0V0H.35V.07H.2V.41Z" transform="translate(35.29 18.96)" fill="#f69e1e"/>
      <path id="Path-2" data-name="Path" d="M17.16,10.6A10.61,10.61,0,0,1,0,18.943,10.61,10.61,0,0,0,1.78,4.053,10.4,10.4,0,0,0,0,2.263,10.61,10.61,0,0,1,17.16,10.6Z" transform="translate(19.35 2.197)" fill="#f69e1e"/>
    </g>
  </g>
  <g id="americanexpress-color-large" transform="translate(116.572)">
    <rect id="Rectangle-3" data-name="Rectangle" width="48" height="32" rx="4" transform="translate(0.001 0.15)" fill="#fff"/>
    <g id="amex" transform="translate(0.001)">
      <path id="Path-3" data-name="Path" d="M8.88,17.9v8.16h8.26L18,24.84l.84,1.22h5.05V24.22h.56a4.93,4.93,0,0,0,1.5-.22v2.06h3.43V24.6l1.16,1.46H46.16a3.35,3.35,0,0,0,1.82-.5V29a4,4,0,0,1-3.89,3H4a4,4,0,0,1-4-4V15.4H2.28l.47-1.22H3.87l.46,1.22H22.67V13.94l1.16,1.46h4.81v-.74a4,4,0,0,0,2.42.74h2.87l.46-1.22h1.12L36,15.4h4.9V13.82l1,1.58h3.38V7.24H41.69V8.9L40.62,7.24H37.48v2.1l-1-2.1H31.14a3.88,3.88,0,0,0-2.5.82V7.24H11L10.4,9,9.8,7.2h-4V9.3L4.86,7.2H1.6L0,11V4A4,4,0,0,1,4,0H44.09A4,4,0,0,1,48,3V17.9H18.86L18,19.1l-.84-1.2Z" transform="translate(0 0)" fill="#296db6"/>
      <path id="Shape-2" data-name="Shape" d="M30.82,5.686H27.9v-1.2h2.92a.51.51,0,1,0,0-1H29.5a1.57,1.57,0,0,1-1.76-1.661A1.739,1.739,0,0,1,29.68.067H32.61l-.54,1.2H29.64a.51.51,0,1,0,0,1h1.31v-.04a1.55,1.55,0,0,1,1.76,1.62,1.75,1.75,0,0,1-1.747,1.845Q30.891,5.692,30.82,5.686Zm5.161-.02H33.11v-1.2H36a.51.51,0,1,0,0-1H34.71a1.571,1.571,0,0,1-1.76-1.66A1.739,1.739,0,0,1,34.89.047h2.93l-.54,1.22H34.85l-.03-.04a.51.51,0,1,0,0,1h1.36a1.619,1.619,0,0,1,1.64.94v1.34a1.77,1.77,0,0,1-1.664,1.169Q36.069,5.675,35.98,5.666Zm-26.8,0L7.82,3.847l-1.36,1.8H4.82l2.2-2.8L4.73.006h1.7L7.82,1.786,9.22.047h1.66l-2.26,2.8,2.28,2.82Zm13.45-.02V.067h4.55v1.2l-3.17-.04v1H27.1V3.446H24.01v1h3.17v1.2Zm-2.03,0-1.68-2H18.3v2H16.94V.067H20a1.792,1.792,0,0,1,.42,3.56l1.89,2.021Zm-9.46,0V.047H14.25V.006a1.81,1.81,0,0,1,1.96,1.88,1.86,1.86,0,0,1-2,1.9h-1.7v1.86ZM0,5.647V.006H4.53v1.2l-3.17.021v1H4.47V3.446H1.36v1H4.53v1.2Z" transform="translate(10.18 19.154)" fill="#296db6"/>
      <path id="Shape-3" data-name="Shape" d="M38.56,5.7V.055h1.67l2,3,.38.641V.015H44V5.655H42.35L40.26,2.475l-.36-.62V5.7Zm-1.8,0-.48-1.18H33.61l-.48,1.139H31.67L34.09.015h1.8L38.3,5.7ZM5.11,5.7,4.63,4.515H2L1.48,5.655H0L2.45.015H4.23L6.65,5.7Zm23.855-.822a2.5,2.5,0,0,1-.665-2V2.8A2.55,2.55,0,0,1,31,.015h1.58v1.22H31.1A1.4,1.4,0,0,0,29.64,2.8v.079A1.4,1.4,0,0,0,31.1,4.455h.45L31,5.655H30.92q-.069,0-.137,0A2.5,2.5,0,0,1,28.965,4.873Zm-2.855.781V.015h1.37V5.655Zm-2.02,0-1.68-2h-.62v2H20.4V.015h3.05a1.77,1.77,0,0,1,2,1.779,1.751,1.751,0,0,1-1.54,1.78l1.88,2.08Zm-9.09,0V.015h4.5v1.2l-3.171.02v1H19.42v1.22H16.33v1H19.5v1.2Zm-2.43,0V1.1l-.26.859L11,5.655H9.8l-1.28-3.7L8.24,1.1V5.655H6.91V.015H9.12l1.12,3.26.18.62.18-.62L11.7.015h2.19V5.655Z" transform="translate(0 8.485)" fill="#296db6"/>
    </g>
  </g>
  <g id="jcb-dark-large" transform="translate(175.43)">
    <rect id="card_bg-3" data-name="card_bg" width="48" height="32" rx="4" transform="translate(-0.285)" fill="#212b36"/>
    <g id="jcb-logo" transform="translate(8 4)">
      <rect id="Rectangle-4" data-name="Rectangle" width="9.85" height="13.54" transform="translate(0.03 6.41)" fill="#fff"/>
      <rect id="Rectangle-5" data-name="Rectangle" width="9.87" height="11.9" transform="translate(11.09 6.41)" fill="#fff"/>
      <rect id="Rectangle-6" data-name="Rectangle" width="9.85" height="13.02" transform="translate(22.14 6.13)" fill="#fff"/>
      <path id="Path-4" data-name="Path" d="M0,2.008H2.59a1,1,0,0,0,.81-1,1.07,1.07,0,0,0-.81-1,1.23,1.23,0,0,0-.28,0H0Z" transform="translate(24.1 12.562)" fill="#40a648"/>
      <path id="Path-5" data-name="Path" d="M4.02,0a4,4,0,0,0-4,4V8.15H5.67a1.71,1.71,0,0,1,.4,0c1.27.06,2.22.72,2.22,1.86a1.88,1.88,0,0,1-1.83,1.83h0c1.3.09,2.29.81,2.29,1.94s-1.1,2-2.55,2H0V24H5.88a4,4,0,0,0,4-4V0Z" transform="translate(22.12)" fill="#40a648"/>
      <path id="Path-6" data-name="Path" d="M3.12,1a.94.94,0,0,0-.81-1H0V1.93H2.09a.72.72,0,0,0,.22,0A.93.93,0,0,0,3.12.99Z" transform="translate(24.1 9.31)" fill="#40a648"/>
      <path id="Path-7" data-name="Path" d="M4,0A4,4,0,0,0,0,4v9.87a7.91,7.91,0,0,0,3.45.9,1.92,1.92,0,0,0,2.14-2V8.13H9v4.64c0,1.8-1.12,3.27-4.92,3.27A17,17,0,0,1,0,15.54V24H5.87a4,4,0,0,0,4-4V0Z" fill="#0d67b0"/>
      <path id="Path-8" data-name="Path" d="M4,0A4,4,0,0,0,0,4V9.23c1-.86,2.77-1.41,5.6-1.27a17.27,17.27,0,0,1,3.14.48v1.69a7.59,7.59,0,0,0-3-.88c-2.15-.15-3.45.9-3.45,2.75s1.3,2.92,3.45,2.75a8.1,8.1,0,0,0,3-.88v1.69a16.9,16.9,0,0,1-3.14.48c-2.83.14-4.59-.41-5.6-1.27V24H5.91a4,4,0,0,0,4-4V0Z" transform="translate(11.09)" fill="#be2034"/>
    </g>
  </g>
</svg>
