<?xml version="1.0" encoding="UTF-8"?>
<svg id="Capa_1" data-name="Capa 1" xmlns="http://www.w3.org/2000/svg" viewBox="0 0 46 46">
  <rect x="16.08" y="5.16" width="13.55" height="35.76" style="fill: #a9abae;"/>
  <path d="M39.26,6.74C30.28-2.24,15.72-2.25,6.74,6.74-2.25,15.72-2.24,30.28,6.74,39.26c8.98,8.98,23.55,8.98,32.53,0,8.98-8.98,8.98-23.55,0-32.53Zm-13.26,26.26c0,1.66-1.34,3-3,3s-3-1.34-3-3v-12c0-1.66,1.34-3,3-3s3,1.34,3,3v12Zm-3.05-17.13c-1.73,0-2.88-1.22-2.84-2.73-.04-1.58,1.12-2.77,2.88-2.77s2.88,1.19,2.92,2.77c0,1.51-1.15,2.73-2.95,2.73Z" style="fill: #dedfe0;"/>
</svg>