<svg xmlns="http://www.w3.org/2000/svg" width="116.757" height="120.925" viewBox="405.243 1368.537 116.757 120.925"><g data-name="diploma"><path d="M111.416 103.076V13.425C111.41 7.67 106.746 3.007 100.992 3H17.595C11.84 3.007 7.177 7.67 7.17 13.425v10.424h16.68v6.36a22.916 22.916 0 0 0-12.51 40.506v28.012l12.51-12.51v27.284c.006 5.754 4.67 10.418 10.424 10.424h75.057c5.755-.006 10.418-4.67 10.425-10.424v-10.425h-8.34ZM11.34 19.68v-6.254a6.255 6.255 0 0 1 12.51 0v6.254H11.34ZM7.17 53.04c0-10.364 8.401-18.765 18.765-18.765 10.363 0 18.764 8.4 18.764 18.764 0 10.363-8.401 18.764-18.764 18.764-10.359-.011-18.753-8.405-18.765-18.764Zm8.34 20.402a22.728 22.728 0 0 0 20.85 0v15.22L25.934 78.235 15.51 88.66V73.44Zm25.02 40.06a6.255 6.255 0 1 1-12.51 0V86.218l12.51 12.51V70.714A22.916 22.916 0 0 0 28.02 30.21V13.425a10.369 10.369 0 0 0-2.09-6.255h75.062a6.262 6.262 0 0 1 6.255 6.255v89.651H40.529v10.425Zm75.056 0a6.262 6.262 0 0 1-6.255 6.255H42.61a10.369 10.369 0 0 0 2.089-6.255v-6.255h70.887v6.255Z" fill-rule="evenodd" fill="url(&quot;#a&quot;)" transform="translate(402.244 1365.537)" data-name="Path 14"/><path d="M20 9h29.189v4.17H20V9Z" fill-rule="evenodd" fill="url(&quot;#b&quot;)" transform="translate(420.688 1372.047)" data-name="Path 15"/><path d="M29 18h14.594v4.17H29V18Z" fill-rule="evenodd" fill="url(&quot;#c&quot;)" transform="translate(430.452 1381.811)" data-name="Path 16"/><path d="M29 24h29.189v4.17H29V24Z" fill-rule="evenodd" fill="url(&quot;#d&quot;)" transform="translate(430.452 1388.32)" data-name="Path 17"/><path d="M29 30h29.189v4.17H29V30Z" fill-rule="evenodd" fill="url(&quot;#e&quot;)" transform="translate(430.452 1394.83)" data-name="Path 18"/><path d="M29 36h29.189v4.17H29V36Z" fill-rule="evenodd" fill="url(&quot;#f&quot;)" transform="translate(430.452 1401.34)" data-name="Path 19"/><path d="M35 45h29.189v4.17H35V45Z" fill-rule="evenodd" fill="url(&quot;#g&quot;)" transform="translate(436.962 1411.104)" data-name="Path 20"/><path d="M50.34 8a8.34 8.34 0 1 0 8.34 8.34A8.348 8.348 0 0 0 50.34 8Zm0 12.51a4.17 4.17 0 1 1 0-8.34 4.17 4.17 0 0 1 0 8.34Z" fill-rule="evenodd" fill="url(&quot;#h&quot;)" transform="translate(444.556 1370.962)" data-name="Path 21"/><path d="M20.51 46.02c6.908 0 12.51-5.602 12.51-12.51C33.02 26.6 27.417 21 20.51 21 13.6 21 8 26.6 8 33.51c.008 6.905 5.604 12.501 12.51 12.51Zm0-20.85a8.34 8.34 0 1 1-8.34 8.34 8.348 8.348 0 0 1 8.34-8.34Z" fill-rule="evenodd" fill="url(&quot;#i&quot;)" transform="translate(407.669 1385.066)" data-name="Path 22"/></g><defs><linearGradient x1=".5" y1="0" x2=".5" y2="1" id="a"><stop stop-color="#3a59a7" offset="0"/><stop stop-color="#2966fb" offset="1"/></linearGradient><linearGradient x1=".5" y1="0" x2=".5" y2="1" id="b"><stop stop-color="#3a59a7" offset="0"/><stop stop-color="#2966fb" offset="1"/></linearGradient><linearGradient x1=".5" y1="0" x2=".5" y2="1" id="c"><stop stop-color="#3a59a7" offset="0"/><stop stop-color="#2966fb" offset="1"/></linearGradient><linearGradient x1=".5" y1="0" x2=".5" y2="1" id="d"><stop stop-color="#3a59a7" offset="0"/><stop stop-color="#2966fb" offset="1"/></linearGradient><linearGradient x1=".5" y1="0" x2=".5" y2="1" id="e"><stop stop-color="#3a59a7" offset="0"/><stop stop-color="#2966fb" offset="1"/></linearGradient><linearGradient x1=".5" y1="0" x2=".5" y2="1" id="f"><stop stop-color="#3a59a7" offset="0"/><stop stop-color="#2966fb" offset="1"/></linearGradient><linearGradient x1=".5" y1="0" x2=".5" y2="1" id="g"><stop stop-color="#3a59a7" offset="0"/><stop stop-color="#2966fb" offset="1"/></linearGradient><linearGradient x1=".5" y1="0" x2=".5" y2="1" id="h"><stop stop-color="#3a59a7" offset="0"/><stop stop-color="#2966fb" offset="1"/></linearGradient><linearGradient x1=".5" y1="0" x2=".5" y2="1" id="i"><stop stop-color="#3a59a7" offset="0"/><stop stop-color="#2966fb" offset="1"/></linearGradient></defs></svg>