<svg xmlns="http://www.w3.org/2000/svg" width="69.076" height="92.102" viewBox="6661.001 264.459 69.076 92.102"><path d="M6678.51 355.655c-23.362-23.363-23.327-61.207 0-84.534a3.093 3.093 0 0 1 3.825-.436l11.66 7.288a3.092 3.092 0 0 1 1.232 3.77l-5.83 14.574a3.092 3.092 0 0 1-3.178 1.928l-10.04-1.003c-3.786 10.48-3.707 22.03 0 32.292l10.04-1.004a3.092 3.092 0 0 1 3.178 1.928l5.83 14.575a3.092 3.092 0 0 1-1.232 3.77l-11.66 7.288a3.092 3.092 0 0 1-3.825-.436Zm26.946-74.022a11.522 11.522 0 0 1 0 11.703 2.168 2.168 0 0 1-3.367.464l-1.075-1.03a2.175 2.175 0 0 1-.407-2.592 5.768 5.768 0 0 0 0-5.387 2.175 2.175 0 0 1 .407-2.592l1.075-1.03a2.168 2.168 0 0 1 3.367.464Zm16.511-16.403c10.818 12.88 10.81 31.639 0 44.509a2.167 2.167 0 0 1-3.157.168l-1.043-1a2.163 2.163 0 0 1-.167-2.946c8.937-10.71 8.93-26.252 0-36.953a2.163 2.163 0 0 1 .167-2.946l1.043-1a2.167 2.167 0 0 1 3.157.168Zm-8.27 8.084a23.06 23.06 0 0 1 0 28.34 2.169 2.169 0 0 1-3.212.235l-1.046-1.004a2.157 2.157 0 0 1-.231-2.865 17.292 17.292 0 0 0 0-21.071 2.157 2.157 0 0 1 .23-2.866l1.047-1.003a2.169 2.169 0 0 1 3.212.234Z" fill="#3d5aa9" fill-rule="evenodd" data-name="Icon awesome-phone-volume"/></svg>