<svg id="Group_271" data-name="Group 271" xmlns="http://www.w3.org/2000/svg" width="871.632" height="169.849" viewBox="0 0 871.632 169.849">
  <path id="Path_105" data-name="Path 105" d="M-86.486-79.847h-4.342v-2.281h11.206v2.281h-4.342v11.886h-2.521Zm10.245-2.281H-72.4l3.782,9.925,3.822-9.925h3.8v14.167h-2.4V-79.727h-.04l-4.3,11.766H-69.5l-4.3-11.766h-.04v11.766h-2.4Z" transform="translate(932.525 113.757)" fill="#fff" stroke="#fff" stroke-width="0.2"/>
  <path id="Path_103" data-name="Path 103" d="M7.651,0l12.72,22.092,5.453,9.468H0L68.644,138.945l10.11-18.433L35.91,53.527h77.905l12.651-21.968h-89l-5.454-9.468H144.844L75.7,149.646l13.334,20.2L177.878,0Z" transform="translate(0 0)" fill="#fff"/>
  <path id="Path_104" data-name="Path 104" d="M-248.936-82.128h28.189L-193-9.306l28.042-72.822h27.9V21.82h-17.618V-64.51h-.294l-31.566,86.33h-12.92l-31.566-86.33h-.294V21.82h-17.618ZM-18.43-16.353A42.761,42.761,0,0,1-21.66.6a38.017,38.017,0,0,1-8.809,12.847A38.749,38.749,0,0,1-43.683,21.6a46.881,46.881,0,0,1-16.591,2.863A46.881,46.881,0,0,1-76.864,21.6a39.549,39.549,0,0,1-13.287-8.148A36.675,36.675,0,0,1-98.96.6a43.633,43.633,0,0,1-3.157-16.958V-82.128h18.5V-16.94a29.6,29.6,0,0,0,1.175,8,22.477,22.477,0,0,0,3.891,7.708,20.793,20.793,0,0,0,7.194,5.8A24.305,24.305,0,0,0-60.274,6.844,24.305,24.305,0,0,0-49.189,4.569a20.792,20.792,0,0,0,7.194-5.8A22.476,22.476,0,0,0-38.1-8.939a29.6,29.6,0,0,0,1.175-8V-82.128h18.5Zm34.5-65.775h67.1v16.737h-48.6v27.308H80.379v16.737H34.572V21.82h-18.5ZM133.381-65.391h-31.86V-82.128H183.74v16.737H151.88V21.82h-18.5Zm94.845-16.737h16L289.009,21.82H267.867l-9.69-23.785H213.1l-9.4,23.785h-20.7Zm23.491,64.307-16-42.284-16.3,42.284Zm60.636-64.307h36.118a73.579,73.579,0,0,1,14.462,1.395,37.03,37.03,0,0,1,12.406,4.772,24.959,24.959,0,0,1,8.662,9.1q3.23,5.726,3.23,14.535,0,11.305-6.24,18.94t-17.839,9.25l27.6,45.954H368.438L344.36-22.226H330.852V21.82h-18.5Zm32.887,44.046q3.964,0,7.928-.367a24.347,24.347,0,0,0,7.268-1.762,12.4,12.4,0,0,0,5.359-4.258q2.055-2.863,2.055-8a12.767,12.767,0,0,0-1.909-7.341A11.862,11.862,0,0,0,360.95-64a22.979,22.979,0,0,0-6.827-1.835,62.2,62.2,0,0,0-7.268-.44h-16v28.189Z" transform="translate(450.943 113.757)" fill="#fff"/>
</svg>
