<svg xmlns="http://www.w3.org/2000/svg" width="48.193" height="46" viewBox="0 0 48.193 46">
    <g id="paypal" transform="translate(0)"  style="mix-blend-mode: luminosity;isolation: isolate">
        <path id="Path_14796" data-name="Path 14796"
            d="M180.185,75.711a3.89,3.89,0,0,0-3.98-.85,1.1,1.1,0,0,0-.736.876l-.307,2.107a6.5,6.5,0,0,1-6.405,5.559h-4.381a1.1,1.1,0,0,0-1.062.83l-3.286,13.143a1.1,1.1,0,0,0,1.062,1.36h5.476a1.1,1.1,0,0,0,1.062-.83l1.982-7.932h4.271a7.1,7.1,0,0,0,6.922-5.408l.808-3.24A5.76,5.76,0,0,0,180.185,75.711Z"
            transform="translate(-143.567 -68.07)" fill="#03a9f4" />
        <g id="Group_1800" data-name="Group 1800" transform="translate(0 32.857)">
            <path id="Path_14797" data-name="Path 14797"
                d="M1.095,341.629a1.1,1.1,0,0,1-1.062-1.36l1.1-4.359v-.046l1.1-4.357a1.1,1.1,0,0,1,1.062-.83H6.072a2.738,2.738,0,0,1,2.657,3.4l-.274,1.1A2.738,2.738,0,0,1,5.8,337.249H3.047L2.16,340.8A1.1,1.1,0,0,1,1.095,341.629Zm2.5-6.571H5.8a.548.548,0,0,0,.53-.416l.274-1.1a.545.545,0,0,0-.392-.664.54.54,0,0,0-.138-.017H4.142Z"
                transform="translate(0 -330.677)" fill="#283593" />
            <path id="Path_14798" data-name="Path 14798"
                d="M84.565,379.894h-1.56a3.036,3.036,0,0,1-2.946-3.772h0l.145-.583a2.922,2.922,0,0,1,2.848-2.219h1.56a3.036,3.036,0,0,1,2.94,3.774l-.145.583A2.922,2.922,0,0,1,84.565,379.894Zm-2.379-3.24a.846.846,0,0,0,.819,1.049h1.56a.734.734,0,0,0,.714-.556l.145-.583a.846.846,0,0,0-.819-1.049h-1.56a.734.734,0,0,0-.714.556Z"
                transform="translate(-71.758 -368.941)" fill="#283593" />
            <path id="Path_14799" data-name="Path 14799"
                d="M129.095,379.9a1.1,1.1,0,0,1-1.062-1.36l1.1-4.381a1.1,1.1,0,1,1,2.127.53l-1.1,4.381A1.1,1.1,0,0,1,129.095,379.9Z"
                transform="translate(-114.857 -368.952)" fill="#283593" />
        </g>
        <g id="Group_1801" data-name="Group 1801" transform="translate(26.286 32.857)">
            <path id="Path_14800" data-name="Path 14800"
                d="M257.095,341.628a1.1,1.1,0,0,1-1.062-1.36l1.1-4.359v-.046l1.1-4.357a1.1,1.1,0,0,1,1.062-.83h2.786a2.738,2.738,0,0,1,2.657,3.4l-.274,1.1a2.738,2.738,0,0,1-2.657,2.074h-2.751l-.887,3.551A1.1,1.1,0,0,1,257.095,341.628Zm2.5-6.571H261.8a.548.548,0,0,0,.53-.416l.274-1.1a.545.545,0,0,0-.53-.681h-1.932Z"
                transform="translate(-256 -330.676)" fill="#03a9f4" />
            <path id="Path_14801" data-name="Path 14801"
                d="M340.565,379.894h-1.56a3.036,3.036,0,0,1-2.946-3.772h0l.145-.583a2.922,2.922,0,0,1,2.848-2.219h1.56a3.036,3.036,0,0,1,2.946,3.772l-.145.583A2.922,2.922,0,0,1,340.565,379.894Zm-2.379-3.24a.846.846,0,0,0,.819,1.049h1.56a.734.734,0,0,0,.714-.556l.145-.583a.846.846,0,0,0-.819-1.049h-1.56a.734.734,0,0,0-.714.556Z"
                transform="translate(-327.758 -368.941)" fill="#03a9f4" />
            <path id="Path_14802" data-name="Path 14802"
                d="M385.095,379.9a1.1,1.1,0,0,1-1.062-1.36l1.1-4.381a1.1,1.1,0,1,1,2.127.53h0l-1.1,4.381A1.1,1.1,0,0,1,385.095,379.9Z"
                transform="translate(-370.857 -368.952)" fill="#03a9f4" />
        </g>
        <g id="Group_1802" data-name="Group 1802" transform="translate(17.523 37.237)">
            <path id="Path_14803" data-name="Path 14803"
                d="M173.947,378.807a1.1,1.1,0,0,1-.911-.488l-2.19-3.286a1.1,1.1,0,0,1,1.823-1.216l2.19,3.286a1.1,1.1,0,0,1-.911,1.7Z"
                transform="translate(-170.661 -373.329)" fill="#283593" />
            <path id="Path_14804" data-name="Path 14804"
                d="M171.762,382.11a1.1,1.1,0,0,1-.841-1.8l5.476-6.571a1.1,1.1,0,1,1,1.682,1.4h0l-5.476,6.571A1.1,1.1,0,0,1,171.762,382.11Z"
                transform="translate(-170.666 -373.347)" fill="#283593" />
        </g>
        <path id="Path_14805" data-name="Path 14805"
            d="M427.761,341.619a1.1,1.1,0,0,1-1.062-1.36l2.19-8.762a1.1,1.1,0,1,1,2.127.53h0l-2.19,8.762A1.1,1.1,0,0,1,427.761,341.619Z"
            transform="translate(-382.856 -297.809)" fill="#03a9f4" />
        <path id="Path_14806" data-name="Path 14806"
            d="M128.711,12.571a5.535,5.535,0,0,0-4.175-1.895h-12.4a1.1,1.1,0,0,0-1.078.9l-4.381,24.1a1.1,1.1,0,0,0,1.078,1.29h6.571a1.1,1.1,0,0,0,1.062-.83l1.985-7.932H120.9a8.7,8.7,0,0,0,8.576-7.448l.548-3.744h0A5.579,5.579,0,0,0,128.711,12.571Z"
            transform="translate(-95.71 -10.676)" fill="#283593" />
    </g>
</svg>