<svg xmlns="http://www.w3.org/2000/svg" width="125" height="130.613" viewBox="0 0 125 130.613">
  <g id="man" transform="translate(-11.001 0)">
    <path id="Path_15" data-name="Path 15" d="M121.264,124.808a62.5,62.5,0,1,0-95.4.15Z" transform="translate(0 -16.389)" fill="#ff4155"/>
    <path id="Path_16" data-name="Path 16" d="M205.953,379.922C197.817,393.69,184.7,393.81,184.7,393.81s-13.106-.121-21.242-13.872c-.186.226-.379.446-.583.651q-1.637.378-3.231.827a3.083,3.083,0,0,1,1.434,1.269c5,8.544,13.725,18.75,23.65,18.75s18.648-10.206,23.65-18.75a3.087,3.087,0,0,1,1.422-1.264q-1.606-.449-3.25-.832c-.21-.209-.406-.435-.6-.667Z" transform="translate(-110.723 -283.002)" fill="#fcad6d"/>
    <path id="Path_17" data-name="Path 17" d="M177.3,392.148a28.093,28.093,0,0,1-13.845-12.162c-.186.226-.379.446-.583.651q-1.637.378-3.231.827a3.083,3.083,0,0,1,1.434,1.269c2.9,4.951,7.047,10.46,11.954,14.217a5.753,5.753,0,0,0,.644-.284A9.007,9.007,0,0,0,177.3,392.148Z" transform="translate(-110.722 -283.05)" fill="#fd995b"/>
    <path id="Path_18" data-name="Path 18" d="M180.056,26.113c0-6.972-4.017-9.861-6.674-11.01a5.454,5.454,0,0,1-2.917-2.952c-1.163-2.881-4.45-7.873-13.642-10.923C143.31-3.257,131.3,5.858,124.84,7.594c-4.246,1.142-7.583-1.377-9.37-3.235a1.554,1.554,0,0,0-2.527.44c-1.4,3.215-3.429,9.537-1.569,16.112a.531.531,0,0,1-.7.622c-.54-.185-1.025-.357-1.414-.5a.5.5,0,0,0-.67.608c1.572,4.86,3.1,7.633,4.465,9.128a4.244,4.244,0,0,1,1.115,2.35,26.662,26.662,0,0,0,1.107,5.212,29.64,29.64,0,0,1,1.5,7.686c0,.031,0,.048,0,.052h60.44c0-.012.006-.056.01-.126A28.669,28.669,0,0,1,178.7,38.4c1.836-5.43,1.356-12.289,1.356-12.289Z" transform="translate(-72.674)" fill="#41416b"/>
    <path id="Path_19" data-name="Path 19" d="M133.212,33.166s5.615-6.726,1.7-14.316,5.547-13.583,5.547-13.583c-6.5,1.9-11.958,5.265-15.622,6.251-4.246,1.142-7.583-1.377-9.37-3.235a1.554,1.554,0,0,0-2.527.44c-1.4,3.215-3.429,9.537-1.569,16.112a.531.531,0,0,1-.7.622c-.54-.185-1.025-.357-1.414-.5a.5.5,0,0,0-.67.608c1.572,4.86,3.1,7.633,4.465,9.128a4.244,4.244,0,0,1,1.115,2.35,26.665,26.665,0,0,0,1.107,5.212,29.64,29.64,0,0,1,1.5,7.686c0,.031,0,.048,0,.052h12.746Z" transform="translate(-72.674 -3.922)" fill="#35355e"/>
    <path id="Path_20" data-name="Path 20" d="M365.921,177.484c-1.355-1.242-4.055-.613-5.223.148a16.41,16.41,0,0,1,.049,4.831L359.37,192.5c0,.809-.026,1.6-.072,2.382,3.359,1.013,5.028-2,5.309-4.072a15.415,15.415,0,0,1,.593-2.626C366.094,185.389,369.317,180.6,365.921,177.484Z" transform="translate(-259.445 -131.683)" fill="#fcad6d"/>
    <g id="Group_8" data-name="Group 8" transform="translate(99.853 53.747)">
      <path id="Path_21" data-name="Path 21" d="M363.37,212.234a3.74,3.74,0,0,1-3.03-1.547l-.97,7.066c0,.809-.026,1.6-.072,2.382,3.359,1.013,5.028-2,5.309-4.072a15.389,15.389,0,0,1,.593-2.626c.231-.722.618-1.579,1.007-2.505A3.738,3.738,0,0,1,363.37,212.234Z" transform="translate(-359.298 -210.687)" fill="#fd995b"/>
    </g>
    <path id="Path_22" data-name="Path 22" d="M150.05,180.872h0Z" transform="translate(-103.577 -134.731)" fill="#41416b"/>
    <path id="Path_23" data-name="Path 23" d="M126.033,177.484c1.355-1.242,4.055-.613,5.223.148a16.391,16.391,0,0,0-.049,4.831l1.378,10.033c0,.809.026,1.6.072,2.382-3.359,1.013-5.028-2-5.309-4.072a15.413,15.413,0,0,0-.593-2.626C125.86,185.389,122.637,180.6,126.033,177.484Z" transform="translate(-84.554 -131.683)" fill="#fcad6d"/>
    <path id="Path_24" data-name="Path 24" d="M202.32,109.809a7.211,7.211,0,0,1-1.089-4.4c.068-.935.113-2.058.088-3.273-.01-.16-.015-.333-.015-.522-.013-.354-.032-.714-.059-1.078a11.487,11.487,0,0,0-3.466-6.969,2.959,2.959,0,0,0-3.507-.469c-17.2,9.486-31.461,5.982-39.137,2.527a1.632,1.632,0,0,0-2.247,1.114,29.024,29.024,0,0,0-.561,8.708,7.141,7.141,0,0,1-1.092,4.363,13.324,13.324,0,0,0-1.164,2.325,16.041,16.041,0,0,0-.908,8l1.378,10.035c0,.018,0,.035,0,.054,1.417,4.132,4.283,10.055,9.4,11.736l.065.019a9.707,9.707,0,0,1,6.476,6.417c1.427,4.379,5.477,5.544,10.291,5.544s8.864-1.165,10.291-5.542a9.71,9.71,0,0,1,6.476-6.419l.065-.019c5.122-1.681,7.989-7.606,9.406-11.737,0-.018,0-.035,0-.052l1.378-10.033a16.051,16.051,0,0,0-.879-7.93A13.325,13.325,0,0,0,202.32,109.809Z" transform="translate(-102.8 -69.07)" fill="#f9ba8f"/>
    <g id="Group_9" data-name="Group 9" transform="translate(41.193 53.747)">
      <path id="Path_25" data-name="Path 25" d="M132.191,212.234a3.74,3.74,0,0,0,3.03-1.547l.97,7.066c0,.809.026,1.6.072,2.382-3.359,1.013-5.028-2-5.309-4.072a15.388,15.388,0,0,0-.593-2.626c-.231-.722-.618-1.579-1.007-2.505A3.739,3.739,0,0,0,132.191,212.234Z" transform="translate(-129.354 -210.687)" fill="#fd995b"/>
    </g>
    <path id="Path_26" data-name="Path 26" d="M160.644,128.2a19.026,19.026,0,0,1,1.643-10.329,8.633,8.633,0,0,0,.866-4.363,39.489,39.489,0,0,1,.191-7.133,40.993,40.993,0,0,1-8.19-2.683,1.636,1.636,0,0,0-2.261,1.108,29.029,29.029,0,0,0-.562,8.709,7.141,7.141,0,0,1-1.092,4.363,15.608,15.608,0,0,0-2.072,10.329l1.378,10.035c0,.018,0,.036,0,.054,1.417,4.132,4.283,10.054,9.4,11.736l.065.019a9.3,9.3,0,0,1,3.851,2.224,45.653,45.653,0,0,1-2.129-14.032Z" transform="translate(-102.805 -77.129)" fill="#fcad6d"/>
    <path id="Path_27" data-name="Path 27" d="M282.045,195.076a3.684,3.684,0,0,1,.246-1.33,7.717,7.717,0,0,0-1.462.93,26.692,26.692,0,0,1-3.039,1.973.167.167,0,0,0,.083.311h.077a6.845,6.845,0,0,1,2.142.341,13.489,13.489,0,0,0,3.4.656A3.478,3.478,0,0,1,282.045,195.076Z" transform="translate(-198.667 -144.321)" fill="#fff5ee"/>
    <path id="Path_28" data-name="Path 28" d="M319.032,194.525a10.568,10.568,0,0,0-4.08-2.51,3.644,3.644,0,0,1,.452,1.771,3.529,3.529,0,0,1-1.132,2.629,11.386,11.386,0,0,0,2.359-.744,9.29,9.29,0,0,1,2.279-.74A.237.237,0,0,0,319.032,194.525Z" transform="translate(-225.905 -143.031)" fill="#fff5ee"/>
    <path id="Path_29" data-name="Path 29" d="M294.131,191.583a3.251,3.251,0,0,0,1.342,4.111,13.465,13.465,0,0,0,3.657-.262,3.25,3.25,0,0,0,.671-4.37A7.269,7.269,0,0,0,294.131,191.583Z" transform="translate(-210.7 -142.06)" fill="#41416b"/>
    <path id="Path_30" data-name="Path 30" d="M304.079,196.394a1.246,1.246,0,1,1-1.246-1.246A1.246,1.246,0,0,1,304.079,196.394Z" transform="translate(-216.456 -145.365)" fill="#35355e"/>
    <path id="Path_31" data-name="Path 31" d="M293.222,169.405c-.186-1.224-.928-4.07-3.823-4.728-2.923-.664-9.087.588-11.582,1.152a1.84,1.84,0,0,0-1.37,1.314l-.514,1.9a.215.215,0,0,0,.265.263c1.892-.531,10.6-2.887,13.257-2.035a7.131,7.131,0,0,1,3.522,2.244A.138.138,0,0,0,293.222,169.405Z" transform="translate(-197.341 -122.527)" fill="#41416b"/>
    <path id="Path_32" data-name="Path 32" d="M219.383,195.076a3.684,3.684,0,0,0-.246-1.33,7.729,7.729,0,0,1,1.463.93,26.712,26.712,0,0,0,3.039,1.973.167.167,0,0,1-.083.311h-.077a6.845,6.845,0,0,0-2.142.341,13.489,13.489,0,0,1-3.4.656A3.478,3.478,0,0,0,219.383,195.076Z" transform="translate(-154.141 -144.321)" fill="#fff5ee"/>
    <path id="Path_33" data-name="Path 33" d="M185.186,194.525a10.568,10.568,0,0,1,4.08-2.51,3.645,3.645,0,0,0-.452,1.771,3.529,3.529,0,0,0,1.132,2.629,11.387,11.387,0,0,1-2.359-.744,9.293,9.293,0,0,0-2.279-.74A.237.237,0,0,1,185.186,194.525Z" transform="translate(-129.694 -143.031)" fill="#fff5ee"/>
    <path id="Path_34" data-name="Path 34" d="M205.219,191.583a3.251,3.251,0,0,1-1.342,4.111,13.465,13.465,0,0,1-3.657-.262,3.25,3.25,0,0,1-.671-4.37A7.269,7.269,0,0,1,205.219,191.583Z" transform="translate(-140.032 -142.06)" fill="#41416b"/>
    <path id="Path_35" data-name="Path 35" d="M206.98,196.394a1.246,1.246,0,1,0,1.246-1.246A1.246,1.246,0,0,0,206.98,196.394Z" transform="translate(-145.984 -145.365)" fill="#35355e"/>
    <path id="Path_36" data-name="Path 36" d="M174.6,169.405c.186-1.224.928-4.07,3.823-4.728,2.923-.664,9.087.588,11.582,1.152a1.84,1.84,0,0,1,1.37,1.314l.514,1.9a.215.215,0,0,1-.265.263c-1.892-.531-10.6-2.887-13.257-2.035a7.13,7.13,0,0,0-3.522,2.244A.138.138,0,0,1,174.6,169.405Z" transform="translate(-121.866 -122.527)" fill="#41416b"/>
    <path id="Path_37" data-name="Path 37" d="M244.319,289.345l-2.783,1.1a1.5,1.5,0,0,1-.981.041l-3.207-.967-3.207.967a1.5,1.5,0,0,1-.981-.041l-2.783-1.1a1.5,1.5,0,0,1,1.1-2.784l2.3.907,3.127-.943a1.486,1.486,0,0,1,.892,0l3.127.943,2.3-.907a1.5,1.5,0,0,1,1.1,2.784Z" transform="translate(-162.708 -213.38)" fill="#fcad6d"/>
    <g id="Group_10" data-name="Group 10" transform="translate(78.584 42.377)">
      <path id="Path_38" data-name="Path 38" d="M282.678,166.118c-1.939.293-3.758.677-4.86.926a1.84,1.84,0,0,0-1.37,1.314l-.514,1.9a.215.215,0,0,0,.265.263c1.049-.294,4.194-1.149,7.241-1.708A1.567,1.567,0,0,1,282.678,166.118Z" transform="translate(-275.926 -166.118)" fill="#35355e"/>
    </g>
    <g id="Group_11" data-name="Group 11" transform="translate(52.736 41.962)">
      <path id="Path_39" data-name="Path 39" d="M183.378,164.671a16.5,16.5,0,0,0-4.95.008c-2.895.658-3.637,3.5-3.823,4.728a.138.138,0,0,0,.244.106,7.13,7.13,0,0,1,3.522-2.244,12.963,12.963,0,0,1,4.953.145A1.567,1.567,0,0,1,183.378,164.671Z" transform="translate(-174.603 -164.49)" fill="#35355e"/>
    </g>
    <path id="Path_40" data-name="Path 40" d="M204.2,223.253s-2.409,12.995-10.338,15.6l-.063.018a9.5,9.5,0,0,0-6.337,6.281c-1.4,4.283-5.357,5.423-10.07,5.423s-8.674-1.139-10.07-5.425a9.5,9.5,0,0,0-6.337-6.28l-.063-.018c-7.929-2.6-10.336-15.6-10.336-15.6-6.095,54.34,26.807,54.64,26.807,54.64S210.294,277.593,204.2,223.253Z" transform="translate(-103.415 -166.3)" fill="#41416b"/>
    <path id="Path_41" data-name="Path 41" d="M254.257,311.872h-1.921a1.5,1.5,0,0,0,0,2.992h1.921a1.5,1.5,0,0,0,0-2.992Z" transform="translate(-178.655 -232.312)" fill="#fcad6d"/>
    <path id="Path_42" data-name="Path 42" d="M190.15,263.491l.063.018A9.24,9.24,0,0,1,195.2,267.1l1.4-.929a4.651,4.651,0,0,1,2.714-.793,19.849,19.849,0,0,0,7.444-1.316,1.452,1.452,0,0,1,1.048,0,19.849,19.849,0,0,0,7.444,1.316,4.651,4.651,0,0,1,2.714.793l.519.345a9.179,9.179,0,0,1,4.541-3.008l.063-.018a9.476,9.476,0,0,0,2.095-.992c-2.278-3.9-7.5-9.371-17.9-5.6-10.913-3.958-16.122,2.259-18.214,6.157a9.255,9.255,0,0,0,1.08.432Z" transform="translate(-132.643 -190.42)" fill="#41416b"/>
    <path id="Path_43" data-name="Path 43" d="M235.441,247.355l1.141-.24a5.579,5.579,0,0,0,7.758,0l1.141.24a1.519,1.519,0,0,0,.626-2.974l-2.047-.431a1.449,1.449,0,0,0-1.631.73,2.5,2.5,0,0,1-3.935,0,1.45,1.45,0,0,0-1.631-.73l-2.047.431a1.519,1.519,0,0,0,.626,2.974Z" transform="translate(-165.819 -181.69)" fill="#fcad6d"/>
    <path id="Path_44" data-name="Path 44" d="M116.277,417.214a62.365,62.365,0,0,0,47.979-22.449c-1.551-.364-2.744-1.163-4.873-2.364a86.862,86.862,0,0,0-16.235-7.509,3,3,0,0,0-3.485,1.342c-4.844,8.272-13.289,18.154-22.9,18.154s-18.054-9.881-22.9-18.154a3,3,0,0,0-3.485-1.342A86.835,86.835,0,0,0,74.147,392.4c-2.5,1.409-3.708,2.266-5.721,2.515a62.361,62.361,0,0,0,47.851,22.3Z" transform="translate(-42.776 -286.601)" fill="#fff5ee"/>
    <path id="Path_45" data-name="Path 45" d="M93.866,386.235a3,3,0,0,0-3.485-1.342A86.851,86.851,0,0,0,74.147,392.4c-2.5,1.409-3.708,2.266-5.721,2.515A62.788,62.788,0,0,0,86.565,409.71c5.739-6.54,16.759-8.2,19.163-9.492h0C100.852,396.577,96.729,391.125,93.866,386.235Z" transform="translate(-42.776 -286.602)" fill="#fce6d6"/>
    <g id="Group_12" data-name="Group 12" transform="translate(46.417 56.953)">
      <path id="Path_46" data-name="Path 46" d="M198.711,256.214a13.292,13.292,0,0,0-9.641,7.277,9.223,9.223,0,0,0,1.08.432l.063.018a9.241,9.241,0,0,1,4.991,3.592l1.4-.929a4.651,4.651,0,0,1,2.714-.793,16.916,16.916,0,0,0,2.009-.06C195.438,262.212,198.709,256.216,198.711,256.214Z" transform="translate(-179.06 -247.806)" fill="#35355e"/>
      <path id="Path_47" data-name="Path 47" d="M176.2,262.873c-5.212-6.509,1.857-12.3,1.857-12.3l0-.009c-.219.005-.439.009-.661.009-4.711,0-8.674-1.139-10.07-5.425a9.5,9.5,0,0,0-6.337-6.28l-.063-.018c-7.929-2.6-10.336-15.6-10.336-15.6-6.095,54.34,26.807,54.64,26.807,54.64S183.265,271.7,176.2,262.873Z" transform="translate(-149.831 -223.253)" fill="#35355e"/>
    </g>
  </g>
</svg>
