<svg id="Group_272" data-name="Group 272" xmlns="http://www.w3.org/2000/svg" width="1018.229" height="198.419" viewBox="0 0 1018.229 198.419">
  <path id="Path_105" data-name="Path 105" d="M-85.755-79.463h-5.073v-2.665h13.091v2.665H-82.81v13.885h-2.945Zm11.968-2.665H-69.3l4.418,11.594,4.465-11.594h4.441v16.55H-58.78V-79.323h-.047l-5.026,13.745h-2.057l-5.026-13.745h-.047v13.745h-2.805Z" transform="translate(1074.103 119.077)" fill="#264694" stroke="#254593" stroke-width="0.2"/>
  <path id="Path_103" data-name="Path 103" d="M8.938,0,23.8,25.807l6.37,11.06L0,36.866l80.19,125.45L92,140.783,41.951,62.531h91.01l14.779-25.663H43.763l-6.372-11.06H169.208L88.429,174.817l15.577,23.6L207.8,0Z" transform="translate(0 0)" fill="#264694"/>
  <path id="Path_104" data-name="Path 104" d="M-248.936-82.128h32.931l32.416,85.071,32.759-85.071h32.588V39.3h-20.582V-61.546h-.343L-176.042,39.3h-15.093L-228.011-61.546h-.343V39.3h-20.582ZM20.342-5.289a49.954,49.954,0,0,1-3.773,19.81A44.412,44.412,0,0,1,6.278,29.528,45.268,45.268,0,0,1-9.158,39.047a54.767,54.767,0,0,1-19.381,3.345,54.767,54.767,0,0,1-19.381-3.345,46.2,46.2,0,0,1-15.522-9.519A42.844,42.844,0,0,1-73.734,14.521a50.972,50.972,0,0,1-3.688-19.81V-82.128H-55.81V-5.975a34.579,34.579,0,0,0,1.372,9.348,26.257,26.257,0,0,0,4.545,9,24.29,24.29,0,0,0,8.4,6.775A28.394,28.394,0,0,0-28.539,21.81,28.394,28.394,0,0,0-15.59,19.152a24.289,24.289,0,0,0,8.4-6.775,26.255,26.255,0,0,0,4.545-9A34.579,34.579,0,0,0-1.269-5.975V-82.128H20.342ZM60.648-82.128h78.382v19.553H82.259v31.9h53.513v19.553H82.259V39.3H60.648Zm137.04,19.553H160.47V-82.128h96.048v19.553H219.3V39.3H197.689Zm110.8-19.553h18.7L379.494,39.3H354.8l-11.32-27.785H290.821L279.844,39.3H255.661ZM335.93-7l-18.7-49.4L298.2-7Zm70.836-75.124h42.193A85.954,85.954,0,0,1,465.852-80.5a43.26,43.26,0,0,1,14.493,5.574A29.158,29.158,0,0,1,490.465-64.29q3.773,6.689,3.773,16.98,0,13.207-7.289,22.125T466.109-14.38L498.354,39.3h-26.07L444.156-12.15H428.376V39.3H406.765Zm38.419,51.454q4.631,0,9.262-.429a28.443,28.443,0,0,0,8.49-2.058,14.489,14.489,0,0,0,6.26-4.974q2.4-3.345,2.4-9.348a14.914,14.914,0,0,0-2.23-8.576,13.857,13.857,0,0,0-5.832-4.888,26.845,26.845,0,0,0-7.975-2.144,72.666,72.666,0,0,0-8.49-.515h-18.7v32.931Z" transform="translate(484.921 119.077)" fill="#264694"/>
</svg>
