<svg xmlns="http://www.w3.org/2000/svg" width="10.5" height="12" viewBox="0 0 10.5 12">
  <g id="Group_1544" data-name="Group 1544" transform="translate(-486.052 -158.241)" style="isolation: isolate">
    <path id="Path_13038" data-name="Path 13038" d="M489.8,158.991v.75h3v-.75a.75.75,0,0,1,1.5,0v.75h1.125a1.125,1.125,0,0,1,1.125,1.125v1.125h-10.5v-1.125a1.125,1.125,0,0,1,1.125-1.125H488.3v-.75a.75.75,0,0,1,1.5,0Zm-3.75,3.75h10.5v6.375a1.125,1.125,0,0,1-1.125,1.125h-8.25a1.125,1.125,0,0,1-1.125-1.125Zm1.5,2.625a.376.376,0,0,0,.375.375h.75a.376.376,0,0,0,.375-.375v-.75a.376.376,0,0,0-.375-.375h-.75a.376.376,0,0,0-.375.375Zm0,3a.376.376,0,0,0,.375.375h.75a.376.376,0,0,0,.375-.375v-.75a.376.376,0,0,0-.375-.375h-.75a.376.376,0,0,0-.375.375Zm3-3a.376.376,0,0,0,.375.375h.75a.376.376,0,0,0,.375-.375v-.75a.376.376,0,0,0-.375-.375h-.75a.376.376,0,0,0-.375.375Zm.375,1.875a.376.376,0,0,0-.375.375v.75a.376.376,0,0,0,.375.375h.75a.376.376,0,0,0,.375-.375v-.75a.376.376,0,0,0-.375-.375Zm3-3a.376.376,0,0,0-.375.375v.75a.376.376,0,0,0,.375.375h.75a.376.376,0,0,0,.375-.375v-.75a.376.376,0,0,0-.375-.375Zm-.375,4.125a.376.376,0,0,0,.375.375h.75a.376.376,0,0,0,.375-.375v-.75a.376.376,0,0,0-.375-.375h-.75a.376.376,0,0,0-.375.375Z" fill="#3d5aa9"/>
  </g>
</svg>
