<svg xmlns="http://www.w3.org/2000/svg" width="29.241" height="22.743" viewBox="0 0 29.241 22.743">
  <g id="_" data-name=" " transform="translate(34.535 269.681)" style="isolation: isolate">
    <g id="Group_1496" data-name="Group 1496" transform="translate(-34.535 -269.681)" style="isolation: isolate">
      <path id="Path_12990" data-name="Path 12990" d="M-23.976-267.244a2.437,2.437,0,0,1,2.437-2.437h3.249a2.437,2.437,0,0,1,2.437,2.437V-264a2.437,2.437,0,0,1-2.437,2.437H-18.7v2.031h7.716a2.845,2.845,0,0,1,2.843,2.843v1.624h.406a2.437,2.437,0,0,1,2.437,2.437v3.249a2.437,2.437,0,0,1-2.437,2.437H-10.98a2.437,2.437,0,0,1-2.437-2.437v-3.249a2.437,2.437,0,0,1,2.437-2.437h.406v-1.624a.407.407,0,0,0-.406-.406H-18.7v2.031h.406a2.437,2.437,0,0,1,2.437,2.437v3.249a2.437,2.437,0,0,1-2.437,2.437h-3.249a2.437,2.437,0,0,1-2.437-2.437v-3.249a2.437,2.437,0,0,1,2.437-2.437h.406v-2.031h-7.716a.408.408,0,0,0-.406.406v1.624h.406a2.437,2.437,0,0,1,2.437,2.437v3.249a2.437,2.437,0,0,1-2.437,2.437H-32.1a2.437,2.437,0,0,1-2.437-2.437v-3.249a2.437,2.437,0,0,1,2.437-2.437h.406v-1.624a2.844,2.844,0,0,1,2.843-2.843h7.716v-2.031h-.406A2.437,2.437,0,0,1-23.976-264Z" transform="translate(34.535 269.681)" fill="#a8b1ca"/>
    </g>
  </g>
</svg>
