<svg xmlns="http://www.w3.org/2000/svg" width="27" height="24" viewBox="0 0 27 24">
  <g id="_" data-name=" " transform="translate(206.367 -22.881)" style="isolation: isolate">
    <g id="Group_1497" data-name="Group 1497" transform="translate(-206.367 22.881)" style="isolation: isolate">
      <path id="Path_12991" data-name="Path 12991" d="M-189.867,31.881h1.5a3,3,0,0,1,3,3v9a3,3,0,0,1-3,3h-15a3,3,0,0,1-3-3v-9a3,3,0,0,1,3-3h10.5v-2.25a6.751,6.751,0,0,1,6.75-6.75,6.751,6.751,0,0,1,6.75,6.75v2.25a1.5,1.5,0,0,1-1.5,1.5,1.5,1.5,0,0,1-1.5-1.5v-2.25a3.75,3.75,0,0,0-3.75-3.75,3.75,3.75,0,0,0-3.75,3.75Z" transform="translate(206.367 -22.881)" fill="#a8b1ca"/>
    </g>
  </g>
</svg>
