<svg id="Group_349" data-name="Group 349" xmlns="http://www.w3.org/2000/svg" width="173.402" height="173.402" viewBox="0 0 173.402 173.402">
  <path id="Path_2756" data-name="Path 2756" d="M1617.505,1232.767a86.7,86.7,0,1,0-100.249,85.646v-60.585h-22.014v-25.062h22.014v-19.1c0-21.731,12.944-33.733,32.748-33.733a133.355,133.355,0,0,1,19.408,1.693v21.337H1558.48c-10.77,0-14.129,6.684-14.129,13.54v16.264H1568.4l-3.843,25.062h-20.2v60.585A86.721,86.721,0,0,0,1617.505,1232.767Z" transform="translate(-1444.103 -1146.066)" fill="#f3f8ff" opacity="0.3"/>
  <path id="Path_2757" data-name="Path 2757" d="M1553.228,1250.328l3.843-25.061h-24.045V1209c0-6.856,3.358-13.54,14.129-13.54h10.933v-21.337a133.364,133.364,0,0,0-19.408-1.693c-19.805,0-32.748,12-32.748,33.733v19.1h-22.015v25.061h22.015v60.585a87.492,87.492,0,0,0,27.094,0v-60.585Z" transform="translate(-1432.778 -1138.566)" fill="#fff"/>
</svg>
