<svg id="Capa_1" data-name="Capa 1" xmlns="http://www.w3.org/2000/svg" viewBox="0 0 596.75 596.75"><circle cx="298.38" cy="298.38" r="298.38" style="fill:#fff;opacity:0.3"/><path d="M286.23,141.88c0,74-59.59,134-133.09,134s-133.09-60-133.09-134,59.58-134,133.09-134,133.09,60,133.09,134" transform="translate(42.38 156.5)" style="fill:#fff"/><path d="M432.23,141.88c0,69.66-29.79,126.14-66.54,126.14s-66.55-56.48-66.55-126.14S328.93,15.73,365.68,15.73s66.55,56.48,66.55,126.15" transform="translate(42.38 156.5)" style="fill:#fff"/><path d="M492,141.88c0,62.41-10.48,113-23.4,113s-23.41-50.6-23.41-113,10.48-113,23.41-113,23.4,50.6,23.4,113" transform="translate(42.38 156.5)" style="fill:#fff"/></svg>