<svg id="skill-development" xmlns="http://www.w3.org/2000/svg" width="62" height="62" viewBox="0 0 62 62">
  <path id="Path_2067" data-name="Path 2067" d="M25.551,273.816v-5.57a7.266,7.266,0,0,1,0-14.531v-5.449H15.4l.864-2.427a3.555,3.555,0,0,0,.208-1.206,3.633,3.633,0,0,0-7.266,0,3.555,3.555,0,0,0,.208,1.206l.864,2.427H0A27.646,27.646,0,0,0,25.551,273.816Z" transform="translate(0 -211.816)" fill="#ababab"/>
  <path id="Path_2068" data-name="Path 2068" d="M12.836,79.832A7.273,7.273,0,0,1,20.1,87.1h5.449V76.944l2.427.864a3.632,3.632,0,1,0,0-6.851l-2.427.864V61.76A27.444,27.444,0,0,0,0,87.1H5.57A7.273,7.273,0,0,1,12.836,79.832Z" transform="translate(0 -54.281)" fill="#ababab"/>
  <path id="Path_2069" data-name="Path 2069" d="M213.6,301h-5.357a7.266,7.266,0,0,1-14.531,0h-5.449v10.153l-2.427-.864a3.632,3.632,0,1,0,0,6.851l2.427-.864v10.275A27.444,27.444,0,0,0,213.6,301Z" transform="translate(-159.082 -264.551)" fill="#ababab"/>
  <path id="Path_2070" data-name="Path 2070" d="M266.43,14.652V7.387h-7.266a7.267,7.267,0,1,0-14.531,0H241v5.449a7.266,7.266,0,0,1,0,14.531v5.449h10.153l-.864,2.427a3.555,3.555,0,0,0-.208,1.206,3.633,3.633,0,0,0,7.266,0,3.555,3.555,0,0,0-.208-1.206l-.864-2.427H266.43V29.184a7.377,7.377,0,0,0,7.387-7.266A7.377,7.377,0,0,0,266.43,14.652Z" transform="translate(-211.816)" fill="#3c58a8"/>
</svg>
