<svg xmlns="http://www.w3.org/2000/svg" width="116.001" height="116.085" viewBox="515.501 1387.001 116.001 116.085"><g data-name="broker"><path d="M85.259 7H36.613A5.613 5.613 0 0 0 31 12.613v39.29c0 3.1 2.513 5.614 5.613 5.614h7.484v5.613a1.871 1.871 0 0 0 3.04 1.46l8.843-7.073h29.279c3.1 0 5.613-2.513 5.613-5.613V12.613c0-3.1-2.513-5.613-5.613-5.613Zm1.87 44.904a1.871 1.871 0 0 1-1.87 1.87H55.323c-.425 0-.838.145-1.17.41l-6.314 5.052v-3.59a1.871 1.871 0 0 0-1.871-1.871h-9.355a1.871 1.871 0 0 1-1.871-1.871V12.613c0-1.033.838-1.871 1.871-1.871h48.646c1.033 0 1.87.838 1.87 1.871v39.29Z" fill-rule="evenodd" fill="url(&quot;#a&quot;)" transform="translate(540.63 1391.227)" data-name="Path 11098"/><path d="M78.033 19.871A1.871 1.871 0 0 0 76.162 18h-7.484a1.871 1.871 0 0 0-1.871 1.871V36.71h-3.742V23.613a1.871 1.871 0 0 0-1.871-1.871H53.71a1.871 1.871 0 0 0-1.871 1.871V36.71h-3.742v-9.355a1.871 1.871 0 0 0-1.871-1.871h-7.484a1.871 1.871 0 0 0-1.871 1.87v9.356H35v3.742h44.904V36.71h-1.871V19.87Zm-7.484 1.871h3.742V36.71h-3.742V21.742ZM55.58 25.484h3.742V36.71H55.58V25.484Zm-14.968 3.742h3.742v7.484h-3.742v-7.484Z" fill-rule="evenodd" fill="url(&quot;#b&quot;)" transform="translate(544.114 1400.808)" data-name="Path 11099"/><path d="M48.057 22.934h14.526c.39 0 .77-.122 1.087-.35l13.097-9.355-2.174-3.042-12.609 9.005H47.615c-.29 0-.576.067-.836.197L35.553 25l1.673 3.35 10.83-5.417Z" fill-rule="evenodd" fill="url(&quot;#c&quot;)" transform="translate(544.596 1394.003)" data-name="Path 11100"/><path d="M6.613 32.807c3.1 0 5.613-2.513 5.613-5.613a5.521 5.521 0 0 0-.561-2.404l7.512-7.512a5.413 5.413 0 0 0 4.808 0l5.641 5.64a5.521 5.521 0 0 0-.561 2.405 5.613 5.613 0 1 0 11.226 0 5.521 5.521 0 0 0-.562-2.404l11.254-11.254c.75.366 1.571.558 2.405.56a5.613 5.613 0 1 0-5.613-5.612c.003.833.195 1.655.56 2.404L37.083 20.271a5.413 5.413 0 0 0-4.808 0l-5.642-5.64c.367-.75.559-1.572.562-2.405a5.613 5.613 0 1 0-11.226 0c.003.833.195 1.655.561 2.404l-7.512 7.512a5.521 5.521 0 0 0-2.404-.561 5.613 5.613 0 0 0 0 11.226ZM53.388 4.742a1.871 1.871 0 1 1 0 3.742 1.871 1.871 0 0 1 0-3.742Zm-16.84 20.58a1.871 1.871 0 1 1-3.741 0 1.871 1.871 0 0 1 3.742 0ZM21.582 10.356a1.871 1.871 0 1 1 0 3.742 1.871 1.871 0 0 1 0-3.742ZM6.613 25.323a1.871 1.871 0 1 1 0 3.742 1.871 1.871 0 0 1 0-3.742Z" fill-rule="evenodd" fill="url(&quot;#d&quot;)" transform="translate(514.5 1386)" data-name="Path 11101"/><path d="m70.775 56.097-1.871 1.87-12.549 12.55H42.162v-4.52a16.493 16.493 0 0 0 4.834-4.835h4.52c3.1 0 5.614-2.513 5.614-5.613v-5.613c0-3.1-2.513-5.613-5.613-5.613h-.979l1.817-4.545A14.42 14.42 0 0 0 38.966 20H26.647a14.422 14.422 0 0 0-13.39 19.776l1.818 4.547h-.043a6.548 6.548 0 0 0 0 13.097h1.924a16.92 16.92 0 0 0 6.496 8.357v5.263l-13.496 4.5A13.073 13.073 0 0 0 1 87.962v10.704c0 1.033.838 1.87 1.871 1.87h52.388a1.871 1.871 0 0 0 1.87-1.87v-10.49l21.846-20.019c.02-.018.028-.046.049-.065l.01.01 1.87-1.872a7.163 7.163 0 0 0-10.13-10.13Zm7.484 2.645a3.426 3.426 0 0 1 0 4.839l-.549.548-4.838-4.838.548-.549a3.426 3.426 0 0 1 4.839 0ZM24.818 74.528l4.83 4.83-3.343 1.672-2.47-6.175.983-.327Zm7.704 14.698h.562l1.251 7.569h-3.064l1.251-7.569Zm1.155-3.742h-1.74l-1.544-2.314 2.414-1.207 2.413 1.207-1.543 2.314Zm5.631-4.454-3.343-1.671 5.1-5.1h.953l-2.71 6.77Zm12.209-32.965c1.033 0 1.87.837 1.87 1.87v5.614a1.871 1.871 0 0 1-1.87 1.87H48.8c.558-1.664.843-3.408.846-5.163v-4.191h1.87Zm-24.87-24.323h12.319a10.678 10.678 0 0 1 9.916 14.646l-1.61 4.028a7.15 7.15 0 0 1-5.945-3.951l-1.223-2.462a1.95 1.95 0 0 0-3.35 0l-1.23 2.462a7.17 7.17 0 0 1-6.46 3.987H18.358l-1.626-4.066a10.68 10.68 0 0 1 9.916-14.644ZM15.032 53.678a2.806 2.806 0 1 1 0-5.613h.936v3.742c.002.625.04 1.25.112 1.87h-1.048Zm4.678-1.871v-5.613h9.355a10.884 10.884 0 0 0 9.355-5.256 10.872 10.872 0 0 0 7.484 5.099v6.219c-.001 1.78-.38 3.54-1.114 5.164H32.807v3.742h9.418a12.607 12.607 0 0 1-8.97 3.742h-.373c-7.25.01-13.141-5.848-13.172-13.097Zm13.17 16.839h.374c1.756-.003 3.5-.288 5.166-.846v3.813l-5.613 5.613-5.613-5.613v-3.968c1.823.658 3.747.997 5.686 1ZM4.742 87.962a9.344 9.344 0 0 1 6.397-8.874l9.132-3.046 3.306 8.266a1.871 1.871 0 0 0 1.746 1.176c.29.004.576-.06.836-.187l.863-.432 1.947 2.923-1.496 9.016H4.742v-8.842Zm49.252-1.985a1.871 1.871 0 0 0-.606 1.378v9.44H38.135l-1.496-9.017 1.947-2.922.863.432c.261.13.55.198.842.196a1.87 1.87 0 0 0 1.738-1.177l4.019-10.048H57.13a1.87 1.87 0 0 0 1.322-.548l11.774-11.775 4.779 4.78-21.011 19.26Z" fill-rule="evenodd" fill="url(&quot;#e&quot;)" transform="translate(514.5 1402.55)" data-name="Path 11102"/></g><defs><linearGradient x1="0" y1="1.501" x2="0" y2="-.637" id="a"><stop stop-color="#385ab1" offset="0"/><stop stop-color="#293b68" offset="1"/></linearGradient><linearGradient x1="0" y1="1.501" x2="0" y2="-.637" id="b"><stop stop-color="#385ab1" offset="0"/><stop stop-color="#293b68" offset="1"/></linearGradient><linearGradient x1="0" y1="1.501" x2="0" y2="-.637" id="c"><stop stop-color="#385ab1" offset="0"/><stop stop-color="#293b68" offset="1"/></linearGradient><linearGradient x1="0" y1="1.501" x2="0" y2="-.637" id="d"><stop stop-color="#385ab1" offset="0"/><stop stop-color="#293b68" offset="1"/></linearGradient><linearGradient x1="0" y1="1.501" x2="0" y2="-.637" id="e"><stop stop-color="#385ab1" offset="0"/><stop stop-color="#293b68" offset="1"/></linearGradient></defs></svg>