<svg xmlns="http://www.w3.org/2000/svg" width="25.695" height="22.577" viewBox="0 0 25.695 22.577">
                <g id="Layer_x0020_1" transform="translate(0 -263)">
                  <path id="Path_13468" data-name="Path 13468" d="M14.012,272.839l9.318,9.312a1.381,1.381,0,0,0,1.956.006l.006-.006a1.388,1.388,0,0,0,0-1.956l-9.318-9.318.243-.243-.036-.036-3.539-3.533-.036-.041-2.448,2.442.041.042,3.533,3.539.036.036Zm-6.081-2.91.006-.006a1.287,1.287,0,0,1,.913-.373,1.307,1.307,0,0,1,.919.379l.006.006,3.539,3.533a.082.082,0,0,1,.018.024,1.3,1.3,0,0,1-.018,1.82c-.006.006-.018.012-.024.018a1.283,1.283,0,0,1-.9.362.8.8,0,0,1-.119-.006.875.875,0,0,1,.006.124,1.3,1.3,0,0,1-2.223.919l-3.539-3.539a1.3,1.3,0,0,1,.919-2.223.876.876,0,0,1,.124.006.835.835,0,0,1-.006-.119A1.3,1.3,0,0,1,7.931,269.929Zm6.556-6.556A1.311,1.311,0,0,1,15.4,263a1.292,1.292,0,0,1,.919.379l3.539,3.539a1.3,1.3,0,0,1,0,1.837l-.006.012a1.3,1.3,0,0,1-.913.373c-.041,0-.083-.006-.119-.006v.119a1.287,1.287,0,0,1-.373.913l-.006.006a1.288,1.288,0,0,1-1.837,0l-3.539-3.533-.006-.006a1.317,1.317,0,0,1-.379-.919,1.292,1.292,0,0,1,.379-.919,1.312,1.312,0,0,1,.925-.385c.041,0,.077.006.119.006a.756.756,0,0,1-.006-.119,1.307,1.307,0,0,1,.379-.919Zm.113,18.191a.3.3,0,0,0-.3-.3H12a.293.293,0,0,0-.3.3v2.353a.3.3,0,0,0,.059.184.309.309,0,0,0,.427.053l.966-.759.937.747a.3.3,0,0,0,.5-.225Zm-12.258-.9a1.432,1.432,0,0,1-.036-.32,1.53,1.53,0,0,1,1.523-1.523H16.1a.3.3,0,0,1,.3.3v1.541Zm14.783,4.914a.3.3,0,0,0,.3-.3.282.282,0,0,0-.036-.142A4.643,4.643,0,0,1,17.4,281.7a.351.351,0,0,0,.03-.136.3.3,0,0,0-.3-.3H15.15a.821.821,0,0,1,.053.3v2.353a.911.911,0,0,1-.907.907.936.936,0,0,1-.575-.207l-.563-.45-.219.166-.379.3a.9.9,0,0,1-1.458-.711v-2.353a.821.821,0,0,1,.053-.3H2.2a2.216,2.216,0,0,0-1.553.628,2.126,2.126,0,0,0,0,3.053,2.216,2.216,0,0,0,1.553.628Z" fill="#c4c4c4"/>
                </g>
</svg> 