<svg xmlns="http://www.w3.org/2000/svg" width="14.389" height="14.387" viewBox="0 0 14.389 14.387">
  <path id="Path_13011" data-name="Path 13011" d="M245.478,484.459a3.983,3.983,0,0,1-4.177,4.176c-1.187.068-4.748.068-5.935,0a3.983,3.983,0,0,1-4.177-4.176c-.067-1.188-.067-4.748,0-5.936a3.981,3.981,0,0,1,4.177-4.174c1.187-.067,4.748-.067,5.935,0a3.987,3.987,0,0,1,4.177,4.177C245.545,479.715,245.545,483.271,245.478,484.459Zm-1.246-2.967a15.854,15.854,0,0,0-.289-4.241,2.427,2.427,0,0,0-1.368-1.367,31.276,31.276,0,0,0-8.481,0,2.428,2.428,0,0,0-1.368,1.367,31.287,31.287,0,0,0,0,8.482A2.429,2.429,0,0,0,234.1,487.1a31.276,31.276,0,0,0,8.481,0,2.429,2.429,0,0,0,1.368-1.368A15.849,15.849,0,0,0,244.233,481.492Zm-2.208,0a3.689,3.689,0,1,1-3.689-3.688A3.682,3.682,0,0,1,242.024,481.492Zm-1.29,0a2.4,2.4,0,1,0-2.4,2.4A2.4,2.4,0,0,0,240.734,481.492Zm1.441-4.7a.861.861,0,1,0,.861.861A.86.86,0,0,0,242.175,476.793Z" transform="translate(-231.139 -474.299)" fill="#adaeb0"/>
</svg>