<svg xmlns="http://www.w3.org/2000/svg" width="28.502" height="26.657" viewBox="0 0 28.502 26.657">
  <path id="technology" d="M23.977,44.879a6.292,6.292,0,1,0,12.583,0H43.6v1.8l-2.209.85a11.375,11.375,0,0,1-1.381,3.331l.961,2.164-2.551,2.551-2.163-.961A11.373,11.373,0,0,1,32.923,56l-.85,2.208H28.465L27.615,56a11.376,11.376,0,0,1-3.331-1.381l-2.164.961-2.551-2.551.961-2.164a11.374,11.374,0,0,1-1.381-3.331l-2.208-.85v-1.8Zm6.292-.611a.611.611,0,1,0,.611.611.611.611,0,0,0-.611-.611Zm10.026-.339V41.718a.475.475,0,0,1,.272-.43l1.738-.906a1.111,1.111,0,1,1,.493.814l-1.553.81v1.923ZM24.716,34.871a1.11,1.11,0,1,0,1,1.586h1.717v3.878h.95V35.982a.475.475,0,0,0-.475-.475H25.72a1.11,1.11,0,0,0-1-.635Zm11.105,0a1.11,1.11,0,1,1-1,1.586H33.1v3.878h-.95V35.982a.475.475,0,0,1,.475-.475h2.192a1.11,1.11,0,0,1,1-.635Zm-5.553-3.32a1.111,1.111,0,0,1,.475,2.115v6.669h-.95V33.666a1.111,1.111,0,0,1,.475-2.115ZM17.127,39.159A1.11,1.11,0,1,0,17.74,41.2l1.553.81v1.924h.95V41.718a.475.475,0,0,0-.272-.43l-1.738-.906a1.111,1.111,0,0,0-1.105-1.223Zm6.662,0a1.11,1.11,0,1,1-.613,2.037l-1.553.81v1.924h-.95V41.718a.475.475,0,0,1,.272-.43l1.738-.906a1.111,1.111,0,0,1,1.105-1.223Zm12.957,0a1.11,1.11,0,1,0,.613,2.037l1.553.81v1.924h.95V41.718a.475.475,0,0,0-.272-.43l-1.738-.906a1.111,1.111,0,0,0-1.105-1.223Zm-3.395,2.126H27.185a.512.512,0,0,0-.511.511v6.168a.512.512,0,0,0,.511.511h6.168a.512.512,0,0,0,.511-.511V41.8a.512.512,0,0,0-.511-.511Zm-1.5,5.183H28.68V43.291h3.176Z" transform="translate(-16.018 -31.551)" fill="#c4c4c4" fill-rule="evenodd"/>
</svg>
