<svg xmlns="http://www.w3.org/2000/svg" width="22.992" height="22.5" viewBox="0 0 22.992 22.5">
    <path id="Path_13483" data-name="Path 13483"
        d="M13.111-18.723a.737.737,0,0,1,.75-.777A10.5,10.5,0,0,1,24.361-9a.764.764,0,0,1-.778.75H13.111ZM1.5-8.25a11.256,11.256,0,0,1,9.661-11.145.725.725,0,0,1,.839.72V-7.5L19.336-.164a.711.711,0,0,1-.07,1.088A11.2,11.2,0,0,1,12.75,3,11.25,11.25,0,0,1,1.5-8.25Zm22.083.75a.8.8,0,0,1,.9.833c-.361,2.62-1.815,4.373-3.652,6.093a.761.761,0,0,1-.977-.183L13.111-7.5Z"
        transform="translate(-1.5 19.5)" fill="#3d5aa9" />
</svg>