<svg xmlns="http://www.w3.org/2000/svg" width="78.75" height="70" viewBox="0 0 78.75 70">
  <path id="Path_13310" data-name="Path 13310" d="M.643-14.451A2.2,2.2,0,0,0,0-12.893v8.518H8.523a2.186,2.186,0,0,0,1.552-.646l21.451-21.6-9.28-9.28ZM38.35-38.363l-4.361-4.361a3.466,3.466,0,0,0-4.922,0L25.341-39l9.28,9.28,3.726-3.726A3.46,3.46,0,0,0,38.35-38.363ZM-4.375-61.25v17.5h17.5Zm0,61.25A5.888,5.888,0,0,1-9.554-3.265a1.5,1.5,0,0,0-1.384-.889,1.491,1.491,0,0,0-1.367.837l-1.059,2.1A2.312,2.312,0,0,1-15.312,0h-.15a2.166,2.166,0,0,1-1.914-1.5l-2.311-6.891-1.449,4.361A5.911,5.911,0,0,1-26.735,0h-1.7a2.179,2.179,0,0,1-2.188-2.187,2.179,2.179,0,0,1,2.188-2.187h1.7a1.526,1.526,0,0,0,1.449-1.042l2.5-7.469a3.263,3.263,0,0,1,3.11-2.248,3.265,3.265,0,0,1,3.11,2.256l1.9,5.692a6.126,6.126,0,0,1,9.023,1.93,1.613,1.613,0,0,0,1.281.868v-9.42a4.378,4.378,0,0,1,1.292-3.1l16.208-16.1v-6.357h-17.5A4.376,4.376,0,0,1-8.75-43.75v-17.5H-32.812a6.562,6.562,0,0,0-6.562,6.563V2.188A6.563,6.563,0,0,0-32.812,8.75H6.563a6.562,6.562,0,0,0,6.563-6.562V0Z" transform="translate(39.375 61.25)" fill="#3d5aa9"/>
</svg>
