<svg xmlns="http://www.w3.org/2000/svg" width="27" height="24" viewBox="0 0 27 24">
    <path id="Path_13213" data-name="Path 13213"
        d="M13.72-4.955a.755.755,0,0,0-.22.534V-1.5h2.922a.749.749,0,0,0,.532-.222l7.355-7.406L21.127-12.31Zm12.928-8.2-1.5-1.5a1.188,1.188,0,0,0-1.687,0l-1.277,1.277,3.182,3.182,1.277-1.277A1.186,1.186,0,0,0,26.648-13.153ZM12-21v6h6ZM12,0a2.019,2.019,0,0,1-1.776-1.119.515.515,0,0,0-.474-.3.511.511,0,0,0-.469.287l-.363.721A.793.793,0,0,1,8.25,0H8.2a.743.743,0,0,1-.656-.516L6.75-2.878l-.5,1.5A2.027,2.027,0,0,1,4.334,0H3.75A.747.747,0,0,1,3-.75a.747.747,0,0,1,.75-.75h.581a.523.523,0,0,0,.5-.357l.855-2.561A1.119,1.119,0,0,1,6.75-5.189a1.119,1.119,0,0,1,1.066.773l.651,1.951a2.1,2.1,0,0,1,3.094.662A.553.553,0,0,0,12-1.5v-3.23A1.5,1.5,0,0,1,12.443-5.8L18-11.32V-13.5H12A1.5,1.5,0,0,1,10.5-15v-6H2.25A2.25,2.25,0,0,0,0-18.75V.75A2.25,2.25,0,0,0,2.25,3h13.5A2.25,2.25,0,0,0,18,.75V0Z"
        transform="translate(0 21)" fill="#3d5aa9" />
</svg>