<svg xmlns="http://www.w3.org/2000/svg" width="24" height="24" viewBox="0 0 24 24">
  <path id="Path_13396" data-name="Path 13396" d="M1.5-18a3,3,0,0,1,3-3H12a3,3,0,0,1,3,3v9h.375A4.125,4.125,0,0,1,19.5-4.875v1.5A1.122,1.122,0,0,0,20.625-2.25,1.122,1.122,0,0,0,21.75-3.375v-7.261A2.918,2.918,0,0,1,19.5-13.5v-3L18-18a1.064,1.064,0,0,1,0-1.5,1.06,1.06,0,0,1,1.5,0l3.623,3.623A2.99,2.99,0,0,1,24-13.758V-3.375A3.373,3.373,0,0,1,20.625,0,3.373,3.373,0,0,1,17.25-3.375v-1.5a1.911,1.911,0,0,0-1.875-1.917H15V0a1.5,1.5,0,0,1,0,3H1.5a1.5,1.5,0,0,1,0-3V-18Zm3,5.25a.752.752,0,0,0,.75.75h6a.752.752,0,0,0,.75-.75v-4.5a.751.751,0,0,0-.75-.75h-6a.751.751,0,0,0-.75.75Z" transform="translate(0 21)" fill="#3d5aa9"/>
</svg>
