<svg xmlns="http://www.w3.org/2000/svg" width="24" height="21" viewBox="0 0 24 21">
    <path id="Path_13186" data-name="Path 13186"
        d="M1.5-19.5A1.5,1.5,0,0,1,3-18V-2.25a.751.751,0,0,0,.75.75H22.5A1.5,1.5,0,0,1,24,0a1.5,1.5,0,0,1-1.5,1.5H3.75A3.75,3.75,0,0,1,0-2.25V-18a1.5,1.5,0,0,1,1.5-1.5ZM6-15a1.5,1.5,0,0,1,1.5-1.5h9A1.5,1.5,0,0,1,18-15a1.5,1.5,0,0,1-1.5,1.5h-9A1.5,1.5,0,0,1,6-15Zm7.5,3A1.5,1.5,0,0,1,15-10.5,1.5,1.5,0,0,1,13.5-9h-6A1.5,1.5,0,0,1,6-10.5,1.5,1.5,0,0,1,7.5-12Zm6,4.5A1.5,1.5,0,0,1,21-6a1.5,1.5,0,0,1-1.5,1.5H7.5A1.5,1.5,0,0,1,6-6,1.5,1.5,0,0,1,7.5-7.5Z"
        transform="translate(0 19.5)" fill="#3d5aa9" />
</svg>