<svg xmlns="http://www.w3.org/2000/svg" width="22.999" height="23" viewBox="0 0 22.999 23">
  <path id="Path_102" data-name="Path 102" d="M22.982-18.469,20.107.178a1.438,1.438,0,0,1-.717,1.035,1.441,1.441,0,0,1-.7.184,1.426,1.426,0,0,1-.552-.111l-5.507-2.3L10.341,2.418a.892.892,0,0,1-.782.457.934.934,0,0,1-.934-.934V-2.38a1.436,1.436,0,0,1,.3-.882l9.76-12.55L5.494-3.94.885-5.862A1.443,1.443,0,0,1,0-7.138,1.4,1.4,0,0,1,.724-8.475l20.125-11.46a1.436,1.436,0,0,1,1.527.063A1.433,1.433,0,0,1,22.982-18.469Z" transform="translate(0 20.125)" fill="#3a59a7"/>
</svg>
