<svg xmlns="http://www.w3.org/2000/svg" width="148.547" height="99.71"><path d="m148.16 49.776-20.93-30.232a2.181 2.181 0 0 0-1.794-.94h-23.4V2.18A2.18 2.18 0 0 0 99.854 0H83.479a2.18 2.18 0 1 0 0 4.36h14.195v51.454H4.361V4.36h68.846a2.18 2.18 0 0 0 0-4.361H2.18A2.18 2.18 0 0 0 0 2.18v81.396a2.18 2.18 0 0 0 2.18 2.18h9.6c1.067 7.868 7.825 13.954 15.981 13.954 8.157 0 14.915-6.086 15.983-13.954h65.71c1.068 7.868 7.825 13.954 15.982 13.954 8.156 0 14.915-6.086 15.982-13.954h4.948a2.18 2.18 0 0 0 2.18-2.18V51.017a2.18 2.18 0 0 0-.387-1.24ZM99.854 60.175a2.18 2.18 0 0 0 2.18-2.18v-35.03h22.259L144.186 51.7v22.72h-5.476c-2.915-4.21-7.776-6.977-13.274-6.977-5.498 0-10.358 2.766-13.272 6.976h-71.13c-2.914-4.21-7.775-6.976-13.272-6.976-5.498 0-10.359 2.766-13.274 6.976H4.361V60.175h95.494ZM43.167 78.779h66.864a15.9 15.9 0 0 0-.577 2.616h-65.71a15.9 15.9 0 0 0-.577-2.616Zm-38.806.145v-.145h7.994c-.263.845-.454 1.72-.576 2.616H4.361v-2.47Zm23.4 16.425c-6.491 0-11.772-5.282-11.772-11.773 0-6.492 5.28-11.773 11.773-11.773 6.491 0 11.773 5.281 11.773 11.773 0 6.491-5.282 11.773-11.773 11.773Zm97.675 0c-6.492 0-11.773-5.282-11.773-11.773 0-6.492 5.281-11.773 11.773-11.773s11.773 5.281 11.773 11.773c0 6.491-5.281 11.773-11.773 11.773Zm18.75-13.954h-2.768a16.014 16.014 0 0 0-.576-2.616h3.344v2.616Zm0 0" fill-rule="evenodd" fill="url(&quot;#a&quot;)" data-name="Path 11088"/><defs><linearGradient x1=".5" y1="1" x2=".5" y2="-.16" id="a"><stop stop-color="#4663ae" offset="0"/><stop stop-color="#233257" offset="1"/></linearGradient></defs></svg>