<svg id="Group_1707" data-name="Group 1707" xmlns="http://www.w3.org/2000/svg" xmlns:xlink="http://www.w3.org/1999/xlink" width="20.935" height="20.796" viewBox="0 0 20.935 20.796">
  <defs>
    <clipPath id="clip-path">
      <rect id="Rectangle_2242" data-name="Rectangle 2242" width="20.935" height="20.796" fill="#fbfbfc"/>
    </clipPath>
  </defs>
  <g id="Group_1704" data-name="Group 1704" clip-path="url(#clip-path)">
    <path id="Path_14785" data-name="Path 14785" d="M50.964,10.43a5.275,5.275,0,0,0,5.3-5.645,5.235,5.235,0,0,0-10.442.745,5.285,5.285,0,0,0,5.147,4.9" transform="translate(-41.059 0)" fill="#fbfbfc"/>
    <path id="Path_14786" data-name="Path 14786" d="M109.552,102.737a4.967,4.967,0,0,0-4.946,4.624,5.159,5.159,0,0,0,5.271,5.426,5.289,5.289,0,0,0,4.821-5.065,5.029,5.029,0,0,0-5.145-4.985m2.924,5.6-.114.077-1.847.02c0,.136,0,.272,0,.408,0-.136,0-.272,0-.408-.069.076-.2.15-.2.227-.008.607.008,1.215.017,1.822a.763.763,0,0,1-.991.379c-.368-.149-.391-.54-.381-.913.013-.476-.007-.953-.013-1.43l-.086-.085c-.55-.006-1.1-.018-1.651-.016a.69.69,0,0,1-.777-.633.635.635,0,0,1,.567-.734c.572.008,1.144.023,1.716.014.078,0,.153-.128.23-.2-.255,0-.511,0-.767,0,.256,0,.511,0,.767,0,.006-.53.027-1.061.014-1.59-.009-.385.12-.69.5-.767a.673.673,0,0,1,.863.5c-.006.567-.034,1.135,0,1.7a.506.506,0,0,0,.349.348c.565.033,1.133.006,1.7,0,.665.4.694.755.1,1.279" transform="translate(-93.762 -92.084)" fill="#fbfbfc"/>
    <path id="Path_14787" data-name="Path 14787" d="M12.084,115.933a7.373,7.373,0,0,1-1.611-2.018,6.046,6.046,0,0,1-.538-4.481c.232-.755.543-1.486.826-2.248a6.331,6.331,0,0,1-3.985-.809.352.352,0,0,0-.259-.031,9.657,9.657,0,0,0-4.111,3.011,11.969,11.969,0,0,0-2.391,5.383A1.114,1.114,0,0,0,.607,115.9a4.253,4.253,0,0,0,1.278.185c3.337.02,6.674.02,10.011.026H12l-.012-.033h.183l-.091-.148" transform="translate(0 -95.318)" fill="#fbfbfc"/>
  </g>
</svg>
