<svg id="command-symbol" xmlns="http://www.w3.org/2000/svg" width="20.889" height="20.889" viewBox="0 0 20.889 20.889">
  <path id="Path_14897" data-name="Path 14897" d="M16.711,12.533H14.622V8.355h2.089a4.178,4.178,0,1,0-4.178-4.178V6.267H8.355V4.178A4.178,4.178,0,1,0,4.178,8.355H6.267v4.178H4.178a4.178,4.178,0,1,0,4.178,4.178h0V14.622h4.178v2.084s0,0,0,.005a4.178,4.178,0,1,0,4.178-4.178Zm0-10.444a2.089,2.089,0,0,1,0,4.178H14.622V4.178A2.089,2.089,0,0,1,16.711,2.089ZM2.089,4.178a2.089,2.089,0,0,1,4.178,0V6.267H4.178A2.089,2.089,0,0,1,2.089,4.178ZM4.178,18.8a2.089,2.089,0,0,1,0-4.178H6.267v2.089A2.089,2.089,0,0,1,4.178,18.8Zm4.178-6.267V8.355h4.178v4.178ZM16.711,18.8a2.089,2.089,0,0,1-2.089-2.089h0V14.622h2.089a2.089,2.089,0,0,1,0,4.178Z"/>
</svg>
