<?xml version="1.0" encoding="utf-8"?>
<!-- Generator: Adobe Illustrator 27.2.0, SVG Export Plug-In . SVG Version: 6.00 Build 0)  -->
<svg version="1.1" id="Isolation_Mode" xmlns="http://www.w3.org/2000/svg" xmlns:xlink="http://www.w3.org/1999/xlink" x="0px"
	 y="0px" viewBox="0 0 682 609.6" style="enable-background:new 0 0 682 609.6;" xml:space="preserve">
<g id="Layer_1">
	<g id="Image_27_">
		<g>
			<g>
				<path d="M557.8,110.8c2.5,2.8,2.3,7.1-0.5,9.6c-2.8,2.5-7.1,2.3-9.6-0.5c-2.5-2.8-2.2-7.1,0.6-9.6
					C551,107.8,555.3,108,557.8,110.8z"/>
				<path d="M574.5,154.6c3.5,3.9,3.1,9.9-0.8,13.4c-3.9,3.5-9.9,3.1-13.4-0.8c-3.5-3.9-3.1-9.9,0.8-13.4
					C565,150.3,571,150.7,574.5,154.6z"/>
				<path d="M580.3,201.1c4.3,4.8,3.8,12.1-0.9,16.3c-4.8,4.3-12.1,3.8-16.3-0.9c-4.3-4.8-3.8-12.1,0.9-16.3
					C568.7,195.9,576,196.3,580.3,201.1z"/>
				<path d="M574.8,247.6c4.8,5.4,4.3,13.6-1,18.4c-5.4,4.8-13.6,4.3-18.4-1c-4.8-5.4-4.3-13.6,1-18.4
					C561.8,241.8,570,242.3,574.8,247.6z"/>
				<path d="M558.3,291.5c5.1,5.8,4.6,14.6-1.1,19.7c-5.8,5.1-14.6,4.6-19.7-1.1c-5.1-5.8-4.6-14.6,1.1-19.7
					C544.4,285.2,553.2,285.7,558.3,291.5z"/>
				<path d="M531.8,330.1c5.3,5.9,4.8,15-1.2,20.3c-5.9,5.3-15.1,4.8-20.3-1.2c-5.3-5.9-4.8-15,1.2-20.4
					C517.4,323.7,526.5,324.2,531.8,330.1z"/>
				<path d="M496.9,361.3c5.3,6,4.8,15.1-1.2,20.5c-6,5.3-15.1,4.8-20.4-1.2c-5.3-6-4.8-15.1,1.2-20.5
					C482.4,354.8,491.6,355.3,496.9,361.3z"/>
				<path d="M455.7,383.1c5.2,5.9,4.7,14.8-1.1,20.1c-5.8,5.2-14.8,4.7-20.1-1.1c-5.2-5.8-4.7-14.8,1.1-20
					C441.5,376.7,450.4,377.3,455.7,383.1z"/>
				<path d="M410.4,394.3c4.9,5.5,4.4,14-1.1,18.9c-5.5,4.9-14,4.4-18.9-1.1c-4.9-5.5-4.4-14,1.1-18.9
					C396.9,388.3,405.4,388.8,410.4,394.3z"/>
				<path d="M363.6,394.3c4.5,5,4,12.7-1,17.1c-5,4.5-12.7,4-17.1-1c-4.5-5-4-12.7,1-17.1C351.5,388.9,359.2,389.3,363.6,394.3z"/>
				<path d="M318.2,383.2c3.8,4.2,3.4,10.7-0.8,14.4c-4.2,3.7-10.7,3.4-14.4-0.8c-3.8-4.2-3.4-10.7,0.8-14.4
					C308,378.6,314.5,379,318.2,383.2z"/>
				<path d="M276.8,361.5c2.8,3.2,2.6,8-0.6,10.9c-3.2,2.8-8,2.6-10.9-0.6c-2.8-3.2-2.5-8,0.6-10.9C269.1,358,274,358.3,276.8,361.5
					z"/>
				<path d="M241.8,330.3c1.5,1.7,1.4,4.3-0.3,5.8c-1.7,1.5-4.3,1.4-5.8-0.3c-1.5-1.7-1.4-4.3,0.3-5.8
					C237.7,328.5,240.3,328.7,241.8,330.3z"/>
			</g>
			<g>
				<path d="M605.3,163.1c0.5,1.8-0.5,3.6-2.2,4.2c-1.8,0.5-3.7-0.5-4.2-2.3c-0.5-1.8,0.5-3.6,2.3-4.2
					C602.9,160.3,604.7,161.4,605.3,163.1z"/>
				<path d="M614.2,214.4c1.2,4-1.1,8.2-5.1,9.4c-4,1.2-8.2-1.1-9.4-5.1c-1.2-4,1.1-8.2,5-9.4C608.8,208.2,613,210.4,614.2,214.4z"
					/>
				<path d="M610.5,266.3c1.7,5.6-1.5,11.4-7.1,13.1c-5.6,1.7-11.5-1.5-13.1-7.1c-1.7-5.6,1.5-11.5,7.1-13.1
					C602.9,257.6,608.8,260.8,610.5,266.3z"/>
				<path d="M594.4,315.9c2,6.8-1.8,14-8.6,16c-6.8,2-14-1.8-16-8.6c-2-6.8,1.8-14,8.6-16C585.2,305.2,592.4,309.1,594.4,315.9z"/>
				<path d="M567.1,360.2c2.3,7.6-2,15.7-9.7,18c-7.6,2.3-15.7-2-18-9.7c-2.3-7.7,2-15.7,9.7-18
					C556.7,348.2,564.8,352.5,567.1,360.2z"/>
				<path d="M529.9,396.6c2.5,8.2-2.2,16.9-10.4,19.3c-8.2,2.5-16.9-2.2-19.3-10.4c-2.5-8.2,2.2-16.9,10.4-19.3
					C518.8,383.8,527.4,388.4,529.9,396.6z"/>
				<path d="M485,423.1c2.5,8.5-2.2,17.4-10.7,19.9c-8.5,2.5-17.4-2.3-19.9-10.7c-2.5-8.5,2.2-17.4,10.7-19.9
					C473.6,409.8,482.5,414.6,485,423.1z"/>
				<path d="M435.3,438.1c2.6,8.5-2.3,17.5-10.8,20c-8.5,2.6-17.5-2.3-20-10.8c-2.6-8.5,2.3-17.5,10.8-20
					C423.7,424.7,432.7,429.5,435.3,438.1z"/>
				<path d="M383.5,440.7c2.5,8.4-2.2,17.1-10.6,19.7c-8.3,2.5-17.1-2.2-19.7-10.6c-2.5-8.3,2.2-17.1,10.6-19.7
					C372.2,427.6,381,432.3,383.5,440.7z"/>
				<path d="M332.6,430.7c2.4,7.9-2.1,16.2-10,18.5c-7.9,2.4-16.2-2.1-18.5-10c-2.4-7.9,2.1-16.2,10-18.6
					C321.9,418.3,330.2,422.8,332.6,430.7z"/>
				<path d="M285.5,408.8c2.1,7.1-1.9,14.6-9,16.8c-7.1,2.1-14.6-1.9-16.8-9c-2.1-7.1,1.9-14.6,9-16.8
					C275.9,397.6,283.4,401.6,285.5,408.8z"/>
				<path d="M245.1,376.2c1.8,6-1.6,12.3-7.6,14.1c-6,1.8-12.3-1.6-14.1-7.6c-1.8-6,1.6-12.3,7.6-14.1
					C236.9,366.8,243.3,370.2,245.1,376.2z"/>
				<path d="M213.6,334.9c1.4,4.5-1.2,9.3-5.7,10.6c-4.5,1.4-9.3-1.2-10.6-5.7c-1.4-4.5,1.2-9.3,5.7-10.6
					C207.4,327.8,212.2,330.4,213.6,334.9z"/>
				<path d="M192.9,287.1c0.7,2.4-0.6,5-3.1,5.7c-2.4,0.7-5-0.6-5.7-3.1c-0.7-2.4,0.6-5,3.1-5.7
					C189.7,283.3,192.2,284.7,192.9,287.1z"/>
			</g>
			<g>
				<path d="M637.4,289.4c-0.3,2-2.2,3.4-4.2,3.1c-2-0.3-3.4-2.2-3.2-4.2c0.3-2,2.2-3.5,4.2-3.2
					C636.3,285.5,637.7,287.3,637.4,289.4z"/>
				<path d="M622.3,345.2c-0.7,4.6-4.9,7.8-9.5,7.1c-4.6-0.7-7.8-4.9-7.1-9.5c0.7-4.6,4.9-7.8,9.5-7.1
					C619.8,336.4,623,340.6,622.3,345.2z"/>
				<path d="M594.2,395.8c-0.9,6.4-6.9,10.8-13.3,9.9c-6.4-0.9-10.8-6.9-9.9-13.3c0.9-6.4,6.9-10.8,13.3-9.9
					C590.7,383.4,595.2,389.4,594.2,395.8z"/>
				<path d="M554.8,438.1c-1.1,7.8-8.4,13.2-16.2,12.1c-7.8-1.1-13.2-8.4-12.1-16.2c1.1-7.8,8.4-13.2,16.2-12.1
					C550.5,423,556,430.3,554.8,438.1z"/>
				<path d="M506.5,469.9c-1.3,8.8-9.4,14.9-18.2,13.6c-8.8-1.3-14.9-9.4-13.6-18.2c1.3-8.8,9.4-14.9,18.2-13.6
					C501.6,452.9,507.7,461.1,506.5,469.9z"/>
				<path d="M451.9,489.1c-1.4,9.4-10.1,16-19.6,14.6c-9.4-1.4-16-10.1-14.6-19.6c1.4-9.4,10.1-16,19.6-14.6
					C446.7,471,453.3,479.7,451.9,489.1z"/>
				<path d="M394.3,494.7c-1.4,9.7-10.4,16.5-20.2,15c-9.7-1.4-16.4-10.4-15-20.2c1.4-9.7,10.4-16.5,20.2-15
					C389,476,395.7,485,394.3,494.7z"/>
				<path d="M337.2,486.4c-1.4,9.8-10.5,16.5-20.3,15.1c-9.8-1.4-16.5-10.5-15.1-20.3c1.4-9.8,10.5-16.5,20.3-15.1
					C331.8,467.6,338.6,476.6,337.2,486.4z"/>
				<path d="M283.8,464.7c-1.4,9.6-10.3,16.2-19.9,14.8c-9.6-1.4-16.2-10.3-14.8-19.9c1.4-9.6,10.3-16.2,19.9-14.8
					C278.5,446.2,285.2,455.1,283.8,464.7z"/>
				<path d="M237.2,430.8c-1.3,9.1-9.7,15.3-18.8,14c-9.1-1.3-15.3-9.7-14-18.8c1.3-9,9.7-15.3,18.7-14
					C232.3,413.3,238.5,421.7,237.2,430.8z"/>
				<path d="M200.1,386.6c-1.2,8.2-8.8,13.9-17,12.7c-8.2-1.2-13.9-8.8-12.7-17c1.2-8.2,8.8-13.9,17-12.7
					C195.7,370.8,201.3,378.4,200.1,386.6z"/>
				<path d="M174.6,334.8c-1,6.9-7.4,11.7-14.3,10.7c-6.9-1-11.7-7.4-10.7-14.3c1-6.9,7.4-11.7,14.3-10.7
					C170.9,321.5,175.6,327.9,174.6,334.8z"/>
				<path d="M162.3,278.4c-0.8,5.2-5.6,8.8-10.8,8c-5.2-0.8-8.8-5.6-8-10.8c0.8-5.2,5.6-8.8,10.8-8
					C159.5,268.4,163.1,273.2,162.3,278.4z"/>
				<path d="M164,220.6c-0.4,2.8-3,4.7-5.7,4.3c-2.8-0.4-4.7-3-4.3-5.7c0.4-2.8,3-4.7,5.7-4.3C162.5,215.3,164.4,217.8,164,220.6z"
					/>
			</g>
			<g>
				<path d="M610.6,431.6c-1.3,1.9-3.8,2.5-5.7,1.2c-1.9-1.3-2.4-3.8-1.2-5.7c1.3-1.9,3.8-2.4,5.7-1.2
					C611.3,427.2,611.8,429.7,610.6,431.6z"/>
				<path d="M569.1,480.8c-2.8,4.3-8.6,5.5-12.9,2.7c-4.3-2.8-5.5-8.6-2.7-12.9c2.8-4.3,8.6-5.5,12.9-2.7
					C570.7,470.7,571.9,476.5,569.1,480.8z"/>
				<path d="M517.1,518.5c-3.9,6-12,7.7-18,3.7c-6-3.9-7.7-12-3.7-18c3.9-6,12-7.7,18-3.8C519.3,504.4,521,512.5,517.1,518.5z"/>
				<path d="M457.5,542.6c-4.8,7.3-14.7,9.4-22,4.6c-7.3-4.8-9.4-14.7-4.6-22c4.8-7.3,14.7-9.4,22-4.6
					C460.3,525.4,462.3,535.3,457.5,542.6z"/>
				<path d="M393.9,551.9c-5.4,8.2-16.5,10.5-24.7,5.1c-8.2-5.4-10.5-16.5-5.1-24.7c5.4-8.2,16.5-10.5,24.7-5.1
					C397,532.6,399.3,543.6,393.9,551.9z"/>
				<path d="M329.9,545.7c-5.8,8.8-17.7,11.3-26.5,5.5c-8.9-5.8-11.3-17.7-5.5-26.5c5.8-8.9,17.7-11.3,26.5-5.5
					C333.3,524.9,335.7,536.8,329.9,545.7z"/>
				<path d="M269.3,524.2c-6,9.1-18.2,11.7-27.4,5.7c-9.1-6-11.7-18.2-5.7-27.4c6-9.1,18.2-11.7,27.4-5.7
					C272.7,502.9,275.3,515.1,269.3,524.2z"/>
				<path d="M215.6,489.1c-6,9.2-18.3,11.7-27.5,5.7c-9.2-6-11.7-18.3-5.7-27.5c6-9.2,18.3-11.7,27.5-5.7
					C219.1,467.6,221.7,479.9,215.6,489.1z"/>
				<path d="M172.1,442.1c-5.9,9-18,11.5-27,5.6c-9-5.9-11.5-18-5.6-27c5.9-9,18-11.5,27-5.6C175.5,421.1,178,433.1,172.1,442.1z"/>
				<path d="M141.1,386.1c-5.6,8.5-17,10.9-25.5,5.3c-8.5-5.6-10.9-17-5.3-25.5c5.6-8.5,17-10.9,25.5-5.3
					C144.3,366.2,146.7,377.6,141.1,386.1z"/>
				<path d="M124.5,324.2c-5,7.7-15.4,9.8-23,4.8c-7.7-5-9.8-15.4-4.8-23c5-7.7,15.4-9.8,23-4.8
					C127.4,306.2,129.6,316.5,124.5,324.2z"/>
				<path d="M123.2,260.1c-4.2,6.5-12.9,8.3-19.4,4c-6.5-4.2-8.3-12.9-4-19.4c4.2-6.5,12.9-8.3,19.4-4
					C125.6,244.9,127.4,253.6,123.2,260.1z"/>
				<path d="M137.3,197.5c-3.2,4.9-9.7,6.2-14.6,3c-4.9-3.2-6.2-9.7-3-14.6c3.2-4.9,9.7-6.2,14.6-3
					C139.1,186.1,140.5,192.6,137.3,197.5z"/>
				<path d="M166.1,140.1c-1.7,2.6-5.2,3.3-7.8,1.6c-2.6-1.7-3.3-5.2-1.6-7.8c1.7-2.6,5.2-3.3,7.8-1.6
					C167.1,134,167.8,137.5,166.1,140.1z"/>
			</g>
		</g>
	</g>
	<g id="Vector_Smart_Object_00000040549807072532613520000003445114273976270740_" transform="translate(857 381)">
		<path id="Path_3_00000123415415586954207680000005645911711669745814_" d="M-375.2-293.7h-220.2l10.6,18.5h173.7l-24.7,42.9
			h-152.1l83.6,130.7l-19.3,35.1l-134.4-208.7l50.4,0l-10.6-18.5l-24.8-43.1h332.3L-484.1-5.3l-25.6-39.8L-375.2-293.7z"/>
	</g>
</g>
</svg>
