<svg xmlns="http://www.w3.org/2000/svg" width="30.299" height="30.299" viewBox="0 0 30.299 30.299">
  <g id="testimonial" transform="translate(0 -0.005)">
    <g id="Group_1818" data-name="Group 1818" transform="translate(3.196 0.005)">
      <g id="Group_1817" data-name="Group 1817">
        <path id="Path_14885" data-name="Path 14885" d="M58.134,4.244H57.057c.162-1.2.825-1.259,1.13-1.287a.592.592,0,0,0,.538-.589V.6A.592.592,0,0,0,58.1.006C56.23.111,54,1.055,54,4.958v3.08a.933.933,0,0,0,.932.932h3.2a.933.933,0,0,0,.932-.932V5.176A.933.933,0,0,0,58.134,4.244Zm-.251,3.542h-2.7V4.958c0-2.723,1.211-3.483,2.358-3.7v.622c-.792.241-1.7.954-1.7,2.954a.592.592,0,0,0,.592.592h1.454Z" transform="translate(-54 -0.005)" fill="#3d5aa9"/>
      </g>
    </g>
    <g id="Group_1820" data-name="Group 1820" transform="translate(9.246 0.005)">
      <g id="Group_1819" data-name="Group 1819">
        <path id="Path_14886" data-name="Path 14886" d="M160.368,4.244h-1.077c.162-1.2.825-1.259,1.13-1.287a.592.592,0,0,0,.538-.589V.6a.592.592,0,0,0-.625-.591c-1.871.105-4.1,1.05-4.1,4.952v3.08a.933.933,0,0,0,.932.932h3.2a.933.933,0,0,0,.932-.932V5.176A.933.933,0,0,0,160.368,4.244Zm-.251,3.542h-2.7V4.958c0-2.723,1.211-3.483,2.358-3.7v.622c-.792.241-1.7.954-1.7,2.954a.592.592,0,0,0,.592.592h1.454Z" transform="translate(-156.234 -0.005)" fill="#3d5aa9"/>
      </g>
    </g>
    <g id="Group_1822" data-name="Group 1822" transform="translate(15.86 4.612)">
      <g id="Group_1821" data-name="Group 1821">
        <path id="Path_14887" data-name="Path 14887" d="M269.01,78.038a.591.591,0,1,0,.173.418A.6.6,0,0,0,269.01,78.038Z" transform="translate(-268 -77.865)" fill="#3d5aa9"/>
      </g>
    </g>
    <g id="Group_1824" data-name="Group 1824" transform="translate(0 4.612)">
      <g id="Group_1823" data-name="Group 1823">
        <path id="Path_14888" data-name="Path 14888" d="M19.781,77.864h-.746a.592.592,0,1,0,0,1.184h.746a9.335,9.335,0,0,1,1.926,18.47.592.592,0,0,0-.47.579v3.439L17.592,97.89a.592.592,0,0,0-.418-.173H10.518A9.337,9.337,0,0,1,2.355,83.852a.592.592,0,1,0-1.034-.575,10.52,10.52,0,0,0,9.2,15.623h6.411l4.482,4.482a.592.592,0,0,0,1.01-.418v-4.4a10.519,10.519,0,0,0-2.639-20.7Z" transform="translate(0 -77.864)" fill="#3d5aa9"/>
      </g>
    </g>
    <g id="Group_1826" data-name="Group 1826" transform="translate(7.275 10.508)">
      <g id="Group_1825" data-name="Group 1825">
        <path id="Path_14889" data-name="Path 14889" d="M138.094,177.492H123.529a.592.592,0,1,0,0,1.184h14.565a.592.592,0,1,0,0-1.184Z" transform="translate(-122.937 -177.492)" fill="#3d5aa9"/>
      </g>
    </g>
    <g id="Group_1828" data-name="Group 1828" transform="translate(7.275 13.664)">
      <g id="Group_1827" data-name="Group 1827">
        <path id="Path_14890" data-name="Path 14890" d="M138.094,230.825H123.529a.592.592,0,1,0,0,1.184h14.565a.592.592,0,1,0,0-1.184Z" transform="translate(-122.937 -230.825)" fill="#3d5aa9"/>
      </g>
    </g>
    <g id="Group_1830" data-name="Group 1830" transform="translate(7.275 16.821)">
      <g id="Group_1829" data-name="Group 1829">
        <path id="Path_14891" data-name="Path 14891" d="M138.094,284.158H123.529a.592.592,0,1,0,0,1.184h14.565a.592.592,0,1,0,0-1.184Z" transform="translate(-122.937 -284.158)" fill="#3d5aa9"/>
      </g>
    </g>
    <g id="Group_1832" data-name="Group 1832" transform="translate(14.077 19.977)">
      <g id="Group_1831" data-name="Group 1831">
        <path id="Path_14892" data-name="Path 14892" d="M246.227,337.492h-7.764a.592.592,0,0,0,0,1.184h7.764a.592.592,0,1,0,0-1.184Z" transform="translate(-237.871 -337.492)" fill="#3d5aa9"/>
      </g>
    </g>
    <g id="Group_1834" data-name="Group 1834" transform="translate(10.738 19.977)">
      <g id="Group_1833" data-name="Group 1833">
        <path id="Path_14893" data-name="Path 14893" d="M182.047,337.491h-.01a.592.592,0,1,0,0,1.184h.01a.592.592,0,1,0,0-1.184Z" transform="translate(-181.446 -337.491)" fill="#3d5aa9"/>
      </g>
    </g>
  </g>
</svg>
