<svg id="Capa_1" data-name="Capa 1" xmlns="http://www.w3.org/2000/svg" viewBox="0 0 540.85 507"><defs><style>.cls-1{fill:#fff;}.cls-1,.cls-2,.cls-3,.cls-4,.cls-5{fill-rule:evenodd;}.cls-2{fill:#b5c4cf;}.cls-3{fill:#d7e7ec;}.cls-4{fill:#edf3f4;}.cls-5,.cls-6{fill:#9aafb7;}.cls-7{fill:#06a312;}.cls-8{fill:#fafafa;}</style></defs><path class="cls-1" d="M67.7,335.81.3,148.41a5.32,5.32,0,0,1,3.2-6.75C92.11,109.79,192,80.15,277.3,43.73c3.82-2.4,6.81,0,8.46,4.52L391.65,321.19l28.75,80a5.29,5.29,0,0,1-3.17,6.75L214.61,480.78l-79,28.4a5.28,5.28,0,0,1-6.75-3.17Z" transform="translate(0 -2.5)"/><path class="cls-1" d="M123.88,273.62,90.23,77.36a5.28,5.28,0,0,1,4.28-6.1L326.27,31.52l53.08-8.74c2.91-1.26,7.63.2,8.75,6.69l57.33,286.3,14.34,83.75a5.29,5.29,0,0,1-4.28,6.1L243.27,442l-82.74,14.2a5.33,5.33,0,0,1-6.1-4.31Z" transform="translate(0 -2.5)"/><path class="cls-1" d="M188.82,215.76V404.45A5.51,5.51,0,0,0,194.3,410H506.51a5.52,5.52,0,0,0,5.49-5.51V68.35H456.25c-5.36,0-16.51.76-16.51-11.41L439.62,2.5H194.3A5.5,5.5,0,0,0,188.81,8V215.75Z" transform="translate(0 -2.5)"/><path class="cls-2" d="M95.81,109.9c-31.4,10.57-62.5,21-92.31,31.76a5.32,5.32,0,0,0-3.2,6.75l67.4,187.4L128.87,506a5.28,5.28,0,0,0,6.75,3.17l79-28.41,180-64.7Z" transform="translate(0 -2.5)"/><path class="cls-3" d="M188.82,55.09,94.51,71.26a5.29,5.29,0,0,0-4.28,6.1l5.58,32.55,28.08,163.71L154.43,451.9a5.34,5.34,0,0,0,6.1,4.31L243.27,442l151.31-25.94L430.17,410H411.54Z" transform="translate(0 -2.5)"/><path class="cls-4" d="M512,315.8V67.5c0-1.58-.67-1.85-3.11-4.22L448.71,5.88c-2.84-2.7-3.31-3.38-5-3.38H194.3A5.51,5.51,0,0,0,188.81,8V404.45A5.52,5.52,0,0,0,194.3,410H506.51a5.52,5.52,0,0,0,5.49-5.51Z" transform="translate(0 -2.5)"/><path class="cls-2" d="M188.82,55.09l-22.1,3.78V424.73a5.5,5.5,0,0,0,5.49,5.51H311.9l82.68-14.17,35.59-6.1H194.3a5.52,5.52,0,0,1-5.48-5.52V55.09Z" transform="translate(0 -2.5)"/><path class="cls-5" d="M123.88,273.62,95.81,109.9,73.1,117.56l3.49,20.34,28.08,163.72L135.24,479.9a5.3,5.3,0,0,0,6.07,4.31L224.05,470l39.26-6.72,118.24-42.55-1.41-2.2-68.24,11.7L243.27,442l-82.74,14.21a5.35,5.35,0,0,1-6.1-4.32Z" transform="translate(0 -2.5)"/><path class="cls-3" d="M512,315.8V68.35c0-3-1-3-3.11-5.07L448.71,5.88c-2.84-2.7-3.31-3.38-5-3.38H378.56c74.61,99.89,78.87,280,23.5,392.35-2.55,5.23-5.22,10.24-8,15.11H506.51a5.52,5.52,0,0,0,5.49-5.51Z" transform="translate(0 -2.5)"/><path class="cls-1" d="M439.73,56.94c0,12.17,11.15,11.41,16.52,11.41H512V67.5c0-1.58-.67-1.85-3.11-4.23L448.71,5.87c-2.84-2.7-3.31-3.37-5-3.37h-4.11Z" transform="translate(0 -2.5)"/><path class="cls-2" d="M508.89,63.28,448.71,5.88c-2.84-2.71-3.31-3.38-5-3.38h-4.11l.11,54.44c0,12.17,11.15,11.41,16.52,11.41H512V67.5C512,65.92,511.33,65.65,508.89,63.28Z" transform="translate(0 -2.5)"/><path class="cls-6" d="M462.41,122.51H241.51a7.73,7.73,0,1,1,0-15.46h220.9a7.73,7.73,0,0,1,0,15.46Z" transform="translate(0 -2.5)"/><path class="cls-6" d="M462.41,177.41H241.51a7.73,7.73,0,1,1,0-15.46h220.9a7.73,7.73,0,0,1,0,15.46Z" transform="translate(0 -2.5)"/><path class="cls-6" d="M462.41,232.32H241.51a7.73,7.73,0,1,1,0-15.46h220.9a7.73,7.73,0,0,1,0,15.46Z" transform="translate(0 -2.5)"/><path class="cls-6" d="M462.41,287.22H241.51a7.73,7.73,0,1,1,0-15.46h220.9a7.73,7.73,0,0,1,0,15.46Z" transform="translate(0 -2.5)"/><path class="cls-6" d="M462.41,342.13H241.51a7.73,7.73,0,0,1,0-15.46h220.9a7.73,7.73,0,1,1,0,15.46Z" transform="translate(0 -2.5)"/><path class="cls-7" d="M430.17,242.67A110.68,110.68,0,1,0,540.85,353.35,110.8,110.8,0,0,0,430.17,242.67Z" transform="translate(0 -2.5)"/><path class="cls-8" d="M486.27,329.89l-60,59.95a9.2,9.2,0,0,1-13,0l-30-30a9.22,9.22,0,0,1,13-13l23.45,23.45,53.44-53.43a9.22,9.22,0,0,1,13,13Z" transform="translate(0 -2.5)"/></svg>