<svg id="Line_Gradient" height="512" viewBox="0 0 32 32" width="512" xmlns="http://www.w3.org/2000/svg" xmlns:xlink="http://www.w3.org/1999/xlink" data-name="Line Gradient"><linearGradient id="linear-gradient" gradientUnits="userSpaceOnUse" x1="2" x2="30" y1="16" y2="16"><stop offset="0" stop-color="#00c0ff"/><stop offset="1" stop-color="#5558ff"/></linearGradient><path d="m2 10.75977v-3.75977a5.00588 5.00588 0 0 1 5-5h3.75977a1 1 0 0 1 0 2h-3.75977a3.00328 3.00328 0 0 0 -3 3v3.75977a1 1 0 0 1 -2 0zm8.75977 17.24023h-3.75977a3.00328 3.00328 0 0 1 -3-3v-3.75977a1 1 0 0 0 -2 0v3.75977a5.00588 5.00588 0 0 0 5 5h3.75977a1 1 0 1 0 0-2zm18.24023-7.75977a.99974.99974 0 0 0 -1 1v3.75977a3.00328 3.00328 0 0 1 -3 3h-3.75977a1 1 0 1 0 0 2h3.75977a5.00588 5.00588 0 0 0 5-5v-3.75977a.99974.99974 0 0 0 -1-1zm-4-18.24023h-3.75977a1 1 0 0 0 0 2h3.75977a3.00328 3.00328 0 0 1 3 3v3.75977a1 1 0 1 0 2 0v-3.75977a5.00588 5.00588 0 0 0 -5-5zm-14 5h10a4.00427 4.00427 0 0 1 4 4v10a4.00427 4.00427 0 0 1 -4 4h-10a4.00427 4.00427 0 0 1 -4-4v-10a4.00427 4.00427 0 0 1 4-4zm10 2h-10a2.00229 2.00229 0 0 0 -2 2v10a2.00229 2.00229 0 0 0 2 2h10a2.00229 2.00229 0 0 0 2-2v-10a2.00229 2.00229 0 0 0 -2-2z" fill="url(#linear-gradient)"/></svg>