<svg xmlns="http://www.w3.org/2000/svg" width="724.129" height="75.791" viewBox="0 0 724.129 75.791">
  <g id="Group_3" data-name="Group 3" transform="translate(-157.116 -770.009)">
    <g id="Ellipse_6" data-name="Ellipse 6" transform="translate(497 772)" fill="#fff" stroke="#c5c5c5" stroke-width="5">
      <ellipse cx="18.5" cy="19" rx="18.5" ry="19" stroke="none"/>
      <ellipse cx="18.5" cy="19" rx="16" ry="16.5" fill="none"/>
    </g>
    <g id="Ellipse_7" data-name="Ellipse 7" transform="translate(722 772)" fill="#fff" stroke="#c5c5c5" stroke-width="5">
      <circle cx="19" cy="19" r="19" stroke="none"/>
      <circle cx="19" cy="19" r="16.5" fill="none"/>
    </g>
    <g id="Ellipse_8" data-name="Ellipse 8" transform="translate(609 772)" fill="#fff" stroke="#c5c5c5" stroke-width="5">
      <circle cx="19" cy="19" r="19" stroke="none"/>
      <circle cx="19" cy="19" r="16.5" fill="none"/>
    </g>
    <g id="Ellipse_9" data-name="Ellipse 9" transform="translate(383 772)" fill="#fff" stroke="#c5c5c5" stroke-width="5">
      <circle cx="19" cy="19" r="19" stroke="none"/>
      <circle cx="19" cy="19" r="16.5" fill="none"/>
    </g>
    <g id="Ellipse_10" data-name="Ellipse 10" transform="translate(835 772)" fill="#fff" stroke="#c5c5c5" stroke-width="5">
      <circle cx="19" cy="19" r="19" stroke="none"/>
      <circle cx="19" cy="19" r="16.5" fill="none"/>
    </g>
    <path id="Path_2080" data-name="Path 2080" d="M-13.768,0H-17.8V-9.356h4.031a4.918,4.918,0,0,1,1.447.2,3.089,3.089,0,0,1,1.593,1.187,4.164,4.164,0,0,1,.667,1.511,7.252,7.252,0,0,1,.178,1.549,6.219,6.219,0,0,1-.749,3.161A3.38,3.38,0,0,1-13.768,0Zm1.454-6.97A1.9,1.9,0,0,0-14.1-7.731h-1.8v6.106h1.8a1.947,1.947,0,0,0,1.93-1.365,4.814,4.814,0,0,0,.3-1.784A4.436,4.436,0,0,0-12.314-6.97Zm7.236,1.72a1.5,1.5,0,0,0-1.466.711,2.766,2.766,0,0,0-.209,1.231V0H-8.576V-6.919h1.727v1.206a3.825,3.825,0,0,1,.73-.946A1.987,1.987,0,0,1-4.8-7.084q.051,0,.086,0l.156.01v1.854q-.171-.019-.3-.025T-5.078-5.25Zm3.44-1.669V0H-3.472V-6.919Zm0-2.495v1.669H-3.472V-9.414ZM-.565-6.919H1.466l1.441,5.1,1.473-5.1H6.322L3.828,0H1.917ZM13.267-2.031a2.3,2.3,0,0,1-.641,1.25A3.141,3.141,0,0,1,10.137.229a3.509,3.509,0,0,1-2.33-.851A3.43,3.43,0,0,1,6.8-3.39a3.847,3.847,0,0,1,.911-2.755A3.114,3.114,0,0,1,10.074-7.1a3.626,3.626,0,0,1,1.555.324,2.724,2.724,0,0,1,1.143,1.022A3.487,3.487,0,0,1,13.3-4.329a9.224,9.224,0,0,1,.057,1.371H8.62A1.719,1.719,0,0,0,9.274-1.5a1.54,1.54,0,0,0,.9.26,1.3,1.3,0,0,0,.908-.317,1.507,1.507,0,0,0,.336-.476Zm-1.79-2.12a1.575,1.575,0,0,0-.435-1.089,1.35,1.35,0,0,0-.968-.371,1.229,1.229,0,0,0-.974.394,1.964,1.964,0,0,0-.435,1.066Zm6.576-1.1a1.5,1.5,0,0,0-1.466.711,2.766,2.766,0,0,0-.209,1.231V0H14.555V-6.919h1.727v1.206a3.825,3.825,0,0,1,.73-.946,1.987,1.987,0,0,1,1.32-.425q.051,0,.086,0l.156.01v1.854q-.171-.019-.3-.025T18.053-5.25ZM-17.8,16h-1.822V6.644h2.844l1.7,7.357,1.688-7.357h2.812V16H-12.4V9.671q0-.273.006-.765t.006-.759L-14.158,16h-1.9l-1.758-7.852q0,.267.006.759t.006.765ZM-3.139,9.957a4.037,4.037,0,0,1,.876,2.6,4.011,4.011,0,0,1-.876,2.606A3.219,3.219,0,0,1-5.8,16.241a3.219,3.219,0,0,1-2.66-1.082,4.011,4.011,0,0,1-.876-2.606,4.037,4.037,0,0,1,.876-2.6,3.2,3.2,0,0,1,2.66-1.1A3.2,3.2,0,0,1-3.139,9.957Zm-2.666.432a1.446,1.446,0,0,0-1.222.562,2.6,2.6,0,0,0-.428,1.6,2.614,2.614,0,0,0,.428,1.606,1.442,1.442,0,0,0,1.222.565,1.434,1.434,0,0,0,1.219-.565,2.628,2.628,0,0,0,.425-1.606,2.614,2.614,0,0,0-.425-1.6A1.437,1.437,0,0,0-5.8,10.389Zm8.595,5.8a2.469,2.469,0,0,1-1.377-.343A2.751,2.751,0,0,1,.74,15.13V16H-1.031V6.656h1.8V9.982a2.639,2.639,0,0,1,.755-.736,2.244,2.244,0,0,1,1.244-.317,2.563,2.563,0,0,1,2.136.984,3.994,3.994,0,0,1,.771,2.539,4.464,4.464,0,0,1-.762,2.672A2.47,2.47,0,0,1,2.79,16.184Zm.99-3.542a3.348,3.348,0,0,0-.19-1.219,1.326,1.326,0,0,0-1.333-.914A1.346,1.346,0,0,0,.9,11.4a3.359,3.359,0,0,0-.19,1.231,2.58,2.58,0,0,0,.394,1.473,1.348,1.348,0,0,0,1.2.584,1.242,1.242,0,0,0,1.085-.565A2.58,2.58,0,0,0,3.78,12.642ZM8.833,9.081V16H7V9.081Zm0-2.495V8.256H7V6.586Zm1.79.057h1.809V16H10.623Zm9.5,7.325a2.3,2.3,0,0,1-.641,1.25,3.141,3.141,0,0,1-2.488,1.009,3.509,3.509,0,0,1-2.33-.851,3.43,3.43,0,0,1-1.009-2.768,3.847,3.847,0,0,1,.911-2.755A3.114,3.114,0,0,1,16.926,8.9a3.626,3.626,0,0,1,1.555.324,2.724,2.724,0,0,1,1.143,1.022,3.487,3.487,0,0,1,.527,1.428,9.224,9.224,0,0,1,.057,1.371H15.472a1.719,1.719,0,0,0,.654,1.46,1.54,1.54,0,0,0,.9.26,1.3,1.3,0,0,0,.908-.317,1.507,1.507,0,0,0,.336-.476Zm-1.79-2.12a1.575,1.575,0,0,0-.435-1.089,1.35,1.35,0,0,0-.968-.371,1.229,1.229,0,0,0-.974.394,1.964,1.964,0,0,0-.435,1.066Z" transform="translate(176.74 827)" fill="#242021"/>
    <line id="Line_3" data-name="Line 3" x2="75.761" transform="translate(194.857 791.211)" fill="none" stroke="#3c58a8" stroke-width="5"/>
    <line id="Line_4" data-name="Line 4" x2="76.302" transform="translate(307.415 791.211)" fill="none" stroke="#c5c5c5" stroke-width="5"/>
    <line id="Line_5" data-name="Line 5" x2="75.761" transform="translate(421.056 791.211)" fill="none" stroke="#c5c5c5" stroke-width="5"/>
    <line id="Line_6" data-name="Line 6" x2="75.761" transform="translate(533.615 791.211)" fill="none" stroke="#c5c5c5" stroke-width="5"/>
    <line id="Line_7" data-name="Line 7" x2="75.761" transform="translate(646.714 791.211)" fill="none" stroke="#c5c5c5" stroke-width="5"/>
    <line id="Line_8" data-name="Line 8" x2="75.761" transform="translate(759.814 791.211)" fill="none" stroke="#c5c5c5" stroke-width="5"/>
    <path id="Path_2081" data-name="Path 2081" d="M-13.727-.7A3.814,3.814,0,0,1-16.406.26a4.036,4.036,0,0,1-3.174-1.295A5.183,5.183,0,0,1-20.735-4.6a5.139,5.139,0,0,1,1.314-3.777,3.915,3.915,0,0,1,2.907-1.155A3.931,3.931,0,0,1-13.06-7.985a3.353,3.353,0,0,1,.647,1.746h-1.955a2.641,2.641,0,0,0-.489-1.016,1.988,1.988,0,0,0-1.581-.609A1.959,1.959,0,0,0-18.119-7a4.135,4.135,0,0,0-.616,2.434,3.629,3.629,0,0,0,.651,2.358,2.056,2.056,0,0,0,1.654.784A1.891,1.891,0,0,0-14.863-2.1a2.923,2.923,0,0,0,.5-1.085h1.936A4.208,4.208,0,0,1-13.727-.7Zm2.9-5.472a2.954,2.954,0,0,1,2.463-.914,4.376,4.376,0,0,1,2.019.451,1.73,1.73,0,0,1,.882,1.7v3.174q0,.33.013.8a1.006,1.006,0,0,0,.108.482.649.649,0,0,0,.267.209V0H-7.043a2.015,2.015,0,0,1-.114-.394q-.032-.184-.051-.419a3.717,3.717,0,0,1-.863.692,2.6,2.6,0,0,1-1.32.336,2.27,2.27,0,0,1-1.552-.536,1.913,1.913,0,0,1-.613-1.52,1.973,1.973,0,0,1,.984-1.847,4.369,4.369,0,0,1,1.587-.444l.616-.076a2.824,2.824,0,0,0,.717-.159.544.544,0,0,0,.387-.514.61.61,0,0,0-.3-.587,1.844,1.844,0,0,0-.866-.162,1.129,1.129,0,0,0-.908.317,1.319,1.319,0,0,0-.254.635h-1.746A2.655,2.655,0,0,1-10.826-6.17ZM-9.48-1.308a.945.945,0,0,0,.622.209,1.842,1.842,0,0,0,1.076-.343,1.462,1.462,0,0,0,.511-1.25v-.673a1.966,1.966,0,0,1-.346.175,2.893,2.893,0,0,1-.479.124L-8.5-2.99a2.623,2.623,0,0,0-.819.248.83.83,0,0,0-.419.768A.794.794,0,0,0-9.48-1.308Zm9.1-3.942a1.5,1.5,0,0,0-1.466.711,2.766,2.766,0,0,0-.209,1.231V0H-3.875V-6.919h1.727v1.206a3.825,3.825,0,0,1,.73-.946A1.987,1.987,0,0,1-.1-7.084q.051,0,.086,0l.156.01v1.854q-.171-.019-.3-.025T-.378-5.25Zm5.059,0a1.5,1.5,0,0,0-1.466.711,2.766,2.766,0,0,0-.209,1.231V0H1.184V-6.919H2.91v1.206a3.825,3.825,0,0,1,.73-.946,1.987,1.987,0,0,1,1.32-.425q.051,0,.086,0l.156.01v1.854q-.171-.019-.3-.025T4.681-5.25Zm3.44-1.669V0H6.287V-6.919Zm0-2.495v1.669H6.287V-9.414ZM15.8-2.031a2.3,2.3,0,0,1-.641,1.25A3.141,3.141,0,0,1,12.667.229a3.509,3.509,0,0,1-2.33-.851A3.43,3.43,0,0,1,9.328-3.39a3.847,3.847,0,0,1,.911-2.755A3.114,3.114,0,0,1,12.6-7.1a3.626,3.626,0,0,1,1.555.324A2.724,2.724,0,0,1,15.3-5.757a3.487,3.487,0,0,1,.527,1.428,9.224,9.224,0,0,1,.057,1.371H11.15A1.719,1.719,0,0,0,11.8-1.5a1.54,1.54,0,0,0,.9.26,1.3,1.3,0,0,0,.908-.317,1.507,1.507,0,0,0,.336-.476Zm-1.79-2.12a1.575,1.575,0,0,0-.435-1.089,1.35,1.35,0,0,0-.968-.371,1.229,1.229,0,0,0-.974.394,1.964,1.964,0,0,0-.435,1.066Zm6.576-1.1a1.5,1.5,0,0,0-1.466.711,2.766,2.766,0,0,0-.209,1.231V0H17.085V-6.919h1.727v1.206a3.825,3.825,0,0,1,.73-.946,1.987,1.987,0,0,1,1.32-.425q.051,0,.086,0l.156.01v1.854q-.171-.019-.3-.025T20.582-5.25ZM-13.457,12.636h-1.987V16h-1.942V6.644h4.075a3.319,3.319,0,0,1,2.247.724,2.8,2.8,0,0,1,.838,2.241,2.872,2.872,0,0,1-.838,2.342A3.69,3.69,0,0,1-13.457,12.636Zm.914-1.949a1.353,1.353,0,0,0,.381-1.066,1.266,1.266,0,0,0-.384-1.041,1.667,1.667,0,0,0-1.076-.311h-1.822v2.755h1.822A1.592,1.592,0,0,0-12.543,10.687Zm9.407-.73a4.037,4.037,0,0,1,.876,2.6,4.011,4.011,0,0,1-.876,2.606A3.219,3.219,0,0,1-5.8,16.241a3.219,3.219,0,0,1-2.66-1.082,4.011,4.011,0,0,1-.876-2.606,4.037,4.037,0,0,1,.876-2.6,3.2,3.2,0,0,1,2.66-1.1A3.2,3.2,0,0,1-3.136,9.957Zm-2.666.432a1.446,1.446,0,0,0-1.222.562,2.6,2.6,0,0,0-.428,1.6,2.614,2.614,0,0,0,.428,1.606,1.442,1.442,0,0,0,1.222.565,1.434,1.434,0,0,0,1.219-.565,2.628,2.628,0,0,0,.425-1.606,2.614,2.614,0,0,0-.425-1.6A1.437,1.437,0,0,0-5.8,10.389Zm8.315.362a1.5,1.5,0,0,0-1.466.711,2.766,2.766,0,0,0-.209,1.231V16H-.984V9.081H.743v1.206a3.825,3.825,0,0,1,.73-.946,1.987,1.987,0,0,1,1.32-.425q.051,0,.086,0l.156.01v1.854q-.171-.019-.3-.025T2.514,10.75Zm4.748,3.961v1.352L6.4,16.1a2.3,2.3,0,0,1-1.752-.444,1.323,1.323,0,0,1-.3-.958V10.433H3.383V9.145h.965V7.215h1.79v1.93H7.262v1.289H6.138v3.656a.823.823,0,0,0,.108.53,1.188,1.188,0,0,0,.66.1q.083,0,.175,0T7.262,14.711ZM8.684,9.83a2.954,2.954,0,0,1,2.463-.914,4.376,4.376,0,0,1,2.019.451,1.73,1.73,0,0,1,.882,1.7v3.174q0,.33.013.8a1.006,1.006,0,0,0,.108.482.649.649,0,0,0,.267.209V16H12.467a2.015,2.015,0,0,1-.114-.394q-.032-.184-.051-.419a3.717,3.717,0,0,1-.863.692,2.6,2.6,0,0,1-1.32.336,2.27,2.27,0,0,1-1.552-.536,1.913,1.913,0,0,1-.613-1.52,1.973,1.973,0,0,1,.984-1.847,4.369,4.369,0,0,1,1.587-.444l.616-.076a2.824,2.824,0,0,0,.717-.159.544.544,0,0,0,.387-.514.61.61,0,0,0-.3-.587,1.844,1.844,0,0,0-.866-.162,1.129,1.129,0,0,0-.908.317,1.319,1.319,0,0,0-.254.635H8.176A2.655,2.655,0,0,1,8.684,9.83Zm1.346,4.862a.945.945,0,0,0,.622.209,1.842,1.842,0,0,0,1.076-.343,1.462,1.462,0,0,0,.511-1.25v-.673a1.966,1.966,0,0,1-.346.175,2.893,2.893,0,0,1-.479.124l-.406.076a2.623,2.623,0,0,0-.819.248.83.83,0,0,0-.419.768A.794.794,0,0,0,10.029,14.692Zm5.662-8.049H17.5V16H15.691Z" transform="translate(287.699 827)" fill="#242021"/>
    <path id="Path_2082" data-name="Path 2082" d="M-15.691,0h-4.24V-9.356h4.545a2.891,2.891,0,0,1,2.438,1,2.371,2.371,0,0,1,.432,1.428,2.088,2.088,0,0,1-.432,1.377,2.228,2.228,0,0,1-.711.533,2.086,2.086,0,0,1,1.082.825,2.473,2.473,0,0,1,.365,1.371,2.725,2.725,0,0,1-.419,1.492A2.585,2.585,0,0,1-13.3-.6a2.6,2.6,0,0,1-1.063.47A6.554,6.554,0,0,1-15.691,0Zm-.044-4.12h-2.33v2.495h2.3a2.256,2.256,0,0,0,.958-.165,1.175,1.175,0,0,0,.622-1.168,1,1,0,0,0-.6-1A2.416,2.416,0,0,0-15.736-4.12Zm.971-1.784a.875.875,0,0,0,.381-.819.837.837,0,0,0-.508-.863,3.594,3.594,0,0,0-1.117-.146h-2.057v2.063h2.3A1.912,1.912,0,0,0-14.765-5.9Zm7.522.654a1.5,1.5,0,0,0-1.466.711,2.766,2.766,0,0,0-.209,1.231V0H-10.74V-6.919h1.727v1.206a3.825,3.825,0,0,1,.73-.946,1.987,1.987,0,0,1,1.32-.425q.051,0,.086,0l.156.01v1.854q-.171-.019-.3-.025T-7.243-5.25ZM.108-6.043a4.037,4.037,0,0,1,.876,2.6A4.011,4.011,0,0,1,.108-.841,3.219,3.219,0,0,1-2.552.241,3.219,3.219,0,0,1-5.211-.841a4.011,4.011,0,0,1-.876-2.606,4.037,4.037,0,0,1,.876-2.6,3.2,3.2,0,0,1,2.66-1.1A3.2,3.2,0,0,1,.108-6.043Zm-2.666.432A1.446,1.446,0,0,0-3.78-5.05a2.6,2.6,0,0,0-.428,1.6A2.614,2.614,0,0,0-3.78-1.841a1.442,1.442,0,0,0,1.222.565,1.434,1.434,0,0,0,1.219-.565A2.628,2.628,0,0,0-.914-3.447a2.614,2.614,0,0,0-.425-1.6A1.437,1.437,0,0,0-2.558-5.611ZM8.626,0H6.443L4.786-2.958l-.749.781V0H2.26V-9.325H4.037v5.04l2.253-2.6H8.531L6.113-4.24Zm6.8-2.031a2.3,2.3,0,0,1-.641,1.25A3.141,3.141,0,0,1,12.3.229a3.509,3.509,0,0,1-2.33-.851A3.43,3.43,0,0,1,8.963-3.39a3.847,3.847,0,0,1,.911-2.755A3.114,3.114,0,0,1,12.238-7.1a3.626,3.626,0,0,1,1.555.324,2.724,2.724,0,0,1,1.143,1.022,3.487,3.487,0,0,1,.527,1.428,9.224,9.224,0,0,1,.057,1.371H10.785a1.719,1.719,0,0,0,.654,1.46,1.54,1.54,0,0,0,.9.26,1.3,1.3,0,0,0,.908-.317,1.507,1.507,0,0,0,.336-.476Zm-1.79-2.12a1.575,1.575,0,0,0-.435-1.089,1.35,1.35,0,0,0-.968-.371,1.229,1.229,0,0,0-.974.394,1.964,1.964,0,0,0-.435,1.066Zm6.576-1.1a1.5,1.5,0,0,0-1.466.711,2.766,2.766,0,0,0-.209,1.231V0H16.72V-6.919h1.727v1.206a3.825,3.825,0,0,1,.73-.946,1.987,1.987,0,0,1,1.32-.425q.051,0,.086,0l.156.01v1.854q-.171-.019-.3-.025T20.217-5.25ZM-13.457,12.636h-1.987V16h-1.942V6.644h4.075a3.319,3.319,0,0,1,2.247.724,2.8,2.8,0,0,1,.838,2.241,2.872,2.872,0,0,1-.838,2.342A3.69,3.69,0,0,1-13.457,12.636Zm.914-1.949a1.353,1.353,0,0,0,.381-1.066,1.266,1.266,0,0,0-.384-1.041,1.667,1.667,0,0,0-1.076-.311h-1.822v2.755h1.822A1.592,1.592,0,0,0-12.543,10.687Zm9.407-.73a4.037,4.037,0,0,1,.876,2.6,4.011,4.011,0,0,1-.876,2.606A3.219,3.219,0,0,1-5.8,16.241a3.219,3.219,0,0,1-2.66-1.082,4.011,4.011,0,0,1-.876-2.606,4.037,4.037,0,0,1,.876-2.6,3.2,3.2,0,0,1,2.66-1.1A3.2,3.2,0,0,1-3.136,9.957Zm-2.666.432a1.446,1.446,0,0,0-1.222.562,2.6,2.6,0,0,0-.428,1.6,2.614,2.614,0,0,0,.428,1.606,1.442,1.442,0,0,0,1.222.565,1.434,1.434,0,0,0,1.219-.565,2.628,2.628,0,0,0,.425-1.606,2.614,2.614,0,0,0-.425-1.6A1.437,1.437,0,0,0-5.8,10.389Zm8.315.362a1.5,1.5,0,0,0-1.466.711,2.766,2.766,0,0,0-.209,1.231V16H-.984V9.081H.743v1.206a3.825,3.825,0,0,1,.73-.946,1.987,1.987,0,0,1,1.32-.425q.051,0,.086,0l.156.01v1.854q-.171-.019-.3-.025T2.514,10.75Zm4.748,3.961v1.352L6.4,16.1a2.3,2.3,0,0,1-1.752-.444,1.323,1.323,0,0,1-.3-.958V10.433H3.383V9.145h.965V7.215h1.79v1.93H7.262v1.289H6.138v3.656a.823.823,0,0,0,.108.53,1.188,1.188,0,0,0,.66.1q.083,0,.175,0T7.262,14.711ZM8.684,9.83a2.954,2.954,0,0,1,2.463-.914,4.376,4.376,0,0,1,2.019.451,1.73,1.73,0,0,1,.882,1.7v3.174q0,.33.013.8a1.006,1.006,0,0,0,.108.482.649.649,0,0,0,.267.209V16H12.467a2.015,2.015,0,0,1-.114-.394q-.032-.184-.051-.419a3.717,3.717,0,0,1-.863.692,2.6,2.6,0,0,1-1.32.336,2.27,2.27,0,0,1-1.552-.536,1.913,1.913,0,0,1-.613-1.52,1.973,1.973,0,0,1,.984-1.847,4.369,4.369,0,0,1,1.587-.444l.616-.076a2.824,2.824,0,0,0,.717-.159.544.544,0,0,0,.387-.514.61.61,0,0,0-.3-.587,1.844,1.844,0,0,0-.866-.162,1.129,1.129,0,0,0-.908.317,1.319,1.319,0,0,0-.254.635H8.176A2.655,2.655,0,0,1,8.684,9.83Zm1.346,4.862a.945.945,0,0,0,.622.209,1.842,1.842,0,0,0,1.076-.343,1.462,1.462,0,0,0,.511-1.25v-.673a1.966,1.966,0,0,1-.346.175,2.893,2.893,0,0,1-.479.124l-.406.076a2.623,2.623,0,0,0-.819.248.83.83,0,0,0-.419.768A.794.794,0,0,0,10.029,14.692Zm5.662-8.049H17.5V16H15.691Z" transform="translate(402.304 827)" fill="#242021"/>
    <path id="Path_2083" data-name="Path 2083" d="M-21.738-9.356h2.088l2.031,7.1,2.05-7.1h2.031L-16.729,0h-1.847ZM-7.309-2.031A2.3,2.3,0,0,1-7.95-.781,3.141,3.141,0,0,1-10.439.229a3.509,3.509,0,0,1-2.33-.851A3.43,3.43,0,0,1-13.778-3.39a3.847,3.847,0,0,1,.911-2.755A3.114,3.114,0,0,1-10.5-7.1a3.626,3.626,0,0,1,1.555.324A2.724,2.724,0,0,1-7.8-5.757a3.487,3.487,0,0,1,.527,1.428A9.224,9.224,0,0,1-7.22-2.958h-4.735A1.719,1.719,0,0,0-11.3-1.5a1.54,1.54,0,0,0,.9.26,1.3,1.3,0,0,0,.908-.317,1.507,1.507,0,0,0,.336-.476ZM-9.1-4.151A1.575,1.575,0,0,0-9.534-5.24a1.35,1.35,0,0,0-.968-.371,1.229,1.229,0,0,0-.974.394,1.964,1.964,0,0,0-.435,1.066ZM-2.745-5.58A1.26,1.26,0,0,0-4.009-4.8a2.682,2.682,0,0,0-.178,1.054V0h-1.8V-6.906h1.746V-5.9a3.071,3.071,0,0,1,.66-.768,2.294,2.294,0,0,1,1.416-.419,2.671,2.671,0,0,1,1.755.562A2.284,2.284,0,0,1,.27-4.659V0H-1.584V-4.208a1.92,1.92,0,0,0-.146-.838A1.027,1.027,0,0,0-2.745-5.58ZM8.236-9.344V0H6.478V-.958a2.552,2.552,0,0,1-.882.9A2.477,2.477,0,0,1,4.364.216,2.571,2.571,0,0,1,2.323-.765a3.766,3.766,0,0,1-.828-2.517,4.332,4.332,0,0,1,.816-2.787,2.654,2.654,0,0,1,2.18-1.016,2.232,2.232,0,0,1,1.117.276,2.2,2.2,0,0,1,.793.765v-3.3ZM3.361-3.415a2.72,2.72,0,0,0,.381,1.53,1.268,1.268,0,0,0,1.143.578,1.336,1.336,0,0,0,1.168-.571,2.524,2.524,0,0,0,.4-1.479,2.268,2.268,0,0,0-.641-1.815A1.38,1.38,0,0,0,4.9-5.5a1.271,1.271,0,0,0-1.165.6A2.779,2.779,0,0,0,3.361-3.415ZM15.65-6.043a4.037,4.037,0,0,1,.876,2.6A4.011,4.011,0,0,1,15.65-.841,3.219,3.219,0,0,1,12.99.241a3.219,3.219,0,0,1-2.66-1.082,4.011,4.011,0,0,1-.876-2.606,4.037,4.037,0,0,1,.876-2.6,3.2,3.2,0,0,1,2.66-1.1A3.2,3.2,0,0,1,15.65-6.043Zm-2.666.432a1.446,1.446,0,0,0-1.222.562,2.6,2.6,0,0,0-.428,1.6,2.614,2.614,0,0,0,.428,1.606,1.442,1.442,0,0,0,1.222.565A1.434,1.434,0,0,0,14.2-1.841a2.628,2.628,0,0,0,.425-1.606,2.614,2.614,0,0,0-.425-1.6A1.437,1.437,0,0,0,12.984-5.611ZM21.3-5.25a1.5,1.5,0,0,0-1.466.711,2.766,2.766,0,0,0-.209,1.231V0H17.8V-6.919h1.727v1.206a3.825,3.825,0,0,1,.73-.946,1.987,1.987,0,0,1,1.32-.425q.051,0,.086,0l.156.01v1.854q-.171-.019-.3-.025T21.3-5.25ZM-13.457,12.636h-1.987V16h-1.942V6.644h4.075a3.319,3.319,0,0,1,2.247.724,2.8,2.8,0,0,1,.838,2.241,2.872,2.872,0,0,1-.838,2.342A3.69,3.69,0,0,1-13.457,12.636Zm.914-1.949a1.353,1.353,0,0,0,.381-1.066,1.266,1.266,0,0,0-.384-1.041,1.667,1.667,0,0,0-1.076-.311h-1.822v2.755h1.822A1.592,1.592,0,0,0-12.543,10.687Zm9.407-.73a4.037,4.037,0,0,1,.876,2.6,4.011,4.011,0,0,1-.876,2.606A3.219,3.219,0,0,1-5.8,16.241a3.219,3.219,0,0,1-2.66-1.082,4.011,4.011,0,0,1-.876-2.606,4.037,4.037,0,0,1,.876-2.6,3.2,3.2,0,0,1,2.66-1.1A3.2,3.2,0,0,1-3.136,9.957Zm-2.666.432a1.446,1.446,0,0,0-1.222.562,2.6,2.6,0,0,0-.428,1.6,2.614,2.614,0,0,0,.428,1.606,1.442,1.442,0,0,0,1.222.565,1.434,1.434,0,0,0,1.219-.565,2.628,2.628,0,0,0,.425-1.606,2.614,2.614,0,0,0-.425-1.6A1.437,1.437,0,0,0-5.8,10.389Zm8.315.362a1.5,1.5,0,0,0-1.466.711,2.766,2.766,0,0,0-.209,1.231V16H-.984V9.081H.743v1.206a3.825,3.825,0,0,1,.73-.946,1.987,1.987,0,0,1,1.32-.425q.051,0,.086,0l.156.01v1.854q-.171-.019-.3-.025T2.514,10.75Zm4.748,3.961v1.352L6.4,16.1a2.3,2.3,0,0,1-1.752-.444,1.323,1.323,0,0,1-.3-.958V10.433H3.383V9.145h.965V7.215h1.79v1.93H7.262v1.289H6.138v3.656a.823.823,0,0,0,.108.53,1.188,1.188,0,0,0,.66.1q.083,0,.175,0T7.262,14.711ZM8.684,9.83a2.954,2.954,0,0,1,2.463-.914,4.376,4.376,0,0,1,2.019.451,1.73,1.73,0,0,1,.882,1.7v3.174q0,.33.013.8a1.006,1.006,0,0,0,.108.482.649.649,0,0,0,.267.209V16H12.467a2.015,2.015,0,0,1-.114-.394q-.032-.184-.051-.419a3.717,3.717,0,0,1-.863.692,2.6,2.6,0,0,1-1.32.336,2.27,2.27,0,0,1-1.552-.536,1.913,1.913,0,0,1-.613-1.52,1.973,1.973,0,0,1,.984-1.847,4.369,4.369,0,0,1,1.587-.444l.616-.076a2.824,2.824,0,0,0,.717-.159.544.544,0,0,0,.387-.514.61.61,0,0,0-.3-.587,1.844,1.844,0,0,0-.866-.162,1.129,1.129,0,0,0-.908.317,1.319,1.319,0,0,0-.254.635H8.176A2.655,2.655,0,0,1,8.684,9.83Zm1.346,4.862a.945.945,0,0,0,.622.209,1.842,1.842,0,0,0,1.076-.343,1.462,1.462,0,0,0,.511-1.25v-.673a1.966,1.966,0,0,1-.346.175,2.893,2.893,0,0,1-.479.124l-.406.076a2.623,2.623,0,0,0-.819.248.83.83,0,0,0-.419.768A.794.794,0,0,0,10.029,14.692Zm5.662-8.049H17.5V16H15.691Z" transform="translate(514.737 827)" fill="#242021"/>
    <path id="Path_2084" data-name="Path 2084" d="M-22.747-.7A3.814,3.814,0,0,1-25.426.26,4.036,4.036,0,0,1-28.6-1.035,5.183,5.183,0,0,1-29.755-4.6a5.139,5.139,0,0,1,1.314-3.777,3.915,3.915,0,0,1,2.907-1.155A3.931,3.931,0,0,1-22.08-7.985a3.353,3.353,0,0,1,.647,1.746h-1.955a2.641,2.641,0,0,0-.489-1.016,1.988,1.988,0,0,0-1.581-.609A1.959,1.959,0,0,0-27.139-7a4.135,4.135,0,0,0-.616,2.434A3.629,3.629,0,0,0-27.1-2.212a2.056,2.056,0,0,0,1.654.784A1.891,1.891,0,0,0-23.883-2.1a2.923,2.923,0,0,0,.5-1.085h1.936A4.208,4.208,0,0,1-22.747-.7Zm7.078-.279q-.025.032-.127.19a1.274,1.274,0,0,1-.241.279,2.519,2.519,0,0,1-.822.521,2.8,2.8,0,0,1-.93.14,2.073,2.073,0,0,1-2.069-1.1,4.226,4.226,0,0,1-.3-1.8v-4.17H-18.3v4.17a2.183,2.183,0,0,0,.14.889.967.967,0,0,0,.971.527,1.27,1.27,0,0,0,1.27-.749,2.711,2.711,0,0,0,.178-1.073V-6.919h1.834V0h-1.758ZM-7.4-6.6a2.229,2.229,0,0,1,.933,1.79H-8.274a1.07,1.07,0,0,0-.2-.552,1.238,1.238,0,0,0-1.016-.368,1.459,1.459,0,0,0-.841.184.53.53,0,0,0-.251.432.472.472,0,0,0,.267.451,11.541,11.541,0,0,0,1.885.5A3.463,3.463,0,0,1-6.808-3.4a1.744,1.744,0,0,1,.533,1.3A2.1,2.1,0,0,1-7.04-.416,3.594,3.594,0,0,1-9.4.235a3.56,3.56,0,0,1-2.409-.689,2.241,2.241,0,0,1-.778-1.755h1.834a1.208,1.208,0,0,0,.248.686,1.673,1.673,0,0,0,1.244.362,1.9,1.9,0,0,0,.847-.159A.508.508,0,0,0-8.1-1.8a.513.513,0,0,0-.254-.463,10.329,10.329,0,0,0-1.885-.546,3.926,3.926,0,0,1-1.657-.73,1.583,1.583,0,0,1-.482-1.244,2.158,2.158,0,0,1,.752-1.647,3.021,3.021,0,0,1,2.117-.689A3.919,3.919,0,0,1-7.4-6.6Zm5.63,5.313V.063L-2.625.1A2.3,2.3,0,0,1-4.377-.349a1.323,1.323,0,0,1-.3-.958V-5.567h-.965V-6.855h.965v-1.93h1.79v1.93h1.124v1.289H-2.891v3.656a.823.823,0,0,0,.108.53,1.188,1.188,0,0,0,.66.1q.083,0,.175,0T-1.768-1.289ZM5.164-6.043a4.037,4.037,0,0,1,.876,2.6A4.011,4.011,0,0,1,5.164-.841,3.219,3.219,0,0,1,2.5.241,3.219,3.219,0,0,1-.156-.841a4.011,4.011,0,0,1-.876-2.606,4.037,4.037,0,0,1,.876-2.6,3.2,3.2,0,0,1,2.66-1.1A3.2,3.2,0,0,1,5.164-6.043ZM2.5-5.611a1.446,1.446,0,0,0-1.222.562,2.6,2.6,0,0,0-.428,1.6,2.614,2.614,0,0,0,.428,1.606A1.442,1.442,0,0,0,2.5-1.276a1.434,1.434,0,0,0,1.219-.565,2.628,2.628,0,0,0,.425-1.606,2.614,2.614,0,0,0-.425-1.6A1.437,1.437,0,0,0,2.5-5.611Zm8.722.6a.886.886,0,0,0-.9-.5,1.068,1.068,0,0,0-1.041.5,1.932,1.932,0,0,0-.146.851V0H7.3V-6.906H9.061V-5.9A2.911,2.911,0,0,1,9.7-6.665a2.172,2.172,0,0,1,1.365-.406,2.158,2.158,0,0,1,1.282.349,2.031,2.031,0,0,1,.6.832,2.3,2.3,0,0,1,.882-.9,2.692,2.692,0,0,1,1.244-.286,2.408,2.408,0,0,1,.9.178,2.011,2.011,0,0,1,.806.622,1.988,1.988,0,0,1,.394.889,6.142,6.142,0,0,1,.063,1.022L17.218,0H15.365V-4.405a1.446,1.446,0,0,0-.127-.647.9.9,0,0,0-.889-.482,1.04,1.04,0,0,0-1.035.622,1.954,1.954,0,0,0-.146.793V0H11.346V-4.12A2.314,2.314,0,0,0,11.219-5.015Zm13.6,2.983a2.3,2.3,0,0,1-.641,1.25A3.141,3.141,0,0,1,21.687.229a3.509,3.509,0,0,1-2.33-.851A3.43,3.43,0,0,1,18.348-3.39a3.847,3.847,0,0,1,.911-2.755A3.114,3.114,0,0,1,21.623-7.1a3.626,3.626,0,0,1,1.555.324,2.724,2.724,0,0,1,1.143,1.022,3.487,3.487,0,0,1,.527,1.428,9.224,9.224,0,0,1,.057,1.371H20.17a1.719,1.719,0,0,0,.654,1.46,1.54,1.54,0,0,0,.9.26,1.3,1.3,0,0,0,.908-.317,1.507,1.507,0,0,0,.336-.476Zm-1.79-2.12a1.575,1.575,0,0,0-.435-1.089,1.35,1.35,0,0,0-.968-.371,1.229,1.229,0,0,0-.974.394,1.964,1.964,0,0,0-.435,1.066ZM29.6-5.25a1.5,1.5,0,0,0-1.466.711,2.766,2.766,0,0,0-.209,1.231V0H26.1V-6.919h1.727v1.206a3.825,3.825,0,0,1,.73-.946,1.987,1.987,0,0,1,1.32-.425q.051,0,.086,0l.156.01v1.854q-.171-.019-.3-.025T29.6-5.25ZM-13.457,12.636h-1.987V16h-1.942V6.644h4.075a3.319,3.319,0,0,1,2.247.724,2.8,2.8,0,0,1,.838,2.241,2.872,2.872,0,0,1-.838,2.342A3.69,3.69,0,0,1-13.457,12.636Zm.914-1.949a1.353,1.353,0,0,0,.381-1.066,1.266,1.266,0,0,0-.384-1.041,1.667,1.667,0,0,0-1.076-.311h-1.822v2.755h1.822A1.592,1.592,0,0,0-12.543,10.687Zm9.407-.73a4.037,4.037,0,0,1,.876,2.6,4.011,4.011,0,0,1-.876,2.606A3.219,3.219,0,0,1-5.8,16.241a3.219,3.219,0,0,1-2.66-1.082,4.011,4.011,0,0,1-.876-2.606,4.037,4.037,0,0,1,.876-2.6,3.2,3.2,0,0,1,2.66-1.1A3.2,3.2,0,0,1-3.136,9.957Zm-2.666.432a1.446,1.446,0,0,0-1.222.562,2.6,2.6,0,0,0-.428,1.6,2.614,2.614,0,0,0,.428,1.606,1.442,1.442,0,0,0,1.222.565,1.434,1.434,0,0,0,1.219-.565,2.628,2.628,0,0,0,.425-1.606,2.614,2.614,0,0,0-.425-1.6A1.437,1.437,0,0,0-5.8,10.389Zm8.315.362a1.5,1.5,0,0,0-1.466.711,2.766,2.766,0,0,0-.209,1.231V16H-.984V9.081H.743v1.206a3.825,3.825,0,0,1,.73-.946,1.987,1.987,0,0,1,1.32-.425q.051,0,.086,0l.156.01v1.854q-.171-.019-.3-.025T2.514,10.75Zm4.748,3.961v1.352L6.4,16.1a2.3,2.3,0,0,1-1.752-.444,1.323,1.323,0,0,1-.3-.958V10.433H3.383V9.145h.965V7.215h1.79v1.93H7.262v1.289H6.138v3.656a.823.823,0,0,0,.108.53,1.188,1.188,0,0,0,.66.1q.083,0,.175,0T7.262,14.711ZM8.684,9.83a2.954,2.954,0,0,1,2.463-.914,4.376,4.376,0,0,1,2.019.451,1.73,1.73,0,0,1,.882,1.7v3.174q0,.33.013.8a1.006,1.006,0,0,0,.108.482.649.649,0,0,0,.267.209V16H12.467a2.015,2.015,0,0,1-.114-.394q-.032-.184-.051-.419a3.717,3.717,0,0,1-.863.692,2.6,2.6,0,0,1-1.32.336,2.27,2.27,0,0,1-1.552-.536,1.913,1.913,0,0,1-.613-1.52,1.973,1.973,0,0,1,.984-1.847,4.369,4.369,0,0,1,1.587-.444l.616-.076a2.824,2.824,0,0,0,.717-.159.544.544,0,0,0,.387-.514.61.61,0,0,0-.3-.587,1.844,1.844,0,0,0-.866-.162,1.129,1.129,0,0,0-.908.317,1.319,1.319,0,0,0-.254.635H8.176A2.655,2.655,0,0,1,8.684,9.83Zm1.346,4.862a.945.945,0,0,0,.622.209,1.842,1.842,0,0,0,1.076-.343,1.462,1.462,0,0,0,.511-1.25v-.673a1.966,1.966,0,0,1-.346.175,2.893,2.893,0,0,1-.479.124l-.406.076a2.623,2.623,0,0,0-.819.248.83.83,0,0,0-.419.768A.794.794,0,0,0,10.029,14.692Zm5.662-8.049H17.5V16H15.691Z" transform="translate(627.165 827)" fill="#242021"/>
    <path id="Path_2085" data-name="Path 2085" d="M-13.092-3.669h-2.019V0h-1.911V-9.356h4.589a4.276,4.276,0,0,1,1.514.241,2.365,2.365,0,0,1,.9.654,2.9,2.9,0,0,1,.482.787,2.565,2.565,0,0,1,.178.984A2.8,2.8,0,0,1-9.7-5.38a1.88,1.88,0,0,1-1.111.911,1.747,1.747,0,0,1,.917.74,3.078,3.078,0,0,1,.27,1.463v.628a4.807,4.807,0,0,0,.051.87.781.781,0,0,0,.355.533V0h-2.152q-.089-.311-.127-.5a4.607,4.607,0,0,1-.083-.806l-.013-.87a1.7,1.7,0,0,0-.327-1.193A1.734,1.734,0,0,0-13.092-3.669Zm1.187-1.7a1.042,1.042,0,0,0,.584-1.054,1.163,1.163,0,0,0-.565-1.143,2.135,2.135,0,0,0-.952-.165h-2.272v2.514H-12.9A2.469,2.469,0,0,0-11.905-5.37Zm4.342-.8A2.954,2.954,0,0,1-5.1-7.084a4.376,4.376,0,0,1,2.019.451,1.73,1.73,0,0,1,.882,1.7v3.174q0,.33.013.8a1.006,1.006,0,0,0,.108.482.649.649,0,0,0,.267.209V0H-3.78a2.015,2.015,0,0,1-.114-.394q-.032-.184-.051-.419a3.717,3.717,0,0,1-.863.692,2.6,2.6,0,0,1-1.32.336A2.27,2.27,0,0,1-7.681-.321a1.913,1.913,0,0,1-.613-1.52,1.973,1.973,0,0,1,.984-1.847,4.369,4.369,0,0,1,1.587-.444l.616-.076a2.824,2.824,0,0,0,.717-.159A.544.544,0,0,0-4-4.881a.61.61,0,0,0-.3-.587,1.844,1.844,0,0,0-.866-.162,1.129,1.129,0,0,0-.908.317,1.319,1.319,0,0,0-.254.635H-8.071A2.655,2.655,0,0,1-7.563-6.17Zm1.346,4.862A.945.945,0,0,0-5.6-1.1,1.842,1.842,0,0,0-4.52-1.441a1.462,1.462,0,0,0,.511-1.25v-.673a1.966,1.966,0,0,1-.346.175,2.893,2.893,0,0,1-.479.124l-.406.076a2.623,2.623,0,0,0-.819.248.83.83,0,0,0-.419.768A.794.794,0,0,0-6.218-1.308ZM5.2-6.176A3.712,3.712,0,0,1,6.04-3.548,4.168,4.168,0,0,1,5.218-.762,2.661,2.661,0,0,1,3.1.2,2.209,2.209,0,0,1,1.73-.216a2.66,2.66,0,0,1-.584-.667V2.723H-.644V-6.919H1.089V-5.9a2.9,2.9,0,0,1,.622-.711,2.286,2.286,0,0,1,1.435-.463A2.721,2.721,0,0,1,5.2-6.176ZM4.174-3.459a2.723,2.723,0,0,0-.365-1.416,1.271,1.271,0,0,0-1.184-.616,1.347,1.347,0,0,0-1.352.933A3.539,3.539,0,0,0,1.082-3.3a2,2,0,0,0,.641,1.695,1.46,1.46,0,0,0,.9.286A1.306,1.306,0,0,0,3.777-1.9,2.723,2.723,0,0,0,4.174-3.459ZM9.207-6.919V0H7.373V-6.919Zm0-2.495v1.669H7.373V-9.414Zm8.049.07V0H15.5V-.958a2.552,2.552,0,0,1-.882.9,2.477,2.477,0,0,1-1.231.279,2.571,2.571,0,0,1-2.041-.981,3.766,3.766,0,0,1-.828-2.517,4.332,4.332,0,0,1,.816-2.787,2.654,2.654,0,0,1,2.18-1.016,2.232,2.232,0,0,1,1.117.276,2.2,2.2,0,0,1,.793.765v-3.3ZM12.381-3.415a2.72,2.72,0,0,0,.381,1.53,1.268,1.268,0,0,0,1.143.578,1.336,1.336,0,0,0,1.168-.571,2.524,2.524,0,0,0,.4-1.479,2.268,2.268,0,0,0-.641-1.815,1.38,1.38,0,0,0-.914-.33,1.271,1.271,0,0,0-1.165.6A2.779,2.779,0,0,0,12.381-3.415ZM-18.738,14.648a3.443,3.443,0,0,0,1.124-.152A1.086,1.086,0,0,0-16.8,13.41a.8.8,0,0,0-.406-.717,4.369,4.369,0,0,0-1.276-.438l-.99-.222a6.257,6.257,0,0,1-2.019-.717,2.281,2.281,0,0,1-.946-2.025A2.7,2.7,0,0,1-21.519,7.2a3.865,3.865,0,0,1,2.685-.832,4.082,4.082,0,0,1,2.523.784A2.8,2.8,0,0,1-15.215,9.43h-1.879a1.342,1.342,0,0,0-.736-1.2A2.469,2.469,0,0,0-18.967,8a2.121,2.121,0,0,0-1.206.3.97.97,0,0,0-.451.851.805.805,0,0,0,.444.749,5.439,5.439,0,0,0,1.219.387l1.612.387a4.168,4.168,0,0,1,1.6.679,2.288,2.288,0,0,1,.838,1.911,2.7,2.7,0,0,1-.981,2.13,4.109,4.109,0,0,1-2.771.847,4.494,4.494,0,0,1-2.875-.835,2.774,2.774,0,0,1-1.047-2.295h1.866a1.921,1.921,0,0,0,.349.958A2.009,2.009,0,0,0-18.738,14.648Zm7.941-.463,1.428-5.1h1.923l-2.374,6.8a9.555,9.555,0,0,1-1.085,2.441,2.063,2.063,0,0,1-1.6.473q-.241,0-.387,0t-.438-.022V17.327l.229.013a2.851,2.851,0,0,0,.508-.019.912.912,0,0,0,.406-.146.976.976,0,0,0,.3-.451.953.953,0,0,0,.111-.419L-14.32,9.081h2.012ZM-1.612,9.4a2.229,2.229,0,0,1,.933,1.79H-2.488a1.07,1.07,0,0,0-.2-.552A1.238,1.238,0,0,0-3.7,10.268a1.459,1.459,0,0,0-.841.184.53.53,0,0,0-.251.432.472.472,0,0,0,.267.451,11.541,11.541,0,0,0,1.885.5,3.463,3.463,0,0,1,1.619.768,1.744,1.744,0,0,1,.533,1.3,2.1,2.1,0,0,1-.765,1.679,3.594,3.594,0,0,1-2.365.651,3.56,3.56,0,0,1-2.409-.689A2.241,2.241,0,0,1-6.8,13.791H-4.97a1.208,1.208,0,0,0,.248.686,1.673,1.673,0,0,0,1.244.362,1.9,1.9,0,0,0,.847-.159.508.508,0,0,0,.314-.476.513.513,0,0,0-.254-.463,10.329,10.329,0,0,0-1.885-.546,3.926,3.926,0,0,1-1.657-.73A1.583,1.583,0,0,1-6.6,11.22a2.158,2.158,0,0,1,.752-1.647,3.021,3.021,0,0,1,2.117-.689A3.919,3.919,0,0,1-1.612,9.4Zm5.63,5.313v1.352l-.857.032a2.3,2.3,0,0,1-1.752-.444,1.323,1.323,0,0,1-.3-.958V10.433H.14V9.145H1.1V7.215h1.79v1.93H4.018v1.289H2.895v3.656a.823.823,0,0,0,.108.53,1.188,1.188,0,0,0,.66.1q.083,0,.175,0T4.018,14.711Zm7.084-.743a2.3,2.3,0,0,1-.641,1.25,3.141,3.141,0,0,1-2.488,1.009,3.509,3.509,0,0,1-2.33-.851A3.43,3.43,0,0,1,4.634,12.61a3.847,3.847,0,0,1,.911-2.755A3.114,3.114,0,0,1,7.909,8.9a3.626,3.626,0,0,1,1.555.324,2.724,2.724,0,0,1,1.143,1.022,3.487,3.487,0,0,1,.527,1.428,9.224,9.224,0,0,1,.057,1.371H6.456a1.719,1.719,0,0,0,.654,1.46,1.54,1.54,0,0,0,.9.26,1.3,1.3,0,0,0,.908-.317,1.507,1.507,0,0,0,.336-.476Zm-1.79-2.12a1.575,1.575,0,0,0-.435-1.089,1.35,1.35,0,0,0-.968-.371,1.229,1.229,0,0,0-.974.394A1.964,1.964,0,0,0,6.5,11.849Zm6.982-.863a.886.886,0,0,0-.9-.5,1.068,1.068,0,0,0-1.041.5,1.932,1.932,0,0,0-.146.851V16H12.378V9.094h1.758V10.1a2.911,2.911,0,0,1,.635-.768,2.172,2.172,0,0,1,1.365-.406,2.158,2.158,0,0,1,1.282.349,2.031,2.031,0,0,1,.6.832,2.3,2.3,0,0,1,.882-.9,2.692,2.692,0,0,1,1.244-.286,2.408,2.408,0,0,1,.9.178,2.011,2.011,0,0,1,.806.622,1.988,1.988,0,0,1,.394.889,6.142,6.142,0,0,1,.063,1.022L22.293,16H20.439V11.595a1.446,1.446,0,0,0-.127-.647.9.9,0,0,0-.889-.482,1.04,1.04,0,0,0-1.035.622,1.954,1.954,0,0,0-.146.793V16H16.421V11.88A2.314,2.314,0,0,0,16.294,10.985Z" transform="translate(745.417 827)" fill="#242021"/>
    <path id="Path_2086" data-name="Path 2086" d="M-18.878-3.364h-1.987V0h-1.942V-9.356h4.075a3.319,3.319,0,0,1,2.247.724,2.8,2.8,0,0,1,.838,2.241,2.872,2.872,0,0,1-.838,2.342A3.69,3.69,0,0,1-18.878-3.364Zm.914-1.949a1.353,1.353,0,0,0,.381-1.066,1.266,1.266,0,0,0-.384-1.041,1.667,1.667,0,0,0-1.076-.311h-1.822v2.755h1.822A1.592,1.592,0,0,0-17.964-5.313Zm3.9-.857A2.954,2.954,0,0,1-11.6-7.084a4.376,4.376,0,0,1,2.019.451,1.73,1.73,0,0,1,.882,1.7v3.174q0,.33.013.8a1.006,1.006,0,0,0,.108.482.649.649,0,0,0,.267.209V0h-1.968A2.015,2.015,0,0,1-10.4-.394q-.032-.184-.051-.419a3.717,3.717,0,0,1-.863.692,2.6,2.6,0,0,1-1.32.336,2.27,2.27,0,0,1-1.552-.536,1.913,1.913,0,0,1-.613-1.52,1.973,1.973,0,0,1,.984-1.847,4.369,4.369,0,0,1,1.587-.444l.616-.076a2.824,2.824,0,0,0,.717-.159.544.544,0,0,0,.387-.514.61.61,0,0,0-.3-.587,1.844,1.844,0,0,0-.866-.162,1.129,1.129,0,0,0-.908.317,1.319,1.319,0,0,0-.254.635h-1.746A2.655,2.655,0,0,1-14.066-6.17Zm1.346,4.862A.945.945,0,0,0-12.1-1.1a1.842,1.842,0,0,0,1.076-.343,1.462,1.462,0,0,0,.511-1.25v-.673a1.966,1.966,0,0,1-.346.175,2.893,2.893,0,0,1-.479.124l-.406.076a2.623,2.623,0,0,0-.819.248.83.83,0,0,0-.419.768A.794.794,0,0,0-12.721-1.308Zm9.1-3.942a1.5,1.5,0,0,0-1.466.711,2.766,2.766,0,0,0-.209,1.231V0H-7.116V-6.919h1.727v1.206a3.825,3.825,0,0,1,.73-.946,1.987,1.987,0,0,1,1.32-.425q.051,0,.086,0l.156.01v1.854q-.171-.019-.3-.025T-3.618-5.25ZM4.31,0H2.126L.47-2.958l-.749.781V0H-2.057V-9.325H-.279v5.04l2.253-2.6H4.215L1.8-4.24ZM7.052-6.919V0H5.218V-6.919Zm0-2.495v1.669H5.218V-9.414ZM12.061-5.58A1.26,1.26,0,0,0,10.8-4.8a2.682,2.682,0,0,0-.178,1.054V0h-1.8V-6.906h1.746V-5.9a3.071,3.071,0,0,1,.66-.768,2.294,2.294,0,0,1,1.416-.419,2.671,2.671,0,0,1,1.755.562,2.284,2.284,0,0,1,.682,1.863V0H13.222V-4.208a1.92,1.92,0,0,0-.146-.838A1.027,1.027,0,0,0,12.061-5.58ZM18.7,1.212a1.529,1.529,0,0,0,.984.248A1.322,1.322,0,0,0,20.992.806,3.311,3.311,0,0,0,21.208-.6v-.444a2.206,2.206,0,0,1-.559.667,2.246,2.246,0,0,1-1.4.413A2.655,2.655,0,0,1,17.116-.9a3.785,3.785,0,0,1-.8-2.536,4.275,4.275,0,0,1,.768-2.593,2.538,2.538,0,0,1,2.177-1.051,2.383,2.383,0,0,1,.908.159,2.174,2.174,0,0,1,1.066,1v-1H23V-.355a3.676,3.676,0,0,1-.451,2.019,3.316,3.316,0,0,1-2.971,1.168,4.048,4.048,0,0,1-2.165-.521A1.92,1.92,0,0,1,16.485.755h1.968A.815.815,0,0,0,18.7,1.212Zm-.3-3.574a1.324,1.324,0,0,0,1.32.876,1.4,1.4,0,0,0,1.073-.479,2.219,2.219,0,0,0,.438-1.527,2.336,2.336,0,0,0-.416-1.5A1.359,1.359,0,0,0,19.7-5.5a1.313,1.313,0,0,0-1.314.9,3.174,3.174,0,0,0-.19,1.174A2.68,2.68,0,0,0,18.4-2.361ZM-17.088,16h-1.955l-3.821-6.646V16h-1.822V6.644h2.05l3.726,6.532V6.644h1.822Zm7.6-2.031a2.3,2.3,0,0,1-.641,1.25,3.141,3.141,0,0,1-2.488,1.009,3.509,3.509,0,0,1-2.33-.851,3.43,3.43,0,0,1-1.009-2.768,3.847,3.847,0,0,1,.911-2.755A3.114,3.114,0,0,1-12.683,8.9a3.626,3.626,0,0,1,1.555.324,2.724,2.724,0,0,1,1.143,1.022,3.487,3.487,0,0,1,.527,1.428A9.224,9.224,0,0,1-9.4,13.042h-4.735a1.719,1.719,0,0,0,.654,1.46,1.54,1.54,0,0,0,.9.26,1.3,1.3,0,0,0,.908-.317,1.507,1.507,0,0,0,.336-.476Zm-1.79-2.12a1.575,1.575,0,0,0-.435-1.089,1.35,1.35,0,0,0-.968-.371,1.229,1.229,0,0,0-.974.394,1.964,1.964,0,0,0-.435,1.066Zm6.265,2.863v1.352l-.857.032a2.3,2.3,0,0,1-1.752-.444,1.323,1.323,0,0,1-.3-.958V10.433h-.965V9.145h.965V7.215h1.79v1.93h1.124v1.289H-6.138v3.656a.823.823,0,0,0,.108.53,1.188,1.188,0,0,0,.66.1q.083,0,.175,0T-5.015,14.711ZM1.4,16,.311,10.96-.787,16H-2.666L-4.608,9.081h1.942l1.079,4.964,1-4.964H1.244L2.3,14.064,3.377,9.081H5.262L3.256,16ZM12.029,9.957a4.037,4.037,0,0,1,.876,2.6,4.011,4.011,0,0,1-.876,2.606,3.219,3.219,0,0,1-2.66,1.082,3.219,3.219,0,0,1-2.66-1.082,4.011,4.011,0,0,1-.876-2.606,4.037,4.037,0,0,1,.876-2.6,3.2,3.2,0,0,1,2.66-1.1A3.2,3.2,0,0,1,12.029,9.957Zm-2.666.432a1.446,1.446,0,0,0-1.222.562,2.6,2.6,0,0,0-.428,1.6,2.614,2.614,0,0,0,.428,1.606,1.442,1.442,0,0,0,1.222.565,1.434,1.434,0,0,0,1.219-.565,2.628,2.628,0,0,0,.425-1.606,2.614,2.614,0,0,0-.425-1.6A1.437,1.437,0,0,0,9.363,10.389Zm8.315.362a1.5,1.5,0,0,0-1.466.711A2.766,2.766,0,0,0,16,12.693V16H14.181V9.081h1.727v1.206a3.825,3.825,0,0,1,.73-.946,1.987,1.987,0,0,1,1.32-.425q.051,0,.086,0l.156.01v1.854q-.171-.019-.3-.025T17.678,10.75ZM25.606,16H23.423l-1.657-2.958-.749.781V16H19.24V6.675h1.777v5.04l2.253-2.6h2.241L23.093,11.76Z" transform="translate(855.639 827)" fill="#242021"/>
    <g id="checked" transform="translate(269.617 770.009)">
      <g id="Group_20" data-name="Group 20" transform="translate(9.351 4.948)">
        <g id="Group_19" data-name="Group 19">
          <path id="Path_97" data-name="Path 97" d="M150.473,64.763a1.484,1.484,0,0,0-2.1,0L130.568,82.52l-6.424-6.978a1.484,1.484,0,1,0-2.184,2.011l7.471,8.114a1.482,1.482,0,0,0,1.06.478h.032a1.486,1.486,0,0,0,1.048-.433l18.9-18.85a1.484,1.484,0,0,0,0-2.1Z" transform="translate(-121.568 -64.327)" fill="#3c58a8"/>
        </g>
      </g>
      <g id="Group_22" data-name="Group 22">
        <g id="Group_21" data-name="Group 21">
          <path id="Path_98" data-name="Path 98" d="M37.9,18.207a1.484,1.484,0,0,0-1.484,1.484A16.723,16.723,0,1,1,19.693,2.969a1.485,1.485,0,1,0,0-2.969A19.691,19.691,0,1,0,39.383,19.691,1.484,1.484,0,0,0,37.9,18.207Z" fill="#3c58a8"/>
        </g>
      </g>
    </g>
    <g id="checked-2" data-name="checked" transform="translate(157.617 770.009)">
      <g id="Group_20-2" data-name="Group 20" transform="translate(9.351 4.948)">
        <g id="Group_19-2" data-name="Group 19">
          <path id="Path_97-2" data-name="Path 97" d="M150.473,64.763a1.484,1.484,0,0,0-2.1,0L130.568,82.52l-6.424-6.978a1.484,1.484,0,1,0-2.184,2.011l7.471,8.114a1.482,1.482,0,0,0,1.06.478h.032a1.486,1.486,0,0,0,1.048-.433l18.9-18.85a1.484,1.484,0,0,0,0-2.1Z" transform="translate(-121.568 -64.327)" fill="#3c58a8"/>
        </g>
      </g>
      <g id="Group_22-2" data-name="Group 22">
        <g id="Group_21-2" data-name="Group 21">
          <path id="Path_98-2" data-name="Path 98" d="M37.9,18.207a1.484,1.484,0,0,0-1.484,1.484A16.723,16.723,0,1,1,19.693,2.969a1.485,1.485,0,1,0,0-2.969A19.691,19.691,0,1,0,39.383,19.691,1.484,1.484,0,0,0,37.9,18.207Z" fill="#3c58a8"/>
        </g>
      </g>
    </g>
  </g>
</svg>
