<svg id="vuesax_bold_people" data-name="vuesax/bold/people" xmlns="http://www.w3.org/2000/svg" width="24.393" height="24.393" viewBox="0 0 24.393 24.393">
  <g id="people">
    <path id="Vector" d="M0,0H24.393V24.393H0Z" fill="none" opacity="0"/>
    <path id="Vector-2" data-name="Vector" d="M3.039,5.864a.751.751,0,0,0-.213,0,2.942,2.942,0,1,1,.213,0Z" transform="translate(14.778 2.033)" fill="#fbfcfc"/>
    <path id="Vector-3" data-name="Vector" d="M4.259,4.769a6.311,6.311,0,0,1-4.208.854,6.638,6.638,0,0,0,.6-2.734A6.245,6.245,0,0,0,0,.064,6.339,6.339,0,0,1,4.248.907,2.153,2.153,0,0,1,4.259,4.769Z" transform="translate(16.872 10.171)" fill="#fbfcfc"/>
    <path id="Vector-4" data-name="Vector" d="M2.825,5.864a.751.751,0,0,1,.213,0,2.932,2.932,0,1,0-.213,0Z" transform="translate(3.72 2.033)" fill="#fbfcfc"/>
    <path id="Vector-5" data-name="Vector" d="M4.63,2.889a6.619,6.619,0,0,0,.6,2.764A6.28,6.28,0,0,1,1.2,4.78,2.158,2.158,0,0,1,1.2.907,6.242,6.242,0,0,1,5.27.043,6.462,6.462,0,0,0,4.63,2.889Z" transform="translate(2.028 10.171)" fill="#fbfcfc"/>
    <path id="Vector-6" data-name="Vector" d="M3.628,6.982a1.148,1.148,0,0,0-.264,0,3.506,3.506,0,1,1,.264,0Z" transform="translate(8.69 9.147)" fill="#fbfcfc"/>
    <path id="Vector-7" data-name="Vector" d="M1.151.877a2.086,2.086,0,0,0,0,3.73,6.211,6.211,0,0,0,6.362,0,2.086,2.086,0,0,0,0-3.73A6.211,6.211,0,0,0,1.151.877Z" transform="translate(7.864 17.357)" fill="#fbfcfc"/>
  </g>
</svg>
