<svg xmlns="http://www.w3.org/2000/svg" width="116" height="116.017" viewBox="0 0 116 116.017">
  <g id="link" transform="translate(-0.039 0)">
    <g id="Group_2" data-name="Group 2" transform="translate(0.039 37.294)">
      <g id="Group_1" data-name="Group 1">
        <path id="Path_6" data-name="Path 6" d="M70.818,172.54a26.319,26.319,0,0,0-4.543-3.654,27.07,27.07,0,0,0-33.736,3.654L7.948,197.151a27.067,27.067,0,0,0,38.26,38.3l20.3-20.3a1.933,1.933,0,0,0-1.373-3.306h-.773a32.54,32.54,0,0,1-12.373-2.4,1.933,1.933,0,0,0-2.107.425l-14.6,14.616a11.606,11.606,0,0,1-16.414-16.414l24.688-24.669a11.6,11.6,0,0,1,16.394,0,7.926,7.926,0,0,0,10.865,0,7.658,7.658,0,0,0,0-10.865Z" transform="translate(-0.039 -164.614)" fill="#9ca3af"/>
      </g>
    </g>
    <g id="Group_4" data-name="Group 4" transform="translate(42.963 0)">
      <g id="Group_3" data-name="Group 3" transform="translate(0 0)">
        <path id="Path_7" data-name="Path 7" d="M254.65,7.928a27.067,27.067,0,0,0-38.279,0l-20.28,20.261a1.941,1.941,0,0,0,1.411,3.306h.715a32.479,32.479,0,0,1,12.354,2.417,1.933,1.933,0,0,0,2.107-.425l14.558-14.538a11.606,11.606,0,1,1,16.414,16.414L225.515,53.476l-.155.174-6.341,6.3a11.6,11.6,0,0,1-16.394,0,7.926,7.926,0,0,0-10.865,0,7.708,7.708,0,0,0,0,10.9,26.835,26.835,0,0,0,7.733,5.413c.406.193.812.348,1.218.522s.831.309,1.237.464.831.29,1.237.406l1.141.309c.773.193,1.547.348,2.339.483a26.909,26.909,0,0,0,2.881.271h1.469l1.16-.135c.425-.019.87-.116,1.373-.116h.657l1.334-.193.619-.116,1.121-.232h.213a27.064,27.064,0,0,0,12.547-7.115l24.611-24.611A27.067,27.067,0,0,0,254.65,7.928Z" transform="translate(-189.502 0)" fill="#9ca3af"/>
      </g>
    </g>
  </g>
</svg>
