<svg xmlns="http://www.w3.org/2000/svg" xmlns:xlink="http://www.w3.org/1999/xlink" width="128.001" height="126.14" viewBox="0 0 128.001 126.14">
  <defs>
    <linearGradient id="linear-gradient" x1="0.5" x2="0.5" y2="1" gradientUnits="objectBoundingBox">
      <stop offset="0" stop-color="#3a59a7"/>
      <stop offset="1" stop-color="#2966fb"/>
    </linearGradient>
  </defs>
  <g id="fingerprint" transform="translate(-1.773 -2.255)">
    <path id="Path_23" data-name="Path 23" d="M11.46,49.405a1.444,1.444,0,1,0-1.735,2.309c.512.383,1.029.761,1.554,1.127a1.446,1.446,0,1,0,1.655-2.371q-.745-.52-1.474-1.065Z" transform="translate(6.829 43.398)" fill="url(#linear-gradient)"/>
    <path id="Path_24" data-name="Path 24" d="M47.377,60a1.445,1.445,0,1,0-.41-2.86A52.98,52.98,0,0,1,15.287,51.8a1.445,1.445,0,1,0-1.329,2.566A55.474,55.474,0,0,0,47.377,60Z" transform="translate(10.562 45.737)" fill="url(#linear-gradient)"/>
    <path id="Path_25" data-name="Path 25" d="M48.468,9.026a1.448,1.448,0,0,0-.2,2.034A53.126,53.126,0,0,1,58.74,32.128a1.445,1.445,0,1,0,2.81-.672A56.022,56.022,0,0,0,50.5,9.232a1.448,1.448,0,0,0-2.034-.206Z" transform="translate(42.755 5.97)" fill="url(#linear-gradient)"/>
    <path id="Path_26" data-name="Path 26" d="M44.884,5.687a1.449,1.449,0,0,0,.143,2.04c.613.53,1.213,1.079,1.8,1.637a1.446,1.446,0,0,0,1.99-2.1q-.927-.884-1.9-1.724a1.455,1.455,0,0,0-2.04.144Z" transform="translate(39.599 2.72)" fill="url(#linear-gradient)"/>
    <path id="Path_27" data-name="Path 27" d="M56.837,98.111a47.947,47.947,0,0,0,20.829-8.3l6.116,6.117-1.248,1.246a3.765,3.765,0,0,0,0,5.31l21.873,21.871A13.782,13.782,0,0,0,123.9,104.865L102.029,83a3.849,3.849,0,0,0-5.312,0l-1.258,1.258-6.125-6.125A48.156,48.156,0,0,0,11.388,21.572,47.762,47.762,0,0,0,2.275,57.264,48.271,48.271,0,0,0,56.837,98.111Zm43.15-13.075,21.871,21.871a10.893,10.893,0,1,1-15.405,15.405l-.948-.948,5.921-5.994a1.445,1.445,0,1,0-2.055-2.032l-5.909,5.983L84.58,100.442a.871.871,0,0,1,0-1.229l14.18-14.178A.875.875,0,0,1,99.987,85.037Zm-12.4-4.571,5.823,5.821-7.591,7.591-5.811-5.813a48.594,48.594,0,0,0,7.579-7.6ZM5.134,56.851A45.29,45.29,0,0,1,77.089,14.164a44.973,44.973,0,0,1,17.694,29.8v0A45.285,45.285,0,1,1,5.134,56.851Z" transform="translate(0 0)" fill="url(#linear-gradient)"/>
    <path id="Path_28" data-name="Path 28" d="M73.164,25.982A34.715,34.715,0,1,0,61.412,73.589,34.756,34.756,0,0,0,73.164,25.982ZM16.24,60.441A31.826,31.826,0,1,1,59.916,71.115,31.925,31.925,0,0,1,16.24,60.441Z" transform="translate(6.493 6.477)" fill="url(#linear-gradient)"/>
    <path id="Path_29" data-name="Path 29" d="M18.791,30.092a1.446,1.446,0,0,0,1.878-.805c3.814-9.542,11.457-13.87,19.93-11.306a14.6,14.6,0,0,1,10.33,10.7,1.445,1.445,0,1,0,2.8-.7c-3.9-15.511-27.369-20.7-35.745.243a1.44,1.44,0,0,0,.805,1.876Z" transform="translate(14.919 11.211)" fill="url(#linear-gradient)"/>
    <path id="Path_30" data-name="Path 30" d="M36.506,49.29a11.359,11.359,0,0,1-7.285.339C22.08,47.466,18.166,37.781,19.915,26.6a1.445,1.445,0,1,0-2.855-.447C15.088,38.773,19.847,49.81,28.384,52.395a14.16,14.16,0,0,0,9.113-.387,1.446,1.446,0,0,0-.99-2.718Z" transform="translate(13.747 21.002)" fill="url(#linear-gradient)"/>
    <path id="Path_31" data-name="Path 31" d="M41.4,24.55a1.443,1.443,0,0,0-1.566,1.314,28.586,28.586,0,0,1-1.142,5.75A32.159,32.159,0,0,1,30.78,45.029a1.445,1.445,0,1,0,2.028,2.059,35.064,35.064,0,0,0,8.654-14.637,31.354,31.354,0,0,0,1.254-6.335A1.442,1.442,0,0,0,41.4,24.55Z" transform="translate(26.465 20.642)" fill="url(#linear-gradient)"/>
    <path id="Path_32" data-name="Path 32" d="M32.32,22.081c-1.93-.586-5.474-.824-7.589,4.124a1.444,1.444,0,1,0,2.656,1.135c1.252-2.93,2.843-2.874,4.1-2.494,2.56.774,2.477,3.1,1.7,5.663-1.477,4.879-4.89,8.616-5.934,8.309-.445-.135-1.231-1.8-1.117-5.2a1.445,1.445,0,0,0-1.4-1.491,1.5,1.5,0,0,0-1.491,1.4c-.146,4.467,1.005,7.408,3.17,8.065,4.051,1.223,8.238-5.948,9.536-10.236,1.616-5.351-.329-8.269-3.633-9.269Z" transform="translate(19.875 18.08)" fill="url(#linear-gradient)"/>
    <path id="Path_33" data-name="Path 33" d="M33.59,39.9a1.446,1.446,0,0,0,.63,1.943,1.445,1.445,0,0,0,1.943-.63,28.992,28.992,0,0,0,1.9-4.709c2.98-9.841-1.158-16.731-8.845-18.281a1.444,1.444,0,1,0-.58,2.83c5.778,1.2,9.224,6.137,6.659,14.614A25.823,25.823,0,0,1,33.59,39.9Z" transform="translate(23.813 14.759)" fill="url(#linear-gradient)"/>
    <path id="Path_34" data-name="Path 34" d="M30.987,21.146a1.444,1.444,0,1,0-.928-2.735c-2.87.975-6.745,3.627-8.893,10.723A28.385,28.385,0,0,0,20,39.246a1.444,1.444,0,1,0,2.882-.2,25.489,25.489,0,0,1,1.044-9.07c1.42-4.688,3.86-7.739,7.057-8.826Z" transform="translate(16.824 14.89)" fill="url(#linear-gradient)"/>
    <path id="Path_35" data-name="Path 35" d="M35.212,34.125c-1.535,1.4-4.559,3.621-7.6,2.7-2.275-.688-3.552-2.862-4.22-4.565A1.446,1.446,0,0,0,20.7,33.32c1.3,3.292,3.4,5.461,6.073,6.27,3.744,1.133,7.5-.69,10.388-3.33a1.445,1.445,0,0,0-1.949-2.134Z" transform="translate(17.436 26.941)" fill="url(#linear-gradient)"/>
    <path id="Path_36" data-name="Path 36" d="M60.552,46.306a1.445,1.445,0,0,0,0,2.044L73.262,61.06a1.445,1.445,0,1,0,2.044-2.044L62.6,46.306A1.445,1.445,0,0,0,60.552,46.306Z" transform="translate(54.045 40.405)" fill="url(#linear-gradient)"/>
    <path id="Path_37" data-name="Path 37" d="M58.037,43.791a1.445,1.445,0,0,0,0,2.044l1.042,1.042a1.445,1.445,0,0,0,2.044-2.044L60.08,43.791A1.445,1.445,0,0,0,58.037,43.791Z" transform="translate(51.716 38.076)" fill="url(#linear-gradient)"/>
    <path id="Path_38" data-name="Path 38" d="M61.772,60.673l.842-.851a1.445,1.445,0,0,0-2.059-2.028l-.842.851a1.445,1.445,0,0,0,2.059,2.028Z" transform="translate(53.275 51.037)" fill="url(#linear-gradient)"/>
  </g>
</svg>
