<svg id="Full" xmlns="http://www.w3.org/2000/svg" width="46.637" height="64.418" viewBox="0 0 46.637 64.418">
  <path id="Path_11049" data-name="Path 11049" d="M862.761,213.97h.481a1.023,1.023,0,0,1,.39.938c-.012,2.134-.006,4.269-.006,6.4v.412a3.352,3.352,0,0,0,.384-.794,4.278,4.278,0,0,1,4.236-2.986q5.242-.028,10.485,0a4.28,4.28,0,0,1,4.234,2.993c.1.268.206.535.308.8l.081-.011v-.416c0-2.134.006-4.269-.006-6.4a1.023,1.023,0,0,1,.39-.938h.48c.445.308.875.643,1.341.917a1.139,1.139,0,0,1,.6,1.115q-.02,11.088-.009,22.176v.507a2.541,2.541,0,0,0,.3.017,2.57,2.57,0,0,1,2.825,2.855c-.057,1.813-.013,3.629-.013,5.444v.48c.3,0,.567,0,.829,0,.631.012.83.212.832.852,0,.948,0,1.895,0,2.842,0,.749-.175.924-.913.925-.771,0-1.54,0-2.353,0,0,.521,0,1,0,1.476a1.26,1.26,0,0,1-1.388,1.391c-.948,0-1.895,0-2.842,0-1.035,0-1.493-.455-1.5-1.482,0-.449,0-.9,0-1.35H865.055c0,.513.008.992,0,1.471a1.253,1.253,0,0,1-1.377,1.361q-1.48.006-2.963,0a1.26,1.26,0,0,1-1.388-1.391c0-.476,0-.954,0-1.476-.866,0-1.689.005-2.513,0-.513,0-.743-.215-.749-.724q-.019-1.581,0-3.162c.007-.508.232-.715.748-.734.289-.011.579,0,.91,0V247c0-1.908-.01-3.816,0-5.725a2.459,2.459,0,0,1,2.569-2.572c.168,0,.337,0,.539,0v-.566q0-11.108-.008-22.216a1.035,1.035,0,0,1,.527-.989C861.838,214.634,862.294,214.293,862.761,213.97Zm19.751,17.5v-6.016H864.471v6.016Zm-9.036,14.626c1.333,0,2.667,0,4,0a1.252,1.252,0,0,0,1.427-1.423q.009-3.7,0-7.4a1.27,1.27,0,0,0-1.436-1.426q-3.98,0-7.96,0a1.26,1.26,0,0,0-1.426,1.4q-.013,3.739,0,7.48a1.235,1.235,0,0,0,1.395,1.373C870.809,246.1,872.142,246.093,873.476,246.093Zm10.547-2.676c-.373,0-.746-.018-1.117,0a1.165,1.165,0,0,0-.028,2.322c.757.033,1.518.032,2.275,0a1.164,1.164,0,0,0-.012-2.322C884.768,243.4,884.394,243.418,884.022,243.417Zm-21.067,2.339c.346,0,.692.009,1.038,0a1.151,1.151,0,0,0,1.176-1.154,1.128,1.128,0,0,0-1.139-1.182c-.7-.023-1.411-.022-2.115,0a1.133,1.133,0,0,0-1.157,1.167,1.159,1.159,0,0,0,1.2,1.172C862.29,245.764,862.623,245.757,862.955,245.757Z" transform="translate(-856.054 -205.97)" fill="#3d5aa9"/>
  <path id="Path_11050" data-name="Path 11050" d="M1014.409,486.66c-1.239,0-2.48,0-3.719,0a.887.887,0,0,1-.5-.075c-.169-.135-.376-.367-.364-.544.013-.2.236-.4.4-.563.068-.068.228-.056.347-.056q3.82,0,7.638,0c.131,0,.306-.012.385.062.16.15.367.353.373.539a.87.87,0,0,1-.341.557.859.859,0,0,1-.5.08C1016.888,486.663,1015.649,486.66,1014.409,486.66Z" transform="translate(-997.116 -455.013)" fill="#3d5aa9"/>
  <path id="Path_11051" data-name="Path 11051" d="M1014.513,545.459c-1.266,0-2.533.008-3.8-.008a.85.85,0,0,1-.577-.186.721.721,0,0,1-.134-.6.828.828,0,0,1,.48-.4,1.948,1.948,0,0,1,.634-.023h7.078c.12,0,.241-.005.359.006a.588.588,0,0,1,.586.585.58.58,0,0,1-.59.619c-.452.018-.906.008-1.36.008Q1015.853,545.46,1014.513,545.459Z" transform="translate(-997.261 -508.951)" fill="#3d5aa9"/>
  <path id="Path_11052" data-name="Path 11052" d="M1014.035,514.866c1.253,0,2.506,0,3.759,0a1.587,1.587,0,0,1,.472.053.547.547,0,0,1,.391.62.538.538,0,0,1-.464.524,2.243,2.243,0,0,1-.437.031q-3.679,0-7.358,0c-.639,0-.938-.2-.938-.613s.3-.618.936-.618Z" transform="translate(-996.782 -482.022)" fill="#3d5aa9"/>
  <path id="Path_11053" data-name="Path 11053" d="M1014.153,575.036c-1.253,0-2.506,0-3.759,0a1.571,1.571,0,0,1-.434-.048.551.551,0,0,1-.419-.6.546.546,0,0,1,.487-.549,2.934,2.934,0,0,1,.438-.027q3.679,0,7.358,0a2.758,2.758,0,0,1,.4.023.546.546,0,0,1,.51.567.556.556,0,0,1-.465.608,1.69,1.69,0,0,1-.4.032Z" transform="translate(-996.855 -536.081)" fill="#3d5aa9"/>
  <g id="Ellipse_1" data-name="Ellipse 1" transform="translate(16.637)" fill="#fff" stroke="#3d5aa9" stroke-width="2">
    <circle cx="15" cy="15" r="15" stroke="none"/>
    <circle cx="15" cy="15" r="14" fill="none"/>
  </g>
  <text id="Full-2" data-name="Full" transform="translate(17.741 60.418)" font-size="11" font-family="Poppins-Regular, Poppins"><tspan x="-8.998" y="0">Full</tspan></text>
  <circle id="Ellipse_2" data-name="Ellipse 2" cx="10" cy="10" r="10" transform="translate(21.637 5)"/>
</svg>
