<svg xmlns="http://www.w3.org/2000/svg" width="31.693" height="48.075" viewBox="0 0 31.693 48.075">
  <g id="Group_652" data-name="Group 652" transform="translate(-890.975 -367.317)">
    <path id="Path_14495" data-name="Path 14495" d="M906.845,573.867q6.575,0,13.149,0a2.45,2.45,0,0,1,2.617,3.088c-.057.325-.1.652-.156.978q-1,5.829-1.991,11.659a2.47,2.47,0,0,1-2.515,2.185q-11.114.012-22.228,0a2.49,2.49,0,0,1-2.538-2.222q-1.065-6.346-2.162-12.687a2.443,2.443,0,0,1,2.466-3c1.583-.022,3.166-.006,4.748-.006Zm1.032,8.752a1.05,1.05,0,0,0-2.1-.029,1.05,1.05,0,1,0,2.1.029Z" transform="translate(0 -177.818)" fill="#bcbdbd"/>
    <path id="Path_14496" data-name="Path 14496" d="M937.681,416.017H911.844a7.419,7.419,0,0,1,.806-1.282,8.511,8.511,0,0,1,1.77-1.52c1.713-.984,3.484-1.866,5.235-2.784.245-.128.515-.212.759-.342a1.71,1.71,0,0,0,.7-2.63c-.374-.585-.83-1.116-1.215-1.694a11.3,11.3,0,0,1-1.923-8.521c.659-3.653,3.562-5.91,7.6-5.562a6.548,6.548,0,0,1,6.231,6.4,11.376,11.376,0,0,1-1.033,5.778,1.069,1.069,0,0,1-.585.484,2.8,2.8,0,0,1-1.636-.035,6.962,6.962,0,0,0-2.72-.033,1.838,1.838,0,0,0-1.366,2.072,1.909,1.909,0,0,0,1.634,1.773,17.23,17.23,0,0,0,2.046.016c.048.085.082.117.078.143a1.846,1.846,0,0,0,1.317,2.1c1.16.508,2.367.925,3.484,1.513a27.568,27.568,0,0,1,3.25,2.049A3.772,3.772,0,0,1,937.681,416.017Z" transform="translate(-17.966 -20.948)" fill="#bcbdbd"/>
    <path id="Path_14497" data-name="Path 14497" d="M921.034,380.806c0-.556-.007-1.113,0-1.669a1.879,1.879,0,0,1,.759-1.529.791.791,0,0,0,.261-.5,10.676,10.676,0,0,1,21.153-.975c.025.137.039.275.051.414a1.765,1.765,0,0,0,.592,1.346,1.93,1.93,0,0,1,.492,1.255c.067,1.108.039,2.224.018,3.337a1.814,1.814,0,0,1-2.491,1.749.878.878,0,0,0-.647.073,9.647,9.647,0,0,1-3.816,1.3,1.32,1.32,0,0,0-.973.392.937.937,0,0,1-.607.237,13.244,13.244,0,0,1-1.46.007,1.026,1.026,0,0,1-1.039-1.019,1.006,1.006,0,0,1,1-1.057c.786.022,1.65-.3,2.33.4.052.053.2.033.295.023a8.811,8.811,0,0,0,3.55-1.118c.252-.146.3-.292.29-.613-.054-1.353-.067-2.711,0-4.063a1.761,1.761,0,0,1,.589-1.052.849.849,0,0,0,.3-.8,9.045,9.045,0,0,0-17.927-.352,1.193,1.193,0,0,0,.373,1.278,1.939,1.939,0,0,1,.5,1.25c.068,1.126.034,2.259.02,3.389a1.808,1.808,0,1,1-3.616.014C921.02,381.954,921.034,381.38,921.034,380.806Z" transform="translate(-25.874 0)" fill="#bcbdbd"/>
    <path id="Path_14498" data-name="Path 14498" d="M926.744,706.578H915.116c-.174,0-.38.051-.513-.024-.183-.1-.424-.3-.427-.468s.237-.358.411-.484c.093-.067.27-.022.408-.022h23.621c.139,0,.317-.045.408.024.171.129.385.315.4.5.014.14-.217.352-.387.448a1.131,1.131,0,0,1-.512.031Z" transform="translate(-19.974 -291.202)" fill="#bcbdbd"/>
  </g>
</svg>
