<svg xmlns="http://www.w3.org/2000/svg" width="37.295" height="52.443" viewBox="0 0 37.295 52.443">
  <g id="Icons" transform="translate(0 -6.936)">
    <g id="Group_653" data-name="Group 653" transform="translate(0 6.936)">
      <path id="Path_14499" data-name="Path 14499" d="M758.767,294h.514a1.44,1.44,0,0,1,.418,1.2c-.013,2.73-.006,5.46-.006,8.19v.527a4.708,4.708,0,0,0,.411-1.016c.775-2.461,2.332-3.806,4.531-3.82q5.607-.036,11.214,0c2.2.015,3.748,1.359,4.528,3.828.108.343.22.684.33,1.027l.087-.014v-.532c0-2.73.007-5.46-.006-8.19a1.439,1.439,0,0,1,.418-1.2h.514c.476.394.936.822,1.434,1.172a1.541,1.541,0,0,1,.638,1.426q-.022,14.183-.01,28.366v.649a2.239,2.239,0,0,0,.32.021c1.707-.177,3.083,1.289,3.021,3.651-.061,2.319-.013,4.642-.013,6.963v.613c.324,0,.606-.005.887,0,.675.015.887.271.891,1.09,0,1.212,0,2.424,0,3.635,0,.958-.187,1.182-.977,1.184-.824,0-1.647,0-2.516,0,0,.667,0,1.278,0,1.887-.008,1.146-.531,1.774-1.485,1.778-1.013,0-2.026,0-3.04,0-1.106,0-1.6-.581-1.6-1.9,0-.574,0-1.148,0-1.728H761.221c0,.656.009,1.269,0,1.881-.021,1.122-.541,1.736-1.473,1.741q-1.584.008-3.168,0c-.954,0-1.476-.632-1.485-1.779,0-.61,0-1.22,0-1.888-.926,0-1.807.006-2.687,0-.549-.005-.794-.275-.8-.926q-.021-2.022,0-4.045c.007-.65.248-.914.8-.939.309-.014.62,0,.973,0v-.609c0-2.441-.01-4.882,0-7.322.011-1.961,1.112-3.262,2.748-3.29.18,0,.36,0,.577,0v-.724q0-14.209-.008-28.418a1.4,1.4,0,0,1,.564-1.266C757.778,294.849,758.266,294.413,758.767,294Zm21.125,22.382v-7.7h-19.3v7.7Zm-9.665,18.709c1.426,0,2.852,0,4.278,0,1.026,0,1.524-.588,1.526-1.82q.009-4.733,0-9.466c0-1.214-.52-1.822-1.536-1.824q-4.257-.006-8.514,0c-1,0-1.522.607-1.525,1.785q-.013,4.784,0,9.568c0,1.165.516,1.752,1.492,1.756C767.374,335.1,768.8,335.091,770.226,335.091Zm11.28-3.423c-.4,0-.8-.023-1.195.005a1.533,1.533,0,0,0-.03,2.97,24.145,24.145,0,0,0,2.433,0,1.533,1.533,0,0,0-.013-2.97C782.3,331.645,781.9,331.669,781.506,331.668Zm-22.532,2.992c.37,0,.74.012,1.11,0a1.521,1.521,0,0,0,.039-2.988c-.753-.029-1.509-.027-2.262,0a1.351,1.351,0,0,0-1.237,1.493,1.372,1.372,0,0,0,1.283,1.5C758.262,334.67,758.618,334.661,758.974,334.66Z" transform="translate(-751.593 -294)" fill="#bcbdbd"/>
      <path id="Path_14500" data-name="Path 14500" d="M910.253,567.029c-1.326,0-2.652,0-3.978,0-.183,0-.413.021-.536-.1a1.121,1.121,0,0,1-.39-.7,1.468,1.468,0,0,1,.43-.721c.073-.086.244-.071.371-.072q4.085-.005,8.17,0c.141,0,.327-.015.412.08a1.3,1.3,0,0,1,.4.689,1.167,1.167,0,0,1-.365.713c-.118.12-.352.1-.534.1C912.9,567.032,911.578,567.029,910.253,567.029Z" transform="translate(-891.605 -536.422)" fill="#bcbdbd"/>
      <path id="Path_14501" data-name="Path 14501" d="M910.359,625.848c-1.354,0-2.709.01-4.063-.01a.817.817,0,0,1-.616-.238,1.062,1.062,0,0,1-.143-.772.942.942,0,0,1,.513-.507,1.748,1.748,0,0,1,.678-.03H914.3a3.762,3.762,0,0,1,.385.007.786.786,0,0,1,0,1.541c-.484.024-.969.009-1.454.01Z" transform="translate(-891.755 -588.966)" fill="#bcbdbd"/>
      <path id="Path_14502" data-name="Path 14502" d="M909.885,594.9c1.34,0,2.68,0,4.02,0a1.4,1.4,0,0,1,.5.069.713.713,0,0,1,.419.793.658.658,0,0,1-.5.67,2.038,2.038,0,0,1-.468.04q-3.935,0-7.87,0c-.684,0-1-.252-1-.785s.323-.791,1-.791Z" transform="translate(-891.281 -562.73)" fill="#bcbdbd"/>
      <path id="Path_14503" data-name="Path 14503" d="M910.009,655.407c-1.34,0-2.68,0-4.02,0a1.419,1.419,0,0,1-.464-.061.708.708,0,0,1-.448-.773.666.666,0,0,1,.521-.7,2.679,2.679,0,0,1,.468-.034q3.935,0,7.87,0a2.5,2.5,0,0,1,.426.028.664.664,0,0,1,.545.725.7.7,0,0,1-.5.778,1.478,1.478,0,0,1-.424.04Q912,655.409,910.009,655.407Z" transform="translate(-891.357 -615.367)" fill="#bcbdbd"/>
    </g>
  </g>
</svg>
