<svg xmlns="http://www.w3.org/2000/svg" width="38.208" height="53.276" viewBox="0 0 38.208 53.276">
  <g id="Icons" transform="translate(-961.896 -1650.419)">
    <g id="Group_651" data-name="Group 651" transform="translate(481.863 1367.419)">
      <path id="Path_14489" data-name="Path 14489" d="M560.47,283c.649.165,1.312.289,1.945.5a9.352,9.352,0,1,1-4.312-.406,1.611,1.611,0,0,0,.284-.1Z" transform="translate(-60.29)" fill="#3783ff"/>
      <path id="Path_14490" data-name="Path 14490" d="M486.641,442.522v3.12a6.294,6.294,0,0,1,3.563.456l-1.779,5.475a2.516,2.516,0,0,1-1.72-.634c-1.75-1.53-3.546-3.008-5.321-4.509a3.474,3.474,0,0,1-1.054-4.17q2.143-5.328,4.31-10.646a4.077,4.077,0,0,1,4.037-2.715q10.464-.008,20.928,0a4.077,4.077,0,0,1,4.033,2.72q2.155,5.295,4.288,10.6a3.478,3.478,0,0,1-1.04,4.218c-1.864,1.584-3.723,3.176-5.62,4.72a5.154,5.154,0,0,1-1.371.547l-1.85-5.67a14.3,14.3,0,0,1,1.74-.441,14.93,14.93,0,0,1,1.833-.016v-3.023a1.11,1.11,0,0,0-.339-.053,1.8,1.8,0,0,1-1.66-.779,13.99,13.99,0,0,0-21.075.119,1.545,1.545,0,0,1-1.4.651A3.174,3.174,0,0,0,486.641,442.522Z" transform="translate(0 -125.6)" fill="#3783ff"/>
      <path id="Path_14491" data-name="Path 14491" d="M578.532,512.744l-2.569.752,1.794,5.549-.264.031A1.749,1.749,0,0,1,575.41,518a4.638,4.638,0,0,0-4.718-2.527,4.956,4.956,0,0,0-4.425,3.136c-.162.362-.325.507-.714.472s-.795-.008-1.282-.008l1.806-5.586-2.548-.744A10.758,10.758,0,0,1,578.532,512.744Z" transform="translate(-71.88 -195.163)" fill="#3783ff"/>
      <path id="Path_14492" data-name="Path 14492" d="M634.689,599.526l.82,2.475,1.615-.241a10.7,10.7,0,0,1-8.64,7v-3.589c0-.486.036-.975-.009-1.456a.928.928,0,0,1,.673-1.11,4.72,4.72,0,0,0,2.571-2.729.469.469,0,0,1,.526-.359C633.041,599.54,633.838,599.526,634.689,599.526Z" transform="translate(-127.783 -272.487)" fill="#3783ff"/>
      <path id="Path_14493" data-name="Path 14493" d="M552.693,608.807a10.71,10.71,0,0,1-8.636-7l1.608.24.825-2.473c.872,0,1.737-.009,2.6.011a.454.454,0,0,1,.312.253,5.283,5.283,0,0,0,3.047,3.028.406.406,0,0,1,.231.275C552.7,605.025,552.693,606.914,552.693,608.807Z" transform="translate(-55.117 -272.531)" fill="#3783ff"/>
      <path id="Path_14494" data-name="Path 14494" d="M604.62,577.626a2.057,2.057,0,1,1,2.067-2.049A2.081,2.081,0,0,1,604.62,577.626Z" transform="translate(-105.489 -250.1)" fill="#3783ff"/>
    </g>
  </g>
</svg>
