<svg xmlns="http://www.w3.org/2000/svg" width="251.419" height="251.418" viewBox="0 0 251.419 251.418"><path d="M109.928,2.5H25.937A23.48,23.48,0,0,0,2.5,25.937v83.991a6.392,6.392,0,0,0,6.392,6.392H92.883A23.437,23.437,0,0,0,116.32,92.883V8.892A6.392,6.392,0,0,0,109.928,2.5Zm-6.392,90.383a10.653,10.653,0,0,1-10.653,10.653h-77.6v-77.6A10.653,10.653,0,0,1,25.937,15.284h77.6Z" transform="translate(-2.5 -2.5)"/><path d="M92.883,34.79H8.892A6.392,6.392,0,0,0,2.5,41.182v83.991A23.48,23.48,0,0,0,25.937,148.61h83.991a6.392,6.392,0,0,0,6.392-6.392V58.227A23.437,23.437,0,0,0,92.883,34.79Zm10.653,101.036h-77.6a10.653,10.653,0,0,1-10.653-10.653v-77.6h77.6a10.653,10.653,0,0,1,10.653,10.653Z" transform="translate(-2.5 102.808)"/><path d="M142.218,34.79H58.227A23.437,23.437,0,0,0,34.79,58.227v83.991a6.392,6.392,0,0,0,6.392,6.392h83.991a23.48,23.48,0,0,0,23.437-23.437V41.182A6.392,6.392,0,0,0,142.218,34.79Zm-6.392,90.383a10.653,10.653,0,0,1-10.653,10.653h-77.6v-77.6A10.653,10.653,0,0,1,58.227,47.574h77.6Z" transform="translate(102.809 102.808)"/><path d="M58.227,82.869H68.242V92.883a23.437,23.437,0,0,0,46.875,0V82.869h10.057a23.437,23.437,0,1,0,0-46.875H115.116V25.937a23.437,23.437,0,0,0-46.875,0V35.994H58.227a23.437,23.437,0,1,0,0,46.875Zm0-34.091H74.634a6.392,6.392,0,0,0,6.392-6.392V25.937a10.653,10.653,0,0,1,21.307,0V42.386a6.392,6.392,0,0,0,6.392,6.392h16.449a10.653,10.653,0,1,1,0,21.307H108.724a6.392,6.392,0,0,0-6.392,6.392V92.883a10.653,10.653,0,0,1-21.307,0V76.477a6.392,6.392,0,0,0-6.392-6.392H58.227a10.653,10.653,0,1,1,0-21.307Z" transform="translate(102.809 -2.5)"/></svg>