<svg xmlns="http://www.w3.org/2000/svg" width="12.726" height="11.313" viewBox="0 0 12.726 11.313">
    <path id="Icon_awesome-file-export" data-name="Icon awesome-file-export"
        d="M8.485,2.694A.529.529,0,0,0,8.33,2.32L6.167.155A.53.53,0,0,0,5.791,0H5.657V2.828H8.485Zm4.132,4.112L10.5,4.676a.354.354,0,0,0-.605.25V6.364H8.483V7.778H9.9V9.219a.354.354,0,0,0,.605.25l2.115-2.132A.376.376,0,0,0,12.617,6.806Zm-8.374.619V6.717A.355.355,0,0,1,4.6,6.364H8.485V3.535H5.48a.532.532,0,0,1-.53-.53V0H.53A.529.529,0,0,0,0,.53V10.783a.529.529,0,0,0,.53.53H7.955a.529.529,0,0,0,.53-.53V7.778H4.6A.355.355,0,0,1,4.242,7.424Z"
        fill="#fff" />
</svg>