<svg id="calculator" xmlns="http://www.w3.org/2000/svg" width="512" height="512" viewBox="0 0 512 512">
  <path id="Path_2333" data-name="Path 2333" d="M45,241H196a45.05,45.05,0,0,0,45-45V45A45.05,45.05,0,0,0,196,0H45A45.05,45.05,0,0,0,0,45V196A45.05,45.05,0,0,0,45,241ZM76,106h30V76a15,15,0,0,1,30,0v30h30a15,15,0,0,1,0,30H136v30a15,15,0,0,1-30,0V136H76a15,15,0,0,1,0-30Z" fill="#fff"/>
  <path id="Path_2334" data-name="Path 2334" d="M467,0H316a45.05,45.05,0,0,0-45,45V196a45.05,45.05,0,0,0,45,45H467a45.05,45.05,0,0,0,45-45V45A45.05,45.05,0,0,0,467,0ZM437,136H346a15,15,0,0,1,0-30h91a15,15,0,0,1,0,30Z" fill="#fff"/>
  <path id="Path_2335" data-name="Path 2335" d="M467,271H316a45.05,45.05,0,0,0-45,45V467a45.05,45.05,0,0,0,45,45H467a45.05,45.05,0,0,0,45-45V316A45.05,45.05,0,0,0,467,271ZM437,436H346a15,15,0,0,1,0-30h91a15,15,0,0,1,0,30Zm0-60H346a15,15,0,0,1,0-30h91a15,15,0,0,1,0,30Z" fill="#fff"/>
  <path id="Path_2336" data-name="Path 2336" d="M241,467V316a45.05,45.05,0,0,0-45-45H45A45.05,45.05,0,0,0,0,316V467a45.05,45.05,0,0,0,45,45H196A45.05,45.05,0,0,0,241,467Zm-77.578-54.789a15,15,0,1,1-21.211,21.211L121,412.211,99.789,433.422a15,15,0,1,1-21.211-21.211L99.789,391,78.578,369.789a15,15,0,1,1,21.211-21.211L121,369.789l21.211-21.211a15,15,0,1,1,21.211,21.211L142.211,391Z" fill="#fff"/>
</svg>
