<svg xmlns="http://www.w3.org/2000/svg" width="512.001" height="390" viewBox="0 0 512.001 390">
  <g id="folder-5" transform="translate(0 -61)">
    <path id="Path_2337" data-name="Path 2337" d="M30,196a45.051,45.051,0,0,1,45-45H335a45.051,45.051,0,0,1,45,45v15h30V161a40.045,40.045,0,0,0-40-40H190V101a40.045,40.045,0,0,0-40-40H40A40.045,40.045,0,0,0,0,101V375.069l30-48.032Z" fill="#fff"/>
    <path id="Path_2338" data-name="Path 2338" d="M335,181H75a15,15,0,0,0-15,15v83l29.257-46.843A44.745,44.745,0,0,1,127.424,211H350V196A15,15,0,0,0,335,181Z" fill="#fff"/>
    <path id="Path_2339" data-name="Path 2339" d="M395.026,451h-380A15,15,0,0,1,2.3,428.053l112.424-180A15,15,0,0,1,127.451,241H476.994a35,35,0,0,1,29.214,54.275L407.534,444.281A15,15,0,0,1,395.026,451Z" fill="#fff"/>
  </g>
</svg>
