<svg id="Group_116" data-name="Group 116" xmlns="http://www.w3.org/2000/svg" width="83.24" height="41.667" viewBox="0 0 83.24 41.667">
  <g id="Group_114" data-name="Group 114">
    <path id="Path_433" data-name="Path 433" d="M1619.525-395.9c-.455,7.289-3.955,13.132-11.229,16.385a18.231,18.231,0,0,1-20.1-3.655c-3.175-3.062-6.273-6.206-9.349-9.368-.731-.751-1.121-.835-1.9-.026q-4.345,4.511-8.842,8.876c-5.665,5.506-12.333,7.224-19.767,4.478-7.377-2.725-11.382-8.349-11.99-16.135-.473-6.06,1.9-11.146,6.407-15.2a4.426,4.426,0,0,1,5.085-.8,1.4,1.4,0,0,0,1.934-.433c1.033-1.126,2.138-2.187,3.238-3.25a4.7,4.7,0,0,1,5.2-1.154,4.481,4.481,0,0,1,3.116,4.1c.048.689.189.964.981,1.069,2.637.351,4.18,1.689,4.446,4.222.188,1.787,1.547.942,2.291,1.414.9.573.877-.356,1.131-.775a4.821,4.821,0,0,1,6.854-1.74,1.424,1.424,0,0,0,1.7,0c2.69-1.53,5.315-.77,6.929,1.894.236.389.3,1.2,1.048.625.688-.529,2.026.449,2.27-1.222.4-2.757,1.816-4.087,4.463-4.423.757-.1.953-.3,1-1.028a4.508,4.508,0,0,1,3.246-4.191,4.754,4.754,0,0,1,5.175,1.3c1.123,1.123,2.256,2.237,3.356,3.382a1.114,1.114,0,0,0,1.512.278,4.848,4.848,0,0,1,5.79,1.174A19.271,19.271,0,0,1,1619.525-395.9Zm-81.17-1.26c.026,7.371,3.951,13.359,10.1,15.8,6.59,2.615,12.644,1.455,17.748-3.426,5.651-5.4,11.091-11.028,16.613-16.566,1.592-1.6,1.724-3.206.418-4.454-1.222-1.169-2.848-1.015-4.347.466-2.509,2.481-5,4.983-7.488,7.482-.517.519-1.083,1.086-1.816.531-.752-.569-.313-1.2.09-1.833a2.647,2.647,0,0,0-.318-3.545,2.614,2.614,0,0,0-3.533-.353c-.554.349-1.073.81-1.719.2s-.26-1.145.117-1.708a2.6,2.6,0,0,0-.273-3.538,2.663,2.663,0,0,0-3.677-.32c-.523.342-1.024.678-1.574.169-.606-.562-.285-1.119.048-1.726.869-1.584.615-3.027-.605-3.913-1.242-.9-2.578-.713-3.935.607-1.476,1.434-2.965,2.858-4.365,4.364-.7.75-1.1.889-1.932.087-1.3-1.256-2.732-1.139-4.064.1A16.226,16.226,0,0,0,1538.355-397.162Zm79.073,1.405a16.986,16.986,0,0,0-5.454-12.951,2.827,2.827,0,0,0-4.357.016q-2.16,2.076-4.236,4.24c-1.36,1.416-1.407,3.036-.19,4.215s2.792,1.074,4.22-.282c.766-.728,1.489-1.5,2.252-2.234a.974.974,0,0,1,1.418-.079.846.846,0,0,1,.192,1.256c-1.717,1.711-3.108,4.379-5.829,4.078a11.85,11.85,0,0,0-6.309.822c-.714.306-1.1.341-1.168,1.24a4.462,4.462,0,0,1-3.177,4.053,4.683,4.683,0,0,1-5.053-1.124c-1.14-1.1-2.243-2.244-3.369-3.362-3.3-3.278-3.28-3.257-6.388.265-.539.61-.443.9.059,1.394,3.39,3.341,6.6,6.884,10.17,10.017a15.457,15.457,0,0,0,17.56,2.635C1614.026-384.371,1617.058-389.544,1617.428-395.757Zm-24.185,2.646a2.837,2.837,0,0,0,2.474-1.693,2.686,2.686,0,0,0-.542-3.1c-1.565-1.595-3.119-3.2-4.741-4.737a2.746,2.746,0,0,0-4.082-.069,2.842,2.842,0,0,0,.193,4.1c1.465,1.527,2.986,3,4.478,4.5A3.317,3.317,0,0,0,1593.243-393.112Zm7.08-9c-.014-.794.275-1.268-.149-1.68-1.644-1.594-3.2-3.3-4.956-4.752a2.424,2.424,0,0,0-3.368.369,2.431,2.431,0,0,0-.443,3.366,39.326,39.326,0,0,0,5.706,5.738,2.552,2.552,0,0,0,2.991-.024c1.089-.595.45-1.386.323-2.135C1600.357-401.636,1600.33-402.048,1600.323-402.114Zm-3.841-9.076c.571,2.287,2.915,3.721,4.807,5.319.68.574,1.7-1.352,2.623-2.057.37-.282.653-.674,1-.986.371-.33.431-.616.045-.99-1.349-1.308-2.643-2.677-4.036-3.936a2.494,2.494,0,0,0-2.971-.266C1597-413.609,1596.494-412.773,1596.482-411.19Zm-23.917,9.533c1.121-1.225,2.1-2.375,3.17-3.44.874-.872.3-1.146-.469-1.363a2.633,2.633,0,0,0-2.979.91C1571.388-404.4,1571.423-403.2,1572.565-401.656Z" transform="translate(-1536.285 419.593)" fill="#fff"/>
    <path id="Path_434" data-name="Path 434" d="M1650.865-421.651c0-.822,0-1.645,0-2.467a.959.959,0,0,1,.917-1.083.926.926,0,0,1,1.072.927q.087,2.64.016,5.284a.948.948,0,0,1-1.016,1c-.737-.026-.992-.519-.991-1.193Q1650.866-420.417,1650.865-421.651Z" transform="translate(-1610.382 425.206)" fill="#fff"/>
    <path id="Path_435" data-name="Path 435" d="M1665.26-409.634a1.109,1.109,0,0,1-.985-.614.864.864,0,0,1,.2-1.112c1.224-1.247,2.451-2.492,3.7-3.714a.978.978,0,0,1,1.289-.115.825.825,0,0,1,.285,1.22c-1.342,1.445-2.764,2.817-4.163,4.209C1665.507-409.685,1665.369-409.675,1665.26-409.634Z" transform="translate(-1618.974 418.85)" fill="#fff"/>
    <path id="Path_436" data-name="Path 436" d="M1625.968-415.27a1.449,1.449,0,0,1,1.258.511c1.023,1.037,2.05,2.071,3.089,3.092.553.543.917,1.131.266,1.8-.629.643-1.164.183-1.64-.289-1.117-1.108-2.232-2.218-3.331-3.344a.966.966,0,0,1-.278-1.252C1625.523-415.089,1625.785-415.276,1625.968-415.27Z" transform="translate(-1593.785 418.783)" fill="#fff"/>
  </g>
</svg>
