<svg xmlns="http://www.w3.org/2000/svg" width="21.998" height="23.051" viewBox="0 0 21.998 23.051">
  <g id="Group_1635" data-name="Group 1635" transform="translate(21339.998 15854.628)">
    <g id="compliant" transform="translate(-21847.129 -16202.628)">
      <path id="Path_11091" data-name="Path 11091" d="M522,348q0,1.642,0,3.286,0,4.062,0,8.124a1.243,1.243,0,0,0,.074.39,1.449,1.449,0,0,1,.005.926,1.516,1.516,0,0,0-.079.433c-.008.637,0,1.274,0,1.943.068-.036.116-.06.162-.087a1.147,1.147,0,0,1,1.29.053,1.094,1.094,0,0,1,.427,1.2c-.042.175.008.234.142.31.662.382,1.319.773,1.977,1.162.057.034.112.071.18.114l-.337.574-2.354-1.382-.9,1.527c.04.029.069.052.1.071q2.2,1.295,4.4,2.587A.89.89,0,1,0,528,367.7c-.461-.281-.929-.55-1.393-.824-.058-.034-.114-.07-.19-.117l.345-.588c.609.373,1.237.7,1.8,1.116a1.518,1.518,0,0,1,.276,2.084,1.569,1.569,0,0,1-2.1.436q-2.038-1.191-4.07-2.393c-.141-.083-.283-.164-.434-.251a1.171,1.171,0,0,1-2.065-.957h-1.735c-.03.342-.059.672-.089,1.019h1.614v1.55H521.1v2.274H510.743v-2.264h1.118v-1.555h3.682l.014-.044c-.39-.229-.792-.441-1.166-.694a1.849,1.849,0,0,0-1.116-.306c-1.95.017-3.9.008-5.852.008h-.277v-5.271h.661v4.583h5.15a4.02,4.02,0,0,1-.053-.886,1.255,1.255,0,0,1,1.555-1.02c.116.025.176.011.236-.092q1.153-1.969,2.311-3.936a.684.684,0,0,0,.029-.069,1.3,1.3,0,0,1,1.563-2.073c.837.484,1.667.98,2.5,1.47.062.037.127.068.21.113v-10.32H511.188v3.361h-3.369v8.131h-.686v-.236q0-4.074,0-8.147a.477.477,0,0,1,.152-.373q1.713-1.708,3.416-3.427Zm-10.576,22.357h8.983v-.9h-.274q-1.384,0-2.767,0c-.089,0-.211.039-.211-.122v-.556h2.122v-.866h-6.719v.876h3.9v.668h-5.032C511.424,369.773,511.424,370.061,511.424,370.357Zm5.983-5.1,2.413-4.1-2.2-1.294-2.413,4.1Zm-.279,1.992a.68.68,0,0,0,.6-.471.613.613,0,0,0-.324-.738q-1.439-.854-2.885-1.7a.622.622,0,1,0-.622,1.074q1.43.847,2.866,1.684A2.475,2.475,0,0,0,517.128,367.253Zm3.7-6.348a.665.665,0,0,0,.625-.453.624.624,0,0,0-.318-.744q-1.439-.854-2.884-1.7a.8.8,0,0,0-.292-.1.619.619,0,0,0-.363,1.159q1.448.86,2.9,1.708A2.264,2.264,0,0,0,520.828,360.9Zm1.943,2.616a.505.505,0,0,0-.462.3c-.45.77-.9,1.537-1.355,2.306-.183.313-.134.594.122.74a.493.493,0,0,0,.692-.252c.226-.38.449-.762.673-1.143.239-.407.485-.81.716-1.222A.469.469,0,0,0,522.771,363.521Zm-14.424-12.153H510.5v-2.13Zm10.613,12.587,1.849,1.087.471-.8-1.85-1.085Zm.815-1.384,1.528.895v-1.91c-.283-.016-.548-.035-.813-.041a.186.186,0,0,0-.136.079C520.16,361.91,519.973,362.233,519.775,362.571Zm-1.158,1.965-.57.97h2.217Z" transform="translate(0)" fill="#b2b2b2"/>
      <path id="Path_11092" data-name="Path 11092" d="M588.716,382.453a2.7,2.7,0,1,1,2.674-2.739A2.708,2.708,0,0,1,588.716,382.453Zm-.033-4.717a2.02,2.02,0,0,0,0,4.04,2.02,2.02,0,1,0,0-4.04Z" transform="translate(-74.128 -27.315)" fill="#b2b2b2"/>
      <path id="Path_11093" data-name="Path 11093" d="M552.8,541.267H546.75v-.647H552.8Z" transform="translate(-37.242 -181.057)" fill="#b2b2b2"/>
      <path id="Path_11094" data-name="Path 11094" d="M552.575,484.1v.663h-6.061c0-.189-.008-.366.005-.542,0-.043.07-.1.12-.115a.518.518,0,0,1,.178-.005h5.758Z" transform="translate(-37.018 -127.922)" fill="#b2b2b2"/>
      <path id="Path_11095" data-name="Path 11095" d="M546.71,513.689v-.639h6.05v.639Z" transform="translate(-37.204 -155.142)" fill="#b2b2b2"/>
      <path id="Path_11096" data-name="Path 11096" d="M546.441,568.46H549.8v.65c-.07,0-.136.013-.2.013-.974,0-1.949,0-2.922,0-.185,0-.259-.049-.238-.238C546.452,568.757,546.441,568.622,546.441,568.46Z" transform="translate(-36.946 -207.226)" fill="#b2b2b2"/>
      <path id="Path_11097" data-name="Path 11097" d="M612.047,403.833l-1.641,1.944-.916-1.269.546-.394.411.564,1.084-1.278Z" transform="translate(-96.215 -52.074)" fill="#b2b2b2"/>
    </g>
  </g>
</svg>
