<svg id="Capa_1" data-name="Capa 1" xmlns="http://www.w3.org/2000/svg" viewBox="0 0 341.14 512"><defs><style>.cls-1{fill:#fff;}</style></defs><path d="M372.65,27.14,333.76,7.56,294.88,27.13,256,7.56,217.1,27.13,178.22,7.56,139.34,27.13,85.43,0V512l53.91-27.14,38.88,19.58,38.88-19.58L256,504.44l38.89-19.58,38.88,19.58,38.89-19.58L426.57,512V0Zm-31,392.11H170.34V389.19H341.66Zm0-62H170.34V327.2H341.66Z" transform="translate(-85.43 0)"/><g id="Layer_2" data-name="Layer 2"><g id="Layer_1-2" data-name="Layer 1-2"><path class="cls-1" d="M207.53,176.21a14.44,14.44,0,0,0,13.62,15.22H222a14.45,14.45,0,1,0-14.48-15.22Z" transform="translate(-85.43 0)"/><path class="cls-1" d="M153.62,172.49a4.67,4.67,0,1,0,4.4,4.92,4.63,4.63,0,0,0-4.4-4.92Z" transform="translate(-85.43 0)"/><path class="cls-1" d="M206.61,92.31A4.68,4.68,0,0,0,202.38,84a4.68,4.68,0,0,0,4.23,8.35Z" transform="translate(-85.43 0)"/><path class="cls-1" d="M221.26,117.9a7.2,7.2,0,1,0-9.67-3.21A7.23,7.23,0,0,0,221.26,117.9Z" transform="translate(-85.43 0)"/><path class="cls-1" d="M171.93,135.46a5.95,5.95,0,1,0-1.72-8.24h0A5.92,5.92,0,0,0,171.93,135.46Z" transform="translate(-85.43 0)"/><path class="cls-1" d="M180.69,169.92a7.22,7.22,0,1,0,6.81,7.61h0A7.23,7.23,0,0,0,180.69,169.92Z" transform="translate(-85.43 0)"/><path class="cls-1" d="M172.73,218.39a6,6,0,1,0,8,2.63h0a6,6,0,0,0-8-2.63Z" transform="translate(-85.43 0)"/><path class="cls-1" d="M200.77,155a8.48,8.48,0,1,0-2.46-11.73A8.43,8.43,0,0,0,200.77,155Z" transform="translate(-85.43 0)"/><path class="cls-1" d="M289.76,117.32a7.23,7.23,0,1,0-2.06-10h0a7.15,7.15,0,0,0,2.06,10Z" transform="translate(-85.43 0)"/><path class="cls-1" d="M304.53,91.86a4.67,4.67,0,1,0-1.37-6.53,4.82,4.82,0,0,0,1.37,6.53Z" transform="translate(-85.43 0)"/><path class="cls-1" d="M290.85,162.42a14.44,14.44,0,0,0-1.6,28.84h.8a14.43,14.43,0,0,0,.8-28.84Z" transform="translate(-85.43 0)"/><path class="cls-1" d="M226,154a14.46,14.46,0,1,0,6.41-19.46A14.49,14.49,0,0,0,226,154Z" transform="translate(-85.43 0)"/><path class="cls-1" d="M339.27,135.46a5.95,5.95,0,1,0-8.07-2.63,6,6,0,0,0,8.07,2.63Z" transform="translate(-85.43 0)"/><path class="cls-1" d="M302.64,140A8.49,8.49,0,1,0,314,143.82,8.49,8.49,0,0,0,302.64,140Z" transform="translate(-85.43 0)"/><path class="cls-1" d="M255.43,89.68a6,6,0,1,0-5.61-6.35,6,6,0,0,0,5.61,6.35Z" transform="translate(-85.43 0)"/><path class="cls-1" d="M255.37,127.05a8.48,8.48,0,1,0-8-8.93,8.43,8.43,0,0,0,8,8.93Z" transform="translate(-85.43 0)"/><path class="cls-1" d="M209.36,213.81A8.48,8.48,0,1,0,198,210,8.49,8.49,0,0,0,209.36,213.81Z" transform="translate(-85.43 0)"/><path class="cls-1" d="M260.86,139.47A14.47,14.47,0,1,0,272.94,133,14.42,14.42,0,0,0,260.86,139.47Z" transform="translate(-85.43 0)"/><path class="cls-1" d="M286,199.9a14.45,14.45,0,1,0-6.41,19.41h0A14.4,14.4,0,0,0,286.05,200C286.05,200,286.05,200,286,199.9Z" transform="translate(-85.43 0)"/><path class="cls-1" d="M311.23,198.87a8.48,8.48,0,1,0,2.46,11.74,8.44,8.44,0,0,0-2.46-11.74Z" transform="translate(-85.43 0)"/><path class="cls-1" d="M338.92,177.18a7.22,7.22,0,1,0-7.61,6.81h0A7.26,7.26,0,0,0,338.92,177.18Z" transform="translate(-85.43 0)"/><path class="cls-1" d="M358.9,172a4.67,4.67,0,1,0,4.4,4.93A4.71,4.71,0,0,0,358.9,172Z" transform="translate(-85.43 0)"/><path class="cls-1" d="M340.07,218.39a6,6,0,1,0,1.72,8.24,5.92,5.92,0,0,0-1.72-8.24Z" transform="translate(-85.43 0)"/><path class="cls-1" d="M207.41,262a4.67,4.67,0,1,0,1.32,6.46h0A4.58,4.58,0,0,0,207.41,262Z" transform="translate(-85.43 0)"/><path class="cls-1" d="M305.39,261.54a4.68,4.68,0,0,0,4.23,8.36,4.68,4.68,0,0,0-4.23-8.36Z" transform="translate(-85.43 0)"/><path class="cls-1" d="M251.14,214.38a14.47,14.47,0,1,0-20,4.18,14.5,14.5,0,0,0,20-4.18Z" transform="translate(-85.43 0)"/><path class="cls-1" d="M222.23,236.53a7.23,7.23,0,1,0,2.07,10h0A7.17,7.17,0,0,0,222.23,236.53Z" transform="translate(-85.43 0)"/><path class="cls-1" d="M255.94,264.17a6,6,0,1,0,5.61,6.35,6,6,0,0,0-5.61-6.35Z" transform="translate(-85.43 0)"/><path class="cls-1" d="M256,226.8a8.48,8.48,0,1,0,8,8.93,8.44,8.44,0,0,0-8-8.93Z" transform="translate(-85.43 0)"/><path class="cls-1" d="M290.74,236a7.23,7.23,0,1,0,9.78,3.2,7.23,7.23,0,0,0-9.78-3.2Z" transform="translate(-85.43 0)"/></g></g></svg>