<svg xmlns="http://www.w3.org/2000/svg" width="512" height="354.958" viewBox="0 0 512 354.958"><g transform="translate(0 -78.521)"><path d="M386.689,304.4a64.538,64.538,0,1,0,64.538,64.538A64.61,64.61,0,0,0,386.689,304.4Zm0,96.807a32.269,32.269,0,1,1,32.269-32.269A32.3,32.3,0,0,1,386.689,401.21Z"/><path d="M166.185,304.4a64.538,64.538,0,1,0,64.538,64.538A64.61,64.61,0,0,0,166.185,304.4Zm0,96.807a32.269,32.269,0,1,1,32.269-32.269A32.3,32.3,0,0,1,166.185,401.21Z"/><path d="M430.15,119.675a16.143,16.143,0,0,0-14.419-8.885H330.756v32.269h75.025l43.934,87.384,28.838-14.5Z"/><rect width="122.084" height="32.269" transform="translate(216.202 353.345)"/><path d="M117.781,353.345H61.849a16.134,16.134,0,0,0,0,32.268h55.933a16.134,16.134,0,1,0,0-32.268Z"/><path d="M508.612,254.709l-31.736-40.874a16.112,16.112,0,0,0-12.741-6.239H346.891V94.655a16.133,16.133,0,0,0-16.134-16.134H61.849a16.134,16.134,0,1,0,0,32.268H314.622V223.73a16.133,16.133,0,0,0,16.134,16.134H456.234l23.5,30.268v83.211H435.092a16.134,16.134,0,1,0,0,32.268h60.773A16.134,16.134,0,0,0,512,369.477V264.605A16.157,16.157,0,0,0,508.612,254.709Z"/><path d="M116.706,271.6H42.487a16.134,16.134,0,0,0,0,32.268h74.218a16.134,16.134,0,0,0,0-32.268Z"/><path d="M153.815,208.134H16.134a16.134,16.134,0,0,0,0,32.269H153.815a16.134,16.134,0,0,0,0-32.269Z"/><path d="M180.168,144.672H42.487a16.134,16.134,0,0,0,0,32.268H180.168a16.134,16.134,0,1,0,0-32.268Z"/></g></svg>