<svg xmlns="http://www.w3.org/2000/svg" width="512" height="319.991" viewBox="0 0 512 319.991"><g transform="translate(0 -96.004)"><path d="M404.267,315.41c-10.048-20.949-45.995-50.027-80.725-78.123-19.371-15.659-37.675-30.464-49.344-42.133a10.663,10.663,0,0,0-11.157-2.5c-7.189,2.6-11.627,4.608-15.125,6.165-5.333,2.389-7.125,3.2-14.315,3.925a10.663,10.663,0,0,0-7.808,4.672c-15.083,22.549-30.7,20.629-41.131,17.131-3.328-1.109-3.925-2.539-4.245-3.9-2.24-9.365,9-31.168,23.573-45.739,34.667-34.688,52.544-43.371,90.3-26.5,42.837,19.157,85.76,34.155,86.187,34.3a10.673,10.673,0,1,0,7.018-20.16c-.427-.149-42.5-14.848-84.48-33.643-48.917-21.867-75.755-7.467-114.091,30.891-14.592,14.592-34.411,44.117-29.291,65.771,2.2,9.216,8.683,16.043,18.325,19.221,24.171,7.979,46.229.341,62.656-21.461,6.784-1.045,10.475-2.581,16.021-5.077,2.005-.9,4.352-1.941,7.467-3.2,12.2,11.456,28.672,24.789,46.016,38.805,31.36,25.365,66.923,54.123,74.923,70.763,3.947,8.213-.3,13.568-3.179,16.021-4.224,3.627-10.005,4.779-13.141,2.581a10.664,10.664,0,0,0-16.661,9.92c.725,6.784-5.483,10.667-8.171,12.011-6.827,3.456-13.952,2.859-16.619.384a10.664,10.664,0,0,0-17.9,6.8,20.269,20.269,0,0,1-12.587,16.341c-3.264,1.237-8,1.984-12.245-1.9a10.791,10.791,0,0,0-9.749-2.475,10.651,10.651,0,0,0-7.488,6.72c-.4,1.067-1.323,3.627-11.307,3.627-7.1,0-19.883-4.8-26.133-8.939-7.488-4.928-54.443-39.957-95-73.92-5.7-4.8-15.552-15.083-24.256-24.171-7.723-8.064-14.784-15.381-18.411-18.453a10.672,10.672,0,0,0-13.781,16.3c3.307,2.8,9.707,9.557,16.768,16.917,9.515,9.941,19.349,20.224,25.963,25.771,39.723,33.259,87.467,69.163,96.981,75.413,7.851,5.163,24.768,12.416,37.867,12.416,10.517,0,18.6-2.411,24.213-7.125a33.2,33.2,0,0,0,24.256-.256,42.019,42.019,0,0,0,22.208-20.5,41.251,41.251,0,0,0,26.773-3.861c8.555-4.309,14.741-10.9,17.813-18.6a34.885,34.885,0,0,0,24.469-8.768C407.979,346.407,411.349,330.109,404.267,315.41Z"/><path d="M213.333,138.663h-96a10.667,10.667,0,1,0,0,21.334h96a10.667,10.667,0,1,0,0-21.334Z"/><path d="M435.52,292.711a10.64,10.64,0,0,0-14.8-2.9l-31.189,20.949a10.668,10.668,0,0,0,11.9,17.707l31.189-20.949A10.676,10.676,0,0,0,435.52,292.711Z"/><path d="M369.3,343.613c-7.637-6.016-41.792-40.981-62.912-63a10.668,10.668,0,0,0-15.4,14.763c5.483,5.717,53.845,56.128,65.088,65a10.623,10.623,0,0,0,6.592,2.283,10.778,10.778,0,0,0,8.4-4.075A10.659,10.659,0,0,0,369.3,343.613Z"/><path d="M326.677,365.01c-12.779-10.219-44.885-44.331-52.139-52.224a10.675,10.675,0,0,0-15.723,14.443c.384.4,38.7,41.771,54.528,54.443a10.67,10.67,0,0,0,13.334-16.662Z"/><path d="M284.224,386.493c-15.211-12.821-46.336-45.952-52.416-52.459a10.671,10.671,0,1,0-15.595,14.571c8.747,9.365,38.528,40.939,54.251,54.208a10.673,10.673,0,0,0,13.76-16.32Z"/><path d="M124.672,120.253C106.389,102.93,33.28,97.319,11.307,96.018A10.658,10.658,0,0,0,0,106.663v192A10.671,10.671,0,0,0,10.667,309.33h64A10.656,10.656,0,0,0,84.8,301.97c1.557-4.779,38.315-117.589,43.157-173.056A10.612,10.612,0,0,0,124.672,120.253ZM66.88,288H21.333V118.1c34.283,2.709,71.275,8.6,84.715,15.125C100.395,179.943,74.816,262.951,66.88,288Z"/><path d="M501.333,117.33c-83.755,0-130.219,21.44-132.16,22.336a10.613,10.613,0,0,0-5.7,6.635,10.756,10.756,0,0,0,1.173,8.661c13.184,21.227,54.464,139.115,62.4,167.872a10.665,10.665,0,0,0,10.283,7.829h64A10.671,10.671,0,0,0,512,320V128A10.657,10.657,0,0,0,501.333,117.33Zm-10.666,192H445.312C435.2,276.391,405.333,190.5,388.672,155c16.277-5.525,51.243-15.019,101.995-16.213Z"/></g></svg>