<svg xmlns="http://www.w3.org/2000/svg" width="512" height="512" viewBox="0 0 512 512"><path d="M347,302a14.918,14.918,0,0,1,15,14.8h30a44.883,44.883,0,0,0-30-42.231V242H332v32.58A45,45,0,0,0,347,362a15,15,0,1,1-15,15H302a45.071,45.071,0,0,0,30,42.42V451.8h30V419.42A45,45,0,0,0,347,332a15,15,0,0,1,0-30Z"/><path d="M347,182c-5.057,0-10.058.242-15,.689V90c0-26.011-18.548-49.61-52.226-66.449C249.4,8.364,209.35,0,167,0,124.564,0,84.193,8.347,53.323,23.5,18.938,40.385,0,64,0,90V362c0,26,18.938,49.616,53.323,66.5C84.193,443.653,124.564,452,167,452a303.971,303.971,0,0,0,49.615-4A164.808,164.808,0,0,0,347,512c90.981,0,165-74.019,165-165S437.981,182,347,182ZM66.545,50.432C92.992,37.447,129.606,30,167,30c79.558,0,135,31.621,135,60s-55.442,60-135,60c-37.394,0-74.008-7.447-100.455-20.432C43.32,118.166,30,103.744,30,90S43.32,61.834,66.545,50.432ZM30,142.265A139.987,139.987,0,0,0,53.323,156.5C84.193,171.653,124.564,180,167,180c42.35,0,82.4-8.364,112.774-23.551A137.286,137.286,0,0,0,302,142.727v45.51a165.266,165.266,0,0,0-76.778,47.548A265.006,265.006,0,0,1,167,242c-37.394,0-74.008-7.447-100.455-20.432C43.32,210.166,30,195.744,30,182Zm0,92A139.987,139.987,0,0,0,53.323,248.5C84.193,263.653,124.564,272,167,272a311.42,311.42,0,0,0,34.021-1.839,163.743,163.743,0,0,0-18.293,61.395c-5.211.286-10.465.444-15.728.444-37.394,0-74.008-7.447-100.455-20.432C43.32,300.166,30,285.744,30,272ZM167,422c-37.394,0-74.008-7.447-100.455-20.432C43.32,390.166,30,375.744,30,362V324.264A139.986,139.986,0,0,0,53.323,338.5C84.193,353.653,124.564,362,167,362c5.23,0,10.459-.132,15.654-.388a163.725,163.725,0,0,0,16.486,58.557A280.559,280.559,0,0,1,167,422Zm180,60c-74.439,0-135-60.561-135-135s60.561-135,135-135,135,60.561,135,135S421.439,482,347,482Z"/></svg>