<svg xmlns="http://www.w3.org/2000/svg" width="24" height="24" viewBox="0 0 24 24">
  <path id="Path_90" data-name="Path 90" d="M23.138,7.641c-1.166-.92-2.133-1.658-7.7-5.7C14.658,1.369,13.111,0,12.019,0h-.037C10.889,0,9.342,1.369,8.559,1.94c-5.565,4.042-6.532,4.782-7.7,5.7A2.238,2.238,0,0,0,0,9.413V21a3,3,0,0,0,3,3H21a3,3,0,0,0,3-3V9.413A2.23,2.23,0,0,0,23.138,7.641ZM21.75,21a.751.751,0,0,1-.75.75H3A.751.751,0,0,1,2.25,21V12.97l6.38,5.316a5.281,5.281,0,0,0,6.744-.005l6.376-5.31Zm0-10.959-7.819,6.473a3.1,3.1,0,0,1-3.866,0L2.25,10.041l0-.632c1.089-.859,1.98-1.545,7.636-5.653.144-.106.313-.236.5-.379A10.525,10.525,0,0,1,12,2.279a10.573,10.573,0,0,1,1.613,1.1c.186.144.354.274.5.384,5.645,4.1,6.54,4.79,7.633,5.652Z" fill="#c5c5c5"/>
</svg>
