<svg xmlns="http://www.w3.org/2000/svg" width="25.6" height="18" viewBox="0 0 25.6 18">
  <path id="Path_92" data-name="Path 92" d="M25.765,5.816A3.217,3.217,0,0,0,23.5,3.538C21.505,3,13.5,3,13.5,3s-8.005,0-10,.538A3.217,3.217,0,0,0,1.235,5.816a33.744,33.744,0,0,0-.535,6.2,33.744,33.744,0,0,0,.535,6.2A3.169,3.169,0,0,0,3.5,20.462c2,.538,10,.538,10,.538s8.005,0,10-.538a3.169,3.169,0,0,0,2.263-2.242,33.744,33.744,0,0,0,.535-6.2A33.744,33.744,0,0,0,25.765,5.816ZM10.882,15.825V8.212l6.691,3.806-6.691,3.806Z" transform="translate(-0.7 -3)" fill="#c5c5c5"/>
</svg>
