<svg xmlns="http://www.w3.org/2000/svg" width="106.294" height="73.652" viewBox="0 0 106.294 73.652">
  <g id="email" transform="translate(-9.353 -24.168)">
    <path id="Path_48" data-name="Path 48" d="M105.182,97.82H19.818A10.477,10.477,0,0,1,9.353,87.354V34.634A10.477,10.477,0,0,1,19.818,24.168h85.364a10.477,10.477,0,0,1,10.465,10.466v52.72A10.477,10.477,0,0,1,105.182,97.82ZM19.818,28.168a6.472,6.472,0,0,0-6.465,6.466v52.72a6.472,6.472,0,0,0,6.465,6.466h85.364a6.472,6.472,0,0,0,6.465-6.466V34.634a6.472,6.472,0,0,0-6.465-6.466Z" fill="#94a3b8"/>
    <path id="Path_49" data-name="Path 49" d="M62.5,72.764a2,2,0,0,1-1.324-.5l-48.2-42.548,2.647-3L62.5,68.1l46.879-41.379,2.647,3-48.2,42.548a1.994,1.994,0,0,1-1.326.5Z" fill="#94a3b8"/>
    <path id="Path_50" data-name="Path 50" d="M5.012,72.393H54.073v4H5.012Z" transform="translate(-45.859 47.529) rotate(-48.728)" fill="#94a3b8"/>
    <path id="Path_51" data-name="Path 51" d="M93.454,49.862h4V98.924h-4Z" transform="translate(-25.361 81.43) rotate(-41.272)" fill="#94a3b8"/>
  </g>
</svg>
