<svg xmlns="http://www.w3.org/2000/svg" width="90.071" height="120.474" viewBox="0 0 90.071 120.474">
  <g id="pdf-file" transform="translate(-66.1 -2)">
    <path id="Path_7" data-name="Path 7" d="M156.147,30.245,127.926,2H70.653A4.555,4.555,0,0,0,66.1,6.553v80.8h90.047Z" fill="#eff3f5"/>
    <path id="Path_8" data-name="Path 8" d="M326.8,25.692a4.555,4.555,0,0,0,4.553,4.553h23.692L326.8,2Z" transform="translate(-198.874 0)" fill="#dbdfe0"/>
    <path id="Path_9" data-name="Path 9" d="M66.2,361.8v30.593a4.555,4.555,0,0,0,4.553,4.553h80.94a4.555,4.555,0,0,0,4.553-4.553V361.8Z" transform="translate(-0.076 -274.472)" fill="#f1786b"/>
    <g id="Group_5" data-name="Group 5" transform="translate(81.73 13.075)">
      <path id="Path_10" data-name="Path 10" d="M138.313,117.783a6.394,6.394,0,0,1-4.126-1.613,5.339,5.339,0,0,1-2.111-5.146c1.043-6.095,12.379-11.668,18.972-14.419a216.7,216.7,0,0,0,8.609-27.439c-3.842-8.229-5.194-14.039-4.008-17.336a4.645,4.645,0,0,1,3.51-3.083l.237-.047.237.024a5.123,5.123,0,0,1,3.249,2.134c1.779,2.419,2.182,6.332,1.186,11.644-.285,1.518-.759,3.7-1.375,6.308a150.152,150.152,0,0,0,12.474,20.964,39.18,39.18,0,0,1,9.273-.356c5.051.522,6.119,2.727,6.308,4.008.285,1.874-1.091,3.818-3.439,4.814-3.249,1.375-8.561,1.02-12.877-4.577-.19-.237-.379-.5-.569-.759a102.948,102.948,0,0,0-18.545,5.123c-.688.261-1.352.522-2.016.783-4.435,10.862-8.775,17.1-12.925,18.593a5.672,5.672,0,0,1-2.063.379Zm11.146-17.336c-9.415,4.245-14.087,8.443-14.514,11.075a2.434,2.434,0,0,0,1.115,2.443,3.209,3.209,0,0,0,3.368.735C142.724,113.514,146.234,107.822,149.459,100.447Zm27.747-7.992c3.2,3.771,6.806,4.079,8.988,3.13,1.138-.474,1.779-1.281,1.708-1.731-.071-.474-1.138-1.281-3.747-1.541a34.9,34.9,0,0,0-6.949.142Zm-15.557-19.3c-1.447,5.573-3.415,12.285-5.715,18.783-.4,1.115-.783,2.182-1.186,3.225A111.945,111.945,0,0,1,172.013,90.3,156.8,156.8,0,0,1,161.649,73.15Zm-2.134-21.462A1.713,1.713,0,0,0,158.4,52.85c-.83,2.277.261,6.569,2.372,11.644q.285-1.352.5-2.49c1.091-5.905.047-8.443-.688-9.415A2.653,2.653,0,0,0,159.515,51.688Z" transform="translate(-132.006 -48.7)" fill="#f1786b"/>
    </g>
    <g id="Group_6" data-name="Group 6" transform="translate(87.847 93.849)">
      <path id="Path_11" data-name="Path 11" d="M317.107,398.525h-5.431V393h5.431a1.85,1.85,0,0,0,0-3.7H309.85a1.852,1.852,0,0,0-1.85,1.85v18.4a1.85,1.85,0,0,0,3.7,0V402.2h5.431a1.838,1.838,0,1,0-.024-3.676Z" transform="translate(-272.38 -389.3)" fill="#eff3f5"/>
      <path id="Path_12" data-name="Path 12" d="M163.4,389.4H159.65a1.852,1.852,0,0,0-1.85,1.85v18.4a1.85,1.85,0,1,0,3.7,0V402.3h1.9a6.451,6.451,0,0,0,0-12.9Zm0,9.2h-1.9v-5.526h1.9a2.763,2.763,0,0,1,0,5.526Z" transform="translate(-157.8 -389.376)" fill="#eff3f5"/>
      <path id="Path_13" data-name="Path 13" d="M226.888,389.4H222.05a1.852,1.852,0,0,0-1.85,1.85v18.4a1.852,1.852,0,0,0,1.85,1.85h4.838a11.051,11.051,0,0,0,0-22.1Zm0,18.379H223.9V393.052h2.988a7.364,7.364,0,0,1,0,14.727Z" transform="translate(-205.402 -389.376)" fill="#eff3f5"/>
    </g>
  </g>
</svg>
