<svg xmlns="http://www.w3.org/2000/svg" width="131.5" height="131.5" viewBox="0 0 131.5 131.5">
  <g id="dashboard" transform="translate(-1 -1)">
    <path id="Path_2501" data-name="Path 2501" d="M66.8,60.773H18.977A5.977,5.977,0,0,1,13,54.8V6.977A5.977,5.977,0,0,1,18.977,1H66.8a5.977,5.977,0,0,1,5.977,5.977V54.8A5.977,5.977,0,0,1,66.8,60.773ZM24.955,48.818H60.818V12.955H24.955Z" transform="translate(59.727 0)" fill="#fff"/>
    <path id="Path_2502" data-name="Path 2502" d="M42.886,72.773A29.886,29.886,0,1,1,72.773,42.886,29.886,29.886,0,0,1,42.886,72.773Zm0-47.818A17.932,17.932,0,1,0,60.818,42.886,17.932,17.932,0,0,0,42.886,24.955Z" transform="translate(59.727 59.727)" fill="#fff"/>
    <path id="Path_2503" data-name="Path 2503" d="M54.8,13H6.977A5.977,5.977,0,0,0,1,18.977V66.8a5.977,5.977,0,0,0,5.977,5.977H54.8A5.977,5.977,0,0,0,60.773,66.8V18.977A5.977,5.977,0,0,0,54.8,13ZM48.818,60.818H12.955V24.955H48.818Z" transform="translate(0 59.727)" fill="#fff"/>
    <path id="Path_2504" data-name="Path 2504" d="M54.8,60.773H6.977A5.977,5.977,0,0,1,1,54.8V6.977A5.977,5.977,0,0,1,6.977,1H54.8a5.977,5.977,0,0,1,5.977,5.977V54.8A5.977,5.977,0,0,1,54.8,60.773ZM12.955,48.818H48.818V12.955H12.955Z" transform="translate(0 0)" fill="#fff"/>
  </g>
</svg>
