<svg xmlns="http://www.w3.org/2000/svg" width="10.5" height="10.5" viewBox="0 0 10.5 10.5">
  <g id="Group_1546" data-name="Group 1546" transform="translate(-667.573 -158.991)" style="isolation: isolate">
    <path id="Path_13040" data-name="Path 13040" d="M673.573,160.491h-5.25a.75.75,0,0,1,0-1.5h5.25a.75.75,0,0,1,0,1.5Zm-6,2.25a.75.75,0,0,1,.75-.75h9a.75.75,0,0,1,0,1.5h-9A.75.75,0,0,1,667.573,162.741Zm6,3.75h-5.25a.75.75,0,0,1,0-1.5h5.25a.75.75,0,0,1,0,1.5Zm3.75,3h-9a.75.75,0,0,1,0-1.5h9a.75.75,0,0,1,0,1.5Z" fill="#3d5aa9"/>
  </g>
</svg>
