<svg xmlns="http://www.w3.org/2000/svg" width="165.001" height="165" viewBox="0 0 165.001 165">
  <g id="trowel" transform="translate(0 0)">
    <path id="Path_2505" data-name="Path 2505" d="M327.862,15.089,314.189,1.416a4.834,4.834,0,0,0-6.836,0l-24.031,24.03a4.835,4.835,0,0,0,0,6.836L286.74,35.7l-6.491,6.491-15.37-15.37A4.837,4.837,0,0,0,256.8,28.96L242.568,80.768a4.837,4.837,0,0,0,5.942,5.942l51.808-14.231a4.837,4.837,0,0,0,2.138-8.08l-15.37-15.37,6.491-6.491L297,45.956a4.834,4.834,0,0,0,6.836,0l24.031-24.03a4.835,4.835,0,0,0,0-6.836Zm-38.12,50.268-35.6,9.779,9.779-35.6,9.492,9.492-4.024,4.024a4.834,4.834,0,1,0,6.835,6.838l4.025-4.025ZM300.413,35.7l-6.837-6.836,17.195-17.194,6.837,6.836Z" transform="translate(-164.277)" fill="#fff"/>
    <path id="Path_2506" data-name="Path 2506" d="M151.768,241H68.442v-24.17A4.834,4.834,0,0,0,63.608,212H4.834A4.834,4.834,0,0,0,0,216.834v29a4.834,4.834,0,0,0,4.834,4.834H29.387v19.336H4.834A4.834,4.834,0,0,0,0,274.842v29a4.834,4.834,0,0,0,4.834,4.834H122.381a4.834,4.834,0,0,0,4.834-4.834v-24.17h24.553a4.834,4.834,0,0,0,4.834-4.834v-29A4.834,4.834,0,0,0,151.768,241ZM9.668,221.668H58.774V241H9.668Zm29.387,29H88.161v19.336H39.055Zm-29.387,29H58.774v19.336H9.668Zm107.879,19.336H68.442V279.676h49.106v19.336Zm29.387-29H97.828V250.672h49.106Z" transform="translate(0 -143.679)" fill="#fff"/>
  </g>
</svg>
