<svg id="_025---Health-Files" data-name="025---Health-Files" xmlns="http://www.w3.org/2000/svg" xmlns:xlink="http://www.w3.org/1999/xlink" width="116" height="116" viewBox="0 0 116 116">
  <defs>
    <linearGradient id="linear-gradient" x1="0.5" x2="0.5" y2="1" gradientUnits="objectBoundingBox">
      <stop offset="0" stop-color="#3a59a7"/>
      <stop offset="1" stop-color="#2d64ed"/>
    </linearGradient>
  </defs>
  <path id="Shape" d="M106.333,15.467H60.142a1.918,1.918,0,0,1-1.638-.909L51.109,2.726A5.767,5.767,0,0,0,46.191,0H9.667A9.678,9.678,0,0,0,0,9.667V110.2A5.8,5.8,0,0,0,5.8,116H110.2a5.8,5.8,0,0,0,5.8-5.8V25.133A9.678,9.678,0,0,0,106.333,15.467ZM9.667,3.867H46.191a1.918,1.918,0,0,1,1.638.909l7.395,11.832a5.767,5.767,0,0,0,4.918,2.726h46.191a5.8,5.8,0,0,1,5.8,5.8V44.517a9.566,9.566,0,0,0-5.8-1.984H104.4V27.067a3.867,3.867,0,0,0-3.867-3.867H29a1.933,1.933,0,0,0-1.367.566L12.166,39.233A1.933,1.933,0,0,0,11.6,40.6V54.133H9.667a9.566,9.566,0,0,0-5.8,1.984V9.667a5.8,5.8,0,0,1,5.8-5.8ZM59.6,42.533a5.757,5.757,0,0,0-4.1,1.7l-9.334,9.334a1.933,1.933,0,0,1-1.369.566H15.467v-11.6h11.6a3.867,3.867,0,0,0,3.867-3.867v-11.6h69.6V42.533ZM18.2,38.667,27.067,29.8v8.866ZM112.133,110.2a1.933,1.933,0,0,1-1.933,1.933H5.8A1.933,1.933,0,0,1,3.867,110.2V63.8a5.8,5.8,0,0,1,5.8-5.8H44.8a5.757,5.757,0,0,0,4.1-1.7l9.334-9.334A1.933,1.933,0,0,1,59.6,46.4h46.73a5.8,5.8,0,0,1,5.8,5.8Z" transform="translate(0 0)" fill="url(#linear-gradient)"/>
  <path id="Shape-2" data-name="Shape" d="M54.067,27A27.067,27.067,0,1,0,81.133,54.067,27.067,27.067,0,0,0,54.067,27Zm0,50.266a23.2,23.2,0,1,1,23.2-23.2,23.2,23.2,0,0,1-23.2,23.2Z" transform="translate(25.2 25.2)" fill="url(#linear-gradient)"/>
  <path id="Shape-3" data-name="Shape" d="M56.133,44.533V34.867A3.867,3.867,0,0,0,52.267,31H48.4a3.867,3.867,0,0,0-3.867,3.867v9.667H34.867A3.867,3.867,0,0,0,31,48.4v3.867a3.867,3.867,0,0,0,3.867,3.867h9.667V65.8A3.867,3.867,0,0,0,48.4,69.667h3.867A3.867,3.867,0,0,0,56.133,65.8V56.133H65.8a3.867,3.867,0,0,0,3.867-3.867V48.4A3.867,3.867,0,0,0,65.8,44.533ZM65.8,52.267H56.133a3.867,3.867,0,0,0-3.867,3.867V65.8H48.4V56.133a3.867,3.867,0,0,0-3.867-3.867H34.867V48.4h9.667A3.867,3.867,0,0,0,48.4,44.533V34.867h3.867v9.667A3.867,3.867,0,0,0,56.133,48.4H65.8Z" transform="translate(28.933 28.933)" fill="url(#linear-gradient)"/>
  <path id="Shape-4" data-name="Shape" d="M6.933,40.867h7.733a1.933,1.933,0,1,0,0-3.867H6.933a1.933,1.933,0,0,0,0,3.867Z" transform="translate(4.667 34.533)" fill="url(#linear-gradient)"/>
  <path id="Shape-5" data-name="Shape" d="M30.4,37H14.933a1.933,1.933,0,0,0,0,3.867H30.4A1.933,1.933,0,1,0,30.4,37Z" transform="translate(12.133 34.533)" fill="url(#linear-gradient)"/>
  <path id="Shape-6" data-name="Shape" d="M37.867,43H6.933a1.933,1.933,0,1,0,0,3.867H37.867a1.933,1.933,0,1,0,0-3.867Z" transform="translate(4.667 40.133)" fill="url(#linear-gradient)"/>
  <path id="Shape-7" data-name="Shape" d="M22.4,49H6.933a1.933,1.933,0,0,0,0,3.867H22.4A1.933,1.933,0,0,0,22.4,49Z" transform="translate(4.667 45.733)" fill="url(#linear-gradient)"/>
  <path id="Shape-8" data-name="Shape" d="M26.667,49H18.933a1.933,1.933,0,0,0,0,3.867h7.733a1.933,1.933,0,0,0,0-3.867Z" transform="translate(15.867 45.733)" fill="url(#linear-gradient)"/>
</svg>
