<svg xmlns="http://www.w3.org/2000/svg" width="29.072" height="25.546" viewBox="0 0 29.072 25.546">
  <g id="Layer_x0020_1" transform="translate(0 0)">
    <path id="Path_13468" data-name="Path 13468" d="M15.854,274.133,26.4,284.669a1.562,1.562,0,0,0,2.213.007l.007-.007a1.571,1.571,0,0,0,0-2.213L18.074,271.913l.275-.275-.04-.04-4-4-.04-.047-2.77,2.763.047.047,4,4,.04.04ZM8.973,270.84l.007-.007a1.456,1.456,0,0,1,1.033-.423,1.479,1.479,0,0,1,1.04.429l.007.007,4,4a.093.093,0,0,1,.02.027,1.474,1.474,0,0,1-.02,2.059c-.007.007-.02.013-.027.02a1.452,1.452,0,0,1-1.019.409.9.9,0,0,1-.134-.007.99.99,0,0,1,.007.141,1.475,1.475,0,0,1-2.515,1.04l-4-4a1.472,1.472,0,0,1,1.039-2.515.994.994,0,0,1,.141.007.944.944,0,0,1-.007-.134A1.466,1.466,0,0,1,8.973,270.84Zm7.417-7.418A1.483,1.483,0,0,1,17.43,263a1.462,1.462,0,0,1,1.039.429l4,4a1.473,1.473,0,0,1,0,2.079l-.007.013a1.468,1.468,0,0,1-1.033.423c-.047,0-.094-.007-.134-.007v.134a1.456,1.456,0,0,1-.423,1.033l-.007.007a1.457,1.457,0,0,1-2.079,0l-4-4-.007-.007a1.491,1.491,0,0,1-.429-1.04,1.462,1.462,0,0,1,.429-1.04,1.484,1.484,0,0,1,1.046-.436c.047,0,.087.007.134.007a.855.855,0,0,1-.007-.134,1.479,1.479,0,0,1,.429-1.04Zm.127,20.583a.338.338,0,0,0-.342-.335h-2.6a.332.332,0,0,0-.335.335v2.663a.335.335,0,0,0,.067.208.35.35,0,0,0,.483.06l1.093-.858,1.06.845a.342.342,0,0,0,.57-.255ZM2.649,282.986a1.62,1.62,0,0,1-.04-.362A1.732,1.732,0,0,1,4.332,280.9H18.221a.335.335,0,0,1,.342.342v1.744Zm16.726,5.56a.338.338,0,0,0,.342-.335.319.319,0,0,0-.04-.161,5.254,5.254,0,0,1,.007-3.89.4.4,0,0,0,.034-.154.338.338,0,0,0-.342-.335H17.142a.929.929,0,0,1,.06.335v2.663a1.03,1.03,0,0,1-1.026,1.026,1.059,1.059,0,0,1-.651-.235l-.637-.51-.248.188-.429.335a1.019,1.019,0,0,1-1.65-.8v-2.663a.929.929,0,0,1,.06-.335H2.488a2.507,2.507,0,0,0-1.757.711,2.405,2.405,0,0,0,0,3.454,2.507,2.507,0,0,0,1.757.711Z" transform="translate(0 -263)" fill="#b6cbef"/>
  </g>
</svg>
