<svg xmlns="http://www.w3.org/2000/svg" width="30" height="30" viewBox="0 0 33.403 21.834">
  <path id="fast-delivery" d="M33.4,84.418c0-.006,0-.012,0-.019a.765.765,0,0,0-.769-.752h-.2l-3.118-6.029a.766.766,0,0,0-.684-.413H23.305l.2-1.61A2.188,2.188,0,0,0,21.3,73.172H4.78a.816.816,0,0,0-.808.736l-.166,1.326h9.414A1.073,1.073,0,0,1,14.3,76.341a1.143,1.143,0,0,1-1.136,1.107h-3.14l0,0H.8a.808.808,0,0,0-.8.783.758.758,0,0,0,.762.783H12.97a1.147,1.147,0,0,1,.974,1.171,1.224,1.224,0,0,1-1.207,1.185H4.321a.816.816,0,0,0-.811.791.766.766,0,0,0,.77.791H12.6a1.148,1.148,0,0,1,.991,1.173,1.224,1.224,0,0,1-1.217,1.186H2.027a.816.816,0,0,0-.811.791.766.766,0,0,0,.77.791h.692l-.271,2.832a2.188,2.188,0,0,0,2.205,2.422h.6a3.449,3.449,0,0,0,3.413,2.856,3.682,3.682,0,0,0,3.562-2.855h7.449a2.524,2.524,0,0,0,1.62-.607,2.2,2.2,0,0,0,1.543.607h.123a3.449,3.449,0,0,0,3.413,2.855,3.682,3.682,0,0,0,3.562-2.855h.492a2.6,2.6,0,0,0,2.532-2.321l.482-5.337c0-.007,0-.014,0-.022s0-.022,0-.033S33.4,84.425,33.4,84.418ZM8.664,93.425a1.917,1.917,0,0,1-1.925-1.976,2.043,2.043,0,0,1,2.028-1.977,1.917,1.917,0,0,1,1.925,1.977A2.043,2.043,0,0,1,8.664,93.425Zm17.709,0a1.917,1.917,0,0,1-1.925-1.976,2.043,2.043,0,0,1,2.028-1.977A1.917,1.917,0,0,1,28.4,91.449,2.043,2.043,0,0,1,26.373,93.425Zm4.97-3.7a.952.952,0,0,1-.915.841H29.9a3.449,3.449,0,0,0-3.377-2.679A3.683,3.683,0,0,0,23,90.57h-.163a.671.671,0,0,1-.505-.212.68.68,0,0,1-.166-.528l1-11.044h2.289l-.363,4.02a2.188,2.188,0,0,0,2.205,2.422h4.454Z" transform="translate(0 -73.172)" fill="#b6cbef"/>
</svg>
