<svg xmlns="http://www.w3.org/2000/svg" width="15.131" height="18" viewBox="0 0 15.131 18">
  <g id="GridView" transform="translate(-1690.969 -190)">
    <g id="Component_27_1" data-name="Component 27 – 1" transform="translate(1690.969 190)">
      <path id="Icon_open-grid-three-up" data-name="Icon open-grid-three-up" d="M0,0V4.5H3.783V0ZM5.674,0V4.5H9.457V0Zm5.674,0V4.5h3.783V0ZM0,6.75v4.5H3.783V6.75Zm5.674,0v4.5H9.457V6.75Zm5.674,0v4.5h3.783V6.75ZM0,13.5V18H3.783V13.5Zm5.674,0V18H9.457V13.5Zm5.674,0V18h3.783V13.5Z" fill="white"/>
    </g>
    <path id="Icon_open-grid-three-up-2" data-name="Icon open-grid-three-up" d="M0,0V4.5H3.783V0ZM5.674,0V4.5H9.457V0Zm5.674,0V4.5h3.783V0ZM0,6.75v4.5H3.783V6.75Zm5.674,0v4.5H9.457V6.75Zm5.674,0v4.5h3.783V6.75ZM0,13.5V18H3.783V13.5Zm5.674,0V18H9.457V13.5Zm5.674,0V18h3.783V13.5Z" transform="translate(1690.969 190)" fill="white"/>
  </g>
</svg>