<svg xmlns="http://www.w3.org/2000/svg" width="32.249" height="30.162" viewBox="0 0 32.249 30.162">
  <path id="technology" d="M25.023,46.632a7.119,7.119,0,1,0,14.237,0h7.962v2.041l-2.5.962A12.871,12.871,0,0,1,43.161,53.4l1.088,2.449-2.886,2.886-2.448-1.087a12.868,12.868,0,0,1-3.77,1.563l-.962,2.5H30.1l-.962-2.5a12.871,12.871,0,0,1-3.769-1.562l-2.449,1.088-2.886-2.886L21.123,53.4a12.87,12.87,0,0,1-1.563-3.769l-2.5-.962V46.632Zm7.119-.691a.691.691,0,1,0,.691.691.691.691,0,0,0-.691-.691Zm11.344-.384v-2.5a.538.538,0,0,1,.308-.486l1.966-1.025a1.257,1.257,0,1,1,.558.921l-1.757.916v2.176ZM25.859,35.308A1.256,1.256,0,1,0,27,37.1h1.942V41.49h1.075V36.564a.538.538,0,0,0-.538-.538H27a1.256,1.256,0,0,0-1.136-.719Zm12.565,0A1.256,1.256,0,1,1,37.288,37.1H35.346V41.49H34.271V36.564a.538.538,0,0,1,.538-.538h2.48a1.256,1.256,0,0,1,1.136-.719Zm-6.283-3.757a1.257,1.257,0,0,1,.538,2.393V41.49H31.6V33.944a1.257,1.257,0,0,1,.538-2.393ZM17.273,40.159a1.256,1.256,0,1,0,.693,2.305l1.757.916v2.176H20.8v-2.5a.538.538,0,0,0-.308-.486l-1.966-1.025a1.258,1.258,0,0,0-1.25-1.384Zm7.538,0a1.256,1.256,0,1,1-.693,2.305l-1.757.916v2.176H21.286v-2.5a.538.538,0,0,1,.308-.486l1.966-1.025a1.257,1.257,0,0,1,1.25-1.384Zm14.661,0a1.256,1.256,0,1,0,.693,2.305l1.757.916v2.176H43v-2.5a.538.538,0,0,0-.308-.486l-1.966-1.025a1.257,1.257,0,0,0-1.25-1.384Zm-3.841,2.405H28.653a.58.58,0,0,0-.578.578v6.979a.58.58,0,0,0,.578.578h6.978a.58.58,0,0,0,.578-.578V43.143a.58.58,0,0,0-.578-.578Zm-1.692,5.864H30.344V44.835h3.594Z" transform="translate(-16.018 -31.551)" fill="#b6cbef" fill-rule="evenodd"/>
</svg>

