<svg id="Component_11_1" data-name="Component 11 – 1" xmlns="http://www.w3.org/2000/svg" width="14.382" height="14.384" viewBox="0 0 14.382 14.384">
  <path id="Path_13009" data-name="Path 13009" d="M183.868,476.9a1.737,1.737,0,1,1,1.727-1.743A1.742,1.742,0,0,1,183.868,476.9Zm1.492,10.911h-2.982v-9.6h2.982Zm11.159,0h-2.975v-4.674c0-1.113-.022-2.542-1.55-2.542-1.551,0-1.788,1.209-1.788,2.461v4.755h-2.979v-9.6h2.86v1.311h.041a3.134,3.134,0,0,1,2.821-1.552c3.017,0,3.573,1.988,3.573,4.569v5.274Z" transform="translate(-182.141 -473.427)" fill="#adaeb0"/>
</svg>
