<svg xmlns="http://www.w3.org/2000/svg" width="18.623" height="18" viewBox="0 0 18.623 18">
  <g id="ListView" transform="translate(-1716.461 -190)">
    <g id="Component_26_1" data-name="Component 26 – 1" transform="translate(1716.461 190)">
      <path id="Icon_awesome-list" data-name="Icon awesome-list" d="M2.91,17.221H.582A.644.644,0,0,0,0,17.913v2.769a.644.644,0,0,0,.582.692H2.91a.644.644,0,0,0,.582-.692V17.913A.644.644,0,0,0,2.91,17.221Zm0-13.846H.582A.644.644,0,0,0,0,4.067V6.837a.644.644,0,0,0,.582.692H2.91a.644.644,0,0,0,.582-.692V4.067A.644.644,0,0,0,2.91,3.375Zm0,6.923H.582A.644.644,0,0,0,0,10.99V13.76a.644.644,0,0,0,.582.692H2.91a.644.644,0,0,0,.582-.692V10.99A.644.644,0,0,0,2.91,10.3Zm15.131,7.615H6.4a.644.644,0,0,0-.582.692V19.99a.644.644,0,0,0,.582.692h11.64a.644.644,0,0,0,.582-.692V18.606A.644.644,0,0,0,18.041,17.913Zm0-13.846H6.4a.644.644,0,0,0-.582.692V6.144a.644.644,0,0,0,.582.692h11.64a.644.644,0,0,0,.582-.692V4.76A.644.644,0,0,0,18.041,4.067Zm0,6.923H6.4a.644.644,0,0,0-.582.692v1.385a.644.644,0,0,0,.582.692h11.64a.644.644,0,0,0,.582-.692V11.683A.644.644,0,0,0,18.041,10.99Z" transform="translate(0 -3.375)" fill="#3c5aa8"/>
    </g>
  </g>
</svg>
