<svg xmlns="http://www.w3.org/2000/svg" width="26" height="26" viewBox="0 0 24.893 24.893">
  <path id="analysis" d="M11.135,8H24.242v2.552a1.028,1.028,0,0,0,1.027,1.027h2.552v8.273a6.009,6.009,0,0,0-1.883-1.446V13.648a1.235,1.235,0,0,0-.366-.884L23.057,10.25a1.235,1.235,0,0,0-.884-.366H10.687V8.448A.449.449,0,0,1,11.135,8Zm11.223,2.725v2.513a.224.224,0,0,0,.224.224H25.1A.449.449,0,0,0,25,13.331l-2.514-2.514A.448.448,0,0,0,22.358,10.725Zm.95,7.876a5.183,5.183,0,1,0,3.371,9.12l1.586,1.554-.054.056a.473.473,0,0,0,.01.666l2.846,2.762a.473.473,0,0,0,.666-.01l1.028-1.059a.473.473,0,0,0-.01-.666L29.9,28.263a.473.473,0,0,0-.666.01l-.063.065-1.618-1.585a5.183,5.183,0,0,0-4.25-8.151Zm0,2.566a.4.4,0,0,1,0,.8,1.814,1.814,0,0,0-1.815,1.815.4.4,0,1,1-.8,0,2.617,2.617,0,0,1,2.618-2.618Zm0-1.1a3.722,3.722,0,1,1-3.722,3.722A3.722,3.722,0,0,1,23.308,20.063Zm4.478,9.868a.449.449,0,0,1-.413.275H25.937V29.164a5.986,5.986,0,0,0,.673-.385ZM8.449,10.686A.449.449,0,0,0,8,11.134V32.446a.449.449,0,0,0,.448.448H24.687a.449.449,0,0,0,.448-.448V29.487a6.018,6.018,0,0,1-3.155.136.358.358,0,0,1-.341.248H11.5a.358.358,0,0,1,0-.716H20.66a6.014,6.014,0,0,1-2.475-2.272H11.5a.358.358,0,0,1,0-.716h6.318a5.96,5.96,0,0,1-.491-2.272H11.5a.358.358,0,0,1,0-.716h5.855a5.947,5.947,0,0,1,.707-2.272H11.5a.358.358,0,0,1,0-.716h7.025a5.992,5.992,0,0,1,6.612-2.106V14.265H22.582a1.028,1.028,0,0,1-1.027-1.027V10.686Zm16.6-2.648v2.513a.224.224,0,0,0,.224.224h2.513a.449.449,0,0,0-.092-.131L25.176,8.131A.449.449,0,0,0,25.045,8.039ZM11.5,17.917H21.638a.358.358,0,1,0,0-.716H11.5a.358.358,0,0,0,0,.716Zm0-2.989h7.279a.358.358,0,0,0,0-.716H11.5a.358.358,0,0,0,0,.716Z" transform="translate(-8.001 -8)" fill="#b6cbef" fill-rule="evenodd"/>
</svg>
