<svg xmlns="http://www.w3.org/2000/svg" width="21.498" height="21.498" viewBox="0 0 21.498 21.498">
  <g id="widget" transform="translate(0 0)">
    <path id="Path_13478" data-name="Path 13478" d="M43.456,36.872H40.738V34.154a.383.383,0,0,0-.384-.384h-3.1a.385.385,0,0,0-.384.384v2.718H34.154a.385.385,0,0,0-.384.384v3.1a.383.383,0,0,0,.384.384h2.718v2.718a.385.385,0,0,0,.384.384h3.1a.383.383,0,0,0,.384-.384V40.738h2.718a.383.383,0,0,0,.384-.384v-3.1A.385.385,0,0,0,43.456,36.872Z" transform="translate(-22.342 -22.341)" fill="#b6cbef"/>
    <path id="Path_13479" data-name="Path 13479" d="M42.3,4h-7A1.538,1.538,0,0,0,33.77,5.536v7a1.54,1.54,0,0,0,1.536,1.536H41.92a.384.384,0,0,0,.273-.115l1.536-1.536a.394.394,0,0,0,.111-.269V5.536A1.535,1.535,0,0,0,42.3,4Z" transform="translate(-22.342 -4)" fill="#b6cbef"/>
    <path id="Path_13480" data-name="Path 13480" d="M12.534,4h-7A1.535,1.535,0,0,0,4,5.536v7A1.538,1.538,0,0,0,5.536,14.07H12.15a.382.382,0,0,0,.269-.115l1.536-1.536a.382.382,0,0,0,.115-.269V5.536A1.538,1.538,0,0,0,12.534,4Z" transform="translate(-4 -4)" fill="#b6cbef"/>
    <path id="Path_13481" data-name="Path 13481" d="M12.534,33.77h-7A1.538,1.538,0,0,0,4,35.306v7A1.535,1.535,0,0,0,5.536,43.84H12.15a.394.394,0,0,0,.269-.111l1.536-1.536a.384.384,0,0,0,.115-.273V35.306A1.54,1.54,0,0,0,12.534,33.77Z" transform="translate(-4 -22.341)" fill="#b6cbef"/>
  </g>
</svg>

