<svg xmlns="http://www.w3.org/2000/svg" width="15" height="12" viewBox="0 0 15 12">
  <g id="Group_1525" data-name="Group 1525" transform="translate(-156.279 -710.114)" style="isolation: isolate">
    <path id="Path_13025" data-name="Path 13025" d="M165.524,718.37l-1.072,1.072a1.163,1.163,0,0,0-.32.6l-.335,1.674a.941.941,0,0,0,.007.4h-6.713a.812.812,0,0,1-.812-.81,4.065,4.065,0,0,1,4.061-4.065h2.377A4.047,4.047,0,0,1,165.524,718.37Zm-6.995-5.256a2.99,2.99,0,1,1,2.979,3A3,3,0,0,1,158.529,713.114Zm9.391,3.921,1.688,1.688-2.937,2.936a.405.405,0,0,1-.215.115l-1.674.335a.211.211,0,0,1-.249-.248l.335-1.673a.426.426,0,0,1,.115-.216Zm3.113.266-.894.893-1.688-1.687.894-.9a.844.844,0,0,1,1.193,0l.5.495A.847.847,0,0,1,171.033,717.3Z" fill="#a6a6a6"/>
  </g>
</svg>
