<svg xmlns="http://www.w3.org/2000/svg" width="28.692" height="6.696" viewBox="0 0 28.692 6.696">
  <path id="Path_13459" data-name="Path 13459" d="M5.112.288A3.731,3.731,0,0,1,2.466-.666,3.091,3.091,0,0,1,1.44-3.024,3.188,3.188,0,0,1,2.466-5.436a3.691,3.691,0,0,1,2.646-.972,3.643,3.643,0,0,1,2.61.972A3.188,3.188,0,0,1,8.748-3.024,3.091,3.091,0,0,1,7.722-.666,3.682,3.682,0,0,1,5.112.288ZM15.8.288a3.731,3.731,0,0,1-2.646-.954,3.091,3.091,0,0,1-1.026-2.358,3.188,3.188,0,0,1,1.026-2.412A3.691,3.691,0,0,1,15.8-6.408a3.643,3.643,0,0,1,2.61.972A3.188,3.188,0,0,1,19.44-3.024,3.091,3.091,0,0,1,18.414-.666,3.682,3.682,0,0,1,15.8.288ZM26.5.288A3.731,3.731,0,0,1,23.85-.666a3.091,3.091,0,0,1-1.026-2.358A3.188,3.188,0,0,1,23.85-5.436,3.691,3.691,0,0,1,26.5-6.408a3.643,3.643,0,0,1,2.61.972,3.188,3.188,0,0,1,1.026,2.412A3.091,3.091,0,0,1,29.106-.666,3.682,3.682,0,0,1,26.5.288Z" transform="translate(-1.44 6.408)" fill="#e8e8e8"/>
</svg>
