<svg id="Hazard" xmlns="http://www.w3.org/2000/svg" width="49.117" height="64.418" viewBox="0 0 49.117 64.418">
  <path id="Path_11049" data-name="Path 11049" d="M862.761,213.97h.481a1.023,1.023,0,0,1,.39.938c-.012,2.134-.006,4.269-.006,6.4v.412a3.352,3.352,0,0,0,.384-.794,4.278,4.278,0,0,1,4.236-2.986q5.242-.028,10.485,0a4.28,4.28,0,0,1,4.234,2.993c.1.268.206.535.308.8l.081-.011v-.416c0-2.134.006-4.269-.006-6.4a1.023,1.023,0,0,1,.39-.938h.48c.445.308.875.643,1.341.917a1.139,1.139,0,0,1,.6,1.115q-.02,11.088-.009,22.176v.507a2.541,2.541,0,0,0,.3.017,2.57,2.57,0,0,1,2.825,2.855c-.057,1.813-.013,3.629-.013,5.444v.48c.3,0,.567,0,.829,0,.631.012.83.212.832.852,0,.948,0,1.895,0,2.842,0,.749-.175.924-.913.925-.771,0-1.54,0-2.353,0,0,.521,0,1,0,1.476a1.26,1.26,0,0,1-1.388,1.391c-.948,0-1.895,0-2.842,0-1.035,0-1.493-.455-1.5-1.482,0-.449,0-.9,0-1.35H865.055c0,.513.008.992,0,1.471a1.253,1.253,0,0,1-1.377,1.361q-1.48.006-2.963,0a1.26,1.26,0,0,1-1.388-1.391c0-.476,0-.954,0-1.476-.866,0-1.689.005-2.513,0-.513,0-.743-.215-.749-.724q-.019-1.581,0-3.162c.007-.508.232-.715.748-.734.289-.011.579,0,.91,0V247c0-1.908-.01-3.816,0-5.725a2.459,2.459,0,0,1,2.569-2.572c.168,0,.337,0,.539,0v-.566q0-11.108-.008-22.216a1.035,1.035,0,0,1,.527-.989C861.838,214.634,862.294,214.293,862.761,213.97Zm19.751,17.5v-6.016H864.471v6.016Zm-9.036,14.626c1.333,0,2.667,0,4,0a1.252,1.252,0,0,0,1.427-1.423q.009-3.7,0-7.4a1.27,1.27,0,0,0-1.436-1.426q-3.98,0-7.96,0a1.26,1.26,0,0,0-1.426,1.4q-.013,3.739,0,7.48a1.235,1.235,0,0,0,1.395,1.373C870.809,246.1,872.142,246.093,873.476,246.093Zm10.547-2.676c-.373,0-.746-.018-1.117,0a1.165,1.165,0,0,0-.028,2.322c.757.033,1.518.032,2.275,0a1.164,1.164,0,0,0-.012-2.322C884.768,243.4,884.394,243.418,884.022,243.417Zm-21.067,2.339c.346,0,.692.009,1.038,0a1.151,1.151,0,0,0,1.176-1.154,1.128,1.128,0,0,0-1.139-1.182c-.7-.023-1.411-.022-2.115,0a1.133,1.133,0,0,0-1.157,1.167,1.159,1.159,0,0,0,1.2,1.172C862.29,245.764,862.623,245.757,862.955,245.757Z" transform="translate(-853.923 -205.97)" fill="#3d5aa9"/>
  <path id="Path_11050" data-name="Path 11050" d="M1014.409,486.66c-1.239,0-2.48,0-3.719,0a.887.887,0,0,1-.5-.075c-.169-.135-.376-.367-.364-.544.013-.2.236-.4.4-.563.068-.068.228-.056.347-.056q3.82,0,7.638,0c.131,0,.306-.012.385.062.16.15.367.353.373.539a.87.87,0,0,1-.341.557.859.859,0,0,1-.5.08C1016.888,486.663,1015.649,486.66,1014.409,486.66Z" transform="translate(-994.866 -455.013)" fill="#3d5aa9"/>
  <path id="Path_11051" data-name="Path 11051" d="M1014.513,545.459c-1.266,0-2.533.008-3.8-.008a.85.85,0,0,1-.577-.186.721.721,0,0,1-.134-.6.828.828,0,0,1,.48-.4,1.948,1.948,0,0,1,.634-.023h7.078c.12,0,.241-.005.359.006a.588.588,0,0,1,.586.585.58.58,0,0,1-.59.619c-.452.018-.906.008-1.36.008Q1015.853,545.46,1014.513,545.459Z" transform="translate(-995.011 -508.951)" fill="#3d5aa9"/>
  <path id="Path_11052" data-name="Path 11052" d="M1014.035,514.866c1.253,0,2.506,0,3.759,0a1.587,1.587,0,0,1,.472.053.547.547,0,0,1,.391.62.538.538,0,0,1-.464.524,2.243,2.243,0,0,1-.437.031q-3.679,0-7.358,0c-.639,0-.938-.2-.938-.613s.3-.618.936-.618Z" transform="translate(-994.533 -482.022)" fill="#3d5aa9"/>
  <path id="Path_11053" data-name="Path 11053" d="M1014.153,575.036c-1.253,0-2.506,0-3.759,0a1.571,1.571,0,0,1-.434-.048.551.551,0,0,1-.419-.6.546.546,0,0,1,.487-.549,2.934,2.934,0,0,1,.438-.027q3.679,0,7.358,0a2.758,2.758,0,0,1,.4.023.546.546,0,0,1,.51.567.556.556,0,0,1-.465.608,1.69,1.69,0,0,1-.4.032Z" transform="translate(-994.606 -536.081)" fill="#3d5aa9"/>
  <g id="Ellipse_1" data-name="Ellipse 1" transform="translate(19.117)" fill="#fff" stroke="#3d5aa9" stroke-width="2">
    <circle cx="15" cy="15" r="15" stroke="none"/>
    <circle cx="15" cy="15" r="14" fill="none"/>
  </g>
  <text id="Hazard-2" data-name="Hazard" transform="translate(20 60.418)" font-size="11" font-family="Poppins-Regular, Poppins"><tspan x="-19.509" y="0">Hazard</tspan></text>
  <g id="hazard-hazard-symbol" transform="translate(24.091 6.286)">
    <path id="Path_11055" data-name="Path 11055" d="M973,269.9c-.217-.139-.43-.268-.633-.412a.263.263,0,0,1-.091-.175c-.016-.208.01-.422-.024-.626a1.488,1.488,0,0,0-.962-1.158c-.156-.065-.219-.137-.205-.306a5.225,5.225,0,0,0,0-.611c0-.112.03-.157.146-.174a4.271,4.271,0,0,0,1.836-.7,4.139,4.139,0,0,0,.76-6.1,2.847,2.847,0,0,1-.319-.409,1.242,1.242,0,0,1,.115.061,5.417,5.417,0,0,1,2.536,4.057,6.286,6.286,0,0,1-.137,2.04c-.063.284-.067.29.228.346a5.3,5.3,0,0,1,2.322,1.023,5.4,5.4,0,0,1,2.158,4.934c-.022.286-.091.568-.14.851a.185.185,0,0,1-.059.089,4.17,4.17,0,0,0-3.163-4.36A4.231,4.231,0,0,0,973,269.9Z" transform="translate(-960.687 -259.173)"/>
    <path id="Path_11056" data-name="Path 11056" d="M664.85,271.315c-.049-.322-.116-.643-.143-.967a5.386,5.386,0,0,1,1.259-4.068,5.313,5.313,0,0,1,2.991-1.811c.121-.027.241-.063.364-.081s.152-.083.13-.2c-.059-.316-.128-.632-.161-.951a5.413,5.413,0,0,1,.989-3.835,5.645,5.645,0,0,1,1.665-1.524.648.648,0,0,1,.084-.029l-.373.412a4.126,4.126,0,0,0,2.111,6.764c.17.04.344.068.517.094a.121.121,0,0,1,.122.144c-.005.22-.008.441,0,.662a.209.209,0,0,1-.138.219,3.3,3.3,0,0,0-.656.41,1.37,1.37,0,0,0-.453,1.193.517.517,0,0,1-.348.617c-.12.047-.236.176-.342.165s-.172-.166-.258-.255a4.15,4.15,0,0,0-4.206-1.315,3.96,3.96,0,0,0-3.017,3.3,6.6,6.6,0,0,0-.061.811c-.006.082-.015.163-.023.244Z" transform="translate(-664.684 -257.85)"/>
    <path id="Path_11057" data-name="Path 11057" d="M801.193,585.078a5.543,5.543,0,0,1-5.762-2.288,5.572,5.572,0,0,1-3.345,2.281,5.682,5.682,0,0,1-2.447-.024c.064-.011.127-.027.192-.033a4.774,4.774,0,0,0,2.091-.632,4.142,4.142,0,0,0,1.753-4.817c0-.005,0-.01-.006-.016-.155-.458-.155-.458.266-.719.3-.186.3-.186.591.019a1.589,1.589,0,0,0,1.935-.1c.13-.111.224-.133.36-.023a1.99,1.99,0,0,0,.359.224c.143.071.169.157.12.31a7.339,7.339,0,0,0-.254.966,4.076,4.076,0,0,0,3.123,4.647c.291.066.591.094.887.14l.143.022Z" transform="translate(-785.399 -567.765)"/>
    <path id="Path_11058" data-name="Path 11058" d="M802.4,545.72c.383.117.729.215,1.068.335.053.019.09.133.1.207a4.248,4.248,0,0,0,.823,2,5.52,5.52,0,0,0,.736.768.528.528,0,0,1,.209.605c-.054.178-.088.362-.142.541s-.109.209-.278.107a5.206,5.206,0,0,1-1.68-1.7,5.424,5.424,0,0,1-.836-2.621C802.4,545.906,802.4,545.844,802.4,545.72Z" transform="translate(-797.727 -535.949)"/>
    <path id="Path_11059" data-name="Path 11059" d="M1034,547.71a5.418,5.418,0,0,1-2.414,4.191c-.291.2-.312.186-.411-.149-.027-.092-.042-.189-.077-.277a.615.615,0,0,1,.187-.745c.138-.125.259-.268.392-.4a4.286,4.286,0,0,0,1.166-2.4.315.315,0,0,1,.157-.212,7.153,7.153,0,0,1,.859-.245C1034.068,547.433,1033.978,547.612,1034,547.71Z" transform="translate(-1018.611 -537.64)"/>
    <path id="Path_11060" data-name="Path 11060" d="M887.622,390.523c-.274.249-.526.489-.793.713a.28.28,0,0,1-.229.02,4.467,4.467,0,0,0-1.928-.3,7.53,7.53,0,0,0-1.206.25.543.543,0,0,1-.626-.134c-.175-.191-.365-.368-.549-.552A5.427,5.427,0,0,1,887.622,390.523Z" transform="translate(-874.904 -385.344)"/>
  </g>
</svg>
