<?xml version="1.0" encoding="utf-8"?>
<!-- Generator: Adobe Illustrator 27.2.0, SVG Export Plug-In . SVG Version: 6.00 Build 0)  -->
<svg version="1.1" id="Layer_1" xmlns="http://www.w3.org/2000/svg" xmlns:xlink="http://www.w3.org/1999/xlink" x="0px" y="0px"
	 viewBox="0 0 558.9 330.4" style="enable-background:new 0 0 558.9 330.4;" xml:space="preserve">
<style type="text/css">
	.st0{fill:#FFFFFF;}
	.st1{enable-background:new    ;}
</style>
<g>
	<g id="Vector_Smart_Object_00000018941273138632696070000000328348109163219879_" transform="translate(857 381)">
		<path id="Path_3_00000065072656387934454430000010801750943016522129_" class="st0" d="M-689.1-264.8h-87.1l4.2,7.3h68.7l-9.8,17
			h-60.1l33.1,51.7l-7.6,13.9l-53.2-82.5l19.9,0l-4.2-7.3l-9.8-17h131.4l-68.6,131.1l-10.1-15.7L-689.1-264.8z"/>
	</g>
	<g class="st1">
		<path class="st0" d="M195.5,139.7h12.2l12,31.5l12.1-31.5H244v45h-7.6v-37.4h-0.1l-13.7,37.4H217l-13.7-37.4h-0.1v37.4h-7.6V139.7
			z"/>
		<path class="st0" d="M290.2,168.2c0,10.9-7.8,17.7-18.1,17.7c-10.3,0-18.1-6.8-18.1-17.7v-28.5h8V168c0,4.4,2.4,10.3,10.1,10.3
			c7.7,0,10.1-5.8,10.1-10.3v-28.2h8V168.2z"/>
		<path class="st0" d="M300.1,139.7h29v7.2h-21v11.8h19.8v7.2h-19.8v18.7h-8V139.7z"/>
		<path class="st0" d="M345.8,147H332v-7.2h35.6v7.2h-13.8v37.7h-8V147z"/>
		<path class="st0" d="M381.8,139.7h6.9l19.4,45h-9.2l-4.2-10.3h-19.5l-4.1,10.3h-9L381.8,139.7z M391.9,167.6l-6.9-18.3l-7.1,18.3
			H391.9z"/>
		<path class="st0" d="M413.1,139.7h15.6c8.6,0,16.8,2.8,16.8,12.9c0,6.5-3.8,11.2-10.4,12.2l11.9,19.9h-9.7l-10.4-19.1h-5.8v19.1
			h-8V139.7z M427.3,158.8c4.5,0,9.8-0.4,9.8-6.2c0-5.3-5-6-9.1-6h-6.9v12.2H427.3z"/>
	</g>
	<path id="Icon_metro-trademark_00000057859869030957812080000012268969796252701367_" class="st0" d="M457.6,125.7v1.4
		c0,0.1,0,0.2-0.1,0.3c-0.1,0.1-0.2,0.1-0.3,0.1h-3.6v9.9c0,0.1,0,0.2-0.1,0.3c-0.1,0.1-0.2,0.1-0.3,0.1h-1.6c-0.1,0-0.2,0-0.3-0.1
		c-0.1-0.1-0.1-0.2-0.1-0.3v-9.9h-3.6c-0.1,0-0.2,0-0.3-0.1c-0.1-0.1-0.1-0.2-0.1-0.3v-1.4c0-0.2,0.2-0.4,0.4-0.4c0,0,0,0,0,0h9.7
		C457.4,125.3,457.6,125.4,457.6,125.7L457.6,125.7z M470.3,125.6l0.9,11.7c0,0.1,0,0.2-0.1,0.3c-0.1,0.1-0.2,0.1-0.3,0.1h-1.6
		c-0.1,0-0.2,0-0.3-0.1c-0.1-0.1-0.1-0.2-0.1-0.3l-0.6-7.2l-2.3,5.2c-0.1,0.1-0.2,0.2-0.4,0.2h-1.5c-0.2,0-0.3-0.1-0.4-0.2l-2.3-5.2
		l-0.6,7.2c0,0.1-0.1,0.2-0.1,0.3c-0.1,0.1-0.2,0.1-0.3,0.1h-1.6c-0.1,0-0.2,0-0.3-0.1c-0.1-0.1-0.1-0.2-0.1-0.3l1-11.7
		c0-0.1,0.1-0.2,0.1-0.3c0.1-0.1,0.2-0.1,0.3-0.1h1.7c0.2,0,0.3,0.1,0.4,0.2l2.7,6.4c0.1,0.2,0.2,0.4,0.2,0.6c0-0.1,0.1-0.2,0.1-0.3
		c0.1-0.1,0.1-0.3,0.1-0.3l2.7-6.4c0.1-0.1,0.2-0.2,0.4-0.2h1.7C470.1,125.3,470.3,125.4,470.3,125.6L470.3,125.6z"/>
</g>
</svg>
