<svg xmlns="http://www.w3.org/2000/svg" width="46.62" height="47.896" viewBox="0 0 46.62 47.896">
  <g id="_x32_98" transform="translate(-1.31 -0.99)">
    <path id="Path_2078" data-name="Path 2078" d="M1.31,8.627V38.118a7.634,7.634,0,0,0,7.617,7.637H22.965a15.547,15.547,0,0,1-2.572-8.614A15.794,15.794,0,0,1,36.165,21.368a10.531,10.531,0,0,1,1.795.14V8.627A7.646,7.646,0,0,0,30.342.99H8.927A7.634,7.634,0,0,0,1.31,8.627ZM14.749,36.1H10.7a1.994,1.994,0,0,1,0-3.988h4.047a1.994,1.994,0,0,1,0,3.988Zm2.114-10.748H10.7a1.994,1.994,0,1,1,0-3.988h6.161a1.994,1.994,0,1,1,0,3.988ZM10.7,10.641H28.548a1.994,1.994,0,1,1,0,3.988H10.7a1.994,1.994,0,1,1,0-3.988Z" transform="translate(0 0)" fill="#ababab"/>
    <path id="Path_2079" data-name="Path 2079" d="M24.664,13.21A11.765,11.765,0,1,0,36.429,24.995,11.757,11.757,0,0,0,24.664,13.21Zm3.111,15.115a1.972,1.972,0,0,1-2.831,0L23.049,26.43a1.972,1.972,0,0,1-.578-1.416V20.987a1.994,1.994,0,1,1,3.988,0V24.2l1.316,1.316a1.985,1.985,0,0,1,0,2.811Z" transform="translate(11.5 12.147)" fill="#3c58a8"/>
  </g>
</svg>
