<svg xmlns="http://www.w3.org/2000/svg" width="47.997" height="47.996" viewBox="0 0 47.997 47.996">
  <g id="shuttle" transform="translate(0)">
    <path id="Path_2059" data-name="Path 2059" d="M12.209,138.268l-4.158.321a3.71,3.71,0,0,0-2.827,1.664l-4.8,7.253a2.57,2.57,0,0,0,1.751,3.957l3.807.59A34.094,34.094,0,0,1,12.209,138.268Z" transform="translate(0 -125.306)" fill="#ababab"/>
    <path id="Path_2060" data-name="Path 2060" d="M226.682,387.987l.59,3.807a2.568,2.568,0,0,0,3.957,1.751l7.253-4.8a3.71,3.71,0,0,0,1.664-2.827l.321-4.158A34.091,34.091,0,0,1,226.682,387.987Z" transform="translate(-205.432 -345.976)" fill="#ababab"/>
    <path id="Path_2061" data-name="Path 2061" d="M103.2,252.748a2.416,2.416,0,0,0,.4-.033A27.549,27.549,0,0,0,109.3,251.1L93.656,235.448a27.547,27.547,0,0,0-1.619,5.709,2.453,2.453,0,0,0,.691,2.135l8.732,8.732A2.463,2.463,0,0,0,103.2,252.748Z" transform="translate(-83.38 -213.377)" fill="#ababab"/>
    <path id="Path_2062" data-name="Path 2062" d="M155.56,21.28a37.912,37.912,0,0,0,3.771-18.9A2.465,2.465,0,0,0,157,.056C156.406.024,155.7,0,154.9,0a37.149,37.149,0,0,0-16.792,3.827,38.2,38.2,0,0,0-15.194,15.529,1.415,1.415,0,0,1,.13.114l16.874,16.874a1.41,1.41,0,0,1,.114.13A38.2,38.2,0,0,0,155.56,21.28ZM139.3,10.147a7.03,7.03,0,1,1-2.059,4.971,7.039,7.039,0,0,1,2.059-4.971Z" transform="translate(-111.391)" fill="#3c58a8"/>
    <path id="Path_2063" data-name="Path 2063" d="M306.967,123.493a4.218,4.218,0,1,0-1.236-2.983A4.223,4.223,0,0,0,306.967,123.493Z" transform="translate(-277.071 -105.392)" fill="#ababab"/>
    <path id="Path_2064" data-name="Path 2064" d="M1.711,350.368a1.4,1.4,0,0,0,.994-.412L7.3,345.365a1.406,1.406,0,0,0-1.989-1.989L.716,347.967a1.406,1.406,0,0,0,.994,2.4Z" transform="translate(-0.276 -310.814)" fill="#ababab"/>
    <path id="Path_2065" data-name="Path 2065" d="M11.23,388.257a1.406,1.406,0,0,0-1.989,0L.415,397.084A1.406,1.406,0,1,0,2.4,399.072l8.826-8.826a1.406,1.406,0,0,0,0-1.989Z" transform="translate(-0.003 -351.488)" fill="#3c58a8"/>
    <path id="Path_2066" data-name="Path 2066" d="M95.069,433.138l-4.591,4.591a1.406,1.406,0,1,0,1.988,1.989l4.591-4.591a1.406,1.406,0,1,0-1.989-1.989Z" transform="translate(-81.624 -392.162)" fill="#ababab"/>
  </g>
</svg>
