<svg xmlns="http://www.w3.org/2000/svg" xmlns:xlink="http://www.w3.org/1999/xlink" width="471.606" height="469.333" viewBox="0 0 471.606 469.333">
  <defs>
    <clipPath id="clip-path">
      <rect id="Rectangle_113" data-name="Rectangle 113" width="471.606" height="469.333" fill="none"/>
    </clipPath>
    <clipPath id="clip-path-3">
      <rect id="Rectangle_109" data-name="Rectangle 109" width="99.014" height="40.612" fill="none"/>
    </clipPath>
    <clipPath id="clip-path-4">
      <rect id="Rectangle_110" data-name="Rectangle 110" width="293.563" height="182.668" fill="none"/>
    </clipPath>
  </defs>
  <g id="Group_53" data-name="Group 53" clip-path="url(#clip-path)">
    <g id="Group_50" data-name="Group 50" transform="translate(0 0)">
      <g id="Group_49" data-name="Group 49" clip-path="url(#clip-path)">
        <g id="Group_45" data-name="Group 45" transform="translate(371.371 398.678)" opacity="0.5">
          <g id="Group_44" data-name="Group 44">
            <g id="Group_43" data-name="Group 43" clip-path="url(#clip-path-3)">
              <path id="Path_116" data-name="Path 116" d="M2887.065,3007.182c.049,6.549-4.691,12.951-13.341,17.984-9.481,5.473-22.286,8.5-35.97,8.5s-26.488-3.03-36.066-8.552c-8.8-5.034-13.586-11.484-13.635-18.082,0-4.936,2.688-9.774,7.721-13.977a35.263,35.263,0,0,0,9.677,8.015c18.766,10.8,49.066,10.8,67.735,0a35.871,35.871,0,0,0,8.016-6.207c3.811,3.812,5.864,8.015,5.864,12.315" transform="translate(-2788.053 -2993.058)" fill="#e3e7f0"/>
            </g>
          </g>
        </g>
        <g id="Group_48" data-name="Group 48" transform="translate(123.552 286.665)" opacity="0.5">
          <g id="Group_47" data-name="Group 47">
            <g id="Group_46" data-name="Group 46" clip-path="url(#clip-path-4)">
              <path id="Path_117" data-name="Path 117" d="M1139.6,2968.754l-63.386,36.849a14.079,14.079,0,0,1-12.657,0l-61.187-36.653a1.487,1.487,0,0,1-.635-.44l-32.158,18.669a12.114,12.114,0,0,1-11,0l-28.736-16.567c-3.08-1.809-3.031-4.644,0-6.4l5.473-3.176c.342,8.943,6.941,12.413,14.955,7.722l71.01-41-.049,29.518,49.408,28.541-.048,11.533,61.528-35.773,3.91-2.248,3.519,2.1c3.519,2,3.519,5.327.049,7.331" transform="translate(-927.559 -2824.438)" fill="#e3e7f0"/>
              <path id="Path_118" data-name="Path 118" d="M2369.454,2170.017l-114.5,66.563.049-29.127,89.971-51.9a29.087,29.087,0,0,0,4.545-3.421l19.89,11.485c3.08,1.759,3.031,4.692.049,6.4" transform="translate(-2078.14 -2152.13)" fill="#e3e7f0"/>
            </g>
          </g>
        </g>
      </g>
    </g>
    <path id="Path_119" data-name="Path 119" d="M161.551,63.522,143.2,52.859,218.745,9.245l18.348,10.662Z" transform="translate(-124.128 -8.014)" fill="#c9cee2"/>
    <g id="Group_52" data-name="Group 52" transform="translate(0 0)">
      <g id="Group_51" data-name="Group 51" clip-path="url(#clip-path)">
        <path id="Path_120" data-name="Path 120" d="M1124.669,369.293c-2.728-1.579-6.493-1.356-10.641,1.069L869.638,511.39c-8.248,4.818-14.98,16.368-14.98,25.781l.527,177.865-19.559-11.191L835.2,525.916c0-9.413,6.748-20.963,14.884-25.781l244.39-141.028c4.164-2.361,7.913-2.68,10.593-1.069Z" transform="translate(-723.946 -309.48)" fill="#c9cee2"/>
        <path id="Path_121" data-name="Path 121" d="M862.055,2998.188a.374.374,0,0,0,.127.1l-4.2-2.361-15.06-8.479c-2.792-1.707-4.387-5.025-4.387-9.748l-.112-16.895v-.128l19.527,11.175.048,16.958c.016,4.515,1.548,7.753,4.052,9.38" transform="translate(-726.749 -2566.311)" fill="#c9cee2"/>
        <path id="Path_122" data-name="Path 122" d="M2160.531,913.8a31.088,31.088,0,0,1,1.909,11.2c.056,19.993-13.966,44.282-31.316,54.3-17.4,10.046-31.465,1.974-31.521-18.02-.056-19.879,13.917-44.2,31.317-54.242,9.229-5.328,17.542-5.53,23.311-1.56" transform="translate(-1819.934 -782.494)" fill="#e3e7f0"/>
        <path id="Path_123" data-name="Path 123" d="M2227.274,1167.949c9.173-5.3,16.629-1.047,16.659,9.534l-33.245,19.194c-.03-10.582,7.377-23.411,16.586-28.728" transform="translate(-1916.223 -1010.403)" fill="#16a2ff"/>
        <path id="Path_124" data-name="Path 124" d="M2287.057,1031.745c4.053-2.34,7.335-.47,7.348,4.188a16.145,16.145,0,0,1-7.3,12.727c-4.053,2.34-7.37.45-7.384-4.249a16.134,16.134,0,0,1,7.336-12.666" transform="translate(-1976.06 -893.442)" fill="#16a2ff"/>
        <path id="Path_125" data-name="Path 125" d="M1917.19,1664.34a1.221,1.221,0,0,1-.611-2.279l66.167-38.2a1.221,1.221,0,1,1,1.222,2.114l-66.167,38.2a1.2,1.2,0,0,1-.611.165" transform="translate(-1660.76 -1407.417)" fill="#16a2ff"/>
        <path id="Path_126" data-name="Path 126" d="M1929.093,2208.052c2.181-1.259,3.938-.259,3.945,2.248a8.6,8.6,0,0,1-3.919,6.788c-2.21,1.276-3.966.275-3.973-2.231a8.613,8.613,0,0,1,3.948-6.8" transform="translate(-1668.714 -1913.466)" fill="#16a2ff"/>
        <path id="Path_127" data-name="Path 127" d="M2026.914,2151.573c2.181-1.259,3.937-.258,3.944,2.248a8.6,8.6,0,0,1-3.919,6.788c-2.21,1.276-3.967.275-3.974-2.231a8.613,8.613,0,0,1,3.948-6.8" transform="translate(-1753.505 -1864.511)" fill="#16a2ff"/>
        <path id="Path_128" data-name="Path 128" d="M2124.737,2095.143c2.153-1.243,3.938-.258,3.945,2.248a8.653,8.653,0,0,1-3.919,6.788c-2.21,1.276-3.966.275-3.973-2.232a8.612,8.612,0,0,1,3.947-6.8" transform="translate(-1838.299 -1815.603)" fill="#16a2ff"/>
        <path id="Path_129" data-name="Path 129" d="M2222.559,2038.687c2.152-1.243,3.909-.242,3.916,2.264a8.6,8.6,0,0,1-3.89,6.772c-2.21,1.276-3.967.275-3.974-2.231a8.614,8.614,0,0,1,3.948-6.8" transform="translate(-1923.09 -1766.67)" fill="#16a2ff"/>
        <path id="Path_130" data-name="Path 130" d="M2320.382,1982.209c2.153-1.243,3.909-.242,3.916,2.265a8.594,8.594,0,0,1-3.891,6.772c-2.21,1.276-3.966.275-3.973-2.232a8.613,8.613,0,0,1,3.948-6.8" transform="translate(-2007.884 -1717.715)" fill="#16a2ff"/>
        <path id="Path_131" data-name="Path 131" d="M2890.83,2941.874c-18.758,9.014-46.682,8.421-64.349-1.779-9.443-5.451-14.156-12.6-14.136-19.747l.031-15.492c-.02,7.142,4.694,14.3,14.136,19.747,18.757,10.83,49.078,10.83,67.714,0,9.261-5.382,13.9-12.423,13.916-19.474l-.032,15.493c-.015,5.4-2.733,10.787-8.161,15.433" transform="translate(-2437.738 -2517.926)" fill="#c9cee2"/>
        <path id="Path_132" data-name="Path 132" d="M2953.437,2767.165c.013,5.261-3.785,10.371-10.711,14.4-7.621,4.416-17.865,6.851-28.842,6.851s-21.247-2.435-28.917-6.864c-7.027-4.05-10.9-9.223-10.914-14.522,0-5.249,3.811-10.358,10.712-14.371,7.633-4.428,17.878-6.876,28.842-6.876s21.247,2.448,28.931,6.876c7.015,4.063,10.888,9.21,10.9,14.509" transform="translate(-2491.226 -2380.04)" fill="#e3e7f0"/>
        <path id="Path_133" data-name="Path 133" d="M1068.708,913.874a9.948,9.948,0,0,1-9.937-9.937,9.832,9.832,0,0,1,9.937-9.934,9.935,9.935,0,0,1,0,19.871m0-17.427a7.414,7.414,0,0,0-7.493,7.491,7.491,7.491,0,1,0,7.493-7.491" transform="translate(-917.742 -774.921)" fill="#b0b8cf"/>
        <path id="Path_134" data-name="Path 134" d="M3128.061,2387.918a7.968,7.968,0,1,1-7.968-7.967,7.942,7.942,0,0,1,7.968,7.967" transform="translate(-2697.587 -2062.94)" fill="#16a2ff"/>
        <path id="Path_135" data-name="Path 135" d="M3049.378,2874.808H3004.9l-.063-11.258" transform="translate(-2604.587 -2482.123)" fill="#e3e7f0"/>
        <path id="Path_136" data-name="Path 136" d="M1029.483,735.163l15.151-8.8a1.215,1.215,0,0,0-1.222-2.1l-59.72,34.7.048-8.7,80.637-46.868v8.7l-11.485,6.647a1.264,1.264,0,0,0-.44,1.71,1.25,1.25,0,0,0,1.662.44l12.071-7.037a1.214,1.214,0,0,0,.635-1.075V701.3a1.172,1.172,0,0,0-.587-1.075l-.293-.147-48.48-28,.049-27.808,89.336-51.559c8.888-5.151,15.541-17.382,15.541-26.879-.2-115.127-.132-75.419-.147-84.009a1.21,1.21,0,0,0-1.222-1.222,1.242,1.242,0,0,0-1.222,1.222c.06,41.056.037,25.267.1,66.318L941.809,650.959c-.224-187.138-.116-97.637-.147-122.862a1.222,1.222,0,0,0-2.444,0c.03,25.593-.077-65.029.147,124.279l-91.047,52.536-.489-175.692c0-8.659,6.171-19.76,14.368-24.68l76.972-44.424v-.049l.007,0,.043,51.273a1.222,1.222,0,0,0,2.444,0c-.25-54.436.393-51.637-.512-52.38,168.546-97.288,55.177-31.849,165.4-95.458,7.429-4.284,13.146-1.216,13.146,7.38l.1,91.34a1.222,1.222,0,1,0,2.443,0l-.1-91.34c0-4.985-1.759-8.748-4.936-10.605-.358-.12-19.875-11.379-19.548-11.191-3.816-2.185-8.016-1.118-11.875,1.026L841.379,491.15c-9.092,5.684-15.492,17.258-15.492,26.83,0,.492.1,39.626.1,37.191a1.222,1.222,0,0,0,2.444,0c0-.508-.1-35.536-.1-35.04l17.056,9.823h0l.489,175.056-17.1-9.823-.049-9.774a1.222,1.222,0,1,0-2.444,0c.013,8.676.121,18.945.2,27.514,0,5.083,1.711,8.8,4.985,10.8,19.443,10.551,19.754,12.12,23.948,12.12a14.728,14.728,0,0,0,7.379-2.248l59.085-34.112-.1,27.27a1.214,1.214,0,0,0,.636,1.075l59.427,34.307a1.049,1.049,0,0,0,1.222,0h.049l43.886-25.511,6.011,3.226a1.214,1.214,0,0,0,1.124-2.15ZM1063.2,701.3l-80.686,46.867h-.048L935.553,721.04l80.686-46.867Zm-48.187-29.274-80.686,46.916.049-26.684,80.686-46.574Zm-182.338,49.6c-2.493-1.515-3.763-4.545-3.763-8.7l-.146-14.906,17.1,9.774.049,16.225a17.546,17.546,0,0,0,.782,5.229.7.7,0,0,0,.1.342Zm28.883,9.872c-7.815,4.481-13.2.727-13.2-7.477,0-.513-.052-17.323-.049-16.274,57.605-33.251,194.849-112.483,271.576-156.778l.049,14.856c0,9.09-6.4,20.184-14.319,24.778L861.563,731.5" transform="translate(-715.878 -301.543)" fill="#2f2f2f"/>
        <path id="Path_137" data-name="Path 137" d="M2423.952,3298.4a1.154,1.154,0,0,0-1.612.489,1.222,1.222,0,0,0,.488,1.662l6.6,3.519a1.237,1.237,0,0,0,1.661-.489,1.266,1.266,0,0,0-.489-1.661Z" transform="translate(-2099.547 -2858.916)" fill="#2f2f2f"/>
        <path id="Path_138" data-name="Path 138" d="M2519.76,3349.907a1.267,1.267,0,0,0-1.662.489,1.209,1.209,0,0,0,.489,1.662l6.6,3.567a1.229,1.229,0,0,0,1.661-.489,1.2,1.2,0,0,0-.489-1.662Z" transform="translate(-2182.55 -2903.58)" fill="#2f2f2f"/>
        <path id="Path_139" data-name="Path 139" d="M2620.948,3400.715l-2.582,1.491-2.63-1.413a1.221,1.221,0,0,0-1.155,2.152l3.226,1.735a1.215,1.215,0,0,0,1.188-.019l3.174-1.833a1.221,1.221,0,1,0-1.222-2.114" transform="translate(-2265.759 -2947.594)" fill="#2f2f2f"/>
        <path id="Path_140" data-name="Path 140" d="M2917.933,3227.419l-6.891,3.959a1.2,1.2,0,0,0-.439,1.661,1.154,1.154,0,0,0,1.661.44l6.891-3.958a1.215,1.215,0,0,0-1.222-2.1" transform="translate(-2522.762 -2797.366)" fill="#2f2f2f"/>
        <path id="Path_141" data-name="Path 141" d="M2717.872,3343.083l-6.89,3.958a1.267,1.267,0,0,0-.489,1.662,1.2,1.2,0,0,0,1.711.439l6.89-3.958a1.249,1.249,0,0,0,.44-1.662,1.217,1.217,0,0,0-1.662-.44" transform="translate(-2349.335 -2897.636)" fill="#2f2f2f"/>
        <path id="Path_142" data-name="Path 142" d="M2817.767,3285.115l-6.89,4.007a1.2,1.2,0,0,0-.44,1.662,1.258,1.258,0,0,0,1.662.44l6.89-4.007a1.215,1.215,0,1,0-1.222-2.1" transform="translate(-2435.938 -2847.389)" fill="#2f2f2f"/>
        <path id="Path_143" data-name="Path 143" d="M73.47,165.225l0,2.685a1.222,1.222,0,1,0,2.444,0l0-2.5a1.085,1.085,0,0,0,.618-.381c16.177-20.037,29.274-43.642,39-70.179a1.2,1.2,0,0,0-.733-1.564,1.214,1.214,0,0,0-1.564.733c-9.53,26.048-22.383,49.262-38.217,68.957a46.531,46.531,0,0,1-19.109-6.011.048.048,0,0,0-.049-.049c-18.184-10.11-28.28-34.957-32.694-55.469-1.615-7.528-1.512-7.844-2.248-12.56,10.14-7.161,17.691-22.044,17.691-32.255a1.075,1.075,0,0,0,.049-.391c10.238-5.911,67.364-38.924,73.16-42.273.678,4.742,1.749,8.642,5.865,11.387h.049a13.014,13.014,0,0,0,11.289.733l.44-.146A313.581,313.581,0,0,1,117.437,81.6a1.282,1.282,0,0,0,.781,1.564,1.266,1.266,0,0,0,1.564-.831A316.485,316.485,0,0,0,132.1,24.377a1.232,1.232,0,0,0-.538-1.418l-17.35-10.116c-.134-.812.163-1.5-.635-2L95.25.186a1.109,1.109,0,0,0-1.222,0L68.761,14.749a1.215,1.215,0,0,0,1.222,2.1L94.614,2.629,110.5,11.915c-3.287,1.907,14.734-8.5-73.063,42.176L21.5,44.854,55.908,25.012a1.215,1.215,0,1,0-1.222-2.1L18.473,43.779a1.273,1.273,0,0,0-.636,1.075v.1c0,11.387-7.428,24.973-17.3,31.669A1.3,1.3,0,0,0,0,77.7v.1c3.47,24.582,12.511,56.788,36.311,70.619l18.327,10.654h.1a47.821,47.821,0,0,0,18.735,6.16M2.785,79.943l15.688,9.09c.771,5.005,1.563,10.132,3.078,16.421a144.106,144.106,0,0,0,7.967,23.6,1.074,1.074,0,0,1,.146.244A80.681,80.681,0,0,0,42.371,149.1c-1.845-2.331-30.347-8.6-39.585-69.152" transform="translate(0 -0.002)" fill="#2f2f2f"/>
        <path id="Path_144" data-name="Path 144" d="M551.815,1413.852a1.222,1.222,0,0,0,2.444,0v-7.135a1.242,1.242,0,0,0-1.222-1.222,1.209,1.209,0,0,0-1.222,1.222Z" transform="translate(-478.313 -1218.282)" fill="#2f2f2f"/>
        <path id="Path_145" data-name="Path 145" d="M553.4,1821.188a1.21,1.21,0,0,0-1.222,1.222v7.184a1.222,1.222,0,0,0,2.443,0v-7.184a1.242,1.242,0,0,0-1.222-1.222" transform="translate(-478.632 -1578.604)" fill="#2f2f2f"/>
        <path id="Path_146" data-name="Path 146" d="M553.037,1301.662a1.209,1.209,0,0,0-1.222,1.222v7.135a1.21,1.21,0,0,0,1.222,1.222,1.242,1.242,0,0,0,1.222-1.222v-7.135a1.242,1.242,0,0,0-1.222-1.222" transform="translate(-478.313 -1128.28)" fill="#2f2f2f"/>
        <path id="Path_147" data-name="Path 147" d="M551.815,1621.564a1.241,1.241,0,0,0,1.222,1.222,1.21,1.21,0,0,0,1.222-1.222v-7.184a1.222,1.222,0,0,0-2.444,0Z" transform="translate(-478.313 -1398.284)" fill="#2f2f2f"/>
        <path id="Path_148" data-name="Path 148" d="M551.815,1725.714a1.241,1.241,0,0,0,1.222,1.222,1.21,1.21,0,0,0,1.222-1.222v-7.135a1.21,1.21,0,0,0-1.222-1.222,1.241,1.241,0,0,0-1.222,1.222Z" transform="translate(-478.313 -1488.604)" fill="#2f2f2f"/>
        <path id="Path_149" data-name="Path 149" d="M551.815,1517.731a1.21,1.21,0,0,0,1.222,1.222,1.242,1.242,0,0,0,1.222-1.222v-7.184a1.222,1.222,0,0,0-2.444,0Z" transform="translate(-478.313 -1308.282)" fill="#2f2f2f"/>
        <path id="Path_150" data-name="Path 150" d="M553.939,1931.058l3.174-1.833a1.221,1.221,0,1,0-1.222-2.114l-1.346.776v-1.554a1.222,1.222,0,0,0-2.443,0l0,3.665a1.221,1.221,0,0,0,1.833,1.055" transform="translate(-478.561 -1668.688)" fill="#2f2f2f"/>
        <path id="Path_151" data-name="Path 151" d="M732.593,1823.028l-6.891,4.008a1.253,1.253,0,0,0-.488,1.662,1.309,1.309,0,0,0,1.71.44l6.892-4.008a1.215,1.215,0,0,0-1.222-2.1" transform="translate(-628.498 -1580.054)" fill="#2f2f2f"/>
        <path id="Path_152" data-name="Path 152" d="M632.063,1881l-6.891,4.008a1.266,1.266,0,0,0-.488,1.661,1.309,1.309,0,0,0,1.71.44l6.891-4.007a1.215,1.215,0,0,0-1.222-2.1" transform="translate(-541.359 -1630.302)" fill="#2f2f2f"/>
        <path id="Path_153" data-name="Path 153" d="M2306.148,3079.278l7.771-4.5a1.206,1.206,0,0,0,.44-1.662,1.263,1.263,0,0,0-1.71-.44l-7.722,4.5a1.206,1.206,0,0,0-.44,1.661,1.257,1.257,0,0,0,1.662.44" transform="translate(-1997.381 -2663.25)" fill="#2f2f2f"/>
        <path id="Path_154" data-name="Path 154" d="M2420.252,2968.347l11.045-6.4a1.239,1.239,0,0,0,0-2.1l-8.552-4.936a1.215,1.215,0,1,0-1.222,2.1l6.695,3.909-9.187,5.327a1.206,1.206,0,0,0-.44,1.662,1.155,1.155,0,0,0,1.662.44" transform="translate(-2096.286 -2561.165)" fill="#2f2f2f"/>
        <path id="Path_155" data-name="Path 155" d="M828.4,2093.477h0a1.222,1.222,0,0,0,1.217-1.224l-.258-106.065a1.221,1.221,0,0,0-1.222-1.22h0a1.222,1.222,0,0,0-1.217,1.224l.258,106.066a1.22,1.22,0,0,0,1.222,1.219" transform="translate(-716.771 -1720.569)" fill="#2f2f2f"/>
        <path id="Path_156" data-name="Path 156" d="M2964.868,865.322a1.221,1.221,0,0,0,1.221-1.224l-.019-17.012a1.222,1.222,0,0,0-2.444,0l.019,17.012a1.222,1.222,0,0,0,1.222,1.219" transform="translate(-2568.869 -733.197)" fill="#2f2f2f"/>
        <path id="Path_157" data-name="Path 157" d="M2802.28,590.1l0,13.96a1.222,1.222,0,1,0,2.443,0l0-13.96c0-10.385-7.763-14.789-16.828-9.521l-9.789,5.651a1.221,1.221,0,1,0,1.222,2.114l9.793-5.653c7.4-4.318,13.158-1.091,13.158,7.409" transform="translate(-2407.532 -501.311)" fill="#2f2f2f"/>
        <path id="Path_158" data-name="Path 158" d="M1958.42,2529.129c6.859,0,13.081-12.21,9.188-16.812-1.008-1.682-3.718-2.672-6.94-.831-3.753,2.092-6.713,6.99-6.939,11.729v.244c0,3.672,2.2,5.669,4.691,5.669m7.868-13.244a.618.618,0,0,1,.049.293c0,5.5-5.9,11.876-8.943,10.263-1.36-.765-1.4-3.258-1.026-4.741,1.572-7.87,9.92-11.874,9.92-5.816" transform="translate(-1693.49 -2176.097)" fill="#2f2f2f"/>
        <path id="Path_159" data-name="Path 159" d="M2122.392,898.016c-19.5,11.288-35.244,40.607-31.327,62.164a1.251,1.251,0,0,0,1.222.977h.244a1.212,1.212,0,0,0,.929-1.418c-3.6-21.1,11.608-48.911,30.154-59.623,8.406-4.838,16.42-5.425,21.992-1.613a1.227,1.227,0,1,0,1.417-2c-6.4-4.4-15.346-3.861-24.631,1.515" transform="translate(-1812.011 -774.531)" fill="#2f2f2f"/>
        <path id="Path_160" data-name="Path 160" d="M2153.261,1057.958c-10.41,6.011-19.842,5.473-25.218-1.417a1.222,1.222,0,1,0-1.955,1.466,16.814,16.814,0,0,0,13.684,6.5c25.468,0,52.6-42.4,45.5-68.908a1.216,1.216,0,1,0-2.346.635c5.145,19.087-9.127,49.862-29.664,61.724" transform="translate(-1842.685 -862.192)" fill="#2f2f2f"/>
        <path id="Path_161" data-name="Path 161" d="M1983.892,1304.941c-.01-2.63-2.229-3.927-4.534-2.594L1859.6,1371.49a7.066,7.066,0,0,0-3.293,5.706l.067,22.949c.01,2.711,2.262,3.943,4.534,2.62l79-45.612a1.221,1.221,0,1,0-1.222-2.114l-79,45.612a.991.991,0,0,1-.687.193c-.057-.036-.181-.253-.181-.7l-.067-22.949a4.717,4.717,0,0,1,2.071-3.587c127.453-73.414,120.627-70.416,120.627-68.658l.067,22.949a4.735,4.735,0,0,1-2.071,3.613l-24.135,13.933a1.221,1.221,0,1,0,1.222,2.114l24.135-13.933a7.191,7.191,0,0,0,3.293-5.732Z" transform="translate(-1609.045 -1128.414)" fill="#2f2f2f"/>
        <path id="Path_162" data-name="Path 162" d="M1979.444,1669.267,1932,1696.659a1.221,1.221,0,1,0,1.222,2.114l47.444-27.392a7.19,7.19,0,0,0,3.293-5.732l-.067-22.949c-.01-2.648-2.256-3.922-4.534-2.594L1859.6,1709.249a7.066,7.066,0,0,0-3.293,5.7l.067,22.951c.01,2.685,2.236,3.947,4.534,2.62l55.319-31.94a1.221,1.221,0,1,0-1.222-2.114c-58.911,33.889-56.187,33.181-56.187,31.43l-.067-22.951a4.717,4.717,0,0,1,2.071-3.584c122-70.268,119.957-69.6,120.445-69.326s.086,4.569.248,23.617a4.735,4.735,0,0,1-2.071,3.613" transform="translate(-1609.045 -1421.183)" fill="#2f2f2f"/>
        <path id="Path_163" data-name="Path 163" d="M1154.117,2501.36l-62.912,36.324a1.221,1.221,0,0,0,1.222,2.114l62.912-36.324a1.221,1.221,0,1,0-1.222-2.114" transform="translate(-945.323 -2168.033)" fill="#2f2f2f"/>
        <path id="Path_164" data-name="Path 164" d="M1155.787,2294.85a1.224,1.224,0,0,0-1.671-.446l-62.912,36.324a1.221,1.221,0,0,0,1.222,2.114l62.912-36.324a1.225,1.225,0,0,0,.449-1.668" transform="translate(-945.322 -1988.643)" fill="#2f2f2f"/>
        <path id="Path_165" data-name="Path 165" d="M1323.344,2087.879a1.224,1.224,0,0,0-1.67-.446l-37.169,21.46a1.221,1.221,0,1,0,1.222,2.114l37.169-21.46a1.226,1.226,0,0,0,.448-1.668" transform="translate(-1112.879 -1809.241)" fill="#2f2f2f"/>
        <path id="Path_166" data-name="Path 166" d="M1107.634,2296.519a1.221,1.221,0,1,0-1.222-2.115l-15.167,8.755a1.223,1.223,0,0,0,.611,2.279c.614,0-.216.244,15.778-8.92" transform="translate(-945.362 -1988.644)" fill="#2f2f2f"/>
        <path id="Path_167" data-name="Path 167" d="M1155.821,1880.908a1.224,1.224,0,0,0-1.671-.446l-62.912,36.324a1.221,1.221,0,1,0,1.222,2.114l62.912-36.324a1.225,1.225,0,0,0,.449-1.668" transform="translate(-945.356 -1629.839)" fill="#2f2f2f"/>
        <path id="Path_168" data-name="Path 168" d="M1155.827,1673.966a1.226,1.226,0,0,0-1.67-.446l-62.912,36.324a1.222,1.222,0,0,0,.611,2.279c.62,0-3.586,2.188,63.523-36.489a1.225,1.225,0,0,0,.448-1.668" transform="translate(-945.362 -1450.463)" fill="#2f2f2f"/>
        <path id="Path_169" data-name="Path 169" d="M1155.821,1466.995a1.226,1.226,0,0,0-1.671-.446l-62.912,36.324a1.221,1.221,0,1,0,1.222,2.114l62.912-36.324a1.225,1.225,0,0,0,.449-1.668" transform="translate(-945.356 -1271.06)" fill="#2f2f2f"/>
        <path id="Path_170" data-name="Path 170" d="M452.034,432.323a1.221,1.221,0,1,0,1.222,2.114c8.095-4.668,14.221-1.114,14.251,8.111.019,6.567-3.069,14.358-8.056,20.338a1.235,1.235,0,0,0-.267.974l3.523,22.377L445.678,477.5l.629-4.9a1.222,1.222,0,0,0-1.16-1.377c-4.534-.189-7.245-3.99-7.264-10.166-.019-6.91,3.527-15.3,9.03-21.367a1.223,1.223,0,0,0-1.814-1.642c-5.885,6.5-9.679,15.53-9.66,23.013.019,6.949,3.16,11.6,8.285,12.466l-3.594,28.013a1.226,1.226,0,0,0,1.817,1.222l22.969-13.244a1.157,1.157,0,0,0,.569-1.188c0-.025.014-.046.011-.071l-3.813-24.238c5.126-6.343,8.285-14.523,8.266-21.477-.03-11.144-8.211-15.827-17.916-10.22m-9.157,67.066,2.492-19.3,16.372,8.406Z" transform="translate(-377.439 -372.679)" fill="#2f2f2f"/>
        <path id="Path_171" data-name="Path 171" d="M2901.258,2792.745c-.033-5.254-2.3-10.357-6.923-14.842a1.209,1.209,0,0,0-1.71,1.71c3.605,3.562,6.3,8.106,6.3,13.2-.049.049-.049.049-.049.1a15.036,15.036,0,0,1-1.368,6.3c0,.049,0,.1-.049.1-1.409,3.752-5.591,7.815-9.138,10.263a21.922,21.922,0,0,1-2.737,1.76c-29.685,17.224-80,4.635-80-18.669,0-5.376,2.933-10.654,8.405-15.1a1.217,1.217,0,1,0-1.514-1.906c-6.06,4.887-9.335,10.85-9.335,17.007l-.049,15.492c0,24.744,48.718,37.8,80.246,22.628a1.274,1.274,0,0,0,.586-1.662,1.255,1.255,0,0,0-1.661-.538c-18.9,9.072-46.74,7.765-63.191-1.759-8.748-5.034-13.537-11.68-13.537-18.669V2801.8c11.177,20.091,55.362,26.775,81.273,11.632A32.442,32.442,0,0,0,2898.88,2802v6.4c-.049,5.18-2.688,10.214-7.722,14.515a1.214,1.214,0,1,0,1.564,1.857c5.62-4.79,8.552-10.458,8.6-16.372v-15.492c0-.063-.058-.1-.066-.161" transform="translate(-2429.718 -2405.713)" fill="#2f2f2f"/>
        <path id="Path_172" data-name="Path 172" d="M2925.07,2696.9a1.218,1.218,0,0,0,1.642.532c18.184-9.29,45.316-9.049,63.112.563a1.224,1.224,0,0,0,1.165-2.153c-18.456-9.96-46.566-10.208-65.384-.587a1.224,1.224,0,0,0-.535,1.644" transform="translate(-2535.333 -2330.135)" fill="#2f2f2f"/>
        <path id="Path_173" data-name="Path 173" d="M510.386,2576.375a1.222,1.222,0,0,0-1.728,0l-6.992,6.989-6.987-6.989a1.222,1.222,0,0,0-1.728,1.728l6.986,6.988-6.991,6.988a1.222,1.222,0,1,0,1.728,1.728l6.991-6.988,6.988,6.99a1.222,1.222,0,0,0,1.728-1.728l-6.988-6.99,6.992-6.989a1.221,1.221,0,0,0,0-1.728" transform="translate(-426.976 -2232.889)" fill="#2f2f2f"/>
        <path id="Path_174" data-name="Path 174" d="M2998.16,2865.637l-.058-10.044a1.22,1.22,0,0,0-1.222-1.214h0a1.221,1.221,0,0,0-1.217,1.229l.062,11.259a1.223,1.223,0,0,0,1.222,1.215h44.48a1.222,1.222,0,0,0,0-2.444Z" transform="translate(-2596.634 -2474.173)" fill="#2f2f2f"/>
      </g>
    </g>
  </g>
</svg>
