 <svg width="156" height="30" viewBox="0 0 156 30" fill="none" xmlns="http://www.w3.org/2000/svg">
        <path d="M151.437 5.96356H150.636V5.5376H152.671V5.96356H151.869V8.09338H151.437V5.96356ZM153.287 5.59845H153.965L154.644 7.36316L155.322 5.59845H156V8.09338H155.569V6.02441L154.829 8.09338H154.52L153.78 6.02441V8.09338H153.349L153.287 5.59845Z" fill="#00008E"/>
        <path d="M1.35652 0L3.63794 3.89452L4.62451 5.53753H0L12.2704 24.5233L14.0585 21.2373L6.41265 9.43205H20.3478L22.6292 5.53753H6.72095L5.73439 3.89452H25.9589L13.5652 26.4097L15.97 30L31.8783 0H1.35652Z" fill="#00008E"/>
        <path d="M36.1329 5.59845H41.1891L46.1835 18.4382L51.178 5.59845H56.1725V23.9757H53.0278V8.7019H52.9662L47.2934 23.9757H44.9503L39.2776 8.7019H39.216V23.9757H36.0713L36.1329 5.59845ZM77.3835 17.2212C77.3835 18.2556 77.1986 19.2901 76.8286 20.2029C76.4586 21.0548 75.9037 21.8459 75.2254 22.4544C74.5472 23.063 73.7456 23.5498 72.8824 23.9149C71.9575 24.28 70.9092 24.4017 69.9227 24.4017C68.9361 24.4017 67.8879 24.2191 66.963 23.9149C66.0997 23.6106 65.2982 23.1238 64.5582 22.4544C63.88 21.8459 63.325 21.0548 62.9551 20.2029C62.5851 19.2293 62.4001 18.2556 62.4001 17.2212V5.59845H65.7298V17.0995C65.7298 17.5863 65.7914 18.0731 65.9148 18.4991C66.0381 18.9859 66.2847 19.4727 66.593 19.8378C66.963 20.2638 67.3946 20.6289 67.8879 20.8723C68.5045 21.1765 69.1828 21.2982 69.861 21.2982C70.5393 21.2982 71.2175 21.1765 71.8341 20.8723C72.3274 20.6289 72.759 20.2638 73.129 19.8378C73.4373 19.4118 73.6839 18.9859 73.8073 18.4991C73.9306 18.0122 73.9922 17.5863 73.9922 17.0995V5.59845H77.3219L77.3835 17.2212ZM83.6112 5.59845H95.6349V8.58019H86.9409V13.3875H95.1416V16.3692H86.9409V23.9757H83.6112V5.59845ZM104.576 8.51934H98.9029V5.5376H113.64V8.51934H107.967V23.9149H104.637L104.576 8.51934ZM121.594 5.59845H124.43L132.446 23.9757H128.685L126.958 19.7769H118.881L117.216 23.9757H113.516L121.594 5.59845ZM125.787 16.9169L122.95 9.43212L120.052 16.9169H125.787ZM136.639 5.59845H143.113C143.976 5.59845 144.84 5.6593 145.703 5.84186C146.504 5.96356 147.244 6.26782 147.923 6.69378C148.601 7.11975 149.094 7.66742 149.464 8.27593C149.896 9.06701 150.081 9.97979 150.019 10.8317C150.081 12.0488 149.649 13.2049 148.909 14.1786C148.108 15.0913 146.936 15.6999 145.703 15.8216L150.636 23.9149H146.628L142.312 16.1258H139.907V23.9149H136.577L136.639 5.59845ZM142.497 13.3875C142.99 13.3875 143.421 13.3875 143.915 13.3266C144.346 13.2658 144.778 13.2049 145.21 13.0224C145.58 12.8398 145.95 12.5964 146.196 12.2922C146.443 11.8662 146.566 11.3794 146.566 10.8926C146.566 10.4058 146.443 9.97979 146.196 9.61468C145.95 9.31042 145.641 9.00616 145.333 8.88445C144.963 8.7019 144.531 8.58019 144.1 8.58019C143.668 8.51934 143.237 8.51934 142.805 8.51934H139.907V13.5092H142.497V13.3875Z" fill="#00008E"/>
</svg> 