<svg id="Group_348" data-name="Group 348" xmlns="http://www.w3.org/2000/svg" width="173.402" height="173.402" viewBox="0 0 173.402 173.402">
  <ellipse id="Ellipse_30" data-name="Ellipse 30" cx="86.701" cy="86.701" rx="86.701" ry="86.701" transform="translate(0 0)" fill="#f3f8ff" opacity="0.3"/>
  <path id="Path_2753" data-name="Path 2753" d="M2119.119,1206.777c1.425-1.6,2.6-3.225,4.06-4.6a22.282,22.282,0,0,1,16.026-6.321,36.995,36.995,0,0,1,10.074,1.227c7.527,2.175,11.9,7.356,13.985,14.707a61.607,61.607,0,0,1,1.861,16.851c.021,11.976-.035,23.955-.009,35.931,0,1.121-.311,1.416-1.415,1.407q-9.256-.078-18.511,0c-1.085.011-1.32-.326-1.316-1.352q.053-17.093.007-34.189a30.731,30.731,0,0,0-.993-8.487c-1.476-5.116-5.136-7.721-10.5-7.438-7.316.388-11.122,4.009-12.056,11.45a42.522,42.522,0,0,0-.327,5.346c.011,11.083-.011,22.166.03,33.25,0,1.105-.272,1.431-1.4,1.42q-9.322-.081-18.646,0c-1,.007-1.285-.262-1.283-1.269q.041-32.916,0-65.83c0-1.087.354-1.338,1.384-1.332q8.851.067,17.7,0c1.086-.01,1.366.342,1.343,1.369C2119.079,1201.53,2119.119,1204.155,2119.119,1206.777Z" transform="translate(-2025.71 -1131.904)" fill="#fefefe"/>
  <path id="Path_2754" data-name="Path 2754" d="M2093,1231.481c0,10.855-.017,21.712.026,32.566,0,1.208-.294,1.572-1.545,1.559-6.166-.068-12.335-.053-18.5-.01-.987.007-1.286-.24-1.284-1.262q.044-32.968,0-65.938c0-.909.221-1.234,1.186-1.229,6.257.041,12.516.053,18.772-.007,1.2-.012,1.365.454,1.363,1.485Q2092.97,1215.063,2093,1231.481Z" transform="translate(-2033.395 -1131.53)" fill="#fefefe"/>
  <path id="Path_2755" data-name="Path 2755" d="M2095.061,1182.923a12.32,12.32,0,1,1-12.3-12.256A12.36,12.36,0,0,1,2095.061,1182.923Z" transform="translate(-2033.756 -1139.068)" fill="#fefefe"/>
</svg>
