<svg xmlns="http://www.w3.org/2000/svg" width="24" height="23.999" viewBox="0 0 24 23.999">
  <g id="Group_1636" data-name="Group 1636" transform="translate(21342 15790.499)">
    <g id="accounting" transform="translate(-21837.061 -16090.439)">
      <path id="Path_11098" data-name="Path 11098" d="M495.06,321.033V301.112a1.5,1.5,0,0,1,1.031-1.172h15.14a1.485,1.485,0,0,1,1.041,1.641c-.022,3.466-.009,6.933-.009,10.4v.282h.236c1.185.017,2.372.009,3.555.062a6.582,6.582,0,0,1,2.237.454,1.3,1.3,0,0,1,.769.707v9.187a1.178,1.178,0,0,1-.787.707,18.032,18.032,0,0,1-1.787.409c-.495.085-1,.1-1.5.149h-2.2c-.092-.013-.183-.029-.276-.039-.612-.066-1.231-.1-1.834-.205a7.123,7.123,0,0,1-1.4-.424.866.866,0,0,1-.569-.951c.011-.112,0-.226,0-.35h-.314q-5.922,0-11.845,0A1.418,1.418,0,0,1,495.06,321.033Zm13.628-.937H498.624c-.086,0-.172,0-.258,0a.983.983,0,0,1-.962-1q0-3.1,0-6.21c0-.414-.007-.828,0-1.242a1.022,1.022,0,0,1,1.069-1.058q5.636,0,11.272,0a1.006,1.006,0,0,1,1.063,1.057c0,.256,0,.512,0,.786l.737-.1V309.41h-.264q-1.1,0-2.2,0c-.291,0-.45-.132-.444-.362s.16-.339.442-.34q1.113,0,2.226,0h.246c0-.066.009-.1.009-.128q0-3.644,0-7.288c0-.433-.239-.646-.708-.646H496.462a.593.593,0,0,0-.677.559,1.92,1.92,0,0,0-.021.35q0,3.444,0,6.889v.264h11.391c.365,0,.528.106.533.344s-.163.359-.542.359H495.764v.179q0,5.577,0,11.154a.394.394,0,0,0,.226.4,1.347,1.347,0,0,0,.512.119q5.975.009,11.951.005h.239C508.688,320.874,508.688,320.5,508.688,320.1ZM498.107,315.7v3.241c0,.381.067.448.447.448h5.206c0-.327-.019-.617.01-.9a.337.337,0,0,1,.567-.23.508.508,0,0,1,.116.335c.016.26.005.522.005.786h4.227V315.7h-4.227c0,.1,0,.194,0,.285a7.256,7.256,0,0,1-.018.889.445.445,0,0,1-.256.3.46.46,0,0,1-.357-.13c-.064-.057-.068-.2-.071-.306-.008-.342,0-.684,0-1.04Zm11.3,3.3c0,.318.023.677-.008,1.032a.391.391,0,0,0,.315.467,14.69,14.69,0,0,0,1.706.384,20.963,20.963,0,0,0,4.232.074.367.367,0,0,1,.438.319c.019.208-.123.358-.382.378a21.608,21.608,0,0,1-4.535-.092c-.591-.079-1.172-.23-1.762-.349.007-.022,0-.007,0,.008,0,.367.009.734-.008,1.1a.3.3,0,0,0,.212.344,7.382,7.382,0,0,0,1.094.327,20.177,20.177,0,0,0,6.112.042,8.167,8.167,0,0,0,1.3-.359c.094-.03.222-.146.226-.228.023-.424.011-.849.011-1.274-.32.087-.609.179-.9.242a.338.338,0,0,1-.435-.33.369.369,0,0,1,.312-.357,8.506,8.506,0,0,0,.836-.291.339.339,0,0,0,.184-.233c.019-.412.009-.826.009-1.2A19.348,19.348,0,0,1,509.4,319Zm-5.669-4.024v-3.692H498.59c-.389,0-.483.091-.483.481q0,1.522,0,3.044v.168Zm.744-3.692v3.689H508.7c0-.411.011-.807,0-1.2a.823.823,0,0,1,.432-.8c.263-.148.556-.239.829-.369a.275.275,0,0,0,.141-.184c.017-.225.007-.452.007-.679,0-.366-.087-.453-.455-.453h-5.173Zm13.877,3.235a18.255,18.255,0,0,1-8.934.006.232.232,0,0,0-.016.054c0,.367.009.734-.008,1.1a.3.3,0,0,0,.214.343,7.136,7.136,0,0,0,1.069.322,20.088,20.088,0,0,0,6.245.03,6.743,6.743,0,0,0,1.206-.351.374.374,0,0,0,.212-.261C518.369,315.357,518.356,314.951,518.356,314.518Zm0,2.268a19.331,19.331,0,0,1-8.953,0c0,.352.009.734,0,1.116a.3.3,0,0,0,.2.329,4.9,4.9,0,0,0,.771.264,19.635,19.635,0,0,0,6.639.078,5.923,5.923,0,0,0,1.136-.342.373.373,0,0,0,.2-.268C518.369,317.558,518.356,317.152,518.356,316.786Zm.008-3.067c0-.031-.006-.062-.009-.093a1.959,1.959,0,0,0-.313-.183,5.512,5.512,0,0,0-.758-.232,18.789,18.789,0,0,0-4.5-.262,11.248,11.248,0,0,0-2.685.357,6.261,6.261,0,0,0-.7.289l.006.081a2.183,2.183,0,0,0,.335.191,5.2,5.2,0,0,0,.736.224,17.488,17.488,0,0,0,4.477.255c.846-.048,1.69-.176,2.528-.307A4.77,4.77,0,0,0,518.364,313.72Z" transform="translate(0)" fill="#b2b2b2"/>
      <path id="Path_11099" data-name="Path 11099" d="M539.26,335.637h-5.577a1.021,1.021,0,0,1-1.134-1.127q0-1.746,0-3.491a1.011,1.011,0,0,1,1.089-1.1q.937,0,1.874,0c.273,0,.431.134.429.354s-.159.347-.435.348c-.617,0-1.234,0-1.851,0-.3,0-.4.1-.4.41q0,1.746,0,3.491c0,.306.1.41.4.41H544.9c.289,0,.394-.106.394-.4q0-1.746,0-3.491c0-.332-.1-.424-.437-.424h-7.428a1.455,1.455,0,0,1-.234-.005.349.349,0,0,1,.01-.694,1.341,1.341,0,0,1,.188,0h7.475A1.021,1.021,0,0,1,546,331.05q0,1.734,0,3.468a1.019,1.019,0,0,1-1.118,1.119Z" transform="translate(-35.145 -28.104)" fill="#b2b2b2"/>
      <path id="Path_11100" data-name="Path 11100" d="M691.532,353.133c0,.219,0,.438,0,.656a.819.819,0,0,1-.825.838c-.219.005-.437.006-.656,0a.811.811,0,0,1-.812-.8c-.009-.468-.011-.937,0-1.4a.807.807,0,0,1,.8-.79c.234-.008.469-.009.7,0a.813.813,0,0,1,.79.8C691.539,352.664,691.532,352.9,691.532,353.133Zm-.7-.014c0-.047,0-.094,0-.141-.018-.771.141-.629-.676-.649-.166,0-.221.064-.216.223.008.241,0,.484,0,.725.016.771-.142.63.676.649.166,0,.223-.065.216-.223C690.824,353.509,690.83,353.313,690.83,353.119Z" transform="translate(-182.036 -48.454)" fill="#b2b2b2"/>
      <path id="Path_11101" data-name="Path 11101" d="M568.692,575.93c.4,0,.8,0,1.194,0,.258,0,.414.131.421.339s-.156.362-.421.363q-1.194,0-2.388,0c-.266,0-.429-.145-.421-.363s.164-.338.421-.339C567.9,575.928,568.294,575.93,568.692,575.93Z" transform="translate(-67.515 -258.74)" fill="#b2b2b2"/>
      <path id="Path_11102" data-name="Path 11102" d="M669.643,565.632c-.1-.091-.251-.161-.273-.26a.51.51,0,0,1,.088-.4c.324-.359.677-.691,1.019-1.034.171-.171.339-.345.514-.513a.351.351,0,1,1,.505.483q-.772.785-1.557,1.556A1.513,1.513,0,0,1,669.643,565.632Z" transform="translate(-163.407 -246.892)" fill="#b2b2b2"/>
      <path id="Path_11103" data-name="Path 11103" d="M670.928,562.408a.35.35,0,1,1,.361-.352A.355.355,0,0,1,670.928,562.408Z" transform="translate(-164.559 -245.407)" fill="#b2b2b2"/>
      <path id="Path_11104" data-name="Path 11104" d="M693.776,590.569a.35.35,0,1,1-.327-.361A.354.354,0,0,1,693.776,590.569Z" transform="translate(-185.641 -272.126)" fill="#b2b2b2"/>
      <path id="Path_11105" data-name="Path 11105" d="M572.569,489.981c.227,0,.429,0,.63,0,.248,0,.406.151.4.361a.36.36,0,0,1-.4.34c-.195.005-.39.005-.586.008-.006,0-.013.008-.046.029,0,.182,0,.383,0,.583,0,.253-.142.411-.351.411s-.347-.158-.351-.411c0-.194,0-.389,0-.619-.209,0-.408,0-.607,0-.267,0-.429-.145-.422-.362s.163-.335.421-.34l.562-.007c.006,0,.012-.008.046-.029,0-.182,0-.382,0-.583,0-.253.141-.411.35-.411s.346.158.352.41c0,.1,0,.2,0,.3Z" transform="translate(-71.04 -177.197)" fill="#b2b2b2"/>
      <path id="Path_11106" data-name="Path 11106" d="M671.333,494.888c.189.179.341.313.482.459a.351.351,0,0,1,.029.52.358.358,0,0,1-.521-.021c-.075-.068-.147-.14-.216-.215s-.13-.156-.216-.261c-.172.171-.311.314-.455.452a.365.365,0,0,1-.539.054c-.159-.152-.142-.358.045-.554.13-.135.262-.267.393-.4a.45.45,0,0,0,.032-.072c-.14-.127-.3-.26-.449-.409a.349.349,0,0,1-.03-.519.357.357,0,0,1,.521.021q.112.1.216.215c.068.075.131.156.218.261.17-.169.309-.312.453-.45.188-.181.386-.2.538-.055s.147.361-.044.553C671.654,494.6,671.505,494.729,671.333,494.888Z" transform="translate(-163.806 -181.758)" fill="#b2b2b2"/>
    </g>
  </g>
</svg>
