<svg xmlns="http://www.w3.org/2000/svg" width="9" height="5.25" viewBox="0 0 9 5.25">
  <g id="_" data-name=" " transform="translate(486.009 -178.01)" style="isolation: isolate">
    <g id="Group_1509" data-name="Group 1509" transform="translate(-486.009 178.01)" style="isolation: isolate">
      <path id="Path_13004" data-name="Path 13004" d="M-481.509,183.26a.747.747,0,0,1-.53-.22l-3.75-3.75a.75.75,0,0,1,0-1.061.75.75,0,0,1,1.061,0l3.219,3.221,3.22-3.22a.75.75,0,0,1,1.061,0,.75.75,0,0,1,0,1.061l-3.75,3.75A.748.748,0,0,1-481.509,183.26Z" transform="translate(486.009 -178.01)" fill="#3c59a8"/>
    </g>
  </g>
</svg>
