<svg xmlns="http://www.w3.org/2000/svg" width="30.252" height="30" viewBox="0 0 30.252 30">
  <g id="Group_1632" data-name="Group 1632" transform="translate(21370 16052.641)">
    <g id="Group_1631" data-name="Group 1631">
      <g id="_2" data-name=" 2" transform="translate(-21568.168 -16463.418)" style="isolation: isolate">
        <g id="Group_1510" data-name="Group 1510" style="isolation: isolate">
          <path id="Path_13005" data-name="Path 13005" d="M217.168,412.652v1.125a9.381,9.381,0,0,1,7.5,9.188v1.1a11.268,11.268,0,0,0,2.842,7.477l.434.486a1.876,1.876,0,0,1-1.4,3.123h-22.5a1.876,1.876,0,0,1-1.4-3.123l.435-.486a11.257,11.257,0,0,0,2.841-7.477v-1.1a9.329,9.329,0,0,1,7.5-9.188v-1.125a1.875,1.875,0,0,1,3.75,0Zm-1.875,28.125a3.75,3.75,0,0,1-2.654-1.1,3.846,3.846,0,0,1-1.1-2.655h7.5a3.739,3.739,0,0,1-3.75,3.75Z" fill="#bdbdbd"/>
        </g>
      </g>
      <circle id="Ellipse_2" data-name="Ellipse 2" cx="8.5" cy="8.5" r="8.5" transform="translate(-21370 -16050.64)" fill="#3c59a8"/>
    </g>
  </g>
</svg>
