<svg xmlns="http://www.w3.org/2000/svg" width="24" height="23.999" viewBox="0 0 24 23.999">
  <g id="Group_1634" data-name="Group 1634" transform="translate(21330 15904.999)">
    <g id="reservation" transform="translate(-21985.439 -16231.069)">
      <path id="Path_11081" data-name="Path 11081" d="M679.44,330.1v15a1.54,1.54,0,0,1-1.791,1.219H669.9l.736,2.813c.346,0,.674-.006,1,0a.452.452,0,0,1,.451.619,1.393,1.393,0,0,1-.29.317h-8.719c-.278-.189-.373-.369-.312-.588.069-.245.25-.349.613-.349h.864c.244-.944.483-1.868.728-2.812h-.318q-3.853,0-7.706,0a1.456,1.456,0,0,1-1.466-1.111,1,1,0,0,0-.044-.107v-15a.379.379,0,0,0,.033-.062,1.466,1.466,0,0,1,1.569-1.157h.742c0-.489-.007-.955,0-1.421a1.331,1.331,0,0,1,.62-1.144,3.693,3.693,0,0,1,.549-.247h16.969a1.479,1.479,0,0,1,1.172,1.719v1.094c.316,0,.611-.008.905,0a1.417,1.417,0,0,1,1.246.743A3.605,3.605,0,0,1,679.44,330.1Zm-3.281-2.156c0-.08,0-.126,0-.172.007-.658-.1-.765-.752-.765H659.4a2.352,2.352,0,0,0-.258,0,.457.457,0,0,0-.416.411c-.015.168,0,.338,0,.523h6.417a2.1,2.1,0,0,1,.234,0,.466.466,0,0,1,.012.926,1.7,1.7,0,0,1-.234.006h-6.42v14.608h4.673v-6.951c0-.477.15-.625.634-.625h10.545c.484,0,.633.148.633.626v6.951h.926V328.882h-6.4c-.07,0-.141,0-.211,0a.467.467,0,0,1-.008-.932c.07-.006.141,0,.211,0h6.421Zm-19.767,16.509c-.07.634.046.938.831.937q10.265-.02,20.529-.008c.086,0,.172,0,.257,0a.512.512,0,0,0,.485-.459,4.626,4.626,0,0,0,0-.466Zm1.377-.956V329.819h-.691c-.529,0-.7.171-.7.7V343.5Zm20.734,0V330.514c0-.07,0-.141,0-.211a.479.479,0,0,0-.4-.461c-.329-.029-.662-.008-.987-.008v13.66Zm-13.285,5.626h4.446l-.731-2.794h-2.99Zm-.861-5.631h4.479v-1h-4.479Zm9.916-1H669.8v1h4.47Zm-5.437-5.624h-4.479v.908h4.479Zm5.438,0H669.8v.909h4.47Zm-9.916,2.78h4.47v-.909h-4.47Zm9.916-.9h-4.479v.908h4.479Zm-5.438,1.874h-4.47v.909h4.47Zm5.429.914v-.917H669.8v.917Z" transform="translate(0 0)" fill="#b2b2b2"/>
      <path id="Path_11082" data-name="Path 11082" d="M728.565,387.88c0-.435,0-.862,0-1.29,0-.4.171-.569.571-.571q.844,0,1.687,0c.382,0,.553.175.554.563,0,.428,0,.856,0,1.312h1.274c.445,0,.6.159.6.611,0,.547,0,1.093,0,1.64,0,.386-.172.56-.556.561q-.855,0-1.71,0a.481.481,0,0,1-.545-.549c0-.429,0-.859,0-1.307H729.5v1.2c0,.515-.139.654-.653.654-.539,0-1.077,0-1.616,0a.481.481,0,0,1-.543-.551c0-.429,0-.858,0-1.306h-.937v1.229c0,.481-.148.628-.631.628q-.808,0-1.616,0c-.388,0-.563-.172-.564-.553q0-.855,0-1.71a.481.481,0,0,1,.545-.549c.435,0,.871,0,1.329,0,0-.449,0-.876,0-1.3,0-.4.17-.571.569-.572q.844,0,1.687,0c.384,0,.554.174.556.561,0,.428,0,.856,0,1.3Zm-2.793-.917v.917h.9v-.917Zm4.659.014h-.916v.9h.916Zm1.872,2.784v-.914h-.909v.914Zm-3.752,0v-.91h-.906v.91Zm-4.663-.005h.908v-.909h-.908Z" transform="translate(-63.281 -56.201)" fill="#b2b2b2"/>
      <path id="Path_11083" data-name="Path 11083" d="M905.115,386.985c-.538,0-1.076,0-1.614,0a.473.473,0,1,1,0-.936q1.614,0,3.227,0a.473.473,0,1,1,0,.936C906.191,386.987,905.653,386.985,905.115,386.985Z" transform="translate(-232.048 -56.229)" fill="#b2b2b2"/>
      <path id="Path_11084" data-name="Path 11084" d="M905.122,416.048c.538,0,1.076,0,1.614,0a.473.473,0,1,1,0,.936q-1.614,0-3.227,0a.473.473,0,1,1,0-.936C904.046,416.046,904.583,416.048,905.122,416.048Z" transform="translate(-232.057 -84.353)" fill="#b2b2b2"/>
      <path id="Path_11085" data-name="Path 11085" d="M905.113,446.976c-.538,0-1.076,0-1.614,0a.473.473,0,1,1,0-.936q1.613,0,3.227,0a.473.473,0,1,1,0,.936C906.188,446.978,905.651,446.976,905.113,446.976Z" transform="translate(-232.048 -112.469)" fill="#b2b2b2"/>
      <path id="Path_11086" data-name="Path 11086" d="M724.386,513.538c.288,0,.576,0,.864,0a.47.47,0,1,1,0,.935q-.888.006-1.776,0a.47.47,0,1,1,0-.935C723.779,513.534,724.083,513.538,724.386,513.538Z" transform="translate(-63.298 -175.749)" fill="#b2b2b2"/>
      <path id="Path_11087" data-name="Path 11087" d="M724.367,544.458c-.3,0-.592,0-.888,0a.469.469,0,1,1-.01-.934q.9-.007,1.8,0a.47.47,0,1,1-.013.935C724.959,544.461,724.663,544.458,724.367,544.458Z" transform="translate(-63.309 -203.858)" fill="#b2b2b2"/>
      <path id="Path_11088" data-name="Path 11088" d="M724.376,574.468c-.3,0-.592,0-.887,0a.469.469,0,1,1-.008-.934q.9-.007,1.8,0a.469.469,0,1,1,.007.934C724.983,574.472,724.679,574.468,724.376,574.468Z" transform="translate(-63.318 -231.992)" fill="#b2b2b2"/>
      <path id="Path_11089" data-name="Path 11089" d="M724.373,484.464c-.3,0-.592,0-.888,0a.47.47,0,1,1,0-.936q.888-.006,1.776,0a.47.47,0,1,1,0,.935C724.965,484.467,724.669,484.464,724.373,484.464Z" transform="translate(-63.307 -147.614)" fill="#b2b2b2"/>
      <path id="Path_11090" data-name="Path 11090" d="M840.436,356.08a.467.467,0,1,1-.469.453A.472.472,0,0,1,840.436,356.08Z" transform="translate(-172.994 -28.134)" fill="#b2b2b2"/>
    </g>
  </g>
</svg>
