<svg xmlns="http://www.w3.org/2000/svg" width="12.258" height="12.255" viewBox="0 0 12.258 12.255">
  <path id="Path_13011" data-name="Path 13011" d="M243.353,482.953a3.393,3.393,0,0,1-3.558,3.557c-1.011.058-4.044.058-5.055,0a3.393,3.393,0,0,1-3.558-3.557c-.057-1.012-.057-4.044,0-5.056a3.391,3.391,0,0,1,3.558-3.555c1.011-.057,4.044-.057,5.055,0a3.4,3.4,0,0,1,3.558,3.558C243.41,478.912,243.41,481.941,243.353,482.953Zm-1.061-2.527a13.5,13.5,0,0,0-.246-3.612,2.068,2.068,0,0,0-1.165-1.164,26.64,26.64,0,0,0-7.224,0,2.068,2.068,0,0,0-1.165,1.164,26.648,26.648,0,0,0,0,7.225,2.069,2.069,0,0,0,1.165,1.165,26.64,26.64,0,0,0,7.224,0,2.069,2.069,0,0,0,1.165-1.165A13.5,13.5,0,0,0,242.292,480.426Zm-1.881,0a3.142,3.142,0,1,1-3.142-3.141A3.137,3.137,0,0,1,240.411,480.426Zm-1.1,0a2.043,2.043,0,1,0-2.043,2.043A2.044,2.044,0,0,0,239.312,480.426Zm1.227-4a.733.733,0,1,0,.733.733A.733.733,0,0,0,240.539,476.423Z" transform="translate(-231.139 -474.299)" fill="#c5c5c5"/>
</svg>
