<svg xmlns="http://www.w3.org/2000/svg" xmlns:xlink="http://www.w3.org/1999/xlink" width="149" height="33" viewBox="0 0 149 33">
  <defs>
    <clipPath id="clip-path">
      <rect id="Rectangle_28" data-name="Rectangle 28" width="116" height="18" transform="translate(0 0)" fill="none"/>
    </clipPath>
  </defs>
  <g id="Group_1630" data-name="Group 1630" transform="translate(21002 16469)">
    <g id="Group_1628" data-name="Group 1628" transform="translate(-48 9)">
      <g id="Vector_Smart_Object" data-name="Vector Smart Object" transform="translate(-20954 -16478)">
        <path id="Path_4752" data-name="Path 4752" d="M1.393,0,3.83,4.292,4.874,6.132H0L2.089,9.811l9.617,16.935,2.438-4.292-3.293-5.8L7.3,10.4H20.99l2.424-4.268H7.1L6.059,4.292H26.688L15.259,24.416l-2.438,4.291L15.259,33,34,0Z" fill="#194799"/>
      </g>
      <g id="Vector_Smart_Object-2" data-name="Vector Smart Object" transform="translate(-20921 -16470)">
        <g id="Group_65" data-name="Group 65">
          <g id="Group_64" data-name="Group 64" clip-path="url(#clip-path)">
            <text id="M" transform="translate(0 13.268)" fill="#535355" font-size="15" font-family="SegoeUI, Segoe UI"><tspan x="0" y="0">M</tspan></text>
            <text id="U" transform="translate(12.935 13.268)" fill="#535355" font-size="15" font-family="SegoeUI, Segoe UI"><tspan x="0" y="0">U</tspan></text>
            <text id="F" transform="translate(22.678 13.268)" fill="#535355" font-size="15" font-family="SegoeUI, Segoe UI"><tspan x="0" y="0">F</tspan></text>
            <text id="T" transform="translate(30.473 13.268)" fill="#535355" font-size="15" font-family="SegoeUI, Segoe UI"><tspan x="0" y="0">T</tspan></text>
            <text id="A" transform="translate(37.712 13.268)" fill="#535355" font-size="15" font-family="SegoeUI, Segoe UI"><tspan x="0" y="0">A</tspan></text>
            <text id="R_" data-name="R " transform="translate(47.74 13.268)" fill="#535355" font-size="15" font-family="SegoeUI, Segoe UI"><tspan x="0" y="0" letter-spacing="-0.019em">R</tspan><tspan y="0"> </tspan></text>
            <text id="D" transform="translate(61.125 13.268)" fill="#535355" font-size="15" font-family="SegoeUI, Segoe UI"><tspan x="0" y="0">D</tspan></text>
            <text id="I" transform="translate(71.692 13.268)" fill="#535355" font-size="15" font-family="SegoeUI, Segoe UI"><tspan x="0" y="0">I</tspan></text>
            <text id="GI" transform="translate(75.934 13.268)" fill="#535355" font-size="15" font-family="SegoeUI, Segoe UI"><tspan x="0" y="0" letter-spacing="-0.019em">G</tspan><tspan y="0">I</tspan></text>
            <text id="T-2" data-name="T" transform="translate(90.953 13.268)" fill="#535355" font-size="15" font-family="SegoeUI, Segoe UI"><tspan x="0" y="0">T</tspan></text>
            <text id="AL" transform="translate(98.193 13.268)" fill="#535355" font-size="15" font-family="SegoeUI, Segoe UI"><tspan x="0" y="0" letter-spacing="-0.019em">A</tspan><tspan y="0">L</tspan></text>
          </g>
        </g>
      </g>
    </g>
  </g>
</svg>
