<svg xmlns="http://www.w3.org/2000/svg" width="120.866" height="120.925" viewBox="308.684 1363.538 120.866 120.925"><g data-name="accounting"><path d="M124.154 288c-11.13 0-20.154 9.023-20.154 20.154s9.023 20.154 20.154 20.154 20.154-9.023 20.154-20.154c-.011-11.126-9.028-20.142-20.154-20.154Zm0 36.278c-8.905 0-16.123-7.219-16.123-16.124 0-8.905 7.218-16.123 16.123-16.123 8.905 0 16.124 7.218 16.124 16.123-.01 8.9-7.224 16.114-16.124 16.124Zm0 0" fill-rule="evenodd" fill="url(&quot;#a&quot;)" transform="translate(230.884 1148.093)" data-name="Path 46"/><path d="M160.062 326.046c2.46 0 4.03 1.193 4.03 2.016h4.031c0-2.864-2.537-5.184-6.046-5.845V320h-4.03v2.217c-3.51.657-6.047 2.977-6.047 5.845 0 3.392 3.54 6.046 8.062 6.046 2.46 0 4.03 1.193 4.03 2.015 0 .823-1.57 2.016-4.03 2.016-2.462 0-4.031-1.193-4.031-2.016H152c0 2.864 2.537 5.184 6.046 5.845v2.217h4.031v-2.217c3.51-.656 6.046-2.977 6.046-5.845 0-3.392-3.54-6.046-8.061-6.046-2.462 0-4.031-1.193-4.031-2.015 0-.823 1.57-2.016 4.03-2.016Zm0 0" fill-rule="evenodd" fill="url(&quot;#b&quot;)" transform="translate(194.977 1124.155)" data-name="Path 47"/><path d="M102.786 116.894H18.138v-48.37h32.247a6.047 6.047 0 0 0 6.046-6.047V12.092h22.17v24.185h24.185v28.216h4.031V33.427L81.451 8.06h-25.02V6.045A6.047 6.047 0 0 0 50.385 0H6.045A6.047 6.047 0 0 0 0 6.045v56.432a6.047 6.047 0 0 0 6.046 6.046h8.061v52.401h92.71V92.708h-4.03v24.186ZM82.632 14.942l17.304 17.304H82.632V14.942ZM4.03 62.477V6.046c0-1.113.903-2.016 2.016-2.016h44.34c1.112 0 2.015.903 2.015 2.016v56.431a2.016 2.016 0 0 1-2.016 2.016H6.045a2.016 2.016 0 0 1-2.015-2.016Zm0 0" fill-rule="evenodd" fill="url(&quot;#c&quot;)" transform="translate(308.684 1363.539)" data-name="Path 48"/><path d="M256 200h4.03v4.03H256V200Zm0 0" fill-rule="evenodd" fill="url(&quot;#d&quot;)" transform="translate(117.177 1213.923)" data-name="Path 49"/><path d="M288 200h24.185v4.03H288V200Zm0 0" fill-rule="evenodd" fill="url(&quot;#e&quot;)" transform="translate(93.24 1213.923)" data-name="Path 50"/><path d="M256 168h4.03v4.03H256V168Zm0 0" fill-rule="evenodd" fill="url(&quot;#f&quot;)" transform="translate(117.177 1237.862)" data-name="Path 51"/><path d="M288 168h24.185v4.03H288V168Zm0 0" fill-rule="evenodd" fill="url(&quot;#g&quot;)" transform="translate(93.24 1237.862)" data-name="Path 52"/><path d="M256 232h4.03v4.03H256V232Zm0 0" fill-rule="evenodd" fill="url(&quot;#h&quot;)" transform="translate(117.177 1189.985)" data-name="Path 53"/><path d="M288 232h24.185v4.03H288V232Zm0 0" fill-rule="evenodd" fill="url(&quot;#i&quot;)" transform="translate(93.24 1189.985)" data-name="Path 54"/><path d="M256 264h4.03v4.03H256V264Zm0 0" fill-rule="evenodd" fill="url(&quot;#j&quot;)" transform="translate(117.177 1166.047)" data-name="Path 55"/><path d="M288 264h24.185v4.03H288V264Zm0 0" fill-rule="evenodd" fill="url(&quot;#k&quot;)" transform="translate(93.24 1166.047)" data-name="Path 56"/><path d="M68.34 24H24v14.108h44.34V24Zm-4.032 10.077H28.031v-6.046h36.277v6.046Zm0 0" fill-rule="evenodd" fill="url(&quot;#l&quot;)" transform="translate(290.73 1345.584)" data-name="Path 57"/><path d="M40.062 88H36.03A4.031 4.031 0 0 0 32 92.03v4.032a4.031 4.031 0 0 0 4.03 4.03h4.032a4.031 4.031 0 0 0 4.03-4.03V92.03A4.031 4.031 0 0 0 40.063 88Zm-4.031 8.062V92.03h4.03v4.03h-4.03Zm0 0" fill-rule="evenodd" fill="url(&quot;#m&quot;)" transform="translate(284.746 1297.707)" data-name="Path 58"/><path d="M96.062 88H92.03A4.031 4.031 0 0 0 88 92.03v4.032a4.031 4.031 0 0 0 4.03 4.03h4.032a4.031 4.031 0 0 0 4.03-4.03V92.03A4.031 4.031 0 0 0 96.063 88Zm-4.031 8.062V92.03h4.03v4.03h-4.03Zm0 0" fill-rule="evenodd" fill="url(&quot;#n&quot;)" transform="translate(242.854 1297.707)" data-name="Path 59"/><path d="M152.062 88h-4.031A4.031 4.031 0 0 0 144 92.03v4.032a4.031 4.031 0 0 0 4.03 4.03h4.032a4.031 4.031 0 0 0 4.03-4.03V92.03a4.031 4.031 0 0 0-4.03-4.031Zm-4.031 8.062V92.03h4.03v4.03h-4.03Zm0 0" fill-rule="evenodd" fill="url(&quot;#o&quot;)" transform="translate(200.962 1297.707)" data-name="Path 60"/><path d="M40.062 144H36.03A4.031 4.031 0 0 0 32 148.03v4.032a4.031 4.031 0 0 0 4.03 4.03h4.032a4.031 4.031 0 0 0 4.03-4.03v-4.031a4.031 4.031 0 0 0-4.03-4.031Zm-4.031 8.062v-4.031h4.03v4.03h-4.03Zm0 0" fill-rule="evenodd" fill="url(&quot;#p&quot;)" transform="translate(284.746 1255.815)" data-name="Path 61"/><path d="M96.062 144H92.03A4.031 4.031 0 0 0 88 148.03v4.032a4.031 4.031 0 0 0 4.03 4.03h4.032a4.031 4.031 0 0 0 4.03-4.03v-4.031a4.031 4.031 0 0 0-4.03-4.031Zm-4.031 8.062v-4.031h4.03v4.03h-4.03Zm0 0" fill-rule="evenodd" fill="url(&quot;#q&quot;)" transform="translate(242.854 1255.815)" data-name="Path 62"/><path d="M152.062 144h-4.031a4.031 4.031 0 0 0-4.031 4.03v4.032a4.031 4.031 0 0 0 4.03 4.03h4.032a4.031 4.031 0 0 0 4.03-4.03v-4.031a4.031 4.031 0 0 0-4.03-4.031Zm-4.031 8.062v-4.031h4.03v4.03h-4.03Zm0 0" fill-rule="evenodd" fill="url(&quot;#r&quot;)" transform="translate(200.962 1255.815)" data-name="Path 63"/><path d="M40.062 200H36.03A4.031 4.031 0 0 0 32 204.03v4.032a4.031 4.031 0 0 0 4.03 4.03h4.032a4.031 4.031 0 0 0 4.03-4.03v-4.031a4.031 4.031 0 0 0-4.03-4.031Zm-4.031 8.062v-4.031h4.03v4.03h-4.03Zm0 0" fill-rule="evenodd" fill="url(&quot;#s&quot;)" transform="translate(284.746 1213.923)" data-name="Path 64"/><path d="M96.062 200H92.03A4.031 4.031 0 0 0 88 204.03v4.032a4.031 4.031 0 0 0 4.03 4.03h4.032a4.031 4.031 0 0 0 4.03-4.03v-4.031a4.031 4.031 0 0 0-4.03-4.031Zm-4.031 8.062v-4.031h4.03v4.03h-4.03Zm0 0" fill-rule="evenodd" fill="url(&quot;#t&quot;)" transform="translate(242.854 1213.923)" data-name="Path 65"/><path d="M152.062 200h-4.031a4.031 4.031 0 0 0-4.031 4.03v4.032a4.031 4.031 0 0 0 4.03 4.03h4.032a4.031 4.031 0 0 0 4.03-4.03v-4.031a4.031 4.031 0 0 0-4.03-4.031Zm-4.031 8.062v-4.031h4.03v4.03h-4.03Zm0 0" fill-rule="evenodd" fill="url(&quot;#u&quot;)" transform="translate(200.962 1213.923)" data-name="Path 66"/><path d="M328.565 250.18a6.19 6.19 0 0 0-8.55 0l-34.55 34.549a2.04 2.04 0 0 0-.403.582l-4.866 10.566a2.015 2.015 0 0 0 2.673 2.672l10.565-4.865c.217-.1.414-.235.583-.403l34.548-34.551a6.045 6.045 0 0 0 0-8.55Zm-37.146 39.993-5.28 2.432 2.432-5.28 25.76-25.763 2.85 2.85-25.762 25.76Zm28.619-28.62-2.85-2.849 1.411-1.41 2.85 2.85-1.411 1.41Zm5.684-5.683-1.425 1.425-2.85-2.85 1.427-1.425a2.06 2.06 0 0 1 2.848 0 2.017 2.017 0 0 1 0 2.85Zm0 0" fill-rule="evenodd" fill="url(&quot;#v&quot;)" transform="translate(99.214 1177.667)" data-name="Path 67"/></g><defs><linearGradient x1=".5" y1="0" x2=".5" y2="1" id="a"><stop stop-color="#385ab0" offset="0"/><stop stop-color="#2c64ed" offset="1"/></linearGradient><linearGradient x1=".5" y1="0" x2=".5" y2="1" id="b"><stop stop-color="#385ab0" offset="0"/><stop stop-color="#2c64ed" offset="1"/></linearGradient><linearGradient x1=".5" y1="0" x2=".5" y2="1" id="c"><stop stop-color="#385ab0" offset="0"/><stop stop-color="#2c64ed" offset="1"/></linearGradient><linearGradient x1=".5" y1="0" x2=".5" y2="1" id="d"><stop stop-color="#385ab0" offset="0"/><stop stop-color="#2c64ed" offset="1"/></linearGradient><linearGradient x1=".5" y1="0" x2=".5" y2="1" id="e"><stop stop-color="#385ab0" offset="0"/><stop stop-color="#2c64ed" offset="1"/></linearGradient><linearGradient x1=".5" y1="0" x2=".5" y2="1" id="f"><stop stop-color="#385ab0" offset="0"/><stop stop-color="#2c64ed" offset="1"/></linearGradient><linearGradient x1=".5" y1="0" x2=".5" y2="1" id="g"><stop stop-color="#385ab0" offset="0"/><stop stop-color="#2c64ed" offset="1"/></linearGradient><linearGradient x1=".5" y1="0" x2=".5" y2="1" id="h"><stop stop-color="#385ab0" offset="0"/><stop stop-color="#2c64ed" offset="1"/></linearGradient><linearGradient x1=".5" y1="0" x2=".5" y2="1" id="i"><stop stop-color="#385ab0" offset="0"/><stop stop-color="#2c64ed" offset="1"/></linearGradient><linearGradient x1=".5" y1="0" x2=".5" y2="1" id="j"><stop stop-color="#385ab0" offset="0"/><stop stop-color="#2c64ed" offset="1"/></linearGradient><linearGradient x1=".5" y1="0" x2=".5" y2="1" id="k"><stop stop-color="#385ab0" offset="0"/><stop stop-color="#2c64ed" offset="1"/></linearGradient><linearGradient x1=".5" y1="0" x2=".5" y2="1" id="l"><stop stop-color="#385ab0" offset="0"/><stop stop-color="#2c64ed" offset="1"/></linearGradient><linearGradient x1=".5" y1="0" x2=".5" y2="1" id="m"><stop stop-color="#385ab0" offset="0"/><stop stop-color="#2c64ed" offset="1"/></linearGradient><linearGradient x1=".5" y1="0" x2=".5" y2="1" id="n"><stop stop-color="#385ab0" offset="0"/><stop stop-color="#2c64ed" offset="1"/></linearGradient><linearGradient x1=".5" y1="0" x2=".5" y2="1" id="o"><stop stop-color="#385ab0" offset="0"/><stop stop-color="#2c64ed" offset="1"/></linearGradient><linearGradient x1=".5" y1="0" x2=".5" y2="1" id="p"><stop stop-color="#385ab0" offset="0"/><stop stop-color="#2c64ed" offset="1"/></linearGradient><linearGradient x1=".5" y1="0" x2=".5" y2="1" id="q"><stop stop-color="#385ab0" offset="0"/><stop stop-color="#2c64ed" offset="1"/></linearGradient><linearGradient x1=".5" y1="0" x2=".5" y2="1" id="r"><stop stop-color="#385ab0" offset="0"/><stop stop-color="#2c64ed" offset="1"/></linearGradient><linearGradient x1=".5" y1="0" x2=".5" y2="1" id="s"><stop stop-color="#385ab0" offset="0"/><stop stop-color="#2c64ed" offset="1"/></linearGradient><linearGradient x1=".5" y1="0" x2=".5" y2="1" id="t"><stop stop-color="#385ab0" offset="0"/><stop stop-color="#2c64ed" offset="1"/></linearGradient><linearGradient x1=".5" y1="0" x2=".5" y2="1" id="u"><stop stop-color="#385ab0" offset="0"/><stop stop-color="#2c64ed" offset="1"/></linearGradient><linearGradient x1=".5" y1="0" x2=".5" y2="1" id="v"><stop stop-color="#385ab0" offset="0"/><stop stop-color="#2c64ed" offset="1"/></linearGradient></defs></svg>