<svg xmlns="http://www.w3.org/2000/svg" width="128.001" height="126.14" viewBox="399 1366.468 128.001 126.14"><g data-name="fingerprint"><path d="M11.46 49.405a1.444 1.444 0 1 0-1.735 2.31c.512.383 1.028.76 1.554 1.126a1.448 1.448 0 0 0 2.013-.358 1.448 1.448 0 0 0-.359-2.013 52.922 52.922 0 0 1-1.473-1.065Z" fill-rule="evenodd" fill="url(&quot;#a&quot;)" transform="translate(404.056 1407.61)" data-name="Path 23"/><path d="M47.377 60a1.445 1.445 0 0 0 1.225-1.635c-.116-.79-.84-1.354-1.636-1.225-10.811 1.545-21.989-.326-31.679-5.336a1.436 1.436 0 0 0-1.947.619 1.447 1.447 0 0 0 .618 1.947A55.474 55.474 0 0 0 47.377 60Z" fill-rule="evenodd" fill="url(&quot;#b&quot;)" transform="translate(407.789 1409.95)" data-name="Path 24"/><path d="M48.468 9.026a1.448 1.448 0 0 0-.204 2.034c5.017 6.14 8.64 13.427 10.476 21.068a1.445 1.445 0 0 0 2.81-.672c-1.938-8.065-5.757-15.75-11.048-22.224a1.448 1.448 0 0 0-2.034-.206Z" fill-rule="evenodd" fill="url(&quot;#c&quot;)" transform="translate(439.981 1370.183)" data-name="Path 25"/><path d="M44.884 5.687a1.45 1.45 0 0 0 .142 2.04c.613.53 1.214 1.078 1.803 1.637a1.445 1.445 0 0 0 1.99-2.098 57.25 57.25 0 0 0-1.895-1.724 1.455 1.455 0 0 0-2.04.145Z" fill-rule="evenodd" fill="url(&quot;#d&quot;)" transform="translate(436.825 1366.932)" data-name="Path 26"/><path d="M56.837 98.111a47.947 47.947 0 0 0 20.83-8.301l6.115 6.117-1.248 1.246a3.765 3.765 0 0 0 .002 5.31l21.873 21.872c5.386 5.386 14.104 5.388 19.491 0 5.385-5.385 5.387-14.103 0-19.49l-21.871-21.87c-1.418-1.418-3.893-1.418-5.313 0l-1.258 1.258-6.125-6.125c14.976-21.26 10.438-50.612-10.515-66.277-21.337-15.956-51.5-11.538-67.43 9.721C3.676 31.867.44 44.543 2.275 57.264c3.804 26.415 28.39 44.605 54.562 40.847Zm43.15-13.074 21.871 21.871c4.255 4.255 4.259 11.147 0 15.406-4.255 4.254-11.146 4.258-15.405 0l-.948-.948 5.921-5.994a1.445 1.445 0 1 0-2.055-2.032l-5.91 5.982-18.881-18.88a.871.871 0 0 1-.002-1.229l14.18-14.178a.875.875 0 0 1 1.229.002Zm-12.4-4.571 5.822 5.82-7.59 7.592-5.812-5.813c2.79-2.206 5.647-5.134 7.58-7.599ZM5.133 56.851c-1.726-11.955 1.32-23.87 8.567-33.545C28.534 3.506 56.858-.962 77.09 14.164c9.684 7.243 15.968 17.825 17.693 29.8v.002c1.97 13.598-2.296 27.391-12.082 37.704-7.029 7.375-16.174 12.12-26.275 13.583C31.716 98.791 8.693 81.568 5.134 56.851Z" fill-rule="evenodd" fill="url(&quot;#e&quot;)" transform="translate(397.226 1364.212)" data-name="Path 27"/><path d="M73.164 25.982C63.244 9.606 41.86 4.347 25.499 14.252 9.154 24.158 3.89 45.546 13.767 61.935 23.695 78.302 45.071 83.48 61.412 73.59c16.357-9.912 21.63-31.268 11.752-47.607ZM16.24 60.44c-9.056-15.026-4.23-34.636 10.756-43.718C41.91 7.69 61.543 12.38 70.693 27.477c9.052 14.975 4.218 34.553-10.777 43.638-14.997 9.086-34.594 4.294-43.676-10.674Z" fill-rule="evenodd" fill="url(&quot;#f&quot;)" transform="translate(403.719 1370.69)" data-name="Path 28"/><path d="M18.791 30.092a1.446 1.446 0 0 0 1.878-.805c3.814-9.542 11.457-13.87 19.93-11.306 5.336 1.618 9.005 5.416 10.33 10.695a1.446 1.446 0 0 0 2.803-.703c-3.897-15.51-27.369-20.704-35.746.243a1.44 1.44 0 0 0 .805 1.876Z" fill-rule="evenodd" fill="url(&quot;#g&quot;)" transform="translate(412.145 1375.424)" data-name="Path 29"/><path d="M36.506 49.29c-2.53.92-4.986 1.032-7.284.339-7.142-2.163-11.056-11.848-9.307-23.03a1.447 1.447 0 0 0-1.204-1.652 1.45 1.45 0 0 0-1.65 1.204c-1.973 12.622 2.786 23.66 11.323 26.244 3.005.911 6.079.717 9.113-.387a1.445 1.445 0 0 0-.99-2.718Z" fill-rule="evenodd" fill="url(&quot;#h&quot;)" transform="translate(410.973 1385.214)" data-name="Path 30"/><path d="M41.405 24.55a1.443 1.443 0 0 0-1.566 1.314c-.162 1.841-.545 3.777-1.142 5.75-1.566 5.163-4.376 9.927-7.917 13.415a1.445 1.445 0 1 0 2.028 2.06c3.88-3.82 6.952-9.02 8.655-14.638.655-2.165 1.076-4.295 1.254-6.335a1.442 1.442 0 0 0-1.312-1.566Z" fill-rule="evenodd" fill="url(&quot;#i&quot;)" transform="translate(423.691 1384.855)" data-name="Path 31"/><path d="M32.32 22.081c-1.93-.585-5.474-.824-7.589 4.124a1.444 1.444 0 1 0 2.656 1.135c1.252-2.93 2.843-2.874 4.097-2.495 2.56.775 2.477 3.1 1.703 5.663-1.478 4.88-4.89 8.616-5.935 8.31-.445-.135-1.23-1.801-1.117-5.205a1.445 1.445 0 0 0-1.398-1.49c-.755.005-1.466.6-1.491 1.398-.146 4.466 1.005 7.408 3.17 8.064 4.051 1.223 8.239-5.948 9.537-10.235 1.616-5.351-.33-8.27-3.633-9.269Z" fill-rule="evenodd" fill="url(&quot;#j&quot;)" transform="translate(417.101 1382.293)" data-name="Path 32"/><path d="M33.59 39.899A1.446 1.446 0 0 0 34.875 42c.526 0 1.034-.287 1.289-.788a28.992 28.992 0 0 0 1.9-4.71c2.98-9.84-1.157-16.73-8.844-18.28a1.444 1.444 0 1 0-.58 2.83c5.779 1.195 9.224 6.136 6.659 14.613a25.823 25.823 0 0 1-1.709 4.234Z" fill-rule="evenodd" fill="url(&quot;#k&quot;)" transform="translate(421.04 1378.971)" data-name="Path 33"/><path d="M30.987 21.146a1.441 1.441 0 0 0 .904-1.832 1.44 1.44 0 0 0-1.832-.903c-2.87.974-6.746 3.627-8.893 10.723-.994 3.282-1.397 6.78-1.162 10.112a1.443 1.443 0 1 0 2.882-.204c-.208-2.986.15-6.123 1.044-9.07 1.42-4.689 3.86-7.74 7.057-8.826Z" fill-rule="evenodd" fill="url(&quot;#l&quot;)" transform="translate(414.05 1379.102)" data-name="Path 34"/><path d="M35.212 34.125c-1.535 1.404-4.56 3.621-7.6 2.699-2.276-.688-3.553-2.863-4.221-4.565a1.45 1.45 0 0 0-1.876-.815 1.45 1.45 0 0 0-.815 1.876c1.298 3.292 3.4 5.46 6.073 6.27 3.745 1.132 7.497-.69 10.388-3.33a1.446 1.446 0 0 0-1.95-2.135Z" fill-rule="evenodd" fill="url(&quot;#m&quot;)" transform="translate(414.662 1391.153)" data-name="Path 35"/><path d="M60.552 46.306a1.445 1.445 0 0 0 0 2.043l12.71 12.71a1.445 1.445 0 1 0 2.044-2.043l-12.71-12.71a1.445 1.445 0 0 0-2.044 0Z" fill-rule="evenodd" fill="url(&quot;#n&quot;)" transform="translate(451.271 1404.617)" data-name="Path 36"/><path d="M58.037 43.79a1.445 1.445 0 0 0 0 2.044l1.042 1.042a1.445 1.445 0 1 0 2.043-2.043L60.08 43.79a1.445 1.445 0 0 0-2.043 0Z" fill-rule="evenodd" fill="url(&quot;#o&quot;)" transform="translate(448.942 1402.288)" data-name="Path 37"/><path d="m61.772 60.673.842-.852a1.445 1.445 0 1 0-2.06-2.028l-.841.852a1.445 1.445 0 1 0 2.059 2.028Z" fill-rule="evenodd" fill="url(&quot;#p&quot;)" transform="translate(450.502 1415.25)" data-name="Path 38"/></g><defs><linearGradient x1=".5" y1="0" x2=".5" y2="1" id="a"><stop stop-color="#3a59a7" offset="0"/><stop stop-color="#2966fb" offset="1"/></linearGradient><linearGradient x1=".5" y1="0" x2=".5" y2="1" id="b"><stop stop-color="#3a59a7" offset="0"/><stop stop-color="#2966fb" offset="1"/></linearGradient><linearGradient x1=".5" y1="0" x2=".5" y2="1" id="c"><stop stop-color="#3a59a7" offset="0"/><stop stop-color="#2966fb" offset="1"/></linearGradient><linearGradient x1=".5" y1="0" x2=".5" y2="1" id="d"><stop stop-color="#3a59a7" offset="0"/><stop stop-color="#2966fb" offset="1"/></linearGradient><linearGradient x1=".5" y1="0" x2=".5" y2="1" id="e"><stop stop-color="#3a59a7" offset="0"/><stop stop-color="#2966fb" offset="1"/></linearGradient><linearGradient x1=".5" y1="0" x2=".5" y2="1" id="f"><stop stop-color="#3a59a7" offset="0"/><stop stop-color="#2966fb" offset="1"/></linearGradient><linearGradient x1=".5" y1="0" x2=".5" y2="1" id="g"><stop stop-color="#3a59a7" offset="0"/><stop stop-color="#2966fb" offset="1"/></linearGradient><linearGradient x1=".5" y1="0" x2=".5" y2="1" id="h"><stop stop-color="#3a59a7" offset="0"/><stop stop-color="#2966fb" offset="1"/></linearGradient><linearGradient x1=".5" y1="0" x2=".5" y2="1" id="i"><stop stop-color="#3a59a7" offset="0"/><stop stop-color="#2966fb" offset="1"/></linearGradient><linearGradient x1=".5" y1="0" x2=".5" y2="1" id="j"><stop stop-color="#3a59a7" offset="0"/><stop stop-color="#2966fb" offset="1"/></linearGradient><linearGradient x1=".5" y1="0" x2=".5" y2="1" id="k"><stop stop-color="#3a59a7" offset="0"/><stop stop-color="#2966fb" offset="1"/></linearGradient><linearGradient x1=".5" y1="0" x2=".5" y2="1" id="l"><stop stop-color="#3a59a7" offset="0"/><stop stop-color="#2966fb" offset="1"/></linearGradient><linearGradient x1=".5" y1="0" x2=".5" y2="1" id="m"><stop stop-color="#3a59a7" offset="0"/><stop stop-color="#2966fb" offset="1"/></linearGradient><linearGradient x1=".5" y1="0" x2=".5" y2="1" id="n"><stop stop-color="#3a59a7" offset="0"/><stop stop-color="#2966fb" offset="1"/></linearGradient><linearGradient x1=".5" y1="0" x2=".5" y2="1" id="o"><stop stop-color="#3a59a7" offset="0"/><stop stop-color="#2966fb" offset="1"/></linearGradient><linearGradient x1=".5" y1="0" x2=".5" y2="1" id="p"><stop stop-color="#3a59a7" offset="0"/><stop stop-color="#2966fb" offset="1"/></linearGradient></defs></svg>