<svg xmlns="http://www.w3.org/2000/svg" width="1993.355" height="1332.078" viewBox="0 0 1993.355 1332.078">
  <g id="good-logo_1_-02" data-name="good-logo (1)-02" transform="translate(-24.46 -99.28)">
    <path id="Path_103" data-name="Path 103" d="M186.984,99.324l64.255,111.584,27.576,47.815H148.36L495.044,801.088l51.041-93.112L329.723,369.645H723.206l63.9-110.965H337.589l-27.576-47.815h569.9L530.662,855.091l67.348,102.039L1046.733,99.28H186.983Z" transform="translate(423.635 0)" fill="#fff"/>
    <g id="Group_273" data-name="Group 273" transform="translate(24.46 1113.922)">
      <path id="Path_105" data-name="Path 105" d="M468.378,335.7H455.43V328.89h33.365V335.7H475.846v35.4h-7.513V335.7Zm30.492-6.806h11.446l11.269,29.564,11.4-29.564h11.269v42.159H537.1V336h-.133l-12.816,35.044h-5.259L506.074,336h-.133v35.044h-7.159l.088-42.159Z" transform="translate(1449.1 -328.846)" fill="#fff"/>
      <path id="Path_104" data-name="Path 104" d="M24.5,328.924h83.92l82.638,216.8,83.478-216.8h83.036V638.4H305.121V381.38h-.884l-94,257.019H171.8L77.8,381.38h-.884V638.4H24.46V328.924ZM710.757,524.782a127.014,127.014,0,0,1-9.634,50.511,112.8,112.8,0,0,1-26.25,38.226,115.844,115.844,0,0,1-39.331,24.261,147.365,147.365,0,0,1-98.813,0,117.478,117.478,0,0,1-39.552-24.261,109.535,109.535,0,0,1-26.25-38.226,129.969,129.969,0,0,1-9.413-50.511V328.924h55.063v194.09a88.728,88.728,0,0,0,3.491,23.819,66.891,66.891,0,0,0,11.578,22.935,61.688,61.688,0,0,0,21.433,17.279,72.007,72.007,0,0,0,33.011,6.761,72.819,72.819,0,0,0,33.011-6.761,61.688,61.688,0,0,0,21.433-17.279,67.285,67.285,0,0,0,11.578-22.935,87.005,87.005,0,0,0,3.491-23.819V328.924h55.063V524.782ZM813.5,328.924h199.746v49.848H868.566v81.313h136.376v49.848H868.566V638.443H813.5V328.968Zm349.247,49.848h-94.835V328.924h244.778v49.848h-94.835V638.4h-55.063V378.772Zm282.385-49.848h47.639L1626.055,638.4h-62.929L1534.269,567.6h-134.21L1372.086,638.4h-61.647L1445.09,328.924Zm69.911,191.438-47.639-125.9-48.523,125.9Zm180.523-191.438h107.518a220.355,220.355,0,0,1,43.087,4.11,110.356,110.356,0,0,1,36.9,14.186,74.024,74.024,0,0,1,25.808,27.089,87.087,87.087,0,0,1,9.634,43.264,85.954,85.954,0,0,1-18.561,56.389,79.671,79.671,0,0,1-53.118,27.576l82.2,136.818h-66.42l-71.679-131.117h-40.259V638.354h-55.063V328.88ZM1793.5,460.041c7.866,0,15.732-.353,23.6-1.1a72.254,72.254,0,0,0,21.654-5.259,36.8,36.8,0,0,0,15.953-12.683,40.409,40.409,0,0,0,6.143-23.819,38.021,38.021,0,0,0-5.7-21.831,35.377,35.377,0,0,0-14.848-12.462,68.968,68.968,0,0,0-20.328-5.48,196.391,196.391,0,0,0-21.654-1.326h-47.683V460H1793.5Z" transform="translate(-24.46 -328.88)" fill="#fff"/>
    </g>
  </g>
</svg>
