<svg xmlns="http://www.w3.org/2000/svg" width="124.929" height="124.927" viewBox="320.535 1355 124.929 124.927"><g data-name="management"><path d="M106.976 25.875a2.015 2.015 0 0 0-1.66-.875H73.538v4.03h12.09v40.3H81.6V55.225a2.015 2.015 0 0 0-2.015-2.015H77.57V39.105a2.015 2.015 0 0 0-2.015-2.015h-16.12a2.015 2.015 0 0 0-2.015 2.015V53.21H47.345a2.015 2.015 0 0 0-2.015 2.015V69.33H5.03v-40.3h4.03V25H3.015A2.015 2.015 0 0 0 1 27.015v62.464c0 1.113.902 2.015 2.015 2.015h14.286a12.076 12.076 0 0 0 23.817 0H85.81a12.076 12.076 0 0 0 23.818 0h14.286a2.015 2.015 0 0 0 2.015-2.015V54.05c0-.407-.124-.805-.355-1.14l-18.598-27.035Zm-7.242 3.155h4.522l16.635 24.18H99.734V29.03ZM77.569 57.24v12.09H65.48V57.24h4.03v4.03h4.03v-4.03h4.03ZM61.45 41.12h4.03v4.03h4.03v-4.03h4.03v12.09H61.45V41.12ZM49.36 57.24h4.03v4.03h4.03v-4.03h4.03v12.09H49.36V57.24Zm-20.15 40.3a8.06 8.06 0 1 1 0-16.12 8.06 8.06 0 0 1 0 16.12Zm68.51 0a8.06 8.06 0 1 1 0-16.12 8.06 8.06 0 0 1 0 16.12Zm24.18-10.076h-12.271a12.076 12.076 0 0 0-23.818 0H41.118a12.076 12.076 0 0 0-23.817 0H5.03V73.36h82.614a2.015 2.015 0 0 0 2.015-2.015V29.03h6.045v26.195c0 1.113.902 2.015 2.015 2.015h24.18v30.224Z" fill-rule="evenodd" fill="url(&quot;#a&quot;)" transform="translate(319.535 1378.36)" data-name="Path 42"/><path d="m20.012 35.676.758-.419a15.97 15.97 0 0 0 3.129 1.749v.7a3.605 3.605 0 0 0 3.635 3.564h5.195a3.605 3.605 0 0 0 3.627-3.565v-.699a16.013 16.013 0 0 0 3.129-1.749l.755.415a3.69 3.69 0 0 0 4.913-1.285l2.6-4.302c.496-.816.635-1.8.384-2.72a3.534 3.534 0 0 0-1.73-2.197l-.664-.369a14.369 14.369 0 0 0 0-3.328l.661-.367a3.54 3.54 0 0 0 1.733-2.199 3.48 3.48 0 0 0-.387-2.724l-2.587-4.294a3.695 3.695 0 0 0-4.912-1.293l-.758.419a15.969 15.969 0 0 0-3.13-1.75v-.698A3.605 3.605 0 0 0 32.73 5h-5.195a3.605 3.605 0 0 0-3.627 3.565v.699a16.013 16.013 0 0 0-3.13 1.749l-.755-.415a3.687 3.687 0 0 0-4.912 1.285l-2.6 4.302a3.476 3.476 0 0 0-.385 2.72c.25.94.877 1.734 1.731 2.197l.663.369a14.369 14.369 0 0 0 0 3.328l-.66.367a3.54 3.54 0 0 0-1.734 2.198 3.48 3.48 0 0 0 .387 2.725l2.596 4.293a3.7 3.7 0 0 0 4.904 1.294Zm-1.568-12.541c0-.498.036-.995.11-1.487a3.534 3.534 0 0 0-1.814-3.555l-.506-.282 2.13-3.526.659.365c1.28.681 2.839.568 4.008-.292a11.669 11.669 0 0 1 2.585-1.437 3.6 3.6 0 0 0 2.319-3.32V9.03h4.405v.57a3.597 3.597 0 0 0 2.313 3.319c.92.37 1.79.854 2.59 1.44a3.76 3.76 0 0 0 4.009.289l.653-.363 2.13 3.526-.504.28a3.536 3.536 0 0 0-1.814 3.563c.07.49.103.985.101 1.48 0 .499-.036.996-.109 1.488a3.534 3.534 0 0 0 1.814 3.554l.506.282-2.13 3.527-.66-.365a3.772 3.772 0 0 0-4.007.292 11.668 11.668 0 0 1-2.585 1.437 3.6 3.6 0 0 0-2.32 3.32v.57H27.93v-.57a3.597 3.597 0 0 0-2.32-3.318c-.92-.37-1.79-.854-2.589-1.44a3.764 3.764 0 0 0-4.01-.289l-.652.363-2.13-3.527.504-.28a3.536 3.536 0 0 0 1.813-3.562 10.25 10.25 0 0 1-.1-1.481Z" fill-rule="evenodd" fill="url(&quot;#b&quot;)" transform="translate(330.703 1358.06)" data-name="Path 43"/><path d="M24.552 24.605a7.052 7.052 0 1 0 0-14.105 7.052 7.052 0 0 0 0 14.105Zm0-10.075a3.022 3.022 0 1 1 0 6.045 3.022 3.022 0 0 1 0-6.045Z" fill-rule="evenodd" fill="url(&quot;#c&quot;)" transform="translate(336.282 1363.642)" data-name="Path 44"/><path d="M20.333 67.341a2.015 2.015 0 0 0 2.196-.437L36.044 53.39h21.33a6.045 6.045 0 0 0 6.045-6.044v-40.3A6.045 6.045 0 0 0 57.374 1h-44.33A6.045 6.045 0 0 0 7 7.045v40.3a6.045 6.045 0 0 0 6.045 6.044h6.045v12.09c0 .815.49 1.55 1.243 1.862ZM13.045 49.36a2.015 2.015 0 0 1-2.015-2.014v-40.3c0-1.113.902-2.015 2.015-2.015h44.33c1.112 0 2.014.902 2.014 2.015v40.3a2.015 2.015 0 0 1-2.015 2.014H35.21c-.534 0-1.047.213-1.425.59L23.12 60.616v-9.24a2.015 2.015 0 0 0-2.015-2.016h-8.06Z" fill-rule="evenodd" fill="url(&quot;#d&quot;)" transform="translate(325.625 1354)" data-name="Path 45"/></g><defs><linearGradient x1=".5" y1="0" x2=".5" y2="1" id="a"><stop stop-color="#3a59a7" offset="0"/><stop stop-color="#2965f9" offset="1"/></linearGradient><linearGradient x1=".5" y1="0" x2=".5" y2="1" id="b"><stop stop-color="#3a59a7" offset="0"/><stop stop-color="#2965f9" offset="1"/></linearGradient><linearGradient x1=".5" y1="0" x2=".5" y2="1" id="c"><stop stop-color="#3a59a7" offset="0"/><stop stop-color="#2965f9" offset="1"/></linearGradient><linearGradient x1=".5" y1="0" x2=".5" y2="1" id="d"><stop stop-color="#3a59a7" offset="0"/><stop stop-color="#2965f9" offset="1"/></linearGradient></defs></svg>