<svg xmlns="http://www.w3.org/2000/svg" width="145.368" height="145.368" viewBox="0 0 145.368 145.368">
  <path id="transfer" d="M142.707,40.108l-24.6,24.6A9.086,9.086,0,0,1,105.26,51.856l9.088-9.088H19.094a9.086,9.086,0,1,1,0-18.171h95.255L105.26,15.51A9.086,9.086,0,1,1,118.11,2.661l24.6,24.6A9.086,9.086,0,0,1,142.707,40.108Zm-21.4,62.492H31.02l9.088-9.087A9.086,9.086,0,0,0,27.259,80.663l-24.6,24.6a9.086,9.086,0,0,0,0,12.849l24.6,24.6a9.086,9.086,0,1,0,12.849-12.849l-9.088-9.087h90.286a9.086,9.086,0,0,0,0-18.171Z" transform="translate(0 0)" fill="#9ca3af"/>
</svg>
