<svg xmlns="http://www.w3.org/2000/svg" xmlns:xlink="http://www.w3.org/1999/xlink" width="116.757" height="120.925" viewBox="0 0 116.757 120.925">
  <defs>
    <linearGradient id="linear-gradient" x1="0.5" x2="0.5" y2="1" gradientUnits="objectBoundingBox">
      <stop offset="0" stop-color="#3a59a7"/>
      <stop offset="1" stop-color="#2966fb"/>
    </linearGradient>
  </defs>
  <g id="diploma" transform="translate(-3 -3)">
    <path id="Path_14" data-name="Path 14" d="M111.416,103.076V13.425A10.437,10.437,0,0,0,100.992,3h-83.4A10.437,10.437,0,0,0,7.17,13.425V23.849H23.85v6.36A22.916,22.916,0,0,0,11.34,70.715V98.727l12.51-12.51V113.5a10.437,10.437,0,0,0,10.425,10.425h75.057A10.437,10.437,0,0,0,119.756,113.5V103.076ZM11.34,19.679V13.425a6.255,6.255,0,0,1,12.51,0v6.255ZM7.17,53.038A18.764,18.764,0,1,1,25.935,71.8,18.764,18.764,0,0,1,7.17,53.038Zm8.34,20.4a22.728,22.728,0,0,0,20.849,0V88.66L25.935,78.236,15.51,88.66ZM40.529,113.5a6.255,6.255,0,0,1-12.51,0V86.218l12.51,12.51V70.715A22.916,22.916,0,0,0,28.02,30.21V13.425A10.369,10.369,0,0,0,25.93,7.17h75.061a6.262,6.262,0,0,1,6.255,6.255v89.652H40.529Zm75.057,0a6.262,6.262,0,0,1-6.255,6.255H42.61A10.369,10.369,0,0,0,44.7,113.5v-6.255h70.887Z" transform="translate(0)" fill="url(#linear-gradient)"/>
    <path id="Path_15" data-name="Path 15" d="M20,9H49.189v4.17H20Z" transform="translate(18.444 6.51)" fill="url(#linear-gradient)"/>
    <path id="Path_16" data-name="Path 16" d="M29,18H43.594v4.17H29Z" transform="translate(28.208 16.274)" fill="url(#linear-gradient)"/>
    <path id="Path_17" data-name="Path 17" d="M29,24H58.189v4.17H29Z" transform="translate(28.208 22.783)" fill="url(#linear-gradient)"/>
    <path id="Path_18" data-name="Path 18" d="M29,30H58.189v4.17H29Z" transform="translate(28.208 29.293)" fill="url(#linear-gradient)"/>
    <path id="Path_19" data-name="Path 19" d="M29,36H58.189v4.17H29Z" transform="translate(28.208 35.802)" fill="url(#linear-gradient)"/>
    <path id="Path_20" data-name="Path 20" d="M35,45H64.189v4.17H35Z" transform="translate(34.718 45.567)" fill="url(#linear-gradient)"/>
    <path id="Path_21" data-name="Path 21" d="M50.34,8a8.34,8.34,0,1,0,8.34,8.34A8.34,8.34,0,0,0,50.34,8Zm0,12.51a4.17,4.17,0,1,1,4.17-4.17A4.17,4.17,0,0,1,50.34,20.51Z" transform="translate(42.312 5.425)" fill="url(#linear-gradient)"/>
    <path id="Path_22" data-name="Path 22" d="M20.51,46.019A12.51,12.51,0,1,0,8,33.51a12.51,12.51,0,0,0,12.51,12.51Zm0-20.849a8.34,8.34,0,1,1-8.34,8.34,8.34,8.34,0,0,1,8.34-8.34Z" transform="translate(5.425 19.529)" fill="url(#linear-gradient)"/>
  </g>
</svg>
