<svg id="Logo" xmlns="http://www.w3.org/2000/svg" xmlns:xlink="http://www.w3.org/1999/xlink" width="253.143" height="49.315" viewBox="0 0 253.143 49.315">
  <defs>
    <clipPath id="clip-path">
      <rect id="Rectangle_100" data-name="Rectangle 100" width="253.143" height="49.315" transform="translate(0 0)" fill="none"/>
    </clipPath>
  </defs>
  <path id="Path_99" data-name="Path 99" d="M244.382,9.183v.661h1.261V13.3h.732V9.844h1.261V9.183Zm7.561,0-1.111,2.882-1.1-2.882h-1.116l-.008,4.113h.7V9.88h.011l1.25,3.416h.511l1.249-3.416h.012V13.3h.7V9.183Z" fill="#264694"/>
  <path id="Path_100" data-name="Path 100" d="M245.643,9.845h-1.261V9.183h3.254v.662h-1.261V13.3h-.732Zm2.975-.662h1.115l1.1,2.882,1.11-2.882h1.1V13.3h-.7V9.88h-.012L251.082,13.3h-.511L249.322,9.88h-.012V13.3h-.7Z" fill="none" stroke="#254593" stroke-width="0.2"/>
  <path id="Path_101" data-name="Path 101" d="M2.222,0,5.915,6.413,7.5,9.163H0L19.929,40.342l2.936-5.353L10.425,15.54H33.046l3.673-6.377H10.877L9.293,6.413H42.055L21.978,43.448l3.872,5.867L51.645,0Z" fill="#264694"/>
  <g id="Group_33" data-name="Group 33">
    <g id="Group_32" data-name="Group 32" clip-path="url(#clip-path)">
      <path id="Path_102" data-name="Path 102" d="M58.652,9.183h8.185l8.057,21.144L83.036,9.183h8.1V39.364H86.021V14.3h-.085L76.771,39.363H73.02L63.855,14.3H63.77V39.363H58.655Zm66.926,19.1a12.424,12.424,0,0,1-.938,4.924,11.028,11.028,0,0,1-2.558,3.73,11.254,11.254,0,0,1-3.837,2.366,14.377,14.377,0,0,1-9.634,0,11.48,11.48,0,0,1-3.858-2.366,10.654,10.654,0,0,1-2.558-3.73,12.676,12.676,0,0,1-.917-4.924V9.183h5.371V28.111a8.617,8.617,0,0,0,.341,2.323,6.514,6.514,0,0,0,1.13,2.238,6.038,6.038,0,0,0,2.089,1.684,8.164,8.164,0,0,0,6.436,0,6.039,6.039,0,0,0,2.089-1.684,6.514,6.514,0,0,0,1.13-2.238,8.617,8.617,0,0,0,.341-2.323V9.183h5.371ZM135.6,9.183h19.481v4.86h-14.11v7.929h13.3v4.86h-13.3V39.365H135.6Zm34.06,4.86h-9.25V9.183h23.872v4.86h-9.25V39.364h-5.371Zm27.538-4.86h4.646l13,30.181H208.7l-2.813-6.906H192.8l-2.728,6.906h-6.011Zm6.82,18.671-4.646-12.277-4.732,12.277Zm17.6-18.671h10.487a21.3,21.3,0,0,1,4.2.4,10.752,10.752,0,0,1,3.6,1.385,7.245,7.245,0,0,1,2.515,2.643,8.5,8.5,0,0,1,.938,4.22,8.4,8.4,0,0,1-1.812,5.5,7.774,7.774,0,0,1-5.179,2.69l8.014,13.343H237.9l-6.991-12.788h-3.924V39.364h-5.371Zm9.549,12.788q1.15,0,2.3-.107a7.084,7.084,0,0,0,2.11-.512,3.6,3.6,0,0,0,1.556-1.236,3.932,3.932,0,0,0,.6-2.323,3.712,3.712,0,0,0-.554-2.131,3.445,3.445,0,0,0-1.449-1.215,6.655,6.655,0,0,0-1.982-.533,17.929,17.929,0,0,0-2.11-.128h-4.651v8.185Z" fill="#264694"/>
    </g>
  </g>
</svg>
