<svg xmlns="http://www.w3.org/2000/svg" width="12" height="12" viewBox="0 0 12 12">
  <g id="Group_1515" data-name="Group 1515" transform="translate(-253.891 -475.179)" style="isolation: isolate">
    <path id="Path_13012" data-name="Path 13012" d="M265.891,479.885v5.794a1.5,1.5,0,0,1-1.5,1.5h-9a1.5,1.5,0,0,1-1.5-1.5v-5.794a1.116,1.116,0,0,1,.431-.885c.583-.459,1.066-.831,3.849-2.851.391-.285,1.164-.97,1.711-.97h.018c.547,0,1.32.685,1.709.971,2.785,2.02,3.268,2.39,3.851,2.85A1.113,1.113,0,0,1,265.891,479.885Zm-1.125,0c-.546-.43-.994-.775-3.816-2.826-.075-.055-.159-.12-.252-.191a5.284,5.284,0,0,0-.807-.549,5.278,5.278,0,0,0-.806.549c-.092.071-.176.136-.249.189-2.827,2.054-3.273,2.4-3.817,2.826l0,.317,3.908,3.237a1.549,1.549,0,0,0,1.933,0l3.909-3.236Zm0,1.78-3.188,2.655a2.642,2.642,0,0,1-3.372,0l-3.19-2.657v4.014a.376.376,0,0,0,.375.375h9a.375.375,0,0,0,.375-.375Z" fill="#c5c5c5"/>
  </g>
</svg>
