<svg xmlns="http://www.w3.org/2000/svg" xmlns:xlink="http://www.w3.org/1999/xlink" width="209" height="86" viewBox="0 0 209 86">
  <defs>
    <linearGradient id="linear-gradient" x1="0.306" y1="0.271" x2="4.498" y2="5.395" gradientUnits="objectBoundingBox">
      <stop offset="0" stop-color="#fff"/>
      <stop offset="1" stop-color="#8f9ec6"/>
    </linearGradient>
  </defs>
  <g id="Help_Support" data-name="Help &amp; Support" transform="translate(-24 -865)">
    <rect id="Rectangle_1789" data-name="Rectangle 1789" width="209" height="86" rx="10" transform="translate(24 865)" fill="url(#linear-gradient)"/>
    <text id="Help_" data-name="Help &amp;" transform="translate(80.374 887.36)" fill="#858585" font-size="14" font-family="Poppins-Regular, Poppins"><tspan x="0" y="15">Help &amp;</tspan></text>
    <text id="Support" transform="translate(81.748 904.36)" fill="#3c59a8" font-size="18" font-family="Poppins-Bold, Poppins" font-weight="700"><tspan x="0" y="19">Support</tspan></text>
    <path id="Icon_awesome-headphones-alt" data-name="Icon awesome-headphones-alt" d="M11.25,20.25H10.125a4.5,4.5,0,0,0-4.5,4.508v4.483a4.5,4.5,0,0,0,4.5,4.508H11.25A2.253,2.253,0,0,0,13.5,31.5V22.5A2.252,2.252,0,0,0,11.25,20.25Zm14.625,0H24.75A2.252,2.252,0,0,0,22.5,22.5V31.5a2.253,2.253,0,0,0,2.25,2.254h1.125a4.5,4.5,0,0,0,4.5-4.508V24.758a4.5,4.5,0,0,0-4.5-4.508ZM18,2.25c-10.061,0-17.679,8.376-18,18v7.875A1.125,1.125,0,0,0,1.125,29.25H2.25a1.125,1.125,0,0,0,1.125-1.125V20.25a14.625,14.625,0,0,1,29.25,0v7.875A1.125,1.125,0,0,0,33.75,29.25h1.125A1.125,1.125,0,0,0,36,28.125V20.25C35.679,10.626,28.061,2.25,18,2.25Z" transform="translate(39 886.36)" fill="#194799"/>
  </g>
</svg>
