<svg xmlns="http://www.w3.org/2000/svg" width="14" height="11.371" viewBox="0 0 14 11.371">
  <g id="Group_1513" data-name="Group 1513" transform="translate(-157.641 -474.744)" style="isolation: isolate">
    <path id="Path_13008" data-name="Path 13008" d="M170.2,477.578c.009.124.009.249.009.373a8.168,8.168,0,0,1-12.57,6.876,6.078,6.078,0,0,0,.693.035,5.746,5.746,0,0,0,3.562-1.226,2.874,2.874,0,0,1-2.683-1.99,3.58,3.58,0,0,0,.542.045,3.033,3.033,0,0,0,.755-.1,2.871,2.871,0,0,1-2.3-2.816v-.035a2.915,2.915,0,0,0,1.3.364,2.877,2.877,0,0,1-.888-3.838,8.161,8.161,0,0,0,5.917,3,3.211,3.211,0,0,1-.072-.658,2.872,2.872,0,0,1,4.966-1.963,5.651,5.651,0,0,0,1.821-.692,2.863,2.863,0,0,1-1.261,1.581,5.782,5.782,0,0,0,1.652-.445A6.164,6.164,0,0,1,170.2,477.578Z" fill="#505050"/>
  </g>
</svg>
