<?xml version="1.0" encoding="utf-8"?>
<!-- Generator: Adobe Illustrator 26.0.3, SVG Export Plug-In . SVG Version: 6.00 Build 0)  -->
<svg version="1.1" id="bold" xmlns="http://www.w3.org/2000/svg" xmlns:xlink="http://www.w3.org/1999/xlink" x="0px" y="0px"
	 viewBox="0 0 512 512" style="enable-background:new 0 0 512 512;" xml:space="preserve">
<style type="text/css">
	.st0{fill:#FFFFFF;}
</style>
<path class="st0" d="M490.7,170.7c-11.8,0-21.3-9.5-21.3-21.3V64c0-11.8-9.6-21.3-21.3-21.3h-85.3c-11.8,0-21.3-9.5-21.3-21.3
	S350.9,0,362.7,0H448c35.3,0,64,28.7,64,64v85.3C512,161.1,502.4,170.7,490.7,170.7z"/>
<path class="st0" d="M448,512h-85.3c-11.8,0-21.3-9.5-21.3-21.3c0-11.8,9.6-21.3,21.3-21.3H448c11.8,0,21.3-9.6,21.3-21.3v-85.3
	c0-11.8,9.6-21.3,21.3-21.3s21.3,9.5,21.3,21.3V448C512,483.3,483.3,512,448,512z"/>
<path class="st0" d="M149.3,512H64c-35.3,0-64-28.7-64-64v-85.3c0-11.8,9.6-21.3,21.3-21.3s21.3,9.5,21.3,21.3V448
	c0,11.8,9.6,21.3,21.3,21.3h85.3c11.8,0,21.3,9.5,21.3,21.3C170.7,502.5,161.1,512,149.3,512z"/>
<path class="st0" d="M21.3,170.7C9.6,170.7,0,161.1,0,149.3V64C0,28.7,28.7,0,64,0h85.3c11.8,0,21.3,9.5,21.3,21.3
	s-9.6,21.3-21.3,21.3H64c-11.8,0-21.3,9.6-21.3,21.3v85.3C42.7,161.1,33.1,170.7,21.3,170.7z"/>
<path class="st0" d="M384,234.7c-11.8,0-21.3-9.5-21.3-21.3v-64H149.3v64c0,11.8-9.6,21.3-21.3,21.3s-21.3-9.5-21.3-21.3v-64
	c0-23.5,19.1-42.7,42.7-42.7h213.3c23.5,0,42.7,19.1,42.7,42.7v64C405.3,225.1,395.8,234.7,384,234.7z"/>
<path class="st0" d="M448,298.7c0,11.8-9.6,21.3-21.3,21.3h-21.3v42.7c0,23.5-19.1,42.7-42.7,42.7H149.3
	c-23.5,0-42.7-19.1-42.7-42.7V320H85.3c-11.8,0-21.3-9.5-21.3-21.3c0-11.8,9.6-21.3,21.3-21.3h341.3
	C438.4,277.3,448,286.9,448,298.7z"/>
</svg>
