<svg id="Layer_1" data-name="Layer 1" xmlns="http://www.w3.org/2000/svg" viewBox="0 0 470 470"><g id="Group_363" data-name="Group 363"><rect id="Rectangle_767" data-name="Rectangle 767" width="470" height="470" rx="67.63" style="fill:#304276"/><g id="qr-code-scan"><path id="Path_2308" data-name="Path 2308" d="M355.87,80.79H312.71a9,9,0,0,0-.19,18.07h43.35a15.29,15.29,0,0,1,15.27,15.27v43.16a9,9,0,0,0,18.07.19V114.13A33.38,33.38,0,0,0,355.87,80.79Z" style="fill:#fff;stroke:#fff;stroke-width:5px"/><path id="Path_2309" data-name="Path 2309" d="M89.83,166.33a9,9,0,0,0,9-9h0V114.13a15.29,15.29,0,0,1,15.27-15.27h43.16a9,9,0,0,0,.19-18.07H114.13a33.37,33.37,0,0,0-33.34,33.34v43.16a9,9,0,0,0,9,9Z" style="fill:#fff;stroke:#fff;stroke-width:5px"/><path id="Path_2310" data-name="Path 2310" d="M157.29,371.14H114.13a15.29,15.29,0,0,1-15.27-15.27V312.71a9,9,0,0,0-18.07-.19v43.35a33.38,33.38,0,0,0,33.34,33.34h43.16a9,9,0,0,0,.19-18.07Z" style="fill:#fff;stroke:#fff;stroke-width:5px"/><path id="Path_2311" data-name="Path 2311" d="M380.17,303.67a9,9,0,0,0-9,9h0v43.16a15.29,15.29,0,0,1-15.27,15.27H312.71a9,9,0,1,0-.19,18.07h43.35a33.37,33.37,0,0,0,33.34-33.34V312.71a9,9,0,0,0-9-9Z" style="fill:#fff;stroke:#fff;stroke-width:5px"/></g><g id="Group_362" data-name="Group 362"><g id="Group_65" data-name="Group 65"><g id="layer1"><path id="path839" d="M161.81,159.8l153.51,0L228.59,310.2l-12.2-20.42,61.92-109.62H173.51Z" style="fill:#fff"/><path id="path841" d="M154.69,187.85l108.45,0-9.21,15.5-66.6.36L221,258.36l-11.9,20.4Z" style="fill:#fff"/><path id="path843" d="M178.85,189.94l18.37,8.3-12.5-20.67-17.24-8.06Z" style="fill:#fff"/></g></g></g></g><rect x="35.3" y="231.97" width="90.99" height="18.07" rx="9.04" style="fill:#fff"/><rect x="343.71" y="233.29" width="90.99" height="18.07" rx="9.04" style="fill:#fff"/></svg>