<svg xmlns="http://www.w3.org/2000/svg" width="46.768" height="64.418" viewBox="0 0 46.768 64.418">
  <g id="Reefer" transform="translate(0.13)">
    <path id="Path_11049" data-name="Path 11049" d="M862.761,213.97h.481a1.023,1.023,0,0,1,.39.938c-.012,2.134-.006,4.269-.006,6.4v.412a3.352,3.352,0,0,0,.384-.794,4.278,4.278,0,0,1,4.236-2.986q5.242-.028,10.485,0a4.28,4.28,0,0,1,4.234,2.993c.1.268.206.535.308.8l.081-.011v-.416c0-2.134.006-4.269-.006-6.4a1.023,1.023,0,0,1,.39-.938h.48c.445.308.875.643,1.341.917a1.139,1.139,0,0,1,.6,1.115q-.02,11.088-.009,22.176v.507a2.541,2.541,0,0,0,.3.017,2.57,2.57,0,0,1,2.825,2.855c-.057,1.813-.013,3.629-.013,5.444v.48c.3,0,.567,0,.829,0,.631.012.83.212.832.852,0,.948,0,1.895,0,2.842,0,.749-.175.924-.913.925-.771,0-1.54,0-2.353,0,0,.521,0,1,0,1.476a1.26,1.26,0,0,1-1.388,1.391c-.948,0-1.895,0-2.842,0-1.035,0-1.493-.455-1.5-1.482,0-.449,0-.9,0-1.35H865.055c0,.513.008.992,0,1.471a1.253,1.253,0,0,1-1.377,1.361q-1.48.006-2.963,0a1.26,1.26,0,0,1-1.388-1.391c0-.476,0-.954,0-1.476-.866,0-1.689.005-2.513,0-.513,0-.743-.215-.749-.724q-.019-1.581,0-3.162c.007-.508.232-.715.748-.734.289-.011.579,0,.91,0V247c0-1.908-.01-3.816,0-5.725a2.459,2.459,0,0,1,2.569-2.572c.168,0,.337,0,.539,0v-.566q0-11.108-.008-22.216a1.035,1.035,0,0,1,.527-.989C861.838,214.634,862.294,214.293,862.761,213.97Zm19.751,17.5v-6.016H864.471v6.016Zm-9.036,14.626c1.333,0,2.667,0,4,0a1.252,1.252,0,0,0,1.427-1.423q.009-3.7,0-7.4a1.27,1.27,0,0,0-1.436-1.426q-3.98,0-7.96,0a1.26,1.26,0,0,0-1.426,1.4q-.013,3.739,0,7.48a1.235,1.235,0,0,0,1.395,1.373C870.809,246.1,872.142,246.093,873.476,246.093Zm10.547-2.676c-.373,0-.746-.018-1.117,0a1.165,1.165,0,0,0-.028,2.322c.757.033,1.518.032,2.275,0a1.164,1.164,0,0,0-.012-2.322C884.768,243.4,884.394,243.418,884.022,243.417Zm-21.067,2.339c.346,0,.692.009,1.038,0a1.151,1.151,0,0,0,1.176-1.154,1.128,1.128,0,0,0-1.139-1.182c-.7-.023-1.411-.022-2.115,0a1.133,1.133,0,0,0-1.157,1.167,1.159,1.159,0,0,0,1.2,1.172C862.29,245.764,862.623,245.757,862.955,245.757Z" transform="translate(-856.054 -205.97)" fill="#3d5aa9"/>
    <path id="Path_11050" data-name="Path 11050" d="M1014.409,486.66c-1.239,0-2.48,0-3.719,0a.887.887,0,0,1-.5-.075c-.169-.135-.376-.367-.364-.544.013-.2.236-.4.4-.563.068-.068.228-.056.347-.056q3.82,0,7.638,0c.131,0,.306-.012.385.062.16.15.367.353.373.539a.87.87,0,0,1-.341.557.859.859,0,0,1-.5.08C1016.888,486.663,1015.649,486.66,1014.409,486.66Z" transform="translate(-997.116 -455.013)" fill="#3d5aa9"/>
    <path id="Path_11051" data-name="Path 11051" d="M1014.513,545.459c-1.266,0-2.533.008-3.8-.008a.85.85,0,0,1-.577-.186.721.721,0,0,1-.134-.6.828.828,0,0,1,.48-.4,1.948,1.948,0,0,1,.634-.023h7.078c.12,0,.241-.005.359.006a.588.588,0,0,1,.586.585.58.58,0,0,1-.59.619c-.452.018-.906.008-1.36.008Q1015.853,545.46,1014.513,545.459Z" transform="translate(-997.261 -508.951)" fill="#3d5aa9"/>
    <path id="Path_11052" data-name="Path 11052" d="M1014.035,514.866c1.253,0,2.506,0,3.759,0a1.587,1.587,0,0,1,.472.053.547.547,0,0,1,.391.62.538.538,0,0,1-.464.524,2.243,2.243,0,0,1-.437.031q-3.679,0-7.358,0c-.639,0-.938-.2-.938-.613s.3-.618.936-.618Z" transform="translate(-996.782 -482.022)" fill="#3d5aa9"/>
    <path id="Path_11053" data-name="Path 11053" d="M1014.153,575.036c-1.253,0-2.506,0-3.759,0a1.571,1.571,0,0,1-.434-.048.551.551,0,0,1-.419-.6.546.546,0,0,1,.487-.549,2.934,2.934,0,0,1,.438-.027q3.679,0,7.358,0a2.758,2.758,0,0,1,.4.023.546.546,0,0,1,.51.567.556.556,0,0,1-.465.608,1.69,1.69,0,0,1-.4.032Z" transform="translate(-996.855 -536.081)" fill="#3d5aa9"/>
    <g id="Ellipse_1" data-name="Ellipse 1" transform="translate(16.637)" fill="#fff" stroke="#3d5aa9" stroke-width="2">
      <circle cx="15" cy="15" r="15" stroke="none"/>
      <circle cx="15" cy="15" r="14" fill="none"/>
    </g>
    <g id="_1205618-200" data-name="1205618-200" transform="translate(22.637 6)">
      <path id="Path_11054" data-name="Path 11054" d="M829.055,483.925l-1.8.911c-.26.133-.548.276-.713-.09-.154-.344.16-.452.388-.571.613-.32,1.235-.622,1.844-.951.126-.068.294-.22.3-.335.021-1.282.013-2.563.013-3.965-.706.476-1.3.937-1.954,1.3a1.492,1.492,0,0,0-.869,1.541,13.1,13.1,0,0,1-.123,1.774c-.021.258-.079.564-.406.464-.147-.045-.3-.369-.295-.563.014-.684.094-1.367.156-2.154-.64.429-1.209.786-1.745,1.188-.134.1-.176.339-.233.522-.146.472-.246.959-.426,1.417-.065.167-.313.387-.458.373-.3-.029-.342-.289-.248-.57.1-.308.178-.625.3-1.047a3.9,3.9,0,0,1-.7.422,1.381,1.381,0,0,1-.527-.043c.045-.185.036-.418.148-.542a4.529,4.529,0,0,1,.768-.543,6.885,6.885,0,0,1-1.072-.21c-.173-.064-.292-.277-.435-.422a4.839,4.839,0,0,1,.539-.27.445.445,0,0,1,.29.039c1.4.6,2.4-.142,3.423-1.025-.639-.323-1.276-.62-1.881-.969a.632.632,0,0,1-.286-.516c.087-.315.363-.25.607-.126.661.336,1.328.657,1.981,1.007a.555.555,0,0,0,.671-.032c.792-.557,1.6-1.087,2.45-1.657-1.024-.568-1.983-1.111-2.958-1.624a.6.6,0,0,0-.475.073c-.613.353-1.214.731-1.816,1.1-.228.14-.475.249-.647-.031s.025-.45.26-.591c.55-.33,1.093-.673,1.732-1.066-.874-.386-1.5-1.223-2.577-.794a8.644,8.644,0,0,1-1.007.244c-.285.075-.545.013-.561-.284-.007-.139.234-.352.408-.428a6.645,6.645,0,0,1,1.012-.263,3.513,3.513,0,0,1-.68-.409c-.113-.112-.125-.326-.182-.495a1.354,1.354,0,0,1,.516-.113,3.4,3.4,0,0,1,.708.347,4.225,4.225,0,0,1-.239-.857c-.008-.17.134-.347.208-.521a4.1,4.1,0,0,1,.466.325c.064.057.069.181.1.275.476,1.466.651,1.645,2.231,2.257.048-.665.089-1.313.146-1.96a.926.926,0,0,1,.141-.454c.057-.076.3-.127.338-.082a.8.8,0,0,1,.244.477c-.024.724-.1,1.447-.137,2.171a.514.514,0,0,0,.167.4c.854.5,1.722.969,2.587,1.447.083.045.171.083.312.149.014-.188.033-.326.034-.465,0-1.187-.013-2.375.01-3.562a.675.675,0,0,0-.416-.69c-.622-.338-1.224-.713-1.834-1.073-.225-.132-.447-.289-.268-.583s.417-.165.642-.032c.589.349,1.18.7,1.862,1.1,0-.542.017-.98-.011-1.415a.659.659,0,0,0-.226-.355c-.307-.3-.657-.558-.934-.881-.128-.149-.238-.485-.158-.607.172-.265.426-.116.624.069s.429.389.571.516c.195-.261.357-.48.518-.7l.532.687a4.57,4.57,0,0,1,.637-.551.618.618,0,0,1,.548-.044c.239.174.124.4-.075.578a3,3,0,0,1-.409.357,1.886,1.886,0,0,0-.8,2.309c.559-.345,1.106-.7,1.671-1.023a.742.742,0,0,1,.539-.092c.279.1.23.441-.093.651-.622.4-1.258.784-1.876,1.195a.635.635,0,0,0-.295.393c-.022,1.365-.013,2.73-.013,4.2l1.366-.912.863-.576c1.127-.751,1.124-.751,1.007-2.121a7.3,7.3,0,0,1-.05-1.184c.012-.154.22-.294.338-.439.116.135.3.256.333.409a7.005,7.005,0,0,1,.089,1.033c.02.327.033.656.055,1.092.678-.541,1.612-.683,1.684-1.734a4.653,4.653,0,0,1,.185-.818c.066-.256.123-.573.484-.49.345.079.31.366.234.643-.059.219-.1.443-.169.769a3.707,3.707,0,0,1,.727-.457,1.586,1.586,0,0,1,.6.048c-.059.18-.069.412-.19.53a6.1,6.1,0,0,1-.837.582c.348.1.624.175.9.261.25.078.574.14.475.5-.095.34-.381.283-.656.2-.425-.13-.854-.251-1.286-.352a.593.593,0,0,0-.407.039c-.46.285-.9.6-1.394.93l1.791,1.039c.236.138.5.291.291.61-.186.291-.421.137-.643.006-.61-.36-1.22-.721-1.841-1.06a.513.513,0,0,0-.43-.032c-1.045.684-2.076,1.392-3.183,2.141.684.382,1.307.735,1.937,1.078.548.3,1.1.813,1.654.814.529,0,1.058-.538,1.587-.841a3.031,3.031,0,0,1,.647-.355,1.422,1.422,0,0,1,.553.086c-.07.177-.088.432-.219.518-.573.379-1.178.709-1.845,1.1.523.288.971.549,1.435.778a.674.674,0,0,0,.415.006c.433-.1.857-.253,1.294-.315.148-.021.328.168.492.26-.11.139-.193.33-.336.407a4.126,4.126,0,0,1-.787.225,2.33,2.33,0,0,1,.551.333,2.448,2.448,0,0,1,.274.543,2.029,2.029,0,0,1-.6.082,2.455,2.455,0,0,1-.614-.321c.078.38.129.673.2.96s.181.591-.218.682-.431-.259-.5-.525c-.107-.4-.22-.794-.3-1.2a.842.842,0,0,0-.511-.66c-.4-.182-.771-.409-1.225-.656-.039.792-.062,1.494-.116,2.194a.633.633,0,0,1-.219.4.35.35,0,0,1-.346-.051.911.911,0,0,1-.143-.492c.015-.708.067-1.416.081-2.125a.527.527,0,0,0-.166-.406c-1.081-.619-2.176-1.215-3.357-1.866,0,.939-.006,1.788,0,2.638,0,.541-.146,1.186.1,1.591.229.386.878.523,1.344.767.2.107.411.209.618.311.244.121.523.259.369.585-.178.375-.47.177-.717.054-.528-.262-1.051-.533-1.676-.851.056.871-.251,1.7.52,2.347a7.041,7.041,0,0,1,.775.9c.171.2.4.425.118.675-.309.275-.5-.011-.686-.219a4.2,4.2,0,0,0-.728-.7c0,.181,0,.362,0,.543-.006.277.047.63-.352.642s-.37-.337-.374-.618c0-.2,0-.392,0-.733l-.851.953c-.173.195-.361.383-.622.149s-.1-.44.075-.636a6.1,6.1,0,0,1,.728-.806C829.287,485.785,829.106,484.882,829.055,483.925Z" transform="translate(-820.709 -468.869)"/>
    </g>
    <text id="Reefer-2" data-name="Reefer" transform="translate(17.869 60.418)" font-size="11" font-family="Poppins-Regular, Poppins"><tspan x="-17.435" y="0">Reefer</tspan></text>
  </g>
</svg>
