<svg xmlns="http://www.w3.org/2000/svg" width="12.189" height="10.665" viewBox="0 0 12.189 10.665">
  <g id="Group_1523" data-name="Group 1523" style="isolation: isolate">
    <path id="Path_13024" data-name="Path 13024" d="M-134.476,615.884a.381.381,0,0,0,.381.381h9.523a.761.761,0,0,1,.762.762.761.761,0,0,1-.762.762H-134.1a1.9,1.9,0,0,1-1.9-1.9v-8a.762.762,0,0,1,.762-.762.762.762,0,0,1,.762.762Zm6.632-2.89a.76.76,0,0,1-1.076,0l-1.366-1.364-2.128,2.126a.76.76,0,0,1-1.076,0,.76.76,0,0,1,0-1.076l2.667-2.666a.76.76,0,0,1,1.076,0l1.367,1.364,2.509-2.507a.759.759,0,0,1,1.076,0,.76.76,0,0,1,0,1.076Z" transform="translate(136 -607.123)" fill="#fff"/>
  </g>
</svg>
