<svg id="Layer_1" enable-background="new 0 0 27 27" height="512" viewBox="0 0 27 27" width="512" xmlns="http://www.w3.org/2000/svg"><g id="_x34_7"><path d="m19.855011 1.5h-8.5800171c-.8945208 0-1.7618237.3171585-2.5100098 1.0199585l-4.1599731 4.1100464c-.6746853.6746855-1.0599976 1.5718078-1.0599976 2.5499878v12.7199707c0 1.9800415 1.6099854 3.6000366 3.5999756 3.6000366h12.710022c1.9799805 0 3.5999756-1.6199951 3.5999756-3.6000366v-16.7999878c0-1.9799805-1.6199951-3.5999756-3.5999756-3.5999756zm-6.3441773 14.1923828h.0292969c1.5493174.0303783 2.8431244 1.2335529 2.8310547 2.7705078-.0102539 1.222229-.8640747 2.2423706-2.0253906 2.5921021v.5280151c0 .4697266-.3798828.8496094-.8496094.8496094s-.8496094-.3798828-.8496094-.8496094v-.5183716c-1.2982359-.3739147-2.0619526-1.4670067-2.0527344-2.6408081.0029297-.4677734.3828125-.84375.8496094-.84375h.0058594c.4697266.0029297.8476563.3867188.84375.8554688-.0039921.5509224.4940252 1.0534401 1.1806641 1.0595703h.0097656c.6513672 0 1.1835938-.4677734 1.1884766-1.0449219.0039606-.5446358-.4885759-1.0524139-1.1806641-1.0585938-.0029297 0-.0058594 0-.0097656 0-1.5791016-.0146484-2.859375-1.2431641-2.859375-2.7519531 0-1.2340088.8624878-2.2677612 2.0390625-2.6156006v-.5240478c0-.4697266.3798828-.8496094.8496094-.8496094s.8496093.3798828.8496093.8496094v.5241089c1.1762695.3479004 2.0380859 1.3815918 2.0380859 2.6155396 0 .4697266-.3798828.8496094-.8496094.8496094s-.8496094-.3798828-.8496094-.8496094c0-.5800781-.5332031-1.0517578-1.1884766-1.0517578s-1.1894531.4716797-1.1894531 1.0517578.5341798 1.0527343 1.1894532 1.0527343zm3.2841797-7.1923828h-6.5976563c-.5527344 0-1-.4472656-1-1s.4472656-1 1-1h6.5976563c.5527344 0 1 .4472656 1 1s-.4472656 1-1 1z"/></g></svg>