<?xml version="1.0" encoding="utf-8"?>
<!-- Generator: Adobe Illustrator 27.7.0, SVG Export Plug-In . SVG Version: 6.00 Build 0)  -->
<svg version="1.1" id="Layer_1" xmlns="http://www.w3.org/2000/svg" xmlns:xlink="http://www.w3.org/1999/xlink" x="0px" y="0px"
	 viewBox="0 0 444.4 76.9" style="enable-background:new 0 0 444.4 76.9;" xml:space="preserve">
<style type="text/css">
	.st0{fill:#264694;}
	.st1{fill:#FFFFFF;stroke:#254593;stroke-width:0.2;}
	.st2{fill:#FFFFFF;}
</style>
<rect class="st0" width="444.4" height="76.9"/>
<g>
	<g id="Group_54" transform="translate(-3366.964 354.118)">
		<path id="Path_105" class="st1" d="M3637.7-329.1h-1.3v-0.7h3.3v0.7h-1.3v3.5h-0.7L3637.7-329.1z M3640.6-329.8h1.1l1.1,2.9
			l1.1-2.9h1.1v4.1h-0.7v-3.4h0l-1.2,3.4h-0.5l-1.2-3.4h0v3.4h-0.7L3640.6-329.8z"/>
		<path id="Path_103" class="st2" d="M3394.2-338.9l3.7,6.4l1.6,2.7h-7.5l19.9,31.2l2.9-5.4l-12.4-19.4h22.6l3.7-6.4h-25.8l-1.6-2.7
			h32.8l-20.1,37l3.9,5.9l25.8-49.3H3394.2z"/>
		<path id="Path_104" class="st2" d="M3450.7-329.8h8.2l8.1,21.1l8.1-21.1h8.1v30.2h-5.1v-25.1h-0.1l-9.2,25.1h-3.8l-9.2-25.1h-0.1
			v25.1h-5.1L3450.7-329.8z M3517.6-310.7c0,1.7-0.3,3.4-0.9,4.9c-0.6,1.4-1.5,2.7-2.6,3.7c-1.1,1-2.4,1.8-3.8,2.4
			c-1.5,0.6-3.2,0.8-4.8,0.8c-1.6,0-3.3-0.3-4.8-0.8c-1.4-0.5-2.7-1.3-3.9-2.4c-1.1-1-2-2.3-2.6-3.7c-0.6-1.6-0.9-3.2-0.9-4.9v-19.1
			h5.4v18.9c0,0.8,0.1,1.6,0.3,2.3c0.2,0.8,0.6,1.6,1.1,2.2c0.6,0.7,1.3,1.3,2.1,1.7c1,0.5,2.1,0.7,3.2,0.7c1.1,0,2.2-0.2,3.2-0.7
			c0.8-0.4,1.5-1,2.1-1.7c0.5-0.7,0.9-1.4,1.1-2.2c0.2-0.8,0.3-1.5,0.3-2.3v-18.9h5.4L3517.6-310.7z M3527.6-329.8h19.5v4.9H3533
			v7.9h13.3v4.9H3533v12.5h-5.4V-329.8z M3561.7-324.9h-9.2v-4.9h23.9v4.9h-9.2v25.3h-5.4L3561.7-324.9z M3589.2-329.8h4.6l13,30.2
			h-6.1l-2.8-6.9h-13.1l-2.7,6.9h-6L3589.2-329.8z M3596-311.1l-4.6-12.3l-4.7,12.3H3596z M3613.6-329.8h10.5c1.4,0,2.8,0.1,4.2,0.4
			c1.3,0.2,2.5,0.7,3.6,1.4c1.1,0.7,1.9,1.6,2.5,2.6c0.7,1.3,1,2.8,0.9,4.2c0.1,2-0.6,3.9-1.8,5.5c-1.3,1.5-3.2,2.5-5.2,2.7l8,13.3
			h-6.5l-7-12.8h-3.9v12.8h-5.4L3613.6-329.8z M3623.2-317c0.8,0,1.5,0,2.3-0.1c0.7-0.1,1.4-0.2,2.1-0.5c0.6-0.3,1.2-0.7,1.6-1.2
			c0.4-0.7,0.6-1.5,0.6-2.3c0-0.8-0.2-1.5-0.6-2.1c-0.4-0.5-0.9-1-1.4-1.2c-0.6-0.3-1.3-0.5-2-0.5c-0.7-0.1-1.4-0.1-2.1-0.1h-4.7
			v8.2H3623.2z"/>
	</g>
	<g>
		<path class="st2" d="M292.2,24.5h10.4c5.8,0,11.2,1.9,11.2,8.6c0,4.3-2.5,7.5-7,8.1l8,13.3h-6.4l-7-12.7h-3.9v12.7h-5.3V24.5z
			 M301.7,37.2c3,0,6.5-0.3,6.5-4.2c0-3.6-3.3-4-6.1-4h-4.6v8.1H301.7z"/>
		<path class="st2" d="M328.6,24.5h4.6l12.9,30H340l-2.8-6.9h-13l-2.7,6.9h-6L328.6,24.5z M335.4,43l-4.6-12.2L326,43H335.4z"/>
		<path class="st2" d="M349.5,24.5h10.1c5.8,0,11.1,2,11.1,8.7c0,7.6-5.6,8.9-12,8.9h-3.8v12.4h-5.3V24.5z M358.1,37.5
			c3.1,0,7-0.2,7-4.2c0-3.7-3.5-4.2-6.4-4.2h-3.8v8.4H358.1z"/>
		<path class="st2" d="M375.3,24.5h5.3v30h-5.3V24.5z"/>
		<path class="st2" d="M387.2,24.5h11.8c7.9,0,15.3,4.8,15.3,15c0,10.3-8.7,15-15.9,15h-11.2V24.5z M396.5,49.7
			c6.7,0,12.2-2.9,12.2-10.2s-4.8-10.2-11.3-10.2h-4.9v20.4H396.5z"/>
	</g>
</g>
</svg>
