<?xml version="1.0" encoding="UTF-8"?>
<svg id="Layer_1" data-name="Layer 1" xmlns="http://www.w3.org/2000/svg" viewBox="0 0 253.04 49.31">
  <defs>
    <style>
      .cls-1 {
        fill: #fff;
        stroke-width: 0px;
      }
    </style>
  </defs>
  <g id="Group_54" data-name="Group 54">
    <path id="Path_105" data-name="Path 105" class="cls-1" d="m245.64,9.85h-1.26v-.66h3.25v.66h-1.26v3.45h-.73v-3.45Zm2.97-.66h1.11l1.1,2.88,1.11-2.88h1.1v4.11h-.7v-3.42h-.01l-1.25,3.42h-.51l-1.25-3.42h-.01v3.42h-.7v-4.11Z"/>
    <path id="Path_103" data-name="Path 103" class="cls-1" d="m2.22,0l3.69,6.41,1.59,2.75H0l19.93,31.18,2.93-5.35L10.43,15.54h22.62l3.67-6.38H10.88l-1.58-2.75h32.76l-20.08,37.04,3.87,5.87L51.65,0H2.22Z"/>
    <path id="Path_104" data-name="Path 104" class="cls-1" d="m58.65,9.18h8.18l8.06,21.14,8.14-21.14h8.1v30.18h-5.12V14.3h-.09l-9.16,25.07h-3.75l-9.16-25.07h-.09v25.07h-5.12V9.18Zm66.93,19.1c.03,1.69-.29,3.36-.94,4.92-.59,1.41-1.46,2.68-2.56,3.73-1.11,1.04-2.41,1.84-3.84,2.37-1.54.57-3.17.85-4.82.83-1.64.02-3.27-.27-4.82-.83-1.43-.52-2.74-1.33-3.86-2.37-1.11-1.05-1.98-2.32-2.56-3.73-.63-1.56-.94-3.24-.92-4.92V9.18h5.37v18.93c0,.79.12,1.57.34,2.32.23.81.61,1.57,1.13,2.24.56.71,1.28,1.29,2.09,1.68,1.01.47,2.11.7,3.22.66,1.11.04,2.21-.19,3.22-.66.81-.4,1.53-.97,2.09-1.68.52-.67.9-1.43,1.13-2.24.22-.76.33-1.54.34-2.32V9.18h5.37v19.1Zm10.02-19.1h19.48v4.86h-14.11v7.93h13.3v4.86h-13.3v12.53h-5.37V9.18Zm34.06,4.86h-9.25v-4.86h23.87v4.86h-9.25v25.32h-5.37V14.04Zm27.54-4.86h4.65l13,30.18h-6.14l-2.81-6.91h-13.09l-2.73,6.91h-6.01l13.13-30.18Zm6.82,18.67l-4.65-12.28-4.73,12.28h9.38Zm17.6-18.67h10.49c1.41,0,2.82.13,4.2.4,1.27.24,2.49.71,3.6,1.39,1.05.65,1.92,1.56,2.51,2.64.67,1.3.99,2.76.94,4.22.07,1.99-.58,3.94-1.81,5.5-1.31,1.54-3.17,2.5-5.18,2.69l8.01,13.34h-6.48l-6.99-12.79h-3.92v12.79h-5.37V9.18Zm9.55,12.79c.77,0,1.53-.04,2.3-.11.73-.06,1.44-.23,2.11-.51.62-.26,1.16-.69,1.56-1.24.44-.69.65-1.51.6-2.32.04-.75-.16-1.49-.55-2.13-.36-.53-.86-.95-1.45-1.21-.63-.28-1.3-.46-1.98-.53-.7-.08-1.4-.13-2.11-.13h-4.65v8.18h4.18Z"/>
  </g>
</svg>