<svg xmlns="http://www.w3.org/2000/svg" width="15.001" height="15.001" viewBox="0 0 15.001 15.001">
  <path id="Path_13322" data-name="Path 13322" d="M14.559-4.059a1.5,1.5,0,0,1,0,2.121A1.486,1.486,0,0,1,13.5-1.5a1.493,1.493,0,0,1-1.06-.439L7.5-6.877,2.561-1.941A1.487,1.487,0,0,1,1.5-1.5,1.487,1.487,0,0,1,.439-1.941a1.5,1.5,0,0,1,0-2.121L5.38-9,.439-13.941a1.5,1.5,0,0,1,0-2.121,1.5,1.5,0,0,1,2.121,0L7.5-11.119l4.941-4.941a1.5,1.5,0,0,1,2.121,0,1.5,1.5,0,0,1,0,2.121L9.621-9l4.938,4.938Z" transform="translate(0 16.501)" fill="#fff"/>
</svg>
