<svg xmlns="http://www.w3.org/2000/svg" width="128" height="96" viewBox="0 0 128 96">
  <path id="Hide" d="M79.891,65.078l7.27-7.27A23.913,23.913,0,0,1,57.808,87.161l7.27-7.27A15.929,15.929,0,0,0,79.891,65.078ZM127.5,62.057a83.777,83.777,0,0,0-21.11-23.474L100.565,44.4a80.055,80.055,0,0,1,18.729,19.6C114.553,71.225,95.955,96,64,96a58.777,58.777,0,0,1-13.441-1.591l-6.573,6.573A67.756,67.756,0,0,0,64,104c41.873,0,62.633-36.5,63.5-38.057a4,4,0,0,0,0-3.886ZM110.828,22.828l-88,88a4,4,0,0,1-5.656-5.656l11.2-11.2A83.933,83.933,0,0,1,.5,65.943a4,4,0,0,1,0-3.887C1.367,60.5,22.127,24,64,24a67.358,67.358,0,0,1,28.222,6.122l12.95-12.95a4,4,0,1,1,5.656,5.656Zm-76.5,65.183L44.46,77.884A23.962,23.962,0,0,1,77.884,44.459l8.189-8.189A58.9,58.9,0,0,0,64,32C32.045,32,13.447,56.775,8.707,63.994A78.537,78.537,0,0,0,34.333,88.011ZM50.267,72.076,72.076,50.267A15.82,15.82,0,0,0,64,48,16.019,16.019,0,0,0,48,64a15.82,15.82,0,0,0,2.267,8.076Z" transform="translate(0 -16)" fill="#9ca3af"/>
</svg>
