<svg xmlns="http://www.w3.org/2000/svg" width="119.721" height="119.484" viewBox="0 0 119.721 119.484">
  <g id="people-2" transform="translate(0 -0.502)">
    <path id="Path_12982" data-name="Path 12982" d="M172.274,49.382h34.147a3.362,3.362,0,0,0,3.356-3.37V42.339a17.908,17.908,0,0,0-18.071-17.951,12.012,12.012,0,1,0-4.717,0,17.909,17.909,0,0,0-18.071,17.951v3.673A3.362,3.362,0,0,0,172.274,49.382Z" transform="translate(-129.42 0)" fill="#1d3aae"/>
    <path id="Path_12983" data-name="Path 12983" d="M55.091,138.824a3.5,3.5,0,0,0,4.074-2.831A46.8,46.8,0,0,1,72.5,111.016a3.511,3.511,0,0,0-4.863-5.066,53.847,53.847,0,0,0-15.366,28.782A3.517,3.517,0,0,0,55.091,138.824Z" transform="translate(-40.005 -80.038)" fill="#1d3aae"/>
    <path id="Path_12984" data-name="Path 12984" d="M378.575,122.247a46.2,46.2,0,0,1,4.854,13.744,3.5,3.5,0,1,0,6.894-1.26,53.847,53.847,0,0,0-15.366-28.782,3.493,3.493,0,0,0-4.954.091,3.529,3.529,0,0,0,.091,4.974A46.122,46.122,0,0,1,378.575,122.247Z" transform="translate(-282.734 -80.037)" fill="#1d3aae"/>
    <path id="Path_12985" data-name="Path 12985" d="M209.4,364.1a45.56,45.56,0,0,1-14.154,2.273c-.063,0-.128,0-.192,0a45.813,45.813,0,0,1-13.878-2.125,3.516,3.516,0,0,0-2.111,6.707,52.738,52.738,0,0,0,15.99,2.453h.192a52.681,52.681,0,0,0,16.34-2.627A3.516,3.516,0,0,0,209.4,364.1Z" transform="translate(-135.319 -278.445)" fill="#1d3aae"/>
    <path id="Path_12986" data-name="Path 12986" d="M22.788,326.332a12.012,12.012,0,1,0-4.716,0A17.91,17.91,0,0,0,0,344.283v3.673a3.364,3.364,0,0,0,3.356,3.37H37.5a3.364,3.364,0,0,0,3.356-3.37v-3.673a17.907,17.907,0,0,0-18.072-17.951Z" transform="translate(0 -231.339)" fill="#1d3aae"/>
    <path id="Path_12987" data-name="Path 12987" d="M360.045,326.332a12.012,12.012,0,1,0-4.716,0,17.906,17.906,0,0,0-18.071,17.951v3.673a3.364,3.364,0,0,0,3.356,3.37H374.76a3.365,3.365,0,0,0,3.356-3.37v-3.672A17.908,17.908,0,0,0,360.045,326.332Z" transform="translate(-258.397 -231.339)" fill="#1d3aae"/>
  </g>
</svg>
