<svg id="baseline-fingerprint-24px" xmlns="http://www.w3.org/2000/svg" width="56.596" height="56.595" viewBox="0 0 56.596 56.595">
  <path id="Path_272" data-name="Path 272" d="M37.928,7.825a1.1,1.1,0,0,1-.542-.141A26.982,26.982,0,0,0,24.251,4.358,26.979,26.979,0,0,0,11.116,7.683,1.182,1.182,0,1,1,9.984,5.608a30,30,0,0,1,28.486-.024,1.194,1.194,0,0,1-.542,2.24ZM4.183,20.2a1.229,1.229,0,0,1-.684-.212,1.176,1.176,0,0,1-.283-1.651,24.381,24.381,0,0,1,8.843-7.711,27.221,27.221,0,0,1,24.313-.024,24.474,24.474,0,0,1,8.843,7.664,1.184,1.184,0,0,1-1.934,1.368,22.138,22.138,0,0,0-7.994-6.933,24.848,24.848,0,0,0-22.167.024A22.371,22.371,0,0,0,5.1,19.71a1.028,1.028,0,0,1-.92.5ZM18.922,48.668a1.106,1.106,0,0,1-.825-.354,23.839,23.839,0,0,1-4.74-6.226,20.933,20.933,0,0,1-2.476-10.234c0-7,5.99-12.71,13.347-12.71s13.347,5.707,13.347,12.71a1.179,1.179,0,0,1-2.358,0c0-5.707-4.929-10.352-10.989-10.352S13.239,26.147,13.239,31.854a18.474,18.474,0,0,0,2.193,9.079,22.321,22.321,0,0,0,4.363,5.707,1.211,1.211,0,0,1,0,1.674,1.293,1.293,0,0,1-.873.354ZM35.83,44.305a12.7,12.7,0,0,1-7.31-2.1,12.556,12.556,0,0,1-5.612-10.352,1.179,1.179,0,1,1,2.358,0,10.143,10.143,0,0,0,4.575,8.395,10.34,10.34,0,0,0,5.99,1.674,15.584,15.584,0,0,0,2.452-.236,1.184,1.184,0,0,1,.4,2.335,16.1,16.1,0,0,1-2.853.283Zm-4.74,4.858a1.38,1.38,0,0,1-.307-.047,18.4,18.4,0,0,1-8.772-4.952,17.206,17.206,0,0,1-5.117-12.31,7.111,7.111,0,0,1,7.263-6.933,7.111,7.111,0,0,1,7.263,6.933,4.917,4.917,0,0,0,9.81,0c0-8.89-7.664-16.106-17.1-16.106a17.216,17.216,0,0,0-15.587,9.5,15.17,15.17,0,0,0-1.391,6.6,23.434,23.434,0,0,0,1.58,8.513,1.151,1.151,0,0,1-.684,1.509,1.17,1.17,0,0,1-1.509-.684A26.271,26.271,0,0,1,4.82,31.854a17.716,17.716,0,0,1,1.6-7.64,19.57,19.57,0,0,1,17.71-10.847c10.73,0,19.455,8.277,19.455,18.464a7.271,7.271,0,0,1-14.526,0,4.749,4.749,0,0,0-4.9-4.575,4.749,4.749,0,0,0-4.9,4.575,14.85,14.85,0,0,0,4.41,10.635,16.035,16.035,0,0,0,7.711,4.363,1.17,1.17,0,0,1,.825,1.438,1.151,1.151,0,0,1-1.108.9Z" transform="translate(4.07 2.716)" fill="#fff"/>
  <path id="Path_273" data-name="Path 273" d="M0,0H56.6V56.6H0Z" fill="none"/>
</svg>
