<svg id="vuesax_linear_directbox-notif" data-name="vuesax/linear/directbox-notif" xmlns="http://www.w3.org/2000/svg" width="34.615" height="34.615" viewBox="0 0 34.615 34.615">
  <g id="directbox-notif" transform="translate(0 0)">
    <path id="Vector" d="M5.769,0C0,0,0,2.582,0,5.769V7.212c0,3.981,0,7.212,7.212,7.212H18.75c5.769,0,7.212-3.231,7.212-7.212V5.769c0-3.187,0-5.769-5.769-5.769a3.406,3.406,0,0,0-2.6.865L16.125,2.423a4.325,4.325,0,0,1-6.3,0L8.365.865A3.406,3.406,0,0,0,5.769,0Z" transform="translate(4.327 17.308)" fill="none" stroke="#fff" stroke-linecap="round" stroke-linejoin="round" stroke-width="3"/>
    <path id="Vector-2" data-name="Vector" d="M20.192,14.423V5.769c0-3.187,0-5.769-5.769-5.769H5.769C0,0,0,2.582,0,5.769v8.654" transform="translate(7.212 2.885)" fill="none" stroke="#fff" stroke-linecap="round" stroke-linejoin="round" stroke-width="3"/>
    <path id="Vector-3" data-name="Vector" d="M0,0H4.8" transform="translate(15.216 13.312)" fill="none" stroke="#fff" stroke-linecap="round" stroke-linejoin="round" stroke-width="3"/>
    <path id="Vector-4" data-name="Vector" d="M0,0H7.212" transform="translate(14.019 8.986)" fill="none" stroke="#fff" stroke-linecap="round" stroke-linejoin="round" stroke-width="3"/>
    <path id="Vector-5" data-name="Vector" d="M0,0H34.615V34.615H0Z" fill="none" opacity="0"/>
  </g>
</svg>
