<svg id="Group_115" data-name="Group 115" xmlns="http://www.w3.org/2000/svg" width="48.435" height="48.272" viewBox="0 0 48.435 48.272">
  <path id="Path_437" data-name="Path 437" d="M1967.235-401.7a11.352,11.352,0,0,1-7.083,2.37,10.208,10.208,0,0,1-9.817-8.322,26.958,26.958,0,0,1-.024-9.114,9.638,9.638,0,0,1,9.88-8.213c6.55.018,10.592,4.045,10.647,10.611.011,1.261-.025,2.523.017,3.783.02.622-.332,1.44.344,1.813.62.343,1.031-.42,1.51-.71a11.78,11.78,0,0,1,12.473-.414,11.961,11.961,0,0,1,3.914,17.644,2.025,2.025,0,0,0-.113,2.748c1.392,2.176,2.632,4.451,3.918,6.694.7,1.225.489,1.915-1.084,1.737a1.525,1.525,0,0,0-.2-.02c-1.378.025-2.959-1.087-4.02-.228-.9.732-1.1,2.341-1.609,3.562-.2.487-.349,1.05-1.027,1.049-.641,0-.875-.532-1.138-.984-1.463-2.511-2.916-5.027-4.5-7.755-1.566,2.7-2.99,5.149-4.42,7.6-.295.5-.5,1.167-1.234,1.142-.75-.026-.873-.7-1.087-1.254-.024-.061-.06-.118-.086-.179-1.42-3.376-1.418-3.364-5.1-3-.622.061-1.372.438-1.846-.256s.115-1.264.427-1.814c1.277-2.248,2.588-4.476,3.888-6.711a1.408,1.408,0,0,0,.1-1.769C1967.339-395.758,1967.152-396.587,1967.235-401.7Zm1.846-10.1c0-1.591.061-2.658-.011-3.716a8.576,8.576,0,0,0-8.647-7.939,8.458,8.458,0,0,0-8.508,8.042c-.09,2.055-.088,4.119-.006,6.174a8.565,8.565,0,0,0,7.62,8.135,8.683,8.683,0,0,0,9.24-6.279A17.264,17.264,0,0,0,1969.081-411.8ZM1979.068-389a10.348,10.348,0,0,0,10.632-10.108,10.476,10.476,0,0,0-10.214-10.591,10.362,10.362,0,0,0-10.479,10.071A10.24,10.24,0,0,0,1979.068-389Zm-5.359,9.693c1.577-2.709,2.762-4.778,3.982-6.825.422-.708.561-1.17-.511-1.309a10.5,10.5,0,0,1-4.579-1.829c-.608-.414-.9-.282-1.238.307-1.069,1.888-2.173,3.756-3.264,5.632l-.1.636C1971.5-384.478,1973.191-383.154,1973.709-379.312Zm11.042-.319c1.616-3.623,1.616-3.623,5.888-3.549-.942-1.618-1.9-3.114-2.7-4.686-.684-1.34-1.255-2.2-2.831-.881a6.917,6.917,0,0,1-3.509,1.279c-.812.115-1.245.325-.681,1.253C1982.18-384.136,1983.37-382.013,1984.751-379.63Z" transform="translate(-1944.849 424.975)" fill="#fff"/>
  <path id="Path_438" data-name="Path 438" d="M1950.1-335.594c-3.652,0-7.3-.049-10.955.022-1.474.029-1.991-.488-1.957-1.97.082-3.584-.014-7.172.037-10.757a7.732,7.732,0,0,1,8.024-8.053c3.651-.053,7.3-.02,10.956,0,.681,0,1.7-.265,1.713.808.015,1.231-1.091.9-1.82.9-3.519.026-7.038,0-10.557.018-4.009.025-6.454,2.437-6.5,6.431-.036,3.054.057,6.111-.039,9.163-.042,1.327.4,1.659,1.673,1.648,6.573-.057,13.147-.026,19.72-.025.4,0,.8,0,1.2,0,.684,0,1.479.013,1.514.89.035.91-.764.929-1.448.93q-3.088.005-6.175,0Z" transform="translate(-1937.182 383.741)" fill="#fff"/>
  <path id="Path_439" data-name="Path 439" d="M2019.216-373.55a8.56,8.56,0,0,1-8.639,8.542,8.59,8.59,0,0,1-8.6-8.606,8.557,8.557,0,0,1,8.76-8.629A8.513,8.513,0,0,1,2019.216-373.55Zm-8.691-7a6.994,6.994,0,0,0-6.838,7.1,7.025,7.025,0,0,0,7.01,6.735,6.984,6.984,0,0,0,6.821-6.91A6.956,6.956,0,0,0,2010.525-380.548Z" transform="translate(-1976.135 399.287)" fill="#fff"/>
  <path id="Path_440" data-name="Path 440" d="M2020.532-367.968c-.872,1.676-1.8,3.506-2.778,5.309a.7.7,0,0,1-1.054.174q-1.779-1.275-3.5-2.624a.781.781,0,0,1-.1-1.223c.387-.455.78-.285,1.234-.052.894.459,1.619,1.774,2.566,1.266.772-.414,1.028-1.652,1.526-2.585a9.011,9.011,0,0,1,.7-1.2.759.759,0,0,1,.9-.217C2020.479-368.953,2020.557-368.579,2020.532-367.968Z" transform="translate(-1982.669 391.434)" fill="#fff"/>
</svg>
