<svg xmlns="http://www.w3.org/2000/svg" width="448" height="440" viewBox="0 0 448 440">
  <g id="management" transform="translate(0 -0.5)">
    <path id="Path_2324" data-name="Path 2324" d="M392,248.5a32,32,0,1,1-32-32A32,32,0,0,1,392,248.5Zm0,0" fill="#fff"/>
    <path id="Path_2325" data-name="Path 2325" d="M120,248.5a32,32,0,1,1-32-32A32,32,0,0,1,120,248.5Zm0,0" fill="#fff"/>
    <path id="Path_2326" data-name="Path 2326" d="M256,216.5a32,32,0,1,1-32-32A32,32,0,0,1,256,216.5Zm0,0" fill="#fff"/>
    <path id="Path_2327" data-name="Path 2327" d="M128.223,432.5a39.338,39.338,0,0,1-8.223-24v-80a71.972,71.972,0,0,1,4.145-23.754c-1.375-.094-2.738-.246-4.145-.246H56a55.351,55.351,0,0,0-31.473,9.711A56.061,56.061,0,0,0,0,360.5v32a40.068,40.068,0,0,0,23.289,36.313A37.764,37.764,0,0,0,32,431.7V344.5H48v88Zm0,0" fill="#fff"/>
    <path id="Path_2328" data-name="Path 2328" d="M136.246,440.5c-.086-.062-.156-.145-.246-.207v.207Zm0,0" fill="#fff"/>
    <path id="Path_2329" data-name="Path 2329" d="M305.434,302.2a56.666,56.666,0,0,0-17.937-20,20.262,20.262,0,0,0-2.336-1.5A55.914,55.914,0,0,0,256,272.5H192a56,56,0,0,0-56,56v80a24,24,0,0,0,24,24h8v-112h16v112h80v-112h16v112h8a24,24,0,0,0,24-24v-80A55.876,55.876,0,0,0,305.434,302.2Zm0,0" fill="#fff"/>
    <path id="Path_2330" data-name="Path 2330" d="M423.5,314.227A55.371,55.371,0,0,0,392,304.5H328c-1.4,0-2.762.152-4.137.246A72.082,72.082,0,0,1,328,328.5v80a39.338,39.338,0,0,1-8.223,24H400v-88h16v87.2a36.85,36.85,0,0,0,8.574-2.848A40.057,40.057,0,0,0,448,392.5v-32A56.057,56.057,0,0,0,423.5,314.227Zm0,0" fill="#fff"/>
    <path id="Path_2331" data-name="Path 2331" d="M224,104.5a95.808,95.808,0,0,0-87.16,136H182.5a48,48,0,1,1,83.008,0h45.7a95.807,95.807,0,0,0-87.2-136Zm0,0" fill="#fff"/>
    <path id="Path_2332" data-name="Path 2332" d="M416,168.5H372.8l-1.555-6.008A147.8,147.8,0,0,0,354.93,123.4l-3.2-5.352L382.4,87.324a7.926,7.926,0,0,0,0-11.238L348.426,42.1a8.113,8.113,0,0,0-11.2,0L306.5,72.828l-5.352-3.2A148.129,148.129,0,0,0,262.008,53.3L256,51.738V8.5a8,8,0,0,0-8-8H200a8,8,0,0,0-8,8V51.7l-6.008,1.555a148.141,148.141,0,0,0-39.1,16.309l-5.352,3.2L110.824,42.1a8.111,8.111,0,0,0-11.238,0L65.6,76.074a7.931,7.931,0,0,0,0,11.25l30.727,30.727-3.2,5.352a147.808,147.808,0,0,0-16.32,39.09l-1.57,6.008H32a8,8,0,0,0-8,8v48a8,8,0,0,0,8,8H42.824a47.873,47.873,0,0,1,69.512-25.344c-.129-2.215-.336-4.41-.336-6.656a112,112,0,0,1,224,0c0,2.246-.207,4.441-.336,6.656A47.873,47.873,0,0,1,405.176,232.5H416a8,8,0,0,0,8-8v-48A8,8,0,0,0,416,168.5Zm0,0" fill="#fff"/>
  </g>
</svg>
