<svg xmlns="http://www.w3.org/2000/svg" xmlns:xlink="http://www.w3.org/1999/xlink" width="120.866" height="120.925" viewBox="0 0 120.866 120.925">
  <defs>
    <linearGradient id="linear-gradient" x1="0.5" x2="0.5" y2="1" gradientUnits="objectBoundingBox">
      <stop offset="0" stop-color="#385ab0"/>
      <stop offset="1" stop-color="#2c64ed"/>
    </linearGradient>
  </defs>
  <g id="accounting" transform="translate(0 0.001)">
    <path id="Path_46" data-name="Path 46" d="M124.154,288a20.154,20.154,0,1,0,20.154,20.154A20.154,20.154,0,0,0,124.154,288Zm0,36.278a16.123,16.123,0,1,1,16.123-16.123A16.123,16.123,0,0,1,124.154,324.278Zm0,0" transform="translate(-77.8 -215.446)" fill="url(#linear-gradient)"/>
    <path id="Path_47" data-name="Path 47" d="M160.062,326.046c2.461,0,4.031,1.193,4.031,2.015h4.031c0-2.864-2.537-5.183-6.046-5.844V320h-4.031v2.217c-3.509.656-6.046,2.977-6.046,5.844,0,3.392,3.541,6.046,8.062,6.046,2.461,0,4.031,1.193,4.031,2.015s-1.57,2.015-4.031,2.015-4.031-1.193-4.031-2.015H152c0,2.864,2.537,5.183,6.046,5.845v2.217h4.031v-2.217c3.509-.656,6.046-2.977,6.046-5.845,0-3.392-3.541-6.046-8.062-6.046-2.461,0-4.031-1.193-4.031-2.016S157.6,326.046,160.062,326.046Zm0,0" transform="translate(-113.707 -239.384)" fill="url(#linear-gradient)"/>
    <path id="Path_48" data-name="Path 48" d="M102.786,116.894H18.138V68.524H50.385a6.047,6.047,0,0,0,6.046-6.046V12.092H78.6V36.277h24.185V64.493h4.031V33.427L81.451,8.061H56.431V6.045A6.047,6.047,0,0,0,50.385,0H6.046A6.047,6.047,0,0,0,0,6.045V62.477a6.047,6.047,0,0,0,6.046,6.046h8.062v52.4h92.709V92.708h-4.031ZM82.632,14.942l17.3,17.3h-17.3ZM4.03,62.477V6.046A2.016,2.016,0,0,1,6.046,4.03H50.385A2.016,2.016,0,0,1,52.4,6.046V62.477a2.016,2.016,0,0,1-2.015,2.015H6.046A2.016,2.016,0,0,1,4.03,62.477Zm0,0" transform="translate(0 0)" fill="url(#linear-gradient)"/>
    <path id="Path_49" data-name="Path 49" d="M256,200h4.031v4.031H256Zm0,0" transform="translate(-191.507 -149.615)" fill="url(#linear-gradient)"/>
    <path id="Path_50" data-name="Path 50" d="M288,200h24.185v4.031H288Zm0,0" transform="translate(-215.445 -149.615)" fill="url(#linear-gradient)"/>
    <path id="Path_51" data-name="Path 51" d="M256,168h4.031v4.031H256Zm0,0" transform="translate(-191.507 -125.677)" fill="url(#linear-gradient)"/>
    <path id="Path_52" data-name="Path 52" d="M288,168h24.185v4.031H288Zm0,0" transform="translate(-215.445 -125.677)" fill="url(#linear-gradient)"/>
    <path id="Path_53" data-name="Path 53" d="M256,232h4.031v4.031H256Zm0,0" transform="translate(-191.507 -173.553)" fill="url(#linear-gradient)"/>
    <path id="Path_54" data-name="Path 54" d="M288,232h24.185v4.031H288Zm0,0" transform="translate(-215.445 -173.553)" fill="url(#linear-gradient)"/>
    <path id="Path_55" data-name="Path 55" d="M256,264h4.031v4.031H256Zm0,0" transform="translate(-191.507 -197.492)" fill="url(#linear-gradient)"/>
    <path id="Path_56" data-name="Path 56" d="M288,264h24.185v4.031H288Zm0,0" transform="translate(-215.445 -197.492)" fill="url(#linear-gradient)"/>
    <path id="Path_57" data-name="Path 57" d="M68.339,24H24V38.108H68.339ZM64.308,34.077H28.031V28.031H64.308Zm0,0" transform="translate(-17.954 -17.954)" fill="url(#linear-gradient)"/>
    <path id="Path_58" data-name="Path 58" d="M40.062,88H36.031A4.031,4.031,0,0,0,32,92.031v4.031a4.031,4.031,0,0,0,4.031,4.031h4.031a4.031,4.031,0,0,0,4.031-4.031V92.031A4.031,4.031,0,0,0,40.062,88Zm-4.031,8.062V92.031h4.031v4.031Zm0,0" transform="translate(-23.939 -65.831)" fill="url(#linear-gradient)"/>
    <path id="Path_59" data-name="Path 59" d="M96.062,88H92.031A4.031,4.031,0,0,0,88,92.031v4.031a4.031,4.031,0,0,0,4.031,4.031h4.031a4.031,4.031,0,0,0,4.031-4.031V92.031A4.031,4.031,0,0,0,96.062,88Zm-4.031,8.062V92.031h4.031v4.031Zm0,0" transform="translate(-65.831 -65.831)" fill="url(#linear-gradient)"/>
    <path id="Path_60" data-name="Path 60" d="M152.062,88h-4.031A4.031,4.031,0,0,0,144,92.031v4.031a4.031,4.031,0,0,0,4.031,4.031h4.031a4.031,4.031,0,0,0,4.031-4.031V92.031A4.031,4.031,0,0,0,152.062,88Zm-4.031,8.062V92.031h4.031v4.031Zm0,0" transform="translate(-107.723 -65.831)" fill="url(#linear-gradient)"/>
    <path id="Path_61" data-name="Path 61" d="M40.062,144H36.031A4.031,4.031,0,0,0,32,148.031v4.031a4.031,4.031,0,0,0,4.031,4.031h4.031a4.031,4.031,0,0,0,4.031-4.031v-4.031A4.031,4.031,0,0,0,40.062,144Zm-4.031,8.062v-4.031h4.031v4.031Zm0,0" transform="translate(-23.939 -107.723)" fill="url(#linear-gradient)"/>
    <path id="Path_62" data-name="Path 62" d="M96.062,144H92.031A4.031,4.031,0,0,0,88,148.031v4.031a4.031,4.031,0,0,0,4.031,4.031h4.031a4.031,4.031,0,0,0,4.031-4.031v-4.031A4.031,4.031,0,0,0,96.062,144Zm-4.031,8.062v-4.031h4.031v4.031Zm0,0" transform="translate(-65.831 -107.723)" fill="url(#linear-gradient)"/>
    <path id="Path_63" data-name="Path 63" d="M152.062,144h-4.031A4.031,4.031,0,0,0,144,148.031v4.031a4.031,4.031,0,0,0,4.031,4.031h4.031a4.031,4.031,0,0,0,4.031-4.031v-4.031A4.031,4.031,0,0,0,152.062,144Zm-4.031,8.062v-4.031h4.031v4.031Zm0,0" transform="translate(-107.723 -107.723)" fill="url(#linear-gradient)"/>
    <path id="Path_64" data-name="Path 64" d="M40.062,200H36.031A4.031,4.031,0,0,0,32,204.031v4.031a4.031,4.031,0,0,0,4.031,4.031h4.031a4.031,4.031,0,0,0,4.031-4.031v-4.031A4.031,4.031,0,0,0,40.062,200Zm-4.031,8.062v-4.031h4.031v4.031Zm0,0" transform="translate(-23.939 -149.615)" fill="url(#linear-gradient)"/>
    <path id="Path_65" data-name="Path 65" d="M96.062,200H92.031A4.031,4.031,0,0,0,88,204.031v4.031a4.031,4.031,0,0,0,4.031,4.031h4.031a4.031,4.031,0,0,0,4.031-4.031v-4.031A4.031,4.031,0,0,0,96.062,200Zm-4.031,8.062v-4.031h4.031v4.031Zm0,0" transform="translate(-65.831 -149.615)" fill="url(#linear-gradient)"/>
    <path id="Path_66" data-name="Path 66" d="M152.062,200h-4.031A4.031,4.031,0,0,0,144,204.031v4.031a4.031,4.031,0,0,0,4.031,4.031h4.031a4.031,4.031,0,0,0,4.031-4.031v-4.031A4.031,4.031,0,0,0,152.062,200Zm-4.031,8.062v-4.031h4.031v4.031Zm0,0" transform="translate(-107.723 -149.615)" fill="url(#linear-gradient)"/>
    <path id="Path_67" data-name="Path 67" d="M328.565,250.179a6.189,6.189,0,0,0-8.549,0l-34.551,34.55a2.039,2.039,0,0,0-.4.583L280.2,295.877a2.016,2.016,0,0,0,2.673,2.673l10.565-4.865a2.022,2.022,0,0,0,.583-.4l34.548-34.551a6.045,6.045,0,0,0,0-8.551Zm-37.145,39.994-5.281,2.433,2.433-5.281,25.761-25.763,2.85,2.85Zm28.619-28.62-2.85-2.849,1.411-1.411,2.85,2.85Zm5.684-5.683L324.3,257.3l-2.85-2.85,1.427-1.425a2.06,2.06,0,0,1,2.848,0A2.017,2.017,0,0,1,325.722,255.87Zm0,0" transform="translate(-209.47 -185.871)" fill="url(#linear-gradient)"/>
  </g>
</svg>
