<svg xmlns="http://www.w3.org/2000/svg" width="23.753" height="23.754" viewBox="0 0 23.753 23.754">
  <path id="Path_13271" data-name="Path 13271" d="M22.983-19.106a2.623,2.623,0,0,1,0,3.713l-1.406,1.411-4.594-4.593,1.411-1.409a2.625,2.625,0,0,1,3.713,0ZM8.081-9.67l7.842-7.845,4.594,4.592L12.67-5.081a2.6,2.6,0,0,1-1.027.638L7.481-3.056A1.057,1.057,0,0,1,6.328-3.37a1.048,1.048,0,0,1-.272-1.111L7.444-8.644A2.6,2.6,0,0,1,8.081-9.67ZM9-18.042a1.527,1.527,0,0,1,1.5,1.5,1.472,1.472,0,0,1-1.5,1.5H4.5a1.527,1.527,0,0,0-1.5,1.5V-1.5A1.5,1.5,0,0,0,4.5,0h12A1.5,1.5,0,0,0,18-1.5V-6.042a1.526,1.526,0,0,1,1.5-1.5,1.526,1.526,0,0,1,1.5,1.5V-1.5A4.5,4.5,0,0,1,16.5,3H4.5A4.5,4.5,0,0,1,0-1.5V-13.542a4.5,4.5,0,0,1,4.5-4.5Z" transform="translate(0 20.754)" fill="#3d5aa9"/>
</svg>
