<svg xmlns="http://www.w3.org/2000/svg" width="27" height="24" viewBox="0 0 27 24">
    <path id="Path_13233" data-name="Path 13233"
        d="M11.958-6.858V-.75a.751.751,0,0,1-.75.75A.752.752,0,0,1,10.5-.5a1.5,1.5,0,0,0-1.913-.914A1.5,1.5,0,0,0,7.673.5,3.834,3.834,0,0,0,11.208,3,3.773,3.773,0,0,0,15-.792V-6.9a2.3,2.3,0,0,0-1.5-.638A2.61,2.61,0,0,0,11.958-6.858Zm15.028-.975A13.582,13.582,0,0,0,15-18.66V-19.5A1.5,1.5,0,0,0,13.5-21a1.536,1.536,0,0,0-1.542,1.5v.84A13.587,13.587,0,0,0,.014-7.833c-.1.431.4.994.876.53C3.327-9.882,5.938-9.759,8.324-5.568a.494.494,0,0,0,.924,0C10.2-7.223,11.353-9,13.458-9c2.742,0,4.134,3.226,4.251,3.431a.494.494,0,0,0,.924,0c2.391-4.2,5.02-4.284,7.434-1.735A.547.547,0,0,0,26.986-7.833Z"
        transform="translate(0 21)" fill="#3d5aa9" />
</svg>