<svg xmlns="http://www.w3.org/2000/svg" width="13" height="13" viewBox="0 0 13 13">
  <g id="Group_1667" data-name="Group 1667" transform="translate(-1658.623 -1779.135)">
    <path id="Path_13158" data-name="Path 13158" d="M7.226,4.244a.61.61,0,0,0-.772.945,1.2,1.2,0,0,1,0,1.872A.61.61,0,0,0,7.226,8a2.415,2.415,0,0,0,0-3.761Zm1.536-1.9a.609.609,0,1,0-.773.943,3.606,3.606,0,0,1,0,5.632.609.609,0,0,0,.773.943,4.785,4.785,0,0,0,1.8-3.759A4.849,4.849,0,0,0,8.762,2.344ZM10.319.467a.609.609,0,0,0-.773.943,6.067,6.067,0,0,1,0,9.408.609.609,0,0,0,.773.943A7.223,7.223,0,0,0,13,6.1,7.213,7.213,0,0,0,10.319.467ZM3.842,4.058a.63.63,0,0,0,.627-.381l.857-2.142A.634.634,0,0,0,5.083.789L3.37-.281A.61.61,0,0,0,2.613-.2a8.95,8.95,0,0,0,0,12.64.607.607,0,0,0,.755.086L5.081,11.46a.613.613,0,0,0,.244-.744L4.469,8.575a.608.608,0,0,0-.628-.38L2.489,8.33a6.836,6.836,0,0,1,0-4.406l1.352.135Z" transform="translate(1658.623 1779.51)" fill="#5ede6e"/>
  </g>
</svg>
