<svg id="Capa_1" data-name="Capa 1" xmlns="http://www.w3.org/2000/svg" viewBox="0 0 599.12 507"><defs><style>.cls-1{fill:#fff;}.cls-1,.cls-2,.cls-3,.cls-4,.cls-5{fill-rule:evenodd;}.cls-2{fill:#b5c4cf;}.cls-3{fill:#d7e7ec;}.cls-4{fill:#edf3f4;}.cls-5,.cls-6{fill:#9aafb7;}.cls-7{fill:#7e8a94;}.cls-8{fill:#5f6c76;}.cls-9{fill:#4f5a61;}.cls-10{fill:#d82f3d;}.cls-11{fill:#c42330;}.cls-12{fill:#f3d333;}.cls-13{fill:#e8a42b;}.cls-14{fill:#f5faff;}.cls-15{fill:#d7e1f2;}</style></defs><path class="cls-1" d="M67.7,335.81.3,148.41a5.32,5.32,0,0,1,3.2-6.75C92.11,109.79,192,80.15,277.3,43.73c3.82-2.4,6.81,0,8.46,4.52L391.65,321.19l28.75,80a5.29,5.29,0,0,1-3.17,6.75L214.61,480.78l-79,28.4a5.28,5.28,0,0,1-6.75-3.17Z" transform="translate(0 -2.5)"/><path class="cls-1" d="M123.88,273.62,90.23,77.36a5.28,5.28,0,0,1,4.28-6.1L326.27,31.52l53.08-8.74c2.91-1.26,7.63.2,8.75,6.69l57.33,286.3,14.34,83.75a5.29,5.29,0,0,1-4.28,6.1L243.27,442l-82.74,14.2a5.33,5.33,0,0,1-6.1-4.31Z" transform="translate(0 -2.5)"/><path class="cls-1" d="M188.82,215.76V404.45A5.51,5.51,0,0,0,194.3,410H506.51a5.52,5.52,0,0,0,5.49-5.51V68.35H456.25c-5.36,0-16.51.76-16.51-11.41L439.62,2.5H194.3A5.5,5.5,0,0,0,188.81,8V215.75Z" transform="translate(0 -2.5)"/><path class="cls-2" d="M95.81,109.9c-31.4,10.57-62.5,21-92.31,31.76a5.32,5.32,0,0,0-3.2,6.75l67.4,187.4L128.87,506a5.28,5.28,0,0,0,6.75,3.17l79-28.41,180-64.7Z" transform="translate(0 -2.5)"/><path class="cls-3" d="M188.82,55.09,94.51,71.26a5.29,5.29,0,0,0-4.28,6.1l5.58,32.55,28.08,163.71L154.43,451.9a5.34,5.34,0,0,0,6.1,4.31L243.27,442l151.31-25.94L430.17,410H411.54Z" transform="translate(0 -2.5)"/><path class="cls-4" d="M512,315.8V67.5c0-1.58-.67-1.85-3.11-4.22L448.71,5.88c-2.84-2.7-3.31-3.38-5-3.38H194.3A5.51,5.51,0,0,0,188.81,8V404.45A5.52,5.52,0,0,0,194.3,410H506.51a5.52,5.52,0,0,0,5.49-5.51Z" transform="translate(0 -2.5)"/><path class="cls-2" d="M188.82,55.09l-22.1,3.78V424.73a5.5,5.5,0,0,0,5.49,5.51H311.9l82.68-14.17,35.59-6.1H194.3a5.52,5.52,0,0,1-5.48-5.52V55.09Z" transform="translate(0 -2.5)"/><path class="cls-5" d="M123.88,273.62,95.81,109.9,73.1,117.56l3.49,20.34,28.08,163.72L135.24,479.9a5.3,5.3,0,0,0,6.07,4.31L224.05,470l39.26-6.72,118.24-42.55-1.41-2.2-68.24,11.7L243.27,442l-82.74,14.21a5.35,5.35,0,0,1-6.1-4.32Z" transform="translate(0 -2.5)"/><path class="cls-3" d="M512,315.8V68.35c0-3-1-3-3.11-5.07L448.71,5.88c-2.84-2.7-3.31-3.38-5-3.38H378.56c74.61,99.89,78.87,280,23.5,392.35-2.55,5.23-5.22,10.24-8,15.11H506.51a5.52,5.52,0,0,0,5.49-5.51Z" transform="translate(0 -2.5)"/><path class="cls-1" d="M439.73,56.94c0,12.17,11.15,11.41,16.52,11.41H512V67.5c0-1.58-.67-1.85-3.11-4.23L448.71,5.87c-2.84-2.7-3.31-3.37-5-3.37h-4.11Z" transform="translate(0 -2.5)"/><path class="cls-2" d="M508.89,63.28,448.71,5.88c-2.84-2.71-3.31-3.38-5-3.38h-4.11l.11,54.44c0,12.17,11.15,11.41,16.52,11.41H512V67.5C512,65.92,511.33,65.65,508.89,63.28Z" transform="translate(0 -2.5)"/><path class="cls-6" d="M462.41,122.51H241.51a7.73,7.73,0,1,1,0-15.46h220.9a7.73,7.73,0,0,1,0,15.46Z" transform="translate(0 -2.5)"/><path class="cls-6" d="M462.41,177.41H241.51a7.73,7.73,0,1,1,0-15.46h220.9a7.73,7.73,0,0,1,0,15.46Z" transform="translate(0 -2.5)"/><path class="cls-6" d="M462.41,232.32H241.51a7.73,7.73,0,1,1,0-15.46h220.9a7.73,7.73,0,0,1,0,15.46Z" transform="translate(0 -2.5)"/><path class="cls-6" d="M462.41,287.22H241.51a7.73,7.73,0,1,1,0-15.46h220.9a7.73,7.73,0,0,1,0,15.46Z" transform="translate(0 -2.5)"/><path class="cls-6" d="M462.41,342.13H241.51a7.73,7.73,0,0,1,0-15.46h220.9a7.73,7.73,0,1,1,0,15.46Z" transform="translate(0 -2.5)"/><path class="cls-7" d="M374.15,259.88l9.46,5.41,9.46-5.41V215a22.78,22.78,0,0,0-22.71-22.71H365a2.7,2.7,0,0,0-2.7,2.7v13.79a2.7,2.7,0,0,0,2.7,2.71h5.95a3.37,3.37,0,0,1,3.37,3.37Z" transform="translate(0 -2.5)"/><path class="cls-8" d="M374.15,259.88l.12-45a3.37,3.37,0,0,0-3.37-3.37H379a3.37,3.37,0,0,1,3.37,3.37l-.12,45Z" transform="translate(0 -2.5)"/><path class="cls-8" d="M393.07,259.88H374.15a5.41,5.41,0,0,0-5.41,5.41v41.1l11.63,5.41,12.7-5.41,5.41-23.25Z" transform="translate(0 -2.5)"/><path class="cls-9" d="M368.74,306.39v-41.1a5.41,5.41,0,0,1,5.41-5.41H385a5.41,5.41,0,0,0-5.41,5.41v41.1Z" transform="translate(0 -2.5)"/><path class="cls-9" d="M393.07,306.39H372a10.81,10.81,0,0,0-10.81,10.82v39.48l31.9-5.41,5.41-22.18Z" transform="translate(0 -2.5)"/><path class="cls-7" d="M566.13,259.88l-9.87,5.41-9-5.41V215a22.78,22.78,0,0,1,22.71-22.71h5.41A2.7,2.7,0,0,1,578,195v13.79a2.7,2.7,0,0,1-2.7,2.71h-6a3.37,3.37,0,0,0-3.37,3.37Z" transform="translate(0 -2.5)"/><path class="cls-8" d="M546.66,259.88h18.93a5.41,5.41,0,0,1,5.41,5.41v41.1l-11.09,5.41-12.7-5.41-5.68-23.25Z" transform="translate(0 -2.5)"/><path class="cls-9" d="M547.21,306.39H568.3a10.81,10.81,0,0,1,10.81,10.82v39.48l-31.9-5.41-5.41-22.45Z" transform="translate(0 -2.5)"/><path class="cls-10" d="M393.07,238.25H547.21V341.81H393.07Z" transform="translate(0 -2.5)"/><path class="cls-11" d="M393.07,331H547.21v10.81H393.07Z" transform="translate(0 -2.5)"/><path class="cls-8" d="M405,434v16.23a10.81,10.81,0,0,1-10.81,10.81H374.69a10.81,10.81,0,0,1-10.82-10.81V434Z" transform="translate(0 -2.5)"/><path class="cls-8" d="M576.41,434v16.23a10.81,10.81,0,0,1-10.82,10.81H546.12a10.81,10.81,0,0,1-10.81-10.81V434Z" transform="translate(0 -2.5)"/><path class="cls-9" d="M385.5,461.06H374.69a10.81,10.81,0,0,1-10.82-10.81V434h10.82v16.23A10.81,10.81,0,0,0,385.5,461.06Z" transform="translate(0 -2.5)"/><path class="cls-9" d="M556.94,461.06H546.12a10.81,10.81,0,0,1-10.81-10.81V434h10.81v16.23A10.81,10.81,0,0,0,556.94,461.06Z" transform="translate(0 -2.5)"/><path class="cls-10" d="M527.2,340.94h27.58a32.45,32.45,0,0,1,32.45,32.45v35.75h-60L521.79,375Z" transform="translate(0 -2.5)"/><path class="cls-10" d="M590.11,435.55l-54.8,9.29H529.9l-8.11-1.62L511,444.84H429.31l-8.11-1.62-10.82,1.62H405l-54.8-9.29a10.81,10.81,0,0,1-9-10.66V414.55a5.41,5.41,0,0,1,5.4-5.41h66.52l57.33-8.1,56.79,8.1h66.52a5.41,5.41,0,0,1,5.4,5.41v10.34A10.81,10.81,0,0,1,590.11,435.55Z" transform="translate(0 -2.5)"/><path class="cls-11" d="M599.12,414.29a10.81,10.81,0,0,1-9,10.44L535.53,434a2.28,2.28,0,0,1-.45,0H405.2a2.28,2.28,0,0,1-.45,0l-50.53-8.56a2.71,2.71,0,0,1-2.25-2.67v-8.2a5.42,5.42,0,0,1,5.41-5.41H346.56a5.4,5.4,0,0,0-5.39,5.22s0,0,0-.07v10.59a10.81,10.81,0,0,0,9,10.67l54.58,9.25a2.28,2.28,0,0,0,.45,0h5.18l9.83-1.62,9.1,1.62H511l9.7-1.62,9.23,1.62h5.18a2.28,2.28,0,0,0,.45,0l54.58-9.25a10.81,10.81,0,0,0,9-10.67V414.29Z" transform="translate(0 -2.5)"/><path class="cls-10" d="M413.08,341l-27.26-.21a32.45,32.45,0,0,0-32.77,32.44v35.91h60Z" transform="translate(0 -2.5)"/><path class="cls-11" d="M391.3,340.87a32.44,32.44,0,0,0-30.13,32.36v35.91h-8.12V373.23a32.45,32.45,0,0,1,31.51-32.43Z" transform="translate(0 -2.5)"/><path class="cls-12" d="M532.6,365.88h33a5.41,5.41,0,0,1,5.41,5.41v13.52a5.41,5.41,0,0,1-5.41,5.41h-33l-5.4-12.17Z" transform="translate(0 -2.5)"/><path class="cls-13" d="M548.83,390.22H532.6l-5.4-12.17,5.4-12.17h16.23a5.41,5.41,0,0,0-5.41,5.41v13.52A5.41,5.41,0,0,0,548.83,390.22Z" transform="translate(0 -2.5)"/><path class="cls-12" d="M407.68,390.22h-33a5.41,5.41,0,0,1-5.41-5.41V371.29a5.41,5.41,0,0,1,5.41-5.41h33l5.4,12.17Z" transform="translate(0 -2.5)"/><path class="cls-13" d="M385.5,390.22H374.69a5.41,5.41,0,0,1-5.41-5.41V371.29a5.41,5.41,0,0,1,5.41-5.41H385.5a5.41,5.41,0,0,0-5.41,5.41v13.52A5.42,5.42,0,0,0,385.5,390.22Z" transform="translate(0 -2.5)"/><path class="cls-14" d="M527.2,295.57H413.08a5.4,5.4,0,0,1-5.4-5.4V259.88a5.41,5.41,0,0,1,5.4-5.41H527.2a5.41,5.41,0,0,1,5.4,5.41v30.29A5.4,5.4,0,0,1,527.2,295.57Z" transform="translate(0 -2.5)"/><path class="cls-15" d="M532.6,290.17v-2.71H421.2a5.41,5.41,0,0,1-5.41-5.41V254.47h-2.71a5.41,5.41,0,0,0-5.4,5.41v30.29a5.4,5.4,0,0,0,5.4,5.4H527.2A5.4,5.4,0,0,0,532.6,290.17Z" transform="translate(0 -2.5)"/><path class="cls-10" d="M547.21,238.25l-11.13-31.54a21.64,21.64,0,0,0-20.4-14.43H424.6a21.64,21.64,0,0,0-20.4,14.43l-11.13,31.54Z" transform="translate(0 -2.5)"/><path class="cls-11" d="M547.21,238.25H393.07l3.82-10.82h146.5Z" transform="translate(0 -2.5)"/><path class="cls-11" d="M509.35,192.28V203.1a10.81,10.81,0,0,1-10.82,10.81H441.75a10.81,10.81,0,0,1-10.82-10.81V192.28Z" transform="translate(0 -2.5)"/><path class="cls-12" d="M426.6,425.91H413.08a2.7,2.7,0,0,0-2.7,2.7v16.23h18.93V428.61A2.7,2.7,0,0,0,426.6,425.91Z" transform="translate(0 -2.5)"/><path class="cls-12" d="M527.2,425.91H513.68a2.7,2.7,0,0,0-2.71,2.7v16.23H529.9V428.61A2.7,2.7,0,0,0,527.2,425.91Z" transform="translate(0 -2.5)"/><path class="cls-13" d="M421.2,425.91a2.7,2.7,0,0,0-2.71,2.7v16.23h-8.11V428.61a2.7,2.7,0,0,1,2.7-2.7Z" transform="translate(0 -2.5)"/><path class="cls-13" d="M521.79,425.91a2.7,2.7,0,0,0-2.71,2.7v16.23H511V428.61a2.7,2.7,0,0,1,2.71-2.7Z" transform="translate(0 -2.5)"/><path class="cls-11" d="M407.68,406.44v-67.6a27,27,0,0,1,27-27h70.84a27,27,0,0,1,27,27v67.6a2.7,2.7,0,0,1-2.7,2.7H410.38A2.7,2.7,0,0,1,407.68,406.44Z" transform="translate(0 -2.5)"/><path class="cls-8" d="M516.38,379.4V341.54A13.52,13.52,0,0,0,502.86,328H437.42a13.52,13.52,0,0,0-13.52,13.52V379.4a13.52,13.52,0,0,0,13.52,13.52h65.44A13.52,13.52,0,0,0,516.38,379.4Z" transform="translate(0 -2.5)"/><path class="cls-9" d="M500.7,348.3H440.12a4.06,4.06,0,0,1,0-8.11H500.7a4.06,4.06,0,0,1,0,8.11Z" transform="translate(0 -2.5)"/><path class="cls-9" d="M500.7,364.53H440.12a4.06,4.06,0,0,1,0-8.11H500.7a4.06,4.06,0,0,1,0,8.11Z" transform="translate(0 -2.5)"/><path class="cls-9" d="M500.7,380.75H440.12a4.06,4.06,0,0,1,0-8.11H500.7a4.06,4.06,0,0,1,0,8.11Z" transform="translate(0 -2.5)"/></svg>