<svg xmlns="http://www.w3.org/2000/svg" width="27.419" height="32.059" viewBox="0 0 27.419 32.059">
  <g id="Group_1667" data-name="Group 1667" transform="translate(-244.934 -379.41)">
    <path id="Path_11107" data-name="Path 11107" d="M257.578,546.766a2.1,2.1,0,0,1-1.474-1.284,2.006,2.006,0,0,1-2.627-.994,1.971,1.971,0,0,1-2.9-2.029c-.14-.022-.27-.042-.4-.063a1.927,1.927,0,0,1-1.452-2.713.109.109,0,0,1,.015-.028c.658-.742.4-1.557.19-2.369a.752.752,0,0,0-.467-.541c-1.033-.447-2.059-.908-3.086-1.368-.466-.209-.546-.426-.329-.89q1.654-3.523,3.312-7.043c.2-.426.426-.508.852-.312,1.088.5,2.178,1,3.261,1.512a2.365,2.365,0,0,0,1.5.117c.747-.138,1.49-.311,2.243-.4a3.883,3.883,0,0,1,2.375.525.342.342,0,0,0,.4-.018,4.736,4.736,0,0,1,4.24-.352c.518.192,1.03.4,1.547.589a1.784,1.784,0,0,0,1.617-.137c.691-.407,1.41-.766,2.119-1.142.421-.224.7-.129.866.309q1.456,3.742,2.906,7.487a.529.529,0,0,1-.335.8q-1.408.6-2.819,1.2c-.132.056-.235.1-.214.284a1.911,1.911,0,0,1-1.79,2.055.413.413,0,0,0-.083.038,1.955,1.955,0,0,1-2.187,2.192,2,2,0,0,1-.485,1.426,2.038,2.038,0,0,1-1.328.662,1.929,1.929,0,0,1-1.12,2.106,2.324,2.324,0,0,1-2.4-.443,2.357,2.357,0,0,1-1.255.825Zm.256-17.135a2.574,2.574,0,0,0-1.423-.276c-.69.087-1.375.224-2.059.356a3.519,3.519,0,0,1-2.237-.129q-1.09-.51-2.182-1.015c-.262-.122-.527-.239-.821-.372-1.009,2.146-2.006,4.27-3.015,6.414.965.428,1.893.85,2.83,1.251a1.532,1.532,0,0,1,.9.977c.061.185.114.373.178.589a1.936,1.936,0,0,1,2.019-.463,1.957,1.957,0,0,1,1.31,1.613,2,2,0,0,1,2.3,1.433,10.761,10.761,0,0,0,4.627,1.909.844.844,0,0,0,.208.136q.943.523,1.888,1.043a.946.946,0,0,0,1.363-.294.956.956,0,0,0-.458-1.342c-.8-.453-1.6-.9-2.4-1.349-.2-.113-.4-.217-.594-.345a.495.495,0,0,1,.465-.869,1.45,1.45,0,0,1,.249.13c1.174.655,2.345,1.314,3.522,1.965a1.574,1.574,0,0,0,.49.19.907.907,0,0,0,.99-.594.925.925,0,0,0-.417-1.135c-.783-.457-1.577-.895-2.365-1.342-.245-.139-.494-.27-.73-.424a.484.484,0,0,1-.158-.66.476.476,0,0,1,.621-.209,1.742,1.742,0,0,1,.276.145q1.619.915,3.239,1.83a.937.937,0,1,0,.925-1.62c-1.618-.928-3.233-1.861-4.867-2.763a1.7,1.7,0,0,0-.95-.222,8.6,8.6,0,0,0-1.629.395c-.832.268-1.633.64-2.475.86a3.617,3.617,0,0,1-4.144-1.572.507.507,0,0,1,.148-.8c.122-.079.251-.148.377-.222A18.516,18.516,0,0,0,257.835,529.631Zm10.769-.72c-.651.349-1.262.664-1.861,1a2.462,2.462,0,0,1-2.05.21c-.613-.2-1.213-.439-1.816-.669a3.73,3.73,0,0,0-3.628.433,11.335,11.335,0,0,0-1.422,1.169,18.994,18.994,0,0,1-3.072,2.406c-.1.063-.195.134-.3.208a2.6,2.6,0,0,0,1.66.908,4.4,4.4,0,0,0,2.01-.363c.713-.261,1.416-.554,2.133-.8a3.427,3.427,0,0,1,3.112.306c1.2.748,2.458,1.409,3.685,2.116.5.29.992.6,1.535.933l2.627-1.121C270.342,533.4,269.479,531.17,268.6,528.912ZM253.736,539.56a.837.837,0,0,0-.764.408c-.458.817-.906,1.64-1.325,2.476a.923.923,0,0,0,1.61.882c.473-.82.931-1.65,1.337-2.5A.906.906,0,0,0,253.736,539.56Zm1.639,5.076a.807.807,0,0,0,.664-.41c.377-.67.751-1.344,1.087-2.036a.9.9,0,0,0-.452-1.187.934.934,0,0,0-1.2.358c-.362.644-.716,1.292-1.038,1.957A.933.933,0,0,0,255.375,544.636Zm-5.851-4.166a1,1,0,0,0,.679.909.934.934,0,0,0,1.1-.444c.3-.534.585-1.078.871-1.62a.94.94,0,1,0-1.651-.877c-.277.512-.554,1.024-.82,1.541A3.938,3.938,0,0,0,249.524,540.47Zm10.231,2.734a.981.981,0,0,0-.687-.9.915.915,0,0,0-1.073.427c-.291.517-.566,1.041-.842,1.565a.938.938,0,1,0,1.645.884c.27-.493.537-.987.791-1.487A3.416,3.416,0,0,0,259.755,543.2Zm.24,1.871c.273.148.511.3.766.409a.925.925,0,0,0,1.135-1.364c-.283-.4-.751-.507-1.11-.742-.129.321-.224.6-.346.857S260.159,544.769,260,545.076Z" transform="translate(0 -135.297)" fill="#b2b2b2"/>
    <path id="Path_11108" data-name="Path 11108" d="M355.289,379.41c.017.012.032.032.05.035a2.459,2.459,0,0,1,1.982,2.981,3.323,3.323,0,0,1-1.009,2.095.69.69,0,0,0-.072.1,12.775,12.775,0,0,1,1.583.377,5.152,5.152,0,0,1,1.3.715,1.758,1.758,0,0,1,.667,1.458c.007,1.314.005,2.628,0,3.942,0,.373-.192.587-.5.588s-.5-.21-.5-.587c0-1.251-.012-2.5,0-3.754a1.217,1.217,0,0,0-.684-1.169,5.812,5.812,0,0,0-2.133-.559,9.13,9.13,0,0,0-3.715.287,3.494,3.494,0,0,0-.664.268,1.2,1.2,0,0,0-.693,1.162c.017,1.241.006,2.482,0,3.724,0,.407-.172.624-.488.628s-.512-.221-.513-.64c0-1.231.014-2.462-.005-3.693a2.178,2.178,0,0,1,1.193-2.045,6.311,6.311,0,0,1,2.173-.649c.058-.01.117-.018.216-.033-.081-.09-.133-.149-.185-.207a3.422,3.422,0,0,1-.8-3.4,2.147,2.147,0,0,1,1.681-1.555c.079-.02.156-.047.235-.07Zm1.059,2.661c0-.988-.4-1.509-1.177-1.638a1.4,1.4,0,0,0-1.727.914,2.466,2.466,0,0,0,.443,2.242,1.149,1.149,0,0,0,1.916.018A2.519,2.519,0,0,0,356.348,382.071Z" transform="translate(-96.207)" fill="#b2b2b2"/>
  </g>
</svg>
