<svg xmlns="http://www.w3.org/2000/svg" width="24.878" height="22.591" viewBox="0 0 24.878 22.591">
  <g id="Group_1628" data-name="Group 1628" transform="translate(-1703.371 -57.159)">
    <g id="Group_1516" data-name="Group 1516" transform="translate(1496.48 -543.584)" style="isolation: isolate">
      <path id="Path_13013" data-name="Path 13013" d="M218.019,613.365a1.719,1.719,0,0,1-1.719,1.719h-2.062a1.719,1.719,0,0,1-1.719-1.719V611.3a1.719,1.719,0,0,1,1.719-1.719H216.3a1.719,1.719,0,0,1,1.719,1.719Zm0,8.25a1.719,1.719,0,0,1-1.719,1.719h-2.062a1.719,1.719,0,0,1-1.719-1.719v-2.062a1.719,1.719,0,0,1,1.719-1.719H216.3a1.719,1.719,0,0,1,1.719,1.719Zm1.375-10.312a1.719,1.719,0,0,1,1.719-1.719h2.062a1.719,1.719,0,0,1,1.719,1.719v2.062a1.719,1.719,0,0,1-1.719,1.719h-2.062a1.719,1.719,0,0,1-1.719-1.719Zm5.5,10.312a1.719,1.719,0,0,1-1.719,1.719h-2.062a1.719,1.719,0,0,1-1.719-1.719v-2.062a1.719,1.719,0,0,1,1.719-1.719h2.062a1.719,1.719,0,0,1,1.719,1.719Zm1.375-10.312a1.719,1.719,0,0,1,1.719-1.719h2.062a1.719,1.719,0,0,1,1.719,1.719v2.062a1.719,1.719,0,0,1-1.719,1.719h-2.062a1.719,1.719,0,0,1-1.719-1.719Zm5.5,10.312a1.719,1.719,0,0,1-1.719,1.719h-2.062a1.719,1.719,0,0,1-1.719-1.719v-2.062a1.719,1.719,0,0,1,1.719-1.719h2.062a1.719,1.719,0,0,1,1.719,1.719Z" fill="#bdbdbd"/>
    </g>
    <g id="Path_11048" data-name="Path 11048" transform="translate(1704.996 68.534)" fill="#3d5aa9" stroke-linejoin="round">
      <path d="M 5.25 1.375 C 4.285049915313721 1.375 3.5 0.5900599956512451 3.5 -0.3747699856758118 L 3.5 -2.749769926071167 L 1.125 -2.749769926071167 C 0.1600500047206879 -2.749769926071167 -0.625 -3.53491997718811 -0.625 -4.5 C -0.625 -5.464829921722412 0.1600500047206879 -6.249770164489746 1.125 -6.249770164489746 L 3.5 -6.249770164489746 L 3.5 -8.624770164489746 C 3.5 -9.589850425720215 4.285049915313721 -10.375 5.25 -10.375 C 6.214950084686279 -10.375 7 -9.589850425720215 7 -8.624770164489746 L 7 -6.249770164489746 L 9.375 -6.249770164489746 C 10.3401403427124 -6.249770164489746 11.125 -5.464829921722412 11.125 -4.5 C 11.125 -3.53491997718811 10.33994960784912 -2.749769926071167 9.375 -2.749769926071167 L 7 -2.749769926071167 L 7 -0.3747699856758118 C 7 0.5900599956512451 6.214950084686279 1.375 5.25 1.375 Z" stroke="none"/>
      <path d="M 5.25 -9.375 C 4.835859775543213 -9.375 4.5 -9.039380073547363 4.5 -8.624770164489746 L 4.5 -5.249770164489746 L 1.125 -5.249770164489746 C 0.7108602523803711 -5.249770164489746 0.375 -4.914609909057617 0.375 -4.5 C 0.375 -4.085390090942383 0.7108602523803711 -3.749770164489746 1.125 -3.749770164489746 L 4.5 -3.749770164489746 L 4.5 -0.3747701644897461 C 4.5 0.03983974456787109 4.835859775543213 0.375 5.25 0.375 C 5.664140224456787 0.375 6 0.03983974456787109 6 -0.3747701644897461 L 6 -3.749770164489746 L 9.375 -3.749770164489746 C 9.789139747619629 -3.749770164489746 10.125 -4.085390090942383 10.125 -4.5 C 10.125 -4.914839744567871 9.78956127166748 -5.250572204589844 9.375 -5.249770164489746 L 6 -5.249770164489746 L 6 -8.624770164489746 C 6 -9.039380073547363 5.664140224456787 -9.375 5.25 -9.375 M 5.25 -11.375 C 6.766360282897949 -11.375 8 -10.14124965667725 8 -8.624770164489746 L 8 -7.249770164489746 L 9.375 -7.249770164489746 C 10.89155006408691 -7.249770164489746 12.125 -6.01623010635376 12.125 -4.5 C 12.125 -2.983520030975342 10.89136028289795 -1.749770164489746 9.375 -1.749770164489746 L 8 -1.749770164489746 L 8 -0.3747701644897461 C 8 1.141460418701172 6.766360282897949 2.375 5.25 2.375 C 3.733640193939209 2.375 2.5 1.141460418701172 2.5 -0.3747701644897461 L 2.5 -1.749770164489746 L 1.125 -1.749770164489746 C -0.3913602828979492 -1.749770164489746 -1.625 -2.983520030975342 -1.625 -4.5 C -1.625 -6.01623010635376 -0.3913602828979492 -7.249770164489746 1.125 -7.249770164489746 L 2.5 -7.249770164489746 L 2.5 -8.624770164489746 C 2.5 -10.14124965667725 3.733640193939209 -11.375 5.25 -11.375 Z" stroke="none" fill="#fff"/>
    </g>
  </g>
</svg>
