<svg xmlns="http://www.w3.org/2000/svg" xmlns:xlink="http://www.w3.org/1999/xlink" width="24.619" height="21.28" viewBox="0 0 24.619 21.28">
  <defs>
    <clipPath id="clip-path">
      <rect id="Rectangle_40" data-name="Rectangle 40" width="24.62" height="21.28" fill="#3d5aa9"/>
    </clipPath>
  </defs>
  <g id="Group_1633" data-name="Group 1633" transform="translate(21329.619 15960.14)">
    <g id="studying" transform="translate(-21329.619 -15960.14)">
      <g id="Group_1298" data-name="Group 1298" clip-path="url(#clip-path)">
        <path id="Path_11078" data-name="Path 11078" d="M5.581,19.265c0,.242,0,.47,0,.7a1.294,1.294,0,1,1-2.588.014c-.007-.236,0-.472,0-.731-.611,0-1.192-.005-1.773,0a.835.835,0,0,1-.844-.438A1.146,1.146,0,0,1,.406,17.7a.445.445,0,0,1,.181-.195c.236-.1.255-.28.242-.5a5.8,5.8,0,0,1,0-.615,1.046,1.046,0,0,1,1.05-1.023c.516-.009,1.032,0,1.587,0-.038-.1-.066-.17-.1-.242Q2.141,12.089.9,9.053a.667.667,0,0,0-.277-.3,1.139,1.139,0,0,1,.4-2.15.362.362,0,0,0,.238-.122C2.25,4.977,3.227,3.471,4.247,1.9a.675.675,0,0,1-.165-.088A1.037,1.037,0,0,1,5.333.171c.349.214.685.447,1.036.678a3.693,3.693,0,0,1,1.8-.808A3.638,3.638,0,0,1,9.84.175a.582.582,0,0,1,.339.961Q9.093,2.79,8,4.442q-.5.76-1,1.519a.58.58,0,0,1-1.041.057,3.959,3.959,0,0,1-.8-3.1c.049-.379.066-.377-.326-.559l-2.927,4.5a1.183,1.183,0,0,1-.289,1.924c.024.069.046.145.076.219q1.242,3.061,2.481,6.124a.317.317,0,0,0,.351.244c1-.012,2-.007,3-.005a1.066,1.066,0,0,1,1.152,1.148c0,.254,0,.507,0,.783h3.44c0-.16,0-.314,0-.468a.822.822,0,0,1,.84-.842c.238-.006.476-.007.713,0,.138,0,.191-.045.187-.184-.007-.236,0-.472,0-.72h4.476c0,.248.005.483,0,.718,0,.137.044.191.184.186.238-.008.476-.007.713,0a.828.828,0,0,1,.851.858c0,.147,0,.294,0,.474h.281c.894,0,1.788,0,2.682,0,.641,0,.939.319.937.988a.841.841,0,0,1-.947.935l-1.7.006a.306.306,0,0,0-.071.028c0,.216,0,.443,0,.67a1.3,1.3,0,1,1-2.6-.006c0-.22,0-.441,0-.68Z" transform="translate(0 0.001)" fill="#3d5aa9"/>
        <path id="Path_11079" data-name="Path 11079" d="M115.405,32.827l1.356.536v5.148h14.073c0-.079.01-.158.01-.237q0-3.974,0-7.948c0-.318,0-.319-.333-.319q-5.45,0-10.9,0a.307.307,0,0,1-.347-.214,2.283,2.283,0,0,0-.825-.988c-.072-.051-.142-.1-.214-.157l0-.076a1.81,1.81,0,0,1,.293-.048q3.346,0,6.692,0H130.6a1.6,1.6,0,0,1,1.727,1.735q0,4.491,0,8.982a1.6,1.6,0,0,1-1.747,1.742H117.022a1.6,1.6,0,0,1-1.736-1.727c0-1.969,0-3.937,0-5.906a2.446,2.446,0,0,1,.114-.526" transform="translate(-107.706 -26.651)" fill="#3d5aa9"/>
        <path id="Path_11080" data-name="Path 11080" d="M124.49,42.852l1.9-2.888a1.6,1.6,0,0,1,.934,1.419,1.808,1.808,0,0,1-1.088,1.706,1.593,1.593,0,0,1-1.75-.238" transform="translate(-116.306 -37.337)" fill="#3d5aa9"/>
      </g>
    </g>
  </g>
</svg>
