<svg id="user-3" xmlns="http://www.w3.org/2000/svg" width="56.385" height="67.585" viewBox="0 0 56.385 67.585">
  <path id="Path_12988" data-name="Path 12988" d="M103.309,32.555a15.75,15.75,0,0,0,11.51-4.769,15.75,15.75,0,0,0,4.768-11.509,15.752,15.752,0,0,0-4.769-11.509,16.274,16.274,0,0,0-23.018,0,15.751,15.751,0,0,0-4.769,11.509A15.75,15.75,0,0,0,91.8,27.787,15.754,15.754,0,0,0,103.309,32.555Zm0,0" transform="translate(-75.543)" fill="#afafaf"/>
  <path id="Path_12989" data-name="Path 12989" d="M56.249,266.639a40.2,40.2,0,0,0-.548-4.27,33.643,33.643,0,0,0-1.05-4.294,21.209,21.209,0,0,0-1.765-4,15.112,15.112,0,0,0-2.662-3.469,11.735,11.735,0,0,0-3.823-2.4,13.213,13.213,0,0,0-4.881-.883,4.954,4.954,0,0,0-2.646,1.122c-.793.517-1.721,1.115-2.756,1.777a15.793,15.793,0,0,1-3.566,1.571,13.848,13.848,0,0,1-8.723,0,15.754,15.754,0,0,1-3.563-1.571c-1.026-.655-1.954-1.253-2.759-1.778a4.947,4.947,0,0,0-2.645-1.122,13.2,13.2,0,0,0-4.88.884,11.726,11.726,0,0,0-3.824,2.4A15.113,15.113,0,0,0,3.5,254.071a21.249,21.249,0,0,0-1.765,4,33.723,33.723,0,0,0-1.05,4.293,40.063,40.063,0,0,0-.548,4.272C.045,267.934,0,269.276,0,270.632a11.222,11.222,0,0,0,3.333,8.49,12,12,0,0,0,8.589,3.133H44.464a12,12,0,0,0,8.588-3.133,11.217,11.217,0,0,0,3.333-8.491C56.385,269.27,56.339,267.926,56.249,266.639Zm0,0" transform="translate(0 -214.671)" fill="#afafaf"/>
</svg>
