<svg id="play" xmlns="http://www.w3.org/2000/svg" width="90.125" height="90.125" viewBox="0 0 90.125 90.125">
  <g id="Group_5" data-name="Group 5">
    <path id="Path_11" data-name="Path 11" d="M45.063,85.619A40.556,40.556,0,1,0,4.506,45.063,40.556,40.556,0,0,0,45.063,85.619Zm0,4.506A45.063,45.063,0,1,0,0,45.063,45.063,45.063,0,0,0,45.063,90.125Z" fill-rule="evenodd"/>
  </g>
  <g id="Group_6" data-name="Group 6" transform="translate(31.543 25.562)">
    <path id="Path_12" data-name="Path 12" d="M91.561,73.255,70.839,59.44V87.07Zm4.187-2.624a3.154,3.154,0,0,1,0,5.249L71.236,92.221a3.155,3.155,0,0,1-4.9-2.625V56.914a3.154,3.154,0,0,1,4.9-2.624Z" transform="translate(-66.332 -53.755)" fill-rule="evenodd"/>
  </g>
</svg>
