<svg xmlns="http://www.w3.org/2000/svg" width="12.25" height="12.252" viewBox="0 0 12.25 12.252">
  <path id="Path_13009" data-name="Path 13009" d="M183.612,476.385a1.48,1.48,0,1,1,1.471-1.485A1.484,1.484,0,0,1,183.612,476.385Zm1.271,9.294h-2.54V477.5h2.54Zm9.505,0h-2.534V481.7c0-.948-.019-2.165-1.32-2.165-1.321,0-1.523,1.03-1.523,2.1v4.05h-2.537V477.5h2.436v1.117h.035a2.669,2.669,0,0,1,2.4-1.322c2.57,0,3.043,1.693,3.043,3.892v4.492Z" transform="translate(-182.141 -473.427)" fill="#c5c5c5"/>
</svg>
