<svg xmlns="http://www.w3.org/2000/svg" width="18" height="18" viewBox="0 0 18 18">
  <g id="_" data-name=" " transform="translate(-156.168 -416.277)" style="isolation: isolate">
    <g id="Group_1511" data-name="Group 1511" style="isolation: isolate">
      <path id="Path_13006" data-name="Path 13006"
        d="M174.168,423.337v9.284a1.681,1.681,0,0,1-1.687,1.656H157.856a1.688,1.688,0,0,1-1.688-1.687v-9.253a1.687,1.687,0,0,1,.644-1.33c.875-.721,1.6-1.242,5.776-4.275.587-.427,1.747-1.455,2.566-1.455h.029c.818,0,1.979,1.028,2.563,1.455,4.176,3.033,4.9,3.586,5.775,4.276A1.669,1.669,0,0,1,174.168,423.337Zm-2.25,1.9v-1.629c-.752-.59-1.655-1.265-5.492-4.054-.118-.087-.249-.188-.392-.3-.193-.149-.577-.446-.866-.627-.288.181-.671.478-.865.626-.144.111-.274.212-.386.294-3.864,2.807-4.754,3.477-5.5,4.06v1.631l5.092,3.96a2.664,2.664,0,0,0,3.318,0Z"
        fill="#bdbdbd" />
    </g>
  </g>
</svg>