<svg xmlns="http://www.w3.org/2000/svg" width="14.934" height="10.5" viewBox="0 0 14.934 10.5">
  <path id="Path_13010" data-name="Path 13010" d="M220.233,480.44a19.68,19.68,0,0,1-.312,3.617,1.848,1.848,0,0,1-1.32,1.308,54.364,54.364,0,0,1-11.669,0,1.848,1.848,0,0,1-1.321-1.308,21.128,21.128,0,0,1,0-7.235,1.876,1.876,0,0,1,1.321-1.328,54.191,54.191,0,0,1,11.669,0,1.876,1.876,0,0,1,1.32,1.328A19.7,19.7,0,0,1,220.233,480.44Zm-5.091,0-3.9-2.221v4.442Z" transform="translate(-205.299 -475.179)" fill="#c5c5c5"/>
</svg>
