<svg id="App_Store" data-name="App Store" xmlns="http://www.w3.org/2000/svg" xmlns:xlink="http://www.w3.org/1999/xlink" width="207.131" height="61.372" viewBox="0 0 207.131 61.372">
  <defs>
    <linearGradient id="linear-gradient" x1="-1.199" y1="2.436" x2="-1.199" y2="1.535" gradientUnits="objectBoundingBox">
      <stop offset="0" stop-color="#1a1a1a" stop-opacity="0.102"/>
      <stop offset="0.123" stop-color="#212121" stop-opacity="0.153"/>
      <stop offset="0.308" stop-color="#353535" stop-opacity="0.227"/>
      <stop offset="0.532" stop-color="#575757" stop-opacity="0.318"/>
      <stop offset="0.783" stop-color="#858585" stop-opacity="0.42"/>
      <stop offset="1" stop-color="#b3b3b3" stop-opacity="0.51"/>
    </linearGradient>
  </defs>
  <path id="Path_12" data-name="Path 12" d="M207.953,56.322a5.879,5.879,0,0,1-5.886,5.878H9.455a5.886,5.886,0,0,1-5.893-5.878V9.447A5.894,5.894,0,0,1,9.455,3.561H202.066a5.885,5.885,0,0,1,5.886,5.886l0,46.875Z" transform="translate(-2.196 -2.195)" fill="#fff"/>
  <path id="Path_13" data-name="Path 13" d="M199.872,61.372H7.26A7.26,7.26,0,0,1,0,54.128V7.253A7.265,7.265,0,0,1,7.26,0H199.87a7.268,7.268,0,0,1,7.26,7.253V54.127A7.259,7.259,0,0,1,199.872,61.372Z" transform="translate(0 0)" fill="#a6a6a6"/>
  <path id="Path_14" data-name="Path 14" d="M207.953,56.322a5.879,5.879,0,0,1-5.886,5.878H9.455a5.886,5.886,0,0,1-5.893-5.878V9.447A5.894,5.894,0,0,1,9.455,3.561H202.066a5.885,5.885,0,0,1,5.886,5.886l0,46.875Z" transform="translate(-2.196 -2.195)"/>
  <path id="Path_15" data-name="Path 15" d="M77.809,45.7a8.9,8.9,0,0,1,4.239-7.465,9.115,9.115,0,0,0-7.178-3.88c-3.02-.318-5.949,1.806-7.487,1.806-1.569,0-3.938-1.776-6.491-1.723a9.557,9.557,0,0,0-8.044,4.9c-3.479,6.021-.884,14.868,2.449,19.735,1.667,2.385,3.615,5.045,6.165,4.951,2.495-.1,3.426-1.588,6.437-1.588,2.983,0,3.858,1.588,6.458,1.529,2.677-.041,4.363-2.394,5.972-4.8a19.67,19.67,0,0,0,2.731-5.56,8.607,8.607,0,0,1-5.25-7.91ZM72.9,31.15a8.755,8.755,0,0,0,2-6.276,8.923,8.923,0,0,0-5.769,2.984A8.332,8.332,0,0,0,67.075,33.9,7.371,7.371,0,0,0,72.9,31.15Z" transform="translate(-31.558 -15.333)" fill="#fff"/>
  <path id="Path_16" data-name="Path 16" d="M355.277,0H252.108l40.409,61.372h62.759a7.265,7.265,0,0,0,7.26-7.25V7.253A7.266,7.266,0,0,0,355.277,0Z" transform="translate(-155.405 0)" fill="url(#linear-gradient)"/>
  <g id="Group_2" data-name="Group 2" transform="translate(65.136 27.624)">
    <path id="Path_17" data-name="Path 17" d="M187.059,92.742h-3.486l-1.91-6h-6.638l-1.819,6h-3.394l6.578-20.424h4.062Zm-5.972-8.516-1.727-5.333q-.274-.817-1.03-3.848h-.061q-.3,1.3-.97,3.848l-1.7,5.333Zm22.855.971a8.338,8.338,0,0,1-2.042,5.938,5.987,5.987,0,0,1-4.541,1.94,4.546,4.546,0,0,1-4.206-2.089v7.727H189.88V82.856q0-2.36-.121-4.841h2.878l.183,2.334h.061a5.823,5.823,0,0,1,9.32-.579A8.142,8.142,0,0,1,203.942,85.2Zm-3.334.12a6.07,6.07,0,0,0-.97-3.547,3.353,3.353,0,0,0-2.849-1.453,3.4,3.4,0,0,0-2.2.8,3.723,3.723,0,0,0-1.288,2.107,4.27,4.27,0,0,0-.152,1V86.68a3.939,3.939,0,0,0,.986,2.713A3.272,3.272,0,0,0,196.7,90.5a3.355,3.355,0,0,0,2.878-1.424A6.267,6.267,0,0,0,200.608,85.317Zm20.278-.12a8.338,8.338,0,0,1-2.042,5.938,5.99,5.99,0,0,1-4.542,1.94,4.546,4.546,0,0,1-4.206-2.089v7.727h-3.273V82.856q0-2.36-.121-4.841h2.878l.183,2.334h.061a5.825,5.825,0,0,1,9.321-.579,8.15,8.15,0,0,1,1.741,5.427Zm-3.336.12a6.071,6.071,0,0,0-.972-3.547,3.348,3.348,0,0,0-2.846-1.453,3.418,3.418,0,0,0-2.2.8,3.72,3.72,0,0,0-1.286,2.107,4.37,4.37,0,0,0-.154,1V86.68a3.953,3.953,0,0,0,.984,2.713A3.279,3.279,0,0,0,213.64,90.5a3.351,3.351,0,0,0,2.878-1.424A6.267,6.267,0,0,0,217.55,85.317Zm22.279,1.7a5.455,5.455,0,0,1-1.816,4.244,8.051,8.051,0,0,1-5.565,1.788,9.716,9.716,0,0,1-5.29-1.272l.757-2.727a9.107,9.107,0,0,0,4.728,1.274,4.462,4.462,0,0,0,2.878-.833,2.722,2.722,0,0,0,1.033-2.225,2.852,2.852,0,0,0-.85-2.092,7.885,7.885,0,0,0-2.819-1.575q-5.365-2-5.367-5.85a5.165,5.165,0,0,1,1.894-4.121,7.492,7.492,0,0,1,5.017-1.607,9.916,9.916,0,0,1,4.638.97l-.821,2.667a8.11,8.11,0,0,0-3.925-.939,3.992,3.992,0,0,0-2.708.849,2.428,2.428,0,0,0-.821,1.851,2.5,2.5,0,0,0,.941,2,10.6,10.6,0,0,0,2.969,1.575,10.065,10.065,0,0,1,3.879,2.483,5.175,5.175,0,0,1,1.248,3.542Zm10.849-6.543H247.07v7.15q0,2.728,1.91,2.726a5.751,5.751,0,0,0,1.454-.152l.091,2.485a7.417,7.417,0,0,1-2.545.362,3.923,3.923,0,0,1-3.032-1.183,5.8,5.8,0,0,1-1.091-3.97V80.464h-2.149V78.009h2.149v-2.7l3.215-.97v3.666h3.608v2.462Zm16.245,4.787a8.078,8.078,0,0,1-1.94,5.576,6.918,6.918,0,0,1-5.395,2.242,6.594,6.594,0,0,1-5.169-2.149,7.832,7.832,0,0,1-1.925-5.424,8.012,8.012,0,0,1,1.985-5.6,6.881,6.881,0,0,1,5.351-2.182,6.733,6.733,0,0,1,5.212,2.152A7.731,7.731,0,0,1,266.923,85.257Zm-3.393.075a6.593,6.593,0,0,0-.877-3.475,3.24,3.24,0,0,0-2.941-1.754,3.287,3.287,0,0,0-3,1.754,6.7,6.7,0,0,0-.878,3.536,6.574,6.574,0,0,0,.878,3.476,3.357,3.357,0,0,0,5.915-.029A6.619,6.619,0,0,0,263.53,85.333Zm14.036-4.44a5.7,5.7,0,0,0-1.032-.091,3.089,3.089,0,0,0-2.668,1.3,4.913,4.913,0,0,0-.817,2.908v7.727h-3.273V82.653q0-2.319-.1-4.636h2.851l.12,2.818h.091a5.052,5.052,0,0,1,1.636-2.334,3.958,3.958,0,0,1,2.366-.789,5.256,5.256,0,0,1,.818.06ZM292.2,84.682a7.673,7.673,0,0,1-.12,1.484h-9.819A4.27,4.27,0,0,0,283.69,89.5a4.872,4.872,0,0,0,3.211,1.028,10.862,10.862,0,0,0,3.973-.7l.513,2.27a12.285,12.285,0,0,1-4.939.91A7.16,7.16,0,0,1,281.066,91a7.444,7.444,0,0,1-1.954-5.408,8.434,8.434,0,0,1,1.821-5.543,6.273,6.273,0,0,1,5.15-2.362A5.49,5.49,0,0,1,290.9,80.05a7.947,7.947,0,0,1,1.3,4.632Zm-3.121-.849a4.428,4.428,0,0,0-.636-2.515,2.858,2.858,0,0,0-2.607-1.366,3.1,3.1,0,0,0-2.605,1.334,4.887,4.887,0,0,0-.969,2.545l6.816,0Z" transform="translate(-169.812 -72.016)" fill="#fff"/>
  </g>
  <g id="Group_3" data-name="Group 3" transform="translate(67.052 10.057)">
    <path id="Path_18" data-name="Path 18" d="M177.16,36.867a20.9,20.9,0,0,1-2.353-.12V26.873a17.821,17.821,0,0,1,2.771-.209c3.753,0,5.482,1.846,5.482,4.856C183.059,34.992,181.017,36.867,177.16,36.867Zm.55-8.937a6.568,6.568,0,0,0-1.3.1v7.506a8.5,8.5,0,0,0,1.087.045c2.459,0,3.859-1.4,3.859-4.021C181.36,29.227,180.093,27.93,177.709,27.93Zm10.737,9.012a3.445,3.445,0,0,1-3.486-3.723,3.525,3.525,0,0,1,3.606-3.828,3.418,3.418,0,0,1,3.486,3.709A3.546,3.546,0,0,1,188.446,36.942Zm.061-6.375c-1.162,0-1.907,1.087-1.907,2.606,0,1.49.76,2.577,1.891,2.577s1.891-1.162,1.891-2.608c0-1.473-.745-2.575-1.876-2.575Zm15.608-1.027-2.264,7.238h-1.475l-.938-3.143a23.824,23.824,0,0,1-.582-2.337h-.031a15.665,15.665,0,0,1-.58,2.337l-1,3.143h-1.491l-2.131-7.238h1.653l.82,3.441q.29,1.229.491,2.324h.031c.118-.609.312-1.371.6-2.308l1.029-3.455h1.311l.984,3.381c.238.82.431,1.624.582,2.383h.043a20.83,20.83,0,0,1,.491-2.383l.88-3.381,1.58,0Zm8.336,7.238h-1.609V32.622c0-1.28-.491-1.921-1.46-1.921a1.671,1.671,0,0,0-1.609,1.773v4.3h-1.609V31.609c0-.64-.015-1.326-.06-2.07h1.415l.075,1.117h.045a2.6,2.6,0,0,1,2.3-1.265c1.52,0,2.518,1.162,2.518,3.053l0,4.334Zm4.437,0h-1.61V26.219h1.61Zm5.866.164a3.446,3.446,0,0,1-3.486-3.723,3.525,3.525,0,0,1,3.6-3.828,3.417,3.417,0,0,1,3.486,3.709A3.545,3.545,0,0,1,222.753,36.942Zm.06-6.375c-1.162,0-1.907,1.087-1.907,2.606,0,1.49.761,2.577,1.89,2.577s1.891-1.162,1.891-2.608c0-1.473-.741-2.575-1.874-2.575Zm9.888,6.211-.117-.833h-.043a2.472,2.472,0,0,1-2.117,1,2.1,2.1,0,0,1-2.218-2.13c0-1.786,1.549-2.71,4.231-2.71v-.134c0-.953-.505-1.43-1.5-1.43a3.388,3.388,0,0,0-1.891.537l-.327-1.057a4.628,4.628,0,0,1,2.485-.626c1.891,0,2.846,1,2.846,2.994v2.666a10.927,10.927,0,0,0,.1,1.728l-1.451,0Zm-.221-3.605c-1.787,0-2.683.433-2.683,1.46a1.026,1.026,0,0,0,1.1,1.131,1.54,1.54,0,0,0,1.58-1.473Zm9.38,3.605-.075-1.162h-.045a2.427,2.427,0,0,1-2.324,1.326c-1.745,0-3.038-1.535-3.038-3.694,0-2.264,1.34-3.858,3.17-3.858a2.175,2.175,0,0,1,2.042.984h.032V26.219h1.61v8.608c0,.7.017,1.355.06,1.951H241.86Zm-.238-4.259a1.751,1.751,0,0,0-1.695-1.877c-1.193,0-1.922,1.057-1.922,2.546,0,1.46.757,2.459,1.89,2.459a1.806,1.806,0,0,0,1.727-1.921Zm11.821,4.423a3.445,3.445,0,0,1-3.485-3.723,3.525,3.525,0,0,1,3.6-3.828,3.417,3.417,0,0,1,3.486,3.709,3.545,3.545,0,0,1-3.606,3.841Zm.06-6.375c-1.161,0-1.905,1.087-1.905,2.606,0,1.49.76,2.577,1.89,2.577s1.891-1.162,1.891-2.608C255.381,31.669,254.637,30.567,253.5,30.567Zm12.2,6.211h-1.61V32.622c0-1.28-.491-1.921-1.46-1.921a1.669,1.669,0,0,0-1.607,1.773v4.3h-1.61V31.609c0-.64-.015-1.326-.06-2.07h1.415l.075,1.117h.045a2.6,2.6,0,0,1,2.293-1.266c1.52,0,2.519,1.162,2.519,3.053Zm10.824-6.031h-1.77v3.515c0,.895.31,1.341.936,1.341a3.169,3.169,0,0,0,.714-.075l.045,1.222a3.564,3.564,0,0,1-1.248.18c-1.268,0-2.026-.7-2.026-2.532v-3.65h-1.056V29.54h1.056V28.214l1.58-.477v1.8h1.77v1.208Zm8.517,6.031h-1.607V32.653c0-1.3-.49-1.951-1.46-1.951a1.578,1.578,0,0,0-1.61,1.713v4.363h-1.607V26.219h1.607v4.348h.032a2.441,2.441,0,0,1,2.177-1.177c1.532,0,2.469,1.191,2.469,3.083v4.3Zm8.726-3.232h-4.828a2.077,2.077,0,0,0,2.281,2.144,5.438,5.438,0,0,0,1.951-.342l.25,1.117a6.045,6.045,0,0,1-2.429.447,3.36,3.36,0,0,1-3.6-3.648c0-2.219,1.372-3.887,3.423-3.887,1.85,0,3.01,1.371,3.01,3.441a3.1,3.1,0,0,1-.055.729ZM292.292,32.4c0-1.117-.563-1.906-1.592-1.906a1.908,1.908,0,0,0-1.759,1.906h3.351Z" transform="translate(-174.806 -26.219)" fill="#fff"/>
  </g>
</svg>
