<svg id="Google_Play_Store" data-name="Google Play Store" xmlns="http://www.w3.org/2000/svg" xmlns:xlink="http://www.w3.org/1999/xlink" width="207.131" height="61.372" viewBox="0 0 207.131 61.372">
  <defs>
    <linearGradient id="linear-gradient" x1="0.908" y1="1.032" x2="-0.383" y2="0.36" gradientUnits="objectBoundingBox">
      <stop offset="0" stop-color="#00a0ff"/>
      <stop offset="0.007" stop-color="#00a1ff"/>
      <stop offset="0.26" stop-color="#00beff"/>
      <stop offset="0.512" stop-color="#00d2ff"/>
      <stop offset="0.76" stop-color="#00dfff"/>
      <stop offset="1" stop-color="#00e3ff"/>
    </linearGradient>
    <linearGradient id="linear-gradient-2" x1="1.077" y1="0.729" x2="-1.307" y2="0.729" gradientUnits="objectBoundingBox">
      <stop offset="0" stop-color="#ffe000"/>
      <stop offset="0.409" stop-color="#ffbd00"/>
      <stop offset="0.775" stop-color="orange"/>
      <stop offset="1" stop-color="#ff9c00"/>
    </linearGradient>
    <linearGradient id="linear-gradient-3" x1="0.864" y1="-0.023" x2="-0.499" y2="-1.789" gradientUnits="objectBoundingBox">
      <stop offset="0" stop-color="#ff3a44"/>
      <stop offset="1" stop-color="#c31162"/>
    </linearGradient>
    <linearGradient id="linear-gradient-4" x1="-0.186" y1="2.701" x2="0.423" y2="1.909" gradientUnits="objectBoundingBox">
      <stop offset="0" stop-color="#32a071"/>
      <stop offset="0.069" stop-color="#2da771"/>
      <stop offset="0.476" stop-color="#15cf74"/>
      <stop offset="0.801" stop-color="#06e775"/>
      <stop offset="1" stop-color="#00f076"/>
    </linearGradient>
  </defs>
  <path id="Path_1" data-name="Path 1" d="M199.46,61.372H7.672A7.6,7.6,0,0,1,0,53.7V7.672A7.6,7.6,0,0,1,7.672,0H199.46a7.6,7.6,0,0,1,7.672,7.672V53.7A7.6,7.6,0,0,1,199.46,61.372Z" transform="translate(0 0)"/>
  <path id="Path_2" data-name="Path 2" d="M199.46,1.227A6.483,6.483,0,0,1,205.9,7.672V53.7a6.483,6.483,0,0,1-6.444,6.444H7.672A6.483,6.483,0,0,1,1.227,53.7V7.672A6.483,6.483,0,0,1,7.672,1.227H199.46m0-1.227H7.672A7.694,7.694,0,0,0,0,7.672V53.7a7.6,7.6,0,0,0,7.672,7.672H199.46a7.6,7.6,0,0,0,7.672-7.672V7.672A7.694,7.694,0,0,0,199.46,0Z" transform="translate(0 0)" fill="#a6a6a6"/>
  <path id="Path_3" data-name="Path 3" d="M50.606,11.963a4.179,4.179,0,0,1-1.074,3.069,4.816,4.816,0,0,1-6.751,0A4.511,4.511,0,0,1,41.4,11.656a4.511,4.511,0,0,1,1.381-3.375A4.511,4.511,0,0,1,46.156,6.9,4.085,4.085,0,0,1,48,7.36a3.341,3.341,0,0,1,1.381,1.074l-.767.767a2.861,2.861,0,0,0-2.455-1.074A3.053,3.053,0,0,0,43.7,9.2a3.161,3.161,0,0,0-1.074,2.608A3.161,3.161,0,0,0,43.7,14.418a3.951,3.951,0,0,0,2.455,1.074,3.365,3.365,0,0,0,2.608-1.074,2.541,2.541,0,0,0,.767-1.841H46.156V11.349h4.449v.614Zm7.058-3.836H53.521v2.915h3.836v1.074H53.521v2.915h4.143v1.227h-5.37V7.053h5.37Zm5.063,8.132H61.5V8.127H58.891V7.053h6.444V8.127H62.727Zm7.058,0V7.053h1.227v9.206Zm6.444,0H75V8.127H72.393V7.053h6.291V8.127H76.075v8.132ZM90.8,15.032a4.816,4.816,0,0,1-6.751,0,4.511,4.511,0,0,1-1.381-3.375,4.511,4.511,0,0,1,1.381-3.375,4.816,4.816,0,0,1,6.751,0,4.511,4.511,0,0,1,1.381,3.375A4.511,4.511,0,0,1,90.8,15.032Zm-5.83-.767a3.621,3.621,0,0,0,2.455,1.074,3.053,3.053,0,0,0,2.455-1.074,3.7,3.7,0,0,0,1.074-2.608,3.161,3.161,0,0,0-1.074-2.608,3.621,3.621,0,0,0-2.455-1.074,3.053,3.053,0,0,0-2.455,1.074A3.7,3.7,0,0,0,83.9,11.656,3.161,3.161,0,0,0,84.974,14.265Zm8.9,1.995V7.053h1.381L99.7,14.265V7.053h1.227v9.206H99.7L94.947,8.741v7.518H93.873Z" transform="translate(22.12 3.687)" fill="#fff" stroke="#fff" stroke-miterlimit="10" stroke-width="0.2"/>
  <path id="Path_4" data-name="Path 4" d="M82.526,24.311a6.455,6.455,0,0,0-6.6,6.6,6.549,6.549,0,0,0,6.6,6.6,6.455,6.455,0,0,0,6.6-6.6A6.365,6.365,0,0,0,82.526,24.311Zm0,10.433a3.808,3.808,0,0,1-3.682-3.989,3.808,3.808,0,0,1,3.682-3.989,3.717,3.717,0,0,1,3.682,3.989A3.808,3.808,0,0,1,82.526,34.745ZM68.257,24.311a6.455,6.455,0,0,0-6.6,6.6,6.549,6.549,0,0,0,6.6,6.6,6.455,6.455,0,0,0,6.6-6.6A6.365,6.365,0,0,0,68.257,24.311Zm0,10.433a3.808,3.808,0,0,1-3.682-3.989,3.808,3.808,0,0,1,3.682-3.989,3.717,3.717,0,0,1,3.682,3.989A3.808,3.808,0,0,1,68.257,34.745ZM51.226,26.306v2.762h6.6A5.8,5.8,0,0,1,56.29,32.6a6.791,6.791,0,0,1-5.063,1.995,7.143,7.143,0,0,1-7.211-7.365,7.238,7.238,0,0,1,7.211-7.365,7.608,7.608,0,0,1,5.063,1.995l1.995-1.995a9.832,9.832,0,0,0-6.9-2.762A10.35,10.35,0,0,0,41.1,27.226,10.35,10.35,0,0,0,51.38,37.353a8.83,8.83,0,0,0,7.058-2.915,9.236,9.236,0,0,0,2.455-6.444,5.753,5.753,0,0,0-.153-1.688H51.226Zm69.658,2.148a5.961,5.961,0,0,0-5.524-4.143c-3.375,0-6.137,2.608-6.137,6.6a6.421,6.421,0,0,0,6.444,6.6,6.294,6.294,0,0,0,5.37-2.915l-2.148-1.534a3.74,3.74,0,0,1-3.222,1.841,3.329,3.329,0,0,1-3.222-1.995l8.746-3.682Zm-8.9,2.148a3.727,3.727,0,0,1,3.375-3.836,2.714,2.714,0,0,1,2.455,1.381Zm-7.211,6.291h2.915V17.714h-2.915Zm-4.6-11.2a5.052,5.052,0,0,0-3.529-1.534,6.593,6.593,0,0,0-6.291,6.6A6.353,6.353,0,0,0,96.642,37.2a4.405,4.405,0,0,0,3.375-1.534h.153v.921c0,2.455-1.381,3.836-3.529,3.836a3.409,3.409,0,0,1-3.222-2.3l-2.455,1.074A6.33,6.33,0,0,0,96.8,43.03c3.375,0,6.137-1.995,6.137-6.751V24.618h-2.762v1.074ZM96.8,34.745a3.808,3.808,0,0,1-3.682-3.989A3.808,3.808,0,0,1,96.8,26.766a3.691,3.691,0,0,1,3.529,3.989A3.691,3.691,0,0,1,96.8,34.745Zm37.437-17.031h-6.9V36.893h2.915V29.681h3.989a5.991,5.991,0,1,0,0-11.968Zm.153,9.206h-4.143v-6.6h4.143a3.37,3.37,0,0,1,3.375,3.222,3.511,3.511,0,0,1-3.375,3.375Zm17.645-2.762c-2.148,0-4.3.921-5.063,2.915l2.608,1.074a2.71,2.71,0,0,1,2.608-1.381,2.883,2.883,0,0,1,3.069,2.455v.153a6.086,6.086,0,0,0-2.915-.767c-2.762,0-5.524,1.534-5.524,4.3a4.5,4.5,0,0,0,4.756,4.3,4.318,4.318,0,0,0,3.682-1.841h.153v1.534h2.762V29.528a5.807,5.807,0,0,0-6.137-5.37Zm-.307,10.587c-.921,0-2.3-.46-2.3-1.688,0-1.534,1.688-1.995,3.069-1.995a5.934,5.934,0,0,1,2.608.614A3.573,3.573,0,0,1,151.724,34.745Zm16.11-10.126L164.612,32.9h-.153l-3.375-8.285h-3.069l5.063,11.661-2.915,6.444h2.915l7.825-18.1h-3.069ZM142.057,36.893h2.915V17.714h-2.915Z" transform="translate(21.96 9.137)" fill="#fff"/>
  <g id="Group_1" data-name="Group 1" transform="translate(15.343 10.966)">
    <path id="Path_5" data-name="Path 5" d="M10.614,7.5A3,3,0,0,0,10,9.648V43.556a3.035,3.035,0,0,0,.767,2.148l.153.153L29.946,26.832v-.307Z" transform="translate(-10 -6.959)" fill="url(#linear-gradient)"/>
    <path id="Path_6" data-name="Path 6" d="M29.191,28.842,22.9,22.551v-.46L29.191,15.8l.153.153,7.518,4.3c2.148,1.227,2.148,3.222,0,4.449Z" transform="translate(-3.107 -2.524)" fill="url(#linear-gradient-2)"/>
    <path id="Path_7" data-name="Path 7" d="M36.023,26.444,29.579,20,10.4,39.179c.767.767,1.841.767,3.222.153l22.4-12.888" transform="translate(-9.786 -0.28)" fill="url(#linear-gradient-3)"/>
    <path id="Path_8" data-name="Path 8" d="M36.023,20.41,13.622,7.676c-1.381-.767-2.455-.614-3.222.153L29.579,26.854Z" transform="translate(-9.786 -7.134)" fill="url(#linear-gradient-4)"/>
    <path id="Path_9" data-name="Path 9" d="M35.87,24.1,13.622,36.681a2.509,2.509,0,0,1-3.069,0l-.153.153.153.153a2.509,2.509,0,0,0,3.069,0Z" transform="translate(-9.786 1.911)" opacity="0.2"/>
    <path id="Path_10" data-name="Path 10" d="M10.614,38.872A3,3,0,0,1,10,36.724v.153a3.035,3.035,0,0,0,.767,2.148v-.153h-.153ZM43.755,21.995l-7.672,4.3.153.153,7.518-4.3A2.551,2.551,0,0,0,45.289,20C45.289,20.767,44.675,21.381,43.755,21.995Z" transform="translate(-10 -0.28)" opacity="0.12"/>
    <path id="Path_11" data-name="Path 11" d="M13.836,7.842,43.755,24.873c.921.614,1.534,1.227,1.534,1.995a2.551,2.551,0,0,0-1.534-2.148L13.836,7.689C11.688,6.461,10,7.382,10,9.837V9.99C10,7.689,11.688,6.614,13.836,7.842Z" transform="translate(-10 -7.147)" fill="#fff" opacity="0.25"/>
  </g>
</svg>
