<svg xmlns="http://www.w3.org/2000/svg" width="82.211" height="109.614" viewBox="0 0 82.211 109.614">
  <g id="lock" transform="translate(-64)">
    <g id="Group_1" data-name="Group 1" transform="translate(64)">
      <path id="Path_5" data-name="Path 5" d="M143.927,41.105h-6.851V31.971a31.971,31.971,0,0,0-63.941,0v9.135H66.284A2.282,2.282,0,0,0,64,43.389V100.48a9.143,9.143,0,0,0,9.135,9.134h63.942a9.143,9.143,0,0,0,9.134-9.135V43.389A2.282,2.282,0,0,0,143.927,41.105Zm-31.984,47.7a2.284,2.284,0,0,1-2.27,2.536h-9.135a2.284,2.284,0,0,1-2.27-2.536l1.441-12.955a9.035,9.035,0,0,1-3.738-7.346,9.135,9.135,0,1,1,18.269,0,9.035,9.035,0,0,1-3.738,7.346Zm11.431-47.7H86.836V31.971a18.269,18.269,0,1,1,36.538,0Z" transform="translate(-64)" fill="#3d5aa9"/>
    </g>
  </g>
</svg>
