<svg xmlns="http://www.w3.org/2000/svg" width="10.5" height="12" viewBox="0 0 10.5 12">
    <path id="Path_13155" data-name="Path 13155"
        d="M7.014-9.75V-9h3v-.75a.75.75,0,0,1,.75-.75.75.75,0,0,1,.75.75V-9h1.125a1.125,1.125,0,0,1,1.125,1.125V-6.75H3.264V-7.875A1.125,1.125,0,0,1,4.389-9H5.514v-.75a.75.75,0,0,1,.75-.75A.75.75,0,0,1,7.014-9.75ZM3.264-6h10.5V.375A1.125,1.125,0,0,1,12.639,1.5H4.389A1.125,1.125,0,0,1,3.264.375Zm1.5,2.625A.375.375,0,0,0,5.139-3h.75a.376.376,0,0,0,.375-.375v-.75A.376.376,0,0,0,5.889-4.5h-.75a.375.375,0,0,0-.375.375Zm3,0A.376.376,0,0,0,8.139-3h.75a.376.376,0,0,0,.375-.375v-.75A.376.376,0,0,0,8.889-4.5h-.75a.376.376,0,0,0-.375.375ZM11.139-4.5a.376.376,0,0,0-.375.375v.75A.376.376,0,0,0,11.139-3h.75a.376.376,0,0,0,.375-.375v-.75a.376.376,0,0,0-.375-.375ZM4.764-.375A.375.375,0,0,0,5.139,0h.75a.376.376,0,0,0,.375-.375v-.75A.376.376,0,0,0,5.889-1.5h-.75a.375.375,0,0,0-.375.375ZM8.139-1.5a.376.376,0,0,0-.375.375v.75A.376.376,0,0,0,8.139,0h.75a.376.376,0,0,0,.375-.375v-.75A.376.376,0,0,0,8.889-1.5ZM10.764-.375A.376.376,0,0,0,11.139,0h.75a.376.376,0,0,0,.375-.375v-.75a.376.376,0,0,0-.375-.375h-.75a.376.376,0,0,0-.375.375Z"
        transform="translate(-3.264 10.5)" fill="#3d5aa9" />
</svg>