<svg xmlns="http://www.w3.org/2000/svg" width="13.5" height="10.5" viewBox="0 0 13.5 10.5">
    <path id="Path_13136" data-name="Path 13136"
        d="M12-9.75H1.5A1.5,1.5,0,0,0,0-8.25v7.5A1.5,1.5,0,0,0,1.5.75H12a1.5,1.5,0,0,0,1.5-1.5v-7.5A1.5,1.5,0,0,0,12-9.75ZM4.125-7.5A1.5,1.5,0,0,1,5.625-6a1.5,1.5,0,0,1-1.5,1.5A1.5,1.5,0,0,1,2.625-6,1.5,1.5,0,0,1,4.125-7.5Zm2.25,6h-4.5A.375.375,0,0,1,1.5-1.875,1.875,1.875,0,0,1,3.375-3.75h1.5A1.875,1.875,0,0,1,6.75-1.875.376.376,0,0,1,6.375-1.5ZM11.625-3h-3a.376.376,0,0,1-.375-.375.376.376,0,0,1,.375-.375h3A.376.376,0,0,1,12-3.375.376.376,0,0,1,11.625-3Zm0-1.5h-3a.376.376,0,0,1-.375-.375.376.376,0,0,1,.375-.375h3A.376.376,0,0,1,12-4.875.376.376,0,0,1,11.625-4.5Zm0-1.5h-3a.376.376,0,0,1-.375-.375.376.376,0,0,1,.375-.375h3A.376.376,0,0,1,12-6.375.376.376,0,0,1,11.625-6Z"
        transform="translate(0 9.75)" fill="#a6a6a6" />
</svg>