<svg xmlns="http://www.w3.org/2000/svg" width="9" height="12" viewBox="0 0 9 12">
  <path id="Path_13137" data-name="Path 13137" d="M6-10.5v3H9Zm.75,6H2.25V-3h4.5Zm-1.5-3v-3H1.125A1.125,1.125,0,0,0,0-9.375V.375A1.125,1.125,0,0,0,1.125,1.5h6.75A1.125,1.125,0,0,0,9,.375V-6.75H6.021A.754.754,0,0,1,5.25-7.5ZM1.5-8.812A.189.189,0,0,1,1.688-9H3.563a.189.189,0,0,1,.188.188v.375a.188.188,0,0,1-.187.188H1.688A.189.189,0,0,1,1.5-8.437Zm0,1.5A.189.189,0,0,1,1.688-7.5H3.563a.188.188,0,0,1,.188.188v.375a.188.188,0,0,1-.187.188H1.688A.189.189,0,0,1,1.5-6.937Zm6,7.125A.189.189,0,0,1,7.313,0H5.438A.188.188,0,0,1,5.25-.187V-.562A.189.189,0,0,1,5.438-.75H7.313A.189.189,0,0,1,7.5-.562Zm0-4.687v2.25a.374.374,0,0,1-.375.375H1.875A.374.374,0,0,1,1.5-2.625v-2.25a.374.374,0,0,1,.375-.375h5.25A.373.373,0,0,1,7.5-4.875Z" transform="translate(0 10.5)" fill="#a6a6a6"/>
</svg>
