<svg id="barcode-scanner" xmlns="http://www.w3.org/2000/svg" width="611" height="611" viewBox="0 0 611 611">
  <path id="Path_2340" data-name="Path 2340" d="M194.208,203.667a25.451,25.451,0,0,1-25.458-25.458V76.375a25.484,25.484,0,0,0-25.458-25.458H41.458A25.458,25.458,0,1,1,41.458,0H143.292a76.468,76.468,0,0,1,76.375,76.375V178.208A25.451,25.451,0,0,1,194.208,203.667Z" transform="translate(391.333 0)" fill="#fff"/>
  <path id="Path_2341" data-name="Path 2341" d="M143.292,219.667H41.458a25.458,25.458,0,1,1,0-50.917H143.292a25.484,25.484,0,0,0,25.458-25.458V41.458a25.458,25.458,0,1,1,50.917,0V143.292A76.468,76.468,0,0,1,143.292,219.667Z" transform="translate(391.333 391.333)" fill="#fff"/>
  <path id="Path_2342" data-name="Path 2342" d="M178.208,219.667H76.375A76.468,76.468,0,0,1,0,143.292V41.458a25.458,25.458,0,1,1,50.917,0V143.292A25.484,25.484,0,0,0,76.375,168.75H178.208a25.458,25.458,0,1,1,0,50.917Z" transform="translate(0 391.333)" fill="#fff"/>
  <path id="Path_2343" data-name="Path 2343" d="M25.458,203.667A25.451,25.451,0,0,1,0,178.208V76.375A76.468,76.468,0,0,1,76.375,0H178.208a25.458,25.458,0,0,1,0,50.917H76.375A25.484,25.484,0,0,0,50.917,76.375V178.208A25.451,25.451,0,0,1,25.458,203.667Z" fill="#fff"/>
  <path id="Path_2344" data-name="Path 2344" d="M335.958,157.75A25.451,25.451,0,0,1,310.5,132.292V55.917H55.917v76.375a25.458,25.458,0,1,1-50.917,0V55.917A50.968,50.968,0,0,1,55.917,5H310.5a50.968,50.968,0,0,1,50.917,50.917v76.375A25.451,25.451,0,0,1,335.958,157.75Z" transform="translate(122.292 122.292)" fill="#fff"/>
  <path id="Path_2345" data-name="Path 2345" d="M461.25,38.458a25.451,25.451,0,0,1-25.458,25.458H410.333v50.917a50.968,50.968,0,0,1-50.917,50.917H104.833a50.968,50.968,0,0,1-50.917-50.917V63.917H28.458a25.458,25.458,0,1,1,0-50.917H435.792A25.451,25.451,0,0,1,461.25,38.458Z" transform="translate(73.375 317.958)" fill="#fff"/>
</svg>
