<svg xmlns="http://www.w3.org/2000/svg" width="8" height="7" viewBox="0 0 8 7">
    <path id="Path_13176" data-name="Path 13176"
        d="M3.911-.484.578-6.172a.673.673,0,0,0-1.156,0L-3.909-.484A.656.656,0,0,0-3.332.5H3.333A.657.657,0,0,0,3.911-.484ZM-.375-4.375A.375.375,0,0,1,0-4.75a.376.376,0,0,1,.375.375v2A.372.372,0,0,1,.014-2a.4.4,0,0,1-.389-.375ZM0-.5A.491.491,0,0,1-.491-.991.491.491,0,0,1,0-1.483a.491.491,0,0,1,.491.491A.492.492,0,0,1,0-.5Z"
        transform="translate(4 6.5)" fill="#c86681" />
</svg>