<svg xmlns="http://www.w3.org/2000/svg" width="10.5" height="10.5" viewBox="0 0 10.5 10.5">
    <path id="Path_13154" data-name="Path 13154"
        d="M6-8.25H.75A.75.75,0,0,1,0-9a.75.75,0,0,1,.75-.75H6A.75.75,0,0,1,6.75-9,.75.75,0,0,1,6-8.25Zm0,6H.75A.75.75,0,0,1,0-3a.75.75,0,0,1,.75-.75H6A.749.749,0,0,1,6.75-3,.749.749,0,0,1,6-2.25ZM0-6a.75.75,0,0,1,.75-.75h9A.749.749,0,0,1,10.5-6a.749.749,0,0,1-.75.75h-9A.75.75,0,0,1,0-6ZM9.75.75h-9A.75.75,0,0,1,0,0,.75.75,0,0,1,.75-.75h9A.749.749,0,0,1,10.5,0,.749.749,0,0,1,9.75.75Z"
        transform="translate(0 9.75)" fill="#3d5aa9" />
</svg>