<svg xmlns="http://www.w3.org/2000/svg" width="30.625" height="35" viewBox="0 0 30.625 35">
  <path id="Path_13407" data-name="Path 13407" d="M9.242-29.416A2.185,2.185,0,0,1,11.2-30.625h8.23a2.185,2.185,0,0,1,1.955,1.209l.492.978h6.563a2.186,2.186,0,0,1,2.188,2.188,2.186,2.186,0,0,1-2.187,2.188H2.188A2.188,2.188,0,0,1,0-26.25a2.188,2.188,0,0,1,2.188-2.187H8.75ZM2.126-21.875H28.438V0a4.379,4.379,0,0,1-4.375,4.375H6.5A4.417,4.417,0,0,1,2.126,0Zm5.469,5.469V-1.094A1.139,1.139,0,0,0,8.688,0,1.059,1.059,0,0,0,9.782-1.094V-16.406A1.059,1.059,0,0,0,8.688-17.5,1.139,1.139,0,0,0,7.595-16.406Zm6.563,0V-1.094A1.139,1.139,0,0,0,15.251,0a1.112,1.112,0,0,0,1.155-1.094V-16.406A1.112,1.112,0,0,0,15.251-17.5,1.139,1.139,0,0,0,14.157-16.406Zm6.624,0V-1.094A1.1,1.1,0,0,0,21.875,0a1.1,1.1,0,0,0,1.094-1.094V-16.406A1.1,1.1,0,0,0,21.875-17.5,1.1,1.1,0,0,0,20.781-16.406Z" transform="translate(0 30.625)" fill="#3955a2"/>
</svg>
