<svg xmlns="http://www.w3.org/2000/svg" xmlns:xlink="http://www.w3.org/1999/xlink" width="135.684" height="26.424" viewBox="0 0 135.684 26.424">
  <defs>
    <clipPath id="clip-path">
      <rect id="Rectangle_2099" data-name="Rectangle 2099" width="135.637" height="26.424" fill="#3c5aa8"/>
    </clipPath>
  </defs>
  <g id="Group_1694" data-name="Group 1694" transform="translate(-21.753 -37.294)">
    <g id="Logo" transform="translate(21.753 37.294)">
      <path id="Path_13561" data-name="Path 13561" d="M244.382,9.183v.354h.676v1.85h.392V9.537h.676V9.183Zm4.051,0-.6,1.544-.589-1.544h-.6l0,2.2h.376V9.556h.006l.67,1.83h.274l.669-1.83h.006v1.83h.375v-2.2Z" transform="translate(-113.439 -4.263)" fill="#3c5aa8"/>
      <path id="Path_13562" data-name="Path 13562" d="M245.058,9.538h-.676V9.183h1.744v.355h-.676v1.849h-.392Zm1.594-.355h.6l.589,1.544.595-1.544h.589v2.2h-.375V9.556h-.006l-.669,1.83H247.7l-.669-1.83h-.006v1.83h-.375Z" transform="translate(-113.439 -4.263)" fill="#3c5aa8" stroke="#254593" stroke-width="0.2"/>
      <path id="Path_13563" data-name="Path 13563" d="M1.191,0,3.169,3.437,4.019,4.91H0L10.678,21.616l1.573-2.868L5.586,8.327H17.707L19.675,4.91H5.828L4.979,3.437H22.534L11.776,23.28l2.075,3.144L27.672,0Z" transform="translate(0 0)" fill="#3c5aa8"/>
      <g id="Group_1683" data-name="Group 1683" transform="translate(0 0)">
        <g id="Group_1682" data-name="Group 1682" clip-path="url(#clip-path)">
          <path id="Path_13564" data-name="Path 13564" d="M58.652,9.183h4.386l4.317,11.329L71.717,9.183h4.34V25.354H73.317V11.924h-.046L68.36,25.354h-2.01L61.44,11.924h-.046v13.43H58.654Zm35.86,10.234a6.657,6.657,0,0,1-.5,2.638,5.909,5.909,0,0,1-1.371,2,6.03,6.03,0,0,1-2.056,1.268,7.7,7.7,0,0,1-5.162,0,6.151,6.151,0,0,1-2.067-1.268,5.709,5.709,0,0,1-1.371-2,6.792,6.792,0,0,1-.491-2.638V9.183h2.878V19.325a4.617,4.617,0,0,0,.183,1.245,3.49,3.49,0,0,0,.605,1.2,3.235,3.235,0,0,0,1.119.9,4.374,4.374,0,0,0,3.448,0,3.236,3.236,0,0,0,1.119-.9,3.49,3.49,0,0,0,.605-1.2,4.617,4.617,0,0,0,.183-1.245V9.183h2.878ZM99.88,9.183h10.438v2.6h-7.56v4.248h7.126v2.6h-7.126v6.715H99.88Zm18.25,2.6h-4.956v-2.6h12.791v2.6h-4.956V25.354H118.13Zm14.755-2.6h2.489l6.966,16.171h-3.289l-1.507-3.7h-7.012l-1.462,3.7h-3.221Zm3.654,10-2.489-6.578-2.535,6.578Zm9.433-10h5.619a11.41,11.41,0,0,1,2.25.214,5.761,5.761,0,0,1,1.929.742,3.882,3.882,0,0,1,1.348,1.416,4.556,4.556,0,0,1,.5,2.261,4.5,4.5,0,0,1-.971,2.947,4.165,4.165,0,0,1-2.775,1.441l4.294,7.149H154.7L150.951,18.5h-2.1v6.852h-2.878Zm5.116,6.852q.616,0,1.232-.057a3.8,3.8,0,0,0,1.131-.274,1.929,1.929,0,0,0,.834-.662,2.107,2.107,0,0,0,.321-1.245,1.989,1.989,0,0,0-.3-1.142,1.846,1.846,0,0,0-.776-.651,3.566,3.566,0,0,0-1.062-.286,9.606,9.606,0,0,0-1.131-.069h-2.492v4.386Z" transform="translate(-27.225 -4.263)" fill="#3c5aa8"/>
        </g>
      </g>
    </g>
  </g>
</svg>
