<svg xmlns="http://www.w3.org/2000/svg" width="23.889" height="24.199" viewBox="0 0 23.889 24.199">
  <path id="team" d="M52.361,51.542a2.473,2.473,0,1,1-2.473-2.474A2.476,2.476,0,0,1,52.361,51.542Zm-8.487-9.835a6.058,6.058,0,0,1,0-1.748A1.131,1.131,0,0,1,45,38.986h0a.97.97,0,0,0,.84-1.458,1.13,1.13,0,0,1,.281-1.465,6.1,6.1,0,0,1,1.511-.872,1.13,1.13,0,0,1,1.41.489.97.97,0,0,0,1.683,0,1.131,1.131,0,0,1,1.407-.49,6.072,6.072,0,0,1,1.515.872,1.13,1.13,0,0,1,.28,1.465.971.971,0,0,0,.84,1.458h0a1.13,1.13,0,0,1,1.127.975,6.078,6.078,0,0,1,0,1.748,1.131,1.131,0,0,1-1.127.974h0a.971.971,0,0,0-.84,1.458,1.13,1.13,0,0,1-.281,1.466,6.157,6.157,0,0,1-.724.49,6.224,6.224,0,0,1-.787.382,1.155,1.155,0,0,1-.428.083,1.128,1.128,0,0,1-.981-.572.971.971,0,0,0-1.684,0,1.131,1.131,0,0,1-1.407.49,6.077,6.077,0,0,1-1.515-.872,1.13,1.13,0,0,1-.28-1.465A.971.971,0,0,0,45,42.682h0A1.13,1.13,0,0,1,43.874,41.707Zm4.732-.133a1.48,1.48,0,1,0-.148-1.124A1.482,1.482,0,0,0,48.606,41.574ZM57.9,52.918a1.956,1.956,0,1,0-1.956-1.956A1.958,1.958,0,0,0,57.9,52.918Zm.393-11.678h1.369v4.574a.438.438,0,1,0,.876,0V40.8a.438.438,0,0,0-.438-.438H58.29a.438.438,0,0,0,0,.876ZM61.829,56.93a3.983,3.983,0,0,0-7.59-.939l-.025.059.04.049a5.631,5.631,0,0,1,.689,1.077l.029.059h6.6a.263.263,0,0,0,.26-.3Zm-16.266-.881-.025-.059a3.983,3.983,0,0,0-7.59.939.263.263,0,0,0,.26.3h6.6l.029-.059a5.634,5.634,0,0,1,.689-1.077Zm-5.639-5.087a1.956,1.956,0,1,0,1.957-1.956A1.958,1.958,0,0,0,39.923,50.962Zm9.965,3.719A4.965,4.965,0,0,0,44.97,59.01a.263.263,0,0,0,.261.3h9.314a.263.263,0,0,0,.261-.3A4.965,4.965,0,0,0,49.888,54.682ZM39.68,46.253a.438.438,0,0,0,.438-.438V41.241h1.369a.438.438,0,1,0,0-.876H39.68a.438.438,0,0,0-.438.438v5.012A.438.438,0,0,0,39.68,46.253Z" transform="translate(-37.944 -35.107)" fill="#c4c4c4"/>
</svg>
