<svg xmlns="http://www.w3.org/2000/svg" width="142.105" height="142.072" viewBox="0 0 142.105 142.072">
  <g id="cloud-computing" transform="translate(-0.001 -0.056)">
    <g id="Group_2" data-name="Group 2" transform="translate(0.001 0.056)">
      <g id="Group_1" data-name="Group 1" transform="translate(0 0)">
        <path id="Path_5" data-name="Path 5" d="M131.314,47.809a39.509,39.509,0,0,0,.67-7.2,40.6,40.6,0,0,0-78.779-13.79A20.3,20.3,0,0,0,25.954,40.947a30.454,30.454,0,0,0,4.517,60.573H55.849a5.076,5.076,0,1,0,0-10.151H30.471a20.3,20.3,0,1,1,0-40.605,5.076,5.076,0,0,0,5.076-5.076A10.151,10.151,0,0,1,52.8,38.454a5.075,5.075,0,0,0,8.573-2.8A30.423,30.423,0,1,1,121.4,45.63q-.246,1.482-.638,2.935a5.076,5.076,0,0,0,2.1,5.583,20.3,20.3,0,0,1-11.177,37.22H96.454a5.076,5.076,0,1,0,0,10.151h15.227a30.454,30.454,0,0,0,19.633-53.71Z" transform="translate(-0.001 -0.056)" fill="#fff"/>
      </g>
    </g>
    <g id="Group_4" data-name="Group 4" transform="translate(45.76 45.687)">
      <g id="Group_3" data-name="Group 3">
        <path id="Path_6" data-name="Path 6" d="M213.109,215.886a5.076,5.076,0,0,0-7.052,0L189.332,232.6V158.567a5.076,5.076,0,1,0-10.151,0V232.6l-16.714-16.714a5.076,5.076,0,0,0-7.177,7.177l25.378,25.378a5.076,5.076,0,0,0,7.178.009l.009-.009,25.378-25.378A5.075,5.075,0,0,0,213.109,215.886Z" transform="translate(-153.865 -153.491)" fill="#fff"/>
      </g>
    </g>
  </g>
</svg>
