<svg xmlns="http://www.w3.org/2000/svg" width="140.789" height="87.993" viewBox="0 0 140.789 87.993">
  <path id="Show" d="M70.395,111.993c-46.057,0-68.891-40.151-69.84-41.86a4.4,4.4,0,0,1,0-4.275C1.5,64.151,24.338,24,70.395,24s68.891,40.151,69.84,41.86a4.4,4.4,0,0,1,0,4.275C139.286,71.842,116.452,111.993,70.395,111.993Zm-60.818-44c5.233,7.932,25.781,35.2,60.818,35.2,35.148,0,55.6-27.25,60.818-35.191-5.233-7.932-25.781-35.2-60.818-35.2-35.148,0-55.6,27.25-60.818,35.191Zm60.818,26.4A26.4,26.4,0,1,1,96.793,68,26.427,26.427,0,0,1,70.395,94.395Zm0-44A17.6,17.6,0,1,0,87.993,68,17.619,17.619,0,0,0,70.395,50.4Z" transform="translate(0 -24)" fill="#9ca3af"/>
</svg>
