 <svg xmlns="http://www.w3.org/2000/svg" width="19.932" height="22.667" viewBox="0 0 19.932 22.667">
                <g id="Layer_2" data-name="Layer 2" transform="translate(-6 -3)">
                  <path id="Path_13469" data-name="Path 13469" d="M48.081,47h-4.69a.391.391,0,0,0-.391.391v4.69a.393.393,0,0,0,.668.277l4.69-4.69A.393.393,0,0,0,48.081,47Z" transform="translate(-22.54 -26.804)" fill="#c4c4c4"/>
                  <path id="Path_13470" data-name="Path 13470" d="M14.989,39.38V31.172A1.172,1.172,0,0,0,13.816,30H7.172A1.172,1.172,0,0,0,6,31.172V39.38a1.172,1.172,0,0,0,1.172,1.172h6.644A1.172,1.172,0,0,0,14.989,39.38Zm-5.862-.391H7.954v-.782H9.127Zm0-1.563H7.954v-.782H9.127Zm0-1.563H7.954v-.782H9.127Zm1.954,3.127H9.908v-.782h1.172Zm0-1.563H9.908v-.782h1.172Zm0-1.563H9.908v-.782h1.172Zm1.954,3.127H11.862v-.782h1.172Zm0-1.563H11.862v-.782h1.172Zm0-1.563H11.862v-.782h1.172Zm.391-1.954a.391.391,0,0,1-.066.215h0a.391.391,0,0,1-.324.176H7.954a.391.391,0,0,1-.391-.391V31.954a.238.238,0,0,1,0-.055.391.391,0,0,1,.391-.336h5.081a.388.388,0,0,1,.391.391Z" transform="translate(0 -16.448)" fill="#c4c4c4"/>
                  <path id="Path_13471" data-name="Path 13471" d="M28,17.563h.113a.782.782,0,0,0,0-1.563H28Z" transform="translate(-13.402 -7.919)" fill="#c4c4c4"/>
                  <path id="Path_13472" data-name="Path 13472" d="M40.37,17.5a1.954,1.954,0,0,0,3.228-.6L41.687,15.63Z" transform="translate(-20.938 -7.694)" fill="#c4c4c4"/>
                  <path id="Path_13473" data-name="Path 13473" d="M23.71,10.782a.782.782,0,0,0,.782.782H24.6V10h-.113A.782.782,0,0,0,23.71,10.782Z" transform="translate(-10.789 -4.264)" fill="#c4c4c4"/>
                  <path id="Path_13474" data-name="Path 13474" d="M29.46,3H16.954A1.954,1.954,0,0,0,15,4.954V12.77h4.3a1.954,1.954,0,0,1,1.954,1.954v8.207A1.954,1.954,0,0,1,19.3,24.886H15.391a1.954,1.954,0,0,0,1.563.782h8.277a1.1,1.1,0,0,1-.07-.391v-4.69a1.172,1.172,0,0,1,1.172-1.172h4.69a1.1,1.1,0,0,1,.391.07V4.954A1.954,1.954,0,0,0,29.46,3ZM22.426,15.506h4.862v.782H22.426ZM20.194,7.3a1.563,1.563,0,1,1,0,3.127h-.113v.95H19.3v-.95h-.113a1.563,1.563,0,0,1-1.563-1.563H18.4a.782.782,0,0,0,.782.782H19.3V8.081h-.113a1.563,1.563,0,1,1,0-3.127H19.3V4h.782v.95h.113a1.563,1.563,0,0,1,1.563,1.563h-.782a.782.782,0,0,0-.782-.782h-.113V7.3Zm4.061,12.9H22.426v-.782h1.829Zm4.033-1.954H22.426V17.46h5.862Zm0-3.908H22.426v-.782h5.862Zm-1.954-3.127a2.736,2.736,0,1,1,2.736-2.736,2.736,2.736,0,0,1-2.736,2.736Z" transform="translate(-5.483)" fill="#c4c4c4"/>
                </g>
</svg>