<svg xmlns="http://www.w3.org/2000/svg" width="29.522" height="19.297" viewBox="0 0 29.522 19.297">
                <path id="fast-delivery" d="M29.521,83.111c0-.006,0-.011,0-.017a.676.676,0,0,0-.68-.665h-.178L25.907,77.1a.677.677,0,0,0-.6-.365H20.6l.18-1.423a1.934,1.934,0,0,0-1.949-2.141H4.225a.722.722,0,0,0-.714.65l-.146,1.172h8.32a.948.948,0,0,1,.953.978,1.01,1.01,0,0,1-1,.978H8.858v0H.71a.714.714,0,0,0-.71.692.67.67,0,0,0,.674.692H11.463a1.014,1.014,0,0,1,.861,1.035,1.082,1.082,0,0,1-1.067,1.048H3.819a.721.721,0,0,0-.717.7.677.677,0,0,0,.68.7h7.351a1.014,1.014,0,0,1,.876,1.037A1.082,1.082,0,0,1,10.934,83.9H1.792a.721.721,0,0,0-.717.7.677.677,0,0,0,.68.7h.612l-.239,2.5a1.933,1.933,0,0,0,1.949,2.141H4.6a3.048,3.048,0,0,0,3.016,2.524,3.254,3.254,0,0,0,3.148-2.524h6.583a2.231,2.231,0,0,0,1.431-.537,1.945,1.945,0,0,0,1.363.537h.108a3.048,3.048,0,0,0,3.016,2.524,3.254,3.254,0,0,0,3.148-2.524h.435a2.3,2.3,0,0,0,2.238-2.051l.426-4.717c0-.006,0-.013,0-.019s0-.019,0-.029S29.521,83.117,29.521,83.111ZM7.657,91.071a1.7,1.7,0,0,1-1.7-1.747,1.805,1.805,0,0,1,1.793-1.747,1.7,1.7,0,0,1,1.7,1.747A1.805,1.805,0,0,1,7.657,91.071Zm15.651,0a1.7,1.7,0,0,1-1.7-1.747A1.805,1.805,0,0,1,23.4,87.578a1.7,1.7,0,0,1,1.7,1.747A1.805,1.805,0,0,1,23.309,91.071ZM27.7,87.8a.841.841,0,0,1-.809.743h-.47a3.048,3.048,0,0,0-2.985-2.367,3.255,3.255,0,0,0-3.109,2.367h-.144a.593.593,0,0,1-.446-.188.6.6,0,0,1-.147-.466l.881-9.76h2.023l-.321,3.553a1.934,1.934,0,0,0,1.949,2.141H28.06Z" transform="translate(0 -73.172)" fill="#c4c4c4"/>
</svg>