<svg xmlns="http://www.w3.org/2000/svg" width="22" height="22" viewBox="0 0 22 22">
  <path id="analysis" d="M10.771,8H22.355v2.256a.908.908,0,0,0,.908.908h2.256v7.311A5.311,5.311,0,0,0,23.853,17.2V12.991a1.092,1.092,0,0,0-.324-.782L21.308,9.988a1.092,1.092,0,0,0-.782-.324H10.375V8.4a.4.4,0,0,1,.4-.4Zm9.919,2.409V12.63a.2.2,0,0,0,.2.2h2.221a.4.4,0,0,0-.082-.116L20.806,10.49A.4.4,0,0,0,20.69,10.409Zm.84,6.961a4.581,4.581,0,1,0,2.979,8.061l1.4,1.374-.048.049a.418.418,0,0,0,.009.589l2.516,2.441a.418.418,0,0,0,.589-.009l.908-.936a.418.418,0,0,0-.009-.589L27.36,25.908a.418.418,0,0,0-.589.009l-.056.057-1.43-1.4a4.581,4.581,0,0,0-3.756-7.2Zm0,2.267a.355.355,0,0,1,0,.71,1.6,1.6,0,0,0-1.6,1.6.355.355,0,0,1-.71,0,2.313,2.313,0,0,1,2.314-2.314Zm0-.976a3.289,3.289,0,1,1-3.289,3.289A3.289,3.289,0,0,1,21.53,18.661Zm3.958,8.722a.4.4,0,0,1-.365.243H23.853V26.7a5.291,5.291,0,0,0,.595-.341ZM8.4,10.374a.4.4,0,0,0-.4.4V29.6a.4.4,0,0,0,.4.4H22.748a.4.4,0,0,0,.4-.4V26.99a5.319,5.319,0,0,1-2.789.12.317.317,0,0,1-.3.219H11.091a.317.317,0,0,1,0-.633h8.1A5.315,5.315,0,0,1,17,24.688H11.091a.317.317,0,0,1,0-.633h5.584a5.267,5.267,0,0,1-.434-2.008H11.091a.317.317,0,0,1,0-.633h5.175a5.256,5.256,0,0,1,.625-2.008h-5.8a.317.317,0,0,1,0-.633H17.3a5.3,5.3,0,0,1,5.844-1.862V13.537H20.888a.908.908,0,0,1-.908-.908V10.374Zm14.668-2.34v2.221a.2.2,0,0,0,.2.2h2.221a.4.4,0,0,0-.082-.116L23.18,8.116A.4.4,0,0,0,23.064,8.034Zm-11.973,8.73h8.962a.317.317,0,1,0,0-.633H11.091a.317.317,0,0,0,0,.633Zm0-2.641h6.434a.317.317,0,0,0,0-.633H11.091a.317.317,0,0,0,0,.633Z" transform="translate(-8.001 -8)" fill="#c4c4c4" fill-rule="evenodd"/>
</svg>
