  <svg xmlns="http://www.w3.org/2000/svg" width="27.57" height="17.707" viewBox="0 0 27.57 17.707">
                <g id="_11_-_20" data-name="11 - 20" transform="translate(0.733 -9.468)">
                  <g id="Relationship" transform="translate(-0.733 9.468)">
                    <path id="Path_13475" data-name="Path 13475" d="M14.562,30.136l-.07-.058a1,1,0,0,0-1.407.123l.334-.4a1,1,0,0,0-.123-1.407l-.07-.058a1,1,0,0,0-1.407.123c.025-.03.05-.055.075-.085l.26-.315a.992.992,0,0,0-.125-1.4l-.07-.06a.992.992,0,0,0-1.4.125l-.34.4a1,1,0,0,0-.12-1.408l-.07-.06a1,1,0,0,0-1.408.125L7.4,27.234a.678.678,0,0,0-.055.075,1,1,0,0,0,.175,1.335l.07.06A1,1,0,0,0,9,28.578a1,1,0,0,0,.124,1.407l.07.055a1,1,0,0,0,1.4-.12l0,0a1,1,0,0,0,.123,1.406l.07.059a1,1,0,0,0,1.407-.123,1,1,0,0,0,.123,1.407l.07.059A1,1,0,0,0,13.8,32.6l.889-1.06A1,1,0,0,0,14.562,30.136Z" transform="translate(-2.45 -15.251)" fill="#c4c4c4"/>
                    <path id="Path_13476" data-name="Path 13476" d="M25.582,14.69a1.9,1.9,0,0,1-.187-.477A3.67,3.67,0,0,0,24.168,14H22.52a3.7,3.7,0,0,0-1.967.566l-2.23,1.4a.946.946,0,0,0,.858,1.678l4.311-1.716,4.48,3.827c.1-.073.222-.179.36-.3Z" transform="translate(-6.307 -11.84)" fill="#c4c4c4"/>
                    <rect id="Rectangle_2052" data-name="Rectangle 2052" width="3.095" height="7.946" rx="1.547" transform="matrix(0.866, -0.5, 0.5, 0.866, 20.917, 1.547)" fill="#c4c4c4"/>
                    <rect id="Rectangle_2053" data-name="Rectangle 2053" width="7.946" height="3.095" rx="1.547" transform="matrix(0.5, -0.866, 0.866, 0.5, 0, 6.881)" fill="#c4c4c4"/>
                    <path id="Path_13477" data-name="Path 13477" d="M24.842,23.872l.31.274a1.392,1.392,0,0,0,1.744,0,1.228,1.228,0,0,0,0-1.923l-5.6-4.582-.446-.361-4.763,1.8A2.454,2.454,0,0,1,13.051,18a2.212,2.212,0,0,1,.858-2.962L16.4,13.557l-2.784-.33a5.551,5.551,0,0,0-1.673.063,2.173,2.173,0,0,1-.315,1.191L8.117,20.258l.345-.391a2.558,2.558,0,0,1,3.47-.292l.1.08a2.353,2.353,0,0,1,.481.521,2.544,2.544,0,0,1,1.865.534l.1.078a2.274,2.274,0,0,1,.861,1.58c0,.021,0,.041,0,.061a2.494,2.494,0,0,1,.632.365l.087.07a2.292,2.292,0,0,1,.875,1.652,2.465,2.465,0,0,1,.633.366l.09.071a2.241,2.241,0,0,1,.38,3.184l.272.235a1.362,1.362,0,0,0,1.865-.083,1.212,1.212,0,0,0-.088-1.765l.421.366a1.367,1.367,0,0,0,1.861-.08,1.207,1.207,0,0,0-.084-1.767l.782.677a1.367,1.367,0,0,0,1.862-.08,1.207,1.207,0,0,0-.084-1.768Z" transform="translate(-3.899 -11.417)" fill="#c4c4c4"/>
                  </g>
                </g>
</svg> 