<svg xmlns="http://www.w3.org/2000/svg" width="19" height="19" viewBox="0 0 19 19">
  <g id="widget" transform="translate(-4 -4)">
    <path id="Path_13478" data-name="Path 13478" d="M42.33,36.511h-2.4v-2.4a.338.338,0,0,0-.339-.339H36.851a.34.34,0,0,0-.339.339v2.4h-2.4a.34.34,0,0,0-.339.339v2.738a.338.338,0,0,0,.339.339h2.4v2.4a.34.34,0,0,0,.339.339h2.738a.338.338,0,0,0,.339-.339v-2.4h2.4a.338.338,0,0,0,.339-.339V36.851A.34.34,0,0,0,42.33,36.511Z" transform="translate(-19.669 -19.669)" fill="#c4c4c4"/>
    <path id="Path_13479" data-name="Path 13479" d="M41.312,4H35.127A1.359,1.359,0,0,0,33.77,5.357v6.185A1.361,1.361,0,0,0,35.127,12.9h5.846a.339.339,0,0,0,.241-.1l1.357-1.357a.349.349,0,0,0,.1-.238V5.357A1.357,1.357,0,0,0,41.312,4Z" transform="translate(-19.669 0)" fill="#c4c4c4"/>
    <path id="Path_13480" data-name="Path 13480" d="M11.542,4H5.357A1.357,1.357,0,0,0,4,5.357v6.185A1.359,1.359,0,0,0,5.357,12.9H11.2a.337.337,0,0,0,.237-.1L12.8,11.441a.337.337,0,0,0,.1-.238V5.357A1.359,1.359,0,0,0,11.542,4Z" transform="translate(0 0)" fill="#c4c4c4"/>
    <path id="Path_13481" data-name="Path 13481" d="M11.542,33.77H5.357A1.359,1.359,0,0,0,4,35.127v6.185a1.357,1.357,0,0,0,1.357,1.357H11.2a.348.348,0,0,0,.238-.1L12.8,41.214a.339.339,0,0,0,.1-.241V35.127A1.361,1.361,0,0,0,11.542,33.77Z" transform="translate(0 -19.669)" fill="#c4c4c4"/>
  </g>
</svg>
