<svg xmlns="http://www.w3.org/2000/svg" width="17.533" height="12.327" viewBox="0 0 17.533 12.327">
  <path id="Path_13010" data-name="Path 13010" d="M222.832,481.356a23.106,23.106,0,0,1-.366,4.246,2.17,2.17,0,0,1-1.55,1.536,63.822,63.822,0,0,1-13.7,0,2.169,2.169,0,0,1-1.551-1.536,24.805,24.805,0,0,1,0-8.494,2.2,2.2,0,0,1,1.551-1.559,63.623,63.623,0,0,1,13.7,0,2.2,2.2,0,0,1,1.55,1.559A23.123,23.123,0,0,1,222.832,481.356Zm-5.977,0-4.582-2.608v5.215Z" transform="translate(-205.299 -475.179)" fill="#adaeb0"/>
</svg>