<svg xmlns="http://www.w3.org/2000/svg" width="116" height="116" viewBox="316.5 1373 116 116"><g data-name="025---Health-Files"><path d="M106.333 15.467H60.142a1.918 1.918 0 0 1-1.638-.909L51.11 2.726A5.767 5.767 0 0 0 46.191 0H9.667A9.678 9.678 0 0 0 0 9.667V110.2a5.8 5.8 0 0 0 5.8 5.8h104.4a5.8 5.8 0 0 0 5.8-5.8V25.133a9.678 9.678 0 0 0-9.667-9.666ZM9.667 3.867H46.19a1.918 1.918 0 0 1 1.638.908l7.395 11.832a5.767 5.767 0 0 0 4.918 2.726h46.19a5.8 5.8 0 0 1 5.8 5.8v19.384a9.566 9.566 0 0 0-5.8-1.984H104.4V27.067a3.867 3.867 0 0 0-3.867-3.867H29c-.513 0-1.004.204-1.367.566L12.166 39.233A1.933 1.933 0 0 0 11.6 40.6v13.533H9.667a9.566 9.566 0 0 0-5.8 1.984V9.667a5.8 5.8 0 0 1 5.8-5.8Zm49.935 38.666a5.757 5.757 0 0 0-4.102 1.7l-9.334 9.334a1.933 1.933 0 0 1-1.369.566h-29.33v-11.6h11.6a3.867 3.867 0 0 0 3.866-3.866v-11.6h69.6v15.466h-40.93ZM18.2 38.667l8.867-8.867v8.867H18.2Zm93.933 71.533a1.933 1.933 0 0 1-1.933 1.933H5.8a1.933 1.933 0 0 1-1.933-1.933V63.8a5.8 5.8 0 0 1 5.8-5.8h35.13a5.757 5.757 0 0 0 4.103-1.7l9.334-9.334a1.933 1.933 0 0 1 1.368-.566h46.73a5.8 5.8 0 0 1 5.8 5.8v58Z" fill-rule="evenodd" fill="url(&quot;#a&quot;)" transform="translate(316.5 1373)" data-name="Shape"/><path d="M54.067 27C39.118 27 27 39.118 27 54.067c0 14.948 12.118 27.066 27.067 27.066 14.948 0 27.066-12.118 27.066-27.066C81.117 39.125 69.008 27.016 54.067 27Zm0 50.266a23.2 23.2 0 1 1 23.2-23.2c-.014 12.808-10.393 23.187-23.2 23.2Z" fill-rule="evenodd" fill="url(&quot;#b&quot;)" transform="translate(341.7 1398.2)" data-name="Shape"/><path d="M56.133 44.533v-9.666A3.867 3.867 0 0 0 52.267 31H48.4a3.867 3.867 0 0 0-3.867 3.867v9.666h-9.666A3.867 3.867 0 0 0 31 48.4v3.867a3.867 3.867 0 0 0 3.867 3.866h9.666V65.8a3.867 3.867 0 0 0 3.867 3.867h3.867a3.867 3.867 0 0 0 3.866-3.867v-9.667H65.8a3.867 3.867 0 0 0 3.867-3.866V48.4a3.867 3.867 0 0 0-3.867-3.867h-9.667Zm9.667 7.734h-9.667a3.867 3.867 0 0 0-3.866 3.866V65.8H48.4v-9.667a3.867 3.867 0 0 0-3.867-3.866h-9.666V48.4h9.666a3.867 3.867 0 0 0 3.867-3.867v-9.666h3.867v9.666a3.867 3.867 0 0 0 3.866 3.867H65.8v3.867Z" fill-rule="evenodd" fill="url(&quot;#c&quot;)" transform="translate(345.434 1401.933)" data-name="Shape"/><path d="M6.933 40.867h7.734a1.933 1.933 0 0 0 0-3.867H6.933a1.933 1.933 0 1 0 0 3.867Z" fill-rule="evenodd" fill="url(&quot;#d&quot;)" transform="translate(321.167 1407.533)" data-name="Shape"/><path d="M30.4 37H14.933a1.933 1.933 0 1 0 0 3.867H30.4a1.933 1.933 0 0 0 0-3.867Z" fill-rule="evenodd" fill="url(&quot;#e&quot;)" transform="translate(328.634 1407.533)" data-name="Shape"/><path d="M37.867 43H6.933a1.933 1.933 0 1 0 0 3.867h30.934a1.933 1.933 0 1 0 0-3.867Z" fill-rule="evenodd" fill="url(&quot;#f&quot;)" transform="translate(321.167 1413.133)" data-name="Shape"/><path d="M22.4 49H6.933a1.933 1.933 0 0 0 0 3.867H22.4a1.933 1.933 0 1 0 0-3.867Z" fill-rule="evenodd" fill="url(&quot;#g&quot;)" transform="translate(321.167 1418.733)" data-name="Shape"/><path d="M26.667 49h-7.734a1.933 1.933 0 0 0 0 3.867h7.734a1.933 1.933 0 0 0 0-3.867Z" fill-rule="evenodd" fill="url(&quot;#h&quot;)" transform="translate(332.367 1418.733)" data-name="Shape"/></g><defs><linearGradient x1=".5" y1="0" x2=".5" y2="1" id="a"><stop stop-color="#3a59a7" offset="0"/><stop stop-color="#2d64ed" offset="1"/></linearGradient><linearGradient x1=".5" y1="0" x2=".5" y2="1" id="b"><stop stop-color="#3a59a7" offset="0"/><stop stop-color="#2d64ed" offset="1"/></linearGradient><linearGradient x1=".5" y1="0" x2=".5" y2="1" id="c"><stop stop-color="#3a59a7" offset="0"/><stop stop-color="#2d64ed" offset="1"/></linearGradient><linearGradient x1=".5" y1="0" x2=".5" y2="1" id="d"><stop stop-color="#3a59a7" offset="0"/><stop stop-color="#2d64ed" offset="1"/></linearGradient><linearGradient x1=".5" y1="0" x2=".5" y2="1" id="e"><stop stop-color="#3a59a7" offset="0"/><stop stop-color="#2d64ed" offset="1"/></linearGradient><linearGradient x1=".5" y1="0" x2=".5" y2="1" id="f"><stop stop-color="#3a59a7" offset="0"/><stop stop-color="#2d64ed" offset="1"/></linearGradient><linearGradient x1=".5" y1="0" x2=".5" y2="1" id="g"><stop stop-color="#3a59a7" offset="0"/><stop stop-color="#2d64ed" offset="1"/></linearGradient><linearGradient x1=".5" y1="0" x2=".5" y2="1" id="h"><stop stop-color="#3a59a7" offset="0"/><stop stop-color="#2d64ed" offset="1"/></linearGradient></defs></svg>