<svg xmlns="http://www.w3.org/2000/svg" width="22" height="22" viewBox="183 29 22 22"><path d="M204.214 38.429h-20.428a.786.786 0 0 1-.786-.786V36.07c0-.434.352-.785.786-.785h20.428c.434 0 .786.351.786.785v1.572a.786.786 0 0 1-.786.786Zm-20.428 9.428h20.428c.434 0 .786.352.786.786v1.571a.786.786 0 0 1-.786.786h-20.428a.786.786 0 0 1-.786-.786v-1.571c0-.434.352-.786.786-.786ZM183.63 29h12.883a.63.63 0 0 1 .63.63v1.883a.63.63 0 0 1-.63.63H183.63a.63.63 0 0 1-.63-.63V29.63a.63.63 0 0 1 .63-.63Zm0 12.571h12.883a.63.63 0 0 1 .63.63v1.883a.63.63 0 0 1-.63.63H183.63a.63.63 0 0 1-.63-.63v-1.883a.63.63 0 0 1 .63-.63Z" fill="#869cd1" fill-rule="evenodd" data-name="Icon awesome-align-right"/></svg>