<svg xmlns="http://www.w3.org/2000/svg" width="8.168" height="8.168" viewBox="0 0 8.168 8.168">
    <path id="Icon_awesome-times" data-name="Icon awesome-times"
        d="M5.632,9.709,7.954,7.387a.73.73,0,0,0,0-1.032l-.516-.516a.73.73,0,0,0-1.032,0L4.084,8.161,1.762,5.839a.73.73,0,0,0-1.032,0l-.516.516a.73.73,0,0,0,0,1.032L2.536,9.709.214,12.031a.73.73,0,0,0,0,1.032l.516.516a.73.73,0,0,0,1.032,0l2.322-2.322,2.322,2.322a.73.73,0,0,0,1.032,0l.516-.516a.73.73,0,0,0,0-1.032Z"
        transform="translate(0 -5.625)" fill="#fff" />
</svg>