<svg xmlns="http://www.w3.org/2000/svg" width="27" height="21" viewBox="0 0 27 21">
  <path id="Path_13133" data-name="Path 13133" d="M24-19.5H3a3,3,0,0,0-3,3v15a3,3,0,0,0,3,3H24a3,3,0,0,0,3-3v-15A3,3,0,0,0,24-19.5ZM8.25-15a3,3,0,0,1,3,3,3,3,0,0,1-3,3,3,3,0,0,1-3-3A3,3,0,0,1,8.25-15Zm4.5,12h-9A.751.751,0,0,1,3-3.75,3.75,3.75,0,0,1,6.75-7.5h3A3.75,3.75,0,0,1,13.5-3.75.752.752,0,0,1,12.75-3Zm10.5-3h-6a.752.752,0,0,1-.75-.75.752.752,0,0,1,.75-.75h6a.752.752,0,0,1,.75.75A.752.752,0,0,1,23.25-6Zm0-3h-6a.752.752,0,0,1-.75-.75.752.752,0,0,1,.75-.75h6a.752.752,0,0,1,.75.75A.752.752,0,0,1,23.25-9Zm0-3h-6a.752.752,0,0,1-.75-.75.752.752,0,0,1,.75-.75h6a.752.752,0,0,1,.75.75A.752.752,0,0,1,23.25-12Z" transform="translate(0 19.5)" fill="#3d5aa9"/>
</svg>
