<svg xmlns="http://www.w3.org/2000/svg" width="50" height="40" viewBox="0 0 57.113 45.54">
    <path id="Icon_awesome-cogs" data-name="Icon awesome-cogs"
        d="M45.7,17.044l-.732,1.276a1.1,1.1,0,0,1-1.348.482,9.862,9.862,0,0,1-2.865-1.66,1.108,1.108,0,0,1-.25-1.4l.732-1.276a7.7,7.7,0,0,1-1.419-2.445H38.349A1.1,1.1,0,0,1,37.26,11.1a10.055,10.055,0,0,1,0-3.311,1.11,1.11,0,0,1,1.089-.928h1.473a7.7,7.7,0,0,1,1.419-2.445l-.732-1.276a1.1,1.1,0,0,1,.25-1.4A9.98,9.98,0,0,1,43.624.078,1.1,1.1,0,0,1,44.971.56L45.7,1.836a7.93,7.93,0,0,1,2.829,0L49.264.56A1.1,1.1,0,0,1,50.612.078a9.862,9.862,0,0,1,2.865,1.66,1.108,1.108,0,0,1,.25,1.4l-.732,1.276a7.7,7.7,0,0,1,1.419,2.445h1.473a1.1,1.1,0,0,1,1.089.919,10.055,10.055,0,0,1,0,3.311,1.11,1.11,0,0,1-1.089.928H54.413a7.7,7.7,0,0,1-1.419,2.445l.732,1.276a1.1,1.1,0,0,1-.25,1.4,9.98,9.98,0,0,1-2.865,1.66,1.1,1.1,0,0,1-1.348-.482l-.732-1.276a7.93,7.93,0,0,1-2.829,0ZM44.766,11.8c3.436,2.642,7.354-1.276,4.712-4.712C46.042,4.433,42.124,8.36,44.766,11.8ZM34.476,25.531l3.008,1.5a2.146,2.146,0,0,1,.937,2.6,21.069,21.069,0,0,1-3.8,5.872,2.133,2.133,0,0,1-2.7.473l-2.6-1.5a15.331,15.331,0,0,1-4.9,2.829v3a2.136,2.136,0,0,1-1.758,2.106,20.07,20.07,0,0,1-6.774,0A2.144,2.144,0,0,1,14.1,40.3v-3a15.5,15.5,0,0,1-4.9-2.829l-2.6,1.49a2.135,2.135,0,0,1-2.7-.473A21.037,21.037,0,0,1,.134,29.628a2.153,2.153,0,0,1,.937-2.6l2.972-1.5a15.461,15.461,0,0,1,0-5.658L1.071,18.365a2.128,2.128,0,0,1-.937-2.588A20.954,20.954,0,0,1,3.9,9.9a2.133,2.133,0,0,1,2.7-.473l2.6,1.5A15.331,15.331,0,0,1,14.1,8.1V5.094A2.126,2.126,0,0,1,15.85,3a20.353,20.353,0,0,1,6.783-.009,2.144,2.144,0,0,1,1.785,2.106v3a15.5,15.5,0,0,1,4.9,2.829l2.6-1.5a2.135,2.135,0,0,1,2.7.473,20.926,20.926,0,0,1,3.757,5.872,2.133,2.133,0,0,1-.892,2.6l-3.008,1.5A15.509,15.509,0,0,1,34.476,25.531Zm-10.5,1.883c5.283-6.872-2.561-14.717-9.433-9.433C9.264,24.853,17.109,32.7,23.981,27.414ZM45.7,43.719,44.971,45a1.1,1.1,0,0,1-1.348.482,9.862,9.862,0,0,1-2.865-1.66,1.108,1.108,0,0,1-.25-1.4l.732-1.276a7.7,7.7,0,0,1-1.419-2.445H38.349a1.1,1.1,0,0,1-1.089-.919,10.055,10.055,0,0,1,0-3.311,1.11,1.11,0,0,1,1.089-.928h1.473a7.7,7.7,0,0,1,1.419-2.445l-.732-1.276a1.1,1.1,0,0,1,.25-1.4,9.98,9.98,0,0,1,2.865-1.66,1.1,1.1,0,0,1,1.348.482l.732,1.276a7.93,7.93,0,0,1,2.829,0l.732-1.276a1.1,1.1,0,0,1,1.348-.482,9.862,9.862,0,0,1,2.865,1.66,1.108,1.108,0,0,1,.25,1.4l-.732,1.276a7.7,7.7,0,0,1,1.419,2.445h1.473a1.1,1.1,0,0,1,1.089.919,10.054,10.054,0,0,1,0,3.311,1.11,1.11,0,0,1-1.089.928H54.413a7.7,7.7,0,0,1-1.419,2.445l.732,1.276a1.1,1.1,0,0,1-.25,1.4,9.98,9.98,0,0,1-2.865,1.66A1.1,1.1,0,0,1,49.264,45l-.732-1.276A7.93,7.93,0,0,1,45.7,43.719Zm-.937-5.257c3.436,2.642,7.354-1.276,4.712-4.712C46.042,31.109,42.124,35.027,44.766,38.463Z"
        transform="translate(0.001 -0.008)" fill="#3d5aa9" />
</svg>