<svg xmlns="http://www.w3.org/2000/svg" width="68" height="68" viewBox="0 0 68 68">
    <path id="Path_14776" data-name="Path 14776"
        d="M124.27,80.731l-13,9.77-13-9.77a1.993,1.993,0,0,0-2.393,0L81.673,91.4a1.992,1.992,0,1,0,2.393,3.185l13-9.77,13,9.77a1.993,1.993,0,0,0,2.393,0l14.2-10.67a1.992,1.992,0,0,0-2.393-3.185Zm0,0"
        transform="translate(-70.136 -69.662)" fill="#3d5aa9" />
    <path id="Path_14777" data-name="Path 14777"
        d="M60.673,0H7.327A7.335,7.335,0,0,0,0,7.327V50a7.335,7.335,0,0,0,7.327,7.327H26.673v6.685H23.33a1.992,1.992,0,1,0,0,3.984H44.669a1.992,1.992,0,0,0,0-3.984H41.326V57.331H60.673A7.335,7.335,0,0,0,68,50V7.327A7.335,7.335,0,0,0,60.673,0Zm3.342,50a3.346,3.346,0,0,1-3.342,3.343H53.346V29.874H46.661V53.346H42.677v-12.8H35.992v12.8H32.008v-19.2H25.323v19.2H21.338V42.677H14.654V53.346H7.327A3.346,3.346,0,0,1,3.984,50V7.327A3.346,3.346,0,0,1,7.327,3.984H60.673a3.346,3.346,0,0,1,3.342,3.343Zm0,0"
        fill="#3d5aa9" />
</svg>