<svg id="analytics" xmlns="http://www.w3.org/2000/svg" width="38.506" height="38.506" viewBox="0 0 38.506 38.506">
    <g id="Group_1735" data-name="Group 1735" transform="translate(16.252 31.253)">
        <g id="Group_1734" data-name="Group 1734" transform="translate(0 0)">
            <rect id="Rectangle_2056" data-name="Rectangle 2056" width="1" fill="#194799" />
        </g>
    </g>
    <g id="Group_1737" data-name="Group 1737">
        <g id="Group_1736" data-name="Group 1736">
            <path id="Path_14770" data-name="Path 14770"
                d="M35.5,0H3.008A3.012,3.012,0,0,0,0,3.008V28.879a3.012,3.012,0,0,0,3.008,3.008H6.017v-1.2H3.008a1.807,1.807,0,0,1-1.8-1.8V6.017H37.3V28.879a1.807,1.807,0,0,1-1.8,1.8v1.2a3.012,3.012,0,0,0,3.008-3.008V3.008A3.012,3.012,0,0,0,35.5,0Zm1.8,4.813H1.2v-1.8a1.807,1.807,0,0,1,1.8-1.8H35.5a1.807,1.807,0,0,1,1.8,1.8Z"
                fill="#194799" />
        </g>
    </g>
    <g id="Group_1739" data-name="Group 1739" transform="translate(2.252 2.253)">
        <g id="Group_1738" data-name="Group 1738" transform="translate(0 0)">
            <circle id="Ellipse_274" data-name="Ellipse 274" cx="0.5" cy="0.5" r="0.5" fill="#194799" />
        </g>
    </g>
    <g id="Group_1741" data-name="Group 1741" transform="translate(5.253 2.253)">
        <g id="Group_1740" data-name="Group 1740" transform="translate(0 0)">
            <circle id="Ellipse_275" data-name="Ellipse 275" cx="0.5" cy="0.5" r="0.5" transform="translate(-0.001)"
                fill="#194799" />
        </g>
    </g>
    <g id="Group_1743" data-name="Group 1743" transform="translate(7.253 2.253)">
        <g id="Group_1742" data-name="Group 1742" transform="translate(0 0)">
            <circle id="Ellipse_276" data-name="Ellipse 276" cx="0.5" cy="0.5" r="0.5" transform="translate(-0.001)"
                fill="#194799" />
        </g>
    </g>
    <g id="Group_1745" data-name="Group 1745" transform="translate(3.008 9.626)">
        <g id="Group_1744" data-name="Group 1744">
            <path id="Path_14771" data-name="Path 14771"
                d="M68.278,142.44h-3.61v-2.407a.6.6,0,0,0-.6-.6H56.281a8.359,8.359,0,0,0,.565-3.008.6.6,0,0,0-.6-.6h-7.22V128.6a.6.6,0,0,0-.6-.6,8.423,8.423,0,1,0,7.284,12.635h7.758v1.8H58.651a3.012,3.012,0,0,0-3.008,3.008v6.017a3.012,3.012,0,0,0,3.008,3.008h9.626a3.012,3.012,0,0,0,3.008-3.008v-6.017A3.012,3.012,0,0,0,68.278,142.44ZM41.2,136.423a7.229,7.229,0,0,1,6.618-7.195V136.3L45.1,142.827A7.221,7.221,0,0,1,41.2,136.423Zm13.775,3.008H52.523a1.8,1.8,0,1,0,0,1.2h1.754a7.193,7.193,0,0,1-8.066,2.659l2.612-6.269h6.793A7.158,7.158,0,0,1,54.978,139.431Zm-3.547.6a.6.6,0,1,1-.6-.6A.6.6,0,0,1,51.431,140.033Zm18.651,11.431a1.807,1.807,0,0,1-1.8,1.8H58.651a1.807,1.807,0,0,1-1.8-1.8v-6.017a1.807,1.807,0,0,1,1.8-1.8h9.626a1.807,1.807,0,0,1,1.8,1.8Z"
                transform="translate(-40 -128)" fill="#194799" />
        </g>
    </g>
    <g id="Group_1747" data-name="Group 1747" transform="translate(13.236 7.22)">
        <g id="Group_1746" data-name="Group 1746">
            <path id="Path_14772" data-name="Path 14772"
                d="M185.025,96a.6.6,0,0,0-.425.176l-2.175,2.175A8.388,8.388,0,0,0,176.6,96a.6.6,0,0,0-.6.6v7.822a.6.6,0,0,0,.6.6h7.822a.6.6,0,0,0,.6-.6,8.376,8.376,0,0,0-1.793-5.178l2.042-2.042h2.759V96Zm-1.229,7.822H177.2V97.229a7.2,7.2,0,0,1,4.371,1.973l-1.186,1.186.851.851,1.136-1.136A7.168,7.168,0,0,1,183.8,103.822Z"
                transform="translate(-176 -96)" fill="#194799" />
        </g>
    </g>
    <g id="Group_1749" data-name="Group 1749" transform="translate(27.252 7.253)">
        <g id="Group_1748" data-name="Group 1748" transform="translate(0 0)">
            <rect id="Rectangle_2057" data-name="Rectangle 2057" width="9" height="1" fill="#194799" />
        </g>
    </g>
    <g id="Group_1751" data-name="Group 1751" transform="translate(27.252 9.253)">
        <g id="Group_1750" data-name="Group 1750" transform="translate(0)">
            <rect id="Rectangle_2058" data-name="Rectangle 2058" width="9" height="2" fill="#194799" />
        </g>
    </g>
    <g id="Group_1753" data-name="Group 1753" transform="translate(27.252 12.253)">
        <g id="Group_1752" data-name="Group 1752" transform="translate(0 0)">
            <rect id="Rectangle_2059" data-name="Rectangle 2059" width="9" height="1" fill="#194799" />
        </g>
    </g>
    <g id="Group_1755" data-name="Group 1755" transform="translate(1.203 28.278)">
        <g id="Group_1754" data-name="Group 1754">
            <path id="Path_14773" data-name="Path 14773"
                d="M29.236,385.025v-6.017a.6.6,0,0,0-.6-.6H26.228v-1.8a.6.6,0,0,0-.6-.6H22.618a.6.6,0,0,0-.6.6v4.813H19.61a.6.6,0,0,0-.6.6v3.008H16v1.2H31.643v-1.2Zm-7.22,0h-1.8v-2.407h1.8Zm3.008-6.017v6.017h-1.8V377.2h1.8Zm3.008,6.017h-1.8V379.61h1.8Z"
                transform="translate(-16 -376)" fill="#194799" />
        </g>
    </g>
    <g id="Group_1757" data-name="Group 1757" transform="translate(20.5 26.473)">
        <g id="Group_1756" data-name="Group 1756">
            <path id="Path_14774" data-name="Path 14774"
                d="M282.8,353.01l-1.391,4.174-2.937-4.9a.6.6,0,0,0-1.069.073l-1.455,3.4-1.177-1.177a.6.6,0,0,0-.984.2l-1.2,3.008,1.117.447.865-2.161,1.16,1.16a.6.6,0,0,0,.978-.188l1.342-3.13,3,5.008a.6.6,0,0,0,.515.292.6.6,0,0,0,.571-.412l1.8-5.415Z"
                transform="translate(-272.584 -351.997)" fill="#194799" />
        </g>
    </g>
    <g id="Group_1759" data-name="Group 1759" transform="translate(28.879 15.643)">
        <g id="Group_1758" data-name="Group 1758">
            <path id="Path_14775" data-name="Path 14775"
                d="M390.618,208H384.6a.6.6,0,0,0-.6.6v4.813a.6.6,0,0,0,.6.6h6.017a.6.6,0,0,0,.6-.6V208.6A.6.6,0,0,0,390.618,208Zm-1.715,1.2-1.293,1.035-1.294-1.035Zm-3.7.65,1.444,1.155-1.444,1.155Zm1.113,2.96,1.294-1.035,1.294,1.035Zm3.7-.65-1.444-1.155,1.444-1.155Z"
                transform="translate(-384 -208)" fill="#194799" />
        </g>
    </g>
</svg>