<svg xmlns="http://www.w3.org/2000/svg" xmlns:xlink="http://www.w3.org/1999/xlink" width="443.351" height="78.59" viewBox="0 0 443.351 78.59">
  <defs>
    <clipPath id="clip-path">
      <rect id="Rectangle_2072" data-name="Rectangle 2072" width="443.351" height="78.59" fill="#3d5aa9"/>
    </clipPath>
    <clipPath id="clip-path-2">
      <path id="Path_14789" data-name="Path 14789" d="M48.587,39.283A4.585,4.585,0,1,0,53.173,34.7a4.586,4.586,0,0,0-4.586,4.586" transform="translate(-48.587 -34.697)" fill="#3d5aa9"/>
    </clipPath>
    <clipPath id="clip-path-4">
      <path id="Path_14791" data-name="Path 14791" d="M101.615,13.129A4.586,4.586,0,1,0,106.2,8.544a4.586,4.586,0,0,0-4.586,4.585" transform="translate(-101.615 -8.544)" fill="#3d5aa9"/>
    </clipPath>
    <clipPath id="clip-path-6">
      <path id="Path_14793" data-name="Path 14793" d="M285.045,7.313a4.585,4.585,0,1,0,4.586-4.586,4.586,4.586,0,0,0-4.586,4.586" transform="translate(-285.045 -2.727)" fill="#3d5aa9"/>
    </clipPath>
    <clipPath id="clip-path-8">
      <path id="Path_14795" data-name="Path 14795" d="M224.159,52.388a4.586,4.586,0,1,0,4.586-4.585,4.586,4.586,0,0,0-4.586,4.585" transform="translate(-224.159 -47.803)" fill="#3d5aa9"/>
    </clipPath>
  </defs>
  <g id="Group_1799" data-name="Group 1799" opacity="0.32" style="isolation: isolate">
    <g id="Group_1784" data-name="Group 1784">
      <g id="Group_1783" data-name="Group 1783" clip-path="url(#clip-path)">
        <path id="Path_14787" data-name="Path 14787" d="M0,72.071H21.98c10.333,0,19.946-3.746,25.474-9.926L62.073,45.8c5.785-6.47,15.848-10.391,26.665-10.391,8.907,0,17.357-2.788,23.085-7.616l11.442-9.642c6-5.054,14.842-7.972,24.166-7.972h8.193c9.945,0,19.306,3.317,25.265,8.952l48.028,45.413.01.01c10.305,10.9,26.242,12.526,34.89,12.53a53.673,53.673,0,0,0,5.967-.292l.062-.008h.062c9.407.047,25.9-6.96,31.486-12.409l3.841-3.7c5.946-5.733,15.392-9.118,25.438-9.118h12.26c10.226,0,19.755-3.67,25.311-9.748l23.579-25.8c5.816-6.363,15.79-10.2,26.5-10.2h25.032v1H418.319c-10.226,0-19.754,3.669-25.31,9.748l-23.579,25.8c-5.816,6.364-15.792,10.2-26.5,10.2h-12.26c-9.6,0-18.62,3.235-24.3,8.71l-3.841,3.7c-6.04,5.757-22.39,12.772-32.624,12.819v-.5l.124.493a54.555,54.555,0,0,1-6.216.307c-8.857,0-25.38-1.682-36.063-12.973l.586-.279-.565.3-48.016-45.4c-5.693-5.383-14.636-8.552-24.135-8.552H147.43c-8.905,0-17.355,2.788-23.084,7.616L112.9,28.433c-6,5.054-14.842,7.973-24.167,7.972-10.333,0-19.945,3.747-25.472,9.927L48.646,62.68C42.862,69.15,32.8,73.071,21.98,73.071H0v-1Z" transform="translate(0 0)" fill="#3d5aa9"/>
        <path id="Path_14788" data-name="Path 14788" d="M66.519,39.283c0,4.038-4.625,7.312-10.329,7.312s-10.329-3.274-10.329-7.312,4.625-7.312,10.329-7.312,10.329,3.274,10.329,7.312" transform="translate(18.923 0)" fill="#3d5aa9"/>
      </g>
    </g>
    <g id="Group_1786" data-name="Group 1786" transform="translate(48.587 34.697)">
      <g id="Group_1785" data-name="Group 1785" clip-path="url(#clip-path-2)">
        <rect id="Rectangle_2073" data-name="Rectangle 2073" width="9.171" height="9.171" transform="translate(0 0)" fill="#3d5aa9"/>
      </g>
    </g>
    <g id="Group_1788" data-name="Group 1788">
      <g id="Group_1787" data-name="Group 1787" clip-path="url(#clip-path)">
        <path id="Path_14790" data-name="Path 14790" d="M119.547,13.129c0,4.038-4.625,7.312-10.329,7.312s-10.329-3.274-10.329-7.312,4.625-7.312,10.329-7.312,10.329,3.274,10.329,7.312" transform="translate(40.803 0)" fill="#3d5aa9"/>
      </g>
    </g>
    <g id="Group_1790" data-name="Group 1790" transform="translate(144.805 8.544)">
      <g id="Group_1789" data-name="Group 1789" clip-path="url(#clip-path-4)">
        <rect id="Rectangle_2075" data-name="Rectangle 2075" width="9.171" height="9.171" transform="translate(0 0)" fill="#3d5aa9"/>
      </g>
    </g>
    <g id="Group_1792" data-name="Group 1792">
      <g id="Group_1791" data-name="Group 1791" clip-path="url(#clip-path)">
        <path id="Path_14792" data-name="Path 14792" d="M302.977,7.312c0,4.038-4.625,7.312-10.329,7.312s-10.329-3.274-10.329-7.312S286.944,0,292.648,0s10.329,3.274,10.329,7.312" transform="translate(116.489 0)" fill="#3d5aa9"/>
      </g>
    </g>
    <g id="Group_1794" data-name="Group 1794" transform="translate(414.545 2.727)">
      <g id="Group_1793" data-name="Group 1793" clip-path="url(#clip-path-6)">
        <rect id="Rectangle_2077" data-name="Rectangle 2077" width="9.171" height="9.171" transform="translate(0 0)" fill="#3d5aa9"/>
      </g>
    </g>
    <g id="Group_1796" data-name="Group 1796">
      <g id="Group_1795" data-name="Group 1795" clip-path="url(#clip-path)">
        <path id="Path_14794" data-name="Path 14794" d="M242.091,52.388c0,4.038-4.625,7.312-10.329,7.312s-10.329-3.274-10.329-7.312,4.625-7.312,10.329-7.312,10.329,3.274,10.329,7.312" transform="translate(91.367 0)" fill="#3d5aa9"/>
      </g>
    </g>
    <g id="Group_1798" data-name="Group 1798" transform="translate(319.435 47.803)">
      <g id="Group_1797" data-name="Group 1797" clip-path="url(#clip-path-8)">
        <rect id="Rectangle_2079" data-name="Rectangle 2079" width="9.171" height="9.171" transform="translate(0 0)" fill="#3d5aa9"/>
      </g>
    </g>
  </g>
</svg>
