<svg xmlns="http://www.w3.org/2000/svg" width="17.5" height="14" viewBox="0 0 17.5 14">
  <g id="Group_1667" data-name="Group 1667" transform="translate(-7132.346 -972.76)">
    <path id="Path_13405" data-name="Path 13405" d="M8.747-3.5a2.823,2.823,0,0,0,2.819-2.844A2.838,2.838,0,0,0,8.747-9.187,2.823,2.823,0,0,0,5.928-6.344,2.809,2.809,0,0,0,8.747-3.5Zm1.367.875H7.386A3.771,3.771,0,0,0,3.5,1.02a.753.753,0,0,0,.777.73h8.947A.753.753,0,0,0,14,1.02,3.771,3.771,0,0,0,10.114-2.625ZM14-7.875a2.188,2.188,0,0,0,2.188-2.187A2.187,2.187,0,0,0,14-12.25a2.188,2.188,0,0,0-2.187,2.188A2.187,2.187,0,0,0,14-7.875ZM5.029-6.344a3.643,3.643,0,0,1,.044-.435A1.98,1.98,0,0,0,4.1-7H2.408A2.483,2.483,0,0,0,0-4.449a.5.5,0,0,0,.482.511H5.937A3.683,3.683,0,0,1,5.029-6.344ZM3.5-7.875a2.188,2.188,0,0,0,2.188-2.187A2.187,2.187,0,0,0,3.5-12.25a2.188,2.188,0,0,0-2.188,2.188A2.188,2.188,0,0,0,3.5-7.875ZM15.091-7H13.4a2.28,2.28,0,0,0-.981.225,3.746,3.746,0,0,1,.044.431,3.686,3.686,0,0,1-.907,2.406h5.461a.5.5,0,0,0,.483-.511A2.483,2.483,0,0,0,15.091-7Z" transform="translate(7132.346 985.01)" fill="#fff"/>
  </g>
</svg>
