<svg xmlns="http://www.w3.org/2000/svg" width="43.75" height="35" viewBox="0 0 43.75 35">
  <path id="Path_13404" data-name="Path 13404" d="M21.868-8.75a7.058,7.058,0,0,0,7.048-7.109,7.1,7.1,0,0,0-7.048-7.109,7.058,7.058,0,0,0-7.048,7.109A7.022,7.022,0,0,0,21.868-8.75Zm3.418,2.188H18.464C13.1-6.562,8.75-2.481,8.75,2.55a1.883,1.883,0,0,0,1.941,1.825H33.059A1.883,1.883,0,0,0,35,2.55C35-2.481,30.652-6.562,25.286-6.562ZM35-19.687a5.469,5.469,0,0,0,5.469-5.469A5.468,5.468,0,0,0,35-30.625a5.469,5.469,0,0,0-5.469,5.469A5.468,5.468,0,0,0,35-19.687ZM12.571-15.859a9.107,9.107,0,0,1,.11-1.088,4.951,4.951,0,0,0-2.434-.553H6.021A6.209,6.209,0,0,0,0-11.122,1.244,1.244,0,0,0,1.2-9.844H14.842A9.208,9.208,0,0,1,12.571-15.859ZM8.75-19.687a5.469,5.469,0,0,0,5.469-5.469A5.468,5.468,0,0,0,8.75-30.625a5.469,5.469,0,0,0-5.469,5.469A5.469,5.469,0,0,0,8.75-19.687ZM37.728-17.5H33.5a5.7,5.7,0,0,0-2.451.563,9.365,9.365,0,0,1,.109,1.077,9.216,9.216,0,0,1-2.267,6.016H42.543a1.245,1.245,0,0,0,1.207-1.278A6.207,6.207,0,0,0,37.728-17.5Z" transform="translate(0 30.625)" fill="#3d5aa9"/>
</svg>
