<svg xmlns="http://www.w3.org/2000/svg" width="52.875" height="47" viewBox="0 0 52.875 47">
  <path id="Path_13496" data-name="Path 13496" d="M.431-9.7A1.479,1.479,0,0,0,0-8.656v5.719H5.723a1.468,1.468,0,0,0,1.042-.434l14.4-14.5-6.231-6.231ZM25.749-25.758l-2.928-2.928a2.327,2.327,0,0,0-3.3,0l-2.5,2.5,6.231,6.231,2.5-2.5A2.323,2.323,0,0,0,25.749-25.758ZM-2.937-41.125v11.75H8.813ZM-2.937,0A3.953,3.953,0,0,1-6.415-2.192a1.008,1.008,0,0,0-.929-.6,1,1,0,0,0-.918.562L-8.973-.815A1.552,1.552,0,0,1-10.281,0h-.1a1.454,1.454,0,0,1-1.285-1.01l-1.551-4.627-.973,2.928A3.969,3.969,0,0,1-17.951,0h-1.143a1.463,1.463,0,0,1-1.469-1.469,1.463,1.463,0,0,1,1.469-1.469h1.138a1.024,1.024,0,0,0,.973-.7l1.675-5.015a2.191,2.191,0,0,1,2.088-1.51A2.192,2.192,0,0,1-11.13-8.647l1.274,3.822A4.113,4.113,0,0,1-3.8-3.53a1.083,1.083,0,0,0,.86.583V-9.271a2.939,2.939,0,0,1,.868-2.085L8.813-22.169v-4.269H-2.937a2.938,2.938,0,0,1-2.937-2.937v-11.75H-22.031a4.406,4.406,0,0,0-4.406,4.406V1.469a4.407,4.407,0,0,0,4.406,4.406H4.406A4.406,4.406,0,0,0,8.813,1.469V0Z" transform="translate(26.438 41.125)" fill="#3d5aa9"/>
</svg>
