<?xml version="1.0" encoding="iso-8859-1"?>
<!-- Generator: Adobe Illustrator 19.0.0, SVG Export Plug-In . SVG Version: 6.00 Build 0)  -->
<svg version="1.1" id="Capa_1" xmlns="http://www.w3.org/2000/svg" xmlns:xlink="http://www.w3.org/1999/xlink" x="0px" y="0px"
	 viewBox="0 0 512 512" style="enable-background:new 0 0 512 512;" xml:space="preserve">
<g>
	<g>
		<path d="M452,40h-24V0h-40v40H124V0H84v40H60C26.916,40,0,66.916,0,100v352c0,33.084,26.916,60,60,60h284.506L512,338.064V100
			C512,66.916,485.084,40,452,40z M356,442.397V370c0-11.028,8.972-20,20-20h68.975L356,442.397z M472,310h-96
			c-33.084,0-60,26.916-60,60v102H60c-11.028,0-20-8.972-20-20V188h432V310z M472,148H40v-48c0-11.028,8.972-20,20-20h24v40h40V80
			h264v40h40V80h24c11.028,0,20,8.972,20,20V148z"/>
	</g>
</g>
<g>
</g>
<g>
</g>
<g>
</g>
<g>
</g>
<g>
</g>
<g>
</g>
<g>
</g>
<g>
</g>
<g>
</g>
<g>
</g>
<g>
</g>
<g>
</g>
<g>
</g>
<g>
</g>
<g>
</g>
</svg>
