<?xml version="1.0" encoding="iso-8859-1"?>
<!-- Generator: Adobe Illustrator 19.0.0, SVG Export Plug-In . SVG Version: 6.00 Build 0)  -->
<svg version="1.1" id="Layer_1" xmlns="http://www.w3.org/2000/svg" xmlns:xlink="http://www.w3.org/1999/xlink" x="0px" y="0px"
	 viewBox="0 0 496 496" style="enable-background:new 0 0 496 496;" xml:space="preserve">
<g>
	<g>
		<path d="M248,0C144.64,0,40,27.488,40,80v336c0,52.512,104.64,80,208,80s208-27.488,208-80V80C456,27.488,351.36,0,248,0z
			 M424,416c0,16.304-62.128,48-176,48S72,432.304,72,416v-67.472C110.816,371.888,179.6,384,248,384s137.184-12.112,176-35.472V416
			z M424,304c0,16.304-62.128,48-176,48S72,320.304,72,304v-67.472C110.816,259.888,179.6,272,248,272s137.184-12.112,176-35.472
			V304z M424,192c0,16.304-62.128,48-176,48S72,208.304,72,192v-67.472C110.816,147.888,179.6,160,248,160
			s137.184-12.112,176-35.472V192z M248,128C134.128,128,72,96.304,72,80s62.128-48,176-48s176,31.696,176,48S361.872,128,248,128z"
			/>
	</g>
</g>
<g>
</g>
<g>
</g>
<g>
</g>
<g>
</g>
<g>
</g>
<g>
</g>
<g>
</g>
<g>
</g>
<g>
</g>
<g>
</g>
<g>
</g>
<g>
</g>
<g>
</g>
<g>
</g>
<g>
</g>
</svg>
