<svg xmlns="http://www.w3.org/2000/svg" width="190.632" height="190.631" viewBox="0 0 190.632 190.631">
  <g id="_x35_56_x2C__Box_x2C__Delivery_x2C__Open_x2C__Package_x2C__Parcel_x2C_" transform="translate(-6.001 -6.001)">
    <path id="Path_5" data-name="Path 5" d="M179.149,63.191l16.367-16.367a3.815,3.815,0,0,0-1.064-6.142L122.013,6.368a3.814,3.814,0,0,0-4.328.75L101.317,23.485,84.95,7.118a3.813,3.813,0,0,0-4.328-.75L8.181,40.682a3.814,3.814,0,0,0-1.064,6.142L23.485,63.192,7.117,79.558A3.815,3.815,0,0,0,8.181,85.7l16.883,8v61a3.814,3.814,0,0,0,2.037,3.374c.331.174,72.255,38.031,72.491,38.149a3.81,3.81,0,0,0,3.5-.022l72.44-38.126a3.813,3.813,0,0,0,2.037-3.374v-61l16.883-8a3.815,3.815,0,0,0,1.064-6.142Zm-77.832,30.1-63.534-30.1L101.317,33.1,164.85,63.191ZM121.176,14.41,186.3,45.258,172.961,58.6,107.838,27.748Zm-39.718,0L94.8,27.748,29.673,58.6,16.335,45.258ZM29.673,67.787,94.8,98.635,81.458,111.973,16.335,81.125Zm3.017,29.522,47.932,22.7a3.814,3.814,0,0,0,4.328-.75L97.5,106.71v79.8L32.689,152.393V97.309Zm137.255,55.084-64.815,34.113v-79.8l12.555,12.555a3.814,3.814,0,0,0,4.328.75l47.932-22.7Zm-48.768-40.421L107.838,98.635l65.123-30.848L186.3,81.125Z"/>
  </g>
</svg>
