<svg xmlns="http://www.w3.org/2000/svg" width="16.25" height="13" viewBox="0 0 16.25 13">
  <g id="Group_1566" data-name="Group 1566" transform="translate(-508.69 -355.844)" style="isolation: isolate">
    <path id="Path_13053" data-name="Path 13053" d="M513.972,364.781a6.006,6.006,0,0,1-2.656-.61,5.27,5.27,0,0,1-2.431.61.192.192,0,0,1-.178-.116.2.2,0,0,1,.036-.212,6.879,6.879,0,0,0,1.006-1.465,4.019,4.019,0,0,1-1.059-2.675c0-2.468,2.365-4.469,5.282-4.469s5.281,2,5.281,4.469S516.89,364.781,513.972,364.781Zm10.915,3.734a.2.2,0,0,1,.037.212.193.193,0,0,1-.179.117,5.185,5.185,0,0,0-4.68,0,4.79,4.79,0,0,1-4.724-3.39,5.514,5.514,0,0,0,4.724-5.141c0-.137-.012-.272-.023-.406h.023a4.686,4.686,0,0,1,4.875,4.469,4.214,4.214,0,0,1-1.025,2.734A7.115,7.115,0,0,0,524.887,368.515Z" fill="#4865b4"/>
  </g>
</svg>
