<svg xmlns="http://www.w3.org/2000/svg" width="14.625" height="13" viewBox="0 0 14.625 13">
  <g id="Group_1565" data-name="Group 1565" transform="translate(-382.151 -355.844)" style="isolation: isolate">
    <path id="Path_13052" data-name="Path 13052" d="M383.776,366.384v1.647a.848.848,0,0,1-.835.813.814.814,0,0,1-.79-.835v-1.625a.813.813,0,0,1,1.625,0Zm3.25-2.438v4.108a.808.808,0,0,1-.812.79.818.818,0,0,1-.813-.835v-4.063a.813.813,0,0,1,1.625,0Zm3.25-2.437v6.545a.808.808,0,0,1-.812.79.818.818,0,0,1-.813-.835v-6.5a.813.813,0,0,1,1.625,0Zm3.25-2.438v8.983a.813.813,0,0,1-1.625-.023v-8.96a.813.813,0,0,1,1.625,0Zm3.25-2.437v11.42a.813.813,0,0,1-1.625-.023v-11.4a.813.813,0,0,1,1.625,0Z" fill="#5ede6e"/>
  </g>
</svg>
