<svg xmlns="http://www.w3.org/2000/svg" width="25" height="19.444" viewBox="0 0 25 19.444">
                            <path id="Icon_awesome-address-card" data-name="Icon awesome-address-card" d="M22.917,2.25H2.083A2.084,2.084,0,0,0,0,4.333V19.611a2.084,2.084,0,0,0,2.083,2.083H22.917A2.084,2.084,0,0,0,25,19.611V4.333A2.084,2.084,0,0,0,22.917,2.25ZM7.639,6.417A2.778,2.778,0,1,1,4.861,9.194,2.78,2.78,0,0,1,7.639,6.417ZM12.5,16.694a.91.91,0,0,1-.972.833H3.75a.91.91,0,0,1-.972-.833v-.833a2.733,2.733,0,0,1,2.917-2.5h.217a4.471,4.471,0,0,0,3.455,0h.217a2.733,2.733,0,0,1,2.917,2.5ZM22.222,14.4a.348.348,0,0,1-.347.347h-6.25a.348.348,0,0,1-.347-.347v-.694a.348.348,0,0,1,.347-.347h6.25a.348.348,0,0,1,.347.347Zm0-2.778a.348.348,0,0,1-.347.347h-6.25a.348.348,0,0,1-.347-.347v-.694a.348.348,0,0,1,.347-.347h6.25a.348.348,0,0,1,.347.347Zm0-2.778a.348.348,0,0,1-.347.347h-6.25a.348.348,0,0,1-.347-.347V8.153a.348.348,0,0,1,.347-.347h6.25a.348.348,0,0,1,.347.347Z" transform="translate(0 -2.25)" fill="#c9cce6"/>
</svg>