<svg xmlns="http://www.w3.org/2000/svg" xmlns:xlink="http://www.w3.org/1999/xlink" width="36" height="36" viewBox="0 0 36 36">
  <defs>
    <clipPath id="clip-path">
      <rect id="Rectangle_1782" data-name="Rectangle 1782" width="36" height="36" transform="translate(4790 1174)" fill="#fff"/>
    </clipPath>
  </defs>
  <g id="Mask_Group_24" data-name="Mask Group 24" transform="translate(-4790 -1174)" clip-path="url(#clip-path)">
    <g id="vuesax_bold_wallet-3" data-name="vuesax/bold/wallet-3" transform="translate(4432 800)">
      <g id="wallet-3">
        <path id="Vector" d="M0,0H24V24H0Z" transform="translate(388 404) rotate(180)" fill="none" opacity="0"/>
        <path id="Vector-2" data-name="Vector" d="M5.129,1.02V3.08A1.026,1.026,0,0,1,4.1,4.1H2.169A2.132,2.132,0,0,1,.009,2.23,2.008,2.008,0,0,1,.609.6,1.993,1.993,0,0,1,2.049,0H4.1A1.026,1.026,0,0,1,5.129,1.02Z" transform="translate(380.871 391.6)" fill="#fff"/>
        <path id="Vector-3" data-name="Vector" d="M13.38,7.81a3.539,3.539,0,0,1,1.05-2.83,3.483,3.483,0,0,1,2.49-1.03h.57a.457.457,0,0,0,.47-.51A4.008,4.008,0,0,0,14,0H4A4,4,0,0,0,0,4v7a4,4,0,0,0,4,4H14a4,4,0,0,0,3.96-3.44.457.457,0,0,0-.47-.51h-.45A3.637,3.637,0,0,1,13.38,7.81ZM11,5.75H5a.75.75,0,0,1,0-1.5h6a.75.75,0,0,1,0,1.5Z" transform="translate(366 386.15)" fill="#fff"/>
        <path id="Vector-4" data-name="Vector" d="M11.91,1.13a.4.4,0,0,1-.35.67H3.73a5.439,5.439,0,0,0-2.96.87c-.39.25-.92-.02-.73-.45A3.675,3.675,0,0,1,3.42,0H9.04A3.9,3.9,0,0,1,11.91,1.13Z" transform="translate(366.3 382.85)" fill="#fff"/>
      </g>
    </g>
  </g>
</svg>
