<svg xmlns="http://www.w3.org/2000/svg" width="26.289" height="24.256" viewBox="0 0 26.289 24.256">
  <g id="Group_1080" data-name="Group 1080" transform="translate(-71.73 -449.005)">
    <path id="Icon_ionic-ios-text" data-name="Icon ionic-ios-text" d="M16.513,4.5C9.256,4.5,3.375,9.25,3.375,15.112c0,4.1,2.88,7.656,7.093,9.424a8.255,8.255,0,0,1-2.116,3.822.251.251,0,0,0,.227.4,10.163,10.163,0,0,0,3.221-.8,9.967,9.967,0,0,0,2.925-2.331,16.816,16.816,0,0,0,1.8.1c7.258,0,13.138-4.75,13.138-10.612S23.771,4.5,16.513,4.5Z" transform="translate(68.355 444.505)" fill="#fff"/>
  </g>
</svg>
