<svg xmlns="http://www.w3.org/2000/svg" width="1069.975" height="789.132" viewBox="0 0 1069.975 789.132">
  <g id="_17719852_5889296" data-name="17719852_5889296" transform="translate(0 -117.595)">
    <g id="Background_Complete">
      <g id="Group_1747" data-name="Group 1747">
        <rect id="Rectangle_2245" data-name="Rectangle 2245" width="70.879" height="0.535" transform="translate(891.886 852.757)" fill="#ebebeb"/>
        <rect id="Rectangle_2246" data-name="Rectangle 2246" width="18.603" height="0.535" transform="translate(690.192 858.565)" fill="#ebebeb"/>
        <rect id="Rectangle_2247" data-name="Rectangle 2247" width="41.07" height="0.535" transform="translate(848.674 832.886)" fill="#ebebeb"/>
        <rect id="Rectangle_2248" data-name="Rectangle 2248" width="92.431" height="0.535" transform="translate(112.26 836.481)" fill="#ebebeb"/>
        <rect id="Rectangle_2249" data-name="Rectangle 2249" width="13.552" height="0.535" transform="translate(223.745 836.481)" fill="#ebebeb"/>
        <rect id="Rectangle_2250" data-name="Rectangle 2250" width="200.462" height="0.535" transform="translate(281.341 845.518)" fill="#ebebeb"/>
        <g id="Group_1746" data-name="Group 1746">
          <path id="Path_14784" data-name="Path 14784" d="M510.166,722.875H96.944A12.23,12.23,0,0,1,84.729,710.66V129.809a12.23,12.23,0,0,1,12.215-12.215H510.166a12.229,12.229,0,0,1,12.213,12.215V710.66A12.229,12.229,0,0,1,510.166,722.875ZM96.944,118.132a11.692,11.692,0,0,0-11.68,11.68V710.663a11.692,11.692,0,0,0,11.68,11.68H510.166a11.691,11.691,0,0,0,11.678-11.68V129.809a11.693,11.693,0,0,0-11.678-11.68H96.944Z" fill="#ebebeb"/>
          <path id="Path_14785" data-name="Path 14785" d="M973.031,722.875H559.809A12.229,12.229,0,0,1,547.6,710.66V129.809a12.229,12.229,0,0,1,12.213-12.215H973.031a12.228,12.228,0,0,1,12.215,12.215V710.66A12.23,12.23,0,0,1,973.031,722.875ZM559.809,118.132a11.691,11.691,0,0,0-11.678,11.68V710.663a11.691,11.691,0,0,0,11.678,11.68H973.031a11.692,11.692,0,0,0,11.68-11.68V129.809a11.693,11.693,0,0,0-11.68-11.68H559.809Z" fill="#ebebeb"/>
        </g>
        <rect id="Rectangle_2251" data-name="Rectangle 2251" width="1069.975" height="0.535" transform="translate(0 818.313)" fill="#ebebeb"/>
      </g>
      <g id="Group_1749" data-name="Group 1749">
        <path id="Path_14786" data-name="Path 14786" d="M870.478,352.681H785.884a14.571,14.571,0,0,0-14.571,14.571v54.487a14.571,14.571,0,0,0,14.571,14.571h24.325l10.862,14.207a8.951,8.951,0,0,0,14.22,0l10.862-14.207h24.325a14.571,14.571,0,0,0,14.571-14.571V367.252A14.569,14.569,0,0,0,870.478,352.681Z" fill="#e0e0e0"/>
        <g id="Group_1748" data-name="Group 1748">
          <path id="Path_14787" data-name="Path 14787" d="M810,400.321c-4.226-4.149-6.06-8.695-6.06-12.758,0-6.942,4.627-11.564,11.641-11.564,6.54,0,8.772,3.032,12.6,7.415,3.828-4.383,6.063-7.415,12.6-7.415,7.017,0,11.641,4.622,11.641,11.564,0,4.066-1.834,8.609-6.06,12.758l-18.181,18.1Z" fill="#fff"/>
        </g>
      </g>
      <g id="Group_1750" data-name="Group 1750">
        <path id="Path_14788" data-name="Path 14788" d="M215.835,781.116c-4.98-4.89-7.141-10.244-7.141-15.033,0-8.179,5.45-13.625,13.717-13.625,7.7,0,10.336,3.574,14.847,8.737,4.509-5.164,7.141-8.737,14.847-8.737,8.267,0,13.717,5.448,13.717,13.625,0,4.789-2.161,10.146-7.143,15.033l-21.421,21.331Z" fill="#e0e0e0"/>
      </g>
      <g id="Group_1751" data-name="Group 1751">
        <path id="Path_14789" data-name="Path 14789" d="M264.222,805.188c-3.045-2.99-4.366-6.264-4.366-9.191,0-5,3.332-8.331,8.386-8.331,4.71,0,6.319,2.185,9.076,5.341,2.756-3.156,4.365-5.341,9.076-5.341,5.055,0,8.386,3.33,8.386,8.331,0,2.927-1.32,6.2-4.365,9.191l-13.1,13.041Z" fill="#ebebeb"/>
      </g>
      <g id="Group_1753" data-name="Group 1753">
        <path id="Path_14790" data-name="Path 14790" d="M813.648,197.472H716.59a16.717,16.717,0,0,0-16.717,16.717V276.7a16.718,16.718,0,0,0,16.719,16.717H744.5l12.463,16.3a10.269,10.269,0,0,0,16.315,0l12.463-16.3h27.909A16.717,16.717,0,0,0,830.369,276.7V214.19A16.722,16.722,0,0,0,813.648,197.472Z" fill="#f5f5f5"/>
        <g id="Group_1752" data-name="Group 1752">
          <path id="Path_14791" data-name="Path 14791" d="M734.643,270.584h10.993V231.491H732.809Z" fill="#e0e0e0"/>
          <path id="Path_14792" data-name="Path 14792" d="M796.639,237.6c-.559-1.733-2.309-5.363-3.97-6.107-4.821-2.163-15.371-1.472-24.71-.244a19.58,19.58,0,0,0,.9-1.9c.8-2.108,2.1-6.561,1.945-8.812-.139-2.065-1.1-6.67-2.85-7.777-.931-.588-3.646-.8-4.406,0-1.849,1.937-.561,8.055-1.3,10.629-.676,2.365-3.756,6.527-6.386,9.792-3.261.606-5.344,1.057-5.344,1.057V268.75s28.187,7.672,37.259,5.192c3.49-.954,5.134-7,6.413-10.383C796.5,257.483,798.632,243.783,796.639,237.6Z" fill="#e0e0e0"/>
        </g>
      </g>
      <g id="Group_1754" data-name="Group 1754">
        <path id="Path_14793" data-name="Path 14793" d="M568.159,251.776a24.463,24.463,0,0,0-24.383-22.487H526.2a24.463,24.463,0,0,0-24.383,22.487l-1.477,14.913h69.3Z" fill="#ebebeb"/>
        <circle id="Ellipse_24" data-name="Ellipse 24" cx="16.499" cy="16.499" r="16.499" transform="translate(518.489 196.293)" fill="#ebebeb"/>
      </g>
      <path id="Path_14794" data-name="Path 14794" d="M207.609,481.784a10.988,10.988,0,0,0-6.959,2.474L187.4,473.58a11.02,11.02,0,1,0-2.883,3.584l13.246,10.678a10.963,10.963,0,0,0,0,9.959L184.521,508.48a11.1,11.1,0,1,0,2.883,3.584l13.246-10.678a11.037,11.037,0,1,0,6.959-19.6Z" fill="#e0e0e0"/>
    </g>
    <g id="Shadow">
      <ellipse id="_x3C_Path_x3E__1_" cx="414.913" cy="24.231" rx="414.913" ry="24.231" transform="translate(120.075 858.266)" fill="#f5f5f5"/>
    </g>
    <g id="Character_4">
      <g id="Group_1765" data-name="Group 1765">
        <path id="Path_14795" data-name="Path 14795" d="M742.267,582.255H904.225a22.517,22.517,0,0,1,22.517,22.517V727.878a22.517,22.517,0,0,1-22.517,22.517H781.934a39.787,39.787,0,0,1-39.478,34.948c-.9,0-1.783-.075-2.669-.135,6.328-8.337,11.492-20.417,14.875-34.813H742.267a22.517,22.517,0,0,1-22.517-22.517V604.771A22.517,22.517,0,0,1,742.267,582.255Z" fill="#407bff"/>
        <path id="Path_14796" data-name="Path 14796" d="M742.267,582.255H904.225a22.517,22.517,0,0,1,22.517,22.517V727.878a22.517,22.517,0,0,1-22.517,22.517H781.934a39.787,39.787,0,0,1-39.478,34.948c-.9,0-1.783-.075-2.669-.135,6.328-8.337,11.492-20.417,14.875-34.813H742.267a22.517,22.517,0,0,1-22.517-22.517V604.771A22.517,22.517,0,0,1,742.267,582.255Z" fill="#fff" opacity="0.4"/>
        <g id="Group_1764" data-name="Group 1764">
          <g id="Group_1755" data-name="Group 1755">
            <path id="Path_14797" data-name="Path 14797" d="M734.609,630.121,726.6,616.588l5-8.641a4.332,4.332,0,0,0,.3-3.711l-.372-.974a4.323,4.323,0,0,0-3.927-2.78l-7.854-.205a4.322,4.322,0,0,0-3.908,2.249l-1.592,2.912a5.1,5.1,0,0,0-.152,4.594l3.385,7.3,6.259,16.788Z" fill="#7f3e3b"/>
            <path id="Path_14798" data-name="Path 14798" d="M798.341,627.746l-45.72,33.281-21.479-40.178-12.2,5.279s18.8,60.907,29.732,58.448,41.793-17.715,51.842-28.192c5.063-5.279,8.919-14.969,3.914-26.957A4.035,4.035,0,0,0,798.341,627.746Z" fill="#407bff"/>
          </g>
          <g id="Group_1756" data-name="Group 1756">
            <path id="Path_14799" data-name="Path 14799" d="M815.437,548.523s-16.152,4.235-8.669,23.717c0,0,8.036-2.114,9.347-7.325s2.542-12.5,2.542-12.5Z" fill="#263238"/>
            <path id="Path_14800" data-name="Path 14800" d="M815.437,548.523s-16.152,4.235-8.669,23.717c0,0,8.036-2.114,9.347-7.325s2.542-12.5,2.542-12.5Z" opacity="0.3"/>
          </g>
          <path id="Path_14801" data-name="Path 14801" d="M853.579,625.824l-29.488-.969-12.2,1.765-1.652,22.236,23.76,7.9,25.356-5.055,1.327-21.425-1.8-4.282Z" fill="#7f3e3b"/>
          <g id="Group_1757" data-name="Group 1757">
            <path id="Path_14802" data-name="Path 14802" d="M813.434,750.395h41.725c.422-14.7,2.591-91.027,2.134-90.569-.509.507,4.4-16.264,4.4-16.264v-6.777l-4.4-7.284s-9.471,14.436-25.046,13.723c-14.766-.678-17.308-15.416-17.308-15.416l-1.862,22.531-1.864,54.552,2.371,23.122Z" fill="#407bff"/>
            <path id="Path_14803" data-name="Path 14803" d="M813.434,750.395h41.725c.422-14.7,2.591-91.027,2.134-90.569-.509.507,4.4-16.264,4.4-16.264v-6.777l-4.4-7.284s-9.471,14.436-25.046,13.723c-14.766-.678-17.308-15.416-17.308-15.416l-1.862,22.531-1.864,54.552,2.371,23.122Z" fill="#fff" opacity="0.6"/>
          </g>
          <path id="Path_14804" data-name="Path 14804" d="M796.825,750.395h22.611c4.443-29.448,5.04-83.285,5.04-83.285s-4.963-18.975-6.319-31.312,16.264-10.7,31.684-8.671-11.992,41-11.992,41-1.937,52.671,2.574,82.266h55.748c-2.786-7.843-11-31.971-12.96-49.063-2.371-20.668,11.86-50.824,9.822-65.532s-50.781-11.714-50.781-11.714-31.224-.205-38.183.109c-8.145.366-11.382,21.789-15.232,38.712s3.227,33.683,7.088,54.982A108.73,108.73,0,0,1,796.825,750.395Z" fill="#263238"/>
          <g id="Group_1758" data-name="Group 1758">
            <path id="Path_14805" data-name="Path 14805" d="M821.651,624.02c10.154,0,20.6.066,20.6.066s6.24-.379,14.338-.2c3.225,2.211,7.483,7.312,4.089,18.151l-7.062,2.711,1.293,6.946s-8.128,12.889-17.1,17.777c.028-.865.045-1.344.045-1.344s27.413-38.964,11.992-41-33.039-3.666-31.684,8.671,6.317,31.312,6.317,31.312,0,.205-.006.576c-4.346-3.878-8.044-10.732-10.728-18.872l2.88-8.006-6.383-3.514A17.11,17.11,0,0,1,821.651,624.02Z" fill="#407bff"/>
          </g>
          <path id="Path_14806" data-name="Path 14806" d="M821.321,635.7a7.343,7.343,0,0,1,.633-7.062c11.594-3.931,10.533-12.634,7.86-20.71L848.5,588.867c-1.109,10.154-1.519,33.488,5.117,41.62v1.86c-8.789,10.417-19.217,10.355-24.915,9.281A9.713,9.713,0,0,1,821.321,635.7Z" fill="#7f3e3b"/>
          <path id="Path_14807" data-name="Path 14807" d="M829.815,607.928l14.841-15.136,3.435,1.231c-.107,1.828-.178,3.82-.208,5.915-1.879,3.852-6.388,9.264-16.942,11.982C830.637,610.588,830.251,609.25,829.815,607.928Z" opacity="0.1"/>
          <path id="Path_14808" data-name="Path 14808" d="M858.011,572.049c-4.52,17.272-6.052,24.68-16.642,31.911-15.936,10.886-36.154,1.573-36.9-16.7-.668-16.445,6.818-41.913,25.288-45.508a24.344,24.344,0,0,1,28.256,30.3Z" fill="#7f3e3b"/>
          <path id="Path_14809" data-name="Path 14809" d="M816.971,576.507a38.671,38.671,0,0,1-6.859,8.1,6.21,6.21,0,0,0,4.873,1.964Z" fill="#630f0f"/>
          <path id="Path_14810" data-name="Path 14810" d="M835.385,570.141a.782.782,0,0,0,.353-.1.708.708,0,0,0,.244-.969l-.006-.013a8.271,8.271,0,0,0-6.4-4.145.728.728,0,0,0-.728.687.708.708,0,0,0,.668.728,6.937,6.937,0,0,1,5.266,3.477A.7.7,0,0,0,835.385,570.141Z" fill="#263238"/>
          <path id="Path_14811" data-name="Path 14811" d="M806.776,564.915a.781.781,0,0,0,.353-.1,6.915,6.915,0,0,1,6.268-.413.706.706,0,0,0,.959-.287s0-.006,0-.009a.726.726,0,0,0-.315-.963,8.356,8.356,0,0,0-7.625.432.7.7,0,0,0-.306.952.714.714,0,0,0,.661.385Z" fill="#263238"/>
          <path id="Path_14812" data-name="Path 14812" d="M822.22,591.309a13.91,13.91,0,0,1-2.476-.216.43.43,0,0,1-.355-.5s0-.009,0-.015a.433.433,0,0,1,.492-.353,11.791,11.791,0,0,0,10.2-2.848.438.438,0,1,1,.648.588A12.239,12.239,0,0,1,822.22,591.309Z" fill="#263238"/>
          <path id="Path_14813" data-name="Path 14813" d="M852.2,585.552s-6.437-6.208-5.251-17.554c0,0-6.946-7.111-6.606-14.734,0,0-2.056,6.071-.013,10.4,0,0-18.029-1.312-17.607-10.4,0,0-1.185,4.575,1.524,6.946,0,0-16.022.678-13.856-7.625s14.723-12.367,14.723-12.367,11.967-10.165,28.5,7.794c0,0,19.48,12.161,5.671,32.44Z" fill="#263238"/>
          <path id="Path_14814" data-name="Path 14814" d="M859.425,586.687a13.008,13.008,0,0,1-7.663,6.366c-4.383,1.316-6.662-2.574-5.521-6.76,1.021-3.753,4.539-8.979,8.979-8.47a5.895,5.895,0,0,1,4.2,8.864Z" fill="#7f3e3b"/>
          <g id="Group_1759" data-name="Group 1759">
            <path id="Path_14815" data-name="Path 14815" d="M829.948,574.044c-.152,1.483-1.072,2.606-2.059,2.512s-1.635-1.385-1.464-2.889,1.072-2.606,2.039-2.51S830.1,572.539,829.948,574.044Z" fill="#2e353a"/>
            <path id="Path_14816" data-name="Path 14816" d="M813.072,572.278c-.152,1.483-1.072,2.606-2.039,2.51s-1.635-1.382-1.485-2.887,1.072-2.606,2.039-2.51S813.243,570.772,813.072,572.278Z" fill="#2e353a"/>
            <path id="Path_14817" data-name="Path 14817" d="M812.006,569.516l-3.473-1.4S810.087,571.1,812.006,569.516Z" fill="#2e353a"/>
            <path id="Path_14818" data-name="Path 14818" d="M828.882,571.281l-3.473-1.4S826.965,572.863,828.882,571.281Z" fill="#2e353a"/>
          </g>
          <g id="Group_1762" data-name="Group 1762">
            <g id="Group_1760" data-name="Group 1760">
              <path id="Path_14819" data-name="Path 14819" d="M850.692,601.144a5.779,5.779,0,0,0,4.254-9.692l-.749.689a4.738,4.738,0,1,1-1.56-1.126l.417-.927a5.78,5.78,0,1,0-2.362,11.055Z" fill="#407bff"/>
            </g>
            <g id="Group_1761" data-name="Group 1761" opacity="0.6">
              <path id="Path_14820" data-name="Path 14820" d="M850.692,601.144a5.779,5.779,0,0,0,4.254-9.692l-.749.689a4.738,4.738,0,1,1-1.56-1.126l.417-.927a5.78,5.78,0,1,0-2.362,11.055Z" fill="#fff"/>
            </g>
          </g>
          <g id="Group_1763" data-name="Group 1763">
            <path id="Path_14821" data-name="Path 14821" d="M846.708,688.527,831,689.209l-5.264-8.485a4.327,4.327,0,0,0-3.133-2.012l-1.036-.13a4.328,4.328,0,0,0-4.3,2.153l-3.882,6.829a4.324,4.324,0,0,0,.141,4.507l1.817,2.776a5.1,5.1,0,0,0,3.98,2.3l8.036.456,17.757,2.39Z" fill="#7f3e3b"/>
            <path id="Path_14822" data-name="Path 14822" d="M874.647,631.2l7.807,56.007-45.56.011L835.8,700.459s62.583,12.119,65.564,1.323,4.072-45.211-.434-59.011c-2.27-6.953-9-14.922-21.932-16.157A4.034,4.034,0,0,0,874.647,631.2Z" fill="#407bff"/>
          </g>
        </g>
      </g>
    </g>
    <g id="Device">
      <g id="Group_1772" data-name="Group 1772">
        <g id="Group_1767" data-name="Group 1767">
          <path id="Path_14823" data-name="Path 14823" d="M675.569,308.191H625.559L575.125,884.649h50.011c23.182,0,43.616-18.791,45.645-41.973l43.088-492.51C715.9,326.984,698.752,308.191,675.569,308.191Z" fill="#263238"/>
          <g id="Group_1766" data-name="Group 1766">
            <path id="Path_14824" data-name="Path 14824" d="M706.541,366.009a4.479,4.479,0,0,1,4.374-4.023,3.63,3.63,0,0,1,3.672,4.023l-3.379,38.622a4.479,4.479,0,0,1-4.374,4.023,3.627,3.627,0,0,1-3.67-4.023Z" fill="#407bff"/>
            <path id="Path_14825" data-name="Path 14825" d="M706.541,366.009a4.479,4.479,0,0,1,4.374-4.023,3.63,3.63,0,0,1,3.672,4.023l-3.379,38.622a4.479,4.479,0,0,1-4.374,4.023,3.627,3.627,0,0,1-3.67-4.023Z" fill="#fff" opacity="0.3"/>
          </g>
        </g>
        <path id="Path_14826" data-name="Path 14826" d="M614.9,884.649H408.837c-23.182,0-40.329-18.793-38.3-41.973l43.09-492.512c2.029-23.182,22.465-41.973,45.645-41.973h206.06c23.18,0,40.33,18.793,38.3,41.973l-43.09,492.512C658.514,865.858,638.078,884.649,614.9,884.649Z" fill="#407bff"/>
        <g id="Group_1768" data-name="Group 1768">
          <path id="Path_14827" data-name="Path 14827" d="M664.487,317.821H610.928a7.773,7.773,0,0,0-7.445,6.086l-.362,1.678a18.989,18.989,0,0,1-18.183,14.866H534.02a15.292,15.292,0,0,1-15.583-14.866l-.066-1.678a6.26,6.26,0,0,0-6.381-6.086H458.429c-17.862,0-33.61,14.481-35.172,32.343l-43.088,492.51c-1.562,17.862,11.65,32.343,29.514,32.343h206.06c17.862,0,33.61-14.481,35.174-32.343l43.088-492.51C695.565,332.3,682.351,317.821,664.487,317.821Z" fill="#407bff"/>
          <path id="Path_14828" data-name="Path 14828" d="M664.487,317.821H610.928a7.773,7.773,0,0,0-7.445,6.086l-.362,1.678a18.989,18.989,0,0,1-18.183,14.866H534.02a15.292,15.292,0,0,1-15.583-14.866l-.066-1.678a6.26,6.26,0,0,0-6.381-6.086H458.429c-17.862,0-33.61,14.481-35.172,32.343l-43.088,492.51c-1.562,17.862,11.65,32.343,29.514,32.343h206.06c17.862,0,33.61-14.481,35.174-32.343l43.088-492.51C695.565,332.3,682.351,317.821,664.487,317.821Z" fill="#fff" opacity="0.7"/>
        </g>
        <g id="Group_1769" data-name="Group 1769" opacity="0.2">
          <ellipse id="Ellipse_25" data-name="Ellipse 25" cx="4.276" cy="3.918" rx="4.276" ry="3.918" transform="matrix(0.722, -0.691, 0.691, 0.722, 538.636, 323.399)"/>
          <path id="Path_14829" data-name="Path 14829" d="M577.894,319.186H563.862a4.558,4.558,0,0,0-4.451,4.094,3.69,3.69,0,0,0,3.734,4.092h14.032a4.557,4.557,0,0,0,4.451-4.092A3.69,3.69,0,0,0,577.894,319.186Z"/>
        </g>
        <g id="Group_1770" data-name="Group 1770">
          <path id="Path_14830" data-name="Path 14830" d="M446.539,340.372h4.333l.379-4.333h-4.333Z" fill="#407bff"/>
          <path id="Path_14831" data-name="Path 14831" d="M455.585,336.039l-.379,4.333h4.333l.379-4.333.381-4.333h-4.336Z" fill="#407bff"/>
          <path id="Path_14832" data-name="Path 14832" d="M465.009,327.372l-.379,4.333-.379,4.333-.379,4.333h4.333l.379-4.333.381-4.333.377-4.333Z" fill="#407bff"/>
        </g>
        <path id="Path_14833" data-name="Path 14833" d="M651.334,327.661l-.278,3.178h-2.119l-.556,6.356H650.5l-.278,3.178h19.067l1.113-12.711Zm7.642,9.533h-6.356l.556-6.356h6.356Z" fill="#407bff"/>
        <g id="Group_1771" data-name="Group 1771" opacity="0.4">
          <path id="Path_14834" data-name="Path 14834" d="M534.168,340.451,391.923,869.372a29.91,29.91,0,0,0,17.755,5.647H420.8L564.564,340.451Z" fill="#fff"/>
          <path id="Path_14835" data-name="Path 14835" d="M664.487,317.821H610.926a7.777,7.777,0,0,0-7.447,6.088l-.362,1.678a19.005,19.005,0,0,1-17.526,14.834l-143.77,534.6H551.48L694,345.054C692.9,329.627,680.607,317.821,664.487,317.821Z" fill="#fff"/>
        </g>
      </g>
    </g>
    <g id="Character_3">
      <g id="Group_1781" data-name="Group 1781">
        <g id="Group_1780" data-name="Group 1780">
          <g id="Group_1773" data-name="Group 1773">
            <path id="Path_14836" data-name="Path 14836" d="M449.2,461.384l-6.42-1.4a2.9,2.9,0,0,1-2.1-3.873l8.954-23.42,10.259,2.232-7.3,24.453A2.9,2.9,0,0,1,449.2,461.384Z" fill="#407bff"/>
            <path id="Path_14837" data-name="Path 14837" d="M474.072,431.416h0a3.3,3.3,0,0,1-2.523-3.925l.871-4.008a3.3,3.3,0,0,1,3.925-2.523h0a3.3,3.3,0,0,1,2.523,3.925L478,428.893A3.3,3.3,0,0,1,474.072,431.416Z" fill="#407bff"/>
            <path id="Path_14838" data-name="Path 14838" d="M467.733,411.476s-24.4-2.78-32.932-7.16c-20.088-10.312-39.264-34.918-43.336-35.8-6.63-1.442-15.673,14.261-20.2,35.072s-2.82,38.851,3.809,40.293c4.074.886,31.735-13.533,54.291-14.571,9.585-.441,32.932,7.16,32.932,7.16Z" fill="#407bff"/>
            <path id="Path_14839" data-name="Path 14839" d="M467.733,411.476s-24.4-2.78-32.932-7.16c-20.088-10.312-39.264-34.918-43.336-35.8-6.63-1.442-15.673,14.261-20.2,35.072s-2.82,38.851,3.809,40.293c4.074.886,31.735-13.533,54.291-14.571,9.585-.441,32.932,7.16,32.932,7.16Z" fill="#fff" opacity="0.3"/>
            <path id="Path_14840" data-name="Path 14840" d="M395.275,408.805c-4.526,20.811-13.569,36.514-20.2,35.072s-8.335-19.482-3.809-40.293,13.569-36.514,20.2-35.072S399.8,387.994,395.275,408.805Z" fill="#407bff"/>
            <path id="Path_14841" data-name="Path 14841" d="M395.275,408.805c-4.526,20.811-13.569,36.514-20.2,35.072s-8.335-19.482-3.809-40.293,13.569-36.514,20.2-35.072S399.8,387.994,395.275,408.805Z" opacity="0.4"/>
            <path id="Path_14842" data-name="Path 14842" d="M463.764,408.645l-11.312-2.461A5.434,5.434,0,0,0,445.9,410.7c-.4,2.84-.916,5.776-1.569,8.774s-1.4,5.885-2.217,8.633a5.434,5.434,0,0,0,4.087,6.831l13.424,2.919c8.042,1.748,13.833-3.908,15.476-12.014A14.69,14.69,0,0,0,463.764,408.645Z" fill="#263238"/>
            <path id="Path_14843" data-name="Path 14843" d="M383.625,404.566l-.708,3.257a4.01,4.01,0,0,0,2.38,4.554l8.23,3.42c.636-2.253,1.224-4.584,1.748-6.993s.954-4.774,1.314-7.087l-8.909-.306A4.011,4.011,0,0,0,383.625,404.566Z" fill="#263238"/>
            <path id="Path_14844" data-name="Path 14844" d="M383.625,404.566l-.708,3.257a4.01,4.01,0,0,0,2.38,4.554l8.23,3.42c.636-2.253,1.224-4.584,1.748-6.993s.954-4.774,1.314-7.087l-8.909-.306A4.011,4.011,0,0,0,383.625,404.566Z" fill="#fff" opacity="0.8"/>
            <path id="Path_14845" data-name="Path 14845" d="M389.839,407.624c-.449,2.069-.954,4.068-1.487,6.024l5.174,2.151c.636-2.253,1.224-4.584,1.748-6.993s.954-4.774,1.314-7.088l-5.6-.193C390.661,403.526,390.291,405.555,389.839,407.624Z" opacity="0.2"/>
          </g>
          <path id="Path_14846" data-name="Path 14846" d="M587.553,408.908a13.825,13.825,0,0,0,12.5-1.348c6.57-4.3,18.913,1.113,15.183,18.628-6.42,30.137-19.822,51.759-11.134,60.884,0,0-28.928,1.322-24.648-24.226,3.21-19.161,24.975-40.914,19.726-45.243-1.75-1.442-4.293-.7-12.512-.7Z" fill="#263238"/>
          <path id="Path_14847" data-name="Path 14847" d="M586.669,416.907a38.946,38.946,0,0,1,11.746,1.41,29.393,29.393,0,0,0,1.532-12.084,64.937,64.937,0,0,0-12.395,2.675Z" fill="#407bff"/>
          <path id="Path_14848" data-name="Path 14848" d="M559.426,386.95s-12.029-3.439-4.1-11.2c10.357-10.128,25.1,8.827,25.1,8.827s34.507,15.089,6.02,50.075c0,0-10.28,18.408-12.429,11.25s12.161-27.488,12.161-27.488l-.854-18.183-3.961-7.094-12.433-7.09Z" fill="#263238"/>
          <path id="Path_14849" data-name="Path 14849" d="M511.722,489.422a11.9,11.9,0,0,0-16.364-3.937l-.182.111c-3.73,2.283-7.719,4.847-11.658,7.186l-11.881,7.132c-5.557,3.278-11.156,6.435-16.779,9.516a107.724,107.724,0,0,1-.195-12.835c.152-5.007.5-10.111.895-15.243.34-5.125.884-10.338,1.322-15.423l.013-.135a5.939,5.939,0,0,0-11.492-2.553c-1.9,5.155-3.394,10.248-4.883,15.463-1.421,5.213-2.649,10.5-3.655,15.928a100.021,100.021,0,0,0-1.8,17.169,36.069,36.069,0,0,0,1.4,10.736,16.977,16.977,0,0,0,5.14,8.01,14.679,14.679,0,0,0,6.5,3.15,16.222,16.222,0,0,0,6.247-.043,8.149,8.149,0,0,0,1.457-.432l.7-.289c4.554-1.875,9.1-3.775,13.512-5.9q6.664-3.1,13.118-6.546c4.321-2.266,8.562-4.663,12.75-7.154,4.192-2.559,8.267-5,12.474-7.926A11.933,11.933,0,0,0,511.722,489.422Z" fill="#ce7a63"/>
          <path id="Path_14850" data-name="Path 14850" d="M522.208,473.809c7.205,14.524-3.167,27.137-22.189,47.329-16.944-14.164-19.7-31.68-19.7-31.68S502.24,471.307,522.208,473.809Z" fill="#407bff"/>
          <path id="Path_14851" data-name="Path 14851" d="M522.9,491.052c-7.051-4.291-14.937-6.214-20.492.794-6.193,7.811-11.256,12.442-14.8,15.136a60.537,60.537,0,0,0,12.4,14.158C511.38,509.079,519.616,499.728,522.9,491.052Z" opacity="0.2"/>
          <path id="Path_14852" data-name="Path 14852" d="M451.44,438.619l4.892,3.227a6.821,6.821,0,0,1,3.06,5.444l.375,10.293a12.712,12.712,0,0,1-4.971,10.552l-2.022,1.551c-8.481-4.8-14.109-16.229-14.109-16.229l-1.967-3.082a5.671,5.671,0,0,1,1.556-7.918l6.054-3.976A6.543,6.543,0,0,1,451.44,438.619Z" fill="#ce7a63"/>
          <path id="Path_14853" data-name="Path 14853" d="M505.435,875.019c11.1-34.316,18.652-72.26,11.128-100.017,45.8-134.511,25.147-173.672,25.147-173.672L487.2,581.45S479.411,702.6,477.066,761.172c-1.312,32.782-6.906,75.369-13.345,113.847Z" fill="#263238"/>
          <path id="Path_14854" data-name="Path 14854" d="M533.706,651.095l-11.057-17.832-6.777,13.91s-6.379,53.409,4.978,114.913c10.614-32.786,17.07-59.459,20.835-80.971Z" opacity="0.5"/>
          <g id="Group_1774" data-name="Group 1774">
            <path id="Path_14855" data-name="Path 14855" d="M538.936,875.019h41.31c4.218-35.57,4.265-73.856-8.337-99.456,19.193-140.794-8.583-175.273-8.583-175.273l-57.306-9.073s15.557,120.4,24.475,178.335C535.11,799.55,537.735,838.48,538.936,875.019Z" fill="#263238"/>
          </g>
          <path id="Path_14856" data-name="Path 14856" d="M496.644,500.864c-1.442,7.59-3.317,13.244-5.142,31.62-1.838,15.506-3.182,30.841-4.956,56.46l77.582,12.283c1.9-22.1,8.391-46.6,30.107-93.574,5.035-10.89-.434-22.979-11.75-25.968-3.024-.8-6.242-1.575-9.563-2.266-12.908-2.688-23.507-4.794-35.23-5.577-3.884-.259-7.929-.4-11.806-.479C511.889,473.1,499.229,487.26,496.644,500.864Z" fill="#407bff"/>
          <path id="Path_14857" data-name="Path 14857" d="M576.727,439.362c-4.862,10.85-11.915,31.023-5.746,39.752,0,0-10.482-3.313-35.508,7.177-5.1-10.511.278-12.752.278-12.752,13.343-.982,15.2-10.3,15.048-19.354Z" fill="#ce7a63"/>
          <path id="Path_14858" data-name="Path 14858" d="M540.714,484.211c2.915.9,4.759,3.283,5.923,5.836a7.547,7.547,0,0,0,10.612,3.495c6.336-3.614,14.511-8.774,18.551-13.351a75.407,75.407,0,0,1-5.923-5.224S545.784,480.571,540.714,484.211Z" fill="#fff"/>
          <path id="Path_14859" data-name="Path 14859" d="M533.77,481.872a11.463,11.463,0,0,0-5.055,2.249,2.409,2.409,0,0,1-3.719-2.7c2.675-7.575,7.284-8.472,7.284-8.472s2.621-1.307,6.944.094C532.773,475.244,533.77,481.872,533.77,481.872Z" fill="#fff"/>
          <path id="Path_14860" data-name="Path 14860" d="M566.156,445.411l-15.343,8.765a35.67,35.67,0,0,1-.37,6.351c4.99.075,12.859-4.113,14.547-9.028A17.11,17.11,0,0,0,566.156,445.411Z" opacity="0.2"/>
          <path id="Path_14861" data-name="Path 14861" d="M590.008,418.142c-6.336,17.757-8.639,25.388-20.473,32.512-17.8,10.717-38.277.315-37.387-18.671.8-17.09,11.029-43.259,30.847-46.317C582.518,382.657,596.344,400.385,590.008,418.142Z" fill="#ce7a63"/>
          <path id="Path_14862" data-name="Path 14862" d="M566.15,417.491c-.466,1.513-1.641,2.553-2.621,2.324s-1.4-1.643-.929-3.156,1.641-2.553,2.621-2.324S566.616,415.978,566.15,417.491Z" fill="#263238"/>
          <path id="Path_14863" data-name="Path 14863" d="M547.2,412.426c-.466,1.513-1.641,2.553-2.621,2.324s-1.4-1.643-.929-3.156,1.641-2.553,2.621-2.324S547.673,410.913,547.2,412.426Z" fill="#263238"/>
          <path id="Path_14864" data-name="Path 14864" d="M546.682,409.454,543.4,407.56S544.378,410.834,546.682,409.454Z" fill="#263238"/>
          <path id="Path_14865" data-name="Path 14865" d="M552.7,415.548s-4.556,5.919-8.327,8.4c1.4,2.33,5.031,2.266,5.031,2.266Z" fill="#ba4d3c"/>
          <path id="Path_14866" data-name="Path 14866" d="M571.9,408.668a.842.842,0,0,1-.593-.374,6.781,6.781,0,0,0-5.564-3.212.846.846,0,0,1-.892-.875,1,1,0,0,1,.952-.95,8.452,8.452,0,0,1,7.081,3.976.979.979,0,0,1-.984,1.436Z" fill="#263238"/>
          <path id="Path_14867" data-name="Path 14867" d="M543.134,399.728a.855.855,0,0,1-.467-.475.913.913,0,0,1,.569-1.162,9.683,9.683,0,0,1,8.568.522.841.841,0,0,1,.182,1.237,1,1,0,0,1-1.32.229,7.737,7.737,0,0,0-6.792-.342A.993.993,0,0,1,543.134,399.728Z" fill="#263238"/>
          <path id="Path_14868" data-name="Path 14868" d="M565.627,414.521l-3.276-1.894S563.323,415.9,565.627,414.521Z" fill="#263238"/>
          <g id="Group_1775" data-name="Group 1775">
            <path id="Path_14869" data-name="Path 14869" d="M495.065,559.195H476.558a4.131,4.131,0,0,1-3.839-3.163l-8.575-40.058a2.479,2.479,0,0,1,2.487-3.163h18.506a4.131,4.131,0,0,1,3.839,3.163l8.575,40.058A2.479,2.479,0,0,1,495.065,559.195Z" fill="#263238"/>
            <path id="Path_14870" data-name="Path 14870" d="M492.925,559.195H474.418a4.131,4.131,0,0,1-3.839-3.163L462,515.974a2.479,2.479,0,0,1,2.487-3.163H483a4.131,4.131,0,0,1,3.839,3.163l8.575,40.058A2.479,2.479,0,0,1,492.925,559.195Z" fill="#263238"/>
            <path id="Path_14871" data-name="Path 14871" d="M492.925,559.195H474.418a4.131,4.131,0,0,1-3.839-3.163L462,515.974a2.479,2.479,0,0,1,2.487-3.163H483a4.131,4.131,0,0,1,3.839,3.163l8.575,40.058A2.479,2.479,0,0,1,492.925,559.195Z" fill="#fff" opacity="0.2"/>
          </g>
          <path id="Path_14872" data-name="Path 14872" d="M486.291,535.593l5.72-1.271a6.812,6.812,0,0,1,6.039,1.588l7.657,6.888a12.714,12.714,0,0,1,4.126,10.909l-.293,2.534c-9.345,2.758-21.474-1.145-21.474-1.145l-3.582-.73a5.671,5.671,0,0,1-4.607-6.625l1.352-7.115A6.551,6.551,0,0,1,486.291,535.593Z" fill="#ce7a63"/>
          <path id="Path_14873" data-name="Path 14873" d="M584.913,493.913a11.9,11.9,0,0,0-12.96,10.73l-.034.366c-.2,2.129-.486,4.751-.76,7.167-.285,2.463-.625,4.933-1,7.394-.721,4.926-1.6,9.818-2.574,14.659-1,4.838-2.211,9.572-3.537,14.226-1.128,3.728-2.429,7.319-3.837,10.824a25.026,25.026,0,0,1-5.151-.319,118.413,118.413,0,0,1-16.343-3.629c-5.035-1.573-10.1-3.411-15.177-5.335-5.08-1.868-10.195-4-15.168-6.007l-.145-.06a5.932,5.932,0,0,0-5.744,10.272c4.7,3.473,9.446,6.488,14.348,9.514,4.915,2.955,9.976,5.716,15.271,8.256a119.571,119.571,0,0,0,18.823,6.486,43.329,43.329,0,0,0,10.685,1.534,23.079,23.079,0,0,0,7.147-1.04,17.928,17.928,0,0,0,8.378-5.513,9.755,9.755,0,0,0,1.027-1.515l.214-.4a121.084,121.084,0,0,0,7.19-15.821,155.373,155.373,0,0,0,4.984-16.174c1.372-5.423,2.461-10.882,3.325-16.362.409-2.746.781-5.491,1.094-8.26.342-2.81.552-5.433.708-8.556A11.928,11.928,0,0,0,584.913,493.913Z" fill="#ce7a63"/>
          <path id="Path_14874" data-name="Path 14874" d="M588.478,484.453c13.24,9.36,13.867,23.353,6.717,50.156-9.561,4.791-32.8-1.273-32.8-1.273S569.717,491.735,588.478,484.453Z" fill="#407bff"/>
          <g id="Group_1776" data-name="Group 1776">
            <path id="Path_14875" data-name="Path 14875" d="M540.885,431.35s6.315-1.258,23.86-.721c-2.193,5.221-6.157,9.364-15.155,9.093a8.177,8.177,0,0,1-8.69-7.625C540.883,431.848,540.879,431.6,540.885,431.35Z" fill="#263238"/>
            <path id="Path_14876" data-name="Path 14876" d="M553.86,435.628a16.493,16.493,0,0,0-9.876,2.29,9.733,9.733,0,0,0,5.577,1.742,16.281,16.281,0,0,0,9.854-2.288A9.376,9.376,0,0,0,553.86,435.628Z" fill="#ba4d3c"/>
            <path id="Path_14877" data-name="Path 14877" d="M541.69,431.232a3.658,3.658,0,0,0,2.675,2.694,94.9,94.9,0,0,0,15.585-.888,5.029,5.029,0,0,0,4.01-2.489A144.691,144.691,0,0,0,541.69,431.232Z" fill="#fff"/>
          </g>
          <path id="Path_14878" data-name="Path 14878" d="M563.156,384.481a24.6,24.6,0,0,0-3.325.755v1.016a27.029,27.029,0,0,1,8.307,1.226c14.8,4.522,17.188,12.758,12.159,25.151-2.38,5.863-3.661,18.3-.92,20.627.708.6,2.848.516,5.624.06,1.834-4.222,3.589-9.257,5.836-15.557C597.331,399.561,583.162,381.393,563.156,384.481Z" fill="#263238"/>
          <path id="Path_14879" data-name="Path 14879" d="M591.7,434.378a15.117,15.117,0,0,1-10.606,4.605c-5.125-.03-5.945-5.307-3.062-9.709,2.594-3.961,8.386-8.72,12.827-6.57C595.238,424.821,595.255,430.744,591.7,434.378Z" fill="#ce7a63"/>
          <g id="Group_1777" data-name="Group 1777" opacity="0.9">
            <path id="Path_14880" data-name="Path 14880" d="M560.126,525.306c-36.024-2.228-52.294-8.877-58.787-12.636a3.555,3.555,0,0,1-.559-.4c-1.868-1.637.484-4.612,2.634-3.373,5.673,3.272,21.3,9.929,56.974,12.138a2.149,2.149,0,0,1,2.022,2.251h0A2.16,2.16,0,0,1,560.126,525.306Z" fill="#fff"/>
          </g>
          <g id="Group_1778" data-name="Group 1778" opacity="0.9">
            <path id="Path_14881" data-name="Path 14881" d="M558.26,545.668a2.158,2.158,0,0,1-2.249,2.074c-31.408-1.468-53.069-10.736-59.555-13.86a2.136,2.136,0,0,1-.937-2.953h0a2.147,2.147,0,0,1,2.812-.907c6.169,2.927,27.563,12.018,57.877,13.447a2.14,2.14,0,0,1,2.052,2.2Z" fill="#fff"/>
          </g>
          <g id="Group_1779" data-name="Group 1779" opacity="0.9">
            <path id="Path_14882" data-name="Path 14882" d="M521.99,581.367c-16.679-3.266-25.264-5.485-28.876-6.508a2.131,2.131,0,0,1-1.432-2.741h0a2.129,2.129,0,0,1,2.6-1.38c3.484.984,12.033,3.2,28.53,6.431a2.149,2.149,0,0,1,1.7,2.506h0A2.152,2.152,0,0,1,521.99,581.367Z" fill="#fff"/>
          </g>
        </g>
        <path id="Path_14883" data-name="Path 14883" d="M560.085,391.7a3.006,3.006,0,0,1-3.9-1.519,4.54,4.54,0,0,1,.608-4.423,9.729,9.729,0,0,1,3.642-2.861c-.86,1.284-2.5,3.454-2.463,5S558.606,392.152,560.085,391.7Z" fill="#263238"/>
        <path id="Path_14884" data-name="Path 14884" d="M577.966,435.292a1.374,1.374,0,0,1-1.59,1.337,2.2,2.2,0,0,1-1.631-1.586,5.856,5.856,0,0,1-.086-2.38,16.453,16.453,0,0,1,1.307-5.294,7.4,7.4,0,0,1,3.777-3.792,2.427,2.427,0,0,1,.323,2.606,14.55,14.55,0,0,1-1.489,2.174,7.59,7.59,0,0,0-.929,6.593C577.921,434.968,577.695,435.274,577.966,435.292Z" fill="#263238"/>
      </g>
    </g>
    <g id="Character_2">
      <g id="Group_1782" data-name="Group 1782">
        <path id="Path_14885" data-name="Path 14885" d="M336.85,571.02H184.481A21.184,21.184,0,0,0,163.3,592.2V708.022a21.183,21.183,0,0,0,21.183,21.183H299.533a37.432,37.432,0,0,0,37.139,32.878c.847,0,1.678-.071,2.51-.126-5.953-7.843-10.811-19.208-13.993-32.752H336.85a21.184,21.184,0,0,0,21.183-21.183V592.2A21.184,21.184,0,0,0,336.85,571.02Z" fill="#407bff"/>
        <path id="Path_14886" data-name="Path 14886" d="M336.85,571.02H184.481A21.184,21.184,0,0,0,163.3,592.2V708.022a21.183,21.183,0,0,0,21.183,21.183H299.533a37.432,37.432,0,0,0,37.139,32.878c.847,0,1.678-.071,2.51-.126-5.953-7.843-10.811-19.208-13.993-32.752H336.85a21.184,21.184,0,0,0,21.183-21.183V592.2A21.184,21.184,0,0,0,336.85,571.02Z" fill="#fff" opacity="0.4"/>
      </g>
      <g id="Group_1787" data-name="Group 1787">
        <g id="Group_1783" data-name="Group 1783">
          <path id="Path_14887" data-name="Path 14887" d="M367.367,620.232l11.864-10.965,10.122,18.755s-11.735,8.984-18.7,3.462Z" fill="#ff8b7b"/>
          <path id="Path_14888" data-name="Path 14888" d="M367.367,620.232,359.3,637.388l11.072,9.153,9.668-15.671Z" fill="#ff8b7b"/>
          <path id="Path_14889" data-name="Path 14889" d="M390.494,611.8l1.954,7.094a8.386,8.386,0,0,1-3.094,9.127L385,630.872,372.88,609.618,383.265,607C386.407,606.143,389.518,608.212,390.494,611.8Z" fill="#ff8b7b"/>
          <path id="Path_14890" data-name="Path 14890" d="M367.367,620.232s4.224-13.221,3.6-17.267c-.37-2.416,2.1-2.018,4.147-1.305a4.075,4.075,0,0,1,2.737,3.694c.173,4.329.062,12.624-3.278,13.165A43.172,43.172,0,0,0,367.367,620.232Z" fill="#ff8b7b"/>
        </g>
        <g id="Group_1785" data-name="Group 1785">
          <path id="Path_14891" data-name="Path 14891" d="M381.211,633.986a23.286,23.286,0,0,0-12.643-7.278l-3.608-.751c-2.052-.426-2.54.062-2.8.618l-1.027,1.6-2.106,3.2c-1.43,2.123-2.833,4.261-4.3,6.341-2.844,4.216-5.823,8.292-8.827,12.174a93.668,93.668,0,0,1-9.219,10.492c-.3.285-.593.554-.888.824-1.1-1.216-2.183-2.463-3.238-3.773a144.459,144.459,0,0,1-8.761-12.358c-2.761-4.359-11.7-17.246-14.143-21.9-1.226-2.32-2.412-4.669-3.544-7.028l-1.648-3.537c-.507-1.123-1.094-2.457-1.442-3.317-.064-.158-.163-.387-.233-.546a16.052,16.052,0,0,0-29.3,13.109c.777,1.742,1.382,2.981,2.084,4.421l2.076,4.109q2.112,4.064,4.372,8.025c3.026,5.286,12.707,18.759,16.255,23.822a144.11,144.11,0,0,0,11.787,14.725,101.786,101.786,0,0,0,14.789,13.388l.678.494a13.387,13.387,0,0,0,11.547,2.022,34.41,34.41,0,0,0,11.954-6.249,58.835,58.835,0,0,0,7.522-7.085,115.843,115.843,0,0,0,10.933-14.421c3.154-4.86,5.913-9.814,8.523-14.793,1.263-2.514,2.5-5.025,3.657-7.582l1.706-3.852.835-1.95C382.544,636.31,382.668,635.61,381.211,633.986Z" fill="#263238"/>
          <path id="Path_14892" data-name="Path 14892" d="M301.9,627.187l-11.77,8.307-3.495,8.059c.584,1.064,1.141,2.142,1.742,3.2,3.026,5.286,6.336,10.43,9.884,15.493a144.114,144.114,0,0,0,11.787,14.725q3.046,3.3,6.435,6.458C310.8,669.873,301.9,627.187,301.9,627.187Z" opacity="0.4"/>
          <path id="Path_14893" data-name="Path 14893" d="M196.7,692.24c.929,21.333-2.461,20.413-2.542,36.965H298.446c5.664-50.522,3.013-58.29,3.116-91.817.058-18.885-2.893-38.14-21.676-40.1a320.941,320.941,0,0,0-66.345.43,24.962,24.962,0,0,0-21.693,28.348C196.056,654.594,193.764,670.752,196.7,692.24Z" fill="#263238"/>
          <path id="Path_14894" data-name="Path 14894" d="M270.372,596.481a338.707,338.707,0,0,0-41.735-.118c.3,4.254,3.554,15.063,27.239,24.237,0,0,5.275-11.47,9.735-6.3,0,0,3.567-6.6,11.235,5.528C276.845,619.83,288.279,607.6,270.372,596.481Z" fill="#fff" opacity="0.9"/>
          <path id="Path_14895" data-name="Path 14895" d="M214.016,626.826c2.288,19.842-10.389,53.013-17.2,69.048-.017-1.126-.056-2.343-.113-3.638-1.838-13.409-1.631-24.736-2.249-38.275Z" opacity="0.4"/>
          <path id="Path_14896" data-name="Path 14896" d="M238.87,558.448c.021,17.9-3.358,28.2-7.361,37.873a2.383,2.383,0,0,0,.571,2.686c6.833,6.161,17.276,11.192,31.457,11.385,14.015.188,13.21-4.192,9.893-9.12a5.729,5.729,0,0,0-1.84-1.706c-9.587-5.688-9.929-13.3-7.252-17.894Z" fill="#ff8b7b"/>
          <path id="Path_14897" data-name="Path 14897" d="M238.876,558.454l25.47,23.221a10.78,10.78,0,0,0-.537,9.732,21.3,21.3,0,0,1-14.654-5.256c-6.563-5.579-8.8-12.172-10.432-21.474C238.833,562.711,238.872,560.65,238.876,558.454Z" opacity="0.2"/>
          <path id="Path_14898" data-name="Path 14898" d="M231.275,546.462c1.13,17.1-1.3,19.844,7.394,28.513,13.079,13.039,34.363,15.532,37.374-1.812,2.711-15.611,4.211-43.886-12.6-50.471C246.892,516.205,230.145,529.359,231.275,546.462Z" fill="#ff8b7b"/>
          <g id="Group_1784" data-name="Group 1784">
            <path id="Path_14899" data-name="Path 14899" d="M272.844,564.874s-6.018-1.907-23.06-2.63c1.813,6.133,5.388,11.226,14.119,11.5S272.844,564.874,272.844,564.874Z" fill="#263238"/>
            <path id="Path_14900" data-name="Path 14900" d="M260,568.82a14.333,14.333,0,0,1,9.418,3.328,8.18,8.18,0,0,1-5.508,1.59c-4.214-.133-7.205-1.365-9.4-3.325A8.1,8.1,0,0,1,260,568.82Z" fill="#ff5652"/>
            <path id="Path_14901" data-name="Path 14901" d="M272.075,564.669c-.522,1.269-1.042,2.54-2.761,2.887-3.559.135-12.611-1.442-15.035-2.148a4.892,4.892,0,0,1-3.76-3.131C263.642,562.871,270.021,564.166,272.075,564.669Z" fill="#fff"/>
          </g>
          <path id="Path_14902" data-name="Path 14902" d="M266.146,548.957s3.435,6.024,6.651,8.695c-1.7,2.129-5.164,1.8-5.164,1.8Z" fill="#ff5652"/>
          <path id="Path_14903" data-name="Path 14903" d="M249.257,541.581a.851.851,0,0,1-.447-1.408,8.6,8.6,0,0,1,7.282-2.972.849.849,0,0,1,.713.976.87.87,0,0,1-.98.721h0a6.874,6.874,0,0,0-5.741,2.418A.877.877,0,0,1,249.257,541.581Z" fill="#263238"/>
          <path id="Path_14904" data-name="Path 14904" d="M277.671,544.62a.845.845,0,0,1-.766-.259,6.741,6.741,0,0,0-5.752-2.264.848.848,0,0,1-.982-.7.866.866,0,0,1,.7-.993,8.446,8.446,0,0,1,7.293,2.78.859.859,0,0,1-.049,1.213A.841.841,0,0,1,277.671,544.62Z" fill="#263238"/>
          <path id="Path_14905" data-name="Path 14905" d="M164.956,695.711a10.7,10.7,0,0,0,.355,2.407,124.393,124.393,0,0,0,7.511,19.927c1.558,3.4,3.167,6.724,4.806,10a21.121,21.121,0,0,0,6.852,1.156h23.064c-.764-1.706-1.53-3.415-2.288-5.115-2.529-5.587-4.894-11.194-7.025-16.732a116.523,116.523,0,0,1-4.5-13.777,41.388,41.388,0,0,1,1.079-5.3c.683-2.585,1.571-5.363,2.6-8.181,2.05-5.634,4.5-11.425,7.073-17.2s5.4-11.545,8.269-17.3c2.838-5.72,5.868-11.581,8.836-17.008l.1-.186c.058-.1.113-.212.169-.321a16.052,16.052,0,1,0-28.573-14.637c-3.223,6.291-6.114,12.294-9,18.53-2.853,6.206-5.545,12.506-8.125,18.93s-4.993,12.99-7.07,19.953c-1.046,3.477-2.005,7.075-2.8,10.95a58.084,58.084,0,0,0-1.342,13.439Z" fill="#263238"/>
          <path id="Path_14906" data-name="Path 14906" d="M223.509,557.919a15.6,15.6,0,0,0,7.9,8.322c4.582,1.971,7.1-2.514,6.018-7.644-.974-4.616-4.532-11.2-9.221-10.976C223.588,547.844,221.57,553.228,223.509,557.919Z" fill="#ff8b7b"/>
        </g>
        <g id="Group_1786" data-name="Group 1786">
          <path id="Path_14907" data-name="Path 14907" d="M253.3,547.4c-.092,1.487.633,2.746,1.624,2.814s1.838-1.1,1.915-2.613-.633-2.748-1.6-2.81S253.4,545.886,253.3,547.4Z" fill="#2e353a"/>
          <path id="Path_14908" data-name="Path 14908" d="M270.241,548.394c-.092,1.489.633,2.748,1.6,2.81s1.838-1.1,1.935-2.609-.633-2.748-1.6-2.81S270.319,546.879,270.241,548.394Z" fill="#2e353a"/>
        </g>
      </g>
    </g>
    <g id="Character_1">
      <g id="Group_1799" data-name="Group 1799">
        <path id="Path_14909" data-name="Path 14909" d="M319.189,270.862H166.82a21.184,21.184,0,0,0-21.183,21.183V407.864a21.184,21.184,0,0,0,21.183,21.183H281.872a37.432,37.432,0,0,0,37.139,32.878c.847,0,1.678-.071,2.51-.126-5.953-7.843-10.811-19.208-13.993-32.752h11.661a21.184,21.184,0,0,0,21.183-21.183V292.045A21.182,21.182,0,0,0,319.189,270.862Z" fill="#407bff"/>
        <path id="Path_14910" data-name="Path 14910" d="M319.189,270.862H166.82a21.184,21.184,0,0,0-21.183,21.183V407.864a21.184,21.184,0,0,0,21.183,21.183H281.872a37.432,37.432,0,0,0,37.139,32.878c.847,0,1.678-.071,2.51-.126-5.953-7.843-10.811-19.208-13.993-32.752h11.661a21.184,21.184,0,0,0,21.183-21.183V292.045A21.182,21.182,0,0,0,319.189,270.862Z" fill="#fff" opacity="0.4"/>
        <g id="Group_1798" data-name="Group 1798">
          <g id="Group_1788" data-name="Group 1788">
            <path id="Path_14911" data-name="Path 14911" d="M281.872,429.045c-1.517-16.42.092-37.37.092-37.37,1.318-21.913-5.217-45.6-10.169-49.655-7.122-5.868-13.751-11.408-16.116-4.017-1.357,4.248-1.774,11.337-1.684,19.238.216,19.123,4.175,42.992,6.2,54.01.717,3.91,2.489,17.794,2.489,17.794h19.189Z" fill="#407bff"/>
          </g>
          <g id="Group_1789" data-name="Group 1789">
            <path id="Path_14912" data-name="Path 14912" d="M268.557,342.963a8.253,8.253,0,0,0-5.955-6.685c-5.367-1.436-14.594-3.766-23.022-5.273a215.449,215.449,0,0,0-29.872-2.731c-6.332-.259-12.57-.071-17.513.212a8.711,8.711,0,0,0-1.742.306,8.266,8.266,0,0,0-5.7,10.193c12.688,45.3,15.318,66.993,16,90.062h61.932c2.883-20.935,8.558-38.11,9.076-50.422C272.488,360.618,269.452,348.26,268.557,342.963Z" fill="#407bff"/>
            <path id="Path_14913" data-name="Path 14913" d="M268.557,342.963a8.253,8.253,0,0,0-5.955-6.685c-5.367-1.436-14.594-3.766-23.022-5.273a215.449,215.449,0,0,0-29.872-2.731c-6.332-.259-12.57-.071-17.513.212a8.711,8.711,0,0,0-1.742.306,8.266,8.266,0,0,0-5.7,10.193c12.688,45.3,15.318,66.993,16,90.062h61.932c2.883-20.935,8.558-38.11,9.076-50.422C272.488,360.618,269.452,348.26,268.557,342.963Z" fill="#fff" opacity="0.8"/>
          </g>
          <g id="Group_1795" data-name="Group 1795">
            <g id="Group_1793" data-name="Group 1793">
              <g id="Group_1790" data-name="Group 1790">
                <path id="Path_14914" data-name="Path 14914" d="M243.124,320.547c-4.066,5.5-7.053,12.016-.666,19.281a8.759,8.759,0,0,1,2.3,5.506c.073,3.27-1.827,6.452-12.484.171-15.444-9.091-14.154-19.364-14.154-19.364,8.123-2.461,12.979-19.512,14.858-29.27Z" fill="#ffb573"/>
                <path id="Path_14915" data-name="Path 14915" d="M233.837,311.515c-1.192,4.154,3.208,10.775,6.544,13.4a27.785,27.785,0,0,1,2.726-4.38l-6-14A14.691,14.691,0,0,0,233.837,311.515Z" opacity="0.2"/>
              </g>
              <path id="Path_14916" data-name="Path 14916" d="M274.5,269.236c5.425,6.888-6.814,27.637-8.134,23.306-2.142-7.079-5.266-21.378-5.219-27.3C261.215,255.955,269.075,262.349,274.5,269.236Z" fill="#263238"/>
              <path id="Path_14917" data-name="Path 14917" d="M229.426,271.395a21.683,21.683,0,0,1,29.679-7.717c14.564,8.436,13.46,32.061,8.115,45.707-5.857,15.189-25.662,17.12-35.928,3.323-6.886-9.2-6.022-15.893-4.8-31.75A21.64,21.64,0,0,1,229.426,271.395Z" fill="#ffb573"/>
              <g id="Group_1791" data-name="Group 1791">
                <path id="Path_14918" data-name="Path 14918" d="M248.793,288.983c-.113,1.29.469,2.407,1.3,2.5s1.637-.907,1.772-2.191-.469-2.407-1.3-2.5S248.981,287.766,248.793,288.983Z" fill="#263238"/>
                <path id="Path_14919" data-name="Path 14919" d="M250.145,286.954l3.184-.593S251.534,288.549,250.145,286.954Z" fill="#263238"/>
              </g>
              <g id="Group_1792" data-name="Group 1792">
                <path id="Path_14920" data-name="Path 14920" d="M265.011,292.6c-.113,1.29.469,2.407,1.3,2.5s1.637-.907,1.772-2.191-.469-2.407-1.3-2.5S265.2,291.382,265.011,292.6Z" fill="#263238"/>
                <path id="Path_14921" data-name="Path 14921" d="M266.364,290.571l3.184-.591S267.753,292.165,266.364,290.571Z" fill="#263238"/>
              </g>
              <path id="Path_14922" data-name="Path 14922" d="M258.863,302.373a5.6,5.6,0,0,0,4.684-.223,34.265,34.265,0,0,1-3.422-8.814Z" fill="#ed893e"/>
              <path id="Path_14923" data-name="Path 14923" d="M246.715,301.831a.382.382,0,1,1,.691-.327,10.143,10.143,0,0,0,7.71,5.114.4.4,0,0,1,.315.426c0,.006,0,.013,0,.019a.358.358,0,0,1-.409.3,11.116,11.116,0,0,1-1.81-.362A10.753,10.753,0,0,1,246.715,301.831Z" fill="#263238"/>
              <path id="Path_14924" data-name="Path 14924" d="M248.3,280.644l0,0a.755.755,0,0,1,.158-1.053c3.452-2.611,8.356-1.106,8.566-1.027a.756.756,0,1,1-.464,1.438c-.036-.015-4.3-1.408-7.162.764a.735.735,0,0,1-.88.021Z" fill="#263238"/>
              <path id="Path_14925" data-name="Path 14925" d="M271.59,285.589a5.955,5.955,0,0,0-4.757-2.726h0a.761.761,0,0,1-.032-1.522,7.565,7.565,0,0,1,6.054,3.379.038.038,0,0,0,.009.011.752.752,0,0,1-.21,1.044.739.739,0,0,1-.745.064A1.094,1.094,0,0,1,271.59,285.589Z" fill="#263238"/>
            </g>
            <path id="Path_14926" data-name="Path 14926" d="M252.108,268.226a16.419,16.419,0,0,0-11.382,8.252c-1.089,2.022-8.115,6.454-9.3,8.419-3.781,6.255.334,24.115-1.442,25.461s-1.145-3.948-2.842-4.956-3.655-1.607-5.147-2.9c-2.048-1.783-9.551-21.158-.4-32.889,4.693-6.018,11.233-10.74,18.748-12.063a29.142,29.142,0,0,1,21.74,4.941c2,1.432,5.474,5.361-.09,7.113-1.483.467-1.551-.73-3.118-1.121A16.187,16.187,0,0,0,252.108,268.226Z" fill="#263238"/>
            <g id="Group_1794" data-name="Group 1794">
              <path id="Path_14927" data-name="Path 14927" d="M215.694,284.9c5.277-5.138,11.868-5.14,17.691-5.134,3.261,0,6.073,0,8.19-.922,5.863-2.559,9.469-10.914,10.12-13.668a6.937,6.937,0,0,1,4.892-4.614c.835-.073,3.578.246,4.9,2.166,1.046,1.522.939,3.711-.317,6.505l.817.368c1.4-3.1,1.474-5.585.24-7.383-1.56-2.266-4.622-2.587-5.686-2.551a7.738,7.738,0,0,0-5.714,5.3c-.6,2.532-4.122,10.659-9.606,13.054-1.945.85-4.68.847-7.832.845-5.705,0-12.78,0-18.318,5.391Z" fill="#263238"/>
              <path id="Path_14928" data-name="Path 14928" d="M215.694,284.9c5.277-5.138,11.868-5.14,17.691-5.134,3.261,0,6.073,0,8.19-.922,5.863-2.559,9.469-10.914,10.12-13.668a6.937,6.937,0,0,1,4.892-4.614c.835-.073,3.578.246,4.9,2.166,1.046,1.522.939,3.711-.317,6.505l.817.368c1.4-3.1,1.474-5.585.24-7.383-1.56-2.266-4.622-2.587-5.686-2.551a7.738,7.738,0,0,0-5.714,5.3c-.6,2.532-4.122,10.659-9.606,13.054-1.945.85-4.68.847-7.832.845-5.705,0-12.78,0-18.318,5.391Z" fill="#fff" opacity="0.1"/>
            </g>
            <path id="Path_14929" data-name="Path 14929" d="M220.214,290.894a5.213,5.213,0,0,1,5.853-4.485c3.94.595,5.731,5.9,5.735,9.375-.051,3.841-2.861,6.674-6.321,4.522a11.7,11.7,0,0,1-5.1-7.272A5.239,5.239,0,0,1,220.214,290.894Z" fill="#ffb573"/>
          </g>
          <path id="Path_14930" data-name="Path 14930" d="M227.222,347.389c-.847,10.946-10.969,52.328-32.885,53.482a13.986,13.986,0,0,1-9.557-3.39c-.024,0-.071-.047-.094-.071-17.678-10.64-3.79-62.262-.235-65.275,5.932-4.943,16.313-3.884,19.561,5.838a44.515,44.515,0,0,0,1.106-4.967c.918-5.6,3.955-18.6,9.557-19.538,3.39-.589,10.334-.895,12.358,1.883C229.058,318.106,228.611,329.287,227.222,347.389Z" fill="#407bff"/>
          <g id="Group_1796" data-name="Group 1796" opacity="0.2">
            <path id="Path_14931" data-name="Path 14931" d="M226.069,286.409l.1.976,1,9.486v12.245l1.665-7.274a16.509,16.509,0,0,0,.28-5.789l-1.171-9.1Z"/>
          </g>
          <g id="Group_1797" data-name="Group 1797">
            <path id="Path_14932" data-name="Path 14932" d="M215.069,315.728l-2.626-19.073,15.887-.124s-1.31,14.321-5.288,19.2Z" fill="#ffb573"/>
            <path id="Path_14933" data-name="Path 14933" d="M215.23,283.627,227,285.7l1.271,10.788-15.829.165Z" fill="#ffb573"/>
          </g>
        </g>
        <path id="Path_14934" data-name="Path 14934" d="M199.24,355.373s-9.518,22.009-9.807,13.293C189.118,359.2,199.24,355.373,199.24,355.373Z" opacity="0.2"/>
      </g>
    </g>
    <g id="Graphic">
      <g id="Group_1800" data-name="Group 1800">
        <path id="Path_14935" data-name="Path 14935" d="M786.188,484.025H727.3a10.145,10.145,0,0,0-10.146,10.143V532.1A10.145,10.145,0,0,0,727.3,542.246H744.23l7.563,9.891a6.231,6.231,0,0,0,9.9,0l7.563-9.891H786.19A10.143,10.143,0,0,0,796.333,532.1V494.17A10.147,10.147,0,0,0,786.188,484.025Z" fill="#407bff"/>
        <path id="Path_14936" data-name="Path 14936" d="M786.188,484.025H727.3a10.145,10.145,0,0,0-10.146,10.143V532.1A10.145,10.145,0,0,0,727.3,542.246H744.23l7.563,9.891a6.231,6.231,0,0,0,9.9,0l7.563-9.891H786.19A10.143,10.143,0,0,0,796.333,532.1V494.17A10.147,10.147,0,0,0,786.188,484.025Z" fill="#fff" opacity="0.7"/>
        <path id="Path_14937" data-name="Path 14937" d="M782.775,510.083l-18.851-11.5v6.9h-8.635a20.835,20.835,0,0,0-20.355,25.489,20.878,20.878,0,0,1,20.355-16.276h8.635v6.9Z" fill="#407bff"/>
      </g>
      <g id="Group_1801" data-name="Group 1801">
        <path id="Path_14938" data-name="Path 14938" d="M371.819,251.917h45.157a7.777,7.777,0,0,1,7.779,7.779v29.086a7.777,7.777,0,0,1-7.779,7.779H403.991l-5.8,7.584a4.777,4.777,0,0,1-7.59,0l-5.8-7.584H371.816a7.779,7.779,0,0,1-7.779-7.779V259.7A7.781,7.781,0,0,1,371.819,251.917Z" fill="#407bff"/>
        <path id="Path_14939" data-name="Path 14939" d="M371.819,251.917h45.157a7.777,7.777,0,0,1,7.779,7.779v29.086a7.777,7.777,0,0,1-7.779,7.779H403.991l-5.8,7.584a4.777,4.777,0,0,1-7.59,0l-5.8-7.584H371.816a7.779,7.779,0,0,1-7.779-7.779V259.7A7.781,7.781,0,0,1,371.819,251.917Z" fill="#fff" opacity="0.7"/>
        <path id="Path_14940" data-name="Path 14940" d="M374.436,271.9l14.453-8.821v5.288h6.621a15.974,15.974,0,0,1,15.609,19.546,16.009,16.009,0,0,0-15.609-12.48h-6.621v5.288Z" fill="#407bff"/>
      </g>
    </g>
  </g>
</svg>
