<svg xmlns="http://www.w3.org/2000/svg" width="253" height="49.3" viewBox="0 0 253 49.3">
  <g id="Header_Logo" data-name="Header Logo" transform="translate(-3367 354.1)">
    <path id="Header_Logo_-_Trademark_Portion" data-name="Header Logo - Trademark Portion" d="M3612.6-344.3h-1.3v-.7h3.3v.7h-1.3v3.5h-.7Zm3-.6h1.1l1.1,2.9,1.1-2.9h1.1v4.1h-.7v-3.4h0l-1.2,3.4h-.5l-1.2-3.4h0v3.4h-.7Z" fill="#fff"/>
    <path id="Header_Logo_-_Icon_Portion" data-name="Header Logo - Icon Portion" d="M3369.2-354.1l3.7,6.4,1.6,2.7H3367l19.9,31.2,2.9-5.4-12.4-19.4H3400l3.7-6.4h-25.8l-1.6-2.7h32.8l-20.1,37,3.9,5.9,25.8-49.3h-49.5Z" fill="#fff"/>
    <path id="Header_Logo_-_Text_Portion" data-name="Header Logo - Text Portion" d="M3425.6-344.9h8.2l8.1,21.1,8.1-21.1h8.1v30.2H3453v-25.1h-.1l-9.2,25.1h-3.8l-9.2-25.1h-.1v25.1h-5.1Zm66.9,19.1a13.329,13.329,0,0,1-.9,4.9,10.786,10.786,0,0,1-2.6,3.7,13.6,13.6,0,0,1-3.8,2.4,13.09,13.09,0,0,1-4.8.8,15.583,15.583,0,0,1-4.8-.8,11.46,11.46,0,0,1-3.9-2.4,10.786,10.786,0,0,1-2.6-3.7,13.715,13.715,0,0,1-.9-4.9v-19.1h5.4V-326a8.526,8.526,0,0,0,.3,2.3,5.7,5.7,0,0,0,1.1,2.2,6.846,6.846,0,0,0,2.1,1.7,7.111,7.111,0,0,0,3.2.7,7.111,7.111,0,0,0,3.2-.7,6.845,6.845,0,0,0,2.1-1.7,6.5,6.5,0,0,0,1.1-2.2,9.081,9.081,0,0,0,.3-2.3v-18.9h5.4Zm10.1-19.1h19.5v4.9H3508v7.9h13.3v4.9H3508v12.5h-5.4Zm34,4.8h-9.2V-345h23.9v4.9h-9.2v25.3h-5.4Zm27.6-4.8h4.6l13,30.2h-6.1l-2.8-6.9h-13.1l-2.7,6.9h-6Zm6.8,18.6-4.6-12.3-4.7,12.3Zm17.6-18.6h10.5a19.923,19.923,0,0,1,4.2.4,9.338,9.338,0,0,1,3.6,1.4,7.732,7.732,0,0,1,2.5,2.6,7.806,7.806,0,0,1,.9,4.2,8.463,8.463,0,0,1-1.8,5.5,8.028,8.028,0,0,1-5.2,2.7l8,13.3h-6.5l-7-12.8h-3.9v12.8h-5.4Zm9.5,12.8a17.7,17.7,0,0,0,2.3-.1,8.022,8.022,0,0,0,2.1-.5,4.814,4.814,0,0,0,1.6-1.2,4.646,4.646,0,0,0,.6-2.3,3.7,3.7,0,0,0-.6-2.1,3.915,3.915,0,0,0-1.4-1.2,4.553,4.553,0,0,0-2-.5,14.767,14.767,0,0,0-2.1-.1h-4.7v8.2h4.2Z" fill="#fff"/>
  </g>
</svg>
