<svg id="Image" xmlns="http://www.w3.org/2000/svg" xmlns:xlink="http://www.w3.org/1999/xlink" width="439.197" height="498.764" viewBox="0 0 439.197 498.764">
  <defs>
    <clipPath id="clip-path">
      <rect id="Rectangle_124" data-name="Rectangle 124" width="439.197" height="498.764" fill="none"/>
    </clipPath>
    <clipPath id="clip-path-2">
      <rect id="Rectangle_123" data-name="Rectangle 123" width="439.197" height="498.763" fill="none"/>
    </clipPath>
    <clipPath id="clip-path-3">
      <rect id="Rectangle_121" data-name="Rectangle 121" width="305.154" height="167.465" fill="none"/>
    </clipPath>
    <clipPath id="clip-path-4">
      <rect id="Rectangle_122" data-name="Rectangle 122" width="116.677" height="57.817" fill="none"/>
    </clipPath>
  </defs>
  <g id="Group_71" data-name="Group 71" clip-path="url(#clip-path)">
    <g id="Group_70" data-name="Group 70" transform="translate(0 0)">
      <g id="Group_69" data-name="Group 69" clip-path="url(#clip-path-2)">
        <g id="Group_65" data-name="Group 65" transform="translate(0 331.299)" opacity="0.5">
          <g id="Group_64" data-name="Group 64">
            <g id="Group_63" data-name="Group 63" clip-path="url(#clip-path-3)">
              <path id="Path_190" data-name="Path 190" d="M302.965,2483.4,41.228,2635.538a12.07,12.07,0,0,1-10.83,0L2.209,2619.268c-2.954-1.762-2.954-4.508.052-6.27l22.541-13.11.052,4.819c0,9.69,6.788,13.576,15.235,8.705l247.9-143.123a11.431,11.431,0,0,0,1.451-.933l13.473,7.825c3.006,1.709,2.954,4.56.052,6.218" transform="translate(0 -2469.356)" fill="#e3e7f0"/>
            </g>
          </g>
        </g>
        <g id="Group_68" data-name="Group 68" transform="translate(317.711 390.682)" opacity="0.5">
          <g id="Group_67" data-name="Group 67">
            <g id="Group_66" data-name="Group 66" clip-path="url(#clip-path-4)">
              <path id="Path_191" data-name="Path 191" d="M2476.247,2930.739l-59.177,34.2c-11.245,6.478-29.433,6.478-40.626,0-10.364-6.063-11.089-15.494-2.228-21.971a19.338,19.338,0,0,0,5.752,4.767c11.141,6.529,29.381,6.529,40.625,0l33.942-19.587,12.229-7.047,13.007-7.514a21.2,21.2,0,0,0,2.384-1.606c4.871,6.167,2.9,13.68-5.907,18.759" transform="translate(-2368.078 -2911.98)" fill="#e3e7f0"/>
            </g>
          </g>
        </g>
        <path id="Path_192" data-name="Path 192" d="M327.444,22.136c-2.77-1.6-6.594-1.377-10.806,1.086L68.443,166.445c-8.376,4.893-15.213,16.623-15.213,26.182l.535,265.25L33.9,446.512,33.464,181.2c0-9.559,6.853-21.289,15.116-26.182L296.774,11.792c4.229-2.4,8.036-2.722,10.758-1.085Z" transform="translate(-28.974 -8.39)" fill="#c9cee2"/>
        <path id="Path_193" data-name="Path 193" d="M60.719,3303.674c.032.048.081.064.13.1l-4.261-2.4-15.294-8.611c-2.835-1.734-4.455-5.1-4.455-9.9l-.114-17.158v-.13l19.831,11.348.049,17.222c.016,4.585,1.572,7.874,4.115,9.527" transform="translate(-31.797 -2827.454)" fill="#c9cee2"/>
        <path id="Path_194" data-name="Path 194" d="M1038.637,997.936a29.211,29.211,0,0,1,1.793,10.524c.053,18.78-13.119,41.6-29.416,51-16.344,9.436-29.556,1.854-29.609-16.926-.053-18.673,13.072-41.515,29.416-50.951,8.669-5,16.478-5.195,21.9-1.465" transform="translate(-849.736 -855.056)" fill="#e3e7f0"/>
        <path id="Path_195" data-name="Path 195" d="M1084.385,1231.992c10-5.774,18.13-1.142,18.162,10.394l-36.245,20.926c-.033-11.536,8.043-25.524,18.083-31.32" transform="translate(-923.243 -1064.553)" fill="#16a2ff"/>
        <path id="Path_196" data-name="Path 196" d="M1149.023,1084.55c4.419-2.551,8-.512,8.011,4.566.015,5.122-3.54,11.324-7.959,13.875s-8.036.49-8.051-4.632c-.014-5.078,3.579-11.257,8-13.809" transform="translate(-987.94 -938.091)" fill="#16a2ff"/>
        <path id="Path_197" data-name="Path 197" d="M579.156,2096.35c3.183-1.838,5.762-.368,5.773,3.3a12.642,12.642,0,0,1-5.735,9.933c-3.184,1.838-5.775.361-5.786-3.282a12.65,12.65,0,0,1,5.748-9.956" transform="translate(-496.477 -1814.41)" fill="#16a2ff"/>
        <path id="Path_198" data-name="Path 198" d="M713.165,2019c3.17-1.831,5.762-.368,5.773,3.3a12.666,12.666,0,0,1-5.735,9.934c-3.2,1.845-5.775.361-5.786-3.282a12.628,12.628,0,0,1,5.748-9.956" transform="translate(-612.507 -1747.443)" fill="#16a2ff"/>
        <path id="Path_199" data-name="Path 199" d="M847.087,1941.633c3.17-1.83,5.762-.368,5.772,3.3a12.665,12.665,0,0,1-5.735,9.933c-3.2,1.846-5.788.369-5.8-3.274a12.655,12.655,0,0,1,5.761-9.964" transform="translate(-728.45 -1680.454)" fill="#16a2ff"/>
        <path id="Path_200" data-name="Path 200" d="M981.082,1864.32c3.17-1.83,5.762-.369,5.772,3.3a12.666,12.666,0,0,1-5.735,9.933c-3.183,1.838-5.775.361-5.786-3.282a12.651,12.651,0,0,1,5.748-9.956" transform="translate(-844.479 -1613.514)" fill="#16a2ff"/>
        <path id="Path_201" data-name="Path 201" d="M579.156,2541.71c3.183-1.838,5.762-.368,5.773,3.3a12.643,12.643,0,0,1-5.735,9.934c-3.184,1.838-5.775.361-5.786-3.282a12.65,12.65,0,0,1,5.748-9.956" transform="translate(-496.477 -2200.019)" fill="#16a2ff"/>
        <path id="Path_202" data-name="Path 202" d="M713.165,2464.362c3.17-1.831,5.762-.368,5.773,3.3a12.664,12.664,0,0,1-5.735,9.933c-3.2,1.846-5.775.361-5.786-3.282a12.628,12.628,0,0,1,5.748-9.956" transform="translate(-612.507 -2133.051)" fill="#16a2ff"/>
        <path id="Path_203" data-name="Path 203" d="M847.087,2386.994c3.17-1.831,5.762-.369,5.772,3.3a12.666,12.666,0,0,1-5.735,9.934c-3.2,1.846-5.788.369-5.8-3.274a12.654,12.654,0,0,1,5.761-9.963" transform="translate(-728.45 -2066.063)" fill="#16a2ff"/>
        <path id="Path_204" data-name="Path 204" d="M981.082,2309.68c3.17-1.83,5.762-.369,5.772,3.3a12.666,12.666,0,0,1-5.735,9.934c-3.183,1.838-5.775.361-5.786-3.282a12.651,12.651,0,0,1,5.748-9.956" transform="translate(-844.479 -1999.123)" fill="#16a2ff"/>
        <path id="Path_205" data-name="Path 205" d="M2330.895,613.956c-.062-21.777,15.311-48.4,34.272-59.346,4.947-2.856,9.769-4.365,13.941-4.365,9.427,0,15.078,7.8,15.114,20.875.062,21.777-15.311,48.4-34.272,59.348-4.96,2.863-9.787,4.376-13.963,4.376-9.411,0-15.053-7.81-15.091-20.889" transform="translate(-2018.173 -476.423)" fill="#c9cee2"/>
        <path id="Path_206" data-name="Path 206" d="M26.253,1823.833h0a1.3,1.3,0,0,0,1.293-1.3l-.263-195.709a1.3,1.3,0,0,0-1.3-1.293h0a1.3,1.3,0,0,0-1.293,1.3l.263,195.71a1.3,1.3,0,0,0,1.3,1.293" transform="translate(-21.381 -1407.445)" fill="#2f2f2f"/>
        <path id="Path_207" data-name="Path 207" d="M324.921,189.419a26.343,26.343,0,0,0,8.032,3.057l32.024,6.892a1.253,1.253,0,0,0,1.347-.466l31.921-43.839c15.079-20.624,23.992-45.549,23.94-66.639a1.3,1.3,0,1,0-2.591,0c.052,20.572-8.706,44.927-23.422,65.084l-31.454,43.165-31.2-6.736c-16.494-3.515-22.894-20.119-22.956-37.05l-.155-53.477c24.672-18.277,44.352-42.273,54.824-63.219,4.819,3.731,21.5,13.266,54.2.052l.1,32.283a1.3,1.3,0,0,0,2.591,0l-.1-34.252a1.329,1.329,0,0,0-1.814-1.192c-37,15.649-52.8,1.762-54.513.1a1.294,1.294,0,0,0-2.073.363c-1.451,3.109-13.006,26.79-38.812,50.575-.005-6.211.019,22.5-.052-60.731,0-5.027-1.813-8.861-5.026-10.778h-.03l-.021-.012v-.04C319.151,12.2,299.312.906,299.834,1.206c-3.186-1.915-7.467-1.541-12.074,1.075L179.029,65.024,39.555,145.477C30.766,150.751,23.8,163.246,23.8,172.733v.107l.091,37.757a1.3,1.3,0,0,0,1.3,1.293h0a1.3,1.3,0,0,0,1.293-1.3L26.4,175.069l17.146,9.894c.037,17.774-.166-78.836.552,262.287l-17.269-9.881-.04-9.908a1.3,1.3,0,0,0-1.3-1.29h-.005a1.3,1.3,0,0,0-1.29,1.3c.018,2.843.185,29.553.175,27.934,0,6.529,2.747,9.587,5.078,11.037,9.489,5.33,19.275,10.622,19.795,11.141,3.777,2.178,8.32,1.113,12.074-1.14l118.717-68.5h0l3.225,1.735a1.3,1.3,0,1,0,1.23-2.282l-1.775-.955h.014l126.541-73.065c8.706-5.078,15.753-17.359,15.753-27.36ZM322.174,23.392V33.433l-276,159.841-.018-8.953a.349.349,0,0,0,.028-.084c0-10.736,5.971-18.586,14.561-25.029L211.1,72.4,308.925,15.95a16.426,16.426,0,0,1,2.654-1.263l.016-.006c6.581-2.384,10.579,1.735,10.579,8.711M30.8,464.214c-2.539-1.554-3.835-4.612-3.835-8.809l-.1-15.027,17.2,9.845.052,16.478A18.343,18.343,0,0,0,45,472.194ZM307.924,331.092,60.023,474.215c-7.847,4.531-13.266.821-13.266-7.565-.292-119.469-.1-42.211-.169-69.291l-.4-201.093L322.174,36.428v.022l.052,50.005c-4.249,3.783-8.861,7.565-13.887,11.245a1.274,1.274,0,0,0-.518,1.036l.155,54.151c.052,16.012,5.234,28.293,14.3,34.874.016,12.093-.058-43.8.156,118.25,0,9.172-6.477,20.417-14.51,25.08" transform="translate(-20.609 -0.001)" fill="#2f2f2f"/>
        <path id="Path_208" data-name="Path 208" d="M1003.3,1052.336c20.808-12.014,35.482-44.386,28.181-63.121a1.3,1.3,0,1,0-2.414.941c6.7,17.176-6.889,48.288-27.063,59.938-15.475,8.933-27.615,1.993-27.668-15.809-.053-18.286,12.853-40.638,28.768-49.828,7.854-4.529,15.33-5.083,20.518-1.518a1.3,1.3,0,1,0,1.467-2.136c-6.04-4.152-14.524-3.641-23.28,1.412-16.631,9.6-30.117,32.964-30.064,52.075.058,19.8,14.335,27.993,31.554,18.045" transform="translate(-841.369 -846.806)" fill="#2f2f2f"/>
        <path id="Path_209" data-name="Path 209" d="M1011.5,1284.889,877.245,1362.4a1.295,1.295,0,0,0,1.3,2.242l134.256-77.511c6.423-3.711,11.271-.974,11.292,6.424.023,7.945-5.587,17.656-12.5,21.651L948.2,1351.8a1.295,1.295,0,1,0,1.3,2.242l63.387-36.592c7.76-4.481,13.823-14.979,13.8-23.9-.026-9.394-7.01-13.38-15.179-8.659" transform="translate(-758.989 -1110.78)" fill="#2f2f2f"/>
        <path id="Path_210" data-name="Path 210" d="M459.789,1912.782,562.468,1853.5a1.295,1.295,0,0,0-1.3-2.242l-102.679,59.283c-6.361,3.673-11.271,1.012-11.292-6.424-.023-7.945,5.587-17.656,12.5-21.651l32.134-18.552a1.295,1.295,0,1,0-1.3-2.242l-32.134,18.551c-7.631,4.405-13.82,15.128-13.8,23.9.026,9.333,6.993,13.389,15.179,8.658" transform="translate(-384.96 -1602.734)" fill="#2f2f2f"/>
        <path id="Path_211" data-name="Path 211" d="M1011.5,1730.236l-134.256,77.511a1.295,1.295,0,1,0,1.3,2.242l134.256-77.511c6.423-3.712,11.271-.974,11.292,6.424.023,7.945-5.587,17.656-12.5,21.651L948.2,1797.145a1.295,1.295,0,1,0,1.3,2.242l63.387-36.592c7.76-4.481,13.823-14.979,13.8-23.9-.026-9.391-7.011-13.385-15.179-8.659" transform="translate(-758.989 -1496.375)" fill="#2f2f2f"/>
        <path id="Path_212" data-name="Path 212" d="M562.941,2297.067a1.283,1.283,0,0,0-1.768-.473l-102.679,59.283c-6.406,3.7-11.271.959-11.292-6.424-.023-7.945,5.587-17.656,12.5-21.651l32.134-18.551a1.295,1.295,0,0,0-1.3-2.242l-32.134,18.552c-7.631,4.405-13.82,15.127-13.8,23.9.026,9.333,6.993,13.389,15.179,8.659l102.678-59.283a1.292,1.292,0,0,0,.473-1.769" transform="translate(-384.96 -1988.319)" fill="#2f2f2f"/>
        <path id="Path_213" data-name="Path 213" d="M943.789,2377.251l-82.465,47.611a9.272,9.272,0,0,0-4.284,7.383l.078,27.769c.005,3.294,2.7,4.843,5.6,3.165l12.924-7.462a1.295,1.295,0,0,0-1.3-2.242l-12.924,7.462c-1.157.668-1.71.371-1.715-.929l-.079-27.771a6.766,6.766,0,0,1,2.988-5.134l82.465-47.611c1.115-.646,1.677-.356,1.682.949l.079,27.772a6.614,6.614,0,0,1-2.955,5.114L883.507,2448.2a1.295,1.295,0,0,0,1.3,2.242l60.384-34.874a9.105,9.105,0,0,0,4.251-7.365l-.079-27.77c-.005-3.262-2.66-4.854-5.569-3.185" transform="translate(-742.057 -2057.73)" fill="#2f2f2f"/>
        <path id="Path_214" data-name="Path 214" d="M266.9,1231.83a11.4,11.4,0,0,0-5.182,8.965c0,4.107,3.481,5.619,6.477,3.679a11.228,11.228,0,0,0,5.182-8.913c0-3.991-3.275-5.614-6.477-3.731m0,10.416c-1.552.932-2.591.411-2.591-1.451a8.735,8.735,0,0,1,3.886-6.737c1.606-.856,2.591-.426,2.591,1.5a8.557,8.557,0,0,1-3.886,6.685" transform="translate(-226.608 -1065.886)" fill="#2f2f2f"/>
        <path id="Path_215" data-name="Path 215" d="M372.347,1171.008a11.227,11.227,0,0,0-5.182,8.913c0,3.76,2.953,5.689,6.477,3.731a11.242,11.242,0,0,0,5.182-8.964c0-3.461-2.651-5.8-6.477-3.679m0,10.416c-1.678.9-2.591.422-2.591-1.5a8.638,8.638,0,0,1,3.886-6.685c1.685-1.011,2.591-.284,2.591,1.451a8.734,8.734,0,0,1-3.886,6.736" transform="translate(-317.905 -1013.2)" fill="#2f2f2f"/>
        <path id="Path_216" data-name="Path 216" d="M477.732,1110.152a11.209,11.209,0,0,0-5.13,8.964c0,3.873,3.164,5.7,6.477,3.679a11.228,11.228,0,0,0,5.182-8.913c-.117-4.212-3.471-5.531-6.529-3.731m.052,10.416c-4.116,2.469-3.055-5.542,1.244-8.187,1.789-.895,2.643-.312,2.643,1.5a8.557,8.557,0,0,1-3.887,6.685" transform="translate(-409.195 -960.531)" fill="#2f2f2f"/>
        <path id="Path_217" data-name="Path 217" d="M2505.746,716.555l-12.654,25.406-7.72-3.634a1.295,1.295,0,0,0-1.1,2.343l8.866,4.172a1.293,1.293,0,0,0,1.71-.595l13.218-26.539a1.294,1.294,0,1,0-2.317-1.154" transform="translate(-2150.326 -619.796)" fill="#2f2f2f"/>
        <path id="Path_218" data-name="Path 218" d="M2501.775,1774.777c.092-8.714-9.5-14.294-18.032-16.427l-.052-23.733c-.052-13.266-5.078-23.526-14.2-28.812-18.078-10.536-37.411,5.864-38.5,6.27-17.463,13.369-30.158,37.983-30.107,58.5v20.209l-9.224,5.338c-5.855,3.368-9.12,7.98-9.12,12.9.235,72.26.245,75.33.259,79.645,0,3.524,1.658,6.84,4.767,9.638l-1.451.881a1.279,1.279,0,0,0-.466,1.762,1.351,1.351,0,0,0,1.14.674c.527,0,.783-.321,2.9-1.5,12.338,8.548,32.662,8.014,44.046,1.347l33.993-19.587a1.278,1.278,0,0,0,.466-1.762,1.3,1.3,0,0,0-1.762-.518l-33.993,19.639a39.326,39.326,0,0,1-18.24,4.664v-52.337a1.353,1.353,0,0,0-1.3-1.3,1.316,1.316,0,0,0-1.3,1.3v52.284c-.853-.013-1.719.026-2.539-.051-.1,0-.155-.052-.207,0-9.3-.582-23.474-5.851-23.474-15.183l-.259-72.184c5.657,7.074,17.383,10.467,26.479,10.467v16.633a1.316,1.316,0,0,0,1.3,1.3,1.353,1.353,0,0,0,1.3-1.3v-16.685c.139-.008,2.984-.145,3.109-.208,3.647,0,10.863-1.782,16.167-4.767,45.257-26.154,59.7-34.362,61.146-35.444.052,0,.1,0,.1-.052a22.084,22.084,0,0,0,4.508-4.249l.259,72.183c0,3.99-2.8,7.825-7.824,10.726l-13.006,7.514a1.3,1.3,0,0,0-.519,1.762,1.392,1.392,0,0,0,1.814.519l13.007-7.566c5.855-3.368,9.12-7.98,9.12-12.955-.183-46.806-.127-32.43-.312-79.542m-98.3-4.2c-.052-19.795,12.229-43.528,29.019-56.379,1.216-.461,19.026-15.857,35.7-6.167,8.292,4.819,12.851,14.25,12.9,26.635.069,38.485.052,45.243.052,44.979a1.863,1.863,0,0,1-.57.207,23.969,23.969,0,0,1-14.613-.363V1734.67c0-24.332-22.993-15.157-36.636,4.871a1.322,1.322,0,0,0,.363,1.814,1.286,1.286,0,0,0,1.814-.363c4.56-6.736,10.208-12.229,15.8-15.442,4.871-2.8,9.431-3.627,11.97-2.176,2.591,1.5,4.093,5.648,4.093,11.3v22.956a38.6,38.6,0,0,0-12.54,4.3l-29.641,17.152v-8.5a47.779,47.779,0,0,1,4.561-19.225,1.311,1.311,0,0,0-2.383-1.089,51.53,51.53,0,0,0-4.768,20.314v45.082c-2.96,1.27-9.281,1.516-11.867.778a14.1,14.1,0,0,1-2.125-.466,7.348,7.348,0,0,1-1.14-.363v-45.03Zm80.268-3.265c.156.1.363.155.518.259,5.624,3.261,5.1,7.748.155,10.675-.207.1-.415.259-.674.363Zm-20.365,10.985c-2.487-1.451-3.886-3.265-3.886-5.182-.052-1.969,1.347-3.835,3.886-5.338Zm-42.181,25.184c5.591,2.8,5.952,7.614.519,10.83a1.615,1.615,0,0,1-.519.259Zm-20.364,10.985c-2.591-1.451-4.042-3.317-4.042-5.286-.052-1.917,1.347-3.835,3.886-5.285a.4.4,0,0,1,.208-.1v10.727a.051.051,0,0,0-.052-.052m90.528-29.018-59.177,34.2a33.394,33.394,0,0,1-6.581,2.8.191.191,0,0,0-.156.052,45.142,45.142,0,0,1-12.281,1.866c-.052-.052-.052-.052-.1,0-.045-.045-8.552.033-14.707-2.188-16.74-6.04-16.375-17.488-5.4-23.825l7.928-4.56v7.047a14.741,14.741,0,0,0-1.554.829c-3.317,1.969-5.182,4.612-5.13,7.514,0,4.11,3.723,7.2,7.513,8.55,7.12,2.848,15.775,2.086,21.35-1.192,8.093-4.806,5.906-13.085-1.866-15.908v-18.6l30.937-17.877a35.275,35.275,0,0,1,11.244-3.938v4.664c-3.474,1.545-6.544,4.469-6.477,8.24,0,2.954,1.917,5.6,5.337,7.565,13.2,6.606,28.8.411,28.656-7.825-.071-3.956-3.561-7.014-7.151-8.395v-3.472c15.616,4.338,21.785,16.193,7.618,24.458" transform="translate(-2062.89 -1473.896)" fill="#2f2f2f"/>
        <path id="Path_219" data-name="Path 219" d="M2889.447,2558.085c-5.648,3.886-10.208,13.266-10.208,20.935,0,4.249,1.347,7.306,3.782,8.705-.067.528-3.434,27.163-3.368,26.635a1.311,1.311,0,0,0,2.02,1.244l18.6-12.9h.052a1.33,1.33,0,0,0,.57-1.14c0-.541.179,1.081-3.524-22.333a29.837,29.837,0,0,0,3.68-13.525c0-8.349-5.6-11.873-11.608-7.618m8.5,41.4-13.058-5.907.777-6.478a1.234,1.234,0,0,0-.829-1.347c-1.917-.674-3.006-3.161-3.006-6.736,0-6.789,4.146-15.391,9.069-18.811,4.005-2.741,7.565-1.236,7.565,5.493a26.937,26.937,0,0,1-3.575,12.644,1.148,1.148,0,0,0-.156.829Z" transform="translate(-2492.949 -2213.315)" fill="#2f2f2f"/>
        <path id="Path_220" data-name="Path 220" d="M1446,3162.884a1.343,1.343,0,0,0-1.762.518,1.286,1.286,0,0,0,.57,1.762l6.581,3.576a1.3,1.3,0,0,0,1.762-.519,1.282,1.282,0,0,0-.518-1.761Z" transform="translate(-1250.348 -2738.416)" fill="#2f2f2f"/>
        <path id="Path_221" data-name="Path 221" d="M1541.573,3214.254a1.267,1.267,0,0,0-1.71.518,1.282,1.282,0,0,0,.518,1.762l6.581,3.576a1.3,1.3,0,0,0,1.762-.518,1.27,1.27,0,0,0-.518-1.762Z" transform="translate(-1333.125 -2782.894)" fill="#2f2f2f"/>
        <path id="Path_222" data-name="Path 222" d="M1636.974,3265.474a1.224,1.224,0,0,0-1.71.519,1.3,1.3,0,0,0,.518,1.762l6.633,3.576a1.287,1.287,0,0,0,1.192-2.281Z" transform="translate(-1415.727 -2827.222)" fill="#2f2f2f"/>
        <path id="Path_223" data-name="Path 223" d="M1350.6,3111.524a1.315,1.315,0,0,0-1.762.57,1.243,1.243,0,0,0,.57,1.71l6.581,3.575a1.3,1.3,0,0,0,1.244-2.28Z" transform="translate(-1167.747 -2693.948)" fill="#2f2f2f"/>
        <path id="Path_224" data-name="Path 224" d="M1732.373,3316.844a1.224,1.224,0,0,0-1.71.519,1.3,1.3,0,0,0,.518,1.762l6.633,3.575a1.336,1.336,0,0,0,1.71-.57,1.3,1.3,0,0,0-.518-1.762Z" transform="translate(-1498.327 -2871.699)" fill="#2f2f2f"/>
        <path id="Path_225" data-name="Path 225" d="M1255.2,3060.383a1.3,1.3,0,0,0-1.762.519,1.314,1.314,0,0,0,.57,1.761l6.581,3.524a1.3,1.3,0,0,0,1.244-2.28Z" transform="translate(-1085.147 -2649.647)" fill="#2f2f2f"/>
        <path id="Path_226" data-name="Path 226" d="M1827.774,3368.214a1.224,1.224,0,0,0-1.71.518,1.3,1.3,0,0,0,.518,1.762l6.633,3.524a1.246,1.246,0,0,0,1.71-.518,1.3,1.3,0,0,0-.518-1.762Z" transform="translate(-1580.928 -2916.178)" fill="#2f2f2f"/>
        <path id="Path_227" data-name="Path 227" d="M1928.656,3418.674l-2.74,1.582-2.786-1.5a1.3,1.3,0,0,0-1.23,2.282l3.423,1.842a1.3,1.3,0,0,0,1.263-.02l3.365-1.943a1.295,1.295,0,0,0-1.3-2.242" transform="translate(-1663.461 -2959.86)" fill="#2f2f2f"/>
        <path id="Path_228" data-name="Path 228" d="M2315.277,3195.871l-6.736,3.834a1.325,1.325,0,0,0-.467,1.762,1.309,1.309,0,0,0,1.762.518l6.736-3.886a1.289,1.289,0,0,0-1.3-2.228" transform="translate(-1998.269 -2766.946)" fill="#2f2f2f"/>
        <path id="Path_229" data-name="Path 229" d="M2218.877,3251.488l-6.685,3.887a1.328,1.328,0,0,0-.518,1.762,1.389,1.389,0,0,0,1.813.466l6.685-3.887a1.289,1.289,0,0,0-1.3-2.228" transform="translate(-1914.824 -2815.101)" fill="#2f2f2f"/>
        <path id="Path_230" data-name="Path 230" d="M2122.423,3307.107l-6.685,3.886a1.278,1.278,0,0,0-.466,1.762,1.318,1.318,0,0,0,1.762.466l6.685-3.886a1.289,1.289,0,0,0-1.3-2.228" transform="translate(-1831.324 -2863.258)" fill="#2f2f2f"/>
        <path id="Path_231" data-name="Path 231" d="M2025.864,3362.961l-6.685,3.834a1.279,1.279,0,0,0-.466,1.762,1.224,1.224,0,0,0,1.762.466l6.685-3.834a1.278,1.278,0,0,0,.466-1.761,1.237,1.237,0,0,0-1.762-.467" transform="translate(-1747.72 -2911.599)" fill="#2f2f2f"/>
        <path id="Path_232" data-name="Path 232" d="M2416.9,1695.79a4.648,4.648,0,1,1-4.649-4.649,4.633,4.633,0,0,1,4.649,4.649" transform="translate(-2084.588 -1464.252)" fill="#16a2ff"/>
        <path id="Path_233" data-name="Path 233" d="M248.685,545.152a8.752,8.752,0,0,1,0-17.5,8.658,8.658,0,0,1,8.752,8.752,8.763,8.763,0,0,1-8.752,8.752m0-14.913a6.161,6.161,0,1,0,6.161,6.161,6.1,6.1,0,0,0-6.161-6.161" transform="translate(-207.743 -456.857)" fill="#b0b8cf"/>
      </g>
    </g>
  </g>
</svg>
