 <svg id="Group_60" data-name="Group 60" xmlns="http://www.w3.org/2000/svg" xmlns:xlink="http://www.w3.org/1999/xlink" width="18.5" height="11.909" viewBox="0 0 18.5 11.909">
                <defs>
                  <clipPath id="clip-path">
                    <rect id="Rectangle_119" data-name="Rectangle 119" width="18.5" height="11.909" fill="#3c5aa8"/>
                  </clipPath>
                </defs>
                <g id="Group_59" data-name="Group 59" transform="translate(0 0)" clip-path="url(#clip-path)">
                  <path id="Path_185" data-name="Path 185" d="M159.393,74.24a2.977,2.977,0,1,0,2.977,2.977,2.979,2.979,0,0,0-2.977-2.977m-.226,2.094a.684.684,0,0,0-.678.678H157.5a1.683,1.683,0,0,1,1.663-1.663Z" transform="translate(-150.143 -71.263)" fill="#3c5aa8"/>
                  <path id="Path_186" data-name="Path 186" d="M18.284,5.338C17.278,4.086,13.685,0,9.25,0S1.222,4.086.216,5.338a.988.988,0,0,0,0,1.232c1.006,1.252,4.6,5.338,9.034,5.338s8.028-4.086,9.034-5.338a.988.988,0,0,0,0-1.232M9.25,10.266a4.312,4.312,0,1,1,4.312-4.312A4.311,4.311,0,0,1,9.25,10.266" transform="translate(0)" fill="#3c5aa8"/>
                </g>
              </svg>