<svg xmlns="http://www.w3.org/2000/svg" width="512" height="512" viewBox="0 0 512 512">
    <path
        d="M512,416a41.724,41.724,0,0,0-12.3-29.7L300.133,186.734,332.3,154.57a34.008,34.008,0,0,0,39.957-54.1L281.746,9.961a34.01,34.01,0,0,0-54.1,39.957L103.906,173.656a34,34,0,0,0-39.949,54.09l90.512,90.512a34,34,0,0,0,54.09-39.949l32.176-32.176,35.113,35.113s0,0,.008.008l0,0L440.3,445.7A42,42,0,0,0,512,416ZM247.809,24.1a13.995,13.995,0,0,1,19.8,0l90.508,90.508a14,14,0,1,1-19.8,19.8L247.809,43.9a13.985,13.985,0,0,1,0-19.8Zm-7.074,41.012L317.1,141.48l-38.176,38.18s0,0-.008,0l-45.254,45.254s0,0,0,.008L195.48,263.1l-76.367-76.367Zm-52.324,239a14.014,14.014,0,0,1-19.8,0L78.1,213.605a14,14,0,0,1,19.8-19.8l90.508,90.508s0,0,0,0A14.011,14.011,0,0,1,188.41,304.113Zm97.582-103.234,28.047,28.047-31.113,31.109-28.047-28.047ZM485.555,431.555a21.992,21.992,0,0,1-31.109,0L297.066,274.18l31.113-31.113L485.555,400.445a21.992,21.992,0,0,1,0,31.109Zm0,0" />
    <path
        d="M350.668,404H336V384.332A36.376,36.376,0,0,0,299.668,348H80.332A36.376,36.376,0,0,0,44,384.332V404H29.332A29.368,29.368,0,0,0,0,433.332V502a10,10,0,0,0,10,10H370a10,10,0,0,0,10-10V433.332A29.368,29.368,0,0,0,350.668,404ZM360,492H20V433.332A9.344,9.344,0,0,1,29.332,424H145a10,10,0,0,0,0-20H64V384.332A16.353,16.353,0,0,1,80.332,368H299.668A16.353,16.353,0,0,1,316,384.332V404H235a10,10,0,0,0,0,20H350.668A9.344,9.344,0,0,1,360,433.332Zm0,0" />
    <path d="M190,404a10,10,0,1,0,7.07,2.93A10.08,10.08,0,0,0,190,404Zm0,0" />
</svg>