<svg xmlns="http://www.w3.org/2000/svg" width="228.877" height="168.022" viewBox="0 0 228.877 168.022">
  <g id="team" transform="translate(0 -68.066)">
    <g id="Group_3" data-name="Group 3" transform="translate(175.57 139.761)">
      <g id="Group_2" data-name="Group 2">
        <path id="Path_8" data-name="Path 8" d="M419.112,232.388c-7.788-3.894-22.39-3.939-23.008-3.939a3.353,3.353,0,0,0,0,6.705c3.768,0,14.708.581,20.009,3.231a3.353,3.353,0,0,0,3-6Z" transform="translate(-392.751 -228.449)" fill="#fff"/>
      </g>
    </g>
    <g id="Group_5" data-name="Group 5" transform="translate(0 68.066)">
      <g id="Group_4" data-name="Group 4" transform="translate(0 0)">
        <path id="Path_9" data-name="Path 9" d="M218.646,191.434,204.8,187.478a1.406,1.406,0,0,1-1.015-1.346V181.51a25.2,25.2,0,0,0,3.206-2.629,24.664,24.664,0,0,0,7.549-17.843V154.66l1.339-2.677a21.389,21.389,0,0,0,2.246-9.515V125.19a3.353,3.353,0,0,0-3.353-3.353H182.507a21.3,21.3,0,0,0-21.277,21.277v.2a17.783,17.783,0,0,0,1.868,7.912l1.717,3.434v5.476a26.16,26.16,0,0,0,10.755,21.151v4.844c0,.747,0,1.056-2.768,1.848l-6.756,1.93L146.5,182.8a3.349,3.349,0,0,0-.914-2.567l-6.245-6.561V162.659c.66-.544,1.311-1.1,1.942-1.694a39.349,39.349,0,0,0,12.4-28.606v-8.8a38.754,38.754,0,0,0,3.585-16.3V71.419a3.353,3.353,0,0,0-3.353-3.353H103.726A32.067,32.067,0,0,0,71.7,100.1v7.17a38.754,38.754,0,0,0,3.585,16.3v7.569A40.967,40.967,0,0,0,89.62,162.4v11.274l-6.245,6.561a3.349,3.349,0,0,0-.914,2.567l-20.628,7.5a17.581,17.581,0,0,0-4.145,2.172l-3.239-1.62c9.642-4.2,12.7-10.1,12.843-10.393a3.352,3.352,0,0,0,0-3c-2.417-4.834-2.71-13.695-2.945-20.814-.078-2.37-.152-4.609-.294-6.6-1.143-16.081-13.368-28.209-28.438-28.209S8.32,133.964,7.178,150.046c-.142,1.994-.216,4.233-.294,6.6-.235,7.119-.528,15.978-2.945,20.813a3.352,3.352,0,0,0,0,3c.147.293,3.195,6.184,12.856,10.386l-9,4.5A14.034,14.034,0,0,0,0,207.964v24.769a3.353,3.353,0,1,0,6.705,0V207.964a7.362,7.362,0,0,1,4.091-6.62l11.2-5.6,3.9,3.7a14.1,14.1,0,0,0,19.436,0l3.9-3.7,3.653,1.827a17.655,17.655,0,0,0-2.7,9.361v25.8a3.353,3.353,0,0,0,6.705,0v-25.8a11.02,11.02,0,0,1,7.232-10.325L85.873,188.7l9.054,13.581a6.912,6.912,0,0,0,5.088,3.055q.347.034.692.034a6.91,6.91,0,0,0,4.9-2.032l5.523-5.523v34.923a3.353,3.353,0,0,0,6.705,0V197.812l5.523,5.523a6.907,6.907,0,0,0,4.9,2.033q.344,0,.691-.034a6.912,6.912,0,0,0,5.089-3.055l9.054-13.581,21.748,7.908a11.021,11.021,0,0,1,7.232,10.325v25.8a3.353,3.353,0,1,0,6.705,0v-25.8a17.724,17.724,0,0,0-4.959-12.267l.828-.236a18.387,18.387,0,0,0,3.12-1.126l8.56,8.56v30.874a3.353,3.353,0,1,0,6.705,0V201.861l8.5-8.5a7.976,7.976,0,0,0,1.426.566l13.847,3.956A7.433,7.433,0,0,1,222.172,205v27.735a3.353,3.353,0,1,0,6.705,0V205A14.169,14.169,0,0,0,218.646,191.434ZM21.509,185.512c-6.271-2.257-9.417-5.265-10.76-6.908a36.956,36.956,0,0,0,1.911-8.028,25,25,0,0,0,8.849,10.918Zm19.206,9.074a7.4,7.4,0,0,1-10.2,0L27.4,191.622a6.937,6.937,0,0,0,.815-3.274v-3.574a24.931,24.931,0,0,0,14.8,0v3.571a6.937,6.937,0,0,0,.815,3.275Zm-5.1-15.391a18.176,18.176,0,0,1-18.156-18.156,3.332,3.332,0,0,0-3.9-3.3c.01-.288.019-.577.029-.863.075-2.305.147-4.483.279-6.35a24.891,24.891,0,0,1,6.778-15.632,20.831,20.831,0,0,1,29.943,0,24.891,24.891,0,0,1,6.778,15.632c.132,1.867.2,4.044.281,6.349.007.2.013.4.02.6-3.648-5.62-9.281-9.762-16.56-12.1a42.077,42.077,0,0,0-12.752-2.021,3.353,3.353,0,0,0-2.321,1.024l-6.049,6.274a3.353,3.353,0,0,0,4.827,4.654l5.034-5.22c4.335.212,18.281,1.834,23.7,13.777A18.112,18.112,0,0,1,35.617,179.195Zm14.1,6.329v-4A24.8,24.8,0,0,0,58.574,170.6a36.91,36.91,0,0,0,1.909,8.01C59.148,180.232,55.987,183.268,49.722,185.523Zm32.264-54.391v-8.318a3.353,3.353,0,0,0-.333-1.458A32.159,32.159,0,0,1,78.4,107.267V100.1a25.354,25.354,0,0,1,25.325-25.325h46.834v32.5a32.159,32.159,0,0,1-3.251,14.089,3.353,3.353,0,0,0-.333,1.458v9.546A32.187,32.187,0,0,1,136.7,156.074a33.367,33.367,0,0,1-2.574,2.179l-.058.042a32.237,32.237,0,0,1-21.755,6.49C95.306,163.684,81.986,148.9,81.986,131.132Zm18.877,67.461a.211.211,0,0,1-.187.067.213.213,0,0,1-.17-.1L90.079,182.917l3.355-3.526L109.253,190.2Zm13.618-12.938-18.156-12.41v-6.258a37.749,37.749,0,0,0,15.552,4.49q1.326.086,2.638.085a38.835,38.835,0,0,0,18.122-4.441v6.124Zm13.975,12.9a.213.213,0,0,1-.17.1.207.207,0,0,1-.187-.067l-8.389-8.389,15.818-10.813,3.356,3.526Zm61.221-2.829-7.608-7.608a9.2,9.2,0,0,0,.207-1.991v-1.415a23.509,23.509,0,0,0,6.639,1.173c.258.008.515.012.772.012a24.9,24.9,0,0,0,7.392-1.118v1.35a8.015,8.015,0,0,0,.242,1.954Zm12.643-21.66a18.019,18.019,0,0,1-13.2,5.117c-9.7-.291-17.6-8.837-17.6-19.049v-6.268a3.349,3.349,0,0,0-.354-1.5l-2.071-4.142a11.044,11.044,0,0,1-1.16-4.913v-.2a14.588,14.588,0,0,1,14.571-14.571h28.91v13.925a14.649,14.649,0,0,1-1.538,6.517l-1.692,3.385a3.351,3.351,0,0,0-.354,1.5v7.169A18.013,18.013,0,0,1,202.32,174.069Z" transform="translate(0 -68.066)" fill="#fff"/>
      </g>
    </g>
    <g id="Group_7" data-name="Group 7" transform="translate(207.832 207.872)">
      <g id="Group_6" data-name="Group 6">
        <path id="Path_10" data-name="Path 10" d="M468.276,380.814a3.353,3.353,0,0,0-3.353,3.353v21.509a3.353,3.353,0,1,0,6.705,0V384.167A3.353,3.353,0,0,0,468.276,380.814Z" transform="translate(-464.923 -380.814)" fill="#fff"/>
      </g>
    </g>
    <g id="Group_9" data-name="Group 9" transform="translate(14.339 212.304)">
      <g id="Group_8" data-name="Group 8">
        <path id="Path_11" data-name="Path 11" d="M35.43,390.728a3.353,3.353,0,0,0-3.353,3.353v17.077a3.353,3.353,0,1,0,6.705,0V394.081A3.353,3.353,0,0,0,35.43,390.728Z" transform="translate(-32.077 -390.728)" fill="#fff"/>
      </g>
    </g>
    <g id="Group_11" data-name="Group 11" transform="translate(86.035 98.525)">
      <g id="Group_10" data-name="Group 10" transform="translate(0 0)">
        <path id="Path_12" data-name="Path 12" d="M248.37,146.159c-12.68-12.68-39.211-10.256-50.03-8.625a6.883,6.883,0,0,0-5.881,6.857v7.724a3.353,3.353,0,0,0,6.705,0V144.39a.222.222,0,0,1,.175-.227,105.919,105.919,0,0,1,21.781-1.064c10.455.7,18.028,3.32,22.507,7.8a3.352,3.352,0,0,0,4.741-4.741Z" transform="translate(-192.46 -136.203)" fill="#fff"/>
      </g>
    </g>
    <g id="Group_13" data-name="Group 13" transform="translate(71.696 215.042)">
      <g id="Group_12" data-name="Group 12">
        <path id="Path_13" data-name="Path 13" d="M163.737,396.853a3.353,3.353,0,0,0-3.353,3.353v14.339a3.353,3.353,0,0,0,6.705,0V400.206A3.353,3.353,0,0,0,163.737,396.853Z" transform="translate(-160.384 -396.853)" fill="#fff"/>
      </g>
    </g>
    <g id="Group_15" data-name="Group 15" transform="translate(150.561 215.042)">
      <g id="Group_14" data-name="Group 14">
        <path id="Path_14" data-name="Path 14" d="M340.159,396.853a3.353,3.353,0,0,0-3.353,3.353v14.339a3.353,3.353,0,1,0,6.705,0V400.206A3.353,3.353,0,0,0,340.159,396.853Z" transform="translate(-336.806 -396.853)" fill="#fff"/>
      </g>
    </g>
  </g>
</svg>
