<svg xmlns="http://www.w3.org/2000/svg" width="365.718" height="365.695" viewBox="0 0 365.718 365.695">
  <g id="close" transform="translate(0 -0.359)">
    <path id="Path_2318" data-name="Path 2318" d="M356.34,296.348,69.727,9.734a31.984,31.984,0,0,0-45.246,0L9.375,24.816a31.988,31.988,0,0,0,0,45.25L295.988,356.68a31.988,31.988,0,0,0,45.25,0L356.32,341.6A31.964,31.964,0,0,0,356.34,296.348Zm0,0" fill="#fff"/>
    <path id="Path_2319" data-name="Path 2319" d="M295.988,9.734,9.375,296.348a31.988,31.988,0,0,0,0,45.25L24.457,356.68a31.988,31.988,0,0,0,45.25,0L356.34,70.086a31.977,31.977,0,0,0,0-45.246L341.258,9.758A31.991,31.991,0,0,0,295.988,9.734Zm0,0" fill="#fff"/>
  </g>
</svg>
