<svg id="Group_1767" data-name="Group 1767" xmlns="http://www.w3.org/2000/svg"
    xmlns:xlink="http://www.w3.org/1999/xlink" width="135.78" height="34" viewBox="0 0 135.78 34">
    <defs>
        <clipPath id="clip-path">
            <rect id="Rectangle_2064" data-name="Rectangle 2064" width="135.78" height="34" fill="none" />
        </clipPath>
        <linearGradient id="linear-gradient" y1="1.007" x2="0.003" y2="1.007" gradientUnits="objectBoundingBox">
            <stop offset="0" stop-color="#885bff" />
            <stop offset="0.182" stop-color="#885bff" />
            <stop offset="0.75" stop-color="#562dc5" />
            <stop offset="0.869" stop-color="#562dc5" />
            <stop offset="1" stop-color="#562dc5" />
        </linearGradient>
    </defs>
    <g id="Group_1766" data-name="Group 1766" clip-path="url(#clip-path)">
        <path id="Path_14778" data-name="Path 14778"
            d="M0,34.472H6.732a9.233,9.233,0,0,0,7.8-4.294l4.477-7.073a9.664,9.664,0,0,1,8.166-4.5,9.233,9.233,0,0,0,7.07-3.295l3.5-4.171a9.665,9.665,0,0,1,7.4-3.449h2.509A9.664,9.664,0,0,1,55.4,11.568L70.107,31.214l0,0A12.507,12.507,0,0,0,80.8,36.64a11.7,11.7,0,0,0,1.827-.126l.019,0h.019c2.881.02,7.932-3.011,9.643-5.368l1.176-1.6a9.664,9.664,0,0,1,7.791-3.945h3.755a9.233,9.233,0,0,0,7.752-4.217L120,10.218A9.665,9.665,0,0,1,128.113,5.8h7.666v.432h-7.666a9.232,9.232,0,0,0-7.751,4.217l-7.221,11.16a9.664,9.664,0,0,1-8.115,4.414h-3.755A9.234,9.234,0,0,0,93.829,29.8l-1.176,1.6c-1.85,2.491-6.857,5.525-9.991,5.546v-.217l.038.213a11.9,11.9,0,0,1-1.9.133A12.942,12.942,0,0,1,69.751,31.46l.18-.121-.173.13L55.052,11.827a9.233,9.233,0,0,0-7.391-3.7H45.152a9.232,9.232,0,0,0-7.07,3.295l-3.5,4.171a9.664,9.664,0,0,1-7.4,3.449,9.233,9.233,0,0,0-7.8,4.295L14.9,30.409a9.665,9.665,0,0,1-8.167,4.5H0v-.433Z"
            transform="translate(0 -3.292)" fill="url(#linear-gradient)" />
        <path id="Path_14779" data-name="Path 14779"
            d="M52.188,35.134a3.163,3.163,0,1,1-3.163-3.163,3.164,3.164,0,0,1,3.163,3.163"
            transform="translate(-26.02 -18.139)" fill="#e2ebf5" />
    </g>
</svg>