<svg id="cloud-computing" xmlns="http://www.w3.org/2000/svg" width="58.263" height="58.25" viewBox="0 0 58.263 58.25">
  <g id="Group_2" data-name="Group 2" transform="translate(0 0)">
    <g id="Group_1" data-name="Group 1" transform="translate(0 0)">
      <path id="Path_5" data-name="Path 5" d="M53.839,19.635a16.2,16.2,0,0,0,.275-2.951,16.648,16.648,0,0,0-32.3-5.654,8.324,8.324,0,0,0-11.173,5.791,12.486,12.486,0,0,0,1.852,24.835H22.9a2.081,2.081,0,1,0,0-4.162h-10.4a8.324,8.324,0,1,1,0-16.648,2.081,2.081,0,0,0,2.081-2.081A4.162,4.162,0,0,1,21.65,15.8a2.081,2.081,0,0,0,3.515-1.149,12.474,12.474,0,0,1,24.609,4.091q-.1.608-.262,1.2a2.081,2.081,0,0,0,.86,2.289,8.324,8.324,0,0,1-4.582,15.26H39.547a2.081,2.081,0,1,0,0,4.162H45.79a12.486,12.486,0,0,0,8.049-22.021Z" transform="translate(-0.001 -0.056)"/>
    </g>
  </g>
  <g id="Group_4" data-name="Group 4" transform="translate(18.761 18.709)">
    <g id="Group_3" data-name="Group 3">
      <path id="Path_6" data-name="Path 6" d="M178.155,179.073a2.081,2.081,0,0,0-2.891,0l-6.857,6.853V155.572a2.081,2.081,0,1,0-4.162,0v30.353l-6.853-6.853a2.081,2.081,0,0,0-2.943,2.943l10.4,10.4a2.081,2.081,0,0,0,2.943,0l0,0,10.4-10.4A2.081,2.081,0,0,0,178.155,179.073Z" transform="translate(-153.865 -153.491)"/>
    </g>
  </g>
</svg>
