<svg xmlns="http://www.w3.org/2000/svg" width="253.144" height="49.315" viewBox="0 0 253.144 49.315">
  <g id="Group_54" data-name="Group 54" transform="translate(-3366.964 354.118)">
    <path id="Path_105" data-name="Path 105" d="M-89.567-81.466h-1.261v-.662h3.254v.662h-1.261v3.451h-.732Zm2.975-.662h1.115l1.1,2.882,1.11-2.882h1.1v4.113h-.7v-3.416h-.012l-1.249,3.416h-.511l-1.249-3.416H-85.9v3.416h-.7Z" transform="translate(3702.174 -262.807)" fill="#264694" stroke="#254593" stroke-width="0.2"/>
    <path id="Path_103" data-name="Path 103" d="M2.222,0,5.915,6.414,7.5,9.163H0L19.93,40.342l2.935-5.352L10.426,15.541H33.046l3.673-6.378H10.877L9.293,6.414H42.055L21.978,43.449l3.872,5.866L51.646,0Z" transform="translate(3366.964 -354.118)" fill="#264694"/>
    <path id="Path_104" data-name="Path 104" d="M-248.936-82.128h8.185l8.057,21.144,8.142-21.144h8.1v30.181h-5.115V-77.013h-.085l-9.165,25.065h-3.751l-9.165-25.065h-.085v25.065h-5.115Zm66.926,19.1a12.416,12.416,0,0,1-.938,4.924,11.038,11.038,0,0,1-2.558,3.73,11.251,11.251,0,0,1-3.837,2.366,13.612,13.612,0,0,1-4.817.831,13.612,13.612,0,0,1-4.817-.831,11.483,11.483,0,0,1-3.858-2.366,10.649,10.649,0,0,1-2.558-3.73,12.668,12.668,0,0,1-.917-4.924v-19.1h5.371V-63.2a8.594,8.594,0,0,0,.341,2.323,6.526,6.526,0,0,0,1.13,2.238,6.037,6.037,0,0,0,2.089,1.684,7.057,7.057,0,0,0,3.218.661,7.057,7.057,0,0,0,3.218-.661,6.037,6.037,0,0,0,2.089-1.684,6.526,6.526,0,0,0,1.13-2.238,8.594,8.594,0,0,0,.341-2.323V-82.128h5.371Zm10.018-19.1h19.481v4.86h-14.11v7.929h13.3v4.86h-13.3v12.533h-5.371Zm34.06,4.86h-9.25v-4.86h23.872v4.86h-9.25v25.321h-5.371Zm27.538-4.86h4.646l13,30.181h-6.138l-2.813-6.906h-13.087l-2.728,6.906h-6.011Zm6.82,18.671-4.646-12.277-4.732,12.277Zm17.605-18.671h10.487a21.363,21.363,0,0,1,4.2.4,10.752,10.752,0,0,1,3.6,1.385,7.247,7.247,0,0,1,2.515,2.643,8.511,8.511,0,0,1,.938,4.22,8.4,8.4,0,0,1-1.812,5.5A7.771,7.771,0,0,1-71.22-65.29l8.014,13.343h-6.479l-6.991-12.788H-80.6v12.788h-5.371ZM-76.42-69.34q1.151,0,2.3-.107a7.069,7.069,0,0,0,2.11-.512,3.6,3.6,0,0,0,1.556-1.236,3.929,3.929,0,0,0,.6-2.323,3.707,3.707,0,0,0-.554-2.131,3.444,3.444,0,0,0-1.449-1.215,6.672,6.672,0,0,0-1.982-.533,18.061,18.061,0,0,0-2.11-.128H-80.6v8.185Z" transform="translate(3674.552 -262.807)" fill="#264694"/>
  </g>
</svg>
