<?xml version="1.0" encoding="utf-8"?>
<!-- Generator: Adobe Illustrator 27.9.0, SVG Export Plug-In . SVG Version: 6.00 Build 0)  -->
<svg version="1.1" id="Logo_00000057845759297181661290000010511191317103403909_"
	 xmlns="http://www.w3.org/2000/svg" xmlns:xlink="http://www.w3.org/1999/xlink" x="0px" y="0px" viewBox="0 0 1012 204"
	 style="enable-background:new 0 0 1012 204;" xml:space="preserve">
<style type="text/css">
	.st0{fill:#FFFFFF;}
	.st1{fill:#1D34E2;}
</style>
<g id="Chainhaul">
	<g>
		<path class="st0" d="M306.3,141.3c-7.2,4.7-16.6,7-28,7c-14.5,0-26.4-4.3-35.7-12.8c-9.3-8.5-13.9-19.5-13.9-32.9
			c0-13.4,4.6-24.4,13.9-32.9c9.3-8.5,21.2-12.8,35.7-12.8c11.4,0,20.8,2.3,28,7v16.9c-8-6.7-17.3-10-28-10c-9,0-16.3,3-21.9,9
			s-8.4,13.6-8.4,22.8c0,9.2,2.8,16.8,8.4,22.8c5.6,6,12.9,9.1,21.9,9.1c10.7,0,20-3.3,28-10V141.3z"/>
		<path class="st0" d="M404.3,146.3h-17.5v-37.8h-41.6v37.8h-17.5V79.1c0-4.8-0.3-8.3-0.9-10.4c-0.9-4-3-6.5-6.2-7.6v-2.1h24.6v36.4
			h41.6V58.9h17.5V146.3z"/>
		<path class="st0" d="M504.3,146.3h-19.6l-8.7-20.9h-34.9l-8.2,20.9h-17l35.9-87.4h15.4L504.3,146.3z M470.7,112.9l-10.1-25.1
			c-1.1-2.7-1.9-5.5-2.5-8.5c-0.7,3-1.5,5.8-2.5,8.5l-9.5,25.1H470.7z"/>
		<path class="st0" d="M535,146.3h-17.5V79.1c0-4.8-0.3-8.3-0.9-10.5c-0.9-3.9-3-6.4-6.2-7.5v-2.1H535V146.3z"/>
		<path class="st0" d="M642.8,146.3h-15.3l-48.2-58.7v58.7h-16.9V79.1c0-4.8-0.3-8.3-0.9-10.4c-0.9-3.9-3-6.5-6.1-7.6v-2.1h23.1
			l47.4,57.3V58.9h16.9V146.3z"/>
		<path class="st0" d="M746,146.3h-17.5v-37.8h-41.6v37.8h-17.5V79.1c0-4.8-0.3-8.3-0.9-10.4c-0.9-4-3-6.5-6.2-7.6v-2.1h24.6v36.4
			h41.6V58.9H746V146.3z"/>
		<path class="st0" d="M846,146.3h-19.6l-8.7-20.9h-34.9l-8.2,20.9h-17l35.9-87.4h15.4L846,146.3z M812.4,112.9l-10.1-25.1
			c-1.1-2.7-1.9-5.5-2.5-8.5c-0.7,3-1.5,5.8-2.5,8.5l-9.5,25.1H812.4z"/>
		<path class="st0" d="M932.9,111.2c0,12.5-3.5,21.9-10.4,28.2c-6.3,5.9-15.3,8.9-26.9,8.9c-11.5,0-20.5-3-26.9-8.9
			c-6.9-6.3-10.4-15.8-10.4-28.2V78.9c0-4.8-0.3-8.2-0.9-10.4c-0.9-3.9-3-6.4-6.2-7.5v-2.1h24.6v53.6c0,6.8,1.7,12,5,15.8
			s8.3,5.6,14.8,5.6c6.6,0,11.6-1.9,14.9-5.6s5-9,5-15.8V58.9h17.2V111.2z"/>
		<path class="st0" d="M1011.4,146.3h-52.5V79.1c0-4.8-0.3-8.3-0.9-10.4c-0.9-3.9-3-6.5-6.2-7.6v-2.1h24.6v74h35V146.3z"/>
	</g>
</g>
<g id="Ellipse_1">
	<g>
		<circle class="st1" cx="102.5" cy="102" r="102"/>
	</g>
</g>
<g id="Ch">
	<g>
		<path class="st0" d="M116.3,126.1c0.8-0.8,1.7-1.4,2.7-1.8c1-0.4,2.1-0.6,3.1-0.6c1.1,0,2.1,0.2,3.1,0.6c1,0.4,1.9,1,2.7,1.8
			c0.8,0.8,1.4,1.7,1.8,2.8c0.4,1,0.6,2,0.6,3.1c0,1-0.2,2.1-0.6,3.1c-0.4,1-1,1.9-1.8,2.8c-2.3,2.3-4.9,4.4-7.7,6.3
			c-2.8,1.8-5.7,3.4-8.8,4.7c-3.1,1.3-6.2,2.2-9.5,2.9c-3.3,0.7-6.6,1-9.9,1c-4.6,0-9.1-0.6-13.4-1.8s-8.4-2.9-12.1-5.1
			c-3.7-2.2-7.2-4.8-10.2-7.9c-3.1-3.1-5.7-6.5-7.9-10.2c-2.2-3.7-3.9-7.8-5.1-12.1c-1.2-4.3-1.8-8.8-1.8-13.4
			c0-4.7,0.6-9.2,1.8-13.5c1.2-4.3,2.9-8.3,5.1-12.1c2.2-3.8,4.8-7.2,7.9-10.2c3.1-3.1,6.5-5.7,10.2-7.9c3.7-2.2,7.8-3.9,12.1-5.1
			c4.3-1.2,8.8-1.8,13.4-1.8c6.8,0,13.3,1.3,19.4,3.8c6.1,2.5,11.6,6.2,16.4,11.1c0.8,0.8,1.4,1.7,1.8,2.8c0.4,1,0.6,2,0.6,3.1
			c0,1-0.2,2.1-0.6,3.1c-0.4,1-1,1.9-1.8,2.7c-0.8,0.8-1.7,1.4-2.7,1.8c-1,0.4-2.1,0.6-3.1,0.6c-1.1,0-2.1-0.2-3.1-0.6
			c-1-0.4-1.9-1-2.7-1.9c-3.2-3.2-6.9-5.7-11-7.4c-4.1-1.7-8.5-2.6-13.1-2.6C89,67.8,86,68.2,83,69c-2.9,0.8-5.6,2-8.2,3.5
			c-2.5,1.5-4.8,3.3-6.9,5.3c-2.1,2.1-3.9,4.4-5.4,6.9c-1.5,2.5-2.6,5.3-3.5,8.2c-0.8,2.9-1.2,5.9-1.2,9.1c0,3.1,0.4,6.1,1.2,9
			c0.8,2.9,2,5.6,3.5,8.2c1.5,2.5,3.3,4.8,5.4,6.9c2.1,2.1,4.4,3.9,6.9,5.3c2.5,1.5,5.2,2.6,8.2,3.5c2.9,0.8,5.9,1.2,9.1,1.2
			c4.5,0,8.9-0.9,13.1-2.6C109.4,131.8,113.1,129.3,116.3,126.1z M146.7,51.3c1.1,0,2.2,0.2,3.2,0.6c1,0.4,1.9,1,2.6,1.8
			c0.8,0.7,1.3,1.6,1.8,2.6c0.4,1,0.6,2.1,0.6,3.2v83.1c0,1.1-0.2,2.2-0.6,3.2c-0.4,1-1,1.9-1.8,2.7c-0.8,0.8-1.6,1.3-2.6,1.8
			c-1,0.4-2.1,0.6-3.2,0.6c-1.1,0-2.2-0.2-3.2-0.6c-1-0.4-1.9-1-2.7-1.8c-0.8-0.8-1.3-1.6-1.8-2.7c-0.4-1-0.6-2.1-0.6-3.2v-32.9
			h-30.8v6.1c0,1.1-0.2,2.2-0.6,3.2c-0.4,1-1,1.9-1.8,2.6c-0.8,0.8-1.6,1.3-2.6,1.8c-1,0.4-2.1,0.6-3.2,0.6c-1.1,0-2.2-0.2-3.2-0.6
			c-1-0.4-1.9-1-2.6-1.8c-0.8-0.8-1.3-1.6-1.8-2.6c-0.4-1-0.6-2.1-0.6-3.2V87.2c0-1.1,0.2-2.2,0.6-3.2c0.4-1,1-1.9,1.8-2.6
			c0.8-0.7,1.6-1.3,2.6-1.8c1-0.4,2.1-0.6,3.2-0.6c1.1,0,2.2,0.2,3.2,0.6c1,0.4,1.9,1,2.6,1.8c0.8,0.7,1.3,1.6,1.8,2.6
			c0.4,1,0.6,2.1,0.6,3.2v6.1h30.8V59.6c0-1.1,0.2-2.2,0.6-3.2c0.4-1,1-1.9,1.8-2.6c0.8-0.7,1.6-1.3,2.7-1.8
			C144.5,51.5,145.6,51.3,146.7,51.3z"/>
	</g>
</g>
</svg>
