<?xml version="1.0" encoding="utf-8"?>
<!-- Generator: Adobe Illustrator 27.9.0, SVG Export Plug-In . SVG Version: 6.00 Build 0)  -->
<svg version="1.1" id="Logo_00000057845759297181661290000010511191317103403909_"
	 xmlns="http://www.w3.org/2000/svg" xmlns:xlink="http://www.w3.org/1999/xlink" x="0px" y="0px" viewBox="0 0 204 204"
	 style="enable-background:new 0 0 204 204;" xml:space="preserve">
<style type="text/css">
	.st0{fill:#1D34E2;}
	.st1{fill:#FFFFFF;}
</style>
<g id="Chainhaul">
</g>
<g id="Ellipse_1">
	<g>
		<circle class="st0" cx="102" cy="102" r="102"/>
	</g>
</g>
<g id="Ch">
	<g>
		<path class="st1" d="M115.8,126.1c0.8-0.8,1.7-1.4,2.7-1.8c1-0.4,2.1-0.6,3.1-0.6c1.1,0,2.1,0.2,3.1,0.6c1,0.4,1.9,1,2.7,1.8
			c0.8,0.8,1.4,1.7,1.8,2.8c0.4,1,0.6,2,0.6,3.1c0,1-0.2,2.1-0.6,3.1c-0.4,1-1,1.9-1.8,2.8c-2.3,2.3-4.9,4.4-7.7,6.3
			c-2.8,1.8-5.7,3.4-8.8,4.7c-3.1,1.3-6.2,2.2-9.5,2.9c-3.3,0.7-6.6,1-9.9,1c-4.6,0-9.1-0.6-13.4-1.8s-8.4-2.9-12.1-5.1
			c-3.7-2.2-7.2-4.8-10.2-7.9c-3.1-3.1-5.7-6.5-7.9-10.2c-2.2-3.7-3.9-7.8-5.1-12.1c-1.2-4.3-1.8-8.8-1.8-13.4
			c0-4.7,0.6-9.2,1.8-13.5c1.2-4.3,2.9-8.3,5.1-12.1c2.2-3.8,4.8-7.2,7.9-10.2c3.1-3.1,6.5-5.7,10.2-7.9c3.7-2.2,7.8-3.9,12.1-5.1
			c4.3-1.2,8.8-1.8,13.4-1.8c6.8,0,13.3,1.3,19.4,3.8c6.1,2.5,11.6,6.2,16.4,11.1c0.8,0.8,1.4,1.7,1.8,2.8c0.4,1,0.6,2,0.6,3.1
			c0,1-0.2,2.1-0.6,3.1c-0.4,1-1,1.9-1.8,2.7c-0.8,0.8-1.7,1.4-2.7,1.8c-1,0.4-2.1,0.6-3.1,0.6c-1.1,0-2.1-0.2-3.1-0.6
			c-1-0.4-1.9-1-2.7-1.9c-3.2-3.2-6.9-5.7-11-7.4c-4.1-1.7-8.5-2.6-13.1-2.6c-3.1,0-6.1,0.4-9.1,1.2c-2.9,0.8-5.6,2-8.2,3.5
			c-2.5,1.5-4.8,3.3-6.9,5.3c-2.1,2.1-3.9,4.4-5.4,6.9c-1.5,2.5-2.6,5.3-3.5,8.2c-0.8,2.9-1.2,5.9-1.2,9.1c0,3.1,0.4,6.1,1.2,9
			c0.8,2.9,2,5.6,3.5,8.2c1.5,2.5,3.3,4.8,5.4,6.9c2.1,2.1,4.4,3.9,6.9,5.3c2.5,1.5,5.2,2.6,8.2,3.5c2.9,0.8,5.9,1.2,9.1,1.2
			c4.5,0,8.9-0.9,13.1-2.6C108.9,131.8,112.6,129.3,115.8,126.1z M146.2,51.3c1.1,0,2.2,0.2,3.2,0.6c1,0.4,1.9,1,2.6,1.8
			c0.8,0.7,1.3,1.6,1.8,2.6c0.4,1,0.6,2.1,0.6,3.2v83.1c0,1.1-0.2,2.2-0.6,3.2c-0.4,1-1,1.9-1.8,2.7c-0.8,0.8-1.6,1.3-2.6,1.8
			c-1,0.4-2.1,0.6-3.2,0.6c-1.1,0-2.2-0.2-3.2-0.6c-1-0.4-1.9-1-2.7-1.8c-0.8-0.8-1.3-1.6-1.8-2.7c-0.4-1-0.6-2.1-0.6-3.2v-32.9
			h-30.8v6.1c0,1.1-0.2,2.2-0.6,3.2c-0.4,1-1,1.9-1.8,2.6c-0.8,0.8-1.6,1.3-2.6,1.8c-1,0.4-2.1,0.6-3.2,0.6c-1.1,0-2.2-0.2-3.2-0.6
			c-1-0.4-1.9-1-2.6-1.8c-0.8-0.8-1.3-1.6-1.8-2.6c-0.4-1-0.6-2.1-0.6-3.2V87.2c0-1.1,0.2-2.2,0.6-3.2c0.4-1,1-1.9,1.8-2.6
			c0.8-0.7,1.6-1.3,2.6-1.8c1-0.4,2.1-0.6,3.2-0.6c1.1,0,2.2,0.2,3.2,0.6c1,0.4,1.9,1,2.6,1.8c0.8,0.7,1.3,1.6,1.8,2.6
			c0.4,1,0.6,2.1,0.6,3.2v6.1H138V59.6c0-1.1,0.2-2.2,0.6-3.2c0.4-1,1-1.9,1.8-2.6c0.8-0.7,1.6-1.3,2.7-1.8
			C144,51.5,145.1,51.3,146.2,51.3z"/>
	</g>
</g>
</svg>
