<svg xmlns="http://www.w3.org/2000/svg" xmlns:xlink="http://www.w3.org/1999/xlink" width="36" height="36" viewBox="0 0 36 36">
  <defs>
    <clipPath id="clip-path">
      <rect id="Rectangle_1780" data-name="Rectangle 1780" width="36" height="36" transform="translate(4789 1051)" fill="#fff"/>
    </clipPath>
  </defs>
  <g id="Mask_Group_22" data-name="Mask Group 22" transform="translate(-4789 -1051)" clip-path="url(#clip-path)">
    <g id="Group_1423" data-name="Group 1423" transform="translate(-4440.979 706.459)">
      <g id="Group_246" data-name="Group 246" transform="translate(9237.979 349.541)">
        <path id="Path_188" data-name="Path 188" d="M9243.176,371.971h-5.19a8.958,8.958,0,0,1,.077-1.8,1.8,1.8,0,0,1,.677-.962,8.08,8.08,0,0,1,1.97-1.1c.911-.384,1.83-.747,2.747-1.115a2.228,2.228,0,0,0,.782-.491c.429-.432.874-.848,1.313-1.271.185-.178.147-.368-.094-.459-.468-.175-.945-.329-1.407-.522a2.088,2.088,0,0,1-1.252-1.416.191.191,0,0,1,.088-.251,1.841,1.841,0,0,0,.861-1.641c0-.723.012-1.447-.007-2.17a5.972,5.972,0,0,0-.126-.8.467.467,0,0,1-.02-.165,5.451,5.451,0,0,1,2.655-3.934,4.372,4.372,0,0,1,5.382.868,5.862,5.862,0,0,1,1.539,3.147.616.616,0,0,1,0,.169c-.033.294-.095.588-.1.882-.015.672-.007,1.345,0,2.018,0,.117-.026.194-.144.229-.49.147-.978.3-1.471.438a.362.362,0,0,1-.244-.051,1.538,1.538,0,0,0-.78-.211c-.3,0-.6,0-.894,0a1.409,1.409,0,1,0,.034,2.818c.4-.008.8,0,1.194-.046a2.034,2.034,0,0,0,.533-.23,1.7,1.7,0,0,1,.389-.163,8.008,8.008,0,0,0,2.18-.654,2.054,2.054,0,0,1-.543.778,3.258,3.258,0,0,1-1.158.593c-.3.109-.605.221-.908.334a.239.239,0,0,0-.088.4c.521.509,1.032,1.035,1.587,1.507a3.34,3.34,0,0,0,.85.408c1.2.525,2.411,1.033,3.6,1.575a4.713,4.713,0,0,1,.868.578,1.611,1.611,0,0,1,.68,1.227c.026.491.007.985.007,1.489h-5.176a5.17,5.17,0,0,0-2.235-4.236,4.954,4.954,0,0,0-3.325-.919A5.2,5.2,0,0,0,9243.176,371.971Z" transform="translate(-9237.979 -350.842)" fill="#fff"/>
        <path id="Path_189" data-name="Path 189" d="M9242.049,358.531c0-.375,0-.749,0-1.123a1.18,1.18,0,0,1,.558-1.043.341.341,0,0,0,.116-.228,6.741,6.741,0,0,1,.75-2.693,6.91,6.91,0,0,1,5.558-3.855,7.076,7.076,0,0,1,7.788,5.861c.043.237.05.479.089.717a.355.355,0,0,0,.12.2,1.183,1.183,0,0,1,.553,1.01c0,.78.014,1.561,0,2.341a1.191,1.191,0,0,1-1.729,1.053.216.216,0,0,0-.254.014,6.078,6.078,0,0,1-2.605.946c-.132.019-.266.021-.395.047a.3.3,0,0,0-.166.1.738.738,0,0,1-.63.289c-.279,0-.559,0-.838,0a.7.7,0,1,1,0-1.4c.291-.005.584,0,.875,0a.752.752,0,0,1,.562.236.254.254,0,0,0,.177.071,5.911,5.911,0,0,0,2.514-.8c.117-.072.176-.137.121-.287a1.138,1.138,0,0,1-.037-.357c0-.71,0-1.421,0-2.132a1.239,1.239,0,0,1,.572-1.133.263.263,0,0,0,.067-.207,5.771,5.771,0,0,0-1.349-3.33,5.892,5.892,0,0,0-4.771-2.2,6.026,6.026,0,0,0-5.848,5.268c-.006.05-.012.1-.021.151a.344.344,0,0,0,.169.407,1.043,1.043,0,0,1,.462.9c.009.8.012,1.6,0,2.4a1.2,1.2,0,0,1-2.4-.012C9242.044,359.33,9242.049,358.93,9242.049,358.531Z" transform="translate(-9239.387 -349.541)" fill="#fff"/>
        <path id="Path_190" data-name="Path 190" d="M9251.643,375.382a4.237,4.237,0,1,1-4.268,4.232A4.25,4.25,0,0,1,9251.643,375.382Zm-3.5,3.837h1.126l.094-.884-.867-.285Zm6.99.006-.36-1.174-.867.287.1.887Zm-.358,1.964.354-1.175H9254l-.093.89Zm-6.279,0,.867-.288-.1-.884h-1.125Zm1.811-3.441.929.091v-1.564A2.832,2.832,0,0,0,9250.3,377.75Zm2.66,0a2.866,2.866,0,0,0-.93-1.472v1.566Zm-2.662,3.744a2.87,2.87,0,0,0,.934,1.473V381.4Zm1.726,1.483a2.853,2.853,0,0,0,.931-1.485l-.931-.092Zm-1.978-3.756h1.183v-.6l-1.109-.111Zm3.168.006-.075-.712c-.365.032-.7.059-1.029.094a.135.135,0,0,0-.09.089c-.009.174,0,.349,0,.528Zm-3.1,1.507,1.108-.111v-.6h-1.183Zm1.911-.717v.607l1.111.109.072-.716Zm-2.5,1.652-.536.166-.031.056.925.765.035-.041Zm3.817.947.037.041.923-.767-.034-.058-.534-.162Zm-3.817-5.038.391-.946-.034-.042-.962.8Zm3.852-.988-.034.042.395.948.6-.2Z" transform="translate(-9241.229 -358.482)" fill="#fff"/>
      </g>
    </g>
  </g>
</svg>
