<svg xmlns="http://www.w3.org/2000/svg" xmlns:xlink="http://www.w3.org/1999/xlink" width="36" height="36" viewBox="0 0 36 36">
  <defs>
    <clipPath id="clip-path">
      <rect id="Rectangle_1779" data-name="Rectangle 1779" width="36" height="36" transform="translate(4790 991)" fill="#fff"/>
    </clipPath>
  </defs>
  <g id="Mask_Group_21" data-name="Mask Group 21" transform="translate(-4790 -991)" clip-path="url(#clip-path)">
    <g id="vuesax_bold_grid-edit" data-name="vuesax/bold/grid-edit" transform="translate(4352 1129) rotate(-90)">
      <g id="grid-edit">
        <path id="Vector" d="M0,0H24V24H0Z" transform="translate(108 444)" fill="none" opacity="0"/>
        <path id="Vector-2" data-name="Vector" d="M7.34.666a1.6,1.6,0,0,0-2.6,0L.59,4.816a1.512,1.512,0,0,0-.35.69L.01,7.1a.744.744,0,0,0,.89.89l1.59-.23a1.421,1.421,0,0,0,.69-.35l4.15-4.15A1.583,1.583,0,0,0,7.34.666Z" transform="translate(121.99 458.004)" fill="#fff"/>
        <path id="Vector-3" data-name="Vector" d="M5.75,0V5.8H0C0,2.19,2.15.02,5.75,0Z" transform="translate(110 446)" fill="#fff"/>
        <path id="Vector-4" data-name="Vector" d="M4.68,5.8H0V0C3.21.02,5.27,1.75,5.68,4.68A1,1,0,0,1,4.68,5.8Z" transform="translate(124.25 446)" fill="#fff"/>
        <path id="Vector-5" data-name="Vector" d="M5.75,0V4.62a1.007,1.007,0,0,1-1.13,1C1.73,5.19.04,3.16,0,0Z" transform="translate(110 460.3)" fill="#fff"/>
        <path id="Vector-6" data-name="Vector" d="M5.75,0H0V5.5H5.75Z" transform="translate(110 453.3)" fill="#fff"/>
        <path id="Vector-7" data-name="Vector" d="M5.5,0H0V5.5H4.5a1,1,0,0,0,1-1Z" transform="translate(117.25 453.3)" fill="#fff"/>
        <path id="Vector-8" data-name="Vector" d="M5.5,0H0V5.8H5.5Z" transform="translate(117.25 446)" fill="#fff"/>
      </g>
    </g>
  </g>
</svg>
