<svg id="Iconly_Bold_Notification" data-name="Iconly/Bold/Notification" xmlns="http://www.w3.org/2000/svg" width="23" height="26" viewBox="0 0 23 26">
  <g id="Notification">
    <path id="Notification-2" data-name="Notification" d="M10.8,25.957A5,5,0,0,1,8.482,25a2,2,0,0,1-.941-1.525c0-.655.625-.955,1.2-1.083a36.54,36.54,0,0,1,5.475,0c.578.129,1.2.428,1.2,1.083a2.007,2.007,0,0,1-.94,1.526,5.023,5.023,0,0,1-2.317.951,5.622,5.622,0,0,1-.692.043A5.159,5.159,0,0,1,10.8,25.957ZM5.092,20.472a6.235,6.235,0,0,1-3.923-1.837A4.59,4.59,0,0,1,0,15.542a4.265,4.265,0,0,1,.989-3,4.829,4.829,0,0,0,1.438-3.7V8.281A7.133,7.133,0,0,1,4.163,3.265,9.731,9.731,0,0,1,11.44,0h.122a9.677,9.677,0,0,1,7.4,3.412,7.026,7.026,0,0,1,1.617,4.87v.553a4.945,4.945,0,0,0,1.437,3.7,4.26,4.26,0,0,1,.989,3,4.589,4.589,0,0,1-1.168,3.092,6.241,6.241,0,0,1-3.923,1.837c-2.126.173-4.253.321-6.408.321A58.676,58.676,0,0,1,5.092,20.472Z" fill="#fff"/>
  </g>
</svg>
