<svg xmlns="http://www.w3.org/2000/svg" width="44.18" height="44.18" viewBox="0 0 44.18 44.18">
  <g id="Group_172" data-name="Group 172" transform="translate(-41.844 -316.345)">
    <g id="dispatch" transform="translate(41.844 316.345)">
      <path id="Path_290" data-name="Path 290" d="M0,0H44.18V44.18H0Z" fill="none"/>
      <path id="Path_291" data-name="Path 291" d="M35.862,13.885h1.955A3.682,3.682,0,0,1,41.5,17.567V24.93a3.682,3.682,0,0,1-3.682,3.682H35.862A14.729,14.729,0,0,1,21.249,41.5V37.816A11.045,11.045,0,0,0,32.294,26.771V15.726a11.045,11.045,0,0,0-22.09,0V28.612H4.682A3.682,3.682,0,0,1,1,24.93V17.567a3.682,3.682,0,0,1,3.682-3.682H6.637a14.729,14.729,0,0,1,29.225,0ZM4.682,17.567V24.93H6.523V17.567Zm31.294,0V24.93h1.841V17.567ZM13.444,28.216,15.4,25.094a11.055,11.055,0,0,0,11.708,0l1.951,3.122a14.737,14.737,0,0,1-15.61,0Z" transform="translate(0.841 0.842)" fill="#fff"/>
    </g>
  </g>
</svg>
