<svg xmlns="http://www.w3.org/2000/svg" width="36.618" height="36.618" viewBox="0 0 36.618 36.618">
  <g id="Group_174" data-name="Group 174" transform="translate(-38.689 -435.191)" opacity="0.5">
    <g id="accounting" transform="translate(38.689 435.191)">
      <g id="Layer_x0020_1" transform="translate(5.875 4.359)">
        <path id="Path_294" data-name="Path 294" d="M1.514.8H25.947V25.967A2.739,2.739,0,0,1,23.214,28.7H3.811a2.739,2.739,0,0,1-2.732-2.732V.8h.436Zm23.561.872H1.95v24.3a1.867,1.867,0,0,0,1.861,1.861h19.4a1.867,1.867,0,0,0,1.861-1.861V1.672Z" transform="translate(-1.078 -0.8)" fill="#fff"/>
        <path id="Path_295" data-name="Path 295" d="M18.748,2.413h.436V1.541H1.761v.872H18.748Z" transform="translate(1.962 2.499)" fill="#fff"/>
        <path id="Path_296" data-name="Path 296" d="M14.519,2.91h.436V2.038H1.761V2.91H14.519Z" transform="translate(1.962 4.709)" fill="#fff"/>
        <path id="Path_297" data-name="Path 297" d="M13.091,3.407h.436V2.535H1.761v.872h11.33Z" transform="translate(1.962 6.919)" fill="#fff"/>
        <path id="Path_298" data-name="Path 298" d="M12.3,3.9h.436V3.032H1.761V3.9H12.3Z" transform="translate(1.962 9.129)" fill="#fff"/>
        <path id="Path_299" data-name="Path 299" d="M9.866,4.4H10.3V3.528H1.761V4.4H9.866Z" transform="translate(1.962 11.339)" fill="#fff"/>
        <path id="Path_300" data-name="Path 300" d="M11.347,4.9h.436V4.025H1.761V4.9h9.585Z" transform="translate(1.962 13.549)" fill="#fff"/>
        <path id="Path_301" data-name="Path 301" d="M11.347,5.394h.436V4.522H1.761v.872h9.585Z" transform="translate(1.962 15.759)" fill="#fff"/>
        <path id="Path_302" data-name="Path 302" d="M11.347,5.89h.436V5.019H1.761V5.89h9.585Z" transform="translate(1.962 17.969)" fill="#fff"/>
        <path id="Path_303" data-name="Path 303" d="M6.977,15.287V14.06a4.514,4.514,0,0,1-1.5-.412,2.621,2.621,0,0,1-1-.959A3.423,3.423,0,0,1,4,11.073l1.234-.233a3.1,3.1,0,0,0,.505,1.453,1.778,1.778,0,0,0,1.241.729V9.115a5.13,5.13,0,0,1-1.548-.587,2.275,2.275,0,0,1-.9-.908,2.688,2.688,0,0,1-.317-1.315,2.686,2.686,0,0,1,.927-2.121,3.217,3.217,0,0,1,1.842-.668V2.929H7.7v.587a3.028,3.028,0,0,1,1.7.626,2.783,2.783,0,0,1,.969,1.835L9.1,6.168a2.086,2.086,0,0,0-.454-1.108A1.664,1.664,0,0,0,7.7,4.552V8.091a10,10,0,0,1,1.227.363,3.023,3.023,0,0,1,.934.612,2.454,2.454,0,0,1,.556.859,2.927,2.927,0,0,1,.2,1.078A2.95,2.95,0,0,1,7.7,14.046v1.241H6.977Zm0-10.749a1.815,1.815,0,0,0-1.129.573,1.6,1.6,0,0,0-.412,1.1,1.585,1.585,0,0,0,.352,1.05,2.422,2.422,0,0,0,1.19.675v-3.4ZM7.7,13.022A1.818,1.818,0,0,0,8.884,12.4a1.922,1.922,0,0,0,.468-1.318,1.655,1.655,0,0,0-.331-1.073A2.871,2.871,0,0,0,7.7,9.285v3.737Z" transform="translate(11.908 8.673)" fill="#fff"/>
      </g>
      <rect id="Rectangle_71" data-name="Rectangle 71" width="36.618" height="36.618" fill="none"/>
    </g>
  </g>
</svg>
